G04*
G04 #@! TF.GenerationSoftware,Altium Limited,Altium Designer,24.8.2 (39)*
G04*
G04 Layer_Physical_Order=6*
G04 Layer_Color=16711680*
%FSLAX25Y25*%
%MOIN*%
G70*
G04*
G04 #@! TF.SameCoordinates,30F909D6-0262-4237-A391-FF9CD089CF35*
G04*
G04*
G04 #@! TF.FilePolarity,Positive*
G04*
G01*
G75*
%ADD14C,0.00787*%
%ADD20R,0.01575X0.02362*%
%ADD21R,0.02756X0.04134*%
%ADD26R,0.09843X0.01968*%
%ADD27R,0.09843X0.03937*%
%ADD31R,0.01575X0.02126*%
%ADD33R,0.03937X0.05315*%
%ADD72C,0.00394*%
%ADD73C,0.00984*%
%ADD74C,0.03937*%
%ADD76C,0.00984*%
%ADD80R,0.01276X0.01451*%
%ADD81R,0.01193X0.01276*%
%ADD82R,0.01451X0.01276*%
%ADD83R,0.01276X0.01193*%
%ADD86R,0.06693X0.06693*%
%ADD87C,0.06693*%
%ADD88C,0.15748*%
G04:AMPARAMS|DCode=89|XSize=86.61mil|YSize=78.74mil|CornerRadius=19.68mil|HoleSize=0mil|Usage=FLASHONLY|Rotation=0.000|XOffset=0mil|YOffset=0mil|HoleType=Round|Shape=RoundedRectangle|*
%AMROUNDEDRECTD89*
21,1,0.08661,0.03937,0,0,0.0*
21,1,0.04724,0.07874,0,0,0.0*
1,1,0.03937,0.02362,-0.01968*
1,1,0.03937,-0.02362,-0.01968*
1,1,0.03937,-0.02362,0.01968*
1,1,0.03937,0.02362,0.01968*
%
%ADD89ROUNDEDRECTD89*%
%ADD90R,0.08661X0.07874*%
G04:AMPARAMS|DCode=91|XSize=74.8mil|YSize=59.06mil|CornerRadius=14.76mil|HoleSize=0mil|Usage=FLASHONLY|Rotation=0.000|XOffset=0mil|YOffset=0mil|HoleType=Round|Shape=RoundedRectangle|*
%AMROUNDEDRECTD91*
21,1,0.07480,0.02953,0,0,0.0*
21,1,0.04528,0.05906,0,0,0.0*
1,1,0.02953,0.02264,-0.01476*
1,1,0.02953,-0.02264,-0.01476*
1,1,0.02953,-0.02264,0.01476*
1,1,0.02953,0.02264,0.01476*
%
%ADD91ROUNDEDRECTD91*%
%ADD93C,0.01181*%
%ADD94C,0.04331*%
%ADD95R,0.01968X0.01181*%
%ADD96R,0.01181X0.01968*%
%ADD97R,0.03150X0.02953*%
%ADD98R,0.05315X0.03937*%
%ADD99O,0.15748X0.07087*%
%ADD100R,0.03150X0.05906*%
%ADD101R,0.01968X0.05906*%
%ADD102O,0.06299X0.02756*%
%ADD103R,0.05118X0.06496*%
%ADD104R,0.02756X0.00984*%
%ADD105R,0.01339X0.01968*%
%ADD106R,0.00984X0.02756*%
%ADD107R,0.13780X0.06000*%
%AMCUSTOMSHAPE108*
4,1,4,0.01500,0.00000,-0.01500,0.02000,-0.01500,-0.02000,0.01500,-0.02000,0.01500,0.00000,0.0*%
%ADD108CUSTOMSHAPE108*%

%AMCUSTOMSHAPE109*
4,1,4,0.01500,0.02000,-0.01500,0.02000,-0.01500,0.00000,0.01500,-0.02000,0.01500,0.02000,0.0*%
%ADD109CUSTOMSHAPE109*%

%ADD110R,0.05421X0.04459*%
G36*
X70227Y162205D02*
X70241Y162171D01*
X70392Y161023D01*
X70848Y159921D01*
X71574Y158976D01*
X72520Y158250D01*
X73621Y157794D01*
X74769Y157643D01*
X74803Y157629D01*
X90551D01*
X90624Y157659D01*
X92124Y157511D01*
X93635Y157053D01*
X95029Y156308D01*
X96250Y155305D01*
X97253Y154084D01*
X97997Y152691D01*
X98456Y151179D01*
X98604Y149679D01*
X98573Y149606D01*
Y139210D01*
X96949D01*
X96219Y139065D01*
X95601Y138651D01*
X95187Y138033D01*
X95042Y137303D01*
Y134350D01*
X95187Y133621D01*
X95601Y133002D01*
X96219Y132589D01*
X96949Y132444D01*
X98573D01*
Y127399D01*
X96949D01*
X96219Y127254D01*
X95601Y126840D01*
X95187Y126222D01*
X95042Y125492D01*
X94903Y125163D01*
X92167D01*
X92123Y125249D01*
X91930Y125669D01*
Y125710D01*
X91962Y125787D01*
Y126003D01*
X92028Y126163D01*
Y126593D01*
X91962Y126753D01*
Y127184D01*
X92028Y127344D01*
Y127774D01*
X91962Y127934D01*
Y128366D01*
X92028Y128525D01*
Y128955D01*
X91962Y129115D01*
Y129547D01*
X92028Y129706D01*
Y130137D01*
X91962Y130296D01*
Y130728D01*
X92028Y130887D01*
Y131318D01*
X91962Y131477D01*
Y132776D01*
X92716D01*
Y138878D01*
X91839D01*
X91837Y138884D01*
X91535Y139009D01*
X88386D01*
X88085Y138884D01*
X88082Y138878D01*
X87992D01*
Y138661D01*
X87960Y138583D01*
Y132584D01*
X87617Y132185D01*
X87186D01*
X87027Y132119D01*
X86595D01*
X86436Y132185D01*
X86005D01*
X85846Y132119D01*
X84449D01*
X84148Y131994D01*
X83686Y131890D01*
X81595Y131890D01*
Y131545D01*
X79632D01*
X79353Y131823D01*
X78956Y131988D01*
X78525D01*
X78127Y131823D01*
X77948Y131645D01*
X77461Y131853D01*
Y132105D01*
X77296Y132503D01*
X76991Y132808D01*
X76593Y132972D01*
X76163D01*
X75765Y132808D01*
X75460Y132503D01*
X75295Y132105D01*
Y131674D01*
X75460Y131277D01*
X75765Y130972D01*
X76163Y130807D01*
X76593D01*
X76991Y130972D01*
X77170Y131150D01*
X77658Y130943D01*
Y130690D01*
X77822Y130292D01*
X77867Y130248D01*
X78083Y129921D01*
X77867Y129595D01*
X77822Y129550D01*
X77658Y129152D01*
Y128722D01*
X77822Y128324D01*
X78127Y128019D01*
X78525Y127854D01*
X78956D01*
X79353Y128019D01*
X79658Y128324D01*
X79823Y128722D01*
Y129152D01*
X79658Y129550D01*
X79614Y129595D01*
X79450Y129842D01*
X79712Y130266D01*
X81595D01*
X81595Y128901D01*
X81489Y128668D01*
X81300Y128425D01*
X81300Y128362D01*
Y128229D01*
X81267Y128150D01*
Y125787D01*
X81300Y125708D01*
Y125669D01*
X81103Y125251D01*
X81059Y125166D01*
X79909D01*
X79583Y125666D01*
X79626Y125769D01*
Y126200D01*
X79461Y126597D01*
X79157Y126902D01*
X78759Y127067D01*
X78328D01*
X77930Y126902D01*
X77626Y126597D01*
X77461Y126200D01*
Y126079D01*
X76981Y125822D01*
X76745Y126010D01*
Y127016D01*
X74491D01*
Y127905D01*
X74843D01*
Y129969D01*
X72862D01*
Y127905D01*
X73213D01*
Y127016D01*
X72862D01*
Y124953D01*
X73213D01*
Y124414D01*
X73159Y124360D01*
X72713Y124181D01*
X72485Y124362D01*
X72374Y124629D01*
X72070Y124934D01*
X71672Y125098D01*
X71566D01*
X71298Y125598D01*
X71377Y125716D01*
X71464Y126153D01*
X71505Y126253D01*
X71505Y132488D01*
X71505Y132977D01*
X71505Y132977D01*
X71505Y132977D01*
X71505D01*
X71464Y133078D01*
X71377Y133515D01*
X71140Y133868D01*
X71097Y133976D01*
X69142Y135968D01*
Y138949D01*
X69142Y138949D01*
X69070Y139449D01*
X69193Y139745D01*
Y140176D01*
X69028Y140574D01*
X68723Y140878D01*
X68326Y141043D01*
X67895D01*
X67497Y140878D01*
X67192Y140574D01*
X67119Y140396D01*
X66982Y140252D01*
X66673Y140163D01*
X66528Y140158D01*
X66354Y140274D01*
X65917Y140361D01*
X65816Y140403D01*
X63515D01*
X63415Y140361D01*
X62977Y140274D01*
X62609Y140028D01*
X62508Y139987D01*
X62508Y139987D01*
X62507Y139986D01*
X62155Y139634D01*
X58636Y136115D01*
X58532Y136072D01*
X56601D01*
X56322Y136351D01*
X55924Y136516D01*
X55843D01*
X55636Y137016D01*
X66807Y148187D01*
X66911Y148229D01*
X68348D01*
X68602Y147835D01*
Y143110D01*
X74705D01*
Y144469D01*
X75689D01*
Y143110D01*
X81791D01*
Y147835D01*
X75689D01*
Y146476D01*
X74705D01*
Y147835D01*
X74923Y148244D01*
X74934Y148255D01*
X75099Y148653D01*
Y149084D01*
X74934Y149482D01*
X74629Y149786D01*
X74231Y149951D01*
X73801D01*
X73403Y149786D01*
X73098Y149482D01*
X72571D01*
X72266Y149786D01*
X71868Y149951D01*
X71438D01*
X71400Y149935D01*
X70824Y150437D01*
X70690Y150482D01*
X70425Y150658D01*
X69988Y150745D01*
X69888Y150787D01*
X67009D01*
X66909Y150745D01*
X66472Y150658D01*
X66104Y150412D01*
X66003Y150371D01*
X66003Y150371D01*
X66002Y150370D01*
X65649Y150018D01*
X50565Y134934D01*
X50523Y134832D01*
X50277Y134463D01*
X50190Y134026D01*
X50148Y133926D01*
Y133887D01*
X49648Y133540D01*
X49496Y133595D01*
X49491Y133606D01*
X49354Y133743D01*
X49314Y133760D01*
X49289Y133796D01*
X49128Y133904D01*
X49085Y133912D01*
X49055Y133943D01*
X48875Y134017D01*
X48832D01*
X48795Y134042D01*
X48605Y134079D01*
X48562Y134071D01*
X48522Y134088D01*
X48425Y134088D01*
X48425Y134088D01*
X48425Y134088D01*
X48328D01*
X48288Y134071D01*
X48245Y134079D01*
X48055Y134042D01*
X48039Y134031D01*
X47905Y134058D01*
X47570Y134253D01*
X47517Y134325D01*
X47513Y134333D01*
X47374Y134668D01*
X47070Y134973D01*
X46672Y135138D01*
X46241D01*
X46133Y135093D01*
X45669Y135227D01*
X45660Y135231D01*
X45361Y135632D01*
X45314Y135659D01*
Y136858D01*
X45315Y136858D01*
X45085Y137358D01*
X45177Y137580D01*
Y138011D01*
X45012Y138409D01*
X44708Y138713D01*
X44310Y138878D01*
X43879D01*
X43481Y138713D01*
X43177Y138409D01*
X43115Y138261D01*
X43102Y138253D01*
X42875Y138208D01*
X42261Y138399D01*
X42256Y138409D01*
X41952Y138713D01*
X41554Y138878D01*
X41123D01*
X40725Y138713D01*
X40421Y138409D01*
X40256Y138011D01*
Y137580D01*
X40299Y137477D01*
X40307Y136981D01*
X40307Y136981D01*
X40307Y136981D01*
Y135455D01*
X40008Y135079D01*
X39840Y135079D01*
X37945D01*
X37646Y135455D01*
Y136625D01*
X37777Y136713D01*
X38208D01*
X38605Y136877D01*
X38910Y137182D01*
X39075Y137580D01*
Y138011D01*
X38910Y138409D01*
X38605Y138713D01*
X38208Y138878D01*
X38159D01*
X37765Y138946D01*
X37697Y139340D01*
Y139389D01*
X37532Y139787D01*
X37227Y140091D01*
X36830Y140256D01*
X36399D01*
X36001Y140091D01*
X35696Y139787D01*
X35172D01*
X34868Y140091D01*
X34470Y140256D01*
X34039D01*
X33641Y140091D01*
X33336Y139787D01*
X33237Y139548D01*
X32710D01*
X32611Y139787D01*
X32306Y140091D01*
X31908Y140256D01*
X31478D01*
X31080Y140091D01*
X30775Y139787D01*
X30610Y139389D01*
Y138958D01*
X30775Y138560D01*
X31080Y138255D01*
X31478Y138091D01*
X31908D01*
X32306Y138255D01*
X32611Y138560D01*
X32710Y138799D01*
X33237D01*
X33336Y138560D01*
X33641Y138255D01*
X34039Y138091D01*
X34470D01*
X34868Y138255D01*
X35172Y138560D01*
X35590D01*
X35975Y138175D01*
Y137241D01*
X35583Y136981D01*
X35283D01*
Y136981D01*
X33220D01*
Y136475D01*
X32753Y136392D01*
X32678Y136476D01*
X32611Y136637D01*
X32306Y136942D01*
X31908Y137106D01*
X31478D01*
X31080Y136942D01*
X30775Y136637D01*
X30610Y136239D01*
Y135808D01*
X30775Y135410D01*
X30819Y135366D01*
X31036Y135039D01*
X30819Y134713D01*
X30775Y134668D01*
X30610Y134271D01*
Y133840D01*
X30775Y133442D01*
X31080Y133137D01*
X31478Y132973D01*
X31908D01*
X32306Y133137D01*
X32611Y133442D01*
X32721Y133707D01*
X33220Y133607D01*
Y133098D01*
X35283D01*
Y133098D01*
X35583D01*
Y133098D01*
X36166D01*
Y130782D01*
X36108Y130747D01*
X35666Y130629D01*
X35456Y130839D01*
X35058Y131004D01*
X34627D01*
X34229Y130839D01*
X33925Y130535D01*
X33760Y130137D01*
Y129706D01*
X33925Y129308D01*
X33773Y128846D01*
X33773D01*
Y128107D01*
X29500D01*
Y129969D01*
X29149D01*
Y130858D01*
X29500D01*
Y132921D01*
X27520D01*
Y130858D01*
X27871D01*
Y129969D01*
X26947D01*
X26823Y130020D01*
X26393D01*
X26269Y129969D01*
X25618D01*
Y129375D01*
X25525Y129152D01*
Y128722D01*
X25618Y128499D01*
Y127905D01*
X26269D01*
X26393Y127854D01*
X26823D01*
X26947Y127905D01*
X27871D01*
Y127016D01*
X25618D01*
Y124953D01*
X25969D01*
Y124063D01*
X25618D01*
Y124025D01*
X25118Y123818D01*
X24705Y124231D01*
Y124625D01*
X24540Y125023D01*
X24385Y125178D01*
X24287Y125492D01*
X24385Y125806D01*
X24540Y125961D01*
X24705Y126359D01*
Y126790D01*
X24540Y127188D01*
X24235Y127493D01*
X23837Y127657D01*
X23407D01*
X23009Y127493D01*
X22730Y127214D01*
X20768D01*
X20768Y128579D01*
X20873Y128812D01*
X21062Y129055D01*
X21062Y129118D01*
Y129251D01*
X21095Y129331D01*
Y131693D01*
X21062Y131811D01*
D01*
X21059Y132311D01*
X21062Y132363D01*
X21062Y132497D01*
Y135858D01*
X22596D01*
X22717Y135698D01*
X22861Y135358D01*
X22736Y135058D01*
Y134627D01*
X22901Y134229D01*
X23206Y133925D01*
X23588Y133766D01*
X23744Y133437D01*
X23802Y133303D01*
X23604Y132972D01*
X23206Y132808D01*
X22901Y132503D01*
X22736Y132105D01*
Y131674D01*
X22901Y131277D01*
X23009Y130839D01*
X22704Y130535D01*
X22539Y130137D01*
Y129706D01*
X22704Y129308D01*
X23009Y129003D01*
X23407Y128839D01*
X23837D01*
X24235Y129003D01*
X24540Y129308D01*
X24705Y129706D01*
Y130137D01*
X24540Y130535D01*
X24432Y130972D01*
X24737Y131277D01*
X24902Y131674D01*
Y132105D01*
X24801Y132348D01*
X26264Y133811D01*
X27598D01*
Y135874D01*
X25528D01*
X25320Y136357D01*
X25738Y136726D01*
X25769Y136713D01*
X26200D01*
X26597Y136877D01*
X26902Y137182D01*
X27067Y137580D01*
Y138011D01*
X26902Y138409D01*
X26597Y138713D01*
X26200Y138878D01*
X25769D01*
X25371Y138713D01*
X25066Y138409D01*
X24902Y138011D01*
Y137693D01*
X24312Y137173D01*
X24308Y137164D01*
X24227Y137131D01*
X24214Y137136D01*
X21158D01*
X20768Y137402D01*
X20768Y137636D01*
Y138337D01*
X21819D01*
X21920Y138379D01*
X22357Y138466D01*
X22725Y138712D01*
X22827Y138754D01*
X23542Y139469D01*
X23837D01*
X24235Y139633D01*
X24540Y139938D01*
X24705Y140336D01*
Y140767D01*
X24540Y141165D01*
X24235Y141469D01*
X23837Y141634D01*
X23407D01*
X23009Y141469D01*
X22704Y141165D01*
X22539Y140767D01*
Y140336D01*
X22557Y140292D01*
X21923Y139658D01*
X21819Y139616D01*
X20768D01*
Y140551D01*
X18405D01*
Y137588D01*
X18405Y137402D01*
X18035Y137088D01*
X15980D01*
X15747Y137134D01*
X7953D01*
X7845Y137112D01*
X7738Y137138D01*
X7320Y137155D01*
Y137303D01*
X7175Y138033D01*
X6762Y138651D01*
X6143Y139065D01*
X5413Y139210D01*
X3789D01*
Y149606D01*
X3759Y149679D01*
X3906Y151179D01*
X4365Y152691D01*
X5110Y154084D01*
X6112Y155305D01*
X7333Y156308D01*
X8727Y157053D01*
X10239Y157511D01*
X11738Y157659D01*
X11811Y157629D01*
X27559D01*
X27593Y157643D01*
X28741Y157794D01*
X29842Y158250D01*
X30788Y158976D01*
X31514Y159921D01*
X31970Y161023D01*
X32121Y162171D01*
X32135Y162205D01*
Y171945D01*
X32635Y172011D01*
X32696Y171785D01*
X33188Y170932D01*
X33885Y170236D01*
X34738Y169743D01*
X35689Y169488D01*
X36674D01*
X37625Y169743D01*
X38478Y170236D01*
X39174Y170932D01*
X39666Y171785D01*
X39921Y172736D01*
Y173721D01*
X39666Y174672D01*
X39174Y175525D01*
X38478Y176221D01*
X37625Y176714D01*
X37252Y176814D01*
X37318Y177314D01*
X45045D01*
X45110Y176814D01*
X44737Y176714D01*
X43885Y176221D01*
X43188Y175525D01*
X42696Y174672D01*
X42441Y173721D01*
Y172736D01*
X42696Y171785D01*
X43188Y170932D01*
X43885Y170236D01*
X44737Y169743D01*
X45689Y169488D01*
X46674D01*
X47625Y169743D01*
X48478Y170236D01*
X49174Y170932D01*
X49666Y171785D01*
X49921Y172736D01*
Y173721D01*
X49666Y174672D01*
X49174Y175525D01*
X48478Y176221D01*
X47625Y176714D01*
X47252Y176814D01*
X47318Y177314D01*
X55045D01*
X55110Y176814D01*
X54738Y176714D01*
X53885Y176221D01*
X53188Y175525D01*
X52696Y174672D01*
X52441Y173721D01*
Y172736D01*
X52696Y171785D01*
X53188Y170932D01*
X53885Y170236D01*
X54738Y169743D01*
X55278Y169598D01*
Y153453D01*
X55265D01*
X55185Y153050D01*
X54959Y152711D01*
X54543Y152508D01*
X54505Y152493D01*
X54490Y152478D01*
X47641D01*
Y152485D01*
X46896Y152387D01*
X46202Y152100D01*
X45611Y151647D01*
X45614Y151644D01*
X45614Y151640D01*
X45614Y151640D01*
X44394Y150420D01*
X44046Y150091D01*
X43645Y149852D01*
X43304Y149784D01*
Y149771D01*
X36455D01*
X36440Y149786D01*
X36042Y149951D01*
X35612D01*
X35214Y149786D01*
X34909Y149482D01*
X34383D01*
X34078Y149786D01*
X33680Y149951D01*
X33250D01*
X32852Y149786D01*
X32547Y149482D01*
X32020D01*
X31715Y149786D01*
X31317Y149951D01*
X30887D01*
X30489Y149786D01*
X30184Y149482D01*
X29659D01*
X29354Y149786D01*
X28956Y149951D01*
X28526D01*
X28128Y149786D01*
X27823Y149482D01*
X27296D01*
X26991Y149786D01*
X26593Y149951D01*
X26163D01*
X25765Y149786D01*
X25460Y149482D01*
X25295Y149084D01*
Y148653D01*
X25427Y148335D01*
X25304Y148025D01*
X25173Y147835D01*
X20571D01*
Y143110D01*
X26673D01*
Y144469D01*
X27657D01*
Y143110D01*
X33760D01*
Y147819D01*
X34078Y147950D01*
X34383Y148255D01*
X34909D01*
X35214Y147950D01*
X35612Y147786D01*
X36042D01*
X36440Y147950D01*
X36455Y147965D01*
X43304D01*
Y147958D01*
X44049Y148056D01*
X44743Y148344D01*
X45334Y148796D01*
X45331Y148800D01*
X45331Y148803D01*
X46551Y150023D01*
X46899Y150352D01*
X47300Y150591D01*
X47641Y150659D01*
Y150672D01*
X54490D01*
X54505Y150657D01*
X54903Y150492D01*
X55334D01*
X55731Y150657D01*
X56036Y150961D01*
X56054Y151006D01*
X56253Y151423D01*
Y151423D01*
X56706Y152014D01*
X56993Y152708D01*
X57091Y153453D01*
X57084D01*
Y169598D01*
X57625Y169743D01*
X58478Y170236D01*
X59174Y170932D01*
X59666Y171785D01*
X59921Y172736D01*
Y173721D01*
X59666Y174672D01*
X59174Y175525D01*
X58478Y176221D01*
X57625Y176714D01*
X57252Y176814D01*
X57318Y177314D01*
X70227D01*
Y162205D01*
D02*
G37*
G36*
X39603Y133098D02*
X40008Y133098D01*
X40103Y132637D01*
Y129527D01*
X39856D01*
Y125984D01*
X41628D01*
Y125984D01*
X41824D01*
Y125984D01*
X43247D01*
X43615Y125906D01*
X43707Y125530D01*
X43707Y124115D01*
X43707Y123615D01*
Y122449D01*
X43707Y122146D01*
X43707D01*
Y121949D01*
X43707D01*
Y120481D01*
X43707Y120177D01*
X43707D01*
Y119981D01*
X43707D01*
Y118467D01*
X43616Y118005D01*
X43616Y117746D01*
Y115249D01*
X44114D01*
X44177Y114929D01*
X44423Y114561D01*
X44465Y114460D01*
X44465Y114460D01*
X44465Y114459D01*
X44466D01*
X44466Y114459D01*
X44570Y114355D01*
X44576Y114348D01*
X44673Y114308D01*
X45050Y114056D01*
X45487Y113969D01*
X45588Y113928D01*
X45762D01*
X46040Y113649D01*
X46438Y113484D01*
X46869D01*
X47267Y113649D01*
X47571Y113954D01*
X47736Y114352D01*
Y114782D01*
X47571Y115180D01*
X47267Y115485D01*
X46869Y115650D01*
X46438D01*
X46242Y115568D01*
X45772Y115824D01*
X45742Y115861D01*
X45742Y118005D01*
X46158Y118209D01*
X46386D01*
X47490Y117933D01*
X47490Y117933D01*
X47551Y117908D01*
X47557Y117895D01*
X48164Y117298D01*
Y116915D01*
X48328Y116517D01*
X48633Y116212D01*
X49031Y116048D01*
X49462D01*
X49648Y116125D01*
X50148Y115848D01*
Y97373D01*
X50154Y97360D01*
X50118Y97275D01*
X50106Y97270D01*
X47022Y94186D01*
X46979Y94084D01*
X46733Y93715D01*
X46647Y93278D01*
X46605Y93178D01*
Y91717D01*
X46647Y91616D01*
X46733Y91179D01*
X46979Y90811D01*
X47022Y90709D01*
X47741Y89990D01*
X47736Y89979D01*
Y89548D01*
X47901Y89151D01*
X48206Y88846D01*
X48603Y88681D01*
X49034D01*
X49401Y88292D01*
X49426Y88177D01*
X48946Y87697D01*
X48603D01*
X48206Y87532D01*
X47901Y87227D01*
X47736Y86830D01*
Y86399D01*
X47901Y86001D01*
X48206Y85696D01*
X48603Y85532D01*
X48884D01*
X49143Y85364D01*
X49311Y85105D01*
Y84824D01*
X49476Y84426D01*
X49780Y84122D01*
X50178Y83957D01*
X50572D01*
X51287Y83242D01*
X51389Y83200D01*
X51757Y82954D01*
X52194Y82867D01*
X52295Y82825D01*
X57942D01*
X58045Y82783D01*
X63098Y77730D01*
X63110Y77725D01*
X63146Y77640D01*
X63140Y77627D01*
Y57953D01*
X63076Y57480D01*
X62640Y57480D01*
X60320D01*
Y56741D01*
X59578D01*
X59477Y56700D01*
X59040Y56613D01*
X58672Y56367D01*
X58571Y56325D01*
X58571Y56325D01*
X58570Y56324D01*
X58218Y55972D01*
X56716Y54470D01*
X56216Y54677D01*
Y57480D01*
X54761D01*
X54743Y57972D01*
X54797Y57995D01*
X55141Y58137D01*
X55445Y58442D01*
X55610Y58840D01*
Y59271D01*
X55445Y59668D01*
X55141Y59973D01*
X54743Y60138D01*
X54312D01*
X53914Y59973D01*
X53610Y59668D01*
X53445Y59271D01*
Y58840D01*
X53610Y58442D01*
X53914Y58137D01*
X54259Y57995D01*
X54312Y57972D01*
X54294Y57480D01*
X53460D01*
Y57135D01*
X52688D01*
X52675Y57130D01*
X52590Y57165D01*
X52584Y57178D01*
X51075Y58687D01*
X51063Y58692D01*
X51028Y58778D01*
X51033Y58791D01*
Y63283D01*
X51090Y63348D01*
X51533Y63576D01*
X51753Y63484D01*
X52147D01*
X54238Y61394D01*
X54337Y61353D01*
X54710Y61104D01*
X55147Y61017D01*
X55247Y60975D01*
X56236Y60975D01*
X56647Y60744D01*
X56647Y60744D01*
X56648Y60744D01*
X57284Y59473D01*
Y57556D01*
X59252D01*
Y60312D01*
X58293D01*
X57791Y61316D01*
X57524Y61687D01*
X57524Y61687D01*
X57376Y61835D01*
X57376Y61835D01*
X57275Y61877D01*
X57140Y61967D01*
X56904Y62125D01*
X56467Y62212D01*
X56367Y62253D01*
Y62253D01*
X56367Y62253D01*
X55625Y62253D01*
X55202Y62291D01*
X54876Y62564D01*
X53051Y64388D01*
Y64782D01*
X52886Y65180D01*
X52582Y65485D01*
X52184Y65650D01*
X51753D01*
X51384Y66038D01*
X51357Y66163D01*
X51812Y66634D01*
X52184D01*
X52582Y66799D01*
X52886Y67103D01*
X53051Y67501D01*
Y67932D01*
X52886Y68330D01*
X52582Y68634D01*
X52184Y68799D01*
X51753D01*
X51355Y68634D01*
X51051Y68330D01*
X50886Y67932D01*
Y67516D01*
X50155Y66759D01*
X50110Y66645D01*
X49883Y66305D01*
X49796Y65868D01*
X49755Y65768D01*
Y60339D01*
X49697Y60275D01*
X49255Y60047D01*
X49034Y60138D01*
X48603D01*
X48206Y59973D01*
X47901Y59668D01*
X47736Y59271D01*
Y58840D01*
X47901Y58442D01*
X48206Y58137D01*
X48603Y57973D01*
X49034D01*
X49411Y58128D01*
X49446Y58138D01*
X50032Y58030D01*
X50129Y57885D01*
X50171Y57783D01*
X51681Y56274D01*
X51783Y56231D01*
X52061Y56045D01*
X52004Y55612D01*
X51978Y55545D01*
X51331D01*
Y53307D01*
X53394D01*
Y53307D01*
X53839Y53175D01*
Y53131D01*
X54003Y52733D01*
X54308Y52429D01*
X54706Y52264D01*
X55137D01*
X55305Y51828D01*
X55285Y51499D01*
X55207Y51104D01*
X55219Y51099D01*
X55030Y50638D01*
X54292D01*
Y48575D01*
X56530Y48575D01*
X56958Y48401D01*
X57064Y48295D01*
X57462Y48130D01*
X57856D01*
X58767Y47219D01*
X58869Y47176D01*
X59237Y46930D01*
X59360Y46906D01*
X59723Y46823D01*
X59775Y46802D01*
X59793D01*
X59817Y46802D01*
X59817Y46802D01*
X60189Y46492D01*
X60734Y45946D01*
Y43307D01*
X62506D01*
Y43307D01*
X62703D01*
Y43307D01*
X64171D01*
X64475Y43307D01*
X64975Y43307D01*
X66082D01*
X66460Y43226D01*
X66541Y42848D01*
Y41437D01*
X66541D01*
Y41240D01*
X66541D01*
Y39771D01*
X66541Y39469D01*
X66541Y38969D01*
Y37802D01*
X66541Y37500D01*
X66541D01*
Y37302D01*
X66541D01*
Y35892D01*
X66460Y35513D01*
X66082Y35433D01*
X64671D01*
Y31890D01*
X64918D01*
Y28736D01*
X64717Y28319D01*
X64417D01*
Y28319D01*
X62759D01*
X62354Y28319D01*
X62259Y28780D01*
Y31890D01*
X62506D01*
Y35433D01*
X61038D01*
X60734Y35433D01*
X60234Y35433D01*
X59115D01*
X58747Y35511D01*
X58656Y35888D01*
X58656Y37302D01*
X58656Y37802D01*
Y38969D01*
X58656Y39271D01*
X58656D01*
Y39469D01*
X58656D01*
Y40937D01*
X58656Y41240D01*
X58656D01*
Y41437D01*
X58656D01*
Y42950D01*
X58746Y43413D01*
X58746Y43671D01*
Y46169D01*
X58249D01*
X58185Y46488D01*
X57938Y46857D01*
X57897Y46959D01*
X57897Y46959D01*
Y46959D01*
X57783Y47072D01*
X57783Y47072D01*
X57683Y47113D01*
X57312Y47361D01*
X56875Y47448D01*
X56774Y47490D01*
Y47490D01*
X56774Y47490D01*
X56601D01*
X56322Y47768D01*
X55924Y47933D01*
X55493D01*
X55095Y47768D01*
X54791Y47464D01*
X54626Y47066D01*
Y46635D01*
X54791Y46237D01*
X55095Y45932D01*
X55493Y45768D01*
X55924D01*
X56120Y45849D01*
X56590Y45593D01*
X56620Y45556D01*
X56620Y43413D01*
X56204Y43208D01*
X55976D01*
X55342Y43367D01*
X54859Y43488D01*
X54857Y43488D01*
X54514Y43801D01*
X54203Y44112D01*
Y44506D01*
X54038Y44904D01*
X53733Y45209D01*
X53335Y45374D01*
X52905D01*
X52714Y45295D01*
X52214Y45570D01*
Y49185D01*
X52214Y49674D01*
X52214Y49674D01*
X52214Y49674D01*
X52214D01*
X52172Y49774D01*
X52085Y50212D01*
X51838Y50582D01*
X51796Y50683D01*
X51796Y50683D01*
X51796Y50683D01*
X50090Y52389D01*
X50078Y52394D01*
X50043Y52478D01*
X50049Y52491D01*
Y54398D01*
X50007Y54499D01*
X49920Y54936D01*
X49672Y55306D01*
X49631Y55407D01*
X49631Y55407D01*
X49631Y55407D01*
X49631Y55407D01*
X49286Y55752D01*
X46550Y58488D01*
X46450Y58529D01*
X46078Y58778D01*
X45641Y58865D01*
X45540Y58907D01*
X34570D01*
X34363Y59407D01*
X34382Y59426D01*
X34547Y59824D01*
Y60255D01*
X34382Y60653D01*
X34078Y60957D01*
X33680Y61122D01*
X33249D01*
X32851Y60957D01*
X32547Y60653D01*
X32382Y60255D01*
Y59824D01*
X32485Y59576D01*
X32288Y59110D01*
X32235Y59044D01*
X32034Y58976D01*
X31897Y58968D01*
X30997Y59868D01*
X30954Y59972D01*
Y63675D01*
X31233Y63954D01*
X31398Y64352D01*
Y64782D01*
X31233Y65180D01*
X30928Y65485D01*
X30530Y65650D01*
X30100D01*
X29702Y65485D01*
X29528Y65311D01*
X29353Y65485D01*
X28956Y65650D01*
X28525D01*
X28127Y65485D01*
X27822Y65180D01*
X27657Y64782D01*
Y64734D01*
X27589Y64340D01*
X27196Y64272D01*
X27147D01*
X26749Y64107D01*
X26444Y63802D01*
X26280Y63404D01*
Y62974D01*
X26444Y62576D01*
X26749Y62271D01*
X27147Y62106D01*
X27578D01*
X27601Y62116D01*
X28101Y61782D01*
Y60433D01*
X28143Y60332D01*
X28230Y59895D01*
X28476Y59527D01*
X28518Y59425D01*
X28363Y59044D01*
X27867Y58837D01*
X27578Y58957D01*
X27147D01*
X26749Y58792D01*
X26444Y58487D01*
X26280Y58089D01*
Y57659D01*
X26444Y57261D01*
X26749Y56956D01*
X27147Y56791D01*
X27578D01*
X27953Y56947D01*
X28328Y56791D01*
X28759D01*
X29157Y56956D01*
X29461Y57261D01*
X29626Y57659D01*
X30126Y57817D01*
X30685Y57258D01*
X30786Y57216D01*
X31155Y56970D01*
X31592Y56883D01*
X31693Y56841D01*
X45214D01*
X45319Y56798D01*
X47939Y54177D01*
X47983Y54072D01*
Y52165D01*
X48024Y52065D01*
X48111Y51628D01*
X48355Y51263D01*
X48398Y51159D01*
X50105Y49452D01*
X50148Y49348D01*
Y49242D01*
X49648Y48895D01*
X49496Y48949D01*
X49491Y48960D01*
X49354Y49097D01*
X49314Y49114D01*
X49289Y49150D01*
X49128Y49258D01*
X49085Y49267D01*
X49055Y49297D01*
X48875Y49372D01*
X48832D01*
X48795Y49396D01*
X48605Y49434D01*
X48562Y49425D01*
X48522Y49442D01*
X48425Y49442D01*
X48425Y49442D01*
X48425Y49442D01*
X48328D01*
X48288Y49425D01*
X48245Y49434D01*
X48055Y49396D01*
X48019Y49372D01*
X47975D01*
X47796Y49297D01*
X47765Y49267D01*
X47722Y49258D01*
X47561Y49150D01*
X47537Y49114D01*
X47496Y49097D01*
X47359Y48960D01*
X47343Y48920D01*
X47306Y48896D01*
X47199Y48735D01*
X47190Y48692D01*
X47159Y48661D01*
X47085Y48482D01*
Y48438D01*
X47061Y48402D01*
X47045Y48319D01*
X47006Y48303D01*
X46362Y47660D01*
X46318Y47677D01*
X45899Y47935D01*
Y48128D01*
X45882Y48169D01*
X45890Y48212D01*
X45853Y48402D01*
X45828Y48438D01*
Y48482D01*
X45754Y48661D01*
X45723Y48692D01*
X45715Y48735D01*
X45607Y48896D01*
X45571Y48920D01*
X45554Y48960D01*
X45417Y49097D01*
X45377Y49114D01*
X45352Y49150D01*
X45191Y49258D01*
X45148Y49267D01*
X45118Y49297D01*
X44938Y49372D01*
X44895D01*
X44858Y49396D01*
X44668Y49434D01*
X44625Y49425D01*
X44585Y49442D01*
X44488Y49442D01*
X44488Y49442D01*
X44488Y49442D01*
X44391D01*
X44351Y49425D01*
X44308Y49434D01*
X44118Y49396D01*
X44082Y49372D01*
X44038D01*
X43859Y49297D01*
X43828Y49267D01*
X43785Y49258D01*
X43624Y49150D01*
X43600Y49114D01*
X43559Y49097D01*
X43422Y48960D01*
X43406Y48920D01*
X43369Y48896D01*
X43262Y48735D01*
X43260Y48729D01*
X43177Y48645D01*
X43012Y48247D01*
Y47816D01*
X43116Y47564D01*
X42488Y46935D01*
X42445Y46833D01*
X42200Y46465D01*
X42113Y46028D01*
X42071Y45927D01*
Y45335D01*
X41726Y45136D01*
X41381Y45335D01*
Y48452D01*
X42370D01*
Y49416D01*
X43914Y50150D01*
X45314D01*
Y51309D01*
X45338Y51332D01*
X45339Y51334D01*
X45576Y51648D01*
X45933Y52291D01*
X45943Y52386D01*
X45983Y52445D01*
X46070Y52882D01*
X46112Y52983D01*
Y53414D01*
X46070Y53515D01*
X45983Y53952D01*
X45735Y54322D01*
X45694Y54423D01*
X45694Y54423D01*
X45694Y54423D01*
X45131Y54986D01*
X44777Y55339D01*
X44777Y55339D01*
X44777Y55339D01*
X44677Y55381D01*
X44306Y55629D01*
X43869Y55716D01*
X43768Y55757D01*
X43215D01*
X42936Y56036D01*
X42538Y56201D01*
X42107D01*
X41710Y56036D01*
X41405Y55731D01*
X41240Y55334D01*
Y54903D01*
X41311Y54732D01*
X41144Y54287D01*
X41033Y54195D01*
X40725Y54067D01*
X40681Y54023D01*
X40354Y53807D01*
X40028Y54023D01*
X39983Y54067D01*
X39585Y54232D01*
X39155D01*
X38757Y54067D01*
X38452Y53763D01*
X38287Y53365D01*
Y52934D01*
X38452Y52536D01*
X38757Y52232D01*
X39155Y52067D01*
X39585D01*
X39807Y52159D01*
X40248Y51932D01*
X40307Y51866D01*
Y50809D01*
X40008Y50433D01*
X39840Y50433D01*
X37945D01*
X37646Y50809D01*
Y52335D01*
X37646Y52335D01*
X37646D01*
X37654Y52832D01*
X37697Y52934D01*
Y53365D01*
X37532Y53763D01*
X37227Y54067D01*
X36830Y54232D01*
X36399D01*
X36001Y54067D01*
X35696Y53763D01*
X35170D01*
X34865Y54067D01*
X34467Y54232D01*
X34037D01*
X33639Y54067D01*
X33334Y53763D01*
X33169Y53365D01*
Y52934D01*
X33212Y52832D01*
X33212Y52799D01*
X32750Y52363D01*
X32732Y52364D01*
X32499Y52461D01*
X32068D01*
X31670Y52296D01*
X31366Y51991D01*
X31201Y51593D01*
Y51163D01*
X31366Y50765D01*
X31670Y50460D01*
X32068Y50295D01*
X32499D01*
X32721Y50387D01*
X32753Y50385D01*
X33158Y50164D01*
X33220Y50094D01*
Y48452D01*
X33812D01*
X34020Y47952D01*
X33925Y47857D01*
X33760Y47459D01*
Y47029D01*
X33925Y46631D01*
X34229Y46326D01*
X34627Y46161D01*
X35058D01*
X35456Y46326D01*
X35666Y46536D01*
X36108Y46419D01*
X36166Y46383D01*
Y44882D01*
X35919D01*
Y44692D01*
X35899Y44200D01*
X35419Y44200D01*
X33773D01*
Y43461D01*
X29500D01*
Y45323D01*
X29149D01*
Y46213D01*
X29500D01*
Y48276D01*
X27520D01*
Y46213D01*
X27871D01*
Y45323D01*
X26947D01*
X26823Y45374D01*
X26393D01*
X26269Y45323D01*
X25618D01*
Y44730D01*
X25525Y44507D01*
Y44076D01*
X25618Y43853D01*
Y43260D01*
X26269D01*
X26393Y43209D01*
X26823D01*
X26947Y43260D01*
X27871D01*
Y42370D01*
X25618D01*
Y40307D01*
X25969D01*
Y39417D01*
X25618D01*
Y38824D01*
X25525Y38601D01*
Y38170D01*
X25618Y37948D01*
Y37822D01*
X25585Y37767D01*
X25118Y37451D01*
X24930Y37488D01*
X24829Y37530D01*
X21062D01*
Y39795D01*
X22600D01*
X22704Y39544D01*
X23009Y39240D01*
X23407Y39075D01*
X23837D01*
X24235Y39240D01*
X24540Y39544D01*
X24705Y39942D01*
Y40373D01*
X24540Y40771D01*
X24496Y40815D01*
X24279Y41142D01*
X24496Y41468D01*
X24540Y41513D01*
X24705Y41911D01*
Y42341D01*
X24540Y42739D01*
X24496Y42784D01*
X24279Y43110D01*
X24496Y43437D01*
X24540Y43481D01*
X24705Y43879D01*
Y44310D01*
X24540Y44708D01*
X24235Y45012D01*
X23837Y45177D01*
X23407D01*
X23009Y45012D01*
X22704Y44708D01*
X22539Y44310D01*
Y43879D01*
X22704Y43481D01*
X22749Y43437D01*
X22912Y43190D01*
X22650Y42765D01*
X20768D01*
Y44488D01*
X18405D01*
Y41339D01*
X18035Y41025D01*
X15980D01*
X15747Y41071D01*
X8211D01*
Y41074D01*
X7469Y41001D01*
X7238Y41025D01*
X4706Y40785D01*
X3789D01*
Y45829D01*
X5413D01*
X6143Y45975D01*
X6762Y46388D01*
X7175Y47007D01*
X7320Y47736D01*
Y50689D01*
X7175Y51419D01*
X6762Y52037D01*
X6143Y52451D01*
X5413Y52596D01*
X3789D01*
Y108822D01*
X5413D01*
X6143Y108967D01*
X6762Y109380D01*
X7175Y109999D01*
X7320Y110728D01*
Y111499D01*
X7366Y111515D01*
X7375Y111521D01*
X7808Y111700D01*
X9103Y111871D01*
X9234Y111844D01*
X9973D01*
X10433Y111344D01*
X10433Y111339D01*
D01*
X10401Y111024D01*
Y110808D01*
X10335Y110648D01*
Y110218D01*
X10401Y110058D01*
Y109627D01*
X10335Y109467D01*
Y109037D01*
X10401Y108877D01*
Y108446D01*
X10335Y108286D01*
Y107855D01*
X10401Y107696D01*
Y107264D01*
X10335Y107105D01*
Y106674D01*
X10401Y106515D01*
Y106083D01*
X10335Y105924D01*
Y105493D01*
X10401Y105334D01*
Y105118D01*
X10525Y104817D01*
X10827Y104692D01*
X11043D01*
X11202Y104626D01*
X11633D01*
X11792Y104692D01*
X12224D01*
X12383Y104626D01*
X12814D01*
X12973Y104692D01*
X13405D01*
X13564Y104626D01*
X13995D01*
X14154Y104692D01*
X14586D01*
X14745Y104626D01*
X15176D01*
X15335Y104692D01*
X15767D01*
X15926Y104626D01*
X16357D01*
X16517Y104692D01*
X17913D01*
X18215Y104817D01*
X18567Y105118D01*
X18839Y105118D01*
X20768D01*
Y105660D01*
X22730D01*
X23009Y105381D01*
X23407Y105217D01*
X23837D01*
X24235Y105381D01*
X24540Y105686D01*
X24705Y106084D01*
Y106515D01*
X24561Y106862D01*
X24432Y107350D01*
X24737Y107654D01*
X24902Y108052D01*
Y108483D01*
X24737Y108881D01*
X24432Y109186D01*
X24034Y109350D01*
X23604D01*
X23206Y109186D01*
X22901Y108881D01*
X22736Y108483D01*
Y108052D01*
X22880Y107705D01*
X22977Y107336D01*
X22640Y106938D01*
X21121D01*
X20768Y107292D01*
X20768Y108107D01*
X20873Y108340D01*
X21062Y108583D01*
X21062Y108646D01*
Y108779D01*
X21095Y108858D01*
Y111024D01*
X21062Y111339D01*
D01*
X21045Y111391D01*
X21062Y111891D01*
X21062D01*
Y113534D01*
X25092D01*
X25371Y113255D01*
X25769Y113091D01*
X26200D01*
X26597Y113255D01*
X26902Y113560D01*
X27067Y113958D01*
Y114389D01*
X26902Y114787D01*
X26597Y115091D01*
X26200Y115256D01*
X25769D01*
X25371Y115091D01*
X25092Y114812D01*
X21062D01*
X21062Y116615D01*
X20768Y116993D01*
X20768Y117115D01*
Y119175D01*
X22413Y120820D01*
X22837Y120537D01*
X22736Y120294D01*
Y119863D01*
X22901Y119465D01*
X23206Y119161D01*
X23604Y118996D01*
X24034D01*
X24432Y119161D01*
X24737Y119465D01*
X24902Y119863D01*
Y120050D01*
X25387Y120301D01*
X25618Y120115D01*
Y119047D01*
X27871D01*
Y118157D01*
X27520D01*
Y116095D01*
X29500D01*
Y118157D01*
X29149D01*
Y119047D01*
X29500D01*
Y121110D01*
X29149D01*
Y121649D01*
X29203Y121703D01*
X29649Y121882D01*
X29877Y121702D01*
X29988Y121434D01*
X30292Y121129D01*
X30690Y120965D01*
X30732Y120926D01*
X30970Y120465D01*
X30857Y120191D01*
Y112762D01*
X31044Y112310D01*
X33220Y110134D01*
Y107114D01*
X33613D01*
Y92058D01*
X33654Y91958D01*
X33741Y91521D01*
X33987Y91153D01*
X34030Y91051D01*
X38287Y86793D01*
Y86399D01*
X38452Y86001D01*
X38757Y85696D01*
X39155Y85532D01*
X39585D01*
X39983Y85696D01*
X40288Y86001D01*
X40453Y86399D01*
Y86830D01*
X40288Y87227D01*
X39983Y87532D01*
X39585Y87697D01*
X39191D01*
X34934Y91955D01*
X34891Y92058D01*
Y97516D01*
X35391Y97723D01*
X35410Y97704D01*
X35808Y97539D01*
X36239D01*
X36637Y97704D01*
X36941Y98009D01*
X37106Y98407D01*
Y98837D01*
X36941Y99235D01*
X36637Y99540D01*
X36556Y99573D01*
X36507Y99782D01*
X36508Y100135D01*
X36745Y100371D01*
X36909Y100769D01*
Y101200D01*
X36745Y101597D01*
X36440Y101902D01*
X36042Y102067D01*
X35611D01*
X35391Y101976D01*
X34948Y102204D01*
X34891Y102269D01*
Y107114D01*
X35283D01*
Y110996D01*
X34622D01*
X34134Y111027D01*
X34134Y111028D01*
X34134Y111028D01*
X34129Y111033D01*
X34129Y111033D01*
X33781Y111381D01*
X32135Y113027D01*
Y117768D01*
X32278Y118209D01*
X32635Y118209D01*
X33358D01*
X33773Y118005D01*
X33773Y117709D01*
Y115249D01*
X35899Y115249D01*
X35919Y114757D01*
Y114567D01*
X37387D01*
X37691Y114567D01*
X38445Y114567D01*
X38471Y114503D01*
X38558Y114066D01*
X38744Y113787D01*
X38616Y113377D01*
X38487Y113256D01*
X38166Y113123D01*
X37862Y112818D01*
X37697Y112420D01*
Y111989D01*
X37862Y111591D01*
X38166Y111287D01*
X38564Y111122D01*
X38995D01*
X39393Y111287D01*
X39697Y111591D01*
X39828Y111907D01*
X40140Y112040D01*
X40362Y112080D01*
X40460Y111982D01*
X40562Y111940D01*
X40930Y111694D01*
X41367Y111607D01*
X41468Y111565D01*
X41825D01*
X42103Y111287D01*
X42501Y111122D01*
X42932D01*
X43330Y111287D01*
X43374Y111331D01*
X43701Y111548D01*
X44027Y111331D01*
X44072Y111287D01*
X44470Y111122D01*
X44900D01*
X45298Y111287D01*
X45603Y111591D01*
X45768Y111989D01*
Y112420D01*
X45603Y112818D01*
X45298Y113123D01*
X44900Y113287D01*
X44470D01*
X44425Y113269D01*
X43964Y113663D01*
X43918Y113678D01*
X43894Y113720D01*
X42642Y114693D01*
X42251Y115001D01*
X42250Y115002D01*
X41862Y115312D01*
X41628Y115502D01*
Y118110D01*
X39856D01*
Y118110D01*
X39659D01*
Y118110D01*
X38191D01*
X37887Y118110D01*
X37387Y118110D01*
X36280D01*
X35902Y118192D01*
X35821Y118570D01*
X35821Y119981D01*
X35821Y120481D01*
X35821Y121949D01*
X35821Y122449D01*
Y123615D01*
X35821Y123918D01*
X35821D01*
Y124115D01*
X35821D01*
Y125525D01*
X35902Y125904D01*
X36281Y125984D01*
X37691D01*
Y129527D01*
X37444D01*
Y132681D01*
X37646Y133098D01*
X37945D01*
Y133098D01*
X39603D01*
D02*
G37*
G36*
X91535Y125787D02*
X81693D01*
Y128150D01*
X84449D01*
Y131693D01*
X88386D01*
Y138583D01*
X91535D01*
Y125787D01*
D02*
G37*
G36*
X20669Y129331D02*
X17913D01*
Y125787D01*
X10827D01*
Y131693D01*
X20669D01*
Y129331D01*
D02*
G37*
G36*
X77432Y123929D02*
X77533Y123887D01*
X81300D01*
Y121623D01*
X79762D01*
X79658Y121873D01*
X79353Y122178D01*
X78956Y122343D01*
X78525D01*
X78127Y122178D01*
X77822Y121873D01*
X77658Y121475D01*
Y121045D01*
X77822Y120647D01*
X77867Y120602D01*
X78083Y120276D01*
X77867Y119949D01*
X77822Y119905D01*
X77658Y119507D01*
Y119076D01*
X77822Y118678D01*
X77867Y118634D01*
X78083Y118307D01*
X77867Y117980D01*
X77822Y117936D01*
X77658Y117538D01*
Y117107D01*
X77822Y116709D01*
X78127Y116405D01*
X78525Y116240D01*
X78956D01*
X79353Y116405D01*
X79658Y116709D01*
X79823Y117107D01*
Y117538D01*
X79658Y117936D01*
X79614Y117980D01*
X79450Y118228D01*
X79712Y118652D01*
X81595D01*
Y116929D01*
X83957D01*
Y119882D01*
X84038Y120134D01*
X84347Y120344D01*
X84380D01*
X84498Y120393D01*
X86382D01*
X86615Y120346D01*
X86615Y120346D01*
X94903D01*
Y120343D01*
X96060Y120457D01*
X96306Y120443D01*
X97677Y120633D01*
X98573D01*
Y115588D01*
X96949D01*
X96219Y115443D01*
X95601Y115029D01*
X95187Y114411D01*
X95042Y113681D01*
Y110728D01*
X95187Y109999D01*
X95601Y109380D01*
X96219Y108967D01*
X96949Y108822D01*
X98573D01*
Y102802D01*
X96850D01*
X96786Y102789D01*
X93706Y102903D01*
X93634Y102896D01*
X93522Y102905D01*
X93498Y102909D01*
X93419Y102910D01*
X93395Y102908D01*
X93371Y102911D01*
X92868D01*
Y103017D01*
X86659D01*
Y97771D01*
X89970D01*
X90008Y97766D01*
X90159Y97768D01*
X90309Y97749D01*
X92903D01*
X93402Y97739D01*
X93515Y97728D01*
X93515Y97744D01*
X94442Y97710D01*
Y96457D01*
X94625Y95535D01*
X95147Y94754D01*
X95929Y94231D01*
X96850Y94048D01*
X98573D01*
Y79180D01*
X96850D01*
X95929Y78997D01*
X95147Y78475D01*
X94625Y77693D01*
X94442Y76772D01*
Y72835D01*
X94625Y71913D01*
X95147Y71132D01*
X95929Y70609D01*
X96850Y70426D01*
X98573D01*
Y52596D01*
X96949D01*
X96219Y52451D01*
X95601Y52037D01*
X95187Y51419D01*
X95042Y50689D01*
Y49771D01*
X94911Y49717D01*
X93617Y49547D01*
X93485Y49573D01*
X92389D01*
X91929Y50073D01*
X91930Y50078D01*
D01*
X91962Y50394D01*
Y50610D01*
X92028Y50769D01*
Y51200D01*
X91962Y51359D01*
Y51791D01*
X92028Y51950D01*
Y52381D01*
X91962Y52540D01*
Y52972D01*
X92028Y53131D01*
Y53562D01*
X91962Y53721D01*
Y54153D01*
X92028Y54312D01*
Y54743D01*
X91962Y54902D01*
Y55334D01*
X92028Y55493D01*
Y55924D01*
X91863Y56322D01*
X91558Y56626D01*
X91160Y56791D01*
X90729D01*
X90354Y56636D01*
X89979Y56791D01*
X89548D01*
X89173Y56636D01*
X88798Y56791D01*
X88553D01*
X88344Y56827D01*
X88091Y57218D01*
Y57302D01*
X87935Y57677D01*
X88091Y58052D01*
Y58483D01*
X88310Y58812D01*
X89764D01*
X89996Y58858D01*
X92815D01*
Y63583D01*
X89996D01*
X89764Y63629D01*
X85699D01*
X85631Y63689D01*
X85406Y64129D01*
X85498Y64352D01*
Y64782D01*
X85333Y65180D01*
X85029Y65485D01*
X84631Y65650D01*
X84200D01*
X83802Y65485D01*
X83498Y65180D01*
X83333Y64782D01*
Y64352D01*
X83431Y64115D01*
X83432Y64099D01*
X83284Y63718D01*
X83162Y63583D01*
X80413D01*
Y58858D01*
X83062D01*
X83312Y58575D01*
X83382Y58325D01*
X83366Y58286D01*
Y57855D01*
X83531Y57458D01*
X83836Y57153D01*
X84233Y56988D01*
X84664D01*
X85062Y57153D01*
X85293Y57384D01*
X85568Y57469D01*
X85808Y57483D01*
X85902Y57444D01*
X85937Y57330D01*
X85925Y57302D01*
Y56871D01*
X85965Y56775D01*
X85607Y56626D01*
X85312Y56332D01*
X84449D01*
X84444Y56330D01*
X83957Y56299D01*
X83644Y56299D01*
X81595D01*
Y55757D01*
X79632D01*
X79353Y56036D01*
X78956Y56201D01*
X78525D01*
X78238Y56392D01*
Y59744D01*
X74301D01*
Y59271D01*
X73130D01*
Y59664D01*
X72965Y60062D01*
X72842Y60185D01*
X73049Y60685D01*
X79331D01*
Y67472D01*
X64919D01*
X64764Y67472D01*
X64419Y67830D01*
Y70602D01*
X64502Y70651D01*
X64919Y70755D01*
X65135Y70539D01*
X65533Y70374D01*
X65963D01*
X66361Y70539D01*
X66666Y70843D01*
X66831Y71241D01*
Y71672D01*
X66666Y72070D01*
X66551Y72185D01*
X66758Y72685D01*
X72808D01*
X72936Y72501D01*
X73063Y72185D01*
X72933Y71870D01*
Y71439D01*
X73089Y71064D01*
X72933Y70689D01*
Y70258D01*
X73098Y69860D01*
X73403Y69556D01*
X73800Y69391D01*
X74231D01*
X74629Y69556D01*
X74934Y69860D01*
X75098Y70258D01*
Y70689D01*
X74943Y71064D01*
X75098Y71439D01*
Y71870D01*
X74968Y72185D01*
X75095Y72501D01*
X75224Y72685D01*
X79331D01*
Y79472D01*
X64764D01*
Y78513D01*
X64684Y78459D01*
X64170Y78518D01*
X64014Y78605D01*
X64002Y78633D01*
X64002Y78633D01*
X64002Y78634D01*
X64002Y78634D01*
X63657Y78979D01*
X59302Y83334D01*
X58949Y83687D01*
Y83687D01*
X58948Y83687D01*
X58948D01*
X58948Y83687D01*
X58847Y83729D01*
X58479Y83975D01*
X58042Y84062D01*
X57942Y84104D01*
X54828D01*
X54763Y84161D01*
X54535Y84604D01*
X54626Y84824D01*
Y85255D01*
X54461Y85653D01*
X54157Y85957D01*
X53759Y86122D01*
X53328D01*
X52930Y85957D01*
X52626Y85653D01*
X52461Y85255D01*
Y84824D01*
X52070Y84461D01*
X51903Y84434D01*
X51476Y84861D01*
Y85255D01*
X51311Y85653D01*
X51007Y85957D01*
X50609Y86122D01*
X50328D01*
X50069Y86290D01*
X49902Y86549D01*
Y86830D01*
X49897Y86840D01*
X50616Y87559D01*
X50658Y87660D01*
X50904Y88029D01*
X50991Y88466D01*
X51033Y88567D01*
Y94556D01*
X51075Y94659D01*
X51445Y95029D01*
X51797Y95381D01*
X51798Y95382D01*
X51798Y95382D01*
X51839Y95483D01*
X52085Y95851D01*
X52172Y96289D01*
X52214Y96389D01*
Y98948D01*
X52297Y98997D01*
X52714Y99101D01*
X52930Y98885D01*
X53328Y98721D01*
X53759D01*
X54157Y98885D01*
X54461Y99190D01*
X54626Y99588D01*
Y100019D01*
X54461Y100416D01*
X54157Y100721D01*
X53759Y100886D01*
X53328D01*
X52930Y100721D01*
X52714Y100505D01*
X52297Y100609D01*
X52214Y100658D01*
Y112176D01*
X52714Y112522D01*
X52867Y112468D01*
X52871Y112457D01*
X53008Y112320D01*
X53049Y112303D01*
X53073Y112267D01*
X53234Y112159D01*
X53277Y112151D01*
X53308Y112120D01*
X53487Y112046D01*
X53531D01*
X53567Y112022D01*
X53757Y111984D01*
X53800Y111992D01*
X53840Y111975D01*
X54034D01*
X54074Y111992D01*
X54117Y111984D01*
X54307Y112022D01*
X54343Y112046D01*
X54387D01*
X54566Y112120D01*
X54597Y112151D01*
X54640Y112159D01*
X54801Y112267D01*
X54825Y112303D01*
X54866Y112320D01*
X55003Y112457D01*
X55020Y112497D01*
X55056Y112522D01*
X55164Y112683D01*
X55172Y112726D01*
X55203Y112757D01*
X55277Y112936D01*
Y112979D01*
X55301Y113016D01*
X55313Y113075D01*
X55314Y113075D01*
X55315Y113076D01*
X55328Y113102D01*
X55356Y113113D01*
X55356Y113114D01*
X55357Y113114D01*
X56000Y113758D01*
X56044Y113740D01*
X56181Y113656D01*
X56464Y113386D01*
Y113289D01*
X56480Y113249D01*
X56472Y113206D01*
X56510Y113016D01*
X56534Y112979D01*
Y112936D01*
X56608Y112757D01*
X56639Y112726D01*
X56647Y112683D01*
X56755Y112522D01*
X56792Y112497D01*
X56808Y112457D01*
X56945Y112320D01*
X56986Y112303D01*
X57010Y112267D01*
X57171Y112159D01*
X57214Y112151D01*
X57245Y112120D01*
X57424Y112046D01*
X57468D01*
X57504Y112022D01*
X57694Y111984D01*
X57737Y111992D01*
X57777Y111975D01*
X57971D01*
X58011Y111992D01*
X58054Y111984D01*
X58244Y112022D01*
X58280Y112046D01*
X58324D01*
X58503Y112120D01*
X58534Y112151D01*
X58577Y112159D01*
X58738Y112267D01*
X58763Y112303D01*
X58803Y112320D01*
X58940Y112457D01*
X58957Y112497D01*
X58993Y112522D01*
X59101Y112683D01*
X59102Y112689D01*
X59186Y112773D01*
X59350Y113171D01*
Y113601D01*
X59246Y113854D01*
X59874Y114482D01*
X59875Y114483D01*
X59875Y114483D01*
X59917Y114584D01*
X60163Y114952D01*
X60250Y115389D01*
X60291Y115490D01*
Y116082D01*
X60636Y116281D01*
X60981Y116082D01*
Y112965D01*
X59992D01*
Y112188D01*
X59955Y112172D01*
X59518Y112085D01*
X59279Y111925D01*
X59142Y111883D01*
X58405Y111268D01*
X57048D01*
Y110109D01*
X57033Y110094D01*
X56990Y109992D01*
X56956Y109940D01*
X56848Y109866D01*
X56698Y109636D01*
X56695Y109622D01*
X56684Y109613D01*
X56270Y108951D01*
X56251Y108836D01*
X56182Y108733D01*
X56095Y108296D01*
X56054Y108195D01*
Y105641D01*
X56095Y105541D01*
X56182Y105103D01*
X56430Y104733D01*
X56472Y104632D01*
X58563Y102541D01*
Y102147D01*
X58728Y101749D01*
X59032Y101444D01*
X59430Y101279D01*
X59861D01*
X60259Y101444D01*
X60563Y101749D01*
X61090D01*
X61394Y101444D01*
X61628Y101348D01*
Y100818D01*
X61394Y100721D01*
X61090Y100417D01*
X60925Y100019D01*
Y99588D01*
X61090Y99190D01*
X61394Y98885D01*
X61792Y98721D01*
X62223D01*
X62621Y98885D01*
X62926Y99190D01*
X63090Y99588D01*
Y100019D01*
X62926Y100417D01*
X62621Y100721D01*
X62388Y100818D01*
Y101348D01*
X62621Y101444D01*
X62926Y101749D01*
X63090Y102147D01*
Y102578D01*
X62926Y102975D01*
X62621Y103280D01*
X62223Y103445D01*
X61792D01*
X61394Y103280D01*
X61090Y102975D01*
X60563D01*
X60259Y103280D01*
X59861Y103445D01*
X59467D01*
X57729Y105183D01*
X57376Y105536D01*
X57376Y105536D01*
X57332Y106018D01*
Y106983D01*
X57389Y107048D01*
X57832Y107276D01*
X58052Y107185D01*
X58483D01*
X58881Y107350D01*
X59186Y107654D01*
X59264Y107845D01*
X59392Y107870D01*
X59479Y107929D01*
X60030Y107790D01*
X60080Y107717D01*
X60106Y107654D01*
X60410Y107350D01*
X60808Y107185D01*
X61239D01*
X61637Y107350D01*
X61681Y107394D01*
X62008Y107610D01*
X62335Y107394D01*
X62379Y107350D01*
X62777Y107185D01*
X63208D01*
X63605Y107350D01*
X63910Y107654D01*
X64075Y108052D01*
Y108483D01*
X63910Y108881D01*
X63605Y109186D01*
X63208Y109350D01*
X62777D01*
X62555Y109259D01*
X62114Y109485D01*
X62055Y109552D01*
Y110608D01*
X62354Y110984D01*
X62555Y110984D01*
X64417D01*
X64717Y110608D01*
Y109082D01*
X64717Y109082D01*
X64717D01*
X64708Y108586D01*
X64665Y108483D01*
Y108052D01*
X64830Y107654D01*
X65135Y107350D01*
X65533Y107185D01*
X65963D01*
X66361Y107350D01*
X66666Y107654D01*
X67192D01*
X67497Y107350D01*
X67895Y107185D01*
X68326D01*
X68723Y107350D01*
X69028Y107654D01*
X69193Y108052D01*
Y108483D01*
X69150Y108586D01*
X69150Y108618D01*
X69613Y109055D01*
X69630Y109053D01*
X69863Y108957D01*
X70294D01*
X70692Y109122D01*
X70997Y109426D01*
X71161Y109824D01*
Y110255D01*
X70997Y110653D01*
X70692Y110957D01*
X70294Y111122D01*
X69863D01*
X69642Y111030D01*
X69201Y111257D01*
X69142Y111323D01*
Y112965D01*
X68550D01*
X68343Y113465D01*
X68437Y113560D01*
X68602Y113958D01*
Y114389D01*
X68437Y114787D01*
X68133Y115091D01*
X67735Y115256D01*
X67304D01*
X66906Y115091D01*
X66696Y114881D01*
X66254Y114999D01*
X66196Y115034D01*
Y116536D01*
X66443D01*
Y116726D01*
X66463Y117217D01*
X66943Y117217D01*
X68589D01*
Y117956D01*
X72862D01*
Y116095D01*
X73213D01*
Y115205D01*
X72862D01*
Y113142D01*
X74843D01*
Y115205D01*
X74491D01*
Y116095D01*
X75415D01*
X75539Y116043D01*
X75969D01*
X76093Y116095D01*
X76745D01*
Y116688D01*
X76837Y116911D01*
Y117341D01*
X76745Y117564D01*
Y118157D01*
X76093D01*
X75969Y118209D01*
X75539D01*
X75415Y118157D01*
X74491D01*
Y119047D01*
X76745D01*
Y121110D01*
X76393D01*
Y122000D01*
X76745D01*
Y122593D01*
X76837Y122816D01*
Y123247D01*
X76745Y123470D01*
Y123595D01*
X76777Y123650D01*
X77245Y123966D01*
X77432Y123929D01*
D02*
G37*
G36*
X4823Y132436D02*
X7458Y132328D01*
X7542Y132325D01*
X7954Y132314D01*
Y132317D01*
X10195D01*
X10239Y132231D01*
X10433Y131811D01*
Y131770D01*
X10401Y131693D01*
Y131477D01*
X10335Y131318D01*
Y130887D01*
X10401Y130728D01*
Y130296D01*
X10335Y130137D01*
Y129706D01*
X10401Y129547D01*
Y129115D01*
X10335Y128955D01*
Y128525D01*
X10401Y128366D01*
Y127934D01*
X10335Y127774D01*
Y127344D01*
X10401Y127184D01*
Y126753D01*
X10335Y126593D01*
Y126163D01*
X10401Y126003D01*
Y125787D01*
X10525Y125486D01*
X10827Y125361D01*
X11043D01*
X11202Y125295D01*
X11633D01*
X11792Y125361D01*
X12224D01*
X12383Y125295D01*
X12814D01*
X12973Y125361D01*
X13405D01*
X13564Y125295D01*
X13995D01*
X14154Y125361D01*
X14586D01*
X14745Y125295D01*
X15176D01*
X15335Y125361D01*
X15767D01*
X15926Y125295D01*
X16357D01*
X16516Y125361D01*
X17913D01*
X18215Y125486D01*
X18677Y125591D01*
X20768Y125591D01*
Y125936D01*
X22730D01*
X22859Y125806D01*
X22957Y125492D01*
X22859Y125178D01*
X22704Y125023D01*
X22539Y124625D01*
Y124194D01*
X22704Y123796D01*
X22859Y123641D01*
X22957Y123327D01*
X22859Y123012D01*
X22704Y122857D01*
X22622Y122660D01*
X22267Y122422D01*
X22165Y122380D01*
X19864Y120079D01*
X18405D01*
Y117115D01*
X18405Y116929D01*
X18035Y116615D01*
X15980D01*
X15747Y116661D01*
X9234D01*
Y116665D01*
X7227Y116467D01*
X5937Y116076D01*
X5720Y116042D01*
X4470Y115588D01*
X3789D01*
Y120633D01*
X5413D01*
X6143Y120778D01*
X6762Y121191D01*
X7175Y121810D01*
X7320Y122539D01*
Y125492D01*
X7175Y126222D01*
X6762Y126840D01*
X6143Y127254D01*
X5413Y127399D01*
X3789D01*
Y132444D01*
X4791D01*
X4823Y132436D01*
D02*
G37*
G36*
X54626Y135298D02*
Y135218D01*
X54791Y134820D01*
X55095Y134515D01*
X55493Y134350D01*
X55924D01*
X56218Y134472D01*
X56532Y134252D01*
X56622Y134139D01*
X56595Y134074D01*
Y133643D01*
X56759Y133245D01*
X57064Y132940D01*
X57462Y132776D01*
X57856D01*
X58769Y131863D01*
X58873Y131820D01*
X59237Y131576D01*
X59681Y131488D01*
X59778Y131447D01*
X59818Y131447D01*
X59831Y131453D01*
X59917Y131417D01*
X59922Y131404D01*
X60717Y130609D01*
X60718Y130608D01*
X60718Y130608D01*
X60734Y130592D01*
Y127953D01*
X62506D01*
Y127953D01*
X62703D01*
Y127953D01*
X64171D01*
X64475Y127953D01*
X64975Y127953D01*
X66082D01*
X66460Y127872D01*
X66541Y127493D01*
Y126082D01*
X66541D01*
Y125886D01*
X66541D01*
Y124417D01*
X66541Y124114D01*
X66541Y123614D01*
Y122448D01*
X66541Y122145D01*
X66541D01*
Y121948D01*
X66541D01*
Y120538D01*
X66460Y120159D01*
X66082Y120079D01*
X64671D01*
Y116536D01*
X64918D01*
Y113382D01*
X64717Y112965D01*
X64417D01*
Y112965D01*
X62759D01*
X62354Y112965D01*
X62259Y113426D01*
Y116536D01*
X62506D01*
Y120079D01*
X61038D01*
X60734Y120079D01*
X60234Y120079D01*
X59115D01*
X58747Y120157D01*
X58656Y120533D01*
X58656Y121948D01*
X58656Y122448D01*
Y123614D01*
X58656Y123917D01*
X58656D01*
Y124114D01*
X58656D01*
Y125582D01*
X58656Y125886D01*
X58656D01*
Y126082D01*
X58656D01*
Y127596D01*
X58746Y128058D01*
X58746Y128317D01*
Y130814D01*
X58249D01*
X58185Y131134D01*
X57938Y131503D01*
X57897Y131603D01*
X57897Y131603D01*
X57896Y131604D01*
X57896Y131604D01*
X57795Y131706D01*
X57784Y131716D01*
X57685Y131757D01*
X57312Y132007D01*
X56875Y132094D01*
X56774Y132135D01*
Y132135D01*
X56774Y132135D01*
X56601D01*
X56322Y132414D01*
X55924Y132579D01*
X55493D01*
X55095Y132414D01*
X54791Y132109D01*
X54626Y131711D01*
Y131281D01*
X54791Y130883D01*
X55095Y130578D01*
X55493Y130413D01*
X55924D01*
X56120Y130494D01*
X56590Y130239D01*
X56620Y130202D01*
X56620Y128058D01*
X56204Y127854D01*
X55976D01*
X54856Y128134D01*
X54856Y128134D01*
X54795Y128159D01*
X54790Y128170D01*
X54203Y128758D01*
Y129152D01*
X54038Y129550D01*
X53733Y129855D01*
X53335Y130019D01*
X52905D01*
X52714Y129940D01*
X52214Y130215D01*
Y133532D01*
X52256Y133636D01*
X54126Y135505D01*
X54626Y135298D01*
D02*
G37*
G36*
X20669Y108858D02*
X17913D01*
Y105118D01*
X10827D01*
Y111024D01*
X20669D01*
Y108858D01*
D02*
G37*
G36*
X65494Y53091D02*
X65596Y53048D01*
X65964Y52803D01*
X66400Y52716D01*
X66501Y52674D01*
X67079D01*
Y50421D01*
X68235D01*
X70184Y48435D01*
X70197Y48430D01*
X70232Y48344D01*
X70227Y48331D01*
X70227Y43650D01*
X69727Y43208D01*
X69004D01*
X68589Y43413D01*
X68589Y43708D01*
Y46169D01*
X66463Y46169D01*
X66443Y46660D01*
Y46850D01*
X64975D01*
X64671Y46850D01*
X63805Y46850D01*
X63673Y47376D01*
X63608Y47464D01*
X63587Y47568D01*
X63546Y47630D01*
X63798Y48129D01*
X63810Y48135D01*
X64196Y48295D01*
X64500Y48599D01*
X64665Y48997D01*
Y49428D01*
X64500Y49826D01*
X64196Y50130D01*
X63798Y50295D01*
X63367D01*
X62969Y50130D01*
X62665Y49826D01*
X62534Y49510D01*
X62365Y49438D01*
X61903Y49434D01*
X61507Y49673D01*
X61432Y49723D01*
X60995Y49810D01*
X60894Y49852D01*
X60538D01*
X60259Y50130D01*
X59861Y50295D01*
X59430D01*
X59032Y50130D01*
X58988Y50086D01*
X58661Y49870D01*
X58335Y50086D01*
X58290Y50130D01*
X57893Y50295D01*
X57485D01*
X57370Y50534D01*
X57284Y50757D01*
Y53230D01*
X58298Y54244D01*
X58851Y54091D01*
X58925Y53914D01*
X59229Y53610D01*
X59627Y53445D01*
X60058D01*
X60311Y53550D01*
X60320Y53544D01*
Y53544D01*
X63076D01*
Y54883D01*
X63478Y55003D01*
X63576Y55009D01*
X65494Y53091D01*
D02*
G37*
G36*
X91535Y50394D02*
X81693D01*
Y52559D01*
X84449D01*
Y55905D01*
X91535D01*
Y50394D01*
D02*
G37*
G36*
X39603Y48452D02*
X40008Y48452D01*
X40103Y47992D01*
Y44882D01*
X39856D01*
Y41338D01*
X41324D01*
X41628Y41338D01*
X42128Y41338D01*
X43247D01*
X43615Y41260D01*
X43707Y40884D01*
X43707Y39469D01*
X43707Y38969D01*
Y37803D01*
X43707Y37500D01*
X43707D01*
Y37303D01*
X43707D01*
Y35835D01*
X43707Y35531D01*
X43707D01*
Y35335D01*
X43707D01*
Y33822D01*
X43616Y33359D01*
X43616Y33101D01*
Y30603D01*
X44114D01*
X44177Y30284D01*
X44423Y29915D01*
X44465Y29814D01*
X44465Y29814D01*
X44465Y29813D01*
X44466D01*
X44466Y29813D01*
X44570Y29709D01*
X44576Y29702D01*
X44673Y29662D01*
X45050Y29411D01*
X45487Y29324D01*
X45588Y29282D01*
X45762D01*
X46040Y29003D01*
X46438Y28839D01*
X46869D01*
X47267Y29003D01*
X47571Y29308D01*
X47736Y29706D01*
Y30137D01*
X47571Y30534D01*
X47267Y30839D01*
X46869Y31004D01*
X46438D01*
X46242Y30923D01*
X45772Y31178D01*
X45742Y31216D01*
X45742Y33359D01*
X46158Y33563D01*
X46386D01*
X47506Y33283D01*
X47506Y33283D01*
X47569Y33257D01*
X47575Y33244D01*
X48160Y32659D01*
Y32265D01*
X48324Y31867D01*
X48629Y31563D01*
X49027Y31398D01*
X49458D01*
X49648Y31477D01*
X50148Y31202D01*
Y24275D01*
X50153Y24263D01*
X50147Y24253D01*
X50079Y23792D01*
X49165D01*
Y21890D01*
X47197D01*
Y19909D01*
X47589D01*
Y14477D01*
X47235Y14124D01*
X46457Y14124D01*
X45957Y14124D01*
X44094D01*
Y13452D01*
X37933D01*
X37588Y13383D01*
X37295Y13188D01*
X36804Y12697D01*
X34144D01*
Y8957D01*
X38081D01*
Y9550D01*
X38164Y9637D01*
X38581Y9843D01*
X38820Y9744D01*
X39250D01*
X39648Y9909D01*
X39953Y10214D01*
X40118Y10611D01*
Y11042D01*
X40075Y11146D01*
X40400Y11646D01*
X44094D01*
Y10974D01*
X46457Y10974D01*
X46957Y10974D01*
X50682D01*
X51181Y10974D01*
Y10974D01*
X51182D01*
Y10974D01*
X55906D01*
Y14124D01*
X54773D01*
Y19909D01*
X55165D01*
Y21890D01*
X53197D01*
Y23792D01*
X52502D01*
X52214Y24164D01*
Y27530D01*
X52714Y27877D01*
X52867Y27822D01*
X52871Y27811D01*
X53008Y27674D01*
X53049Y27658D01*
X53073Y27621D01*
X53234Y27514D01*
X53277Y27505D01*
X53308Y27474D01*
X53487Y27400D01*
X53531D01*
X53567Y27376D01*
X53757Y27338D01*
X53800Y27347D01*
X53840Y27330D01*
X54034D01*
X54074Y27347D01*
X54117Y27338D01*
X54307Y27376D01*
X54343Y27400D01*
X54387D01*
X54566Y27474D01*
X54597Y27505D01*
X54640Y27514D01*
X54801Y27621D01*
X54825Y27658D01*
X54866Y27674D01*
X55003Y27811D01*
X55020Y27852D01*
X55056Y27876D01*
X55164Y28037D01*
X55172Y28080D01*
X55203Y28111D01*
X55277Y28290D01*
Y28334D01*
X55301Y28370D01*
X55313Y28429D01*
X55314Y28429D01*
X55315Y28430D01*
X55328Y28456D01*
X55356Y28468D01*
X55356Y28468D01*
X55357Y28468D01*
X55701Y28813D01*
X56201Y28605D01*
Y28525D01*
X56366Y28127D01*
X56568Y27925D01*
X56575Y27904D01*
X56584Y27793D01*
X56585Y27793D01*
X56628Y27756D01*
X56647Y27703D01*
X56684Y27661D01*
X56722Y27643D01*
X56743Y27607D01*
X56770Y27587D01*
X56902Y27553D01*
X56975Y27508D01*
X56976Y27508D01*
X56979Y27509D01*
X57023Y27519D01*
X57077Y27504D01*
X57092Y27506D01*
X57141Y27533D01*
X57171Y27514D01*
X57214Y27505D01*
X57245Y27474D01*
X57424Y27400D01*
X57468D01*
X57504Y27376D01*
X57694Y27338D01*
X57737Y27347D01*
X57777Y27330D01*
X57971D01*
X58011Y27347D01*
X58054Y27338D01*
X58244Y27376D01*
X58280Y27400D01*
X58324D01*
X58503Y27474D01*
X58534Y27505D01*
X58577Y27514D01*
X58738Y27621D01*
X58763Y27658D01*
X58803Y27674D01*
X58940Y27811D01*
X58957Y27852D01*
X58993Y27876D01*
X59101Y28037D01*
X59109Y28080D01*
X59140Y28111D01*
X59214Y28290D01*
Y28334D01*
X59238Y28370D01*
X59276Y28560D01*
X59268Y28603D01*
X59284Y28643D01*
Y28837D01*
X59268Y28877D01*
X59276Y28920D01*
X59238Y29110D01*
X59214Y29147D01*
Y29176D01*
X59874Y29836D01*
X59875Y29838D01*
X59875Y29838D01*
X59917Y29938D01*
X60163Y30307D01*
X60250Y30744D01*
X60291Y30844D01*
Y31436D01*
X60636Y31636D01*
X60981Y31436D01*
Y28319D01*
X59992D01*
Y27542D01*
X59955Y27527D01*
X59518Y27440D01*
X59279Y27280D01*
X59142Y27237D01*
X58405Y26622D01*
X57048D01*
Y25463D01*
X57033Y25448D01*
X56990Y25346D01*
X56954Y25292D01*
X56846Y25218D01*
X56285Y24355D01*
X56262Y24234D01*
X56182Y24114D01*
X56095Y23677D01*
X56054Y23577D01*
Y23358D01*
X56095Y23257D01*
X56182Y22820D01*
X56428Y22452D01*
X56471Y22350D01*
X56988Y21832D01*
Y21438D01*
X57153Y21040D01*
X57458Y20736D01*
X57855Y20571D01*
X58286D01*
X58684Y20736D01*
X58989Y21040D01*
X59153Y21438D01*
Y21869D01*
X58989Y22267D01*
X58881Y22704D01*
X59186Y23009D01*
X59264Y23199D01*
X59392Y23224D01*
X59479Y23283D01*
X60030Y23145D01*
X60080Y23071D01*
X60106Y23009D01*
X60410Y22704D01*
X60808Y22539D01*
X61239D01*
X61637Y22704D01*
X61941Y23009D01*
X62106Y23407D01*
Y23837D01*
X62064Y23940D01*
X62055Y24437D01*
X62055Y24437D01*
X62055Y24437D01*
Y25962D01*
X62354Y26338D01*
X62555Y26338D01*
X64417D01*
X64717Y25962D01*
Y24792D01*
X64585Y24705D01*
X64155D01*
X63757Y24540D01*
X63452Y24235D01*
X63287Y23837D01*
Y23407D01*
X63452Y23009D01*
X63757Y22704D01*
X64155Y22539D01*
X64203D01*
X64597Y22471D01*
X64665Y22077D01*
Y22029D01*
X64830Y21631D01*
X65135Y21326D01*
X65533Y21161D01*
X65963D01*
X66361Y21326D01*
X66666Y21631D01*
X67190D01*
X67495Y21326D01*
X67893Y21161D01*
X68323D01*
X68721Y21326D01*
X69026Y21631D01*
X69125Y21870D01*
X69652D01*
X69751Y21631D01*
X70056Y21326D01*
X70454Y21161D01*
X70885D01*
X71283Y21326D01*
X71587Y21631D01*
X71752Y22029D01*
Y22459D01*
X71587Y22857D01*
X71283Y23162D01*
X70885Y23327D01*
X70454D01*
X70056Y23162D01*
X69751Y22857D01*
X69652Y22619D01*
X69125D01*
X69026Y22857D01*
X68721Y23162D01*
X68323Y23327D01*
X67893D01*
X67495Y23162D01*
X67190Y22857D01*
X66772D01*
X66387Y23242D01*
Y24177D01*
X66780Y24437D01*
X67079D01*
Y24437D01*
X69142D01*
Y24946D01*
X69642Y25045D01*
X69751Y24780D01*
X70056Y24476D01*
X70454Y24311D01*
X70885D01*
X71283Y24476D01*
X71587Y24780D01*
X71752Y25178D01*
Y25609D01*
X71587Y26007D01*
X71543Y26051D01*
X71327Y26378D01*
X71543Y26705D01*
X71587Y26749D01*
X71752Y27147D01*
Y27578D01*
X71587Y27975D01*
X71283Y28280D01*
X70885Y28445D01*
X70454D01*
X70056Y28280D01*
X69751Y27975D01*
X69642Y27711D01*
X69142Y27810D01*
Y28319D01*
X67079D01*
Y28319D01*
X66780D01*
Y28319D01*
X66196D01*
Y30635D01*
X66254Y30671D01*
X66696Y30788D01*
X66906Y30578D01*
X67304Y30413D01*
X67735D01*
X68133Y30578D01*
X68437Y30883D01*
X68602Y31281D01*
Y31711D01*
X68437Y32109D01*
X68589Y32572D01*
X68589D01*
Y33310D01*
X72862D01*
Y31449D01*
X73213D01*
Y30559D01*
X72862D01*
Y28496D01*
X74843D01*
Y30559D01*
X74491D01*
Y31449D01*
X75415D01*
X75539Y31398D01*
X75969D01*
X76093Y31449D01*
X76745D01*
Y32042D01*
X76837Y32265D01*
Y32696D01*
X76745Y32918D01*
Y33512D01*
X76093D01*
X75969Y33563D01*
X75539D01*
X75415Y33512D01*
X74491D01*
Y34402D01*
X76745D01*
Y36465D01*
X76393D01*
Y37354D01*
X76745D01*
Y37392D01*
X77245Y37600D01*
X77658Y37187D01*
Y36792D01*
X77822Y36395D01*
X77977Y36240D01*
X78075Y35925D01*
X77977Y35611D01*
X77822Y35456D01*
X77658Y35058D01*
Y34627D01*
X77822Y34229D01*
X78127Y33925D01*
X78525Y33760D01*
X78956D01*
X79353Y33925D01*
X79632Y34203D01*
X81595D01*
X81595Y32838D01*
X81489Y32605D01*
X81300Y32362D01*
X81300Y32299D01*
Y32166D01*
X81267Y32087D01*
Y29724D01*
X81300Y29606D01*
D01*
X81304Y29106D01*
X81300Y29054D01*
X81300Y28920D01*
Y25559D01*
X78162D01*
X78062Y25518D01*
X77624Y25431D01*
X77391Y25275D01*
X77007Y25612D01*
X77002Y25621D01*
X77002Y26002D01*
Y26702D01*
X78697Y28397D01*
X78717Y28445D01*
X78759D01*
X79157Y28610D01*
X79461Y28914D01*
X79626Y29312D01*
Y29743D01*
X79461Y30141D01*
X79353Y30578D01*
X79658Y30883D01*
X79823Y31281D01*
Y31711D01*
X79658Y32109D01*
X79353Y32414D01*
X78956Y32579D01*
X78525D01*
X78127Y32414D01*
X77822Y32109D01*
X77658Y31711D01*
Y31281D01*
X77822Y30883D01*
X77930Y30445D01*
X77626Y30141D01*
X77461Y29743D01*
Y29312D01*
X77561Y29069D01*
X76098Y27606D01*
X74764D01*
Y25543D01*
X76526D01*
X76902Y25543D01*
X76934Y25491D01*
X77092Y25081D01*
X76680Y24669D01*
X76593Y24705D01*
X76163D01*
X75765Y24540D01*
X75460Y24235D01*
X75295Y23837D01*
Y23407D01*
X75460Y23009D01*
X75765Y22704D01*
X76163Y22539D01*
X76593D01*
X76991Y22704D01*
X77296Y23009D01*
X77461Y23407D01*
Y23641D01*
X78058Y24239D01*
X78063Y24251D01*
X78149Y24286D01*
X78162Y24281D01*
X81204D01*
X81595Y24016D01*
X81595Y23781D01*
Y23080D01*
X80543D01*
X80442Y23039D01*
X80005Y22952D01*
X79634Y22704D01*
X79534Y22662D01*
X78821Y21949D01*
X78525D01*
X78127Y21784D01*
X77822Y21479D01*
X77658Y21081D01*
Y20651D01*
X77822Y20253D01*
X78127Y19948D01*
X78525Y19783D01*
X78956D01*
X79353Y19948D01*
X79658Y20253D01*
X79823Y20651D01*
Y21081D01*
X79805Y21125D01*
X80438Y21758D01*
X80543Y21802D01*
X81595D01*
Y20866D01*
X83957D01*
Y23830D01*
X83957Y24016D01*
X84327Y24330D01*
X86382D01*
X86615Y24284D01*
X95042Y24283D01*
Y24114D01*
X95187Y23384D01*
X95601Y22766D01*
X96219Y22353D01*
X96949Y22208D01*
X98573D01*
Y11811D01*
X98604Y11738D01*
X98456Y10239D01*
X97997Y8727D01*
X97253Y7333D01*
X96250Y6112D01*
X95029Y5110D01*
X93635Y4365D01*
X92124Y3906D01*
X90624Y3759D01*
X90551Y3789D01*
X73959D01*
X73944Y3819D01*
X73854Y4284D01*
X73854Y4289D01*
X74611Y5020D01*
X75027D01*
X75424Y5185D01*
X75469Y5229D01*
X75796Y5445D01*
X76122Y5229D01*
X76167Y5185D01*
X76565Y5020D01*
X76995D01*
X77393Y5185D01*
X77698Y5489D01*
X77863Y5887D01*
Y6318D01*
X77698Y6716D01*
X77393Y7021D01*
X76995Y7185D01*
X76565D01*
X76167Y7021D01*
X76122Y6976D01*
X75796Y6760D01*
X75469Y6976D01*
X75424Y7021D01*
X75027Y7185D01*
X74596D01*
X74198Y7021D01*
X73893Y6716D01*
X73729Y6318D01*
Y5945D01*
X72965Y5207D01*
X72960Y5196D01*
X72876Y5161D01*
X72863Y5167D01*
X72158D01*
X72093Y5224D01*
X71865Y5667D01*
X71957Y5887D01*
Y6318D01*
X71792Y6716D01*
X71487Y7021D01*
X71090Y7185D01*
X70659D01*
X70261Y7021D01*
X69956Y6716D01*
X69792Y6318D01*
Y5887D01*
X69883Y5667D01*
X69655Y5224D01*
X69590Y5167D01*
X68221D01*
X68156Y5224D01*
X67928Y5667D01*
X68020Y5887D01*
Y6318D01*
X67855Y6716D01*
X67550Y7021D01*
X67153Y7185D01*
X66722D01*
X66324Y7021D01*
X66280Y6977D01*
X65953Y6760D01*
X65627Y6977D01*
X65582Y7021D01*
X65184Y7185D01*
X64754D01*
X64356Y7021D01*
X64051Y6716D01*
X63886Y6318D01*
Y5887D01*
X64051Y5489D01*
X64356Y5185D01*
X64754Y5020D01*
X65184D01*
X65195Y5024D01*
X65909Y4310D01*
X66006Y4270D01*
X65825Y3789D01*
X34589D01*
X34574Y3819D01*
X34484Y4284D01*
X34484Y4289D01*
X35241Y5020D01*
X35656D01*
X36054Y5185D01*
X36099Y5229D01*
X36426Y5445D01*
X36752Y5229D01*
X36797Y5185D01*
X37195Y5020D01*
X37625D01*
X38023Y5185D01*
X38328Y5489D01*
X38493Y5887D01*
Y6318D01*
X38328Y6716D01*
X38023Y7021D01*
X37625Y7185D01*
X37195D01*
X36797Y7021D01*
X36752Y6976D01*
X36426Y6760D01*
X36099Y6976D01*
X36054Y7021D01*
X35656Y7185D01*
X35226D01*
X34828Y7021D01*
X34523Y6716D01*
X34358Y6318D01*
Y5945D01*
X33594Y5207D01*
X33590Y5196D01*
X33506Y5161D01*
X33493Y5167D01*
X32788D01*
X32723Y5224D01*
X32495Y5667D01*
X32587Y5887D01*
Y6318D01*
X32422Y6716D01*
X32117Y7021D01*
X31719Y7185D01*
X31289D01*
X30891Y7021D01*
X30586Y6716D01*
X30421Y6318D01*
Y5887D01*
X30513Y5667D01*
X30285Y5224D01*
X30220Y5167D01*
X28851D01*
X28786Y5224D01*
X28558Y5667D01*
X28650Y5887D01*
Y6318D01*
X28485Y6716D01*
X28180Y7021D01*
X27782Y7185D01*
X27352D01*
X26954Y7021D01*
X26910Y6977D01*
X26583Y6760D01*
X26256Y6977D01*
X26212Y7021D01*
X25814Y7185D01*
X25384D01*
X24986Y7021D01*
X24681Y6716D01*
X24516Y6318D01*
Y5887D01*
X24681Y5489D01*
X24986Y5185D01*
X25384Y5020D01*
X25814D01*
X25824Y5024D01*
X26539Y4310D01*
X26636Y4270D01*
X26455Y3789D01*
X11811D01*
X11738Y3759D01*
X10239Y3906D01*
X8727Y4365D01*
X7333Y5110D01*
X6112Y6112D01*
X5110Y7333D01*
X4365Y8727D01*
X3906Y10239D01*
X3759Y11738D01*
X3789Y11811D01*
Y22208D01*
X5413D01*
X6143Y22353D01*
X6762Y22766D01*
X7175Y23384D01*
X7320Y24114D01*
Y27067D01*
X7175Y27797D01*
X6762Y28415D01*
X6143Y28828D01*
X5413Y28974D01*
X3789D01*
Y34018D01*
X5413D01*
X6143Y34164D01*
X6762Y34577D01*
X7175Y35195D01*
X7320Y35925D01*
Y35947D01*
X7693Y36229D01*
X8079Y36280D01*
X8211Y36254D01*
X10195D01*
X10239Y36168D01*
X10433Y35748D01*
Y35707D01*
X10401Y35630D01*
Y35414D01*
X10335Y35255D01*
Y34824D01*
X10401Y34665D01*
Y34233D01*
X10335Y34074D01*
Y33643D01*
X10401Y33484D01*
Y33052D01*
X10335Y32893D01*
Y32462D01*
X10401Y32302D01*
Y31871D01*
X10335Y31711D01*
Y31281D01*
X10401Y31121D01*
Y30690D01*
X10335Y30530D01*
Y30100D01*
X10401Y29940D01*
Y28642D01*
X9646D01*
Y22539D01*
X10523D01*
X10525Y22533D01*
X10827Y22409D01*
X13976D01*
X14278Y22533D01*
X14280Y22539D01*
X14370D01*
Y22756D01*
X14402Y22835D01*
Y28833D01*
X14745Y29232D01*
X15176D01*
X15335Y29298D01*
X15767D01*
X15926Y29232D01*
X16357D01*
X16516Y29298D01*
X17913D01*
X18215Y29423D01*
X18677Y29528D01*
X20768Y29528D01*
Y29873D01*
X22730D01*
X23009Y29594D01*
X23407Y29429D01*
X23837D01*
X24235Y29594D01*
X24414Y29772D01*
X24902Y29565D01*
Y29312D01*
X25066Y28914D01*
X25371Y28610D01*
X25769Y28445D01*
X26200D01*
X26597Y28610D01*
X26902Y28914D01*
X27067Y29312D01*
Y29743D01*
X26902Y30141D01*
X26597Y30445D01*
X26200Y30610D01*
X25769D01*
X25371Y30445D01*
X25192Y30267D01*
X24705Y30475D01*
Y30727D01*
X24540Y31125D01*
X24496Y31169D01*
X24279Y31496D01*
X24496Y31823D01*
X24540Y31867D01*
X24705Y32265D01*
Y32696D01*
X24540Y33094D01*
X24235Y33398D01*
X23837Y33563D01*
X23407D01*
X23009Y33398D01*
X22704Y33094D01*
X22539Y32696D01*
Y32265D01*
X22704Y31867D01*
X22749Y31823D01*
X22912Y31576D01*
X22650Y31151D01*
X20768D01*
X20768Y32516D01*
X20873Y32749D01*
X21062Y32992D01*
X21062Y33055D01*
Y33188D01*
X21095Y33268D01*
Y35630D01*
X21062Y35710D01*
Y35748D01*
X21260Y36167D01*
X21304Y36252D01*
X22453D01*
X22779Y35752D01*
X22736Y35648D01*
Y35218D01*
X22901Y34820D01*
X23206Y34515D01*
X23604Y34350D01*
X24034D01*
X24432Y34515D01*
X24737Y34820D01*
X24902Y35218D01*
Y35339D01*
X25382Y35595D01*
X25618Y35407D01*
Y34402D01*
X27871D01*
Y33512D01*
X27520D01*
Y31449D01*
X29500D01*
Y33512D01*
X29149D01*
Y34402D01*
X29500D01*
Y36465D01*
X29149D01*
Y37003D01*
X29203Y37057D01*
X29649Y37236D01*
X29877Y37056D01*
X29988Y36788D01*
X30292Y36484D01*
X30690Y36319D01*
X30797D01*
X31064Y35819D01*
X30986Y35702D01*
X30898Y35265D01*
X30857Y35164D01*
Y28442D01*
X30898Y28342D01*
X30986Y27905D01*
X31233Y27534D01*
X31275Y27434D01*
X33220Y25488D01*
Y23386D01*
X29884Y20361D01*
X29417Y20342D01*
X29157Y20603D01*
X28759Y20768D01*
X28328D01*
X27930Y20603D01*
X27626Y20298D01*
X27461Y19900D01*
Y19470D01*
X27626Y19072D01*
X27930Y18767D01*
X28328Y18602D01*
X28759D01*
X29157Y18767D01*
X29435Y19046D01*
X29787D01*
X29888Y19087D01*
X30325Y19174D01*
X30613Y19367D01*
X30743Y19414D01*
X32707Y21195D01*
X33260Y21021D01*
X33334Y20843D01*
X33639Y20539D01*
X34037Y20374D01*
X34467D01*
X34865Y20539D01*
X35170Y20843D01*
X35335Y21241D01*
Y21672D01*
X35212Y21968D01*
X35283Y22468D01*
X35687Y22701D01*
X35783Y22725D01*
X36001Y22507D01*
X36399Y22343D01*
X36830D01*
X37227Y22507D01*
X37532Y22812D01*
X37697Y23210D01*
Y23641D01*
X37532Y24038D01*
X37227Y24343D01*
X36830Y24508D01*
X36399D01*
X36001Y24343D01*
X35783Y24126D01*
X35373Y24227D01*
X35283Y24279D01*
Y26351D01*
X35282D01*
X35075Y26851D01*
X35170Y26946D01*
X35335Y27344D01*
Y27774D01*
X35170Y28172D01*
X34865Y28477D01*
X34467Y28642D01*
X34037D01*
X33639Y28477D01*
X33334Y28172D01*
X33251Y27972D01*
X32707Y27809D01*
X32179Y28338D01*
X32135Y28442D01*
Y33122D01*
X32278Y33563D01*
X33358D01*
X33773Y33359D01*
X33773Y33063D01*
Y30603D01*
X35899Y30603D01*
X35919Y30112D01*
Y29921D01*
X37387D01*
X37691Y29921D01*
X38445Y29921D01*
X38471Y29858D01*
X38558Y29421D01*
X38744Y29142D01*
X38616Y28732D01*
X38487Y28610D01*
X38166Y28477D01*
X37862Y28172D01*
X37697Y27774D01*
Y27344D01*
X37862Y26946D01*
X38166Y26641D01*
X38564Y26476D01*
X38995D01*
X39393Y26641D01*
X39697Y26946D01*
X39828Y27261D01*
X40140Y27394D01*
X40362Y27435D01*
X40460Y27337D01*
X40562Y27294D01*
X40930Y27049D01*
X41367Y26961D01*
X41468Y26920D01*
X41825D01*
X42103Y26641D01*
X42501Y26476D01*
X42932D01*
X43330Y26641D01*
X43374Y26686D01*
X43701Y26902D01*
X44027Y26686D01*
X44072Y26641D01*
X44470Y26476D01*
X44900D01*
X45298Y26641D01*
X45603Y26946D01*
X45768Y27344D01*
Y27774D01*
X45603Y28172D01*
X45298Y28477D01*
X44900Y28642D01*
X44470D01*
X44425Y28623D01*
X43964Y29017D01*
X43918Y29032D01*
X43894Y29074D01*
X42642Y30048D01*
X42251Y30356D01*
X42250Y30356D01*
X41862Y30667D01*
X41628Y30856D01*
Y33465D01*
X39856D01*
Y33465D01*
X39659D01*
Y33465D01*
X38191D01*
X37887Y33465D01*
X37387Y33465D01*
X36280D01*
X35902Y33546D01*
X35821Y33924D01*
Y35335D01*
X35821D01*
Y35531D01*
X35821D01*
Y37000D01*
X35821Y37303D01*
X35821Y37803D01*
Y38969D01*
X35821Y39272D01*
X35821D01*
Y39469D01*
X35821D01*
Y40879D01*
X35902Y41258D01*
X36281Y41338D01*
X37691D01*
Y44882D01*
X37444D01*
Y48036D01*
X37646Y48452D01*
X37945D01*
Y48452D01*
X39603D01*
D02*
G37*
G36*
X71252Y60185D02*
X71129Y60062D01*
X70964Y59664D01*
Y59233D01*
X71044Y59042D01*
Y58674D01*
X70964Y58483D01*
Y58052D01*
X71044Y57861D01*
Y57493D01*
X70964Y57302D01*
Y56871D01*
X71129Y56473D01*
X71434Y56169D01*
X71832Y56004D01*
X72263D01*
X72660Y56169D01*
X72965Y56473D01*
X73130Y56871D01*
Y57264D01*
X74301D01*
Y56004D01*
X77442D01*
X77728Y55504D01*
X77658Y55334D01*
Y54903D01*
X77801Y54555D01*
X77930Y54067D01*
X77626Y53763D01*
X77461Y53365D01*
Y52934D01*
X77626Y52536D01*
X77930Y52232D01*
X78328Y52067D01*
X78759D01*
X79157Y52232D01*
X79461Y52536D01*
X79626Y52934D01*
Y53365D01*
X79482Y53712D01*
X79385Y54081D01*
X79722Y54479D01*
X81241D01*
X81595Y54125D01*
X81595Y53311D01*
X81489Y53078D01*
X81300Y52834D01*
X81300Y52772D01*
Y52639D01*
X81267Y52559D01*
Y50394D01*
X81300Y50078D01*
D01*
X81317Y50027D01*
X81300Y49527D01*
X81300D01*
Y47883D01*
X77270D01*
X76991Y48162D01*
X76593Y48327D01*
X76163D01*
X75765Y48162D01*
X75460Y47857D01*
X75295Y47459D01*
Y47029D01*
X75460Y46631D01*
X75765Y46326D01*
X76163Y46161D01*
X76593D01*
X76991Y46326D01*
X77270Y46605D01*
X81300D01*
X81300Y44802D01*
X81595Y44424D01*
X81595Y44302D01*
Y42243D01*
X79949Y40597D01*
X79526Y40881D01*
X79626Y41123D01*
Y41554D01*
X79461Y41952D01*
X79157Y42256D01*
X78759Y42421D01*
X78328D01*
X77930Y42256D01*
X77626Y41952D01*
X77461Y41554D01*
Y41368D01*
X76976Y41116D01*
X76745Y41303D01*
Y42370D01*
X74491D01*
Y43260D01*
X74843D01*
Y45323D01*
X72862D01*
Y43260D01*
X73213D01*
Y42370D01*
X72862D01*
Y40307D01*
X73213D01*
Y39768D01*
X73159Y39715D01*
X72713Y39535D01*
X72485Y39716D01*
X72374Y39983D01*
X72070Y40288D01*
X71672Y40453D01*
X71566D01*
X71298Y40953D01*
X71377Y41070D01*
X71464Y41507D01*
X71505Y41608D01*
X71505Y47842D01*
X71505Y48331D01*
X71505Y48331D01*
X71505Y48331D01*
X71505D01*
X71464Y48432D01*
X71377Y48869D01*
X71140Y49223D01*
X71097Y49331D01*
X69142Y51322D01*
Y54304D01*
X67079D01*
Y53952D01*
X66501D01*
X66398Y53994D01*
X64761Y55631D01*
X65016Y55916D01*
X65361Y56004D01*
X65557Y56004D01*
X69006D01*
Y57130D01*
X69136Y57261D01*
X69301Y57659D01*
Y58089D01*
X69136Y58487D01*
X69006Y58618D01*
Y59744D01*
X65069D01*
Y56503D01*
X65069Y56350D01*
X64694Y56026D01*
X64583Y55997D01*
X64419Y56119D01*
Y60328D01*
X64764Y60685D01*
X64919Y60685D01*
X71045D01*
X71252Y60185D01*
D02*
G37*
G36*
X98573Y40785D02*
X96949D01*
X96219Y40639D01*
X95601Y40226D01*
X95187Y39608D01*
X95042Y38878D01*
Y35925D01*
X95187Y35195D01*
X95601Y34577D01*
X96219Y34164D01*
X96949Y34018D01*
X98573D01*
Y28974D01*
X97602D01*
X97580Y28979D01*
X95797Y29083D01*
X95674Y29065D01*
X95190Y29104D01*
X94690Y29100D01*
X92167Y29100D01*
X92123Y29186D01*
X91930Y29606D01*
Y29647D01*
X91962Y29724D01*
Y29940D01*
X92027Y30100D01*
Y30530D01*
X91962Y30690D01*
Y31121D01*
X92027Y31281D01*
Y31711D01*
X91962Y31871D01*
Y32302D01*
X92027Y32462D01*
Y32893D01*
X91962Y33052D01*
Y33484D01*
X92027Y33643D01*
Y34074D01*
X91962Y34233D01*
Y34665D01*
X92027Y34824D01*
Y35255D01*
X91962Y35414D01*
Y35630D01*
X91837Y35931D01*
X91535Y36056D01*
X91320D01*
X91160Y36122D01*
X90729D01*
X90570Y36056D01*
X90138D01*
X89979Y36122D01*
X89548D01*
X89389Y36056D01*
X88957D01*
X88798Y36122D01*
X88367D01*
X88208Y36056D01*
X87776D01*
X87617Y36122D01*
X87186D01*
X87027Y36056D01*
X86595D01*
X86436Y36122D01*
X86005D01*
X85846Y36056D01*
X84449D01*
X84148Y35931D01*
X83686Y35827D01*
X81595Y35827D01*
Y35482D01*
X79632D01*
X79503Y35611D01*
X79405Y35925D01*
X79503Y36240D01*
X79658Y36395D01*
X79823Y36792D01*
Y37223D01*
X79658Y37621D01*
X79503Y37776D01*
X79405Y38091D01*
X79503Y38405D01*
X79658Y38560D01*
X79747Y38774D01*
X79754Y38776D01*
X80124Y39023D01*
X80225Y39065D01*
X82499Y41339D01*
X83957D01*
Y44302D01*
X83957Y44488D01*
X84327Y44802D01*
X86382D01*
X86615Y44756D01*
X86615Y44756D01*
X93485D01*
Y44753D01*
X95492Y44950D01*
X97422Y45536D01*
X97971Y45829D01*
X98573D01*
Y40785D01*
D02*
G37*
G36*
X91535Y29724D02*
X81693Y29724D01*
Y32087D01*
X84449D01*
Y35630D01*
X91535D01*
Y29724D01*
D02*
G37*
G36*
X57042Y29551D02*
X57045Y29528D01*
X57038Y29483D01*
X57030Y29457D01*
X56963Y29492D01*
X57000Y29533D01*
X57027Y29553D01*
X57042Y29551D01*
D02*
G37*
G36*
X57325Y29305D02*
X57317Y29231D01*
X56830Y28932D01*
X56989Y29328D01*
X57019Y29416D01*
X57030Y29457D01*
X57325Y29305D01*
D02*
G37*
G36*
X57317Y28249D02*
X57325Y28176D01*
X57030Y28023D01*
X57019Y28064D01*
X56989Y28153D01*
X56830Y28548D01*
X57317Y28249D01*
D02*
G37*
G36*
X57038Y27997D02*
X57045Y27952D01*
X57042Y27929D01*
X57027Y27927D01*
X57000Y27947D01*
X56963Y27988D01*
X57030Y28023D01*
X57038Y27997D01*
D02*
G37*
G36*
X20669Y35630D02*
Y33268D01*
X17913D01*
Y29724D01*
X13976D01*
Y22835D01*
X10827D01*
Y35630D01*
X20669Y35630D01*
D02*
G37*
%LPC*%
G36*
X52971Y149951D02*
X52540D01*
X52142Y149786D01*
X51838Y149482D01*
X51311D01*
X51007Y149786D01*
X50609Y149951D01*
X50178D01*
X49780Y149786D01*
X49476Y149482D01*
X49311Y149084D01*
Y148653D01*
X49476Y148255D01*
X49780Y147950D01*
X50178Y147786D01*
X50609D01*
X51007Y147950D01*
X51311Y148255D01*
X51838D01*
X52142Y147950D01*
X52540Y147786D01*
X52971D01*
X53369Y147950D01*
X53673Y148255D01*
X53838Y148653D01*
Y149084D01*
X53673Y149482D01*
X53369Y149786D01*
X52971Y149951D01*
D02*
G37*
G36*
X78956Y141437D02*
X78525D01*
X78127Y141272D01*
X77822Y140968D01*
X77658Y140570D01*
Y140139D01*
X77822Y139741D01*
X78127Y139436D01*
X78298Y139366D01*
X78312Y139129D01*
X78248Y138845D01*
X77930Y138713D01*
X77626Y138409D01*
X77461Y138011D01*
Y137580D01*
X77626Y137182D01*
X77930Y136877D01*
X78328Y136713D01*
X78759D01*
X79157Y136877D01*
X79461Y137182D01*
X79626Y137580D01*
Y138011D01*
X79461Y138409D01*
X79157Y138713D01*
X78985Y138784D01*
X78971Y139020D01*
X79035Y139305D01*
X79353Y139436D01*
X79658Y139741D01*
X79823Y140139D01*
Y140570D01*
X79658Y140968D01*
X79353Y141272D01*
X78956Y141437D01*
D02*
G37*
G36*
X72518Y138878D02*
X72088D01*
X71690Y138713D01*
X71385Y138409D01*
X71220Y138011D01*
Y137580D01*
X71385Y137182D01*
X71690Y136877D01*
X72088Y136713D01*
X72518D01*
X72916Y136877D01*
X73221Y137182D01*
X73386Y137580D01*
Y138011D01*
X73221Y138409D01*
X72916Y138713D01*
X72518Y138878D01*
D02*
G37*
G36*
X23837Y118209D02*
X23407D01*
X23009Y118044D01*
X22704Y117739D01*
X22539Y117341D01*
Y116911D01*
X22704Y116513D01*
X23009Y116208D01*
X23407Y116043D01*
X23837D01*
X24235Y116208D01*
X24540Y116513D01*
X24705Y116911D01*
Y117341D01*
X24540Y117739D01*
X24235Y118044D01*
X23837Y118209D01*
D02*
G37*
G36*
X30274Y109350D02*
X29844D01*
X29446Y109186D01*
X29141Y108881D01*
X28976Y108483D01*
Y108052D01*
X29141Y107654D01*
X29446Y107350D01*
X29844Y107185D01*
X30274D01*
X30672Y107350D01*
X30977Y107654D01*
X31142Y108052D01*
Y108483D01*
X30977Y108881D01*
X30672Y109186D01*
X30274Y109350D01*
D02*
G37*
G36*
X46475Y99508D02*
X46044D01*
X45647Y99343D01*
X45342Y99038D01*
X45177Y98641D01*
Y98210D01*
X45342Y97812D01*
X45647Y97507D01*
X46044Y97342D01*
X46475D01*
X46873Y97507D01*
X47178Y97812D01*
X47343Y98210D01*
Y98641D01*
X47178Y99038D01*
X46873Y99343D01*
X46475Y99508D01*
D02*
G37*
G36*
X28956Y95177D02*
X28525D01*
X28127Y95012D01*
X27822Y94708D01*
X27657Y94310D01*
Y93879D01*
X27822Y93481D01*
X28127Y93177D01*
X28525Y93012D01*
X28956D01*
X29353Y93177D01*
X29658Y93481D01*
X29823Y93879D01*
Y94310D01*
X29658Y94708D01*
X29353Y95012D01*
X28956Y95177D01*
D02*
G37*
G36*
X24822Y94587D02*
X24391D01*
X23993Y94422D01*
X23688Y94117D01*
X23524Y93719D01*
Y93289D01*
X23688Y92891D01*
X23993Y92586D01*
X24391Y92421D01*
X24822D01*
X25220Y92586D01*
X25524Y92891D01*
X25689Y93289D01*
Y93719D01*
X25524Y94117D01*
X25220Y94422D01*
X24822Y94587D01*
D02*
G37*
G36*
X42735Y93996D02*
X42304D01*
X41906Y93831D01*
X41602Y93527D01*
X41437Y93129D01*
Y92698D01*
X41602Y92300D01*
X41906Y91996D01*
X42304Y91831D01*
X42735D01*
X43133Y91996D01*
X43437Y92300D01*
X43602Y92698D01*
Y93129D01*
X43437Y93527D01*
X43133Y93831D01*
X42735Y93996D01*
D02*
G37*
G36*
X39585D02*
X39155D01*
X38757Y93831D01*
X38452Y93527D01*
X38287Y93129D01*
Y92698D01*
X38452Y92300D01*
X38757Y91996D01*
X39155Y91831D01*
X39585D01*
X39983Y91996D01*
X40288Y92300D01*
X40453Y92698D01*
Y93129D01*
X40288Y93527D01*
X39983Y93831D01*
X39585Y93996D01*
D02*
G37*
G36*
X10236Y96964D02*
X6693D01*
X6002Y96826D01*
X5415Y96434D01*
X5024Y95848D01*
X4886Y95157D01*
X5024Y94466D01*
X5415Y93880D01*
X6002Y93488D01*
X6693Y93351D01*
X10236D01*
X10927Y93488D01*
X11513Y93880D01*
X11905Y94466D01*
X11915Y94518D01*
X15540D01*
X15553Y94523D01*
X15640Y94488D01*
X15645Y94475D01*
X18232Y91888D01*
X18003Y91424D01*
X17903Y91465D01*
X11915D01*
X11905Y91517D01*
X11513Y92103D01*
X10927Y92495D01*
X10236Y92633D01*
X6693D01*
X6002Y92495D01*
X5415Y92103D01*
X5024Y91517D01*
X4886Y90826D01*
X5024Y90135D01*
X5415Y89549D01*
X6002Y89157D01*
X6693Y89020D01*
X10236D01*
X10927Y89157D01*
X11513Y89549D01*
X11905Y90135D01*
X11915Y90187D01*
X17903D01*
X17916Y90192D01*
X18002Y90157D01*
X18008Y90144D01*
X19390Y88761D01*
Y88367D01*
X19555Y87969D01*
X19859Y87665D01*
X20257Y87500D01*
X20688D01*
X21086Y87665D01*
X21390Y87969D01*
X21555Y88367D01*
Y88798D01*
X21390Y89196D01*
X21346Y89240D01*
X21130Y89567D01*
X21346Y89894D01*
X21390Y89938D01*
X21463Y90114D01*
X22017Y90268D01*
X26874Y85411D01*
X26971Y85371D01*
X27347Y85119D01*
X27792Y85031D01*
X27889Y84991D01*
X33729Y84991D01*
X33834Y84947D01*
X36825Y81956D01*
X36799Y81788D01*
X36436Y81398D01*
X36005D01*
X35607Y81233D01*
X35303Y80928D01*
X35138Y80530D01*
Y80100D01*
X35303Y79702D01*
X35607Y79397D01*
X36005Y79232D01*
X36436D01*
X36656Y79324D01*
X37126Y79082D01*
X37169Y79036D01*
X37198Y78966D01*
X37285Y78529D01*
X37531Y78160D01*
X37573Y78058D01*
X38287Y77344D01*
Y77100D01*
X38146Y76882D01*
X37631Y76737D01*
X37471Y76841D01*
X37303Y77100D01*
Y77381D01*
X37138Y77779D01*
X36834Y78083D01*
X36436Y78248D01*
X36005D01*
X35607Y78083D01*
X35303Y77779D01*
X35138Y77381D01*
Y76950D01*
X35229Y76730D01*
X35001Y76287D01*
X34936Y76230D01*
X31454D01*
Y78553D01*
X31329Y78855D01*
X31028Y78979D01*
X28028D01*
X27726Y78855D01*
X27601Y78553D01*
Y76553D01*
X27618Y76513D01*
X27610Y76470D01*
X27679Y76367D01*
X27726Y76252D01*
X27767Y76235D01*
X27791Y76199D01*
X28177Y75941D01*
X28177Y75941D01*
X27991Y75464D01*
X27987Y75463D01*
X27944Y75471D01*
X27841Y75402D01*
X27726Y75354D01*
X27709Y75314D01*
X27673Y75289D01*
X27649Y75168D01*
X27601Y75053D01*
Y73692D01*
X24123D01*
X24110Y73687D01*
X24025Y73722D01*
X24020Y73735D01*
X23124Y74631D01*
X23080Y74736D01*
X23080Y82059D01*
X23080Y82548D01*
X23080Y82548D01*
X23080Y82548D01*
X23080D01*
X23039Y82648D01*
X22952Y83086D01*
X22704Y83456D01*
X22662Y83557D01*
X22662Y83557D01*
X22662Y83557D01*
X21555Y84664D01*
Y85058D01*
X21390Y85456D01*
X21086Y85760D01*
X20688Y85925D01*
X20257D01*
X19859Y85760D01*
X19555Y85456D01*
X19390Y85058D01*
Y84627D01*
X19555Y84229D01*
X19859Y83925D01*
X20257Y83760D01*
X20651D01*
X21758Y82653D01*
X21771Y82647D01*
X21807Y82561D01*
X21802Y82548D01*
Y81564D01*
X21719Y81515D01*
X21302Y81410D01*
X21086Y81626D01*
X20688Y81791D01*
X20294D01*
X19699Y82386D01*
X19598Y82428D01*
X19227Y82676D01*
X18790Y82763D01*
X18690Y82804D01*
X11915D01*
X11905Y82856D01*
X11513Y83442D01*
X10927Y83834D01*
X10236Y83972D01*
X6693D01*
X6002Y83834D01*
X5415Y83442D01*
X5024Y82856D01*
X4886Y82165D01*
X5024Y81474D01*
X5415Y80888D01*
X6002Y80496D01*
X6693Y80359D01*
X10236D01*
X10927Y80496D01*
X11513Y80888D01*
X11905Y81474D01*
X11915Y81526D01*
X18313D01*
X18794Y81482D01*
X18794D01*
X19390Y80887D01*
Y80493D01*
X19555Y80095D01*
X19859Y79791D01*
X20257Y79626D01*
X20688D01*
X21086Y79791D01*
X21302Y80007D01*
X21719Y79902D01*
X21802Y79853D01*
X21802Y74736D01*
X21763Y74610D01*
X21696Y74542D01*
X21567Y74476D01*
X21188Y74438D01*
X21086Y74540D01*
X20688Y74705D01*
X20257D01*
X19859Y74540D01*
X19555Y74235D01*
X19541Y74202D01*
X11900D01*
X11513Y74780D01*
X10927Y75172D01*
X10236Y75309D01*
X6693D01*
X6002Y75172D01*
X5415Y74780D01*
X5024Y74194D01*
X4886Y73503D01*
X5024Y72812D01*
X5415Y72226D01*
X6002Y71834D01*
X6693Y71697D01*
X10236D01*
X10927Y71834D01*
X11513Y72226D01*
X11905Y72812D01*
X11927Y72923D01*
X19640D01*
X19859Y72704D01*
X20092Y72608D01*
Y72077D01*
X19859Y71981D01*
X19555Y71676D01*
X19390Y71278D01*
Y70848D01*
X19555Y70450D01*
X19670Y70335D01*
X19534Y69838D01*
X19474Y69812D01*
X11915D01*
X11905Y69864D01*
X11513Y70451D01*
X10927Y70842D01*
X10236Y70979D01*
X6693D01*
X6002Y70842D01*
X5415Y70451D01*
X5024Y69864D01*
X4886Y69173D01*
X5024Y68482D01*
X5415Y67896D01*
X6002Y67504D01*
X6693Y67367D01*
X10236D01*
X10927Y67504D01*
X11513Y67896D01*
X11905Y68482D01*
X11915Y68534D01*
X19390D01*
Y68289D01*
X19555Y67891D01*
X19859Y67586D01*
Y67060D01*
X19555Y66755D01*
X19390Y66357D01*
Y65963D01*
X18950Y65524D01*
X18847Y65481D01*
X11915D01*
X11905Y65533D01*
X11513Y66119D01*
X10927Y66511D01*
X10236Y66649D01*
X6693D01*
X6002Y66511D01*
X5415Y66119D01*
X5024Y65533D01*
X4886Y64842D01*
X5024Y64151D01*
X5415Y63565D01*
X6002Y63173D01*
X6693Y63036D01*
X10236D01*
X10927Y63173D01*
X11513Y63565D01*
X11905Y64151D01*
X11915Y64203D01*
X18847D01*
X18947Y64245D01*
X19384Y64332D01*
X19752Y64577D01*
X19854Y64620D01*
X20294Y65059D01*
X20688D01*
X21086Y65224D01*
X21390Y65528D01*
X21555Y65926D01*
Y66357D01*
X21390Y66755D01*
X21086Y67060D01*
Y67586D01*
X21390Y67891D01*
X21555Y68289D01*
Y68719D01*
X21390Y69117D01*
X21086Y69422D01*
X20853Y69518D01*
Y70049D01*
X21086Y70145D01*
X21390Y70450D01*
X21555Y70848D01*
Y71278D01*
X21390Y71676D01*
X21086Y71981D01*
X20853Y72077D01*
Y72608D01*
X21086Y72704D01*
X21390Y73009D01*
X21555Y73407D01*
Y73514D01*
X22055Y73814D01*
X22220Y73727D01*
X23116Y72831D01*
X23218Y72789D01*
X23586Y72543D01*
X24023Y72456D01*
X24123Y72414D01*
X27601D01*
Y71053D01*
X27726Y70752D01*
X28028Y70627D01*
X31028D01*
X31329Y70752D01*
X31454Y71053D01*
Y73053D01*
X31437Y73094D01*
X31445Y73137D01*
X31376Y73240D01*
X31329Y73355D01*
X31288Y73371D01*
X31264Y73408D01*
X30878Y73665D01*
X30878Y73665D01*
X31064Y74142D01*
X31068Y74144D01*
X31111Y74135D01*
X31214Y74204D01*
X31329Y74252D01*
X31346Y74292D01*
X31382Y74317D01*
X31406Y74439D01*
X31454Y74553D01*
Y74575D01*
X31604Y74611D01*
X31968Y74252D01*
X31988Y74190D01*
Y73800D01*
X32153Y73403D01*
X32458Y73098D01*
X32855Y72933D01*
X33286D01*
X33684Y73098D01*
X33989Y73403D01*
X34154Y73800D01*
Y74231D01*
X34062Y74451D01*
X34290Y74894D01*
X34355Y74951D01*
X36903D01*
X37182Y74673D01*
X37580Y74508D01*
X37861D01*
X38120Y74340D01*
X38287Y74081D01*
Y73800D01*
X38452Y73403D01*
X38757Y73098D01*
X39155Y72933D01*
X39585D01*
X39983Y73098D01*
X40288Y73403D01*
X40453Y73800D01*
Y74231D01*
X40288Y74629D01*
X39983Y74934D01*
X39585Y75098D01*
X39305D01*
X39046Y75266D01*
X38878Y75525D01*
Y75656D01*
X39046Y75915D01*
X39305Y76083D01*
X39585D01*
X39983Y76248D01*
X40288Y76552D01*
X40453Y76950D01*
Y77381D01*
X40288Y77779D01*
X39983Y78083D01*
X39585Y78248D01*
X39191D01*
X38765Y78674D01*
X38791Y78842D01*
X39155Y79232D01*
X39585D01*
X39983Y79397D01*
X39998Y79412D01*
X40985D01*
X41339Y79058D01*
X41339Y78661D01*
X41339Y78161D01*
Y75512D01*
X41996D01*
X42095Y75012D01*
X41906Y74934D01*
X41602Y74629D01*
X41437Y74231D01*
Y73800D01*
X41602Y73403D01*
X41906Y73098D01*
X42304Y72933D01*
X42735D01*
X43133Y73098D01*
X43437Y73403D01*
X43602Y73800D01*
Y74231D01*
X43437Y74629D01*
X43133Y74934D01*
X42944Y75012D01*
X43044Y75512D01*
X43701D01*
Y78161D01*
X43701Y78425D01*
X43701Y78925D01*
Y81575D01*
X41339D01*
Y81218D01*
X39998D01*
X39983Y81233D01*
X39585Y81398D01*
X39155D01*
X38934Y81306D01*
X38464Y81548D01*
X38422Y81594D01*
X38393Y81664D01*
X38306Y82101D01*
X38058Y82472D01*
X38017Y82572D01*
X34738Y85851D01*
X34738Y85851D01*
X34738Y85851D01*
X34637Y85893D01*
X34267Y86141D01*
X33830Y86227D01*
X33729Y86269D01*
X28386Y86269D01*
X27889Y86269D01*
X27880Y86273D01*
X27514Y86579D01*
X21555Y92538D01*
Y92932D01*
X21390Y93330D01*
X21118Y93602D01*
X21390Y93875D01*
X21555Y94273D01*
Y94704D01*
X21390Y95101D01*
X21086Y95406D01*
X20688Y95571D01*
X20257D01*
X19859Y95406D01*
X19555Y95101D01*
X19390Y94704D01*
Y94273D01*
X19555Y93875D01*
X19827Y93602D01*
X19555Y93330D01*
X19481Y93153D01*
X18928Y93000D01*
X16549Y95379D01*
X16549Y95379D01*
X16549Y95379D01*
X16448Y95420D01*
X16078Y95668D01*
X15641Y95755D01*
X15540Y95796D01*
X11915D01*
X11905Y95848D01*
X11513Y96434D01*
X10927Y96826D01*
X10236Y96964D01*
D02*
G37*
G36*
X42735Y90847D02*
X42304D01*
X41906Y90682D01*
X41602Y90377D01*
X41437Y89979D01*
Y89548D01*
X41602Y89151D01*
X41906Y88846D01*
X42304Y88681D01*
X42735D01*
X43133Y88846D01*
X43437Y89151D01*
X43602Y89548D01*
Y89979D01*
X43437Y90377D01*
X43133Y90682D01*
X42735Y90847D01*
D02*
G37*
G36*
X39585D02*
X39155D01*
X38757Y90682D01*
X38452Y90377D01*
X38287Y89979D01*
Y89548D01*
X38452Y89151D01*
X38757Y88846D01*
X39155Y88681D01*
X39585D01*
X39983Y88846D01*
X40288Y89151D01*
X40453Y89548D01*
Y89979D01*
X40288Y90377D01*
X39983Y90682D01*
X39585Y90847D01*
D02*
G37*
G36*
X58483Y81398D02*
X58053D01*
X57655Y81233D01*
X57350Y80928D01*
X57185Y80531D01*
Y80100D01*
X57350Y79702D01*
X57655Y79397D01*
X58053Y79233D01*
X58483D01*
X58881Y79397D01*
X59186Y79702D01*
X59351Y80100D01*
Y80531D01*
X59186Y80928D01*
X58881Y81233D01*
X58483Y81398D01*
D02*
G37*
G36*
X52184D02*
X51753D01*
X51355Y81233D01*
X51050Y80928D01*
X50885Y80531D01*
Y80100D01*
X51050Y79702D01*
X51355Y79397D01*
X51753Y79233D01*
X52184D01*
X52581Y79397D01*
X52886Y79702D01*
X53051Y80100D01*
Y80531D01*
X52886Y80928D01*
X52581Y81233D01*
X52184Y81398D01*
D02*
G37*
G36*
X49034D02*
X48604D01*
X48206Y81233D01*
X47901Y80928D01*
X47736Y80531D01*
Y80100D01*
X47901Y79702D01*
X48206Y79397D01*
X48604Y79233D01*
X49034D01*
X49432Y79397D01*
X49737Y79702D01*
X49902Y80100D01*
Y80531D01*
X49737Y80928D01*
X49432Y81233D01*
X49034Y81398D01*
D02*
G37*
G36*
X55334Y81398D02*
X54903D01*
X54505Y81233D01*
X54200Y80928D01*
X54035Y80530D01*
Y80100D01*
X54200Y79702D01*
X54505Y79397D01*
X54903Y79232D01*
X55334D01*
X55731Y79397D01*
X56036Y79702D01*
X56201Y80100D01*
Y80530D01*
X56036Y80928D01*
X55731Y81233D01*
X55334Y81398D01*
D02*
G37*
G36*
Y78248D02*
X54903D01*
X54505Y78083D01*
X54200Y77779D01*
X54035Y77381D01*
Y76950D01*
X54200Y76552D01*
X54505Y76248D01*
X54903Y76083D01*
X55334D01*
X55731Y76248D01*
X56036Y76552D01*
X56201Y76950D01*
Y77381D01*
X56036Y77779D01*
X55731Y78083D01*
X55334Y78248D01*
D02*
G37*
G36*
X58483Y78248D02*
X58053D01*
X57655Y78083D01*
X57350Y77778D01*
X57185Y77381D01*
Y76950D01*
X57350Y76552D01*
X57655Y76247D01*
X58053Y76082D01*
X58483D01*
X58881Y76247D01*
X59186Y76552D01*
X59351Y76950D01*
Y77381D01*
X59186Y77778D01*
X58881Y78083D01*
X58483Y78248D01*
D02*
G37*
G36*
X10236Y79641D02*
X6693D01*
X6002Y79503D01*
X5415Y79111D01*
X5024Y78525D01*
X4886Y77834D01*
X5024Y77143D01*
X5415Y76557D01*
X6002Y76165D01*
X6693Y76028D01*
X10236D01*
X10927Y76165D01*
X11513Y76557D01*
X11905Y77143D01*
X12042Y77834D01*
X11905Y78525D01*
X11513Y79111D01*
X10927Y79503D01*
X10236Y79641D01*
D02*
G37*
G36*
X58483Y75099D02*
X58053D01*
X57655Y74934D01*
X57350Y74629D01*
X57185Y74231D01*
Y73801D01*
X57350Y73403D01*
X57655Y73098D01*
X58053Y72934D01*
X58483D01*
X58881Y73098D01*
X59186Y73403D01*
X59351Y73801D01*
Y74231D01*
X59186Y74629D01*
X58881Y74934D01*
X58483Y75099D01*
D02*
G37*
G36*
X55334Y75098D02*
X54903D01*
X54505Y74934D01*
X54200Y74629D01*
X54035Y74231D01*
Y73800D01*
X54200Y73403D01*
X54505Y73098D01*
X54903Y72933D01*
X55334D01*
X55731Y73098D01*
X56036Y73403D01*
X56201Y73800D01*
Y74231D01*
X56036Y74629D01*
X55731Y74934D01*
X55334Y75098D01*
D02*
G37*
G36*
Y71949D02*
X54903D01*
X54505Y71784D01*
X54200Y71479D01*
X54035Y71082D01*
Y70651D01*
X54200Y70253D01*
X54505Y69948D01*
X54903Y69784D01*
X55334D01*
X55731Y69948D01*
X56036Y70253D01*
X56201Y70651D01*
Y71082D01*
X56036Y71479D01*
X55731Y71784D01*
X55334Y71949D01*
D02*
G37*
G36*
X45885D02*
X45454D01*
X45056Y71784D01*
X44751Y71479D01*
X44587Y71082D01*
Y70651D01*
X44751Y70253D01*
X45056Y69948D01*
X45454Y69784D01*
X45885D01*
X46283Y69948D01*
X46587Y70253D01*
X46752Y70651D01*
Y71082D01*
X46587Y71479D01*
X46283Y71784D01*
X45885Y71949D01*
D02*
G37*
G36*
X42735D02*
X42304D01*
X41906Y71784D01*
X41602Y71479D01*
X41437Y71082D01*
Y70651D01*
X41602Y70253D01*
X41906Y69948D01*
X42304Y69784D01*
X42735D01*
X43133Y69948D01*
X43437Y70253D01*
X43602Y70651D01*
Y71082D01*
X43437Y71479D01*
X43133Y71784D01*
X42735Y71949D01*
D02*
G37*
G36*
X39585D02*
X39155D01*
X38757Y71784D01*
X38452Y71479D01*
X38287Y71082D01*
Y70651D01*
X38452Y70253D01*
X38757Y69948D01*
X39155Y69784D01*
X39585D01*
X39983Y69948D01*
X40288Y70253D01*
X40453Y70651D01*
Y71082D01*
X40288Y71479D01*
X39983Y71784D01*
X39585Y71949D01*
D02*
G37*
G36*
X36436D02*
X36005D01*
X35607Y71784D01*
X35303Y71479D01*
X35138Y71082D01*
Y70651D01*
X35303Y70253D01*
X35607Y69948D01*
X36005Y69784D01*
X36436D01*
X36834Y69948D01*
X37138Y70253D01*
X37303Y70651D01*
Y71082D01*
X37138Y71479D01*
X36834Y71784D01*
X36436Y71949D01*
D02*
G37*
G36*
X55334Y68799D02*
X54903D01*
X54505Y68634D01*
X54200Y68330D01*
X54035Y67932D01*
Y67501D01*
X54200Y67103D01*
X54505Y66799D01*
X54903Y66634D01*
X55334D01*
X55731Y66799D01*
X56036Y67103D01*
X56201Y67501D01*
Y67932D01*
X56036Y68330D01*
X55731Y68634D01*
X55334Y68799D01*
D02*
G37*
G36*
X49034D02*
X48603D01*
X48206Y68634D01*
X47901Y68330D01*
X47736Y67932D01*
Y67501D01*
X47901Y67103D01*
X48206Y66799D01*
X48603Y66634D01*
X49034D01*
X49432Y66799D01*
X49737Y67103D01*
X49902Y67501D01*
Y67932D01*
X49737Y68330D01*
X49432Y68634D01*
X49034Y68799D01*
D02*
G37*
G36*
X45885D02*
X45454D01*
X45056Y68634D01*
X44751Y68330D01*
X44587Y67932D01*
Y67501D01*
X44751Y67103D01*
X45056Y66799D01*
X45454Y66634D01*
X45885D01*
X46283Y66799D01*
X46587Y67103D01*
X46752Y67501D01*
Y67932D01*
X46587Y68330D01*
X46283Y68634D01*
X45885Y68799D01*
D02*
G37*
G36*
X42735D02*
X42304D01*
X41906Y68634D01*
X41602Y68330D01*
X41437Y67932D01*
Y67501D01*
X41602Y67103D01*
X41906Y66799D01*
X42304Y66634D01*
X42735D01*
X43133Y66799D01*
X43437Y67103D01*
X43602Y67501D01*
Y67932D01*
X43437Y68330D01*
X43133Y68634D01*
X42735Y68799D01*
D02*
G37*
G36*
X39585D02*
X39155D01*
X38757Y68634D01*
X38452Y68330D01*
X38287Y67932D01*
Y67501D01*
X38452Y67103D01*
X38757Y66799D01*
X39155Y66634D01*
X39585D01*
X39983Y66799D01*
X40288Y67103D01*
X40453Y67501D01*
Y67932D01*
X40288Y68330D01*
X39983Y68634D01*
X39585Y68799D01*
D02*
G37*
G36*
X36436D02*
X36005D01*
X35607Y68634D01*
X35303Y68330D01*
X35138Y67932D01*
Y67501D01*
X35303Y67103D01*
X35607Y66799D01*
X36005Y66634D01*
X36436D01*
X36834Y66799D01*
X37138Y67103D01*
X37303Y67501D01*
Y67932D01*
X37138Y68330D01*
X36834Y68634D01*
X36436Y68799D01*
D02*
G37*
G36*
X58483Y68799D02*
X58053D01*
X57655Y68634D01*
X57350Y68329D01*
X57185Y67931D01*
Y67501D01*
X57350Y67103D01*
X57655Y66798D01*
X58053Y66633D01*
X58483D01*
X58881Y66798D01*
X59186Y67103D01*
X59351Y67501D01*
Y67931D01*
X59186Y68329D01*
X58881Y68634D01*
X58483Y68799D01*
D02*
G37*
G36*
X58483Y65650D02*
X58052D01*
X57654Y65485D01*
X57350Y65180D01*
X57185Y64782D01*
Y64352D01*
X57350Y63954D01*
X57654Y63649D01*
X58052Y63484D01*
X58483D01*
X58881Y63649D01*
X59186Y63954D01*
X59350Y64352D01*
Y64782D01*
X59186Y65180D01*
X58881Y65485D01*
X58483Y65650D01*
D02*
G37*
G36*
X55334D02*
X54903D01*
X54505Y65485D01*
X54200Y65180D01*
X54035Y64782D01*
Y64352D01*
X54200Y63954D01*
X54505Y63649D01*
X54903Y63484D01*
X55334D01*
X55731Y63649D01*
X56036Y63954D01*
X56201Y64352D01*
Y64782D01*
X56036Y65180D01*
X55731Y65485D01*
X55334Y65650D01*
D02*
G37*
G36*
X39585D02*
X39155D01*
X38757Y65485D01*
X38452Y65180D01*
X38287Y64782D01*
Y64352D01*
X38452Y63954D01*
X38757Y63649D01*
X39155Y63484D01*
X39585D01*
X39983Y63649D01*
X40288Y63954D01*
X40453Y64352D01*
Y64782D01*
X40288Y65180D01*
X39983Y65485D01*
X39585Y65650D01*
D02*
G37*
G36*
X61532Y63287D02*
X61101D01*
X60977Y63236D01*
X60197D01*
Y61173D01*
X60977D01*
X61101Y61122D01*
X61532D01*
X61655Y61173D01*
X62435D01*
Y63236D01*
X61655D01*
X61532Y63287D01*
D02*
G37*
G36*
X16357Y55610D02*
X15926D01*
X15767Y55544D01*
X15335D01*
X15176Y55610D01*
X14745D01*
X14586Y55544D01*
X14154D01*
X13995Y55610D01*
X13564D01*
X13405Y55544D01*
X12973D01*
X12814Y55610D01*
X12383D01*
X12224Y55544D01*
X11792D01*
X11633Y55610D01*
X11202D01*
X11043Y55544D01*
X10827D01*
X10525Y55419D01*
X10401Y55118D01*
Y54902D01*
X10335Y54743D01*
Y54312D01*
X10401Y54153D01*
Y53721D01*
X10335Y53562D01*
Y53131D01*
X10401Y52972D01*
Y52540D01*
X10335Y52381D01*
Y52264D01*
X9646D01*
Y46161D01*
X14370D01*
Y49530D01*
X14745Y49902D01*
X15176D01*
X15335Y49968D01*
X15767D01*
X15926Y49902D01*
X16357D01*
X16516Y49968D01*
X16732D01*
X17034Y50092D01*
X17158Y50394D01*
Y50610D01*
X17224Y50769D01*
Y51200D01*
X17158Y51359D01*
Y51791D01*
X17224Y51950D01*
Y52381D01*
X17158Y52540D01*
Y52972D01*
X17224Y53131D01*
Y53562D01*
X17158Y53721D01*
Y54153D01*
X17224Y54312D01*
Y54743D01*
X17158Y54902D01*
Y55118D01*
X17034Y55419D01*
X16732Y55544D01*
X16516D01*
X16357Y55610D01*
D02*
G37*
G36*
X27598Y51228D02*
X25360D01*
Y50069D01*
X23666Y48376D01*
X23646Y48327D01*
X23604D01*
X23206Y48162D01*
X22901Y47857D01*
X22736Y47459D01*
Y47029D01*
X22901Y46631D01*
X23206Y46326D01*
X23604Y46161D01*
X24034D01*
X24432Y46326D01*
X24737Y46631D01*
X24902Y47029D01*
Y47459D01*
X24801Y47702D01*
X26264Y49165D01*
X27598D01*
Y51228D01*
D02*
G37*
%LPD*%
G36*
X16732Y50394D02*
X10827D01*
Y55118D01*
X16732D01*
Y50394D01*
D02*
G37*
%LPC*%
G36*
X92716Y115256D02*
X87992D01*
Y111887D01*
X87617Y111516D01*
X87186D01*
X87027Y111450D01*
X86595D01*
X86436Y111516D01*
X86005D01*
X85846Y111450D01*
X85630D01*
X85329Y111325D01*
X85204Y111024D01*
Y110808D01*
X85138Y110648D01*
Y110218D01*
X85204Y110058D01*
Y109627D01*
X85138Y109467D01*
Y109037D01*
X85204Y108877D01*
Y108446D01*
X85138Y108286D01*
Y107855D01*
X85204Y107696D01*
Y107292D01*
X83646Y105734D01*
X83638Y105734D01*
X83638Y105734D01*
X83201Y105442D01*
X82683Y105339D01*
Y105334D01*
X78150D01*
Y107382D01*
X73425D01*
Y103169D01*
X73110Y103036D01*
X72925Y103015D01*
X72660Y103280D01*
X72263Y103445D01*
X71832D01*
X71434Y103280D01*
X71129Y102975D01*
X70965Y102578D01*
Y102147D01*
X71129Y101749D01*
X71434Y101444D01*
X71832Y101279D01*
X72263D01*
X72660Y101444D01*
X72925Y101709D01*
X73110Y101688D01*
X73425Y101556D01*
Y101279D01*
X78150D01*
Y103327D01*
X82683D01*
Y103318D01*
X83557Y103433D01*
X84371Y103770D01*
X85065Y104302D01*
X85059Y104307D01*
X85060Y104310D01*
X86623Y105873D01*
X87027D01*
X87186Y105807D01*
X87617D01*
X87776Y105873D01*
X88208D01*
X88367Y105807D01*
X88798D01*
X88957Y105873D01*
X89389D01*
X89548Y105807D01*
X89979D01*
X90138Y105873D01*
X90570D01*
X90729Y105807D01*
X91160D01*
X91320Y105873D01*
X91535D01*
X91837Y105998D01*
X91962Y106299D01*
Y106515D01*
X92028Y106674D01*
Y107105D01*
X91962Y107264D01*
Y107696D01*
X92028Y107855D01*
Y108286D01*
X91962Y108446D01*
Y108877D01*
X92028Y109037D01*
Y109153D01*
X92716D01*
Y115256D01*
D02*
G37*
G36*
X78759Y115256D02*
X78328D01*
X77930Y115091D01*
X77626Y114787D01*
X77461Y114389D01*
Y113958D01*
X77561Y113715D01*
X76098Y112252D01*
X74764D01*
Y110189D01*
X77002D01*
Y111348D01*
X78697Y113043D01*
X78717Y113091D01*
X78759D01*
X79157Y113255D01*
X79461Y113560D01*
X79626Y113958D01*
Y114389D01*
X79461Y114787D01*
X79157Y115091D01*
X78759Y115256D01*
D02*
G37*
G36*
X92868Y95143D02*
X86659D01*
Y95125D01*
X83465D01*
X83232Y95079D01*
X82735D01*
X82735Y95079D01*
X82304D01*
X82304Y95079D01*
X81554D01*
X81554Y95079D01*
X81123D01*
X81123Y95079D01*
X80413D01*
Y94592D01*
X80256Y94212D01*
Y93781D01*
X80413Y93400D01*
Y90354D01*
X81056D01*
Y86811D01*
X80413D01*
Y82087D01*
X83232D01*
X83465Y82040D01*
X85879D01*
X86005Y81988D01*
X86436D01*
X86562Y82040D01*
X87060D01*
X87186Y81988D01*
X87617D01*
X87743Y82040D01*
X88241D01*
X88367Y81988D01*
X88798D01*
X88924Y82040D01*
X89423D01*
X89548Y81988D01*
X89979D01*
X90217Y82087D01*
X90492D01*
X90729Y81988D01*
X91160D01*
X91398Y82087D01*
X92815D01*
Y86811D01*
X92172D01*
Y89897D01*
X92868D01*
Y95143D01*
D02*
G37*
G36*
X79331Y100732D02*
X64764D01*
Y98721D01*
X64453D01*
X64055Y98556D01*
X63750Y98251D01*
X63585Y97853D01*
Y97422D01*
X63750Y97025D01*
X64055Y96720D01*
X64453Y96555D01*
X64764D01*
Y93945D01*
X79331D01*
Y100732D01*
D02*
G37*
G36*
X58483Y93996D02*
X58053D01*
X57655Y93831D01*
X57350Y93526D01*
X57185Y93129D01*
Y92698D01*
X57350Y92300D01*
X57655Y91995D01*
X58053Y91830D01*
X58483D01*
X58881Y91995D01*
X59186Y92300D01*
X59351Y92698D01*
Y93129D01*
X59186Y93526D01*
X58881Y93831D01*
X58483Y93996D01*
D02*
G37*
G36*
Y90847D02*
X58053D01*
X57655Y90682D01*
X57350Y90377D01*
X57185Y89979D01*
Y89549D01*
X57350Y89151D01*
X57655Y88846D01*
X58053Y88682D01*
X58483D01*
X58881Y88846D01*
X59186Y89151D01*
X59351Y89549D01*
Y89979D01*
X59186Y90377D01*
X58881Y90682D01*
X58483Y90847D01*
D02*
G37*
G36*
X61632Y87697D02*
X61202D01*
X60804Y87532D01*
X60499Y87227D01*
X60334Y86830D01*
Y86399D01*
X60499Y86001D01*
X60804Y85696D01*
X61202Y85532D01*
X61632D01*
X62030Y85696D01*
X62335Y86001D01*
X62500Y86399D01*
Y86830D01*
X62335Y87227D01*
X62030Y87532D01*
X61632Y87697D01*
D02*
G37*
G36*
X75576Y89272D02*
X75145D01*
X74747Y89107D01*
X74443Y88802D01*
X74414Y88732D01*
X64764D01*
Y81945D01*
X79331D01*
Y88732D01*
X76307D01*
X76278Y88802D01*
X75974Y89107D01*
X75576Y89272D01*
D02*
G37*
G36*
X94704Y69980D02*
X94273D01*
X93875Y69815D01*
X93570Y69511D01*
X93405Y69113D01*
Y68682D01*
X93570Y68284D01*
X93875Y67980D01*
X94273Y67815D01*
X94704D01*
X95101Y67980D01*
X95406Y68284D01*
X95571Y68682D01*
Y69113D01*
X95406Y69511D01*
X95101Y69815D01*
X94704Y69980D01*
D02*
G37*
%LPD*%
G36*
X91535Y106299D02*
X85630D01*
Y111024D01*
X91535D01*
Y106299D01*
D02*
G37*
%LPC*%
G36*
X43522Y25689D02*
X43092D01*
X42694Y25524D01*
X42389Y25220D01*
X42224Y24822D01*
Y24391D01*
X42389Y23993D01*
X42694Y23688D01*
X43092Y23524D01*
X43522D01*
X43920Y23688D01*
X44225Y23993D01*
X44390Y24391D01*
Y24822D01*
X44225Y25220D01*
X43920Y25524D01*
X43522Y25689D01*
D02*
G37*
G36*
X30274Y24705D02*
X29844D01*
X29446Y24540D01*
X29141Y24235D01*
X28976Y23837D01*
Y23407D01*
X29141Y23009D01*
X29446Y22704D01*
X29844Y22539D01*
X30274D01*
X30672Y22704D01*
X30977Y23009D01*
X31142Y23407D01*
Y23837D01*
X30977Y24235D01*
X30672Y24540D01*
X30274Y24705D01*
D02*
G37*
G36*
X24034D02*
X23604D01*
X23206Y24540D01*
X22901Y24235D01*
X22736Y23837D01*
Y23407D01*
X22901Y23009D01*
X23206Y22704D01*
X23377Y22633D01*
X23391Y22397D01*
X23327Y22113D01*
X23009Y21981D01*
X22704Y21676D01*
X22539Y21278D01*
Y20848D01*
X22704Y20450D01*
X23009Y20145D01*
X23407Y19980D01*
X23837D01*
X24235Y20145D01*
X24540Y20450D01*
X24705Y20848D01*
Y21278D01*
X24540Y21676D01*
X24235Y21981D01*
X24064Y22052D01*
X24050Y22288D01*
X24114Y22572D01*
X24432Y22704D01*
X24737Y23009D01*
X24902Y23407D01*
Y23837D01*
X24737Y24235D01*
X24432Y24540D01*
X24034Y24705D01*
D02*
G37*
G36*
X41671Y21635D02*
X41241D01*
X40843Y21470D01*
X40538Y21165D01*
X40373Y20767D01*
Y20337D01*
X40538Y19939D01*
X40843Y19634D01*
X41241Y19469D01*
X41671D01*
X42069Y19634D01*
X42374Y19939D01*
X42539Y20337D01*
Y20767D01*
X42374Y21165D01*
X42069Y21470D01*
X41671Y21635D01*
D02*
G37*
G36*
X60058Y18012D02*
X59627D01*
X59229Y17847D01*
X58925Y17542D01*
X58760Y17144D01*
Y16714D01*
X58925Y16316D01*
X59229Y16011D01*
X59627Y15846D01*
X60058D01*
X60456Y16011D01*
X60760Y16316D01*
X60925Y16714D01*
Y17144D01*
X60760Y17542D01*
X60456Y17847D01*
X60058Y18012D01*
D02*
G37*
G36*
X73058Y16633D02*
X72628D01*
X72230Y16469D01*
X71925Y16164D01*
X71760Y15766D01*
Y15335D01*
X71925Y14938D01*
X72230Y14633D01*
X72628Y14468D01*
X73058D01*
X73456Y14633D01*
X73761Y14938D01*
X73926Y15335D01*
Y15766D01*
X73761Y16164D01*
X73456Y16469D01*
X73058Y16633D01*
D02*
G37*
G36*
X33688D02*
X33258D01*
X32860Y16469D01*
X32555Y16164D01*
X32390Y15766D01*
Y15335D01*
X32555Y14938D01*
X32860Y14633D01*
X33258Y14468D01*
X33688D01*
X34086Y14633D01*
X34391Y14938D01*
X34556Y15335D01*
Y15766D01*
X34391Y16164D01*
X34086Y16469D01*
X33688Y16633D01*
D02*
G37*
G36*
X28848Y12697D02*
X24911D01*
Y12104D01*
X24828Y12016D01*
X24411Y11811D01*
X24172Y11909D01*
X23742D01*
X23344Y11745D01*
X23039Y11440D01*
X22874Y11042D01*
Y10611D01*
X23039Y10214D01*
X23344Y9909D01*
X23742Y9744D01*
X24172D01*
X24411Y9843D01*
X24828Y9637D01*
X24911Y9550D01*
Y8957D01*
X28848D01*
Y12697D01*
D02*
G37*
G36*
X62676Y12083D02*
X62246D01*
X61848Y11918D01*
X61543Y11613D01*
X61378Y11215D01*
Y10785D01*
X61543Y10387D01*
X61848Y10082D01*
X62246Y9917D01*
X62676D01*
X63074Y10082D01*
X63379Y10387D01*
X63544Y10785D01*
Y11215D01*
X63379Y11613D01*
X63074Y11918D01*
X62676Y12083D01*
D02*
G37*
G36*
X78620Y11909D02*
X78190D01*
X77792Y11745D01*
X77487Y11440D01*
X77323Y11042D01*
Y10611D01*
X77487Y10214D01*
X77792Y9909D01*
X78190Y9744D01*
X78620D01*
X79018Y9909D01*
X79323Y10214D01*
X79488Y10611D01*
Y11042D01*
X79323Y11440D01*
X79018Y11745D01*
X78620Y11909D01*
D02*
G37*
G36*
X71278Y11713D02*
X70848D01*
X70450Y11548D01*
X70145Y11243D01*
X69980Y10845D01*
Y10415D01*
X70145Y10017D01*
X70450Y9712D01*
X70848Y9547D01*
X71278D01*
X71676Y9712D01*
X71981Y10017D01*
X72146Y10415D01*
Y10845D01*
X71981Y11243D01*
X71676Y11548D01*
X71278Y11713D01*
D02*
G37*
G36*
X72518Y54232D02*
X72088D01*
X71690Y54067D01*
X71385Y53763D01*
X71220Y53365D01*
Y52934D01*
X71385Y52536D01*
X71690Y52232D01*
X72088Y52067D01*
X72518D01*
X72916Y52232D01*
X73221Y52536D01*
X73386Y52934D01*
Y53365D01*
X73221Y53763D01*
X72916Y54067D01*
X72518Y54232D01*
D02*
G37*
G36*
X78956Y45374D02*
X78525D01*
X78127Y45209D01*
X77822Y44905D01*
X77658Y44507D01*
Y44076D01*
X77822Y43678D01*
X78127Y43374D01*
X78525Y43209D01*
X78956D01*
X79353Y43374D01*
X79658Y43678D01*
X79823Y44076D01*
Y44507D01*
X79658Y44905D01*
X79353Y45209D01*
X78956Y45374D01*
D02*
G37*
%LPD*%
G36*
G01X57874Y114370D02*
G02X58858Y113386I0J-984D01*
G02X57874Y112402I-984J0D01*
G02X56890Y113386I0J984D01*
G02X57874Y114370I984J0D01*
D02*
G37*
G36*
G01X53937D02*
G02X54921Y113386I0J-984D01*
G02X53937Y112402I-984J0D01*
G02X52953Y113386I0J984D01*
G02X53937Y114370I984J0D01*
D02*
G37*
G36*
G01X45472Y48031D02*
G02X44488Y47047I-984J0D01*
G02X43504Y48031I0J984D01*
G02X44488Y49016I984J0D01*
G02X45472Y48031I0J-984D01*
D02*
G37*
G36*
G01X49409D02*
G02X48425Y47047I-984J0D01*
G02X47441Y48031I0J984D01*
G02X48425Y49016I984J0D01*
G02X49409Y48031I0J-984D01*
D02*
G37*
G36*
G01X45472Y132677D02*
G02X44488Y131693I-984J0D01*
G02X43504Y132677I0J984D01*
G02X44488Y133661I984J0D01*
G02X45472Y132677I0J-984D01*
D02*
G37*
G36*
G01X49409D02*
G02X48425Y131693I-984J0D01*
G02X47441Y132677I0J984D01*
G02X48425Y133661I984J0D01*
G02X49409Y132677I0J-984D01*
D02*
G37*
G36*
G01X58858Y28740D02*
G02X57874Y27756I-984J0D01*
G02X56890Y28740I0J984D01*
G02X57874Y29724I984J0D01*
G02X58858Y28740I0J-984D01*
D02*
G37*
G36*
G01X54921D02*
G02X53937Y27756I-984J0D01*
G02X52953Y28740I0J984D01*
G02X53937Y29724I984J0D01*
G02X54921Y28740I0J-984D01*
D02*
G37*
D14*
X65551Y97638D02*
X72047Y97339D01*
X64668Y97638D02*
X65551D01*
D20*
X45276Y12549D02*
D03*
X47639D02*
D03*
X50000D02*
D03*
X52363D02*
D03*
X54725D02*
D03*
X57087D02*
D03*
X19587Y31102D02*
D03*
X17028D02*
D03*
X14469D02*
D03*
X11909D02*
D03*
Y42913D02*
D03*
X14469D02*
D03*
X17028D02*
D03*
X19587D02*
D03*
Y118504D02*
D03*
X17028D02*
D03*
X14469D02*
D03*
X11909D02*
D03*
Y106693D02*
D03*
X14469D02*
D03*
X17028D02*
D03*
X19587D02*
D03*
Y127165D02*
D03*
X17028D02*
D03*
X14469D02*
D03*
X11909D02*
D03*
Y138976D02*
D03*
X14469D02*
D03*
X17028D02*
D03*
X19587D02*
D03*
X82776Y130315D02*
D03*
X85335D02*
D03*
X87894D02*
D03*
X90453D02*
D03*
Y118504D02*
D03*
X87894D02*
D03*
X85335D02*
D03*
X82776D02*
D03*
Y54724D02*
D03*
X85335D02*
D03*
X87894D02*
D03*
X90453D02*
D03*
Y42913D02*
D03*
X87894D02*
D03*
X85335D02*
D03*
X82776D02*
D03*
Y22441D02*
D03*
X85335D02*
D03*
X87894D02*
D03*
X90453D02*
D03*
Y34252D02*
D03*
X87894D02*
D03*
X85335D02*
D03*
X82776D02*
D03*
D21*
X60827Y7136D02*
D03*
X41536D02*
D03*
D26*
X15747Y34370D02*
D03*
Y109961D02*
D03*
Y130433D02*
D03*
X86615Y127047D02*
D03*
Y51456D02*
D03*
Y30984D02*
D03*
D27*
X15747Y38662D02*
D03*
Y114253D02*
D03*
Y134725D02*
D03*
X86615Y122755D02*
D03*
Y47164D02*
D03*
Y26692D02*
D03*
D31*
X45669Y76968D02*
D03*
X42520D02*
D03*
Y80118D02*
D03*
X45669D02*
D03*
D33*
X68307Y104331D02*
D03*
X75787D02*
D03*
X12008Y49213D02*
D03*
X19488D02*
D03*
Y25591D02*
D03*
X12008D02*
D03*
X90354Y112205D02*
D03*
X82874D02*
D03*
X90354Y135827D02*
D03*
X82874D02*
D03*
D72*
X63779Y56035D02*
G03*
X64009Y55479I787J0D01*
G01*
X63779Y77627D02*
G03*
X63550Y78182I-787J0D01*
G01*
X51739Y83694D02*
G03*
X52295Y83465I556J558D01*
G01*
X58497Y83235D02*
G03*
X57942Y83465I-556J-558D01*
G01*
X65946Y53543D02*
G03*
X66501Y53313I555J558D01*
G01*
X29787Y19685D02*
G03*
X30314Y19887I-0J787D01*
G01*
X58532Y135433D02*
G03*
X59088Y135663I0J787D01*
G01*
X63515Y139764D02*
G03*
X62959Y139534I0J-787D01*
G01*
X66345Y139560D02*
G03*
X65816Y139764I-529J-583D01*
G01*
X34252Y92058D02*
G03*
X34482Y91503I787J0D01*
G01*
X70404Y149954D02*
G03*
X69888Y150148I-517J-594D01*
G01*
X67009D02*
G03*
X66454Y149918I0J-787D01*
G01*
X51017Y134482D02*
G03*
X50787Y133926I558J-556D01*
G01*
X51345Y95833D02*
G03*
X51575Y96389I-558J556D01*
G01*
X48816Y89770D02*
G03*
X48675Y89959I-696J-369D01*
G01*
X50558Y96818D02*
G03*
X50787Y97373I-558J556D01*
G01*
X47474Y93734D02*
G03*
X47244Y93178I558J-556D01*
G01*
Y91717D02*
G03*
X47474Y91161I787J0D01*
G01*
X66911Y148868D02*
G03*
X66355Y148639I0J-787D01*
G01*
X50623Y95111D02*
G03*
X50394Y94556I558J-556D01*
G01*
X50164Y88011D02*
G03*
X50394Y88567I-557J556D01*
G01*
X51804Y134088D02*
G03*
X51575Y133532I558J-556D01*
G01*
X48961Y86808D02*
G03*
X48819Y86614I557J-557D01*
G01*
X57219Y61031D02*
G03*
X57072Y61235I-704J-352D01*
G01*
X56820Y24006D02*
G03*
X56693Y23577I660J-430D01*
G01*
X57485Y24996D02*
G03*
X57382Y24869I558J-556D01*
G01*
X44753Y135357D02*
X44752Y135358D01*
X45028Y30155D02*
G03*
X45588Y29921I559J554D01*
G01*
X40912Y112434D02*
G03*
X41468Y112205I556J558D01*
G01*
X57332Y131264D02*
G03*
X56774Y131496I-558J-556D01*
G01*
X40912Y27789D02*
G03*
X41468Y27559I556J558D01*
G01*
X70667Y27361D02*
G03*
X70669Y27362I-462J637D01*
G01*
X48026Y122279D02*
G03*
X47661Y122486I-557J-557D01*
G01*
X61451Y133628D02*
G03*
X60894Y133858I-557J-557D01*
G01*
X45028Y114800D02*
G03*
X45588Y114567I559J554D01*
G01*
X59221Y132315D02*
G03*
X59779Y132087I554J559D01*
G01*
X40833Y48920D02*
G03*
X40742Y48553I697J-367D01*
G01*
X44325Y54887D02*
G03*
X43768Y55118I-557J-557D01*
G01*
X40833Y133565D02*
G03*
X40742Y133199I697J-367D01*
G01*
X54338Y43073D02*
G03*
X54704Y42867I554J559D01*
G01*
X23622Y122244D02*
G03*
X23620Y122244I131J-777D01*
G01*
X48026Y120310D02*
G03*
X47661Y120517I-557J-557D01*
G01*
X23622Y40157D02*
G03*
X23620Y40159I-557J-557D01*
G01*
X30261Y75820D02*
G03*
X30816Y75590I556J558D01*
G01*
X48026Y33696D02*
G03*
X47661Y33903I-557J-557D01*
G01*
X54338Y125750D02*
G03*
X54701Y125546I554J559D01*
G01*
X54338Y41105D02*
G03*
X54704Y40900I554J559D01*
G01*
X54338Y127718D02*
G03*
X54701Y127514I554J559D01*
G01*
X57674Y45956D02*
G03*
X57444Y46507I-787J-6D01*
G01*
X48026Y37633D02*
G03*
X47661Y37840I-557J-557D01*
G01*
X54338Y39136D02*
G03*
X54704Y38930I554J559D01*
G01*
X48026Y35664D02*
G03*
X47661Y35871I-557J-557D01*
G01*
X54338Y123781D02*
G03*
X54701Y123577I554J559D01*
G01*
X41846Y29856D02*
G03*
X41856Y29849I372J459D01*
G01*
X46098Y58036D02*
G03*
X45540Y58268I-558J-556D01*
G01*
X24118Y132569D02*
G03*
X23919Y132231I557J-557D01*
G01*
X23445Y140276D02*
G03*
X23622Y140551I-560J554D01*
G01*
X43309Y137691D02*
G03*
X42857Y137468I104J-781D01*
G01*
X44094Y137795D02*
G03*
X44087Y137794I101J-781D01*
G01*
X8765Y73563D02*
G03*
X8464Y73503I0J-787D01*
G01*
X51575Y24164D02*
G03*
X51585Y24036I787J0D01*
G01*
X30315Y59972D02*
G03*
X30545Y59416I787J-0D01*
G01*
X49409Y54398D02*
G03*
X49179Y54955I-787J0D01*
G01*
X33555Y135591D02*
G03*
X32998Y135360I0J-787D01*
G01*
X42940Y131129D02*
G03*
X42710Y130573I558J-556D01*
G01*
X24118Y47924D02*
G03*
X23919Y47585I557J-557D01*
G01*
X78245Y28849D02*
G03*
X78443Y29184I-558J556D01*
G01*
X73751Y33950D02*
G03*
X73852Y33957I-4J787D01*
G01*
X31463Y58497D02*
G03*
X32019Y58268I556J558D01*
G01*
X49409Y52491D02*
G03*
X49637Y51937I787J0D01*
G01*
X51575Y49674D02*
G03*
X51344Y50231I-787J-0D01*
G01*
X34286Y85399D02*
G03*
X33729Y85630I-557J-557D01*
G01*
X37795Y81564D02*
G03*
X37565Y82120I-787J-0D01*
G01*
X70270Y40844D02*
G03*
X70866Y41608I-191J764D01*
G01*
X56812Y108612D02*
G03*
X56693Y108195I668J-417D01*
G01*
X78917Y21141D02*
G03*
X78740Y20866I559J-554D01*
G01*
X59422Y114934D02*
G03*
X59652Y115490I-558J556D01*
G01*
X68551Y25827D02*
G03*
X68553Y25828I-460J639D01*
G01*
X37795Y79066D02*
G03*
X38025Y78510I787J0D01*
G01*
X27325Y85864D02*
G03*
X27889Y85630I560J553D01*
G01*
X44688Y115460D02*
G03*
X44918Y114911I787J7D01*
G01*
X57453Y31469D02*
G03*
X57683Y32025I-558J556D01*
G01*
X57485Y109642D02*
G03*
X57384Y109518I558J-556D01*
G01*
X33811Y25760D02*
G03*
X33683Y25929I-686J-386D01*
G01*
X57331Y46620D02*
G03*
X56774Y46850I-557J-557D01*
G01*
X67461Y108519D02*
G03*
X67819Y108332I531J581D01*
G01*
X77235Y38839D02*
G03*
X77468Y38280I787J0D01*
G01*
X61529Y112498D02*
G03*
X61620Y112864I-697J367D01*
G01*
X56924Y61383D02*
G03*
X56367Y61614I-557J-557D01*
G01*
X66361Y4761D02*
G03*
X66922Y4528I560J553D01*
G01*
X50615Y66315D02*
G03*
X50394Y65768I566J-547D01*
G01*
X33493Y4528D02*
G03*
X34039Y4748I0J787D01*
G01*
X28616Y42822D02*
G03*
X28510Y42815I0J-787D01*
G01*
X20176Y73563D02*
G03*
X20470Y73621I-4J787D01*
G01*
X57674Y130602D02*
G03*
X57444Y131152I-787J-6D01*
G01*
X25791Y5962D02*
G03*
X25605Y6100I-557J-557D01*
G01*
X25127Y122578D02*
G03*
X24896Y123135I-787J0D01*
G01*
X22441Y74736D02*
G03*
X22672Y74179I787J0D01*
G01*
X61170Y131060D02*
G03*
X61169Y131061I-557J-557D01*
G01*
X44848Y135250D02*
G03*
X44774Y135336I-631J-471D01*
G01*
X33809Y110410D02*
G03*
X33682Y110576I-684J-390D01*
G01*
X28740Y60433D02*
G03*
X28970Y59877I787J-0D01*
G01*
X16097Y94927D02*
G03*
X15540Y95157I-557J-557D01*
G01*
X39069Y114604D02*
G03*
X39298Y114048I787J0D01*
G01*
X31137Y57710D02*
G03*
X31693Y57480I556J557D01*
G01*
X34908Y52892D02*
G03*
X34565Y53074I-529J-583D01*
G01*
X60056Y26929D02*
G03*
X59552Y26746I0J-787D01*
G01*
X23568Y73283D02*
G03*
X24123Y73053I556J558D01*
G01*
X43548Y113177D02*
G03*
X43502Y113215I-832J-972D01*
G01*
X56693Y105641D02*
G03*
X56924Y105084I787J0D01*
G01*
X63053Y131869D02*
G03*
X62846Y132233I-763J-193D01*
G01*
X57453Y116115D02*
G03*
X57683Y116671I-558J556D01*
G01*
X78542Y114169D02*
G03*
X78543Y114173I-755J225D01*
G01*
X79373Y39302D02*
G03*
X79773Y39517I-157J772D01*
G01*
X25127Y122016D02*
G03*
X25331Y121487I787J0D01*
G01*
X33811Y110406D02*
G03*
X33677Y110581I-686J-386D01*
G01*
X26991Y4761D02*
G03*
X27551Y4528I560J553D01*
G01*
X46225Y134147D02*
G03*
X46454Y134056I401J678D01*
G01*
X19247Y81934D02*
G03*
X18690Y82165I-557J-557D01*
G01*
X48622Y52165D02*
G03*
X48850Y51611I787J0D01*
G01*
X44909Y45303D02*
G03*
X44679Y44747I558J-556D01*
G01*
X25374Y36672D02*
G03*
X24829Y36891I-544J-569D01*
G01*
X60374Y131856D02*
G03*
X59819Y132087I-557J-557D01*
G01*
X45374Y52601D02*
G03*
X45472Y52983I-689J382D01*
G01*
X50787Y49348D02*
G03*
X50557Y49905I-787J-0D01*
G01*
X18460Y90596D02*
G03*
X17903Y90826I-557J-557D01*
G01*
X47959Y48031D02*
G03*
X47458Y47851I0J-787D01*
G01*
X61529Y27852D02*
G03*
X61620Y28219I-697J367D01*
G01*
X48622Y54072D02*
G03*
X48391Y54629I-787J0D01*
G01*
X58988Y108392D02*
G03*
X59383Y108585I-134J776D01*
G01*
X45771Y57250D02*
G03*
X45214Y57480I-557J-557D01*
G01*
X43441Y53063D02*
G03*
X43017Y52866I103J-781D01*
G01*
X44094Y53150D02*
G03*
X44092Y53149I101J-781D01*
G01*
X22441Y82548D02*
G03*
X22210Y83105I-787J-0D01*
G01*
X50779Y24160D02*
G03*
X50787Y24275I-779J115D01*
G01*
X56170Y53347D02*
G03*
X56726Y53576I0J787D01*
G01*
X44886Y51784D02*
G03*
X45017Y51958I-558J556D01*
G01*
X78245Y113495D02*
G03*
X78443Y113829I-558J556D01*
G01*
X72863Y4528D02*
G03*
X73409Y4748I0J787D01*
G01*
X50394Y58791D02*
G03*
X50623Y58235I787J-0D01*
G01*
X52133Y56726D02*
G03*
X52688Y56496I556J558D01*
G01*
X21819Y138976D02*
G03*
X22375Y139206I0J787D01*
G01*
X78785Y121215D02*
G03*
X79343Y120983I558J556D01*
G01*
X23042Y122146D02*
G03*
X22617Y121928I131J-777D01*
G01*
X31529Y123605D02*
G03*
X31367Y123622I-162J-771D01*
G01*
X56693Y23358D02*
G03*
X56923Y22802I787J0D01*
G01*
X20029Y68945D02*
G03*
X19474Y69173I-555J-559D01*
G01*
X54407Y28740D02*
G03*
X54904Y28920I-4J787D01*
G01*
X30764Y125001D02*
G03*
X30209Y124771I0J-787D01*
G01*
X70270Y125489D02*
G03*
X70866Y126253I-191J764D01*
G01*
X61451Y48982D02*
G03*
X60894Y49213I-557J-557D01*
G01*
X45157Y134836D02*
G03*
X45328Y134682I473J353D01*
G01*
X45472Y53414D02*
G03*
X45242Y53971I-787J0D01*
G01*
X39069Y29958D02*
G03*
X39298Y29403I787J0D01*
G01*
X73751Y118595D02*
G03*
X73852Y118602I-4J787D01*
G01*
X18847Y64842D02*
G03*
X19402Y65072I0J787D01*
G01*
X59578Y56102D02*
G03*
X59022Y55872I0J-787D01*
G01*
X59422Y30288D02*
G03*
X59652Y30844I-558J556D01*
G01*
X77235Y39401D02*
G03*
X77031Y39930I-787J0D01*
G01*
X76378Y23622D02*
G03*
X76745Y23830I-189J764D01*
G01*
X31527Y38960D02*
G03*
X31367Y38976I-160J-771D01*
G01*
X60056Y111575D02*
G03*
X59552Y111392I0J-787D01*
G01*
X44688Y30814D02*
G03*
X44918Y30265I787J7D01*
G01*
X26206Y35876D02*
G03*
X26207Y35875I544J569D01*
G01*
X58988Y23746D02*
G03*
X59383Y23939I-134J776D01*
G01*
X31496Y28442D02*
G03*
X31727Y27886I787J0D01*
G01*
X43548Y28531D02*
G03*
X43502Y28569I-832J-972D01*
G01*
X57234Y109287D02*
G03*
X57226Y109274I660J-430D01*
G01*
X54690Y61846D02*
G03*
X55247Y61614I558J556D01*
G01*
X59219Y47671D02*
G03*
X59775Y47441I556J558D01*
G01*
X70866Y48331D02*
G03*
X70641Y48883I-787J-0D01*
G01*
X80543Y22441D02*
G03*
X79986Y22210I0J-787D01*
G01*
X44909Y129948D02*
G03*
X44679Y129393I558J-556D01*
G01*
X23576Y40203D02*
G03*
X23019Y40434I-557J-557D01*
G01*
X41846Y114502D02*
G03*
X41856Y114495I372J459D01*
G01*
X32092Y35928D02*
G03*
X31496Y35164I191J-764D01*
G01*
X28616Y127468D02*
G03*
X28510Y127461I0J-787D01*
G01*
X48005Y118351D02*
G03*
X47645Y118553I-552J-562D01*
G01*
X71598Y121062D02*
G03*
X72154Y121292I0J787D01*
G01*
X54407Y113386D02*
G03*
X54904Y113565I-4J787D01*
G01*
X76989Y124744D02*
G03*
X77533Y124527I544J570D01*
G01*
X42940Y46483D02*
G03*
X42710Y45927I558J-556D01*
G01*
X65161Y5962D02*
G03*
X64975Y6100I-557J-557D01*
G01*
X24214Y136497D02*
G03*
X24735Y136694I0J787D01*
G01*
X30764Y40355D02*
G03*
X30209Y40125I0J-787D01*
G01*
X60374Y47210D02*
G03*
X59817Y47441I-557J-557D01*
G01*
X70866Y132977D02*
G03*
X70641Y133528I-787J-0D01*
G01*
X78162Y24920D02*
G03*
X77606Y24691I0J-787D01*
G01*
X63053Y47221D02*
G03*
X62846Y47587I-764J-191D01*
G01*
X71598Y36417D02*
G03*
X72154Y36646I0J787D01*
G01*
X52295Y83465D02*
X57942D01*
X58497Y83235D02*
X63550Y78182D01*
X50394Y85039D02*
X51739Y83694D01*
X64009Y55479D02*
X65946Y53542D01*
X66501Y53313D02*
X68110D01*
X63779Y56035D02*
Y77627D01*
X59842Y54528D02*
X60910D01*
X30314Y19887D02*
X33811Y23059D01*
X29787Y19685D02*
X29787D01*
X28543D02*
X29787D01*
X55709Y135433D02*
X58532D01*
X59088Y135663D02*
X62959Y139534D01*
X63515Y139764D02*
X65816D01*
X34482Y91503D02*
X39370Y86614D01*
X34252Y92058D02*
Y108104D01*
X50787Y97373D02*
Y133926D01*
X67009Y150148D02*
X69888D01*
X48816Y89770D02*
X48819Y89764D01*
X66911Y148868D02*
X69291D01*
X51804Y134088D02*
X66355Y148639D01*
X51017Y134482D02*
X66454Y149918D01*
X51575Y96389D02*
Y133532D01*
X70404Y149954D02*
X71653Y148868D01*
X47474Y93734D02*
X50558Y96818D01*
X47244Y91717D02*
Y93178D01*
X47474Y91161D02*
X48675Y89959D01*
X50623Y95111D02*
X51345Y95833D01*
X50394Y88567D02*
Y94556D01*
X48961Y86808D02*
X50164Y88011D01*
X54134Y13139D02*
Y20500D01*
Y13139D02*
X54725Y12549D01*
X52165Y12746D02*
X52363Y12549D01*
X52165Y12746D02*
Y20500D01*
X50000Y12549D02*
X50197Y12746D01*
Y20500D01*
X47639Y12549D02*
X48228Y13138D01*
Y20500D01*
X20472Y92716D02*
X27325Y85864D01*
X27326Y85863D01*
X30315Y59972D02*
Y64567D01*
Y59972D02*
Y59972D01*
X28740Y60433D02*
Y64567D01*
Y60433D02*
Y60433D01*
X53937Y113386D02*
X54407D01*
X34252Y134088D02*
X36614D01*
X59779Y132087D02*
X59819Y132087D01*
X54904Y28920D02*
X54905Y28920D01*
X30906Y38976D02*
X31367Y38976D01*
X55437Y53347D02*
X56170D01*
X60910Y54528D02*
X61698Y54528D01*
X20472Y84842D02*
X22210Y83105D01*
X60910Y56102D02*
X61698Y56496D01*
X22441Y82548D02*
X22441Y74736D01*
X24123Y73053D02*
X29528D01*
X22672Y74179D02*
X23568Y73283D01*
X56726Y53576D02*
X59022Y55872D01*
X72154Y36646D02*
X73452Y37945D01*
X73852Y38386D02*
Y44291D01*
X68313Y36417D02*
X71598D01*
X73452Y37945D02*
X73852Y38386D01*
X65748Y22244D02*
Y25427D01*
X36614Y135990D02*
Y139173D01*
X61620Y112864D02*
Y118307D01*
Y28219D02*
Y33662D01*
X46659Y120767D02*
X47661Y120517D01*
X56693Y105641D02*
Y108195D01*
X56812Y108612D02*
X57226Y109274D01*
X43667Y50740D02*
X44196Y51181D01*
X81890Y47244D02*
X86615Y47164D01*
X32019Y58268D02*
X45540D01*
X45771Y57250D02*
X48391Y54629D01*
X50638Y23201D02*
X50779Y24160D01*
X49409Y52491D02*
Y54398D01*
X51575Y49674D02*
X51575Y24164D01*
X50787Y49348D02*
X50787Y24275D01*
X30545Y59416D02*
X31463Y58497D01*
X51585Y24036D02*
X51724Y23201D01*
X41380Y135990D02*
X42857Y137468D01*
X24735Y136694D02*
X25984Y137795D01*
X15747Y134725D02*
X20472Y136497D01*
X8464Y90826D02*
X17903D01*
X8464Y69173D02*
X19474D01*
X54704Y38930D02*
X55703Y38681D01*
X53120Y42323D02*
X54338Y41105D01*
X59652Y115490D02*
Y118307D01*
X57874Y113386D02*
X59422Y114934D01*
X59383Y108585D02*
X60583Y109673D01*
X58268Y108268D02*
X58988Y108392D01*
X60583Y26929D02*
X61024Y27329D01*
X45472Y52983D02*
Y53414D01*
X59578Y56102D02*
X60910D01*
X48005Y118351D02*
X49246Y117130D01*
X45478Y119095D02*
X46659Y118799D01*
X42940Y46483D02*
X44488Y48031D01*
X41780Y51745D02*
X43017Y52866D01*
X41339Y51345D02*
X41780Y51745D01*
X44196Y135827D02*
X44724Y135386D01*
X56923Y22802D02*
X58071Y21654D01*
X46454Y134056D02*
X46457Y134055D01*
X56820Y24006D02*
X57382Y24869D01*
X56924Y105084D02*
X59646Y102362D01*
X49637Y51937D02*
X51344Y50231D01*
X60056Y111575D02*
X60583D01*
X58695Y110677D02*
X59552Y111392D01*
X40898Y133688D02*
X41339Y134088D01*
X61024Y111975D02*
X61465Y112374D01*
X61024Y27329D02*
X61465Y27729D01*
X57638Y25150D02*
X58167Y25591D01*
X40742Y43110D02*
Y48553D01*
X57234Y109287D02*
X57384Y109518D01*
X44724Y135386D02*
X44752Y135358D01*
X41339Y134088D02*
X41780Y134488D01*
X43667Y135386D01*
X40833Y48920D02*
X40898Y49043D01*
X20029Y68945D02*
X20472Y68504D01*
X8464Y64842D02*
X18847D01*
X8765Y73563D02*
X20176D01*
X33811Y23059D02*
X34252Y23458D01*
X41038Y115158D02*
X41846Y114502D01*
X67669Y138359D02*
X68110Y137959D01*
X66345Y139560D02*
X67669Y138359D01*
X8464Y82165D02*
X18690D01*
X19247Y81934D02*
X20472Y80709D01*
X77468Y38280D02*
X78740Y37008D01*
X77235Y38839D02*
Y39401D01*
X76154Y40898D02*
X77031Y39930D01*
X79773Y39517D02*
X82185Y41929D01*
X82776Y42913D01*
X25791Y5962D02*
X26991Y4761D01*
X27551Y4528D02*
X33493D01*
X34039Y4748D02*
X35441Y6103D01*
X25599D02*
X25605Y6100D01*
X73409Y4748D02*
X74811Y6103D01*
X66922Y4528D02*
X72863D01*
X65161Y5962D02*
X66361Y4761D01*
X64969Y6103D02*
X64975Y6100D01*
X29528Y76553D02*
X30261Y75820D01*
X30816Y75590D02*
X37795D01*
X37795Y81564D02*
X37795Y79066D01*
X34286Y85399D02*
X37565Y82120D01*
X38025Y78510D02*
X39370Y77165D01*
X27889Y85630D02*
X33729Y85630D01*
X55247Y61614D02*
X56367Y61614D01*
X57874Y59721D02*
X58268Y58934D01*
X57219Y61031D02*
X57874Y59721D01*
X56924Y61383D02*
X57072Y61235D01*
X51968Y64567D02*
X54690Y61846D01*
X54050Y56496D02*
X54838Y56496D01*
X50394Y58791D02*
Y65768D01*
X52688Y56496D02*
X54050D01*
X50623Y58235D02*
X52132Y56726D01*
X50615Y66315D02*
X51968Y67716D01*
X57331Y46620D02*
X57444Y46507D01*
X54704Y42867D02*
X55703Y42618D01*
X38773Y31693D02*
X39069Y30512D01*
X53120Y44291D02*
X54338Y43073D01*
X55703Y42618D02*
X56884Y42323D01*
X55703Y40650D02*
X56884Y40355D01*
X54704Y40900D02*
X55703Y40650D01*
Y38681D02*
X56884Y38386D01*
X53120Y40354D02*
X54338Y39136D01*
X43441Y53063D02*
X44092Y53149D01*
X31527Y38960D02*
X32868Y38681D01*
X28970Y59877D02*
X31137Y57710D01*
X31693Y57480D02*
X45214D01*
X48850Y51611D02*
X50557Y49904D01*
X48622Y52165D02*
Y54072D01*
X50197Y22801D02*
X50638Y23201D01*
X51724D02*
X52165Y22801D01*
X46098Y58036D02*
X49179Y54955D01*
X54134Y20899D02*
X54134Y20500D01*
X52165D02*
X52165Y20899D01*
X50197D02*
X50197Y20500D01*
X48228D02*
X48228Y20899D01*
X19402Y65072D02*
X20472Y66142D01*
X20470Y73621D02*
X20472Y73622D01*
X18460Y90596D02*
X20472Y88583D01*
X16097Y94927D02*
X20472Y90551D01*
X8464Y95157D02*
X15540D01*
X19587Y138976D02*
X21819D01*
X23622Y140551D02*
X23622Y140551D01*
X20177Y106299D02*
X23622D01*
X19587Y106693D02*
X20177Y106299D01*
X45588Y114567D02*
X46654D01*
X48026Y122279D02*
X49242Y121063D01*
X54701Y127514D02*
X55703Y127263D01*
X57674Y130602D02*
X57677Y130224D01*
X57332Y131264D02*
X57444Y131152D01*
X57677Y130224D02*
X57683Y129436D01*
X55709Y131496D02*
X56774Y131496D01*
X57677Y133858D02*
X59221Y132315D01*
X61325Y130905D02*
X61620Y129724D01*
X61170Y131060D02*
X61325Y130905D01*
X60374Y131856D02*
X61169Y131061D01*
X61451Y133628D02*
X62846Y132233D01*
X25951Y49756D02*
X26479Y50197D01*
X24118Y47924D02*
X25951Y49756D01*
Y134402D02*
X26479Y134843D01*
X24118Y132569D02*
X25951Y134402D01*
X23819Y47244D02*
X23919Y47585D01*
X75883Y26575D02*
X76411Y27016D01*
X23819Y131890D02*
X23919Y132231D01*
X78443Y29184D02*
X78543Y29528D01*
X78443Y113829D02*
X78542Y114169D01*
X76411Y27016D02*
X78245Y28849D01*
X75971Y111221D02*
X78245Y113495D01*
X26608Y123031D02*
Y125984D01*
X44909Y129948D02*
X47638Y132677D01*
X48425D01*
X44679Y127468D02*
Y129393D01*
X32868Y120767D02*
X33754D01*
X31496Y112762D02*
Y120191D01*
X32073Y120767D02*
X32868D01*
X31496Y120191D02*
X32073Y120767D01*
X33809Y110410D02*
X33811Y110406D01*
X31496Y112762D02*
X33682Y110576D01*
X32868Y120767D02*
X34049Y121063D01*
X31496Y112762D02*
Y120191D01*
Y112762D02*
X33677Y110581D01*
X31496Y120191D02*
X32073Y120767D01*
X36614Y134088D02*
X36805Y133688D01*
Y127756D02*
Y133688D01*
X36614Y134088D02*
X38976D01*
X28616Y127468D02*
X34836D01*
X28510Y125984D02*
Y131890D01*
Y123031D02*
X28910Y123472D01*
X30209Y124771D01*
X43667Y135386D02*
X44196Y135827D01*
X61465Y112374D02*
X61529Y112498D01*
X42323Y55118D02*
X43768D01*
X45017Y51958D02*
X45374Y52601D01*
X41339Y49443D02*
X41780Y49843D01*
X28510Y117126D02*
Y123031D01*
X30764Y125001D02*
X34049D01*
X46659Y118799D02*
X47645Y118553D01*
X48026Y120310D02*
X49242Y119094D01*
X45478Y121063D02*
X46659Y120767D01*
Y122736D02*
X47661Y122486D01*
X45478Y123032D02*
X46659Y122736D01*
X44679Y116627D02*
X44685Y115839D01*
X44917Y114911D02*
X45028Y114800D01*
X44685Y115839D02*
X44688Y115460D01*
X20472Y136497D02*
X24214D01*
X33811Y135591D02*
X34252Y135990D01*
X33555Y135591D02*
X33811D01*
X31693Y134055D02*
X32998Y135360D01*
X40742Y116339D02*
X41038Y115158D01*
X43548Y113177D02*
X44685Y112205D01*
X41856Y114495D02*
X43502Y113215D01*
X41468Y112205D02*
X42717D01*
X38773Y116339D02*
X39069Y115158D01*
Y114604D02*
Y115158D01*
X39298Y114048D02*
X40912Y112434D01*
X43309Y137691D02*
X44087Y137794D01*
X42940Y131129D02*
X44488Y132677D01*
X42710Y127756D02*
Y130573D01*
X32868Y123327D02*
X34049Y123032D01*
X20177Y126575D02*
X23622D01*
X19587Y127165D02*
X20177Y126575D01*
X15747Y114253D02*
X20472Y114173D01*
X25984D01*
X23622Y124409D02*
X24896Y123135D01*
X25127Y122016D02*
Y122578D01*
X25331Y121487D02*
X26208Y120520D01*
X26608Y120079D01*
X23042Y122146D02*
X23620Y122244D01*
X31529Y123605D02*
X32868Y123327D01*
X30906Y123622D02*
X31367Y123622D01*
X22375Y139206D02*
X23445Y140276D01*
X19587Y118898D02*
X22617Y121928D01*
X78740Y55118D02*
X82185D01*
X82776Y54724D01*
X78917Y21141D02*
X79986Y22210D01*
X80543Y22441D02*
X82776D01*
X69494Y38090D02*
X71457Y37795D01*
X68313Y38386D02*
X69494Y38090D01*
X78740Y39173D02*
X79373Y39302D01*
X75754Y41339D02*
X76154Y40898D01*
X76378Y47244D02*
X81890D01*
X75754Y35433D02*
Y38386D01*
X82185Y34843D02*
X82776Y34252D01*
X78740Y34843D02*
X82185D01*
X68110Y25427D02*
X68551Y25827D01*
X68553Y25828D02*
X70667Y27361D01*
X59652Y30844D02*
Y33662D01*
X60583Y25027D02*
X61024Y25427D01*
X58695Y26032D02*
X59552Y26746D01*
X44325Y54887D02*
X45242Y53971D01*
X44196Y51181D02*
X44724Y51622D01*
X57485Y24996D02*
X57638Y25150D01*
Y109795D02*
X58167Y110236D01*
X40898Y49043D02*
X41339Y49443D01*
X58268Y23622D02*
X58988Y23746D01*
X59383Y23939D02*
X60583Y25027D01*
X57874Y28740D02*
X59422Y30288D01*
X57683Y32025D02*
Y33950D01*
X53937Y28740D02*
X54407D01*
X54905Y28920D02*
X57453Y31469D01*
X63053Y47221D02*
X63294Y46260D01*
X63589Y45079D01*
X59646Y49213D02*
X60894D01*
X61451Y48982D02*
X62846Y47587D01*
X57677Y49213D02*
X59219Y47671D01*
X61325Y46260D02*
X61620Y45079D01*
X60374Y47210D02*
X61325Y46260D01*
X59775Y47441D02*
X59817Y47441D01*
X55709Y46850D02*
X56774Y46850D01*
X57674Y45956D02*
X57677Y45578D01*
X57683Y44791D01*
X68551Y51011D02*
X70641Y48883D01*
X68313Y40355D02*
X69494Y40650D01*
X70866Y48331D02*
X70866Y41608D01*
X68110Y51411D02*
X68551Y51011D01*
X69494Y40650D02*
X70270Y40844D01*
X73852Y33957D02*
Y35433D01*
X67526Y33950D02*
X73751D01*
X73852Y33957D02*
X73852Y33957D01*
Y29528D02*
Y33957D01*
X65557Y27729D02*
X65748Y27329D01*
X65557Y27729D02*
Y33662D01*
X65748Y27329D02*
X68110D01*
X63386D02*
X65748D01*
X67819Y108332D02*
X68110Y108268D01*
X65748Y110073D02*
X66189Y109673D01*
X75754Y125984D02*
X76154Y125543D01*
X72154Y121292D02*
X73452Y122590D01*
X78740Y121260D02*
X78785Y121215D01*
X65748Y111975D02*
X68110D01*
X63386D02*
X65748D01*
X65557Y112374D02*
X65748Y111975D01*
X65557Y112374D02*
Y118307D01*
X75754Y120079D02*
Y123031D01*
X68551Y135657D02*
X70641Y133528D01*
X68110Y136057D02*
X68551Y135657D01*
X70866Y132977D02*
X70866Y126253D01*
X69494Y125295D02*
X70270Y125489D01*
X68313Y125000D02*
X69494Y125295D01*
X84106Y120983D02*
X84380Y120983D01*
X79343Y120983D02*
X84106D01*
X84380Y120983D02*
X86615Y122755D01*
X77533Y124527D02*
X81890D01*
X73852Y114173D02*
Y118602D01*
X73852Y118602D02*
X73852Y118602D01*
Y120079D01*
X67526Y118595D02*
X73751D01*
X61465Y27729D02*
X61529Y27852D01*
X45328Y134682D02*
X46225Y134147D01*
X58167Y25591D02*
X58695Y26032D01*
X60583Y109673D02*
X61024Y110073D01*
X54905Y113566D02*
X57453Y116115D01*
X57683Y116671D02*
Y118595D01*
X54904Y113565D02*
X54905Y113566D01*
X73452Y122590D02*
X73852Y123031D01*
X68313Y121062D02*
X71598D01*
X73852Y123031D02*
Y128937D01*
X63294Y130905D02*
X63589Y129724D01*
X59646Y133858D02*
X60894D01*
X63053Y131869D02*
X63294Y130905D01*
X53120Y125000D02*
X54338Y123781D01*
X55703Y123327D02*
X56884Y123031D01*
X54701Y123577D02*
X55703Y123327D01*
X54701Y125546D02*
X55703Y125295D01*
X56884Y125000D01*
X53120Y126969D02*
X54338Y125750D01*
X55703Y127263D02*
X56884Y126968D01*
X53120Y128937D02*
X54338Y127718D01*
X44848Y135250D02*
X45157Y134836D01*
X56693Y23358D02*
Y23577D01*
X44753Y135357D02*
X44774Y135336D01*
X60056Y26929D02*
X60583D01*
X76154Y125543D02*
X76989Y124744D01*
X81890Y124527D02*
X86615Y122755D01*
X82185Y119291D02*
X82776Y118504D01*
X78740Y119291D02*
X82185D01*
Y130905D02*
X82776Y130315D01*
X78740Y130905D02*
X82185D01*
X68313Y123031D02*
X69494Y122736D01*
X66189Y109673D02*
X67461Y108519D01*
X69494Y122736D02*
X71457Y122441D01*
X68110Y110073D02*
X68551Y110039D01*
X70079D01*
X32283Y51378D02*
X33811D01*
X34252Y51345D01*
X19587Y31102D02*
X20177Y30512D01*
X23622D01*
X19587Y42913D02*
X20177Y42126D01*
X23622D01*
X15747Y38662D02*
X20472Y36891D01*
X25374Y36672D02*
X26206Y35876D01*
X20472Y36891D02*
X24829D01*
X41780Y49843D02*
X43667Y50740D01*
X60583Y111575D02*
X61024Y111975D01*
X44724Y51622D02*
X44886Y51784D01*
X40742Y127756D02*
Y133199D01*
X45478Y34449D02*
X46659Y34154D01*
X48026Y33696D02*
X49242Y32481D01*
X46659Y34154D02*
X47661Y33903D01*
X45478Y36417D02*
X46659Y36122D01*
X47661Y35871D01*
X48026Y35664D02*
X49242Y34449D01*
X48026Y37633D02*
X49242Y36418D01*
X45478Y38386D02*
X46659Y38091D01*
X47661Y37840D01*
X44679Y31981D02*
X44685Y31194D01*
X44918Y30265D02*
X45028Y30155D01*
X45588Y29921D02*
X46654D01*
X44685Y31194D02*
X44688Y30814D01*
X41856Y29849D02*
X43502Y28569D01*
X43548Y28531D02*
X44685Y27559D01*
X41038Y30512D02*
X41846Y29856D01*
X40742Y31693D02*
X41038Y30512D01*
X41468Y27559D02*
X42717D01*
X39069Y29958D02*
Y30512D01*
X39298Y29403D02*
X40912Y27789D01*
X34908Y52892D02*
X36173Y51745D01*
X30764Y40355D02*
X34049D01*
X28510Y32480D02*
Y38386D01*
X28910Y38827D02*
X30209Y40125D01*
X28510Y38386D02*
X28910Y38827D01*
X36173Y51745D02*
X36614Y51345D01*
X32868Y38681D02*
X34049Y38386D01*
X34252Y53150D02*
X34565Y53074D01*
X44679Y42822D02*
Y44747D01*
X44909Y45303D02*
X47458Y47851D01*
X47959Y48031D02*
X48425D01*
X42710Y43110D02*
Y45927D01*
X40833Y133565D02*
X40898Y133688D01*
X57485Y109642D02*
X57638Y109795D01*
X58167Y110236D02*
X58695Y110677D01*
X28510Y41339D02*
Y47244D01*
X28616Y42822D02*
X34836D01*
X26207Y35875D02*
X26208Y35874D01*
X23576Y40203D02*
X23620Y40159D01*
X33811Y25760D02*
X34252Y25361D01*
X31727Y27886D02*
X33683Y25929D01*
X32092Y35928D02*
X32868Y36122D01*
X31496Y28442D02*
Y35164D01*
X32868Y36122D02*
X34049Y36417D01*
X26608Y38386D02*
Y41339D01*
X36805Y43110D02*
Y49043D01*
X36614Y49443D02*
X36805Y49043D01*
X36614Y49443D02*
X38976D01*
X34252D02*
X36614D01*
X26208Y35874D02*
X26608Y35433D01*
X20472Y40434D02*
X23019D01*
X15747Y38662D02*
X20472Y40434D01*
X70669Y27362D02*
X70669Y27362D01*
X81890Y24920D02*
X86615Y26692D01*
X78162Y24920D02*
X81890D01*
X76745Y23830D02*
X77606Y24691D01*
D73*
X55608Y152065D02*
G03*
X56181Y153453I-1396J1388D01*
G01*
X47641Y151575D02*
G03*
X46253Y151002I0J-1969D01*
G01*
X43304Y148868D02*
G03*
X44692Y149441I0J1969D01*
G01*
X56055Y50757D02*
G03*
X56201Y51496I-1822J745D01*
G01*
X56181Y153453D02*
Y173228D01*
X55118Y151575D02*
X55608Y152065D01*
X35827Y148868D02*
X43304D01*
X47641Y151575D02*
X55118D01*
X44692Y149441D02*
X46253Y151002D01*
X36211Y10827D02*
X37933Y12549D01*
X45276D01*
X36113Y10827D02*
X36211D01*
X55644Y49752D02*
X56055Y50757D01*
X54921Y53347D02*
Y54429D01*
X54346Y54477D02*
X54838Y54528D01*
X56201Y51598D02*
X56300Y52090D01*
X54921Y53347D02*
X55437D01*
X52508Y54477D02*
X54346D01*
X52362Y54426D02*
X52508Y54477D01*
X56201Y51496D02*
Y51598D01*
X55437Y53347D02*
X56201Y52582D01*
X54838Y54528D02*
X54921Y54429D01*
X55411Y49606D02*
X55644Y49752D01*
X56201Y52582D02*
X56300Y52090D01*
X39370Y80315D02*
X42224D01*
X42520Y80118D01*
D74*
X9234Y114253D02*
G03*
X6543Y113779I0J-7874D01*
G01*
X93485Y47164D02*
G03*
X97309Y48155I0J7874D01*
G01*
X8211Y38662D02*
G03*
X7465Y38627I0J-7874D01*
G01*
X94903Y122755D02*
G03*
X95976Y122828I0J7874D01*
G01*
X95658Y26678D02*
G03*
X95190Y26692I-468J-7860D01*
G01*
X7640Y134732D02*
G03*
X7953Y134725I314J7868D01*
G01*
X3937Y135827D02*
X4921Y134843D01*
X87402Y88976D02*
Y92520D01*
X83465Y92716D02*
X89022D01*
X86221Y87795D02*
Y90158D01*
X89022Y92716D02*
X89764Y92520D01*
Y84449D02*
Y92520D01*
X86221Y91339D02*
Y92520D01*
Y85433D02*
Y86614D01*
X83465Y84449D02*
X89764D01*
X83465Y61221D02*
X89764D01*
X87402Y85433D02*
Y87795D01*
X83465Y84449D02*
Y92716D01*
X7953Y134725D02*
X15747D01*
X4921Y134843D02*
X7640Y134732D01*
X4921Y113189D02*
X6543Y113779D01*
X9234Y114253D02*
X15747D01*
X3937Y112205D02*
X4921Y113189D01*
X86615Y47164D02*
X93485D01*
X97441Y26575D02*
X99213Y25591D01*
X86615Y26692D02*
X95190Y26692D01*
X86615Y122755D02*
X94903D01*
X95976Y122828D02*
X97441Y123031D01*
X86615Y122755D02*
X86615Y122755D01*
X97441Y123031D02*
X99213Y124016D01*
X3937Y37402D02*
X4921Y38386D01*
X7465Y38627D01*
X8211Y38662D02*
X15747D01*
X86615Y47164D02*
X86615Y47164D01*
X97309Y48155D02*
X97441Y48228D01*
X99213Y49213D01*
X95658Y26678D02*
X97441Y26575D01*
D76*
X93307Y54132D02*
D03*
Y55313D02*
D03*
X94488Y54132D02*
D03*
Y55313D02*
D03*
X95669Y54132D02*
D03*
Y55313D02*
D03*
X96850Y54132D02*
D03*
Y55313D02*
D03*
X98032Y54132D02*
D03*
Y55313D02*
D03*
X62008Y52968D02*
D03*
X63976D02*
D03*
X53543Y85039D02*
D03*
X61316Y62205D02*
D03*
X59842Y54528D02*
D03*
X28740Y94095D02*
D03*
X35827Y100984D02*
D03*
X39370Y86614D02*
D03*
X42913Y5810D02*
D03*
X23622Y152953D02*
D03*
X24803D02*
D03*
X22441D02*
D03*
X78740D02*
D03*
X79921D02*
D03*
X77559D02*
D03*
X78740Y145472D02*
D03*
X79921D02*
D03*
X77559D02*
D03*
X23622D02*
D03*
X24803D02*
D03*
X22441D02*
D03*
X71653Y148868D02*
D03*
X69291D02*
D03*
X74016D02*
D03*
X55118Y151575D02*
D03*
X50393Y148868D02*
D03*
X52755D02*
D03*
X35827D02*
D03*
X28741D02*
D03*
X26378D02*
D03*
X33465D02*
D03*
X31102D02*
D03*
X71063Y10630D02*
D03*
X9056Y141340D02*
D03*
X6694Y142521D02*
D03*
X20472Y94488D02*
D03*
X69190Y90551D02*
D03*
X68009D02*
D03*
X25787Y61102D02*
D03*
X23425D02*
D03*
X24606D02*
D03*
X5414Y101772D02*
D03*
X6595D02*
D03*
X5414Y102953D02*
D03*
X6595D02*
D03*
X36220Y70866D02*
D03*
X34252Y53150D02*
D03*
X83701Y100295D02*
D03*
X81339D02*
D03*
X82520D02*
D03*
X81339Y99114D02*
D03*
X82520D02*
D03*
X83701D02*
D03*
X70236Y71161D02*
D03*
X69055D02*
D03*
X67874D02*
D03*
X70236Y69980D02*
D03*
X69055D02*
D03*
X67874D02*
D03*
X72047Y75197D02*
D03*
Y76378D02*
D03*
Y77559D02*
D03*
X67874Y64862D02*
D03*
X69055D02*
D03*
X70236D02*
D03*
X75754Y44291D02*
D03*
X71457Y39370D02*
D03*
X71457Y37795D02*
D03*
X64370Y23622D02*
D03*
X37992Y137795D02*
D03*
X6693Y55315D02*
D03*
Y54134D02*
D03*
X5512Y55315D02*
D03*
Y54134D02*
D03*
X4331Y55315D02*
D03*
Y54134D02*
D03*
X59646Y102362D02*
D03*
X53543Y99803D02*
D03*
X49242Y119094D02*
D03*
X68898Y105118D02*
D03*
X72047Y102362D02*
D03*
X9055Y87008D02*
D03*
X4724Y79921D02*
D03*
X7058Y77756D02*
D03*
X66828Y90551D02*
D03*
X64668Y92913D02*
D03*
X65748Y22244D02*
D03*
X70669Y27362D02*
D03*
Y25394D02*
D03*
X34254Y139173D02*
D03*
X39370Y64567D02*
D03*
X26969Y10827D02*
D03*
X84449Y58071D02*
D03*
X41339Y137795D02*
D03*
X25984D02*
D03*
X23819Y134843D02*
D03*
X20472Y88583D02*
D03*
Y68504D02*
D03*
X61423Y39370D02*
D03*
X63785D02*
D03*
X62604Y38188D02*
D03*
Y40551D02*
D03*
X60242Y38188D02*
D03*
X61423Y37007D02*
D03*
X63785D02*
D03*
X64966Y38188D02*
D03*
Y40551D02*
D03*
X63785Y41732D02*
D03*
X61423D02*
D03*
X60242Y40551D02*
D03*
X53120Y40354D02*
D03*
Y42323D02*
D03*
X38577Y122048D02*
D03*
X40939D02*
D03*
X39758Y120867D02*
D03*
Y123229D02*
D03*
X37396Y120867D02*
D03*
X38577Y119685D02*
D03*
X40939D02*
D03*
X42121Y120867D02*
D03*
Y123229D02*
D03*
X40939Y124410D02*
D03*
X38577D02*
D03*
X37396Y123229D02*
D03*
X58268Y108268D02*
D03*
X60242Y122834D02*
D03*
X58268Y113386D02*
D03*
X60242Y125196D02*
D03*
X61423Y124015D02*
D03*
X63785D02*
D03*
X62604Y122834D02*
D03*
Y125196D02*
D03*
X61423Y121653D02*
D03*
X63785D02*
D03*
X64966Y122834D02*
D03*
Y125196D02*
D03*
X63785Y126377D02*
D03*
X61423D02*
D03*
X37396Y38583D02*
D03*
X38577Y39764D02*
D03*
X40939D02*
D03*
X42121Y38583D02*
D03*
Y36221D02*
D03*
X40939Y35040D02*
D03*
X38577D02*
D03*
X37396Y36221D02*
D03*
X39758Y38583D02*
D03*
Y36221D02*
D03*
X40939Y37402D02*
D03*
X38577D02*
D03*
X74016Y71655D02*
D03*
X54921Y53347D02*
D03*
X54528Y59055D02*
D03*
X46260Y98425D02*
D03*
X36024Y98622D02*
D03*
X61417Y86614D02*
D03*
X48819Y59055D02*
D03*
X42323Y55118D02*
D03*
X33465Y60039D02*
D03*
X65748Y71457D02*
D03*
X58268Y67716D02*
D03*
Y74016D02*
D03*
X48819Y80315D02*
D03*
X51968D02*
D03*
X20472Y84842D02*
D03*
X43307Y24606D02*
D03*
X24606Y93504D02*
D03*
X44882Y132555D02*
D03*
X49246Y117130D02*
D03*
X27362Y63189D02*
D03*
X20472Y71063D02*
D03*
X44094Y53150D02*
D03*
X58071Y21654D02*
D03*
X46457Y134055D02*
D03*
X53120Y123031D02*
D03*
X49242Y38386D02*
D03*
X50394Y85039D02*
D03*
X20472Y66142D02*
D03*
Y73622D02*
D03*
X28543Y19685D02*
D03*
X44685Y112205D02*
D03*
X55709Y135433D02*
D03*
X65748Y137992D02*
D03*
X68110Y139961D02*
D03*
X77953Y96949D02*
D03*
X28543Y57874D02*
D03*
X27362D02*
D03*
X20472Y80709D02*
D03*
X68218Y57874D02*
D03*
X67037D02*
D03*
X81339Y93996D02*
D03*
X78740Y39173D02*
D03*
X77953Y99311D02*
D03*
X93371Y100330D02*
D03*
X62008Y99803D02*
D03*
Y102362D02*
D03*
X94488Y68898D02*
D03*
X87008Y59449D02*
D03*
Y57087D02*
D03*
Y58268D02*
D03*
X89764Y62402D02*
D03*
Y60039D02*
D03*
Y61221D02*
D03*
X72047Y57087D02*
D03*
Y59449D02*
D03*
Y58268D02*
D03*
X84416Y64567D02*
D03*
X74016Y70474D02*
D03*
X77362Y83268D02*
D03*
Y85630D02*
D03*
Y84449D02*
D03*
X75361Y88189D02*
D03*
X64668Y97638D02*
D03*
X77953Y98130D02*
D03*
X86221Y93701D02*
D03*
X87402Y93701D02*
D03*
X86221Y90158D02*
D03*
Y91339D02*
D03*
Y92520D02*
D03*
Y86614D02*
D03*
Y87795D02*
D03*
Y88976D02*
D03*
X87402Y90158D02*
D03*
Y91339D02*
D03*
Y92520D02*
D03*
Y86614D02*
D03*
Y87795D02*
D03*
Y88976D02*
D03*
X82520Y93996D02*
D03*
X83701D02*
D03*
X88583Y93701D02*
D03*
Y90158D02*
D03*
Y91339D02*
D03*
Y92520D02*
D03*
X89764Y91339D02*
D03*
Y92520D02*
D03*
Y93701D02*
D03*
X90945Y91339D02*
D03*
Y92520D02*
D03*
Y93701D02*
D03*
Y90158D02*
D03*
X89764D02*
D03*
X90945Y88976D02*
D03*
X88583D02*
D03*
X89764D02*
D03*
X90945Y87795D02*
D03*
X88583D02*
D03*
X89764D02*
D03*
X90945Y86614D02*
D03*
X88583D02*
D03*
X89764D02*
D03*
X90945Y85433D02*
D03*
X88583D02*
D03*
X89764D02*
D03*
X87402D02*
D03*
X86221Y85433D02*
D03*
X90945Y84252D02*
D03*
X88583D02*
D03*
X89764D02*
D03*
X87402D02*
D03*
X86221Y84252D02*
D03*
Y83071D02*
D03*
X87402Y83071D02*
D03*
X89764D02*
D03*
X88583D02*
D03*
X90945D02*
D03*
X87402Y108071D02*
D03*
X86221Y110433D02*
D03*
X87402D02*
D03*
Y109252D02*
D03*
X90945Y106890D02*
D03*
X89764Y109252D02*
D03*
X88583Y106890D02*
D03*
X89764D02*
D03*
X88583Y109252D02*
D03*
X89764Y108071D02*
D03*
Y110433D02*
D03*
X86221Y108071D02*
D03*
X87402Y106890D02*
D03*
X90945Y109252D02*
D03*
X88583Y108071D02*
D03*
X86221Y109252D02*
D03*
X88583Y110433D02*
D03*
X86221Y106890D02*
D03*
X90945Y108071D02*
D03*
Y110433D02*
D03*
X41456Y20552D02*
D03*
X39035Y10827D02*
D03*
X23957D02*
D03*
X33473Y15551D02*
D03*
X31504Y6103D02*
D03*
X35441D02*
D03*
X37410D02*
D03*
X25599D02*
D03*
X27567D02*
D03*
X64969D02*
D03*
X70874D02*
D03*
X66937D02*
D03*
X74811D02*
D03*
X72843Y15551D02*
D03*
X78405Y10827D02*
D03*
X76780Y6103D02*
D03*
X37795Y75590D02*
D03*
X45669Y77165D02*
D03*
X42520D02*
D03*
X39370Y80315D02*
D03*
X51968Y67716D02*
D03*
Y64567D02*
D03*
X61024Y23622D02*
D03*
X57284Y28740D02*
D03*
X58268Y64567D02*
D03*
X55118Y80315D02*
D03*
X59842Y16929D02*
D03*
X55118Y67716D02*
D03*
Y70866D02*
D03*
X55709Y46850D02*
D03*
X53120Y44291D02*
D03*
X42520Y70866D02*
D03*
X58268Y80315D02*
D03*
Y77165D02*
D03*
X62461Y11000D02*
D03*
X42520Y74016D02*
D03*
X45669Y70866D02*
D03*
X42717Y27559D02*
D03*
X45669Y67716D02*
D03*
X48819D02*
D03*
X55118Y77165D02*
D03*
Y74016D02*
D03*
Y64567D02*
D03*
X30315D02*
D03*
X36614Y53150D02*
D03*
X39370D02*
D03*
X41339D02*
D03*
X28740Y64567D02*
D03*
X36220Y67716D02*
D03*
X39370D02*
D03*
X42520D02*
D03*
X33071Y74016D02*
D03*
X20472Y90551D02*
D03*
X39370Y70866D02*
D03*
Y77165D02*
D03*
X36220D02*
D03*
Y80315D02*
D03*
X39370Y74016D02*
D03*
X20472Y92716D02*
D03*
X23622Y140551D02*
D03*
Y106299D02*
D03*
Y117126D02*
D03*
Y129921D02*
D03*
X36614Y139173D02*
D03*
X46654Y114567D02*
D03*
X49242Y121063D02*
D03*
X44094Y137795D02*
D03*
X39370Y89764D02*
D03*
Y92913D02*
D03*
X42520D02*
D03*
Y89764D02*
D03*
X48819Y86614D02*
D03*
Y89764D02*
D03*
X53120Y128937D02*
D03*
X55709Y131496D02*
D03*
X59646Y133858D02*
D03*
X63583D02*
D03*
X57677D02*
D03*
X61024Y108268D02*
D03*
X58268Y89764D02*
D03*
Y92913D02*
D03*
X94488Y141339D02*
D03*
X93307D02*
D03*
X95669Y142520D02*
D03*
Y141339D02*
D03*
X96850Y142520D02*
D03*
Y141339D02*
D03*
X98032Y142520D02*
D03*
Y141339D02*
D03*
X4332Y141340D02*
D03*
Y142521D02*
D03*
X5513Y141340D02*
D03*
Y142521D02*
D03*
X6694Y141340D02*
D03*
X7875D02*
D03*
X84842Y21457D02*
D03*
X86024D02*
D03*
X87205D02*
D03*
X88386D02*
D03*
X86024Y19094D02*
D03*
X84842D02*
D03*
X88386Y20276D02*
D03*
X89567D02*
D03*
X90748D02*
D03*
X87205D02*
D03*
X86024D02*
D03*
X84842D02*
D03*
X89567Y21457D02*
D03*
X90748D02*
D03*
X93307Y30510D02*
D03*
Y31691D02*
D03*
X94488Y30510D02*
D03*
Y31691D02*
D03*
X95669Y30510D02*
D03*
Y31691D02*
D03*
X96850Y30510D02*
D03*
Y31691D02*
D03*
X98032Y30510D02*
D03*
Y31691D02*
D03*
Y43502D02*
D03*
Y42321D02*
D03*
X96850Y43502D02*
D03*
Y42321D02*
D03*
X95669Y43502D02*
D03*
Y42321D02*
D03*
X94488Y43502D02*
D03*
Y42321D02*
D03*
X93307Y43502D02*
D03*
Y42321D02*
D03*
X9056Y130906D02*
D03*
Y129725D02*
D03*
X7875Y130906D02*
D03*
Y129725D02*
D03*
X6694Y130906D02*
D03*
Y129725D02*
D03*
X5513Y130906D02*
D03*
Y129725D02*
D03*
X4332Y130906D02*
D03*
Y129725D02*
D03*
Y117914D02*
D03*
Y119095D02*
D03*
X5513Y117914D02*
D03*
Y119095D02*
D03*
X6694Y117914D02*
D03*
Y119095D02*
D03*
X7875Y117914D02*
D03*
Y119095D02*
D03*
X9056Y117914D02*
D03*
Y119095D02*
D03*
X93307Y117913D02*
D03*
Y119095D02*
D03*
X94488Y117913D02*
D03*
Y119095D02*
D03*
X95669Y117913D02*
D03*
Y119095D02*
D03*
X96850Y117913D02*
D03*
Y119095D02*
D03*
X98032Y117913D02*
D03*
Y119095D02*
D03*
Y130905D02*
D03*
Y129724D02*
D03*
X96850Y130905D02*
D03*
Y129724D02*
D03*
X95669Y130905D02*
D03*
Y129724D02*
D03*
X94488Y130905D02*
D03*
Y129724D02*
D03*
X93307Y130905D02*
D03*
Y129724D02*
D03*
X9055Y31693D02*
D03*
Y30512D02*
D03*
X7874Y31693D02*
D03*
Y30512D02*
D03*
X6693Y31693D02*
D03*
Y30512D02*
D03*
X5512Y31693D02*
D03*
Y30512D02*
D03*
X4331Y31693D02*
D03*
Y30512D02*
D03*
Y42323D02*
D03*
Y43504D02*
D03*
X5512Y42323D02*
D03*
Y43504D02*
D03*
X6693Y42323D02*
D03*
Y43504D02*
D03*
X7874Y42323D02*
D03*
Y43504D02*
D03*
X9055Y42323D02*
D03*
Y43504D02*
D03*
X17520Y19094D02*
D03*
X16339D02*
D03*
X15157Y20276D02*
D03*
X16339D02*
D03*
X17520D02*
D03*
X13976D02*
D03*
X12795D02*
D03*
X11614D02*
D03*
X17520Y21457D02*
D03*
X16339D02*
D03*
X15157D02*
D03*
X13976D02*
D03*
X12795D02*
D03*
X11614D02*
D03*
X16142Y54528D02*
D03*
Y53347D02*
D03*
Y52165D02*
D03*
Y50984D02*
D03*
X11417Y54527D02*
D03*
X12598D02*
D03*
X13780D02*
D03*
X14961D02*
D03*
X11417Y53347D02*
D03*
X12598D02*
D03*
X13780D02*
D03*
X14961D02*
D03*
Y52165D02*
D03*
X13780D02*
D03*
X12598D02*
D03*
X11417D02*
D03*
Y50984D02*
D03*
X12598D02*
D03*
X13780D02*
D03*
X14961D02*
D03*
X90945Y131102D02*
D03*
X89764D02*
D03*
X88583D02*
D03*
X87402D02*
D03*
X86221D02*
D03*
X90945Y129921D02*
D03*
X89764D02*
D03*
X88583D02*
D03*
X87402D02*
D03*
X86221D02*
D03*
Y128740D02*
D03*
X87402D02*
D03*
X88583D02*
D03*
X89764D02*
D03*
X90945D02*
D03*
X86221Y127559D02*
D03*
X87402D02*
D03*
X88583D02*
D03*
X89764D02*
D03*
X90945D02*
D03*
Y126378D02*
D03*
X89764D02*
D03*
X88583D02*
D03*
X87402D02*
D03*
X86221D02*
D03*
X16142Y35039D02*
D03*
X14961D02*
D03*
X13780D02*
D03*
X12598D02*
D03*
X11417D02*
D03*
Y33858D02*
D03*
X12598D02*
D03*
X13780D02*
D03*
X14961D02*
D03*
X16142D02*
D03*
X11417Y32677D02*
D03*
X12598D02*
D03*
X13780D02*
D03*
X14961D02*
D03*
X16142D02*
D03*
Y31496D02*
D03*
X14961D02*
D03*
X13780D02*
D03*
X12598D02*
D03*
X11417D02*
D03*
X16142Y30315D02*
D03*
X14961D02*
D03*
X13780D02*
D03*
X12598D02*
D03*
X11417D02*
D03*
X90945Y50984D02*
D03*
X89764D02*
D03*
X88583D02*
D03*
X87402D02*
D03*
X86221D02*
D03*
X90945Y52165D02*
D03*
X89764D02*
D03*
X88583D02*
D03*
X87402D02*
D03*
X86221D02*
D03*
X90945Y53347D02*
D03*
X89764D02*
D03*
X88583D02*
D03*
X87402D02*
D03*
X86221D02*
D03*
X90945Y54528D02*
D03*
X89764D02*
D03*
X88583D02*
D03*
X87402D02*
D03*
X86221D02*
D03*
X90945Y55709D02*
D03*
X89764D02*
D03*
X88583D02*
D03*
X87402D02*
D03*
X86221D02*
D03*
X86221Y30315D02*
D03*
X87402D02*
D03*
X88583D02*
D03*
X89764D02*
D03*
X90945D02*
D03*
X86221Y31496D02*
D03*
X87402D02*
D03*
X88583D02*
D03*
X89764D02*
D03*
X90945D02*
D03*
Y32677D02*
D03*
X89764D02*
D03*
X88583D02*
D03*
X87402D02*
D03*
X86221D02*
D03*
X90945Y33858D02*
D03*
X89764D02*
D03*
X88583D02*
D03*
X87402D02*
D03*
X86221D02*
D03*
X90945Y35039D02*
D03*
X89764D02*
D03*
X88583D02*
D03*
X87402D02*
D03*
X86221D02*
D03*
X16142Y126378D02*
D03*
X14961D02*
D03*
X13780D02*
D03*
X12598D02*
D03*
X11417D02*
D03*
X16142Y105709D02*
D03*
X14961D02*
D03*
X13780D02*
D03*
X12598D02*
D03*
X11417D02*
D03*
X16142Y106890D02*
D03*
X14961D02*
D03*
X13780D02*
D03*
X12598D02*
D03*
X11417D02*
D03*
X16142Y108071D02*
D03*
X14961D02*
D03*
X13780D02*
D03*
X12598D02*
D03*
X11417D02*
D03*
X16142Y109252D02*
D03*
X14961D02*
D03*
X13780D02*
D03*
X12598D02*
D03*
X11417D02*
D03*
X16142Y110433D02*
D03*
X14961D02*
D03*
X13780D02*
D03*
X12598D02*
D03*
X11417D02*
D03*
X16142Y127559D02*
D03*
X14961D02*
D03*
X13780D02*
D03*
X12598D02*
D03*
X11417D02*
D03*
X16142Y128740D02*
D03*
X14961D02*
D03*
X13780D02*
D03*
X12598D02*
D03*
X11417D02*
D03*
Y129921D02*
D03*
X12598D02*
D03*
X13780D02*
D03*
X14961D02*
D03*
X16142D02*
D03*
X11417Y131102D02*
D03*
X12598D02*
D03*
X13780D02*
D03*
X14961D02*
D03*
X16142D02*
D03*
X26608Y123031D02*
D03*
X30059Y108268D02*
D03*
X23819D02*
D03*
Y131890D02*
D03*
Y120079D02*
D03*
X25984Y114173D02*
D03*
X42717Y112205D02*
D03*
X38780D02*
D03*
X23622Y126575D02*
D03*
X26608Y128937D02*
D03*
X23622Y124409D02*
D03*
X34843Y129921D02*
D03*
X30906Y123622D02*
D03*
X30906Y122047D02*
D03*
X31693Y139173D02*
D03*
Y134055D02*
D03*
Y136024D02*
D03*
X23622Y122244D02*
D03*
X78543Y41339D02*
D03*
X78740Y31496D02*
D03*
Y55118D02*
D03*
X68108Y22244D02*
D03*
X70669D02*
D03*
X78740Y20866D02*
D03*
X67520Y31496D02*
D03*
X78740Y37008D02*
D03*
X75754Y32480D02*
D03*
X78740Y34843D02*
D03*
Y44291D02*
D03*
X76378Y23622D02*
D03*
Y47244D02*
D03*
X78543Y53150D02*
D03*
Y29528D02*
D03*
X72303Y53150D02*
D03*
X75754Y38386D02*
D03*
X58268Y23622D02*
D03*
X63583Y49213D02*
D03*
X59646D02*
D03*
X57677D02*
D03*
X75754Y123031D02*
D03*
Y117126D02*
D03*
X76378Y131890D02*
D03*
X67520Y114173D02*
D03*
X71457Y124016D02*
D03*
X68110Y133858D02*
D03*
X71457Y122441D02*
D03*
X72303Y137795D02*
D03*
X53120Y126969D02*
D03*
Y125000D02*
D03*
X78740Y121260D02*
D03*
Y119291D02*
D03*
Y117323D02*
D03*
Y128937D02*
D03*
Y130905D02*
D03*
Y140354D02*
D03*
X62992Y108268D02*
D03*
X78543Y137795D02*
D03*
Y125984D02*
D03*
Y114173D02*
D03*
X65748Y108268D02*
D03*
X68110D02*
D03*
X70079Y110039D02*
D03*
X32283Y51378D02*
D03*
X23819Y47244D02*
D03*
Y35433D02*
D03*
Y23622D02*
D03*
X23622Y21063D02*
D03*
Y30512D02*
D03*
Y32480D02*
D03*
Y44094D02*
D03*
Y42126D02*
D03*
Y40157D02*
D03*
X44094Y48031D02*
D03*
X49242Y36418D02*
D03*
Y34449D02*
D03*
Y32481D02*
D03*
X46654Y29921D02*
D03*
X38780Y27559D02*
D03*
X44685D02*
D03*
X36614Y23425D02*
D03*
X30059Y23622D02*
D03*
X34252Y21457D02*
D03*
X30906Y38976D02*
D03*
X34252Y27559D02*
D03*
X30906Y37402D02*
D03*
X34843Y47244D02*
D03*
X25984Y29528D02*
D03*
X26608Y44291D02*
D03*
Y38386D02*
D03*
D80*
X52362Y52267D02*
D03*
Y54426D02*
D03*
D81*
X26608Y131890D02*
D03*
X28510D02*
D03*
X26608Y125984D02*
D03*
X28510D02*
D03*
X26608Y117126D02*
D03*
X28510D02*
D03*
Y128937D02*
D03*
X26608D02*
D03*
Y123031D02*
D03*
X28510D02*
D03*
Y120079D02*
D03*
X26608D02*
D03*
X75754Y114173D02*
D03*
X73852D02*
D03*
Y117126D02*
D03*
X75754D02*
D03*
Y120079D02*
D03*
X73852D02*
D03*
X75754Y123031D02*
D03*
X73852D02*
D03*
Y125984D02*
D03*
X75754D02*
D03*
Y128937D02*
D03*
X73852D02*
D03*
Y29528D02*
D03*
X75754D02*
D03*
Y32480D02*
D03*
X73852D02*
D03*
Y35433D02*
D03*
X75754D02*
D03*
X73852Y38386D02*
D03*
X75754D02*
D03*
Y41339D02*
D03*
X73852D02*
D03*
Y44291D02*
D03*
X75754D02*
D03*
X26608D02*
D03*
X28510D02*
D03*
Y47244D02*
D03*
X26608D02*
D03*
X28510Y41339D02*
D03*
X26608D02*
D03*
X28510Y32480D02*
D03*
X26608D02*
D03*
Y35433D02*
D03*
X28510D02*
D03*
Y38386D02*
D03*
X26608D02*
D03*
D82*
X61316Y62205D02*
D03*
X59156D02*
D03*
X53251Y49606D02*
D03*
X55411D02*
D03*
X28639Y134843D02*
D03*
X26479D02*
D03*
X44196Y135827D02*
D03*
X46356D02*
D03*
X58167Y110236D02*
D03*
X56007D02*
D03*
X73723Y111221D02*
D03*
X75883D02*
D03*
X26479Y50197D02*
D03*
X28639D02*
D03*
X75883Y26575D02*
D03*
X73723D02*
D03*
X56007Y25591D02*
D03*
X58167D02*
D03*
X46356Y51181D02*
D03*
X44196D02*
D03*
D83*
X52165Y20899D02*
D03*
Y22801D02*
D03*
X34252Y110006D02*
D03*
Y108104D02*
D03*
X41339Y134088D02*
D03*
Y135990D02*
D03*
X61024Y111975D02*
D03*
Y110073D02*
D03*
X63386D02*
D03*
Y111975D02*
D03*
X65748Y110073D02*
D03*
Y111975D02*
D03*
X68110Y136057D02*
D03*
Y137959D02*
D03*
X68110Y111975D02*
D03*
Y110073D02*
D03*
X50197Y22801D02*
D03*
Y20899D02*
D03*
X54134D02*
D03*
Y22801D02*
D03*
X48228D02*
D03*
Y20899D02*
D03*
X41339Y51345D02*
D03*
Y49443D02*
D03*
X61024Y25427D02*
D03*
Y27329D02*
D03*
X65748D02*
D03*
Y25427D02*
D03*
X63386Y27329D02*
D03*
Y25427D02*
D03*
X68110D02*
D03*
Y27329D02*
D03*
X38976Y134088D02*
D03*
Y135990D02*
D03*
X36614Y134088D02*
D03*
Y135990D02*
D03*
X34252D02*
D03*
Y134088D02*
D03*
X36614Y49443D02*
D03*
Y51345D02*
D03*
X38976Y49443D02*
D03*
Y51345D02*
D03*
X34252D02*
D03*
Y49443D02*
D03*
X68110Y53313D02*
D03*
Y51411D02*
D03*
X34252Y23458D02*
D03*
Y25361D02*
D03*
D86*
X62604Y124015D02*
D03*
X39758Y37402D02*
D03*
Y122048D02*
D03*
X62604Y39370D02*
D03*
X66181Y173228D02*
D03*
D87*
X56181D02*
D03*
X46181D02*
D03*
X36181D02*
D03*
D88*
X11811Y149606D02*
D03*
X90551D02*
D03*
X11811Y11811D02*
D03*
X90551D02*
D03*
D89*
X99213Y98425D02*
D03*
Y74803D02*
D03*
D90*
Y86614D02*
D03*
Y62992D02*
D03*
D91*
X3150Y124016D02*
D03*
Y112205D02*
D03*
Y135827D02*
D03*
Y25591D02*
D03*
Y49213D02*
D03*
Y37402D02*
D03*
X99213Y124016D02*
D03*
Y135827D02*
D03*
Y112205D02*
D03*
Y49213D02*
D03*
Y25591D02*
D03*
Y37402D02*
D03*
D93*
X82683Y104331D02*
G03*
X84350Y105019I0J2362D01*
G01*
X77559Y145472D02*
X78740D01*
X71653D02*
X77559D01*
X24803D02*
X30709D01*
X23622D02*
X24803D01*
X84350Y105019D02*
X86221Y106890D01*
X75787Y104331D02*
X82683D01*
X72047Y58268D02*
X75286D01*
X76270Y57874D01*
X72047Y58268D02*
Y59449D01*
Y57087D02*
Y58268D01*
D94*
X93611Y100324D02*
G03*
X93450Y100328I-320J-8655D01*
G01*
X93611Y100324D02*
X97047Y100197D01*
X90309Y100330D02*
X93371D01*
X93371Y100330D02*
X93450Y100328D01*
X97047Y100197D02*
X99213Y98425D01*
X89764Y100394D02*
X90309Y100330D01*
D95*
X54838Y54528D02*
D03*
Y56496D02*
D03*
X61698D02*
D03*
Y54528D02*
D03*
D96*
X56300Y58934D02*
D03*
X58268D02*
D03*
X60237D02*
D03*
Y52090D02*
D03*
X58268D02*
D03*
X56300D02*
D03*
D97*
X36113Y10827D02*
D03*
X26880D02*
D03*
X67037Y57874D02*
D03*
X76270D02*
D03*
D98*
X71653Y145472D02*
D03*
Y152953D02*
D03*
X30709Y145472D02*
D03*
Y152953D02*
D03*
X23622D02*
D03*
Y145472D02*
D03*
X78740Y152953D02*
D03*
Y145472D02*
D03*
X83465Y61221D02*
D03*
Y68701D02*
D03*
X89764Y61221D02*
D03*
Y68701D02*
D03*
X83465Y92716D02*
D03*
Y100197D02*
D03*
Y84449D02*
D03*
Y76968D02*
D03*
X89764Y84449D02*
D03*
Y76968D02*
D03*
D99*
X18700Y99488D02*
D03*
D100*
X24606Y61102D02*
D03*
D101*
X20708Y57992D02*
D03*
D102*
X8464Y64842D02*
D03*
Y69173D02*
D03*
Y73503D02*
D03*
Y77834D02*
D03*
Y82165D02*
D03*
Y86496D02*
D03*
Y90826D02*
D03*
Y95157D02*
D03*
D103*
X15787Y59409D02*
D03*
D104*
X68313Y121062D02*
D03*
Y123031D02*
D03*
Y125000D02*
D03*
Y126968D02*
D03*
X56884D02*
D03*
Y125000D02*
D03*
Y123031D02*
D03*
Y121062D02*
D03*
X45478Y40355D02*
D03*
Y38386D02*
D03*
Y36417D02*
D03*
Y34449D02*
D03*
X34049D02*
D03*
Y36417D02*
D03*
Y38386D02*
D03*
Y40355D02*
D03*
Y125001D02*
D03*
Y123032D02*
D03*
Y121063D02*
D03*
Y119095D02*
D03*
X45478D02*
D03*
Y121063D02*
D03*
Y123032D02*
D03*
Y125001D02*
D03*
X56884Y36417D02*
D03*
Y38386D02*
D03*
Y40355D02*
D03*
Y42323D02*
D03*
X68313D02*
D03*
Y40355D02*
D03*
Y38386D02*
D03*
Y36417D02*
D03*
D105*
X67526Y129436D02*
D03*
X57683D02*
D03*
Y118595D02*
D03*
X67526D02*
D03*
X34836Y42822D02*
D03*
X44679D02*
D03*
Y31981D02*
D03*
X34836D02*
D03*
Y116627D02*
D03*
X44679D02*
D03*
Y127468D02*
D03*
X34836D02*
D03*
X67526Y33950D02*
D03*
X57683D02*
D03*
Y44791D02*
D03*
X67526D02*
D03*
D106*
X65557Y129724D02*
D03*
X63589D02*
D03*
X61620D02*
D03*
X59652D02*
D03*
Y118307D02*
D03*
X61620D02*
D03*
X63589D02*
D03*
X65557D02*
D03*
X36805Y43110D02*
D03*
X38773D02*
D03*
X40742D02*
D03*
X42710D02*
D03*
Y31693D02*
D03*
X40742D02*
D03*
X38773D02*
D03*
X36805D02*
D03*
Y116339D02*
D03*
X38773D02*
D03*
X40742D02*
D03*
X42710D02*
D03*
Y127756D02*
D03*
X40742D02*
D03*
X38773D02*
D03*
X36805D02*
D03*
X65557Y33662D02*
D03*
X63589D02*
D03*
X61620D02*
D03*
X59652D02*
D03*
Y45079D02*
D03*
X61620D02*
D03*
X63589D02*
D03*
X65557D02*
D03*
D107*
X72047Y64079D02*
D03*
Y76079D02*
D03*
Y85339D02*
D03*
Y97339D02*
D03*
D108*
X29528Y73053D02*
D03*
D109*
X29528Y76553D02*
D03*
D110*
X89764Y100394D02*
D03*
Y92520D02*
D03*
M02*
