G04*
G04 #@! TF.GenerationSoftware,Altium Limited,Altium Designer,24.8.2 (39)*
G04*
G04 Layer_Physical_Order=2*
G04 Layer_Color=36540*
%FSLAX25Y25*%
%MOIN*%
G70*
G04*
G04 #@! TF.SameCoordinates,F5A21F31-771D-4283-B627-84B0D88358AA*
G04*
G04*
G04 #@! TF.FilePolarity,Positive*
G04*
G01*
G75*
%ADD72C,0.00984*%
%ADD76C,0.00984*%
%ADD86R,0.06693X0.06693*%
%ADD87C,0.06693*%
G04:AMPARAMS|DCode=89|XSize=86.61mil|YSize=78.74mil|CornerRadius=19.68mil|HoleSize=0mil|Usage=FLASHONLY|Rotation=0.000|XOffset=0mil|YOffset=0mil|HoleType=Round|Shape=RoundedRectangle|*
%AMROUNDEDRECTD89*
21,1,0.08661,0.03937,0,0,0.0*
21,1,0.04724,0.07874,0,0,0.0*
1,1,0.03937,0.02362,-0.01968*
1,1,0.03937,-0.02362,-0.01968*
1,1,0.03937,-0.02362,0.01968*
1,1,0.03937,0.02362,0.01968*
%
%ADD89ROUNDEDRECTD89*%
%ADD90R,0.08661X0.07874*%
G04:AMPARAMS|DCode=91|XSize=74.8mil|YSize=59.06mil|CornerRadius=14.76mil|HoleSize=0mil|Usage=FLASHONLY|Rotation=0.000|XOffset=0mil|YOffset=0mil|HoleType=Round|Shape=RoundedRectangle|*
%AMROUNDEDRECTD91*
21,1,0.07480,0.02953,0,0,0.0*
21,1,0.04528,0.05906,0,0,0.0*
1,1,0.02953,0.02264,-0.01476*
1,1,0.02953,-0.02264,-0.01476*
1,1,0.02953,-0.02264,0.01476*
1,1,0.02953,0.02264,0.01476*
%
%ADD91ROUNDEDRECTD91*%
G36*
X70227Y162205D02*
X70241Y162171D01*
X70392Y161023D01*
X70848Y159921D01*
X71574Y158976D01*
X72520Y158250D01*
X73621Y157794D01*
X74769Y157643D01*
X74803Y157629D01*
X90551D01*
X90624Y157659D01*
X92124Y157511D01*
X93635Y157053D01*
X95029Y156308D01*
X96250Y155305D01*
X97253Y154084D01*
X97997Y152691D01*
X98456Y151179D01*
X98604Y149679D01*
X98573Y149606D01*
Y139210D01*
X96949D01*
X96219Y139065D01*
X95601Y138651D01*
X95187Y138033D01*
X95042Y137303D01*
Y134350D01*
X95187Y133621D01*
X95601Y133002D01*
X96219Y132589D01*
X96949Y132444D01*
X98573D01*
Y127399D01*
X96949D01*
X96219Y127254D01*
X95601Y126840D01*
X95187Y126222D01*
X95042Y125492D01*
Y122539D01*
X95187Y121810D01*
X95601Y121191D01*
X96219Y120778D01*
X96949Y120633D01*
X98573D01*
Y115588D01*
X96949D01*
X96219Y115443D01*
X95601Y115029D01*
X95187Y114411D01*
X95042Y113681D01*
Y110728D01*
X95187Y109999D01*
X95601Y109380D01*
X96219Y108967D01*
X96949Y108822D01*
X98573D01*
Y102802D01*
X96850D01*
X95929Y102619D01*
X95147Y102097D01*
X94625Y101315D01*
X94625Y101314D01*
X94082Y101149D01*
X93984Y101248D01*
X93586Y101412D01*
X93156D01*
X92758Y101248D01*
X92462Y100951D01*
X92415Y100952D01*
X91962Y101062D01*
Y106515D01*
X92028Y106674D01*
Y107105D01*
X91962Y107264D01*
Y107696D01*
X92028Y107855D01*
Y108286D01*
X91962Y108446D01*
Y108877D01*
X92028Y109037D01*
Y109467D01*
X91962Y109627D01*
Y110058D01*
X92028Y110218D01*
Y110648D01*
X91962Y110808D01*
Y126003D01*
X92028Y126163D01*
Y126593D01*
X91962Y126753D01*
Y127184D01*
X92028Y127344D01*
Y127774D01*
X91962Y127934D01*
Y128366D01*
X92028Y128525D01*
Y128955D01*
X91962Y129115D01*
Y129547D01*
X92028Y129706D01*
Y130137D01*
X91962Y130296D01*
Y130728D01*
X92028Y130887D01*
Y131318D01*
X91962Y131477D01*
Y141732D01*
Y143008D01*
X91953Y143029D01*
X91960Y143050D01*
X91892Y143177D01*
X91837Y143310D01*
X91816Y143318D01*
X91806Y143338D01*
X91442Y143637D01*
X91304Y143678D01*
X91172Y143733D01*
X89973D01*
X88838Y143959D01*
X87769Y144402D01*
X86807Y145044D01*
X85989Y145862D01*
X85347Y146824D01*
X85024Y147604D01*
X84964Y147664D01*
X84931Y147742D01*
X84853Y147775D01*
X84793Y147835D01*
X84708D01*
X84630Y147867D01*
X75253D01*
X75138Y148007D01*
X74980Y148367D01*
X75099Y148653D01*
Y149084D01*
X74934Y149482D01*
X74629Y149786D01*
X74231Y149951D01*
X73801D01*
X73403Y149786D01*
X73098Y149482D01*
X72571D01*
X72266Y149786D01*
X71868Y149951D01*
X71438D01*
X71040Y149786D01*
X70735Y149482D01*
X70209D01*
X69904Y149786D01*
X69507Y149951D01*
X69076D01*
X68678Y149786D01*
X68373Y149482D01*
X68208Y149084D01*
Y148653D01*
X68327Y148367D01*
X68169Y148007D01*
X68054Y147867D01*
X53992D01*
X53878Y148007D01*
X53720Y148367D01*
X53838Y148653D01*
Y149084D01*
X53673Y149482D01*
X53369Y149786D01*
X52971Y149951D01*
X52540D01*
X52142Y149786D01*
X51838Y149482D01*
X51311D01*
X51007Y149786D01*
X50609Y149951D01*
X50178D01*
X49780Y149786D01*
X49476Y149482D01*
X49311Y149084D01*
Y148653D01*
X49429Y148367D01*
X49272Y148007D01*
X49156Y147867D01*
X37064D01*
X36949Y148007D01*
X36791Y148367D01*
X36910Y148653D01*
Y149084D01*
X36745Y149482D01*
X36440Y149786D01*
X36042Y149951D01*
X35612D01*
X35214Y149786D01*
X34909Y149482D01*
X34383D01*
X34078Y149786D01*
X33680Y149951D01*
X33250D01*
X32852Y149786D01*
X32547Y149482D01*
X32020D01*
X31715Y149786D01*
X31317Y149951D01*
X30887D01*
X30489Y149786D01*
X30184Y149482D01*
X29659D01*
X29354Y149786D01*
X28956Y149951D01*
X28526D01*
X28128Y149786D01*
X27823Y149482D01*
X27296D01*
X26991Y149786D01*
X26593Y149951D01*
X26163D01*
X25765Y149786D01*
X25460Y149482D01*
X25295Y149084D01*
Y148653D01*
X25414Y148367D01*
X25256Y148007D01*
X25141Y147867D01*
X17732D01*
X17654Y147835D01*
X17569D01*
X17509Y147775D01*
X17431Y147742D01*
X17399Y147664D01*
X17339Y147604D01*
X17016Y146824D01*
X16373Y145862D01*
X15555Y145044D01*
X14593Y144402D01*
X13524Y143959D01*
X12389Y143733D01*
X11191D01*
X11058Y143678D01*
X10920Y143637D01*
X10556Y143338D01*
X10546Y143318D01*
X10525Y143310D01*
X10470Y143177D01*
X10403Y143050D01*
X10409Y143029D01*
X10401Y143008D01*
Y140354D01*
Y131477D01*
X10335Y131318D01*
Y130887D01*
X10401Y130728D01*
Y130296D01*
X10335Y130137D01*
Y129706D01*
X10401Y129547D01*
Y129115D01*
X10335Y128955D01*
Y128525D01*
X10401Y128366D01*
Y127934D01*
X10335Y127774D01*
Y127344D01*
X10401Y127184D01*
Y126753D01*
X10335Y126593D01*
Y126163D01*
X10401Y126003D01*
Y110808D01*
X10335Y110648D01*
Y110218D01*
X10401Y110058D01*
Y109627D01*
X10335Y109467D01*
Y109037D01*
X10401Y108877D01*
Y108446D01*
X10335Y108286D01*
Y107855D01*
X10401Y107696D01*
Y107264D01*
X10335Y107105D01*
Y106674D01*
X10401Y106515D01*
Y106083D01*
X10335Y105924D01*
Y105493D01*
X10401Y105334D01*
Y54902D01*
X10335Y54743D01*
Y54312D01*
X10401Y54153D01*
Y53721D01*
X10335Y53562D01*
Y53131D01*
X10401Y52972D01*
Y52540D01*
X10335Y52381D01*
Y51950D01*
X10401Y51791D01*
Y51359D01*
X10335Y51200D01*
Y50769D01*
X10401Y50610D01*
Y35414D01*
X10335Y35255D01*
Y34824D01*
X10401Y34665D01*
Y34233D01*
X10335Y34074D01*
Y33643D01*
X10401Y33484D01*
Y33052D01*
X10335Y32893D01*
Y32462D01*
X10401Y32302D01*
Y31871D01*
X10335Y31711D01*
Y31281D01*
X10401Y31121D01*
Y30690D01*
X10335Y30530D01*
Y30100D01*
X10401Y29940D01*
Y29724D01*
X10525Y29423D01*
X10827Y29298D01*
X11043D01*
X11202Y29232D01*
X11633D01*
X11792Y29298D01*
X12224D01*
X12383Y29232D01*
X12814D01*
X12973Y29298D01*
X13405D01*
X13564Y29232D01*
X13995D01*
X14154Y29298D01*
X14586D01*
X14745Y29232D01*
X15176D01*
X15335Y29298D01*
X15767D01*
X15926Y29232D01*
X16357D01*
X16516Y29298D01*
X16732D01*
X16840Y29343D01*
X17108Y29232D01*
X17538D01*
X17936Y29397D01*
X18241Y29702D01*
X18406Y30100D01*
Y30530D01*
X18250Y30906D01*
X18406Y31281D01*
Y31711D01*
X18250Y32087D01*
X18406Y32462D01*
Y32893D01*
X18250Y33268D01*
X18406Y33643D01*
Y34074D01*
X18250Y34449D01*
X18406Y34824D01*
Y35255D01*
X18241Y35653D01*
X17936Y35957D01*
X17538Y36122D01*
X17158D01*
Y50610D01*
X17224Y50769D01*
Y51200D01*
X17158Y51359D01*
Y51791D01*
X17224Y51950D01*
Y52381D01*
X17158Y52540D01*
Y52972D01*
X17224Y53131D01*
Y53562D01*
X17158Y53721D01*
Y54153D01*
X17224Y54312D01*
Y54743D01*
X17158Y54902D01*
Y61707D01*
X17658Y61739D01*
X17692Y61488D01*
X17979Y60793D01*
X18432Y60203D01*
X18435Y60206D01*
X18438Y60206D01*
X20836Y57808D01*
X20836Y57805D01*
X20833Y57802D01*
X21423Y57349D01*
X22118Y57062D01*
X22863Y56964D01*
Y56971D01*
X24529D01*
X24720Y56509D01*
X20013Y51802D01*
X20009Y51802D01*
X20007Y51805D01*
X19554Y51215D01*
X19266Y50520D01*
X19168Y49775D01*
X19176D01*
Y17941D01*
X19168D01*
X19266Y17196D01*
X19554Y16502D01*
X20007Y15912D01*
X20009Y15915D01*
X20013Y15915D01*
X23556Y12371D01*
X23437Y11783D01*
X23344Y11745D01*
X23039Y11440D01*
X22874Y11042D01*
Y10611D01*
X23039Y10214D01*
X23344Y9909D01*
X23742Y9744D01*
X24172D01*
X24570Y9909D01*
X24875Y10214D01*
X24915Y10312D01*
X25502Y10492D01*
X25768Y10287D01*
X26124Y10140D01*
X26355Y9909D01*
X26753Y9744D01*
X27184D01*
X27582Y9909D01*
X27886Y10214D01*
X28051Y10611D01*
Y11042D01*
X27886Y11440D01*
X27582Y11745D01*
X27184Y11909D01*
X26915D01*
X26467Y12034D01*
X26467Y12034D01*
X26448Y12034D01*
X21630Y16852D01*
X21301Y17199D01*
X21062Y17601D01*
X20994Y17941D01*
X20982D01*
Y23809D01*
X21482Y23979D01*
X21586Y23843D01*
X22183Y23386D01*
X22370Y23308D01*
X22423Y23269D01*
X22880Y23059D01*
X22901Y23009D01*
X23206Y22704D01*
X23377Y22633D01*
X23391Y22397D01*
X23327Y22113D01*
X23009Y21981D01*
X22704Y21676D01*
X22539Y21278D01*
Y20848D01*
X22704Y20450D01*
X23009Y20145D01*
X23407Y19980D01*
X23837D01*
X24235Y20145D01*
X24540Y20450D01*
X24705Y20848D01*
Y21278D01*
X24540Y21676D01*
X24235Y21981D01*
X24064Y22052D01*
X24050Y22288D01*
X24114Y22572D01*
X24432Y22704D01*
X24737Y23009D01*
X24902Y23407D01*
Y23837D01*
X24737Y24235D01*
X24432Y24540D01*
X24034Y24705D01*
X23626D01*
X23177Y24911D01*
X23186Y24928D01*
X22877Y25134D01*
X22649Y25476D01*
X22569Y25879D01*
X22557D01*
Y29339D01*
X22824Y29490D01*
X23057Y29574D01*
X23407Y29429D01*
X23837D01*
X24235Y29594D01*
X24414Y29772D01*
X24902Y29565D01*
Y29312D01*
X25066Y28914D01*
X25371Y28610D01*
X25769Y28445D01*
X26200D01*
X26597Y28610D01*
X26902Y28914D01*
X27067Y29312D01*
Y29743D01*
X26902Y30141D01*
X26597Y30445D01*
X26200Y30610D01*
X25769D01*
X25371Y30445D01*
X25192Y30267D01*
X24705Y30475D01*
Y30727D01*
X24540Y31125D01*
X24496Y31169D01*
X24279Y31496D01*
X24496Y31823D01*
X24540Y31867D01*
X24705Y32265D01*
Y32696D01*
X24540Y33094D01*
X24235Y33398D01*
X23837Y33563D01*
X23407D01*
X23176Y33467D01*
X23130Y33524D01*
X22876Y33918D01*
X22876Y33937D01*
X23381Y34442D01*
X23604Y34350D01*
X24034D01*
X24432Y34515D01*
X24737Y34820D01*
X24902Y35218D01*
Y35648D01*
X24737Y36046D01*
X24432Y36351D01*
X24034Y36516D01*
X23604D01*
X23381Y36424D01*
X23206Y36599D01*
X22876Y36947D01*
X22637Y37348D01*
X22569Y37690D01*
X22557D01*
Y38985D01*
X22824Y39135D01*
X23057Y39220D01*
X23407Y39075D01*
X23837D01*
X24235Y39240D01*
X24540Y39544D01*
X24705Y39942D01*
Y40373D01*
X24540Y40771D01*
X24496Y40815D01*
X24279Y41142D01*
X24496Y41468D01*
X24540Y41513D01*
X24705Y41911D01*
Y42341D01*
X24540Y42739D01*
X24496Y42784D01*
X24279Y43110D01*
X24496Y43437D01*
X24540Y43481D01*
X24705Y43879D01*
Y44310D01*
X24540Y44708D01*
X24235Y45012D01*
X23837Y45177D01*
X23407D01*
X22878Y45487D01*
X22872Y45505D01*
X22909Y45746D01*
X23029Y45873D01*
X23235Y46067D01*
X23463Y46220D01*
X23604Y46161D01*
X24034D01*
X24432Y46326D01*
X24447Y46341D01*
X30287D01*
Y46334D01*
X31032Y46432D01*
X31727Y46719D01*
X32316Y47172D01*
X32313Y47175D01*
X32314Y47178D01*
X34765Y49629D01*
X35113Y49959D01*
X35514Y50198D01*
X35855Y50266D01*
Y50278D01*
X48339D01*
Y39013D01*
X48324Y38999D01*
X48160Y38601D01*
Y38170D01*
X48324Y37772D01*
X48368Y37728D01*
X48585Y37402D01*
X48368Y37075D01*
X48324Y37031D01*
X48160Y36633D01*
Y36202D01*
X48324Y35804D01*
X48369Y35760D01*
X48585Y35433D01*
X48369Y35106D01*
X48324Y35062D01*
X48160Y34664D01*
Y34233D01*
X48324Y33835D01*
X48368Y33791D01*
X48585Y33465D01*
X48368Y33138D01*
X48324Y33094D01*
X48160Y32696D01*
Y32265D01*
X48324Y31867D01*
X48629Y31563D01*
X49027Y31398D01*
X49458D01*
X49856Y31563D01*
X50160Y31867D01*
X50325Y32265D01*
Y32696D01*
X50160Y33094D01*
X50116Y33138D01*
X49899Y33465D01*
X50116Y33791D01*
X50160Y33835D01*
X50325Y34233D01*
Y34664D01*
X50160Y35062D01*
X50116Y35106D01*
X49900Y35433D01*
X50116Y35760D01*
X50160Y35804D01*
X50325Y36202D01*
Y36633D01*
X50160Y37031D01*
X50116Y37075D01*
X49899Y37402D01*
X50116Y37728D01*
X50160Y37772D01*
X50325Y38170D01*
Y38601D01*
X50160Y38999D01*
X50145Y39013D01*
Y50278D01*
X56504D01*
X56655Y50011D01*
X56739Y49778D01*
X56595Y49428D01*
Y48997D01*
X56759Y48599D01*
X57064Y48295D01*
X57462Y48130D01*
X57893D01*
X58290Y48295D01*
X58335Y48339D01*
X58661Y48555D01*
X58988Y48339D01*
X59032Y48295D01*
X59430Y48130D01*
X59861D01*
X60259Y48295D01*
X60563Y48599D01*
X60728Y48997D01*
Y49428D01*
X60583Y49778D01*
X60668Y50011D01*
X60819Y50278D01*
X62410D01*
X62560Y50011D01*
X62645Y49778D01*
X62500Y49428D01*
Y48997D01*
X62665Y48599D01*
X62969Y48295D01*
X63367Y48130D01*
X63798D01*
X64196Y48295D01*
X64500Y48599D01*
X64665Y48997D01*
Y49428D01*
X64500Y49826D01*
X64466Y49860D01*
X64478Y50059D01*
X64615Y50418D01*
X65191Y50656D01*
X65781Y51109D01*
X65778Y51112D01*
X65778Y51115D01*
X70144Y55481D01*
X70148Y55482D01*
X70151Y55479D01*
X70604Y56069D01*
X70685Y56265D01*
X70777Y56308D01*
X71259Y56344D01*
X71434Y56169D01*
X71832Y56004D01*
X72263D01*
X72660Y56169D01*
X72965Y56473D01*
X73130Y56871D01*
Y57302D01*
X72974Y57677D01*
X73130Y58052D01*
Y58483D01*
X72974Y58858D01*
X73130Y59233D01*
Y59664D01*
X72965Y60062D01*
X72660Y60367D01*
X72263Y60532D01*
X71832D01*
X71482Y60387D01*
X71335Y60440D01*
X70994Y60799D01*
X71062Y61140D01*
X71301Y61541D01*
X71630Y61888D01*
X73990Y64249D01*
X74345Y64157D01*
X74490Y64057D01*
X74490Y55406D01*
X74483D01*
X74581Y54661D01*
X74869Y53967D01*
X75276Y53436D01*
X75326Y53371D01*
X75620Y53079D01*
X75620Y53079D01*
X76211Y52625D01*
X76905Y52337D01*
X77650Y52239D01*
X77650Y52239D01*
X78116Y52155D01*
X78328Y52067D01*
X78759D01*
X78898Y52125D01*
X79121Y51976D01*
X79340Y51771D01*
X79533Y51565D01*
X79713Y51296D01*
X79793Y50893D01*
X79805D01*
Y45464D01*
X79538Y45314D01*
X79305Y45229D01*
X78956Y45374D01*
X78525D01*
X78127Y45209D01*
X77822Y44905D01*
X77658Y44507D01*
Y44076D01*
X77822Y43678D01*
X78127Y43374D01*
X78525Y43209D01*
X78956D01*
X79186Y43304D01*
X79233Y43248D01*
X79486Y42853D01*
X79486Y42835D01*
X78981Y42329D01*
X78759Y42421D01*
X78328D01*
X77930Y42256D01*
X77626Y41952D01*
X77461Y41554D01*
Y41123D01*
X77626Y40725D01*
X77867Y40484D01*
X77929Y40389D01*
X77920Y39884D01*
X77822Y39786D01*
X77658Y39389D01*
Y38958D01*
X77822Y38560D01*
X77977Y38405D01*
X78075Y38091D01*
X77977Y37776D01*
X77822Y37621D01*
X77658Y37223D01*
Y36792D01*
X77822Y36395D01*
X77977Y36240D01*
X78075Y35925D01*
X77977Y35611D01*
X77822Y35456D01*
X77658Y35058D01*
Y34627D01*
X77822Y34229D01*
X78127Y33925D01*
X78525Y33760D01*
X78956D01*
X79305Y33905D01*
X79538Y33820D01*
X79805Y33670D01*
Y32669D01*
X79538Y32518D01*
X79305Y32434D01*
X78956Y32579D01*
X78525D01*
X78127Y32414D01*
X77822Y32109D01*
X77658Y31711D01*
Y31281D01*
X77822Y30883D01*
X77930Y30445D01*
X77626Y30141D01*
X77461Y29743D01*
Y29312D01*
X77626Y28914D01*
X77930Y28610D01*
X78328Y28445D01*
X78759D01*
X79157Y28610D01*
X79461Y28914D01*
X79482Y28965D01*
X79939Y29175D01*
X79992Y29214D01*
X80180Y29291D01*
X80776Y29749D01*
X81077Y30141D01*
X81577Y29972D01*
Y21662D01*
X80221Y20306D01*
X79797Y20589D01*
X79823Y20651D01*
Y21081D01*
X79658Y21479D01*
X79353Y21784D01*
X78956Y21949D01*
X78525D01*
X78127Y21784D01*
X77822Y21479D01*
X77658Y21081D01*
Y20651D01*
X77822Y20253D01*
X78127Y19948D01*
X78525Y19783D01*
X78956D01*
X79017Y19809D01*
X79300Y19385D01*
X71526Y11610D01*
X71278Y11713D01*
X70848D01*
X70450Y11548D01*
X70145Y11243D01*
X69980Y10845D01*
Y10415D01*
X70145Y10017D01*
X70450Y9712D01*
X70848Y9547D01*
X71278D01*
X71676Y9712D01*
X71691Y9727D01*
X71822D01*
X72168Y9796D01*
X72461Y9991D01*
X83119Y20649D01*
X83315Y20942D01*
X83384Y21288D01*
Y56898D01*
X83651Y57049D01*
X83884Y57133D01*
X84233Y56988D01*
X84664D01*
X84704Y57005D01*
X85204Y56670D01*
Y56083D01*
X85138Y55924D01*
Y55493D01*
X85204Y55334D01*
Y54902D01*
X85138Y54743D01*
Y54312D01*
X85204Y54153D01*
Y53721D01*
X85138Y53562D01*
Y53131D01*
X85204Y52972D01*
Y52540D01*
X85138Y52381D01*
Y51950D01*
X85204Y51791D01*
Y51359D01*
X85138Y51200D01*
Y50769D01*
X85204Y50610D01*
Y36122D01*
X84824D01*
X84426Y35957D01*
X84122Y35653D01*
X83957Y35255D01*
Y34824D01*
X84112Y34449D01*
X83957Y34074D01*
Y33643D01*
X84112Y33268D01*
X83957Y32893D01*
Y32462D01*
X84112Y32087D01*
X83957Y31711D01*
Y31281D01*
X84112Y30906D01*
X83957Y30530D01*
Y30100D01*
X84122Y29702D01*
X84426Y29397D01*
X84824Y29232D01*
X85255D01*
X85522Y29343D01*
X85630Y29298D01*
X85846D01*
X86005Y29232D01*
X86436D01*
X86595Y29298D01*
X87027D01*
X87186Y29232D01*
X87617D01*
X87776Y29298D01*
X88208D01*
X88367Y29232D01*
X88798D01*
X88957Y29298D01*
X89389D01*
X89548Y29232D01*
X89979D01*
X90138Y29298D01*
X90570D01*
X90729Y29232D01*
X91160D01*
X91320Y29298D01*
X91535D01*
X91837Y29423D01*
X91962Y29724D01*
Y29940D01*
X92027Y30100D01*
Y30530D01*
X91962Y30690D01*
Y31121D01*
X92027Y31281D01*
Y31711D01*
X91962Y31871D01*
Y32302D01*
X92027Y32462D01*
Y32893D01*
X91962Y33052D01*
Y33484D01*
X92027Y33643D01*
Y34074D01*
X91962Y34233D01*
Y34665D01*
X92027Y34824D01*
Y35255D01*
X91962Y35414D01*
Y50610D01*
X92028Y50769D01*
Y51200D01*
X91962Y51359D01*
Y51791D01*
X92028Y51950D01*
Y52381D01*
X91962Y52540D01*
Y52972D01*
X92028Y53131D01*
Y53562D01*
X91962Y53721D01*
Y54153D01*
X92028Y54312D01*
Y54743D01*
X91962Y54902D01*
Y55334D01*
X92028Y55493D01*
Y55924D01*
X91962Y56083D01*
Y82696D01*
X92027Y82855D01*
Y83286D01*
X91962Y83446D01*
Y83877D01*
X92027Y84037D01*
Y84467D01*
X91962Y84627D01*
Y85058D01*
X92027Y85218D01*
Y85648D01*
X91962Y85808D01*
Y86239D01*
X92027Y86399D01*
Y86830D01*
X91962Y86989D01*
Y87421D01*
X92027Y87580D01*
Y88011D01*
X91962Y88170D01*
Y88602D01*
X92027Y88761D01*
Y89192D01*
X91962Y89351D01*
Y89783D01*
X92027Y89942D01*
Y90373D01*
X91962Y90532D01*
Y90964D01*
X92027Y91123D01*
Y91554D01*
X91962Y91713D01*
Y92145D01*
X92027Y92304D01*
Y92735D01*
X91962Y92894D01*
Y93326D01*
X92027Y93485D01*
Y93916D01*
X91962Y94075D01*
Y99597D01*
X92415Y99707D01*
X92462Y99708D01*
X92758Y99412D01*
X93156Y99247D01*
X93586D01*
X93942Y99394D01*
X94157Y99317D01*
X94442Y99162D01*
Y96457D01*
X94625Y95535D01*
X95147Y94754D01*
X95929Y94231D01*
X96850Y94048D01*
X98573D01*
Y79180D01*
X96850D01*
X95929Y78997D01*
X95147Y78475D01*
X94625Y77693D01*
X94442Y76772D01*
Y72835D01*
X94625Y71913D01*
X95147Y71132D01*
X95929Y70609D01*
X96850Y70426D01*
X98573D01*
Y52596D01*
X96949D01*
X96219Y52451D01*
X95601Y52037D01*
X95187Y51419D01*
X95042Y50689D01*
Y47736D01*
X95187Y47007D01*
X95601Y46388D01*
X96219Y45975D01*
X96949Y45829D01*
X98573D01*
Y40785D01*
X96949D01*
X96219Y40639D01*
X95601Y40226D01*
X95187Y39608D01*
X95042Y38878D01*
Y35925D01*
X95187Y35195D01*
X95601Y34577D01*
X96219Y34164D01*
X96949Y34018D01*
X98573D01*
Y28974D01*
X96949D01*
X96219Y28828D01*
X95601Y28415D01*
X95187Y27797D01*
X95042Y27067D01*
Y24114D01*
X95187Y23384D01*
X95601Y22766D01*
X96219Y22353D01*
X96949Y22208D01*
X98573D01*
Y11811D01*
X98604Y11738D01*
X98456Y10239D01*
X97997Y8727D01*
X97253Y7333D01*
X96250Y6112D01*
X95029Y5110D01*
X93635Y4365D01*
X92124Y3906D01*
X90624Y3759D01*
X90551Y3789D01*
X11811D01*
X11738Y3759D01*
X10239Y3906D01*
X8727Y4365D01*
X7333Y5110D01*
X6112Y6112D01*
X5110Y7333D01*
X4365Y8727D01*
X3906Y10239D01*
X3759Y11738D01*
X3789Y11811D01*
Y22208D01*
X5413D01*
X6143Y22353D01*
X6762Y22766D01*
X7175Y23384D01*
X7320Y24114D01*
Y27067D01*
X7175Y27797D01*
X6762Y28415D01*
X6143Y28828D01*
X5413Y28974D01*
X3789D01*
Y34018D01*
X5413D01*
X6143Y34164D01*
X6762Y34577D01*
X7175Y35195D01*
X7320Y35925D01*
Y38878D01*
X7175Y39608D01*
X6762Y40226D01*
X6143Y40639D01*
X5413Y40785D01*
X3789D01*
Y45829D01*
X5413D01*
X6143Y45975D01*
X6762Y46388D01*
X7175Y47007D01*
X7320Y47736D01*
Y50689D01*
X7175Y51419D01*
X6762Y52037D01*
X6143Y52451D01*
X5413Y52596D01*
X3789D01*
Y108822D01*
X5413D01*
X6143Y108967D01*
X6762Y109380D01*
X7175Y109999D01*
X7320Y110728D01*
Y113681D01*
X7175Y114411D01*
X6762Y115029D01*
X6143Y115443D01*
X5413Y115588D01*
X3789D01*
Y120633D01*
X5413D01*
X6143Y120778D01*
X6762Y121191D01*
X7175Y121810D01*
X7320Y122539D01*
Y125492D01*
X7175Y126222D01*
X6762Y126840D01*
X6143Y127254D01*
X5413Y127399D01*
X3789D01*
Y132444D01*
X5413D01*
X6143Y132589D01*
X6762Y133002D01*
X7175Y133621D01*
X7320Y134350D01*
Y137303D01*
X7175Y138033D01*
X6762Y138651D01*
X6143Y139065D01*
X5413Y139210D01*
X3789D01*
Y149606D01*
X3759Y149679D01*
X3906Y151179D01*
X4365Y152691D01*
X5110Y154084D01*
X6112Y155305D01*
X7333Y156308D01*
X8727Y157053D01*
X10239Y157511D01*
X11738Y157659D01*
X11811Y157629D01*
X27559D01*
X27593Y157643D01*
X28741Y157794D01*
X29842Y158250D01*
X30788Y158976D01*
X31514Y159921D01*
X31970Y161023D01*
X32121Y162171D01*
X32135Y162205D01*
Y164071D01*
X32635Y164137D01*
X32696Y163911D01*
X33188Y163058D01*
X33885Y162362D01*
X34738Y161869D01*
X35689Y161614D01*
X36674D01*
X37625Y161869D01*
X38478Y162362D01*
X39174Y163058D01*
X39666Y163911D01*
X39921Y164862D01*
Y165847D01*
X39666Y166798D01*
X39174Y167651D01*
X38478Y168347D01*
X37625Y168840D01*
X37252Y168939D01*
X37318Y169439D01*
X45045D01*
X45110Y168939D01*
X44737Y168840D01*
X43885Y168347D01*
X43188Y167651D01*
X42696Y166798D01*
X42441Y165847D01*
Y164862D01*
X42696Y163911D01*
X43188Y163058D01*
X43885Y162362D01*
X44737Y161869D01*
X45689Y161614D01*
X46674D01*
X47625Y161869D01*
X48478Y162362D01*
X49174Y163058D01*
X49666Y163911D01*
X49921Y164862D01*
Y165847D01*
X49666Y166798D01*
X49174Y167651D01*
X48478Y168347D01*
X47625Y168840D01*
X47252Y168939D01*
X47318Y169439D01*
X55045D01*
X55110Y168939D01*
X54738Y168840D01*
X53885Y168347D01*
X53188Y167651D01*
X52696Y166798D01*
X52441Y165847D01*
Y164862D01*
X52696Y163911D01*
X53188Y163058D01*
X53885Y162362D01*
X54738Y161869D01*
X55689Y161614D01*
X56674D01*
X57625Y161869D01*
X58478Y162362D01*
X59174Y163058D01*
X59666Y163911D01*
X59921Y164862D01*
Y165847D01*
X59666Y166798D01*
X59174Y167651D01*
X58478Y168347D01*
X57625Y168840D01*
X57252Y168939D01*
X57318Y169439D01*
X70227D01*
Y162205D01*
D02*
G37*
G36*
X24705Y139928D02*
X30292D01*
X30627Y139428D01*
X30610Y139389D01*
Y138958D01*
X30775Y138560D01*
X31080Y138255D01*
X31478Y138091D01*
X31908D01*
X32306Y138255D01*
X32611Y138560D01*
X32710Y138799D01*
X33237D01*
X33336Y138560D01*
X33641Y138255D01*
X34039Y138091D01*
X34470D01*
X34868Y138255D01*
X35172Y138560D01*
X35696D01*
X36001Y138255D01*
X36399Y138091D01*
X36448D01*
X36841Y138022D01*
X36909Y137629D01*
Y137580D01*
X37074Y137182D01*
X37379Y136877D01*
X37777Y136713D01*
X38208D01*
X38605Y136877D01*
X38910Y137182D01*
X39075Y137580D01*
Y138011D01*
X38910Y138409D01*
X38605Y138713D01*
X38208Y138878D01*
X38159D01*
X37765Y138946D01*
X37697Y139340D01*
Y139389D01*
X37680Y139428D01*
X38015Y139928D01*
X67028D01*
Y139745D01*
X67192Y139347D01*
X67497Y139043D01*
X67895Y138878D01*
X68326D01*
X68723Y139043D01*
X69028Y139347D01*
X69193Y139745D01*
Y139928D01*
X77658D01*
X77732Y139959D01*
X77822Y139741D01*
X78127Y139436D01*
X78298Y139366D01*
X78312Y139129D01*
X78248Y138845D01*
X77930Y138713D01*
X77626Y138409D01*
X77461Y138011D01*
Y137580D01*
X77626Y137182D01*
X77930Y136877D01*
X78328Y136713D01*
X78736D01*
X79185Y136506D01*
X79185Y136506D01*
X79177Y136489D01*
X79485Y136283D01*
X79713Y135941D01*
X79793Y135538D01*
X79805D01*
Y132078D01*
X79538Y131928D01*
X79305Y131843D01*
X78956Y131988D01*
X78525D01*
X78127Y131823D01*
X77948Y131645D01*
X77461Y131853D01*
Y132105D01*
X77296Y132503D01*
X76991Y132808D01*
X76593Y132972D01*
X76163D01*
X75765Y132808D01*
X75460Y132503D01*
X75295Y132105D01*
Y131674D01*
X75460Y131277D01*
X75765Y130972D01*
X76163Y130807D01*
X76593D01*
X76991Y130972D01*
X77170Y131150D01*
X77658Y130943D01*
Y130690D01*
X77822Y130292D01*
X77867Y130248D01*
X78083Y129921D01*
X77867Y129595D01*
X77822Y129550D01*
X77658Y129152D01*
Y128722D01*
X77822Y128324D01*
X78127Y128019D01*
X78525Y127854D01*
X78956D01*
X79186Y127950D01*
X79233Y127894D01*
X79486Y127499D01*
X79486Y127480D01*
X78981Y126975D01*
X78759Y127067D01*
X78328D01*
X77930Y126902D01*
X77626Y126597D01*
X77461Y126200D01*
Y125769D01*
X77626Y125371D01*
X77930Y125066D01*
X78328Y124902D01*
X78749D01*
X79192Y124764D01*
X79195Y124761D01*
X79530Y124404D01*
X79713Y124130D01*
X79793Y123727D01*
X79805D01*
Y122433D01*
X79538Y122282D01*
X79305Y122197D01*
X78956Y122343D01*
X78525D01*
X78127Y122178D01*
X77822Y121873D01*
X77658Y121475D01*
Y121045D01*
X77822Y120647D01*
X77867Y120602D01*
X78083Y120276D01*
X77867Y119949D01*
X77822Y119905D01*
X77658Y119507D01*
Y119076D01*
X77822Y118678D01*
X77867Y118634D01*
X78083Y118307D01*
X77867Y117980D01*
X77822Y117936D01*
X77658Y117538D01*
Y117107D01*
X77822Y116709D01*
X78127Y116405D01*
X78525Y116240D01*
X78956D01*
X79484Y115930D01*
X79522Y115821D01*
X79482Y115723D01*
X79177Y115480D01*
X79177Y115480D01*
Y115480D01*
X78737Y115256D01*
X78328D01*
X77930Y115091D01*
X77626Y114787D01*
X77461Y114389D01*
Y113958D01*
X77626Y113560D01*
X77930Y113255D01*
X78108Y113181D01*
X78500Y112921D01*
X78729Y112580D01*
X78809Y112177D01*
X78821D01*
Y100627D01*
X78321Y100330D01*
X78168Y100394D01*
X77737D01*
X77340Y100229D01*
X77035Y99924D01*
X76870Y99526D01*
Y99096D01*
X77026Y98721D01*
X76870Y98345D01*
Y97915D01*
X77026Y97539D01*
X76870Y97164D01*
Y96733D01*
X77035Y96336D01*
X77340Y96031D01*
X77737Y95866D01*
X77937D01*
X78144Y95366D01*
X77362Y94584D01*
X77001Y94945D01*
X77006Y94950D01*
X76411Y95407D01*
X75717Y95694D01*
X74972Y95792D01*
Y95785D01*
X51887D01*
Y120081D01*
X51900D01*
X51968Y120422D01*
X52207Y120823D01*
X52536Y121170D01*
X53314Y121949D01*
X53335D01*
X53733Y122114D01*
X54037Y122418D01*
X54202Y122816D01*
Y123247D01*
X54037Y123645D01*
X53993Y123689D01*
X53777Y124016D01*
X53993Y124342D01*
X54038Y124387D01*
X54203Y124784D01*
Y125215D01*
X54038Y125613D01*
X53993Y125658D01*
X53777Y125984D01*
X53993Y126311D01*
X54038Y126356D01*
X54203Y126753D01*
Y127184D01*
X54038Y127582D01*
X53994Y127626D01*
X53777Y127953D01*
X53994Y128279D01*
X54038Y128323D01*
X54203Y128721D01*
Y129152D01*
X54038Y129550D01*
X53733Y129855D01*
X53335Y130019D01*
X52905D01*
X52507Y129855D01*
X52202Y129550D01*
X52037Y129152D01*
Y128721D01*
X52202Y128323D01*
X52246Y128279D01*
X52463Y127953D01*
X52246Y127626D01*
X52202Y127582D01*
X52037Y127184D01*
Y126753D01*
X52202Y126356D01*
X52247Y126311D01*
X52463Y125984D01*
X52247Y125658D01*
X52202Y125613D01*
X52037Y125215D01*
Y124784D01*
X52202Y124387D01*
X52246Y124342D01*
X52463Y124015D01*
X52246Y123689D01*
X52202Y123645D01*
X52037Y123247D01*
Y123226D01*
X50918Y122107D01*
X50915Y122107D01*
X50912Y122110D01*
X50659Y121780D01*
X50525Y121752D01*
X50052Y121784D01*
X49856Y121981D01*
X49458Y122146D01*
X49027D01*
X48629Y121981D01*
X48324Y121677D01*
X48160Y121279D01*
Y120848D01*
X48324Y120450D01*
X48369Y120405D01*
X48585Y120079D01*
X48369Y119752D01*
X48324Y119708D01*
X48160Y119310D01*
Y118879D01*
X48324Y118481D01*
X48368Y118437D01*
X48588Y118114D01*
X48368Y117784D01*
X48328Y117744D01*
X48164Y117346D01*
Y116915D01*
X48328Y116517D01*
X48633Y116212D01*
X49031Y116048D01*
X49462D01*
X49581Y116097D01*
X50081Y115781D01*
Y95785D01*
X35855D01*
Y95797D01*
X35452Y95878D01*
X35110Y96106D01*
X35108Y96109D01*
X35101Y96102D01*
X35096Y96102D01*
X35096Y96102D01*
X34030Y97168D01*
X33701Y97516D01*
X33527Y97811D01*
X33396Y98256D01*
Y98256D01*
X33390Y98756D01*
X33391Y98793D01*
X33293Y99538D01*
X33005Y100233D01*
X32555Y100820D01*
X32555D01*
X32547Y100820D01*
X25659Y107764D01*
X25407Y108019D01*
X25407Y108057D01*
X25407Y108057D01*
X25396Y108073D01*
X25321Y108124D01*
X25311Y108113D01*
X24894Y108500D01*
X24737Y108881D01*
X24432Y109186D01*
X24034Y109350D01*
X23626D01*
X23177Y109556D01*
X23186Y109574D01*
X22877Y109780D01*
X22649Y110122D01*
X22569Y110524D01*
X22557D01*
Y115953D01*
X22824Y116104D01*
X23057Y116188D01*
X23407Y116043D01*
X23837D01*
X24235Y116208D01*
X24540Y116513D01*
X24705Y116911D01*
Y117341D01*
X24540Y117739D01*
X24235Y118044D01*
X23837Y118209D01*
X23407D01*
X23176Y118113D01*
X23130Y118169D01*
X22876Y118564D01*
X22876Y118582D01*
X23381Y119088D01*
X23604Y118996D01*
X24034D01*
X24432Y119161D01*
X24737Y119465D01*
X24902Y119863D01*
Y120294D01*
X24737Y120692D01*
X24496Y120933D01*
X24433Y121028D01*
X24443Y121534D01*
X24540Y121631D01*
X24705Y122029D01*
Y122459D01*
X24540Y122857D01*
X24385Y123012D01*
X24287Y123327D01*
X24385Y123641D01*
X24540Y123796D01*
X24705Y124194D01*
Y124625D01*
X24540Y125023D01*
X24385Y125178D01*
X24287Y125492D01*
X24385Y125806D01*
X24540Y125961D01*
X24705Y126359D01*
Y126790D01*
X24540Y127188D01*
X24235Y127493D01*
X23837Y127657D01*
X23407D01*
X23057Y127513D01*
X22824Y127597D01*
X22557Y127748D01*
Y128748D01*
X22824Y128899D01*
X23057Y128984D01*
X23407Y128839D01*
X23837D01*
X24235Y129003D01*
X24540Y129308D01*
X24705Y129706D01*
Y130137D01*
X24540Y130535D01*
X24432Y130972D01*
X24737Y131277D01*
X24902Y131674D01*
Y132105D01*
X24737Y132503D01*
X24432Y132808D01*
X24034Y132972D01*
X24025D01*
X23814Y133423D01*
X24034Y133760D01*
X24432Y133925D01*
X24737Y134229D01*
X24902Y134627D01*
Y135058D01*
X24737Y135456D01*
X24432Y135760D01*
X24034Y135925D01*
X23604D01*
X23206Y135760D01*
X22901Y135456D01*
X22736Y135058D01*
Y135037D01*
X19422Y131723D01*
X19419Y131723D01*
X19416Y131726D01*
X18963Y131136D01*
X18905Y130996D01*
X18406Y131096D01*
Y131318D01*
X18241Y131716D01*
X17936Y132020D01*
X17538Y132185D01*
X17158D01*
Y139928D01*
X22539D01*
X22683Y139988D01*
X22704Y139938D01*
X23009Y139633D01*
X23407Y139469D01*
X23837D01*
X24235Y139633D01*
X24540Y139938D01*
X24561Y139988D01*
X24705Y139928D01*
D02*
G37*
G36*
X79823D02*
X85204D01*
Y132185D01*
X84824D01*
X84426Y132020D01*
X84122Y131716D01*
X83957Y131318D01*
Y130887D01*
X84112Y130512D01*
X83957Y130137D01*
Y129706D01*
X84112Y129331D01*
X83957Y128955D01*
Y128525D01*
X84112Y128150D01*
X83957Y127774D01*
Y127344D01*
X84112Y126969D01*
X83957Y126593D01*
Y126163D01*
X84122Y125765D01*
X84426Y125460D01*
X84824Y125295D01*
X85204D01*
Y110808D01*
X85138Y110648D01*
Y110218D01*
X85204Y110058D01*
Y109627D01*
X85138Y109467D01*
Y109037D01*
X85204Y108877D01*
Y108446D01*
X85138Y108286D01*
Y107855D01*
X85204Y107696D01*
Y107264D01*
X85138Y107105D01*
Y106674D01*
X85204Y106515D01*
Y94503D01*
X84704Y94403D01*
X84619Y94609D01*
X84314Y94914D01*
X83916Y95079D01*
X83485D01*
X83110Y94923D01*
X82735Y95079D01*
X82304D01*
X81929Y94923D01*
X81554Y95079D01*
X81123D01*
X80738Y94919D01*
X80687Y94942D01*
X80320Y95216D01*
X80537Y95740D01*
X80635Y96485D01*
X80628D01*
Y112177D01*
X80635D01*
X80537Y112922D01*
X80249Y113616D01*
X80465Y114156D01*
X80776Y114394D01*
X81233Y114990D01*
X81521Y115685D01*
X81619Y116430D01*
X81612D01*
X81612Y123227D01*
X81619Y123727D01*
X81619D01*
X81521Y124473D01*
X81233Y125167D01*
X80807Y125722D01*
X80792Y125998D01*
X80810Y126249D01*
X81233Y126802D01*
X81521Y127496D01*
X81619Y128241D01*
X81612D01*
X81612Y135038D01*
X81619Y135538D01*
X81619D01*
X81521Y136284D01*
X81233Y136978D01*
X80776Y137574D01*
X80180Y138032D01*
X79992Y138109D01*
X79939Y138148D01*
X79482Y138358D01*
X79461Y138409D01*
X79157Y138713D01*
X78985Y138784D01*
X78971Y139020D01*
X79035Y139305D01*
X79353Y139436D01*
X79658Y139741D01*
X79748Y139959D01*
X79823Y139928D01*
D02*
G37*
G36*
X37163Y83927D02*
X37566Y83847D01*
X37906Y83620D01*
X37915Y83629D01*
X37915Y83629D01*
X39691Y81860D01*
X39681Y81813D01*
X39447Y81398D01*
X39155D01*
X38757Y81233D01*
X38452Y80928D01*
X38287Y80530D01*
Y80100D01*
X38452Y79702D01*
X38757Y79397D01*
X39155Y79232D01*
X39585D01*
X39983Y79397D01*
X40288Y79702D01*
X40453Y80100D01*
Y80396D01*
X40852Y80626D01*
X40915Y80641D01*
X40951Y80605D01*
X41298Y80249D01*
X41299Y80248D01*
X41896Y79790D01*
X42590Y79503D01*
X43335Y79404D01*
Y79412D01*
X48191D01*
X48206Y79397D01*
X48604Y79233D01*
X49034D01*
X49432Y79397D01*
X49447Y79412D01*
X51340D01*
X51355Y79397D01*
X51753Y79233D01*
X52184D01*
X52581Y79397D01*
X52886Y79702D01*
X53051Y80100D01*
Y80121D01*
X53574Y80643D01*
X53643Y80626D01*
X54035Y80398D01*
Y80100D01*
X54200Y79702D01*
X54505Y79397D01*
X54903Y79232D01*
X55334D01*
X55731Y79397D01*
X56036Y79702D01*
X56201Y80100D01*
Y80530D01*
X56036Y80928D01*
X55731Y81233D01*
X55334Y81398D01*
X55035D01*
X54807Y81790D01*
X54790Y81860D01*
X54843Y81913D01*
X55191Y82242D01*
X55592Y82481D01*
X55933Y82549D01*
Y82561D01*
X57894D01*
X58595Y81860D01*
X58579Y81794D01*
X58350Y81398D01*
X58053D01*
X57655Y81233D01*
X57350Y80928D01*
X57185Y80531D01*
Y80100D01*
X57350Y79702D01*
X57655Y79397D01*
X58053Y79233D01*
X58483D01*
X58881Y79397D01*
X59186Y79702D01*
X59351Y80100D01*
Y80397D01*
X59747Y80626D01*
X59813Y80642D01*
X59849Y80606D01*
X60193Y80244D01*
X60422Y79902D01*
X60502Y79500D01*
X60514D01*
X60514Y79500D01*
X60514Y78460D01*
X60502Y77981D01*
D01*
X60403Y77588D01*
X60195Y77239D01*
X59866Y76891D01*
X59813Y76838D01*
X59747Y76854D01*
X59351Y77083D01*
Y77381D01*
X59186Y77778D01*
X58881Y78083D01*
X58483Y78248D01*
X58053D01*
X57655Y78083D01*
X57350Y77778D01*
X57185Y77381D01*
Y76950D01*
X57350Y76552D01*
X57655Y76247D01*
X58053Y76082D01*
X58350D01*
X58579Y75686D01*
X58595Y75621D01*
X58074Y75099D01*
X58053D01*
X57655Y74934D01*
X57350Y74629D01*
X57185Y74231D01*
Y73801D01*
X57350Y73403D01*
X57365Y73388D01*
Y68344D01*
X57350Y68329D01*
X57185Y67931D01*
Y67501D01*
X57350Y67103D01*
X57655Y66798D01*
X58053Y66633D01*
X58074D01*
X58595Y66111D01*
X58579Y66044D01*
X58350Y65650D01*
X58052D01*
X57654Y65485D01*
X57350Y65180D01*
X57185Y64782D01*
Y64352D01*
X57350Y63954D01*
X57654Y63649D01*
X58052Y63484D01*
X58483D01*
X58833Y63629D01*
X59066Y63545D01*
X59333Y63394D01*
Y62233D01*
X59321D01*
X59253Y61892D01*
X59014Y61490D01*
X58684Y61143D01*
X58148Y60607D01*
X57801Y60277D01*
X57399Y60039D01*
X57059Y59971D01*
Y59958D01*
X55155D01*
X55141Y59973D01*
X54743Y60138D01*
X54312D01*
X53914Y59973D01*
X53900Y59958D01*
X49447D01*
X49432Y59973D01*
X49034Y60138D01*
X48603D01*
X48206Y59973D01*
X48191Y59958D01*
X40273D01*
Y63939D01*
X40288Y63954D01*
X40453Y64352D01*
Y64782D01*
X40288Y65180D01*
X39983Y65485D01*
X39585Y65650D01*
X39155D01*
X38757Y65485D01*
X38452Y65180D01*
X38287Y64782D01*
Y64352D01*
X38452Y63954D01*
X38467Y63939D01*
Y59958D01*
X35264D01*
Y59971D01*
X34861Y60051D01*
X34544Y60263D01*
X34382Y60653D01*
X34078Y60957D01*
X33680Y61122D01*
X33249D01*
X32851Y60957D01*
X32547Y60653D01*
X32382Y60255D01*
Y59824D01*
X32547Y59426D01*
X32851Y59122D01*
X33249Y58957D01*
X33269D01*
X33825Y58530D01*
X34519Y58243D01*
X35264Y58145D01*
Y58152D01*
X47806D01*
X47854Y58096D01*
X47622Y57596D01*
X30540D01*
Y57608D01*
X30137Y57689D01*
X29798Y57915D01*
X29536Y58306D01*
X29461Y58487D01*
X29157Y58792D01*
X28759Y58957D01*
X28328D01*
X27953Y58801D01*
X27578Y58957D01*
X27147D01*
X26749Y58792D01*
X26734Y58777D01*
X22863D01*
Y58790D01*
X22522Y58857D01*
X22120Y59096D01*
X21773Y59426D01*
X20056Y61143D01*
X19726Y61490D01*
X19487Y61892D01*
X19420Y62233D01*
X19407D01*
Y64969D01*
X19674Y65120D01*
X19907Y65204D01*
X20257Y65059D01*
X20688D01*
X21086Y65224D01*
X21390Y65528D01*
X21555Y65926D01*
Y66357D01*
X21390Y66755D01*
X21086Y67060D01*
Y67586D01*
X21390Y67891D01*
X21555Y68289D01*
Y68719D01*
X21390Y69117D01*
X21086Y69422D01*
X20853Y69518D01*
Y70049D01*
X21086Y70145D01*
X21390Y70450D01*
X21555Y70848D01*
Y71278D01*
X21390Y71676D01*
X21086Y71981D01*
X20853Y72077D01*
Y72608D01*
X21086Y72704D01*
X21390Y73009D01*
X21555Y73407D01*
Y73837D01*
X21390Y74235D01*
X21086Y74540D01*
X20688Y74705D01*
X20257D01*
X19907Y74560D01*
X19674Y74644D01*
X19407Y74795D01*
Y79536D01*
X19674Y79686D01*
X19907Y79771D01*
X20257Y79626D01*
X20688D01*
X21086Y79791D01*
X21390Y80095D01*
X21555Y80493D01*
Y80924D01*
X21390Y81322D01*
X21086Y81626D01*
X20688Y81791D01*
X20257D01*
X19907Y81646D01*
X19674Y81731D01*
X19407Y81882D01*
Y83670D01*
X19674Y83820D01*
X19907Y83905D01*
X20257Y83760D01*
X20688D01*
X21086Y83925D01*
X21100Y83939D01*
X28212D01*
X28508Y83439D01*
X28445Y83286D01*
Y82855D01*
X28610Y82458D01*
X28914Y82153D01*
X29312Y81988D01*
X29743D01*
X30141Y82153D01*
X30445Y82458D01*
X30610Y82855D01*
Y83286D01*
X30547Y83439D01*
X30843Y83939D01*
X37163D01*
Y83927D01*
D02*
G37*
G36*
X73101Y72271D02*
X73098Y72268D01*
X72933Y71870D01*
Y71439D01*
X73089Y71064D01*
X72933Y70689D01*
Y70258D01*
X73098Y69860D01*
X73113Y69846D01*
Y66366D01*
X73100D01*
X73032Y66026D01*
X72793Y65624D01*
X72464Y65277D01*
X71808Y64621D01*
X71319Y64839D01*
Y65078D01*
X71154Y65475D01*
X70850Y65780D01*
X70452Y65945D01*
X70021D01*
X69646Y65790D01*
X69271Y65945D01*
X68840D01*
X68465Y65790D01*
X68089Y65945D01*
X67659D01*
X67261Y65780D01*
X66956Y65475D01*
X66791Y65078D01*
Y64647D01*
X66956Y64249D01*
X67261Y63944D01*
X67659Y63780D01*
X68089D01*
X68465Y63935D01*
X68840Y63780D01*
X69271D01*
X69646Y63935D01*
X70021Y63780D01*
X70260D01*
X70477Y63290D01*
X70013Y62826D01*
X70009Y62825D01*
X70007Y62828D01*
X69554Y62238D01*
X69266Y61544D01*
X69168Y60799D01*
X69176D01*
Y59149D01*
X69088Y59058D01*
X68676Y58856D01*
X68433Y58957D01*
X68003D01*
X67628Y58801D01*
X67252Y58957D01*
X66822D01*
X66424Y58792D01*
X66119Y58487D01*
X66044Y58307D01*
X65783Y57915D01*
X65443Y57689D01*
X65041Y57608D01*
Y57596D01*
X55725D01*
X55493Y58096D01*
X55540Y58152D01*
X57059D01*
Y58145D01*
X57804Y58243D01*
X58498Y58530D01*
X59088Y58983D01*
X59085Y58986D01*
X59085Y58989D01*
X60302Y60206D01*
X60302Y60206D01*
X60305Y60206D01*
X60308Y60203D01*
X60761Y60793D01*
X61049Y61488D01*
X61147Y62233D01*
X61139D01*
X61139Y64433D01*
X61147Y64933D01*
X61147D01*
X61049Y65678D01*
X60761Y66372D01*
X60303Y66968D01*
X60303Y66968D01*
X59945Y67317D01*
X59351Y67911D01*
Y67931D01*
X59186Y68329D01*
X59171Y68344D01*
Y70553D01*
X65120D01*
X65135Y70539D01*
X65533Y70374D01*
X65963D01*
X66361Y70539D01*
X66666Y70843D01*
X66831Y71241D01*
Y71258D01*
X66854Y71281D01*
X67199Y71612D01*
X67600Y71851D01*
X67777Y71886D01*
X67772Y71918D01*
X72861Y72739D01*
X73101Y72271D01*
D02*
G37*
G36*
X21129Y120896D02*
X21555Y120341D01*
X21569Y120073D01*
X21554Y119816D01*
X21129Y119261D01*
X20841Y118567D01*
X20743Y117822D01*
X20750D01*
Y111022D01*
X20743Y110524D01*
X20743Y110524D01*
X20841Y109779D01*
X21129Y109085D01*
X21586Y108489D01*
X22183Y108031D01*
X22370Y107954D01*
X22423Y107915D01*
X22880Y107705D01*
X22901Y107654D01*
X23009Y107217D01*
X22704Y106913D01*
X22539Y106515D01*
Y106084D01*
X22704Y105686D01*
X23009Y105381D01*
X23407Y105217D01*
X23837D01*
X24235Y105381D01*
X24506Y105652D01*
X24566Y105689D01*
X25109Y105754D01*
X29636Y101189D01*
X29428Y100689D01*
X29312D01*
X28914Y100524D01*
X28610Y100220D01*
X28445Y99822D01*
Y99391D01*
X28610Y98993D01*
X28914Y98689D01*
X29312Y98524D01*
X29743D01*
X30141Y98689D01*
X30445Y98993D01*
X30610Y99391D01*
X31091Y99544D01*
X31259Y99534D01*
X31485Y99196D01*
X31565Y98793D01*
X31577D01*
X31577Y98793D01*
X31577Y98264D01*
X31570Y98256D01*
X31570D01*
X31668Y97511D01*
X31956Y96817D01*
X32405Y96232D01*
X32406Y96233D01*
X32412Y96232D01*
X32412Y96232D01*
X33464Y95180D01*
X33812Y94823D01*
X33819Y94815D01*
X34415Y94357D01*
X35110Y94069D01*
X35855Y93971D01*
Y93979D01*
X38197D01*
X38348Y93712D01*
X38432Y93479D01*
X38287Y93129D01*
Y92698D01*
X38452Y92300D01*
X38757Y91996D01*
X39155Y91831D01*
X39585D01*
X39983Y91996D01*
X40288Y92300D01*
X40453Y92698D01*
Y93129D01*
X40308Y93479D01*
X40392Y93712D01*
X40543Y93979D01*
X41347D01*
X41497Y93712D01*
X41582Y93479D01*
X41437Y93129D01*
Y92698D01*
X41602Y92300D01*
X41906Y91996D01*
X42304Y91831D01*
X42735D01*
X43133Y91996D01*
X43437Y92300D01*
X43602Y92698D01*
Y93129D01*
X43457Y93479D01*
X43542Y93712D01*
X43693Y93979D01*
X57095D01*
X57246Y93711D01*
X57331Y93479D01*
X57185Y93129D01*
Y92698D01*
X57350Y92300D01*
X57655Y91995D01*
X58053Y91830D01*
X58483D01*
X58881Y91995D01*
X59186Y92300D01*
X59351Y92698D01*
Y93129D01*
X59206Y93479D01*
X59290Y93711D01*
X59441Y93979D01*
X74972D01*
Y93966D01*
X75315Y93898D01*
X75716Y93658D01*
X76055Y93324D01*
X76138Y93236D01*
X76138Y93236D01*
X76459Y92869D01*
Y89329D01*
X75974Y89107D01*
X75576Y89272D01*
X75145D01*
X74747Y89107D01*
X74443Y88802D01*
X74278Y88404D01*
Y87974D01*
X74443Y87576D01*
X74747Y87271D01*
X75145Y87106D01*
X75576D01*
X75974Y87271D01*
X76459Y87049D01*
Y86258D01*
X76444Y86243D01*
X76279Y85845D01*
Y85415D01*
X76435Y85039D01*
X76279Y84664D01*
Y84233D01*
X76435Y83858D01*
X76279Y83483D01*
Y83052D01*
X76444Y82654D01*
X76749Y82350D01*
X77147Y82185D01*
X77578D01*
X77975Y82350D01*
X78280Y82654D01*
X78445Y83052D01*
Y83483D01*
X78289Y83858D01*
X78445Y84233D01*
Y84664D01*
X78289Y85039D01*
X78445Y85415D01*
Y85845D01*
X78280Y86243D01*
X78265Y86258D01*
Y92933D01*
X79790Y94458D01*
X79793Y94458D01*
X79796Y94455D01*
X79838Y94509D01*
X80275Y94257D01*
X80256Y94212D01*
Y93781D01*
X80421Y93383D01*
X80725Y93078D01*
X81123Y92913D01*
X81554D01*
X81929Y93069D01*
X82304Y92913D01*
X82735D01*
X83110Y93069D01*
X83485Y92913D01*
X83916D01*
X84314Y93078D01*
X84619Y93383D01*
X85085Y93203D01*
X85204Y93108D01*
Y92894D01*
X85138Y92735D01*
Y92304D01*
X85204Y92145D01*
Y91713D01*
X85138Y91554D01*
Y91123D01*
X85204Y90964D01*
Y90532D01*
X85138Y90373D01*
Y89942D01*
X85204Y89783D01*
Y89351D01*
X85138Y89192D01*
Y88761D01*
X85204Y88602D01*
Y88170D01*
X85138Y88011D01*
Y87580D01*
X85204Y87421D01*
Y86989D01*
X85138Y86830D01*
Y86399D01*
X85204Y86239D01*
Y85808D01*
X85138Y85648D01*
Y85218D01*
X85204Y85058D01*
Y84627D01*
X85138Y84467D01*
Y84037D01*
X85204Y83877D01*
Y83446D01*
X85138Y83286D01*
Y82855D01*
X85204Y82696D01*
Y65953D01*
X84704Y65619D01*
X84631Y65650D01*
X84200D01*
X83884Y65518D01*
X83571Y65644D01*
X83384Y65773D01*
Y66508D01*
X83391D01*
X83293Y67253D01*
X83005Y67947D01*
X82547Y68543D01*
X82542Y68538D01*
X77196Y73885D01*
X77196Y73888D01*
X77199Y73891D01*
X76608Y74344D01*
X75914Y74631D01*
X75169Y74729D01*
Y74722D01*
X74044D01*
X74044Y74729D01*
X73584Y74685D01*
X73561Y74681D01*
X73561Y74681D01*
X73227Y75002D01*
X73130Y75118D01*
Y75412D01*
X72974Y75787D01*
X73130Y76163D01*
Y76593D01*
X72974Y76968D01*
X73130Y77344D01*
Y77774D01*
X72965Y78172D01*
X72660Y78477D01*
X72263Y78642D01*
X71832D01*
X71434Y78477D01*
X71129Y78172D01*
X70965Y77774D01*
Y77344D01*
X71120Y76968D01*
X70965Y76593D01*
Y76163D01*
X71120Y75787D01*
X70965Y75412D01*
Y74981D01*
X71047Y74782D01*
X70820Y74239D01*
X67484Y73701D01*
X67416Y73676D01*
X67196Y73647D01*
X66502Y73359D01*
X65912Y72907D01*
X65915Y72903D01*
X65914Y72900D01*
X65914Y72900D01*
X65553Y72539D01*
X65533D01*
X65135Y72374D01*
X65120Y72360D01*
X59171D01*
Y73388D01*
X59186Y73403D01*
X59351Y73801D01*
Y73822D01*
X61483Y75954D01*
X61486Y75954D01*
X61489Y75951D01*
X61942Y76541D01*
X62230Y77236D01*
X62328Y77981D01*
X62321D01*
X62321Y79000D01*
X62328Y79500D01*
X62328D01*
X62230Y80245D01*
X61942Y80939D01*
X61485Y81535D01*
X61485Y81535D01*
X61126Y81884D01*
X59545Y83465D01*
X61612Y85532D01*
X61632D01*
X62030Y85696D01*
X62335Y86001D01*
X62500Y86399D01*
Y86830D01*
X62335Y87227D01*
X62030Y87532D01*
X61632Y87697D01*
X61202D01*
X60804Y87532D01*
X60499Y87227D01*
X60334Y86830D01*
Y86809D01*
X57893Y84368D01*
X55933D01*
Y84375D01*
X55188Y84277D01*
X54840Y84133D01*
X54746Y84205D01*
X54507Y84536D01*
X54626Y84824D01*
Y85255D01*
X54461Y85653D01*
X54157Y85957D01*
X53759Y86122D01*
X53328D01*
X52930Y85957D01*
X52626Y85653D01*
X52461Y85255D01*
Y84824D01*
X52626Y84426D01*
X52930Y84122D01*
X53328Y83957D01*
X53629D01*
X53835Y83641D01*
X53870Y83495D01*
X51774Y81398D01*
X51753D01*
X51355Y81233D01*
X51340Y81218D01*
X49447D01*
X49432Y81233D01*
X49034Y81398D01*
X48604D01*
X48206Y81233D01*
X48191Y81218D01*
X43335D01*
Y81231D01*
X42932Y81311D01*
X42590Y81539D01*
X42590Y81539D01*
X42580Y81532D01*
X39195Y84904D01*
X39195Y84913D01*
Y84913D01*
X38603Y85367D01*
X37909Y85655D01*
X37163Y85753D01*
Y85746D01*
X21100D01*
X21086Y85760D01*
X20688Y85925D01*
X20257D01*
X19907Y85780D01*
X19674Y85865D01*
X19407Y86015D01*
Y87410D01*
X19674Y87560D01*
X19907Y87645D01*
X20257Y87500D01*
X20688D01*
X21086Y87665D01*
X21390Y87969D01*
X21555Y88367D01*
Y88798D01*
X21390Y89196D01*
X21346Y89240D01*
X21130Y89567D01*
X21346Y89894D01*
X21390Y89938D01*
X21555Y90336D01*
Y90767D01*
X21390Y91164D01*
X21235Y91319D01*
X21137Y91634D01*
X21235Y91948D01*
X21390Y92103D01*
X21555Y92501D01*
Y92932D01*
X21390Y93330D01*
X21118Y93602D01*
X21390Y93875D01*
X21555Y94273D01*
Y94704D01*
X21390Y95101D01*
X21086Y95406D01*
X20688Y95571D01*
X20257D01*
X19907Y95426D01*
X19674Y95510D01*
X19407Y95661D01*
Y116901D01*
X19420D01*
X19462Y117112D01*
X19656Y117538D01*
X19656Y117538D01*
X19913Y117946D01*
X20013Y118077D01*
X20301Y118771D01*
X20399Y119516D01*
X20391D01*
Y121370D01*
X20891Y121469D01*
X21129Y120896D01*
D02*
G37*
G36*
X84969Y146623D02*
X85658Y145591D01*
X86536Y144713D01*
X87567Y144024D01*
X88714Y143549D01*
X89931Y143307D01*
X91172D01*
X91535Y143008D01*
Y140354D01*
Y29724D01*
X85630D01*
Y140354D01*
X79823D01*
Y140570D01*
X79658Y140968D01*
X79353Y141272D01*
X78956Y141437D01*
X78525D01*
X78127Y141272D01*
X77822Y140968D01*
X77658Y140570D01*
Y140354D01*
X69119D01*
X69028Y140574D01*
X68723Y140878D01*
X68326Y141043D01*
X67895D01*
X67497Y140878D01*
X67192Y140574D01*
X67101Y140354D01*
X24705D01*
Y140767D01*
X24540Y141165D01*
X24235Y141469D01*
X23837Y141634D01*
X23407D01*
X23009Y141469D01*
X22704Y141165D01*
X22539Y140767D01*
Y140354D01*
X16732D01*
Y29724D01*
X10827D01*
Y140354D01*
Y143008D01*
X11191Y143307D01*
X12431D01*
X13648Y143549D01*
X14795Y144024D01*
X15826Y144713D01*
X16704Y145591D01*
X17393Y146623D01*
X17732Y147441D01*
X84630D01*
X84969Y146623D01*
D02*
G37*
%LPC*%
G36*
X55334Y152657D02*
X54903D01*
X54505Y152493D01*
X54200Y152188D01*
X54035Y151790D01*
Y151359D01*
X54200Y150961D01*
X54505Y150657D01*
X54903Y150492D01*
X55334D01*
X55731Y150657D01*
X56036Y150961D01*
X56201Y151359D01*
Y151790D01*
X56036Y152188D01*
X55731Y152493D01*
X55334Y152657D01*
D02*
G37*
G36*
X7274Y78839D02*
X6843D01*
X6445Y78674D01*
X6141Y78369D01*
X5976Y77971D01*
Y77540D01*
X6141Y77143D01*
X6445Y76838D01*
X6843Y76673D01*
X7274D01*
X7672Y76838D01*
X7976Y77143D01*
X8141Y77540D01*
Y77971D01*
X7976Y78369D01*
X7672Y78674D01*
X7274Y78839D01*
D02*
G37*
G36*
X94704Y69980D02*
X94273D01*
X93875Y69815D01*
X93570Y69511D01*
X93405Y69113D01*
Y68682D01*
X93570Y68284D01*
X93875Y67980D01*
X94273Y67815D01*
X94704D01*
X95101Y67980D01*
X95406Y68284D01*
X95571Y68682D01*
Y69113D01*
X95406Y69511D01*
X95101Y69815D01*
X94704Y69980D01*
D02*
G37*
G36*
X72518Y54232D02*
X72088D01*
X71690Y54067D01*
X71385Y53763D01*
X71220Y53365D01*
Y52934D01*
X71385Y52536D01*
X71690Y52232D01*
X72088Y52067D01*
X72518D01*
X72916Y52232D01*
X73221Y52536D01*
X73386Y52934D01*
Y53365D01*
X73221Y53763D01*
X72916Y54067D01*
X72518Y54232D01*
D02*
G37*
G36*
X76003Y51279D02*
X75572D01*
X75174Y51115D01*
X74870Y50810D01*
X74705Y50412D01*
Y49981D01*
X74870Y49584D01*
X75174Y49279D01*
X75572Y49114D01*
X76003D01*
X76401Y49279D01*
X76705Y49584D01*
X76870Y49981D01*
Y50412D01*
X76705Y50810D01*
X76401Y51115D01*
X76003Y51279D01*
D02*
G37*
G36*
X44310Y49114D02*
X43879D01*
X43481Y48949D01*
X43177Y48645D01*
X43012Y48247D01*
Y47816D01*
X43177Y47418D01*
X43481Y47114D01*
X43879Y46949D01*
X44310D01*
X44708Y47114D01*
X45012Y47418D01*
X45177Y47816D01*
Y48247D01*
X45012Y48645D01*
X44708Y48949D01*
X44310Y49114D01*
D02*
G37*
G36*
X76593Y48327D02*
X76163D01*
X75765Y48162D01*
X75460Y47857D01*
X75295Y47459D01*
Y47029D01*
X75460Y46631D01*
X75765Y46326D01*
X76163Y46161D01*
X76593D01*
X76991Y46326D01*
X77296Y46631D01*
X77461Y47029D01*
Y47459D01*
X77296Y47857D01*
X76991Y48162D01*
X76593Y48327D01*
D02*
G37*
G36*
X35058D02*
X34627D01*
X34229Y48162D01*
X33925Y47857D01*
X33760Y47459D01*
Y47029D01*
X33925Y46631D01*
X34229Y46326D01*
X34627Y46161D01*
X35058D01*
X35456Y46326D01*
X35760Y46631D01*
X35925Y47029D01*
Y47459D01*
X35760Y47857D01*
X35456Y48162D01*
X35058Y48327D01*
D02*
G37*
G36*
X55924Y47933D02*
X55493D01*
X55095Y47768D01*
X54791Y47464D01*
X54626Y47066D01*
Y46635D01*
X54791Y46237D01*
X55095Y45932D01*
X55493Y45768D01*
X55924D01*
X56322Y45932D01*
X56626Y46237D01*
X56791Y46635D01*
Y47066D01*
X56626Y47464D01*
X56322Y47768D01*
X55924Y47933D01*
D02*
G37*
G36*
X26823Y45374D02*
X26393D01*
X25995Y45209D01*
X25690Y44905D01*
X25525Y44507D01*
Y44076D01*
X25690Y43678D01*
X25995Y43374D01*
X26393Y43209D01*
X26823D01*
X27221Y43374D01*
X27526Y43678D01*
X27691Y44076D01*
Y44507D01*
X27526Y44905D01*
X27221Y45209D01*
X26823Y45374D01*
D02*
G37*
G36*
X53335Y45374D02*
X52905D01*
X52507Y45209D01*
X52202Y44904D01*
X52037Y44506D01*
Y44076D01*
X52202Y43678D01*
X52246Y43634D01*
X52463Y43307D01*
X52246Y42980D01*
X52202Y42936D01*
X52037Y42538D01*
Y42108D01*
X52202Y41710D01*
X52247Y41665D01*
X52463Y41339D01*
X52247Y41012D01*
X52202Y40967D01*
X52037Y40569D01*
Y40139D01*
X52202Y39741D01*
X52507Y39436D01*
X52905Y39271D01*
X53335D01*
X53733Y39436D01*
X54038Y39741D01*
X54203Y40139D01*
Y40569D01*
X54038Y40967D01*
X53993Y41012D01*
X53777Y41339D01*
X53993Y41665D01*
X54038Y41710D01*
X54203Y42108D01*
Y42538D01*
X54038Y42936D01*
X53994Y42980D01*
X53777Y43307D01*
X53994Y43634D01*
X54038Y43678D01*
X54203Y44076D01*
Y44506D01*
X54038Y44904D01*
X53733Y45209D01*
X53335Y45374D01*
D02*
G37*
G36*
X75969Y39469D02*
X75539D01*
X75141Y39304D01*
X74836Y38999D01*
X74672Y38601D01*
Y38170D01*
X74836Y37773D01*
X75141Y37468D01*
X75539Y37303D01*
X75969D01*
X76367Y37468D01*
X76672Y37773D01*
X76837Y38170D01*
Y38601D01*
X76672Y38999D01*
X76367Y39304D01*
X75969Y39469D01*
D02*
G37*
G36*
X26823D02*
X26393D01*
X25995Y39304D01*
X25690Y38999D01*
X25525Y38601D01*
Y38170D01*
X25690Y37773D01*
X25995Y37468D01*
X26393Y37303D01*
X26823D01*
X27221Y37468D01*
X27526Y37773D01*
X27691Y38170D01*
Y38601D01*
X27526Y38999D01*
X27221Y39304D01*
X26823Y39469D01*
D02*
G37*
G36*
X71672Y40453D02*
X71241D01*
X70843Y40288D01*
X70539Y39983D01*
X70374Y39585D01*
Y39155D01*
X70539Y38757D01*
X70713Y38583D01*
X70539Y38409D01*
X70374Y38011D01*
Y37580D01*
X70539Y37182D01*
X70843Y36877D01*
X71241Y36713D01*
X71672D01*
X72070Y36877D01*
X72374Y37182D01*
X72539Y37580D01*
Y38011D01*
X72374Y38409D01*
X72200Y38583D01*
X72374Y38757D01*
X72539Y39155D01*
Y39585D01*
X72374Y39983D01*
X72070Y40288D01*
X71672Y40453D01*
D02*
G37*
G36*
X31121Y40059D02*
X30690D01*
X30292Y39894D01*
X29988Y39590D01*
X29823Y39192D01*
Y38761D01*
X29988Y38363D01*
X30162Y38189D01*
X29988Y38015D01*
X29823Y37617D01*
Y37186D01*
X29988Y36788D01*
X30292Y36484D01*
X30690Y36319D01*
X31121D01*
X31519Y36484D01*
X31823Y36788D01*
X31988Y37186D01*
Y37617D01*
X31823Y38015D01*
X31649Y38189D01*
X31823Y38363D01*
X31988Y38761D01*
Y39192D01*
X31823Y39590D01*
X31519Y39894D01*
X31121Y40059D01*
D02*
G37*
G36*
X75969Y33563D02*
X75539D01*
X75141Y33398D01*
X74836Y33094D01*
X74672Y32696D01*
Y32265D01*
X74836Y31867D01*
X75141Y31563D01*
X75539Y31398D01*
X75969D01*
X76367Y31563D01*
X76672Y31867D01*
X76837Y32265D01*
Y32696D01*
X76672Y33094D01*
X76367Y33398D01*
X75969Y33563D01*
D02*
G37*
G36*
X67735Y32579D02*
X67304D01*
X66906Y32414D01*
X66602Y32109D01*
X66437Y31711D01*
Y31281D01*
X66602Y30883D01*
X66906Y30578D01*
X67304Y30413D01*
X67735D01*
X68133Y30578D01*
X68437Y30883D01*
X68602Y31281D01*
Y31711D01*
X68437Y32109D01*
X68133Y32414D01*
X67735Y32579D01*
D02*
G37*
G36*
X46869Y31004D02*
X46438D01*
X46040Y30839D01*
X45736Y30534D01*
X45571Y30137D01*
Y29706D01*
X45736Y29308D01*
X46040Y29003D01*
X46438Y28839D01*
X46869D01*
X47267Y29003D01*
X47571Y29308D01*
X47736Y29706D01*
Y30137D01*
X47571Y30534D01*
X47267Y30839D01*
X46869Y31004D01*
D02*
G37*
G36*
X44900Y28642D02*
X44470D01*
X44072Y28477D01*
X44027Y28433D01*
X43701Y28216D01*
X43374Y28433D01*
X43330Y28477D01*
X42932Y28642D01*
X42501D01*
X42103Y28477D01*
X41799Y28172D01*
X41634Y27774D01*
Y27344D01*
X41799Y26946D01*
X42103Y26641D01*
X42501Y26476D01*
X42932D01*
X43330Y26641D01*
X43374Y26686D01*
X43701Y26902D01*
X44027Y26686D01*
X44072Y26641D01*
X44470Y26476D01*
X44900D01*
X45298Y26641D01*
X45603Y26946D01*
X45768Y27344D01*
Y27774D01*
X45603Y28172D01*
X45298Y28477D01*
X44900Y28642D01*
D02*
G37*
G36*
X57499Y29823D02*
X57068D01*
X56670Y29658D01*
X56366Y29353D01*
X56201Y28956D01*
Y28525D01*
X56366Y28127D01*
X56670Y27822D01*
X57068Y27657D01*
X57499D01*
X57897Y27822D01*
X58201Y28127D01*
X58366Y28525D01*
Y28956D01*
X58201Y29353D01*
X57897Y29658D01*
X57499Y29823D01*
D02*
G37*
G36*
X38995Y28642D02*
X38564D01*
X38166Y28477D01*
X37862Y28172D01*
X37697Y27774D01*
Y27344D01*
X37862Y26946D01*
X38166Y26641D01*
X38564Y26476D01*
X38995D01*
X39393Y26641D01*
X39697Y26946D01*
X39862Y27344D01*
Y27774D01*
X39697Y28172D01*
X39393Y28477D01*
X38995Y28642D01*
D02*
G37*
G36*
X34467D02*
X34037D01*
X33639Y28477D01*
X33334Y28172D01*
X33169Y27774D01*
Y27344D01*
X33334Y26946D01*
X33639Y26641D01*
X34037Y26476D01*
X34467D01*
X34865Y26641D01*
X35170Y26946D01*
X35335Y27344D01*
Y27774D01*
X35170Y28172D01*
X34865Y28477D01*
X34467Y28642D01*
D02*
G37*
G36*
X70885Y28445D02*
X70454D01*
X70056Y28280D01*
X69751Y27975D01*
X69587Y27578D01*
Y27147D01*
X69751Y26749D01*
X69796Y26705D01*
X70012Y26378D01*
X69796Y26051D01*
X69751Y26007D01*
X69587Y25609D01*
Y25178D01*
X69751Y24780D01*
X70056Y24476D01*
X70454Y24311D01*
X70885D01*
X71283Y24476D01*
X71587Y24780D01*
X71752Y25178D01*
Y25609D01*
X71587Y26007D01*
X71543Y26051D01*
X71327Y26378D01*
X71543Y26705D01*
X71587Y26749D01*
X71752Y27147D01*
Y27578D01*
X71587Y27975D01*
X71283Y28280D01*
X70885Y28445D01*
D02*
G37*
G36*
X43522Y25689D02*
X43092D01*
X42694Y25524D01*
X42389Y25220D01*
X42224Y24822D01*
Y24391D01*
X42389Y23993D01*
X42694Y23688D01*
X43092Y23524D01*
X43522D01*
X43920Y23688D01*
X44225Y23993D01*
X44390Y24391D01*
Y24822D01*
X44225Y25220D01*
X43920Y25524D01*
X43522Y25689D01*
D02*
G37*
G36*
X76593Y24705D02*
X76163D01*
X75765Y24540D01*
X75460Y24235D01*
X75295Y23837D01*
Y23407D01*
X75460Y23009D01*
X75765Y22704D01*
X76163Y22539D01*
X76593D01*
X76991Y22704D01*
X77296Y23009D01*
X77461Y23407D01*
Y23837D01*
X77296Y24235D01*
X76991Y24540D01*
X76593Y24705D01*
D02*
G37*
G36*
X61239D02*
X60808D01*
X60410Y24540D01*
X60106Y24235D01*
X59941Y23837D01*
Y23407D01*
X60106Y23009D01*
X60410Y22704D01*
X60808Y22539D01*
X61239D01*
X61637Y22704D01*
X61941Y23009D01*
X62106Y23407D01*
Y23837D01*
X61941Y24235D01*
X61637Y24540D01*
X61239Y24705D01*
D02*
G37*
G36*
X30274D02*
X29844D01*
X29446Y24540D01*
X29141Y24235D01*
X28976Y23837D01*
Y23407D01*
X29141Y23009D01*
X29446Y22704D01*
X29844Y22539D01*
X30274D01*
X30672Y22704D01*
X30977Y23009D01*
X31142Y23407D01*
Y23837D01*
X30977Y24235D01*
X30672Y24540D01*
X30274Y24705D01*
D02*
G37*
G36*
X36830Y24508D02*
X36399D01*
X36001Y24343D01*
X35696Y24038D01*
X35531Y23641D01*
Y23210D01*
X35696Y22812D01*
X36001Y22507D01*
X36399Y22343D01*
X36830D01*
X37227Y22507D01*
X37532Y22812D01*
X37697Y23210D01*
Y23641D01*
X37532Y24038D01*
X37227Y24343D01*
X36830Y24508D01*
D02*
G37*
G36*
X64585Y24705D02*
X64155D01*
X63757Y24540D01*
X63452Y24235D01*
X63287Y23837D01*
Y23407D01*
X63452Y23009D01*
X63757Y22704D01*
X64155Y22539D01*
X64203D01*
X64597Y22471D01*
X64665Y22077D01*
Y22029D01*
X64830Y21631D01*
X65135Y21326D01*
X65533Y21161D01*
X65963D01*
X66361Y21326D01*
X66666Y21631D01*
X67190D01*
X67495Y21326D01*
X67893Y21161D01*
X68323D01*
X68721Y21326D01*
X69026Y21631D01*
X69125Y21870D01*
X69652D01*
X69751Y21631D01*
X70056Y21326D01*
X70454Y21161D01*
X70885D01*
X71283Y21326D01*
X71587Y21631D01*
X71752Y22029D01*
Y22459D01*
X71587Y22857D01*
X71283Y23162D01*
X70885Y23327D01*
X70454D01*
X70056Y23162D01*
X69751Y22857D01*
X69652Y22619D01*
X69125D01*
X69026Y22857D01*
X68721Y23162D01*
X68323Y23327D01*
X67893D01*
X67495Y23162D01*
X67190Y22857D01*
X66666D01*
X66361Y23162D01*
X65963Y23327D01*
X65915D01*
X65521Y23395D01*
X65453Y23789D01*
Y23837D01*
X65288Y24235D01*
X64983Y24540D01*
X64585Y24705D01*
D02*
G37*
G36*
X58483Y24705D02*
X58052D01*
X57654Y24540D01*
X57350Y24235D01*
X57185Y23837D01*
Y23407D01*
X57350Y23009D01*
X57458Y22571D01*
X57153Y22267D01*
X56988Y21869D01*
Y21438D01*
X57153Y21040D01*
X57458Y20736D01*
X57855Y20571D01*
X58286D01*
X58684Y20736D01*
X58989Y21040D01*
X59153Y21438D01*
Y21869D01*
X58989Y22267D01*
X58881Y22704D01*
X59186Y23009D01*
X59350Y23407D01*
Y23837D01*
X59186Y24235D01*
X58881Y24540D01*
X58483Y24705D01*
D02*
G37*
G36*
X34467Y22539D02*
X34037D01*
X33639Y22375D01*
X33334Y22070D01*
X33169Y21672D01*
Y21241D01*
X33334Y20843D01*
X33639Y20539D01*
X34037Y20374D01*
X34467D01*
X34865Y20539D01*
X35170Y20843D01*
X35335Y21241D01*
Y21672D01*
X35170Y22070D01*
X34865Y22375D01*
X34467Y22539D01*
D02*
G37*
G36*
X41671Y21635D02*
X41241D01*
X40843Y21470D01*
X40538Y21165D01*
X40373Y20767D01*
Y20337D01*
X40538Y19939D01*
X40843Y19634D01*
X41241Y19469D01*
X41671D01*
X42069Y19634D01*
X42374Y19939D01*
X42539Y20337D01*
Y20767D01*
X42374Y21165D01*
X42069Y21470D01*
X41671Y21635D01*
D02*
G37*
G36*
X28759Y20768D02*
X28328D01*
X27930Y20603D01*
X27626Y20298D01*
X27461Y19900D01*
Y19470D01*
X27626Y19072D01*
X27930Y18767D01*
X28328Y18602D01*
X28759D01*
X29157Y18767D01*
X29461Y19072D01*
X29626Y19470D01*
Y19900D01*
X29461Y20298D01*
X29157Y20603D01*
X28759Y20768D01*
D02*
G37*
G36*
X60058Y18012D02*
X59627D01*
X59229Y17847D01*
X58925Y17542D01*
X58760Y17144D01*
Y16714D01*
X58925Y16316D01*
X59229Y16011D01*
X59627Y15846D01*
X60058D01*
X60456Y16011D01*
X60760Y16316D01*
X60925Y16714D01*
Y17144D01*
X60760Y17542D01*
X60456Y17847D01*
X60058Y18012D01*
D02*
G37*
G36*
X73058Y16633D02*
X72628D01*
X72230Y16469D01*
X71925Y16164D01*
X71760Y15766D01*
Y15335D01*
X71925Y14938D01*
X72230Y14633D01*
X72628Y14468D01*
X73058D01*
X73456Y14633D01*
X73761Y14938D01*
X73926Y15335D01*
Y15766D01*
X73761Y16164D01*
X73456Y16469D01*
X73058Y16633D01*
D02*
G37*
G36*
X33688D02*
X33258D01*
X32860Y16469D01*
X32555Y16164D01*
X32390Y15766D01*
Y15335D01*
X32555Y14938D01*
X32860Y14633D01*
X33258Y14468D01*
X33688D01*
X34086Y14633D01*
X34391Y14938D01*
X34556Y15335D01*
Y15766D01*
X34391Y16164D01*
X34086Y16469D01*
X33688Y16633D01*
D02*
G37*
G36*
X62676Y12083D02*
X62246D01*
X61848Y11918D01*
X61543Y11613D01*
X61378Y11215D01*
Y10785D01*
X61543Y10387D01*
X61848Y10082D01*
X62246Y9917D01*
X62676D01*
X63074Y10082D01*
X63379Y10387D01*
X63544Y10785D01*
Y11215D01*
X63379Y11613D01*
X63074Y11918D01*
X62676Y12083D01*
D02*
G37*
G36*
X78620Y11909D02*
X78190D01*
X77792Y11745D01*
X77487Y11440D01*
X77323Y11042D01*
Y10611D01*
X77487Y10214D01*
X77792Y9909D01*
X78190Y9744D01*
X78620D01*
X79018Y9909D01*
X79323Y10214D01*
X79488Y10611D01*
Y11042D01*
X79323Y11440D01*
X79018Y11745D01*
X78620Y11909D01*
D02*
G37*
G36*
X39250D02*
X38820D01*
X38422Y11745D01*
X38117Y11440D01*
X37952Y11042D01*
Y10611D01*
X38117Y10214D01*
X38422Y9909D01*
X38820Y9744D01*
X39250D01*
X39648Y9909D01*
X39953Y10214D01*
X40118Y10611D01*
Y11042D01*
X39953Y11440D01*
X39648Y11745D01*
X39250Y11909D01*
D02*
G37*
G36*
X76995Y7185D02*
X76565D01*
X76167Y7021D01*
X76122Y6976D01*
X75796Y6760D01*
X75469Y6976D01*
X75424Y7021D01*
X75027Y7185D01*
X74596D01*
X74198Y7021D01*
X73893Y6716D01*
X73729Y6318D01*
Y5887D01*
X73893Y5489D01*
X74198Y5185D01*
X74596Y5020D01*
X75027D01*
X75424Y5185D01*
X75469Y5229D01*
X75796Y5445D01*
X76122Y5229D01*
X76167Y5185D01*
X76565Y5020D01*
X76995D01*
X77393Y5185D01*
X77698Y5489D01*
X77863Y5887D01*
Y6318D01*
X77698Y6716D01*
X77393Y7021D01*
X76995Y7185D01*
D02*
G37*
G36*
X37625D02*
X37195D01*
X36797Y7021D01*
X36752Y6976D01*
X36426Y6760D01*
X36099Y6976D01*
X36054Y7021D01*
X35656Y7185D01*
X35226D01*
X34828Y7021D01*
X34523Y6716D01*
X34358Y6318D01*
Y5887D01*
X34523Y5489D01*
X34828Y5185D01*
X35226Y5020D01*
X35656D01*
X36054Y5185D01*
X36099Y5229D01*
X36426Y5445D01*
X36752Y5229D01*
X36797Y5185D01*
X37195Y5020D01*
X37625D01*
X38023Y5185D01*
X38328Y5489D01*
X38493Y5887D01*
Y6318D01*
X38328Y6716D01*
X38023Y7021D01*
X37625Y7185D01*
D02*
G37*
G36*
X67153D02*
X66722D01*
X66324Y7021D01*
X66280Y6977D01*
X65953Y6760D01*
X65627Y6977D01*
X65582Y7021D01*
X65184Y7185D01*
X64754D01*
X64356Y7021D01*
X64051Y6716D01*
X63886Y6318D01*
Y5887D01*
X64051Y5489D01*
X64356Y5185D01*
X64754Y5020D01*
X65184D01*
X65582Y5185D01*
X65627Y5229D01*
X65953Y5446D01*
X66280Y5229D01*
X66324Y5185D01*
X66722Y5020D01*
X67153D01*
X67550Y5185D01*
X67855Y5489D01*
X68020Y5887D01*
Y6318D01*
X67855Y6716D01*
X67550Y7021D01*
X67153Y7185D01*
D02*
G37*
G36*
X27782D02*
X27352D01*
X26954Y7021D01*
X26910Y6977D01*
X26583Y6760D01*
X26256Y6977D01*
X26212Y7021D01*
X25814Y7185D01*
X25384D01*
X24986Y7021D01*
X24681Y6716D01*
X24516Y6318D01*
Y5887D01*
X24681Y5489D01*
X24986Y5185D01*
X25384Y5020D01*
X25814D01*
X26212Y5185D01*
X26256Y5229D01*
X26583Y5446D01*
X26910Y5229D01*
X26954Y5185D01*
X27352Y5020D01*
X27782D01*
X28180Y5185D01*
X28485Y5489D01*
X28650Y5887D01*
Y6318D01*
X28485Y6716D01*
X28180Y7021D01*
X27782Y7185D01*
D02*
G37*
G36*
X71090D02*
X70659D01*
X70261Y7021D01*
X69956Y6716D01*
X69792Y6318D01*
Y5887D01*
X69956Y5489D01*
X70261Y5185D01*
X70659Y5020D01*
X71090D01*
X71487Y5185D01*
X71792Y5489D01*
X71957Y5887D01*
Y6318D01*
X71792Y6716D01*
X71487Y7021D01*
X71090Y7185D01*
D02*
G37*
G36*
X31719D02*
X31289D01*
X30891Y7021D01*
X30586Y6716D01*
X30421Y6318D01*
Y5887D01*
X30586Y5489D01*
X30891Y5185D01*
X31289Y5020D01*
X31719D01*
X32117Y5185D01*
X32422Y5489D01*
X32587Y5887D01*
Y6318D01*
X32422Y6716D01*
X32117Y7021D01*
X31719Y7185D01*
D02*
G37*
G36*
X65963Y139075D02*
X65533D01*
X65135Y138910D01*
X64830Y138605D01*
X64665Y138207D01*
Y137777D01*
X64830Y137379D01*
X65135Y137074D01*
X65533Y136909D01*
X65963D01*
X66361Y137074D01*
X66666Y137379D01*
X66831Y137777D01*
Y138207D01*
X66666Y138605D01*
X66361Y138910D01*
X65963Y139075D01*
D02*
G37*
G36*
X44310Y138878D02*
X43879D01*
X43481Y138713D01*
X43177Y138409D01*
X43012Y138011D01*
Y137580D01*
X43177Y137182D01*
X43481Y136877D01*
X43879Y136713D01*
X44310D01*
X44708Y136877D01*
X45012Y137182D01*
X45177Y137580D01*
Y138011D01*
X45012Y138409D01*
X44708Y138713D01*
X44310Y138878D01*
D02*
G37*
G36*
X72518Y138878D02*
X72088D01*
X71690Y138713D01*
X71385Y138409D01*
X71220Y138011D01*
Y137580D01*
X71385Y137182D01*
X71690Y136877D01*
X72088Y136713D01*
X72518D01*
X72916Y136877D01*
X73221Y137182D01*
X73386Y137580D01*
Y138011D01*
X73221Y138409D01*
X72916Y138713D01*
X72518Y138878D01*
D02*
G37*
G36*
X41554D02*
X41123D01*
X40725Y138713D01*
X40421Y138409D01*
X40256Y138011D01*
Y137580D01*
X40421Y137182D01*
X40725Y136877D01*
X41123Y136713D01*
X41554D01*
X41952Y136877D01*
X42256Y137182D01*
X42421Y137580D01*
Y138011D01*
X42256Y138409D01*
X41952Y138713D01*
X41554Y138878D01*
D02*
G37*
G36*
X26200D02*
X25769D01*
X25371Y138713D01*
X25066Y138409D01*
X24902Y138011D01*
Y137580D01*
X25066Y137182D01*
X25371Y136877D01*
X25769Y136713D01*
X26200D01*
X26597Y136877D01*
X26902Y137182D01*
X27067Y137580D01*
Y138011D01*
X26902Y138409D01*
X26597Y138713D01*
X26200Y138878D01*
D02*
G37*
G36*
X31908Y137106D02*
X31478D01*
X31080Y136942D01*
X30775Y136637D01*
X30610Y136239D01*
Y135808D01*
X30775Y135410D01*
X30819Y135366D01*
X31036Y135039D01*
X30819Y134713D01*
X30775Y134668D01*
X30610Y134271D01*
Y133840D01*
X30775Y133442D01*
X31080Y133137D01*
X31478Y132973D01*
X31908D01*
X32306Y133137D01*
X32611Y133442D01*
X32776Y133840D01*
Y134271D01*
X32611Y134668D01*
X32566Y134713D01*
X32350Y135039D01*
X32566Y135366D01*
X32611Y135410D01*
X32776Y135808D01*
Y136239D01*
X32611Y136637D01*
X32306Y136942D01*
X31908Y137106D01*
D02*
G37*
G36*
X68326Y134941D02*
X67895D01*
X67497Y134776D01*
X67192Y134471D01*
X67028Y134074D01*
Y133643D01*
X67192Y133245D01*
X67497Y132940D01*
X67895Y132776D01*
X68326D01*
X68723Y132940D01*
X69028Y133245D01*
X69193Y133643D01*
Y134074D01*
X69028Y134471D01*
X68723Y134776D01*
X68326Y134941D01*
D02*
G37*
G36*
X63798D02*
X63367D01*
X62969Y134776D01*
X62665Y134471D01*
X62500Y134074D01*
Y133643D01*
X62665Y133245D01*
X62969Y132940D01*
X63367Y132776D01*
X63798D01*
X64196Y132940D01*
X64500Y133245D01*
X64665Y133643D01*
Y134074D01*
X64500Y134471D01*
X64196Y134776D01*
X63798Y134941D01*
D02*
G37*
G36*
X55924Y136516D02*
X55493D01*
X55095Y136351D01*
X54791Y136046D01*
X54626Y135648D01*
Y135218D01*
X54791Y134820D01*
X55095Y134515D01*
X55493Y134350D01*
X55924D01*
X56218Y134472D01*
X56532Y134252D01*
X56622Y134139D01*
X56595Y134074D01*
Y133643D01*
X56759Y133245D01*
X57064Y132940D01*
X57462Y132776D01*
X57893D01*
X58290Y132940D01*
X58335Y132985D01*
X58661Y133201D01*
X58988Y132985D01*
X59032Y132940D01*
X59430Y132776D01*
X59861D01*
X60259Y132940D01*
X60563Y133245D01*
X60728Y133643D01*
Y134074D01*
X60563Y134471D01*
X60259Y134776D01*
X59861Y134941D01*
X59430D01*
X59032Y134776D01*
X58988Y134732D01*
X58661Y134516D01*
X58335Y134732D01*
X58290Y134776D01*
X57893Y134941D01*
X57462D01*
X57167Y134819D01*
X56854Y135040D01*
X56764Y135152D01*
X56791Y135218D01*
Y135648D01*
X56626Y136046D01*
X56322Y136351D01*
X55924Y136516D01*
D02*
G37*
G36*
X46672Y135138D02*
X46241D01*
X45843Y134973D01*
X45539Y134668D01*
X45374Y134271D01*
Y134064D01*
X45170Y133750D01*
X44916Y133638D01*
X44666D01*
X44269Y133473D01*
X43964Y133168D01*
X43799Y132771D01*
Y132340D01*
X43964Y131942D01*
X44269Y131637D01*
X44666Y131473D01*
X45097D01*
X45495Y131637D01*
X45800Y131942D01*
X45965Y132340D01*
Y132546D01*
X46169Y132861D01*
X46422Y132973D01*
X46672D01*
X47070Y133137D01*
X47374Y133442D01*
X47539Y133840D01*
Y134271D01*
X47374Y134668D01*
X47070Y134973D01*
X46672Y135138D01*
D02*
G37*
G36*
X55924Y132579D02*
X55493D01*
X55095Y132414D01*
X54791Y132109D01*
X54626Y131711D01*
Y131281D01*
X54791Y130883D01*
X55095Y130578D01*
X55493Y130413D01*
X55924D01*
X56322Y130578D01*
X56626Y130883D01*
X56791Y131281D01*
Y131711D01*
X56626Y132109D01*
X56322Y132414D01*
X55924Y132579D01*
D02*
G37*
G36*
X35058Y131004D02*
X34627D01*
X34229Y130839D01*
X33925Y130535D01*
X33760Y130137D01*
Y129706D01*
X33925Y129308D01*
X34229Y129003D01*
X34627Y128839D01*
X35058D01*
X35456Y129003D01*
X35760Y129308D01*
X35925Y129706D01*
Y130137D01*
X35760Y130535D01*
X35456Y130839D01*
X35058Y131004D01*
D02*
G37*
G36*
X26823Y130020D02*
X26393D01*
X25995Y129855D01*
X25690Y129550D01*
X25525Y129152D01*
Y128722D01*
X25690Y128324D01*
X25995Y128019D01*
X26393Y127854D01*
X26823D01*
X27221Y128019D01*
X27526Y128324D01*
X27691Y128722D01*
Y129152D01*
X27526Y129550D01*
X27221Y129855D01*
X26823Y130020D01*
D02*
G37*
G36*
X75969Y124114D02*
X75539D01*
X75141Y123949D01*
X74836Y123645D01*
X74672Y123247D01*
Y122816D01*
X74836Y122418D01*
X75141Y122114D01*
X75539Y121949D01*
X75969D01*
X76367Y122114D01*
X76672Y122418D01*
X76837Y122816D01*
Y123247D01*
X76672Y123645D01*
X76367Y123949D01*
X75969Y124114D01*
D02*
G37*
G36*
X26823D02*
X26393D01*
X25995Y123949D01*
X25690Y123645D01*
X25525Y123247D01*
Y122816D01*
X25690Y122418D01*
X25995Y122114D01*
X26393Y121949D01*
X26823D01*
X27221Y122114D01*
X27526Y122418D01*
X27691Y122816D01*
Y123247D01*
X27526Y123645D01*
X27221Y123949D01*
X26823Y124114D01*
D02*
G37*
G36*
X71672Y125098D02*
X71241D01*
X70843Y124934D01*
X70539Y124629D01*
X70374Y124231D01*
Y123800D01*
X70539Y123403D01*
X70713Y123228D01*
X70539Y123054D01*
X70374Y122656D01*
Y122226D01*
X70539Y121828D01*
X70843Y121523D01*
X71241Y121358D01*
X71672D01*
X72070Y121523D01*
X72374Y121828D01*
X72539Y122226D01*
Y122656D01*
X72374Y123054D01*
X72200Y123228D01*
X72374Y123403D01*
X72539Y123800D01*
Y124231D01*
X72374Y124629D01*
X72070Y124934D01*
X71672Y125098D01*
D02*
G37*
G36*
X31121Y124705D02*
X30690D01*
X30292Y124540D01*
X29988Y124235D01*
X29823Y123837D01*
Y123407D01*
X29988Y123009D01*
X30162Y122835D01*
X29988Y122661D01*
X29823Y122263D01*
Y121832D01*
X29988Y121434D01*
X30292Y121129D01*
X30690Y120965D01*
X31121D01*
X31519Y121129D01*
X31823Y121434D01*
X31988Y121832D01*
Y122263D01*
X31823Y122661D01*
X31649Y122835D01*
X31823Y123009D01*
X31988Y123407D01*
Y123837D01*
X31823Y124235D01*
X31519Y124540D01*
X31121Y124705D01*
D02*
G37*
G36*
X75969Y118209D02*
X75539D01*
X75141Y118044D01*
X74836Y117739D01*
X74672Y117341D01*
Y116911D01*
X74836Y116513D01*
X75141Y116208D01*
X75539Y116043D01*
X75969D01*
X76367Y116208D01*
X76672Y116513D01*
X76837Y116911D01*
Y117341D01*
X76672Y117739D01*
X76367Y118044D01*
X75969Y118209D01*
D02*
G37*
G36*
X46869Y115650D02*
X46438D01*
X46040Y115485D01*
X45736Y115180D01*
X45571Y114782D01*
Y114352D01*
X45736Y113954D01*
X46040Y113649D01*
X46438Y113484D01*
X46869D01*
X47267Y113649D01*
X47571Y113954D01*
X47736Y114352D01*
Y114782D01*
X47571Y115180D01*
X47267Y115485D01*
X46869Y115650D01*
D02*
G37*
G36*
X67735Y115256D02*
X67304D01*
X66906Y115091D01*
X66602Y114787D01*
X66437Y114389D01*
Y113958D01*
X66602Y113560D01*
X66906Y113255D01*
X67304Y113091D01*
X67735D01*
X68133Y113255D01*
X68437Y113560D01*
X68602Y113958D01*
Y114389D01*
X68437Y114787D01*
X68133Y115091D01*
X67735Y115256D01*
D02*
G37*
G36*
X26200D02*
X25769D01*
X25371Y115091D01*
X25066Y114787D01*
X24902Y114389D01*
Y113958D01*
X25066Y113560D01*
X25371Y113255D01*
X25769Y113091D01*
X26200D01*
X26597Y113255D01*
X26902Y113560D01*
X27067Y113958D01*
Y114389D01*
X26902Y114787D01*
X26597Y115091D01*
X26200Y115256D01*
D02*
G37*
G36*
X44900Y113287D02*
X44470D01*
X44072Y113123D01*
X44027Y113078D01*
X43701Y112862D01*
X43374Y113078D01*
X43330Y113123D01*
X42932Y113287D01*
X42501D01*
X42103Y113123D01*
X41799Y112818D01*
X41634Y112420D01*
Y111989D01*
X41799Y111591D01*
X42103Y111287D01*
X42501Y111122D01*
X42932D01*
X43330Y111287D01*
X43374Y111331D01*
X43701Y111548D01*
X44027Y111331D01*
X44072Y111287D01*
X44470Y111122D01*
X44900D01*
X45298Y111287D01*
X45603Y111591D01*
X45768Y111989D01*
Y112420D01*
X45603Y112818D01*
X45298Y113123D01*
X44900Y113287D01*
D02*
G37*
G36*
X58483Y114469D02*
X58052D01*
X57654Y114304D01*
X57350Y113999D01*
X57185Y113601D01*
Y113171D01*
X57350Y112773D01*
X57654Y112468D01*
X58052Y112303D01*
X58483D01*
X58881Y112468D01*
X59186Y112773D01*
X59350Y113171D01*
Y113601D01*
X59186Y113999D01*
X58881Y114304D01*
X58483Y114469D01*
D02*
G37*
G36*
X38995Y113287D02*
X38564D01*
X38166Y113123D01*
X37862Y112818D01*
X37697Y112420D01*
Y111989D01*
X37862Y111591D01*
X38166Y111287D01*
X38564Y111122D01*
X38995D01*
X39393Y111287D01*
X39697Y111591D01*
X39862Y111989D01*
Y112420D01*
X39697Y112818D01*
X39393Y113123D01*
X38995Y113287D01*
D02*
G37*
G36*
X70294Y111122D02*
X69863D01*
X69466Y110957D01*
X69161Y110653D01*
X68996Y110255D01*
Y109824D01*
X69137Y109485D01*
X68763Y109170D01*
X68723Y109186D01*
X68678Y109204D01*
X68326Y109350D01*
X67895D01*
X67497Y109186D01*
X67192Y108881D01*
X66666D01*
X66361Y109186D01*
X65963Y109350D01*
X65533D01*
X65135Y109186D01*
X64830Y108881D01*
X64665Y108483D01*
Y108052D01*
X64830Y107654D01*
X65135Y107350D01*
X65533Y107185D01*
X65963D01*
X66361Y107350D01*
X66666Y107654D01*
X67192D01*
X67497Y107350D01*
X67895Y107185D01*
X68326D01*
X68723Y107350D01*
X69028Y107654D01*
X69193Y108052D01*
Y108483D01*
X69052Y108823D01*
X69425Y109137D01*
X69466Y109122D01*
X69511Y109103D01*
X69863Y108957D01*
X70294D01*
X70692Y109122D01*
X70997Y109426D01*
X71161Y109824D01*
Y110255D01*
X70997Y110653D01*
X70692Y110957D01*
X70294Y111122D01*
D02*
G37*
G36*
X63208Y109350D02*
X62777D01*
X62379Y109186D01*
X62335Y109141D01*
X62008Y108925D01*
X61681Y109141D01*
X61637Y109186D01*
X61239Y109350D01*
X60808D01*
X60410Y109186D01*
X60106Y108881D01*
X59941Y108483D01*
Y108052D01*
X60106Y107654D01*
X60410Y107350D01*
X60808Y107185D01*
X61239D01*
X61637Y107350D01*
X61681Y107394D01*
X62008Y107610D01*
X62335Y107394D01*
X62379Y107350D01*
X62777Y107185D01*
X63208D01*
X63605Y107350D01*
X63910Y107654D01*
X64075Y108052D01*
Y108483D01*
X63910Y108881D01*
X63605Y109186D01*
X63208Y109350D01*
D02*
G37*
G36*
X30274Y109350D02*
X29844D01*
X29446Y109186D01*
X29141Y108881D01*
X28976Y108483D01*
Y108052D01*
X29141Y107654D01*
X29446Y107350D01*
X29844Y107185D01*
X30274D01*
X30672Y107350D01*
X30977Y107654D01*
X31142Y108052D01*
Y108483D01*
X30977Y108881D01*
X30672Y109186D01*
X30274Y109350D01*
D02*
G37*
G36*
X58483Y109350D02*
X58052D01*
X57654Y109186D01*
X57350Y108881D01*
X57185Y108483D01*
Y108052D01*
X57350Y107654D01*
X57654Y107350D01*
X58052Y107185D01*
X58483D01*
X58881Y107350D01*
X59186Y107654D01*
X59350Y108052D01*
Y108483D01*
X59186Y108881D01*
X58881Y109186D01*
X58483Y109350D01*
D02*
G37*
G36*
X62223Y103445D02*
X61792D01*
X61394Y103280D01*
X61090Y102975D01*
X60563D01*
X60259Y103280D01*
X59861Y103445D01*
X59430D01*
X59032Y103280D01*
X58728Y102975D01*
X58563Y102578D01*
Y102557D01*
X57361Y101355D01*
X57013Y101026D01*
X56612Y100787D01*
X56271Y100719D01*
Y100706D01*
X54171D01*
X54157Y100721D01*
X53759Y100886D01*
X53328D01*
X52930Y100721D01*
X52626Y100416D01*
X52461Y100019D01*
Y99588D01*
X52626Y99190D01*
X52930Y98885D01*
X53328Y98721D01*
X53759D01*
X54157Y98885D01*
X54171Y98900D01*
X56271D01*
Y98893D01*
X57016Y98991D01*
X57711Y99278D01*
X58301Y99731D01*
X58298Y99734D01*
X58298Y99738D01*
X59840Y101279D01*
X59861D01*
X60259Y101444D01*
X60563Y101749D01*
X61090D01*
X61394Y101444D01*
X61628Y101348D01*
Y100818D01*
X61394Y100721D01*
X61090Y100417D01*
X60925Y100019D01*
Y99588D01*
X61090Y99190D01*
X61394Y98885D01*
X61792Y98721D01*
X62223D01*
X62621Y98885D01*
X62926Y99190D01*
X63090Y99588D01*
Y100019D01*
X62926Y100417D01*
X62621Y100721D01*
X62388Y100818D01*
Y101348D01*
X62621Y101444D01*
X62926Y101749D01*
X63090Y102147D01*
Y102578D01*
X62926Y102975D01*
X62621Y103280D01*
X62223Y103445D01*
D02*
G37*
G36*
X72263D02*
X71832D01*
X71434Y103280D01*
X71129Y102975D01*
X70965Y102578D01*
Y102147D01*
X71129Y101749D01*
X71434Y101444D01*
X71832Y101279D01*
X72263D01*
X72660Y101444D01*
X72965Y101749D01*
X73130Y102147D01*
Y102578D01*
X72965Y102975D01*
X72660Y103280D01*
X72263Y103445D01*
D02*
G37*
G36*
X36239Y99705D02*
X35808D01*
X35410Y99540D01*
X35106Y99235D01*
X34941Y98837D01*
Y98407D01*
X35106Y98009D01*
X35410Y97704D01*
X35808Y97539D01*
X36239D01*
X36637Y97704D01*
X36941Y98009D01*
X37106Y98407D01*
Y98837D01*
X36941Y99235D01*
X36637Y99540D01*
X36239Y99705D01*
D02*
G37*
G36*
X46475Y99508D02*
X46044D01*
X45647Y99343D01*
X45342Y99038D01*
X45177Y98641D01*
Y98210D01*
X45342Y97812D01*
X45647Y97507D01*
X46044Y97342D01*
X46475D01*
X46873Y97507D01*
X47178Y97812D01*
X47343Y98210D01*
Y98641D01*
X47178Y99038D01*
X46873Y99343D01*
X46475Y99508D01*
D02*
G37*
G36*
X64883Y98721D02*
X64453D01*
X64055Y98556D01*
X63750Y98251D01*
X63585Y97853D01*
Y97422D01*
X63750Y97025D01*
X64055Y96720D01*
X64453Y96555D01*
X64883D01*
X65281Y96720D01*
X65586Y97025D01*
X65751Y97422D01*
Y97853D01*
X65586Y98251D01*
X65281Y98556D01*
X64883Y98721D01*
D02*
G37*
G36*
X36436Y81398D02*
X36005D01*
X35607Y81233D01*
X35303Y80928D01*
X35138Y80530D01*
Y80100D01*
X35303Y79702D01*
X35607Y79397D01*
X36005Y79232D01*
X36436D01*
X36834Y79397D01*
X37138Y79702D01*
X37303Y80100D01*
Y80530D01*
X37138Y80928D01*
X36834Y81233D01*
X36436Y81398D01*
D02*
G37*
G36*
X39585Y78248D02*
X39155D01*
X38757Y78083D01*
X38452Y77779D01*
X38287Y77381D01*
Y77100D01*
X38120Y76841D01*
X37861Y76673D01*
X37730D01*
X37471Y76841D01*
X37303Y77100D01*
Y77381D01*
X37138Y77779D01*
X36834Y78083D01*
X36436Y78248D01*
X36005D01*
X35607Y78083D01*
X35303Y77779D01*
X35138Y77381D01*
Y76950D01*
X35303Y76552D01*
X35607Y76248D01*
X36005Y76083D01*
X36286D01*
X36545Y75915D01*
X36713Y75656D01*
Y75375D01*
X36877Y74977D01*
X37182Y74673D01*
X37580Y74508D01*
X37861D01*
X38120Y74340D01*
X38287Y74081D01*
Y73800D01*
X38452Y73403D01*
X38757Y73098D01*
X39155Y72933D01*
X39585D01*
X39983Y73098D01*
X40288Y73403D01*
X40453Y73800D01*
Y74231D01*
X40288Y74629D01*
X39983Y74934D01*
X39585Y75098D01*
X39305D01*
X39046Y75266D01*
X38878Y75525D01*
Y75656D01*
X39046Y75915D01*
X39305Y76083D01*
X39585D01*
X39983Y76248D01*
X40288Y76552D01*
X40453Y76950D01*
Y77381D01*
X40288Y77779D01*
X39983Y78083D01*
X39585Y78248D01*
D02*
G37*
G36*
X55334D02*
X54903D01*
X54505Y78083D01*
X54200Y77779D01*
X54035Y77381D01*
Y76950D01*
X54200Y76552D01*
X54505Y76248D01*
X54903Y76083D01*
X55334D01*
X55731Y76248D01*
X56036Y76552D01*
X56201Y76950D01*
Y77381D01*
X56036Y77779D01*
X55731Y78083D01*
X55334Y78248D01*
D02*
G37*
G36*
X42735Y78248D02*
X42305D01*
X41907Y78083D01*
X41602Y77778D01*
X41437Y77381D01*
Y76950D01*
X41602Y76552D01*
X41907Y76247D01*
X42305Y76082D01*
X42735D01*
X43133Y76247D01*
X43438Y76552D01*
X43603Y76950D01*
Y77381D01*
X43438Y77778D01*
X43133Y78083D01*
X42735Y78248D01*
D02*
G37*
G36*
X55334Y75098D02*
X54903D01*
X54505Y74934D01*
X54200Y74629D01*
X54035Y74231D01*
Y73800D01*
X54200Y73403D01*
X54505Y73098D01*
X54903Y72933D01*
X55334D01*
X55731Y73098D01*
X56036Y73403D01*
X56201Y73800D01*
Y74231D01*
X56036Y74629D01*
X55731Y74934D01*
X55334Y75098D01*
D02*
G37*
G36*
X42735D02*
X42304D01*
X41906Y74934D01*
X41602Y74629D01*
X41437Y74231D01*
Y73800D01*
X41602Y73403D01*
X41906Y73098D01*
X42304Y72933D01*
X42735D01*
X43133Y73098D01*
X43437Y73403D01*
X43602Y73800D01*
Y74231D01*
X43437Y74629D01*
X43133Y74934D01*
X42735Y75098D01*
D02*
G37*
G36*
X33286D02*
X32855D01*
X32458Y74934D01*
X32153Y74629D01*
X31988Y74231D01*
Y73800D01*
X32153Y73403D01*
X32458Y73098D01*
X32855Y72933D01*
X33286D01*
X33684Y73098D01*
X33989Y73403D01*
X34154Y73800D01*
Y74231D01*
X33989Y74629D01*
X33684Y74934D01*
X33286Y75098D01*
D02*
G37*
G36*
X55334Y71949D02*
X54903D01*
X54505Y71784D01*
X54200Y71479D01*
X54035Y71082D01*
Y70651D01*
X54200Y70253D01*
X54505Y69948D01*
X54903Y69784D01*
X55334D01*
X55731Y69948D01*
X56036Y70253D01*
X56201Y70651D01*
Y71082D01*
X56036Y71479D01*
X55731Y71784D01*
X55334Y71949D01*
D02*
G37*
G36*
X45885D02*
X45454D01*
X45056Y71784D01*
X44751Y71479D01*
X44587Y71082D01*
Y70651D01*
X44751Y70253D01*
X45056Y69948D01*
X45454Y69784D01*
X45885D01*
X46283Y69948D01*
X46587Y70253D01*
X46752Y70651D01*
Y71082D01*
X46587Y71479D01*
X46283Y71784D01*
X45885Y71949D01*
D02*
G37*
G36*
X42735D02*
X42304D01*
X41906Y71784D01*
X41602Y71479D01*
X41437Y71082D01*
Y70651D01*
X41602Y70253D01*
X41906Y69948D01*
X42304Y69784D01*
X42735D01*
X43133Y69948D01*
X43437Y70253D01*
X43602Y70651D01*
Y71082D01*
X43437Y71479D01*
X43133Y71784D01*
X42735Y71949D01*
D02*
G37*
G36*
X39585D02*
X39155D01*
X38757Y71784D01*
X38452Y71479D01*
X38287Y71082D01*
Y70651D01*
X38452Y70253D01*
X38757Y69948D01*
X39155Y69784D01*
X39585D01*
X39983Y69948D01*
X40288Y70253D01*
X40453Y70651D01*
Y71082D01*
X40288Y71479D01*
X39983Y71784D01*
X39585Y71949D01*
D02*
G37*
G36*
X36436D02*
X36005D01*
X35607Y71784D01*
X35303Y71479D01*
X35138Y71082D01*
Y70651D01*
X35303Y70253D01*
X35607Y69948D01*
X36005Y69784D01*
X36436D01*
X36834Y69948D01*
X37138Y70253D01*
X37303Y70651D01*
Y71082D01*
X37138Y71479D01*
X36834Y71784D01*
X36436Y71949D01*
D02*
G37*
G36*
X55334Y68799D02*
X54903D01*
X54505Y68634D01*
X54200Y68330D01*
X54035Y67932D01*
Y67501D01*
X54200Y67103D01*
X54505Y66799D01*
X54903Y66634D01*
X55334D01*
X55731Y66799D01*
X56036Y67103D01*
X56201Y67501D01*
Y67932D01*
X56036Y68330D01*
X55731Y68634D01*
X55334Y68799D01*
D02*
G37*
G36*
X52184D02*
X51753D01*
X51355Y68634D01*
X51051Y68330D01*
X50886Y67932D01*
Y67501D01*
X51051Y67103D01*
X51355Y66799D01*
X51753Y66634D01*
X52184D01*
X52582Y66799D01*
X52886Y67103D01*
X53051Y67501D01*
Y67932D01*
X52886Y68330D01*
X52582Y68634D01*
X52184Y68799D01*
D02*
G37*
G36*
X49034D02*
X48603D01*
X48206Y68634D01*
X47901Y68330D01*
X47736Y67932D01*
Y67501D01*
X47901Y67103D01*
X48206Y66799D01*
X48603Y66634D01*
X49034D01*
X49432Y66799D01*
X49737Y67103D01*
X49902Y67501D01*
Y67932D01*
X49737Y68330D01*
X49432Y68634D01*
X49034Y68799D01*
D02*
G37*
G36*
X45885D02*
X45454D01*
X45056Y68634D01*
X44751Y68330D01*
X44587Y67932D01*
Y67501D01*
X44751Y67103D01*
X45056Y66799D01*
X45454Y66634D01*
X45885D01*
X46283Y66799D01*
X46587Y67103D01*
X46752Y67501D01*
Y67932D01*
X46587Y68330D01*
X46283Y68634D01*
X45885Y68799D01*
D02*
G37*
G36*
X42735D02*
X42304D01*
X41906Y68634D01*
X41602Y68330D01*
X41437Y67932D01*
Y67501D01*
X41602Y67103D01*
X41906Y66799D01*
X42304Y66634D01*
X42735D01*
X43133Y66799D01*
X43437Y67103D01*
X43602Y67501D01*
Y67932D01*
X43437Y68330D01*
X43133Y68634D01*
X42735Y68799D01*
D02*
G37*
G36*
X39585D02*
X39155D01*
X38757Y68634D01*
X38452Y68330D01*
X38287Y67932D01*
Y67501D01*
X38452Y67103D01*
X38757Y66799D01*
X39155Y66634D01*
X39585D01*
X39983Y66799D01*
X40288Y67103D01*
X40453Y67501D01*
Y67932D01*
X40288Y68330D01*
X39983Y68634D01*
X39585Y68799D01*
D02*
G37*
G36*
X36436D02*
X36005D01*
X35607Y68634D01*
X35303Y68330D01*
X35138Y67932D01*
Y67501D01*
X35303Y67103D01*
X35607Y66799D01*
X36005Y66634D01*
X36436D01*
X36834Y66799D01*
X37138Y67103D01*
X37303Y67501D01*
Y67932D01*
X37138Y68330D01*
X36834Y68634D01*
X36436Y68799D01*
D02*
G37*
G36*
X30530Y65650D02*
X30100D01*
X29702Y65485D01*
X29528Y65311D01*
X29353Y65485D01*
X28956Y65650D01*
X28525D01*
X28127Y65485D01*
X27822Y65180D01*
X27657Y64782D01*
Y64734D01*
X27589Y64340D01*
X27196Y64272D01*
X27147D01*
X26749Y64107D01*
X26444Y63802D01*
X26280Y63404D01*
Y62974D01*
X26444Y62576D01*
X26749Y62271D01*
X27147Y62106D01*
X27578D01*
X27975Y62271D01*
X28280Y62576D01*
X28445Y62974D01*
Y63022D01*
X28513Y63416D01*
X28907Y63484D01*
X28956D01*
X29353Y63649D01*
X29528Y63823D01*
X29702Y63649D01*
X30100Y63484D01*
X30530D01*
X30928Y63649D01*
X31233Y63954D01*
X31398Y64352D01*
Y64782D01*
X31233Y65180D01*
X30928Y65485D01*
X30530Y65650D01*
D02*
G37*
G36*
X55334D02*
X54903D01*
X54505Y65485D01*
X54200Y65180D01*
X54035Y64782D01*
Y64352D01*
X54200Y63954D01*
X54505Y63649D01*
X54903Y63484D01*
X55334D01*
X55731Y63649D01*
X56036Y63954D01*
X56201Y64352D01*
Y64782D01*
X56036Y65180D01*
X55731Y65485D01*
X55334Y65650D01*
D02*
G37*
G36*
X52184D02*
X51753D01*
X51355Y65485D01*
X51051Y65180D01*
X50886Y64782D01*
Y64352D01*
X51051Y63954D01*
X51355Y63649D01*
X51753Y63484D01*
X52184D01*
X52582Y63649D01*
X52886Y63954D01*
X53051Y64352D01*
Y64782D01*
X52886Y65180D01*
X52582Y65485D01*
X52184Y65650D01*
D02*
G37*
G36*
X63106Y63287D02*
X62676D01*
X62278Y63123D01*
X61973Y62818D01*
X61808Y62420D01*
Y61989D01*
X61973Y61591D01*
X62278Y61287D01*
X62676Y61122D01*
X63106D01*
X63504Y61287D01*
X63809Y61591D01*
X63974Y61989D01*
Y62420D01*
X63809Y62818D01*
X63504Y63123D01*
X63106Y63287D01*
D02*
G37*
G36*
X29743Y95177D02*
X29312D01*
X28914Y95012D01*
X28610Y94708D01*
X28445Y94310D01*
Y93879D01*
X28610Y93481D01*
X28914Y93177D01*
X29312Y93012D01*
X29743D01*
X30141Y93177D01*
X30445Y93481D01*
X30610Y93879D01*
Y94310D01*
X30445Y94708D01*
X30141Y95012D01*
X29743Y95177D01*
D02*
G37*
G36*
X24822Y94587D02*
X24391D01*
X23993Y94422D01*
X23688Y94117D01*
X23524Y93719D01*
Y93289D01*
X23688Y92891D01*
X23993Y92586D01*
X24391Y92421D01*
X24822D01*
X25220Y92586D01*
X25524Y92891D01*
X25689Y93289D01*
Y93719D01*
X25524Y94117D01*
X25220Y94422D01*
X24822Y94587D01*
D02*
G37*
G36*
X58483Y90847D02*
X58053D01*
X57655Y90682D01*
X57350Y90377D01*
X57185Y89979D01*
Y89549D01*
X57350Y89151D01*
X57655Y88846D01*
X58053Y88682D01*
X58483D01*
X58881Y88846D01*
X59186Y89151D01*
X59351Y89549D01*
Y89979D01*
X59186Y90377D01*
X58881Y90682D01*
X58483Y90847D01*
D02*
G37*
G36*
X49034Y90847D02*
X48603D01*
X48206Y90682D01*
X47901Y90377D01*
X47736Y89979D01*
Y89548D01*
X47901Y89151D01*
X48206Y88846D01*
X48603Y88681D01*
X49034D01*
X49432Y88846D01*
X49737Y89151D01*
X49902Y89548D01*
Y89979D01*
X49737Y90377D01*
X49432Y90682D01*
X49034Y90847D01*
D02*
G37*
G36*
X42735D02*
X42304D01*
X41906Y90682D01*
X41602Y90377D01*
X41437Y89979D01*
Y89548D01*
X41602Y89151D01*
X41906Y88846D01*
X42304Y88681D01*
X42735D01*
X43133Y88846D01*
X43437Y89151D01*
X43602Y89548D01*
Y89979D01*
X43437Y90377D01*
X43133Y90682D01*
X42735Y90847D01*
D02*
G37*
G36*
X39585D02*
X39155D01*
X38757Y90682D01*
X38452Y90377D01*
X38287Y89979D01*
Y89548D01*
X38452Y89151D01*
X38757Y88846D01*
X39155Y88681D01*
X39585D01*
X39983Y88846D01*
X40288Y89151D01*
X40453Y89548D01*
Y89979D01*
X40288Y90377D01*
X39983Y90682D01*
X39585Y90847D01*
D02*
G37*
G36*
X29743Y89665D02*
X29312D01*
X28914Y89500D01*
X28610Y89196D01*
X28445Y88798D01*
Y88367D01*
X28610Y87969D01*
X28914Y87665D01*
X29312Y87500D01*
X29743D01*
X30141Y87665D01*
X30445Y87969D01*
X30610Y88367D01*
Y88798D01*
X30445Y89196D01*
X30141Y89500D01*
X29743Y89665D01*
D02*
G37*
G36*
X49034Y87697D02*
X48603D01*
X48206Y87532D01*
X47901Y87227D01*
X47736Y86830D01*
Y86399D01*
X47901Y86001D01*
X48206Y85696D01*
X48603Y85532D01*
X48884D01*
X49143Y85364D01*
X49311Y85105D01*
Y84824D01*
X49476Y84426D01*
X49780Y84122D01*
X50178Y83957D01*
X50609D01*
X51007Y84122D01*
X51311Y84426D01*
X51476Y84824D01*
Y85255D01*
X51311Y85653D01*
X51007Y85957D01*
X50609Y86122D01*
X50328D01*
X50069Y86290D01*
X49902Y86549D01*
Y86830D01*
X49737Y87227D01*
X49432Y87532D01*
X49034Y87697D01*
D02*
G37*
%LPD*%
D72*
X65041Y56693D02*
G03*
X66429Y57266I0J1969D01*
G01*
X20079Y17941D02*
G03*
X20651Y16553I1969J0D01*
G01*
X21474Y58447D02*
G03*
X22863Y57874I1388J1396D01*
G01*
X25822Y11383D02*
G03*
X26966Y10827I1386J1398D01*
G01*
X20061Y131085D02*
G03*
X19488Y129696I1396J-1388D01*
G01*
X18920Y118111D02*
G03*
X18504Y116901I1553J-1210D01*
G01*
Y62233D02*
G03*
X19077Y60844I1969J0D01*
G01*
X20651Y51163D02*
G03*
X20079Y49775I1396J-1388D01*
G01*
X29152Y57266D02*
G03*
X30540Y56693I1388J1396D01*
G01*
X49242Y50840D02*
G03*
X49214Y51175I-1969J0D01*
G01*
X21654Y122336D02*
G03*
X22228Y120946I1969J0D01*
G01*
X19070Y118303D02*
G03*
X19488Y119516I-1550J1213D01*
G01*
X32480Y98793D02*
G03*
X31909Y100180I-1969J0D01*
G01*
X30287Y47244D02*
G03*
X31675Y47817I0J1969D01*
G01*
X22226Y34564D02*
G03*
X21654Y33176I1396J-1388D01*
G01*
Y25879D02*
G03*
X22800Y24090I1969J-0D01*
G01*
X21654Y110524D02*
G03*
X22800Y108736I1969J-0D01*
G01*
X82480Y66508D02*
G03*
X81904Y67899I-1969J0D01*
G01*
X50984Y95740D02*
G03*
X51178Y94887I1969J0D01*
G01*
X60844Y76592D02*
G03*
X61417Y77981I-1396J1388D01*
G01*
X59663Y60844D02*
G03*
X60236Y62233I-1396J1388D01*
G01*
X79151Y95096D02*
G03*
X79724Y96485I-1396J1388D01*
G01*
X22226Y131021D02*
G03*
X21654Y129633I1396J-1388D01*
G01*
X22226Y46375D02*
G03*
X21654Y44987I1396J-1388D01*
G01*
X60236Y64933D02*
G03*
X59660Y66325I-1969J-0D01*
G01*
X67628Y72809D02*
G03*
X66553Y72262I313J-1943D01*
G01*
X79844Y52573D02*
G03*
X78634Y53141I-1392J-1392D01*
G01*
X55933Y83465D02*
G03*
X54545Y82892I0J-1969D01*
G01*
X80709Y50893D02*
G03*
X80128Y52289I-1969J0D01*
G01*
X51557Y121469D02*
G03*
X50984Y120081I1396J-1388D01*
G01*
X58282Y83479D02*
G03*
X58268Y83465I1396J-1388D01*
G01*
X58270Y67714D02*
G03*
X58268Y67716I-1394J-1390D01*
G01*
X79269Y125983D02*
G03*
X79267Y125984I-698J-694D01*
G01*
X23819Y47244D02*
G03*
X22526Y46676I94J-1966D01*
G01*
X39370Y59913D02*
G03*
X39564Y59061I1969J0D01*
G01*
X32480Y98256D02*
G03*
X33050Y96871I1969J0D01*
G01*
X73443Y64978D02*
G03*
X74016Y66366I-1396J1388D01*
G01*
X76363Y94306D02*
G03*
X74972Y94882I-1391J-1393D01*
G01*
X63752Y51181D02*
G03*
X65140Y51754I0J1969D01*
G01*
X80136Y126853D02*
G03*
X80709Y128241I-1396J1388D01*
G01*
X75394Y68280D02*
G03*
X74818Y69671I-1969J-0D01*
G01*
X56271Y99803D02*
G03*
X57660Y100376I0J1969D01*
G01*
X80709Y135538D02*
G03*
X79562Y137327I-1969J-0D01*
G01*
X34458Y95464D02*
G03*
X35855Y94882I1397J1387D01*
G01*
X80709Y123727D02*
G03*
X80132Y125119I-1969J-0D01*
G01*
X38553Y84269D02*
G03*
X37163Y84842I-1389J-1395D01*
G01*
X22226Y119210D02*
G03*
X21654Y117822I1396J-1388D01*
G01*
X41943Y80892D02*
G03*
X43335Y80315I1393J1391D01*
G01*
X75394Y55406D02*
G03*
X75971Y54014I1969J0D01*
G01*
X35855Y51181D02*
G03*
X34466Y50608I0J-1969D01*
G01*
X76261Y53723D02*
G03*
X77650Y53150I1389J1395D01*
G01*
X70651Y62187D02*
G03*
X70079Y60799I1396J-1388D01*
G01*
X21654Y37690D02*
G03*
X22228Y36300I1969J0D01*
G01*
X79839Y125413D02*
G03*
X79838Y125414I-1389J-1395D01*
G01*
X61417Y79500D02*
G03*
X60841Y80892I-1969J-0D01*
G01*
X23819Y131890D02*
G03*
X22526Y131321I94J-1966D01*
G01*
X80136Y42207D02*
G03*
X80709Y43595I-1396J1388D01*
G01*
X79562Y29996D02*
G03*
X80709Y31784I-822J1789D01*
G01*
X24744Y107404D02*
G03*
X24695Y107452I-1122J-1105D01*
G01*
X76557Y73246D02*
G03*
X75169Y73819I-1388J-1396D01*
G01*
X80709Y39082D02*
G03*
X80132Y40474I-1969J-0D01*
G01*
X79269Y41337D02*
G03*
X79267Y41339I-698J-694D01*
G01*
X79839Y40767D02*
G03*
X79838Y40768I-1389J-1395D01*
G01*
X74044Y73819D02*
G03*
X73727Y73793I0J-1969D01*
G01*
X33872Y59632D02*
G03*
X35264Y59055I1392J1392D01*
G01*
X79271Y41335D02*
G03*
X79269Y41337I-1394J-1390D01*
G01*
X78548Y114169D02*
G03*
X78543Y114173I-1396J-1388D01*
G01*
X57059Y59055D02*
G03*
X58447Y59628I0J1969D01*
G01*
X79271Y125980D02*
G03*
X79269Y125983I-1394J-1390D01*
G01*
X79724Y112177D02*
G03*
X79148Y113568I-1969J0D01*
G01*
X69506Y56120D02*
G03*
X70079Y57508I-1396J1388D01*
G01*
X79562Y114641D02*
G03*
X80709Y116430I-822J1789D01*
G01*
X82480Y21288D02*
Y66508D01*
X71063Y10630D02*
X71822D01*
X82480Y21288D01*
X20651Y16553D02*
X25822Y11383D01*
X30540Y56693D02*
X65041D01*
X22863Y57874D02*
X27362D01*
X26966Y10827D02*
X26969Y10827D01*
X20079Y17941D02*
Y49775D01*
X19488Y119516D02*
Y129696D01*
X18504Y62233D02*
Y116901D01*
X19077Y60844D02*
X21474Y58447D01*
X28543Y57874D02*
X29152Y57266D01*
X58270Y67714D02*
X59660Y66325D01*
X80709Y123727D02*
X80709Y116430D01*
X51178Y94887D02*
X51181Y94882D01*
X79839Y125413D02*
X80132Y125119D01*
X58282Y83479D02*
X61417Y86614D01*
X61417Y79500D02*
X61417Y77981D01*
X58268Y83465D02*
X58844Y82888D01*
X53543Y99803D02*
X56271D01*
X57660Y100376D02*
X59646Y102362D01*
X51181Y94882D02*
X74972D01*
X79844Y52573D02*
X80128Y52289D01*
X22228Y120946D02*
X23095Y120079D01*
X49213Y51181D02*
X49214Y51175D01*
X51968Y80315D02*
X54545Y82892D01*
X60236Y64933D02*
X60236Y62233D01*
X58447Y59628D02*
X59663Y60844D01*
X55933Y83465D02*
X58268D01*
X18920Y118111D02*
X19070Y118303D01*
X20651Y51163D02*
X27362Y57874D01*
X22800Y108736D02*
X23819Y108268D01*
X22228Y36300D02*
X23095Y35433D01*
X80709Y39082D02*
X80709Y31784D01*
X70079Y57508D02*
Y60799D01*
X66429Y57266D02*
X67037Y57874D01*
X65748Y71457D02*
X66553Y72262D01*
X67628Y72809D02*
X73727Y73793D01*
X20472Y84842D02*
X37163D01*
X74016Y70474D02*
Y71655D01*
X76557Y73246D02*
X81904Y67899D01*
X39564Y59061D02*
X39567Y59055D01*
X57059D01*
X48819Y80315D02*
X51968D01*
X58844Y82888D02*
X60841Y80892D01*
X43335Y80315D02*
X48819D01*
X74044Y73819D02*
X75169D01*
X33465Y60039D02*
X33872Y59632D01*
X35264Y59055D02*
X39567D01*
X20061Y131085D02*
X23819Y134843D01*
X39370Y59913D02*
Y64567D01*
X58268Y74016D02*
X60844Y76592D01*
X58268Y71457D02*
Y74016D01*
Y67716D02*
Y71457D01*
X65748D01*
X38553Y84269D02*
X41943Y80892D01*
X78543Y53150D02*
X78634Y53141D01*
X49242Y38386D02*
Y50840D01*
X77362Y84449D02*
Y93307D01*
X76363Y94306D02*
X76785Y93884D01*
X21654Y110524D02*
Y117822D01*
X65140Y51754D02*
X69506Y56120D01*
X79271Y41335D02*
X79838Y40768D01*
X74016Y70474D02*
X74818Y69671D01*
X75394Y68280D02*
X75394Y55406D01*
X31675Y47817D02*
X34466Y50608D01*
X70651Y62187D02*
X73443Y64978D01*
X80709Y135538D02*
X80709Y128241D01*
X33050Y96871D02*
X34458Y95464D01*
X79724Y96485D02*
Y112177D01*
X78543Y29528D02*
X79562Y29996D01*
X76785Y93884D02*
X77362Y93307D01*
X67037Y57874D02*
X68218D01*
X27362D02*
X28543D01*
X79267Y41339D02*
X80136Y42207D01*
X78548Y114169D02*
X79148Y113568D01*
X75971Y54014D02*
X76261Y53723D01*
X79839Y40767D02*
X80132Y40474D01*
X21654Y122336D02*
Y129633D01*
X35855Y94882D02*
X51181D01*
X23819Y47244D02*
X30287D01*
X79271Y125980D02*
X79838Y125414D01*
X23095Y35433D02*
X23819D01*
X22800Y24090D02*
X23819Y23622D01*
X32480Y98793D02*
X32480Y98256D01*
X80709Y43595D02*
Y50893D01*
X22226Y131021D02*
X22526Y131321D01*
X22226Y34564D02*
X23095Y35433D01*
X21654Y37690D02*
Y44987D01*
X23095Y120079D02*
X23819D01*
X22226Y119210D02*
X23095Y120079D01*
X24744Y107404D02*
X31909Y100180D01*
X51557Y121469D02*
X53120Y123031D01*
X22226Y46375D02*
X22526Y46676D01*
X74016Y66366D02*
Y70474D01*
X35855Y51181D02*
X49213D01*
X21654Y25879D02*
Y33176D01*
X79267Y125984D02*
X80136Y126853D01*
X78543Y125984D02*
X79267D01*
X49213Y51181D02*
X63752D01*
X77650Y53150D02*
X78543D01*
X78543Y137795D02*
X79562Y137327D01*
X23819Y108268D02*
X24695Y107452D01*
X78543Y41339D02*
X79267D01*
X77362Y93307D02*
X79151Y95096D01*
X50984Y95740D02*
Y120081D01*
X78543Y114173D02*
X79562Y114641D01*
D76*
X76785Y93884D02*
D03*
X42913Y5810D02*
D03*
X23622Y152953D02*
D03*
X24803D02*
D03*
X22441D02*
D03*
X78740D02*
D03*
X79921D02*
D03*
X77559D02*
D03*
X78740Y145472D02*
D03*
X79921D02*
D03*
X77559D02*
D03*
X23622D02*
D03*
X24803D02*
D03*
X22441D02*
D03*
X71653Y148868D02*
D03*
X69291D02*
D03*
X74016D02*
D03*
X55118Y151575D02*
D03*
X50393Y148868D02*
D03*
X52755D02*
D03*
X35827D02*
D03*
X28741D02*
D03*
X26378D02*
D03*
X33465D02*
D03*
X31102D02*
D03*
X71063Y10630D02*
D03*
X9056Y141340D02*
D03*
X6694Y142521D02*
D03*
X20472Y94488D02*
D03*
X69190Y90551D02*
D03*
X68009D02*
D03*
X25787Y61102D02*
D03*
X23425D02*
D03*
X24606D02*
D03*
X5414Y101772D02*
D03*
X6595D02*
D03*
X5414Y102953D02*
D03*
X6595D02*
D03*
X36220Y70866D02*
D03*
X34252Y53150D02*
D03*
X83701Y100295D02*
D03*
X81339D02*
D03*
X82520D02*
D03*
X81339Y99114D02*
D03*
X82520D02*
D03*
X83701D02*
D03*
X70236Y71161D02*
D03*
X69055D02*
D03*
X67874D02*
D03*
X70236Y69980D02*
D03*
X69055D02*
D03*
X67874D02*
D03*
X72047Y75197D02*
D03*
Y76378D02*
D03*
Y77559D02*
D03*
X67874Y64862D02*
D03*
X69055D02*
D03*
X70236D02*
D03*
X59842Y54528D02*
D03*
X75754Y44291D02*
D03*
X71457Y39370D02*
D03*
X71457Y37795D02*
D03*
X64370Y23622D02*
D03*
X37992Y137795D02*
D03*
X6693Y55315D02*
D03*
Y54134D02*
D03*
X5512Y55315D02*
D03*
Y54134D02*
D03*
X4331Y55315D02*
D03*
Y54134D02*
D03*
X59646Y102362D02*
D03*
X53543Y99803D02*
D03*
X49242Y119094D02*
D03*
X68898Y105118D02*
D03*
X72047Y102362D02*
D03*
X9055Y87008D02*
D03*
X4724Y79921D02*
D03*
X7058Y77756D02*
D03*
X66828Y90551D02*
D03*
X64668Y92913D02*
D03*
X65748Y22244D02*
D03*
X70669Y27362D02*
D03*
Y25394D02*
D03*
X34254Y139173D02*
D03*
X39370Y64567D02*
D03*
X26969Y10827D02*
D03*
X84449Y58071D02*
D03*
X41339Y137795D02*
D03*
X25984D02*
D03*
X23819Y134843D02*
D03*
X20472Y88583D02*
D03*
X17323Y128740D02*
D03*
Y129921D02*
D03*
Y131102D02*
D03*
X20472Y68504D02*
D03*
X61423Y39370D02*
D03*
X63785D02*
D03*
X62604Y38188D02*
D03*
Y40551D02*
D03*
X60242Y38188D02*
D03*
X61423Y37007D02*
D03*
X63785D02*
D03*
X64966Y38188D02*
D03*
Y40551D02*
D03*
X63785Y41732D02*
D03*
X61423D02*
D03*
X60242Y40551D02*
D03*
X53120Y40354D02*
D03*
Y42323D02*
D03*
X38577Y122048D02*
D03*
X40939D02*
D03*
X39758Y120867D02*
D03*
Y123229D02*
D03*
X37396Y120867D02*
D03*
X38577Y119685D02*
D03*
X40939D02*
D03*
X42121Y120867D02*
D03*
Y123229D02*
D03*
X40939Y124410D02*
D03*
X38577D02*
D03*
X37396Y123229D02*
D03*
X58268Y108268D02*
D03*
X60242Y122834D02*
D03*
X58268Y113386D02*
D03*
X60242Y125196D02*
D03*
X61423Y124015D02*
D03*
X63785D02*
D03*
X62604Y122834D02*
D03*
Y125196D02*
D03*
X61423Y121653D02*
D03*
X63785D02*
D03*
X64966Y122834D02*
D03*
Y125196D02*
D03*
X63785Y126377D02*
D03*
X61423D02*
D03*
X37396Y38583D02*
D03*
X38577Y39764D02*
D03*
X40939D02*
D03*
X42121Y38583D02*
D03*
Y36221D02*
D03*
X40939Y35040D02*
D03*
X38577D02*
D03*
X37396Y36221D02*
D03*
X39758Y38583D02*
D03*
Y36221D02*
D03*
X40939Y37402D02*
D03*
X38577D02*
D03*
X74016Y71655D02*
D03*
X54921Y53347D02*
D03*
X54528Y59055D02*
D03*
X46260Y98425D02*
D03*
X36024Y98622D02*
D03*
X61417Y86614D02*
D03*
X48819Y59055D02*
D03*
X42323Y55118D02*
D03*
X33465Y60039D02*
D03*
X65748Y71457D02*
D03*
X58268Y67716D02*
D03*
Y74016D02*
D03*
X48819Y80315D02*
D03*
X51968D02*
D03*
X20472Y84842D02*
D03*
X43307Y24606D02*
D03*
X24606Y93504D02*
D03*
X44882Y132555D02*
D03*
X49246Y117130D02*
D03*
X27362Y63189D02*
D03*
X20472Y71063D02*
D03*
X44094Y53150D02*
D03*
X58071Y21654D02*
D03*
X46457Y134055D02*
D03*
X53120Y123031D02*
D03*
X49242Y38386D02*
D03*
X53543Y85039D02*
D03*
X50394D02*
D03*
X75787Y50197D02*
D03*
X20472Y66142D02*
D03*
Y73622D02*
D03*
X28543Y19685D02*
D03*
X44685Y112205D02*
D03*
X55709Y135433D02*
D03*
X65748Y137992D02*
D03*
X68110Y139961D02*
D03*
X77953Y96949D02*
D03*
X28543Y57874D02*
D03*
X27362D02*
D03*
X20472Y80709D02*
D03*
X68218Y57874D02*
D03*
X67037D02*
D03*
X62891Y62205D02*
D03*
X81339Y93996D02*
D03*
X78740Y39173D02*
D03*
X77953Y99311D02*
D03*
X93371Y100330D02*
D03*
X62008Y99803D02*
D03*
Y102362D02*
D03*
X94488Y68898D02*
D03*
X87008Y59449D02*
D03*
Y57087D02*
D03*
Y58268D02*
D03*
X89764Y62402D02*
D03*
Y60039D02*
D03*
Y61221D02*
D03*
X72047Y57087D02*
D03*
Y59449D02*
D03*
Y58268D02*
D03*
X84416Y64567D02*
D03*
X74016Y70474D02*
D03*
X77362Y83268D02*
D03*
Y85630D02*
D03*
Y84449D02*
D03*
X75361Y88189D02*
D03*
X64668Y97638D02*
D03*
X77953Y98130D02*
D03*
X86221Y93701D02*
D03*
X87402Y93701D02*
D03*
X86221Y90158D02*
D03*
Y91339D02*
D03*
Y92520D02*
D03*
Y86614D02*
D03*
Y87795D02*
D03*
Y88976D02*
D03*
X87402Y90158D02*
D03*
Y91339D02*
D03*
Y92520D02*
D03*
Y86614D02*
D03*
Y87795D02*
D03*
Y88976D02*
D03*
X82520Y93996D02*
D03*
X83701D02*
D03*
X88583Y93701D02*
D03*
Y90158D02*
D03*
Y91339D02*
D03*
Y92520D02*
D03*
X89764Y91339D02*
D03*
Y92520D02*
D03*
Y93701D02*
D03*
X90945Y91339D02*
D03*
Y92520D02*
D03*
Y93701D02*
D03*
Y90158D02*
D03*
X89764D02*
D03*
X90945Y88976D02*
D03*
X88583D02*
D03*
X89764D02*
D03*
X90945Y87795D02*
D03*
X88583D02*
D03*
X89764D02*
D03*
X90945Y86614D02*
D03*
X88583D02*
D03*
X89764D02*
D03*
X90945Y85433D02*
D03*
X88583D02*
D03*
X89764D02*
D03*
X87402D02*
D03*
X86221Y85433D02*
D03*
X90945Y84252D02*
D03*
X88583D02*
D03*
X89764D02*
D03*
X87402D02*
D03*
X86221Y84252D02*
D03*
Y83071D02*
D03*
X87402Y83071D02*
D03*
X89764D02*
D03*
X88583D02*
D03*
X90945D02*
D03*
X87402Y108071D02*
D03*
X86221Y110433D02*
D03*
X87402D02*
D03*
Y109252D02*
D03*
X90945Y106890D02*
D03*
X89764Y109252D02*
D03*
X88583Y106890D02*
D03*
X89764D02*
D03*
X88583Y109252D02*
D03*
X89764Y108071D02*
D03*
Y110433D02*
D03*
X86221Y108071D02*
D03*
X87402Y106890D02*
D03*
X90945Y109252D02*
D03*
X88583Y108071D02*
D03*
X86221Y109252D02*
D03*
X88583Y110433D02*
D03*
X86221Y106890D02*
D03*
X90945Y108071D02*
D03*
Y110433D02*
D03*
X41456Y20552D02*
D03*
X39035Y10827D02*
D03*
X23957D02*
D03*
X33473Y15551D02*
D03*
X31504Y6103D02*
D03*
X35441D02*
D03*
X37410D02*
D03*
X25599D02*
D03*
X27567D02*
D03*
X64969D02*
D03*
X70874D02*
D03*
X66937D02*
D03*
X74811D02*
D03*
X72843Y15551D02*
D03*
X78405Y10827D02*
D03*
X76780Y6103D02*
D03*
X37795Y75590D02*
D03*
X45669Y77165D02*
D03*
X42520D02*
D03*
X39370Y80315D02*
D03*
X51968Y67716D02*
D03*
Y64567D02*
D03*
X61024Y23622D02*
D03*
X57284Y28740D02*
D03*
X58268Y64567D02*
D03*
X55118Y80315D02*
D03*
X59842Y16929D02*
D03*
X55118Y67716D02*
D03*
Y70866D02*
D03*
X55709Y46850D02*
D03*
X53120Y44291D02*
D03*
X42520Y70866D02*
D03*
X58268Y80315D02*
D03*
Y77165D02*
D03*
X62461Y11000D02*
D03*
X42520Y74016D02*
D03*
X45669Y70866D02*
D03*
X42717Y27559D02*
D03*
X45669Y67716D02*
D03*
X48819D02*
D03*
X55118Y77165D02*
D03*
Y74016D02*
D03*
Y64567D02*
D03*
X30315D02*
D03*
X36614Y53150D02*
D03*
X39370D02*
D03*
X41339D02*
D03*
X28740Y64567D02*
D03*
X36220Y67716D02*
D03*
X39370D02*
D03*
X42520D02*
D03*
X33071Y74016D02*
D03*
X20472Y90551D02*
D03*
X39370Y70866D02*
D03*
Y77165D02*
D03*
X36220D02*
D03*
Y80315D02*
D03*
X39370Y74016D02*
D03*
X20472Y92716D02*
D03*
X29528Y83071D02*
D03*
Y88583D02*
D03*
Y94095D02*
D03*
Y99606D02*
D03*
X23622Y140551D02*
D03*
Y106299D02*
D03*
Y117126D02*
D03*
Y129921D02*
D03*
X36614Y139173D02*
D03*
X46654Y114567D02*
D03*
X49242Y121063D02*
D03*
X44094Y137795D02*
D03*
X39370Y89764D02*
D03*
Y92913D02*
D03*
X42520D02*
D03*
Y89764D02*
D03*
X48819Y86614D02*
D03*
Y89764D02*
D03*
X53120Y128937D02*
D03*
X55709Y131496D02*
D03*
X59646Y133858D02*
D03*
X63583D02*
D03*
X57677D02*
D03*
X61024Y108268D02*
D03*
X58268Y89764D02*
D03*
Y92913D02*
D03*
X94488Y141339D02*
D03*
X93307D02*
D03*
X95669Y142520D02*
D03*
Y141339D02*
D03*
X96850Y142520D02*
D03*
Y141339D02*
D03*
X98032Y142520D02*
D03*
Y141339D02*
D03*
X4332Y141340D02*
D03*
Y142521D02*
D03*
X5513Y141340D02*
D03*
Y142521D02*
D03*
X6694Y141340D02*
D03*
X7875D02*
D03*
X84842Y21457D02*
D03*
X86024D02*
D03*
X87205D02*
D03*
X88386D02*
D03*
X86024Y19094D02*
D03*
X84842D02*
D03*
X88386Y20276D02*
D03*
X89567D02*
D03*
X90748D02*
D03*
X87205D02*
D03*
X86024D02*
D03*
X84842D02*
D03*
X89567Y21457D02*
D03*
X90748D02*
D03*
X93307Y30510D02*
D03*
Y31691D02*
D03*
X94488Y30510D02*
D03*
Y31691D02*
D03*
X95669Y30510D02*
D03*
Y31691D02*
D03*
X96850Y30510D02*
D03*
Y31691D02*
D03*
X98032Y30510D02*
D03*
Y31691D02*
D03*
Y43502D02*
D03*
Y42321D02*
D03*
X96850Y43502D02*
D03*
Y42321D02*
D03*
X95669Y43502D02*
D03*
Y42321D02*
D03*
X94488Y43502D02*
D03*
Y42321D02*
D03*
X93307Y43502D02*
D03*
Y42321D02*
D03*
X9056Y130906D02*
D03*
Y129725D02*
D03*
X7875Y130906D02*
D03*
Y129725D02*
D03*
X6694Y130906D02*
D03*
Y129725D02*
D03*
X5513Y130906D02*
D03*
Y129725D02*
D03*
X4332Y130906D02*
D03*
Y129725D02*
D03*
Y117914D02*
D03*
Y119095D02*
D03*
X5513Y117914D02*
D03*
Y119095D02*
D03*
X6694Y117914D02*
D03*
Y119095D02*
D03*
X7875Y117914D02*
D03*
Y119095D02*
D03*
X9056Y117914D02*
D03*
Y119095D02*
D03*
X93307Y117913D02*
D03*
Y119095D02*
D03*
X94488Y117913D02*
D03*
Y119095D02*
D03*
X95669Y117913D02*
D03*
Y119095D02*
D03*
X96850Y117913D02*
D03*
Y119095D02*
D03*
X98032Y117913D02*
D03*
Y119095D02*
D03*
Y130905D02*
D03*
Y129724D02*
D03*
X96850Y130905D02*
D03*
Y129724D02*
D03*
X95669Y130905D02*
D03*
Y129724D02*
D03*
X94488Y130905D02*
D03*
Y129724D02*
D03*
X93307Y130905D02*
D03*
Y129724D02*
D03*
X9055Y31693D02*
D03*
Y30512D02*
D03*
X7874Y31693D02*
D03*
Y30512D02*
D03*
X6693Y31693D02*
D03*
Y30512D02*
D03*
X5512Y31693D02*
D03*
Y30512D02*
D03*
X4331Y31693D02*
D03*
Y30512D02*
D03*
Y42323D02*
D03*
Y43504D02*
D03*
X5512Y42323D02*
D03*
Y43504D02*
D03*
X6693Y42323D02*
D03*
Y43504D02*
D03*
X7874Y42323D02*
D03*
Y43504D02*
D03*
X9055Y42323D02*
D03*
Y43504D02*
D03*
X17520Y19094D02*
D03*
X16339D02*
D03*
X15157Y20276D02*
D03*
X16339D02*
D03*
X17520D02*
D03*
X13976D02*
D03*
X12795D02*
D03*
X11614D02*
D03*
X17520Y21457D02*
D03*
X16339D02*
D03*
X15157D02*
D03*
X13976D02*
D03*
X12795D02*
D03*
X11614D02*
D03*
X16142Y54528D02*
D03*
Y53347D02*
D03*
Y52165D02*
D03*
Y50984D02*
D03*
X11417Y54527D02*
D03*
X12598D02*
D03*
X13780D02*
D03*
X14961D02*
D03*
X11417Y53347D02*
D03*
X12598D02*
D03*
X13780D02*
D03*
X14961D02*
D03*
Y52165D02*
D03*
X13780D02*
D03*
X12598D02*
D03*
X11417D02*
D03*
Y50984D02*
D03*
X12598D02*
D03*
X13780D02*
D03*
X14961D02*
D03*
X90945Y131102D02*
D03*
X89764D02*
D03*
X88583D02*
D03*
X87402D02*
D03*
X86221D02*
D03*
X85039D02*
D03*
X90945Y129921D02*
D03*
X89764D02*
D03*
X88583D02*
D03*
X87402D02*
D03*
X86221D02*
D03*
X85039D02*
D03*
Y128740D02*
D03*
X86221D02*
D03*
X87402D02*
D03*
X88583D02*
D03*
X89764D02*
D03*
X90945D02*
D03*
X85039Y127559D02*
D03*
X86221D02*
D03*
X87402D02*
D03*
X88583D02*
D03*
X89764D02*
D03*
X90945D02*
D03*
Y126378D02*
D03*
X89764D02*
D03*
X88583D02*
D03*
X87402D02*
D03*
X86221D02*
D03*
X85039D02*
D03*
X17323Y35039D02*
D03*
X16142D02*
D03*
X14961D02*
D03*
X13780D02*
D03*
X12598D02*
D03*
X11417D02*
D03*
Y33858D02*
D03*
X12598D02*
D03*
X13780D02*
D03*
X14961D02*
D03*
X16142D02*
D03*
X17323D02*
D03*
X11417Y32677D02*
D03*
X12598D02*
D03*
X13780D02*
D03*
X14961D02*
D03*
X16142D02*
D03*
X17323D02*
D03*
Y31496D02*
D03*
X16142D02*
D03*
X14961D02*
D03*
X13780D02*
D03*
X12598D02*
D03*
X11417D02*
D03*
X17323Y30315D02*
D03*
X16142D02*
D03*
X14961D02*
D03*
X13780D02*
D03*
X12598D02*
D03*
X11417D02*
D03*
X90945Y50984D02*
D03*
X89764D02*
D03*
X88583D02*
D03*
X87402D02*
D03*
X86221D02*
D03*
X90945Y52165D02*
D03*
X89764D02*
D03*
X88583D02*
D03*
X87402D02*
D03*
X86221D02*
D03*
X90945Y53347D02*
D03*
X89764D02*
D03*
X88583D02*
D03*
X87402D02*
D03*
X86221D02*
D03*
X90945Y54528D02*
D03*
X89764D02*
D03*
X88583D02*
D03*
X87402D02*
D03*
X86221D02*
D03*
X90945Y55709D02*
D03*
X89764D02*
D03*
X88583D02*
D03*
X87402D02*
D03*
X86221D02*
D03*
X85039Y30315D02*
D03*
X86221D02*
D03*
X87402D02*
D03*
X88583D02*
D03*
X89764D02*
D03*
X90945D02*
D03*
X85039Y31496D02*
D03*
X86221D02*
D03*
X87402D02*
D03*
X88583D02*
D03*
X89764D02*
D03*
X90945D02*
D03*
Y32677D02*
D03*
X89764D02*
D03*
X88583D02*
D03*
X87402D02*
D03*
X86221D02*
D03*
X85039D02*
D03*
X90945Y33858D02*
D03*
X89764D02*
D03*
X88583D02*
D03*
X87402D02*
D03*
X86221D02*
D03*
X85039D02*
D03*
X90945Y35039D02*
D03*
X89764D02*
D03*
X88583D02*
D03*
X87402D02*
D03*
X86221D02*
D03*
X85039D02*
D03*
X17323Y126378D02*
D03*
X16142D02*
D03*
X14961D02*
D03*
X13780D02*
D03*
X12598D02*
D03*
X11417D02*
D03*
X16142Y105709D02*
D03*
X14961D02*
D03*
X13780D02*
D03*
X12598D02*
D03*
X11417D02*
D03*
X16142Y106890D02*
D03*
X14961D02*
D03*
X13780D02*
D03*
X12598D02*
D03*
X11417D02*
D03*
X16142Y108071D02*
D03*
X14961D02*
D03*
X13780D02*
D03*
X12598D02*
D03*
X11417D02*
D03*
X16142Y109252D02*
D03*
X14961D02*
D03*
X13780D02*
D03*
X12598D02*
D03*
X11417D02*
D03*
X16142Y110433D02*
D03*
X14961D02*
D03*
X13780D02*
D03*
X12598D02*
D03*
X11417D02*
D03*
X17323Y127559D02*
D03*
X16142D02*
D03*
X14961D02*
D03*
X13780D02*
D03*
X12598D02*
D03*
X11417D02*
D03*
X16142Y128740D02*
D03*
X14961D02*
D03*
X13780D02*
D03*
X12598D02*
D03*
X11417D02*
D03*
Y129921D02*
D03*
X12598D02*
D03*
X13780D02*
D03*
X14961D02*
D03*
X16142D02*
D03*
X11417Y131102D02*
D03*
X12598D02*
D03*
X13780D02*
D03*
X14961D02*
D03*
X16142D02*
D03*
X26608Y123031D02*
D03*
X30059Y108268D02*
D03*
X23819D02*
D03*
Y131890D02*
D03*
Y120079D02*
D03*
X25984Y114173D02*
D03*
X42717Y112205D02*
D03*
X38780D02*
D03*
X23622Y126575D02*
D03*
X26608Y128937D02*
D03*
X23622Y124409D02*
D03*
X34843Y129921D02*
D03*
X30906Y123622D02*
D03*
X30906Y122047D02*
D03*
X31693Y139173D02*
D03*
Y134055D02*
D03*
Y136024D02*
D03*
X23622Y122244D02*
D03*
X78543Y41339D02*
D03*
X78740Y31496D02*
D03*
Y55118D02*
D03*
X68108Y22244D02*
D03*
X70669D02*
D03*
X78740Y20866D02*
D03*
X67520Y31496D02*
D03*
X78740Y37008D02*
D03*
X75754Y32480D02*
D03*
X78740Y34843D02*
D03*
Y44291D02*
D03*
X76378Y23622D02*
D03*
Y47244D02*
D03*
X78543Y53150D02*
D03*
Y29528D02*
D03*
X72303Y53150D02*
D03*
X75754Y38386D02*
D03*
X58268Y23622D02*
D03*
X63583Y49213D02*
D03*
X59646D02*
D03*
X57677D02*
D03*
X75754Y123031D02*
D03*
Y117126D02*
D03*
X76378Y131890D02*
D03*
X67520Y114173D02*
D03*
X71457Y124016D02*
D03*
X68110Y133858D02*
D03*
X71457Y122441D02*
D03*
X72303Y137795D02*
D03*
X53120Y126969D02*
D03*
Y125000D02*
D03*
X78740Y121260D02*
D03*
Y119291D02*
D03*
Y117323D02*
D03*
Y128937D02*
D03*
Y130905D02*
D03*
Y140354D02*
D03*
X62992Y108268D02*
D03*
X78543Y137795D02*
D03*
Y125984D02*
D03*
Y114173D02*
D03*
X65748Y108268D02*
D03*
X68110D02*
D03*
X70079Y110039D02*
D03*
X32283Y51378D02*
D03*
X23819Y47244D02*
D03*
Y35433D02*
D03*
Y23622D02*
D03*
X23622Y21063D02*
D03*
Y30512D02*
D03*
Y32480D02*
D03*
Y44094D02*
D03*
Y42126D02*
D03*
Y40157D02*
D03*
X44094Y48031D02*
D03*
X49242Y36418D02*
D03*
Y34449D02*
D03*
Y32481D02*
D03*
X46654Y29921D02*
D03*
X38780Y27559D02*
D03*
X44685D02*
D03*
X36614Y23425D02*
D03*
X30059Y23622D02*
D03*
X34252Y21457D02*
D03*
X30906Y38976D02*
D03*
X34252Y27559D02*
D03*
X30906Y37402D02*
D03*
X34843Y47244D02*
D03*
X25984Y29528D02*
D03*
X26608Y44291D02*
D03*
Y38386D02*
D03*
D86*
X66181Y165354D02*
D03*
D87*
X56181D02*
D03*
X46181D02*
D03*
X36181D02*
D03*
D89*
X99213Y98425D02*
D03*
Y74803D02*
D03*
D90*
Y86614D02*
D03*
Y62992D02*
D03*
D91*
X3150Y124016D02*
D03*
Y112205D02*
D03*
Y135827D02*
D03*
Y25591D02*
D03*
Y49213D02*
D03*
Y37402D02*
D03*
X99213Y124016D02*
D03*
Y135827D02*
D03*
Y112205D02*
D03*
Y49213D02*
D03*
Y25591D02*
D03*
Y37402D02*
D03*
M02*
