G04*
G04 #@! TF.GenerationSoftware,Altium Limited,Altium Designer,24.8.2 (39)*
G04*
G04 Layer_Physical_Order=3*
G04 Layer_Color=16440176*
%FSLAX25Y25*%
%MOIN*%
G70*
G04*
G04 #@! TF.SameCoordinates,30F909D6-0262-4237-A391-FF9CD089CF35*
G04*
G04*
G04 #@! TF.FilePolarity,Positive*
G04*
G01*
G75*
%ADD72C,0.00394*%
%ADD73C,0.00984*%
%ADD76C,0.00984*%
%ADD86R,0.06693X0.06693*%
%ADD87C,0.06693*%
G04:AMPARAMS|DCode=89|XSize=86.61mil|YSize=78.74mil|CornerRadius=19.68mil|HoleSize=0mil|Usage=FLASHONLY|Rotation=0.000|XOffset=0mil|YOffset=0mil|HoleType=Round|Shape=RoundedRectangle|*
%AMROUNDEDRECTD89*
21,1,0.08661,0.03937,0,0,0.0*
21,1,0.04724,0.07874,0,0,0.0*
1,1,0.03937,0.02362,-0.01968*
1,1,0.03937,-0.02362,-0.01968*
1,1,0.03937,-0.02362,0.01968*
1,1,0.03937,0.02362,0.01968*
%
%ADD89ROUNDEDRECTD89*%
%ADD90R,0.08661X0.07874*%
G04:AMPARAMS|DCode=91|XSize=74.8mil|YSize=59.06mil|CornerRadius=14.76mil|HoleSize=0mil|Usage=FLASHONLY|Rotation=0.000|XOffset=0mil|YOffset=0mil|HoleType=Round|Shape=RoundedRectangle|*
%AMROUNDEDRECTD91*
21,1,0.07480,0.02953,0,0,0.0*
21,1,0.04528,0.05906,0,0,0.0*
1,1,0.02953,0.02264,-0.01476*
1,1,0.02953,-0.02264,-0.01476*
1,1,0.02953,-0.02264,0.01476*
1,1,0.02953,0.02264,0.01476*
%
%ADD91ROUNDEDRECTD91*%
G36*
X70227Y162205D02*
X70241Y162171D01*
X70392Y161023D01*
X70848Y159921D01*
X71574Y158976D01*
X72520Y158250D01*
X73621Y157794D01*
X74769Y157643D01*
X74803Y157629D01*
X90551D01*
X90624Y157659D01*
X92124Y157511D01*
X93635Y157053D01*
X95029Y156308D01*
X96250Y155305D01*
X97253Y154084D01*
X97997Y152691D01*
X98456Y151179D01*
X98604Y149679D01*
X98573Y149606D01*
Y139210D01*
X96949D01*
X96219Y139065D01*
X95601Y138651D01*
X95187Y138033D01*
X95042Y137303D01*
Y134350D01*
X95187Y133621D01*
X95601Y133002D01*
X96219Y132589D01*
X96949Y132444D01*
X98573D01*
Y127399D01*
X96949D01*
X96219Y127254D01*
X95601Y126840D01*
X95187Y126222D01*
X95042Y125492D01*
Y122539D01*
X95187Y121810D01*
X95601Y121191D01*
X96219Y120778D01*
X96949Y120633D01*
X98573D01*
Y115588D01*
X96949D01*
X96219Y115443D01*
X95601Y115029D01*
X95187Y114411D01*
X95042Y113681D01*
Y110728D01*
X95187Y109999D01*
X95601Y109380D01*
X96219Y108967D01*
X96949Y108822D01*
X98573D01*
Y102802D01*
X96850D01*
X95929Y102619D01*
X95147Y102097D01*
X94625Y101315D01*
X94625Y101314D01*
X94082Y101149D01*
X93984Y101248D01*
X93586Y101412D01*
X93156D01*
X92758Y101248D01*
X92462Y100951D01*
X92415Y100952D01*
X91962Y101062D01*
Y106515D01*
X92028Y106674D01*
Y107105D01*
X91962Y107264D01*
Y107696D01*
X92028Y107855D01*
Y108286D01*
X91962Y108446D01*
Y108877D01*
X92028Y109037D01*
Y109467D01*
X91962Y109627D01*
Y110058D01*
X92028Y110218D01*
Y110648D01*
X91962Y110808D01*
Y126003D01*
X92028Y126163D01*
Y126593D01*
X91962Y126753D01*
Y127184D01*
X92028Y127344D01*
Y127774D01*
X91962Y127934D01*
Y128366D01*
X92028Y128525D01*
Y128955D01*
X91962Y129115D01*
Y129547D01*
X92028Y129706D01*
Y130137D01*
X91962Y130296D01*
Y130728D01*
X92028Y130887D01*
Y131318D01*
X91962Y131477D01*
Y141732D01*
Y143008D01*
X91953Y143029D01*
X91960Y143050D01*
X91892Y143177D01*
X91837Y143310D01*
X91816Y143318D01*
X91806Y143338D01*
X91442Y143637D01*
X91304Y143678D01*
X91172Y143733D01*
X89973D01*
X88838Y143959D01*
X87769Y144402D01*
X86807Y145044D01*
X85989Y145862D01*
X85347Y146824D01*
X85024Y147604D01*
X84964Y147664D01*
X84931Y147742D01*
X84853Y147775D01*
X84793Y147835D01*
X84708D01*
X84630Y147867D01*
X75253D01*
X75138Y148007D01*
X74980Y148367D01*
X75099Y148653D01*
Y149084D01*
X74934Y149482D01*
X74629Y149786D01*
X74231Y149951D01*
X73801D01*
X73403Y149786D01*
X73098Y149482D01*
X72571D01*
X72266Y149786D01*
X71868Y149951D01*
X71438D01*
X71040Y149786D01*
X70735Y149482D01*
X70209D01*
X69904Y149786D01*
X69507Y149951D01*
X69076D01*
X68678Y149786D01*
X68373Y149482D01*
X68208Y149084D01*
Y148653D01*
X68327Y148367D01*
X68169Y148007D01*
X68054Y147867D01*
X53992D01*
X53878Y148007D01*
X53720Y148367D01*
X53838Y148653D01*
Y149084D01*
X53673Y149482D01*
X53369Y149786D01*
X52971Y149951D01*
X52540D01*
X52142Y149786D01*
X51838Y149482D01*
X51311D01*
X51007Y149786D01*
X50609Y149951D01*
X50178D01*
X49780Y149786D01*
X49476Y149482D01*
X49311Y149084D01*
Y148653D01*
X49429Y148367D01*
X49272Y148007D01*
X49156Y147867D01*
X37064D01*
X36949Y148007D01*
X36791Y148367D01*
X36910Y148653D01*
Y149084D01*
X36745Y149482D01*
X36440Y149786D01*
X36042Y149951D01*
X35612D01*
X35214Y149786D01*
X34909Y149482D01*
X34383D01*
X34078Y149786D01*
X33680Y149951D01*
X33250D01*
X32852Y149786D01*
X32547Y149482D01*
X32020D01*
X31715Y149786D01*
X31317Y149951D01*
X30887D01*
X30489Y149786D01*
X30184Y149482D01*
X29659D01*
X29354Y149786D01*
X28956Y149951D01*
X28526D01*
X28128Y149786D01*
X27823Y149482D01*
X27296D01*
X26991Y149786D01*
X26593Y149951D01*
X26163D01*
X25765Y149786D01*
X25460Y149482D01*
X25295Y149084D01*
Y148653D01*
X25414Y148367D01*
X25256Y148007D01*
X25141Y147867D01*
X17732D01*
X17654Y147835D01*
X17569D01*
X17509Y147775D01*
X17431Y147742D01*
X17399Y147664D01*
X17339Y147604D01*
X17016Y146824D01*
X16373Y145862D01*
X15555Y145044D01*
X14593Y144402D01*
X13524Y143959D01*
X12389Y143733D01*
X11191D01*
X11058Y143678D01*
X10920Y143637D01*
X10556Y143338D01*
X10546Y143318D01*
X10525Y143310D01*
X10470Y143177D01*
X10403Y143050D01*
X10409Y143029D01*
X10401Y143008D01*
Y140354D01*
Y131477D01*
X10335Y131318D01*
Y130887D01*
X10401Y130728D01*
Y130296D01*
X10335Y130137D01*
Y129706D01*
X10401Y129547D01*
Y129115D01*
X10335Y128955D01*
Y128525D01*
X10401Y128366D01*
Y127934D01*
X10335Y127774D01*
Y127344D01*
X10401Y127184D01*
Y126753D01*
X10335Y126593D01*
Y126163D01*
X10401Y126003D01*
Y110808D01*
X10335Y110648D01*
Y110218D01*
X10401Y110058D01*
Y109627D01*
X10335Y109467D01*
Y109037D01*
X10401Y108877D01*
Y108446D01*
X10335Y108286D01*
Y107855D01*
X10401Y107696D01*
Y107264D01*
X10335Y107105D01*
Y106674D01*
X10401Y106515D01*
Y106083D01*
X10335Y105924D01*
Y105493D01*
X10401Y105334D01*
Y54902D01*
X10335Y54743D01*
Y54312D01*
X10401Y54153D01*
Y53721D01*
X10335Y53562D01*
Y53131D01*
X10401Y52972D01*
Y52540D01*
X10335Y52381D01*
Y51950D01*
X10401Y51791D01*
Y51359D01*
X10335Y51200D01*
Y50769D01*
X10401Y50610D01*
Y35414D01*
X10335Y35255D01*
Y34824D01*
X10401Y34665D01*
Y34233D01*
X10335Y34074D01*
Y33643D01*
X10401Y33484D01*
Y33052D01*
X10335Y32893D01*
Y32462D01*
X10401Y32302D01*
Y31871D01*
X10335Y31711D01*
Y31281D01*
X10401Y31121D01*
Y30690D01*
X10335Y30530D01*
Y30100D01*
X10401Y29940D01*
Y29724D01*
X10525Y29423D01*
X10827Y29298D01*
X11043D01*
X11202Y29232D01*
X11633D01*
X11792Y29298D01*
X12224D01*
X12383Y29232D01*
X12814D01*
X12973Y29298D01*
X13405D01*
X13564Y29232D01*
X13995D01*
X14154Y29298D01*
X14586D01*
X14745Y29232D01*
X15176D01*
X15335Y29298D01*
X15767D01*
X15926Y29232D01*
X16357D01*
X16516Y29298D01*
X16732D01*
X17034Y29423D01*
X17158Y29724D01*
Y29940D01*
X17224Y30100D01*
Y30530D01*
X17158Y30690D01*
Y31121D01*
X17224Y31281D01*
Y31711D01*
X17158Y31871D01*
Y32302D01*
X17224Y32462D01*
Y32893D01*
X17158Y33052D01*
Y33484D01*
X17224Y33643D01*
Y34074D01*
X17158Y34233D01*
Y34665D01*
X17224Y34824D01*
Y35255D01*
X17158Y35414D01*
Y50610D01*
X17224Y50769D01*
Y51200D01*
X17158Y51359D01*
Y51791D01*
X17224Y51950D01*
Y52381D01*
X17158Y52540D01*
Y52972D01*
X17224Y53131D01*
Y53562D01*
X17158Y53721D01*
Y54153D01*
X17224Y54312D01*
Y54743D01*
X17158Y54902D01*
Y105334D01*
X17224Y105493D01*
Y105924D01*
X17158Y106083D01*
Y106515D01*
X17224Y106674D01*
Y107105D01*
X17158Y107264D01*
Y107696D01*
X17224Y107855D01*
Y108286D01*
X17158Y108446D01*
Y108877D01*
X17224Y109037D01*
Y109467D01*
X17158Y109627D01*
Y110058D01*
X17224Y110218D01*
Y110648D01*
X17158Y110808D01*
Y126003D01*
X17224Y126163D01*
Y126593D01*
X17158Y126753D01*
Y127184D01*
X17224Y127344D01*
Y127774D01*
X17158Y127934D01*
Y128366D01*
X17224Y128525D01*
Y128955D01*
X17158Y129115D01*
Y129547D01*
X17224Y129706D01*
Y130137D01*
X17158Y130296D01*
Y130728D01*
X17224Y130887D01*
Y131318D01*
X17158Y131477D01*
Y139928D01*
X22539D01*
X22683Y139988D01*
X22704Y139938D01*
X23009Y139633D01*
X23407Y139469D01*
X23837D01*
X24235Y139633D01*
X24540Y139938D01*
X24561Y139988D01*
X24705Y139928D01*
X30292D01*
X30627Y139428D01*
X30610Y139389D01*
Y138958D01*
X30775Y138560D01*
X31080Y138255D01*
X31478Y138091D01*
X31908D01*
X32306Y138255D01*
X32611Y138560D01*
X32710Y138799D01*
X33237D01*
X33336Y138560D01*
X33641Y138255D01*
X34039Y138091D01*
X34470D01*
X34868Y138255D01*
X35172Y138560D01*
X35696D01*
X36001Y138255D01*
X36399Y138091D01*
X36448D01*
X36841Y138022D01*
X36909Y137629D01*
Y137580D01*
X37074Y137182D01*
X37379Y136877D01*
X37777Y136713D01*
X38208D01*
X38605Y136877D01*
X38910Y137182D01*
X39075Y137580D01*
Y138011D01*
X38910Y138409D01*
X38605Y138713D01*
X38208Y138878D01*
X38159D01*
X37765Y138946D01*
X37697Y139340D01*
Y139389D01*
X37680Y139428D01*
X38015Y139928D01*
X67028D01*
Y139745D01*
X67192Y139347D01*
X67497Y139043D01*
X67895Y138878D01*
X68326D01*
X68723Y139043D01*
X69028Y139347D01*
X69193Y139745D01*
Y139928D01*
X77658D01*
X77732Y139959D01*
X77822Y139741D01*
X78127Y139436D01*
X78298Y139366D01*
X78312Y139129D01*
X78248Y138845D01*
X77930Y138713D01*
X77626Y138409D01*
X77461Y138011D01*
Y137580D01*
X77626Y137182D01*
X77930Y136877D01*
X78328Y136713D01*
X78759D01*
X79157Y136877D01*
X79461Y137182D01*
X79626Y137580D01*
Y138011D01*
X79461Y138409D01*
X79157Y138713D01*
X78985Y138784D01*
X78971Y139020D01*
X79035Y139305D01*
X79353Y139436D01*
X79658Y139741D01*
X79748Y139959D01*
X79823Y139928D01*
X85204D01*
Y131477D01*
X85138Y131318D01*
Y130887D01*
X85204Y130728D01*
Y130296D01*
X85138Y130137D01*
Y129706D01*
X85204Y129547D01*
Y129115D01*
X85138Y128955D01*
Y128525D01*
X85204Y128366D01*
Y127934D01*
X85138Y127774D01*
Y127344D01*
X85204Y127184D01*
Y126752D01*
X85138Y126593D01*
Y126163D01*
X85204Y126003D01*
Y110808D01*
X85138Y110648D01*
Y110218D01*
X85204Y110058D01*
Y109627D01*
X85138Y109467D01*
Y109037D01*
X85204Y108877D01*
Y108446D01*
X85138Y108286D01*
Y107855D01*
X85204Y107696D01*
Y107264D01*
X85138Y107105D01*
Y106674D01*
X85204Y106515D01*
Y94503D01*
X84704Y94403D01*
X84619Y94609D01*
X84314Y94914D01*
X83916Y95079D01*
X83485D01*
X83110Y94923D01*
X82735Y95079D01*
X82304D01*
X81929Y94923D01*
X81554Y95079D01*
X81123D01*
X80725Y94914D01*
X80421Y94609D01*
X80256Y94212D01*
Y93781D01*
X80421Y93383D01*
X80725Y93078D01*
X81123Y92913D01*
X81554D01*
X81929Y93069D01*
X82304Y92913D01*
X82735D01*
X83110Y93069D01*
X83485Y92913D01*
X83916D01*
X84314Y93078D01*
X84619Y93383D01*
X85085Y93203D01*
X85204Y93108D01*
Y92894D01*
X85138Y92735D01*
Y92304D01*
X85204Y92145D01*
Y91713D01*
X85138Y91554D01*
Y91123D01*
X85204Y90964D01*
Y90532D01*
X85138Y90373D01*
Y89942D01*
X85204Y89783D01*
Y89351D01*
X85138Y89192D01*
Y88761D01*
X85204Y88602D01*
Y88170D01*
X85138Y88011D01*
Y87580D01*
X85204Y87421D01*
Y86989D01*
X85138Y86830D01*
Y86399D01*
X85204Y86239D01*
Y85808D01*
X85138Y85648D01*
Y85218D01*
X85204Y85058D01*
Y84627D01*
X85138Y84467D01*
Y84037D01*
X85204Y83877D01*
Y83446D01*
X85138Y83286D01*
Y82855D01*
X85204Y82696D01*
Y65953D01*
X84704Y65619D01*
X84631Y65650D01*
X84200D01*
X83802Y65485D01*
X83498Y65180D01*
X83333Y64782D01*
Y64352D01*
X83498Y63954D01*
X83802Y63649D01*
X84200Y63484D01*
X84631D01*
X84704Y63514D01*
X85204Y63180D01*
Y59471D01*
X84704Y59137D01*
X84664Y59153D01*
X84270D01*
X78340Y65084D01*
X78340Y65084D01*
X78340Y65084D01*
X78239Y65125D01*
X77869Y65373D01*
X77432Y65460D01*
X77331Y65501D01*
X71128D01*
X70850Y65780D01*
X70452Y65945D01*
X70021D01*
X69646Y65790D01*
X69271Y65945D01*
X68840D01*
X68465Y65790D01*
X68089Y65945D01*
X67659D01*
X67261Y65780D01*
X66956Y65475D01*
X66791Y65078D01*
Y64647D01*
X66956Y64249D01*
X67261Y63944D01*
X67659Y63780D01*
X68089D01*
X68465Y63935D01*
X68840Y63780D01*
X69271D01*
X69646Y63935D01*
X70021Y63780D01*
X70452D01*
X70850Y63944D01*
X71128Y64223D01*
X77331D01*
X77436Y64180D01*
X83366Y58249D01*
Y57855D01*
X83531Y57458D01*
X83836Y57153D01*
X84233Y56988D01*
X84664D01*
X84704Y57005D01*
X85204Y56670D01*
Y56083D01*
X85138Y55924D01*
Y55493D01*
X85204Y55334D01*
Y54902D01*
X85138Y54743D01*
Y54312D01*
X85204Y54153D01*
Y53721D01*
X85138Y53562D01*
Y53131D01*
X85204Y52972D01*
Y52540D01*
X85138Y52381D01*
Y51950D01*
X85204Y51791D01*
Y51359D01*
X85138Y51200D01*
Y50769D01*
X85204Y50610D01*
Y35414D01*
X85138Y35255D01*
Y34824D01*
X85204Y34665D01*
Y34233D01*
X85138Y34074D01*
Y33643D01*
X85204Y33484D01*
Y33052D01*
X85138Y32893D01*
Y32462D01*
X85204Y32302D01*
Y31871D01*
X85138Y31711D01*
Y31281D01*
X85204Y31121D01*
Y30690D01*
X85138Y30530D01*
Y30100D01*
X85204Y29940D01*
Y29724D01*
X85329Y29423D01*
X85630Y29298D01*
X85846D01*
X86005Y29232D01*
X86436D01*
X86595Y29298D01*
X87027D01*
X87186Y29232D01*
X87617D01*
X87776Y29298D01*
X88208D01*
X88367Y29232D01*
X88798D01*
X88957Y29298D01*
X89389D01*
X89548Y29232D01*
X89979D01*
X90138Y29298D01*
X90570D01*
X90729Y29232D01*
X91160D01*
X91320Y29298D01*
X91535D01*
X91837Y29423D01*
X91962Y29724D01*
Y29940D01*
X92027Y30100D01*
Y30530D01*
X91962Y30690D01*
Y31121D01*
X92027Y31281D01*
Y31711D01*
X91962Y31871D01*
Y32302D01*
X92027Y32462D01*
Y32893D01*
X91962Y33052D01*
Y33484D01*
X92027Y33643D01*
Y34074D01*
X91962Y34233D01*
Y34665D01*
X92027Y34824D01*
Y35255D01*
X91962Y35414D01*
Y50610D01*
X92028Y50769D01*
Y51200D01*
X91962Y51359D01*
Y51791D01*
X92028Y51950D01*
Y52381D01*
X91962Y52540D01*
Y52972D01*
X92028Y53131D01*
Y53562D01*
X91962Y53721D01*
Y54153D01*
X92028Y54312D01*
Y54743D01*
X91962Y54902D01*
Y55334D01*
X92028Y55493D01*
Y55924D01*
X91962Y56083D01*
Y82696D01*
X92027Y82855D01*
Y83286D01*
X91962Y83446D01*
Y83877D01*
X92027Y84037D01*
Y84467D01*
X91962Y84627D01*
Y85058D01*
X92027Y85218D01*
Y85648D01*
X91962Y85808D01*
Y86239D01*
X92027Y86399D01*
Y86830D01*
X91962Y86989D01*
Y87421D01*
X92027Y87580D01*
Y88011D01*
X91962Y88170D01*
Y88602D01*
X92027Y88761D01*
Y89192D01*
X91962Y89351D01*
Y89783D01*
X92027Y89942D01*
Y90373D01*
X91962Y90532D01*
Y90964D01*
X92027Y91123D01*
Y91554D01*
X91962Y91713D01*
Y92145D01*
X92027Y92304D01*
Y92735D01*
X91962Y92894D01*
Y93326D01*
X92027Y93485D01*
Y93916D01*
X91962Y94075D01*
Y99597D01*
X92415Y99707D01*
X92462Y99708D01*
X92758Y99412D01*
X93156Y99247D01*
X93586D01*
X93942Y99394D01*
X94157Y99317D01*
X94442Y99162D01*
Y96457D01*
X94625Y95535D01*
X95147Y94754D01*
X95929Y94231D01*
X96850Y94048D01*
X98573D01*
Y79180D01*
X96850D01*
X95929Y78997D01*
X95147Y78475D01*
X94625Y77693D01*
X94442Y76772D01*
Y72835D01*
X94625Y71913D01*
X95147Y71132D01*
X95929Y70609D01*
X96850Y70426D01*
X98573D01*
Y52596D01*
X96949D01*
X96219Y52451D01*
X95601Y52037D01*
X95187Y51419D01*
X95042Y50689D01*
Y47736D01*
X95187Y47007D01*
X95601Y46388D01*
X96219Y45975D01*
X96949Y45829D01*
X98573D01*
Y40785D01*
X96949D01*
X96219Y40639D01*
X95601Y40226D01*
X95187Y39608D01*
X95042Y38878D01*
Y35925D01*
X95187Y35195D01*
X95601Y34577D01*
X96219Y34164D01*
X96949Y34018D01*
X98573D01*
Y28974D01*
X96949D01*
X96219Y28828D01*
X95601Y28415D01*
X95187Y27797D01*
X95042Y27067D01*
Y24114D01*
X95187Y23384D01*
X95601Y22766D01*
X96219Y22353D01*
X96949Y22208D01*
X98573D01*
Y11811D01*
X98604Y11738D01*
X98456Y10239D01*
X97997Y8727D01*
X97253Y7333D01*
X96250Y6112D01*
X95029Y5110D01*
X93635Y4365D01*
X92124Y3906D01*
X90624Y3759D01*
X90551Y3789D01*
X11811D01*
X11738Y3759D01*
X10239Y3906D01*
X8727Y4365D01*
X7333Y5110D01*
X6112Y6112D01*
X5110Y7333D01*
X4365Y8727D01*
X3906Y10239D01*
X3759Y11738D01*
X3789Y11811D01*
Y22208D01*
X5413D01*
X6143Y22353D01*
X6762Y22766D01*
X7175Y23384D01*
X7320Y24114D01*
Y27067D01*
X7175Y27797D01*
X6762Y28415D01*
X6143Y28828D01*
X5413Y28974D01*
X3789D01*
Y34018D01*
X5413D01*
X6143Y34164D01*
X6762Y34577D01*
X7175Y35195D01*
X7320Y35925D01*
Y38878D01*
X7175Y39608D01*
X6762Y40226D01*
X6143Y40639D01*
X5413Y40785D01*
X3789D01*
Y45829D01*
X5413D01*
X6143Y45975D01*
X6762Y46388D01*
X7175Y47007D01*
X7320Y47736D01*
Y50689D01*
X7175Y51419D01*
X6762Y52037D01*
X6143Y52451D01*
X5413Y52596D01*
X3789D01*
Y108822D01*
X5413D01*
X6143Y108967D01*
X6762Y109380D01*
X7175Y109999D01*
X7320Y110728D01*
Y113681D01*
X7175Y114411D01*
X6762Y115029D01*
X6143Y115443D01*
X5413Y115588D01*
X3789D01*
Y120633D01*
X5413D01*
X6143Y120778D01*
X6762Y121191D01*
X7175Y121810D01*
X7320Y122539D01*
Y125492D01*
X7175Y126222D01*
X6762Y126840D01*
X6143Y127254D01*
X5413Y127399D01*
X3789D01*
Y132444D01*
X5413D01*
X6143Y132589D01*
X6762Y133002D01*
X7175Y133621D01*
X7320Y134350D01*
Y137303D01*
X7175Y138033D01*
X6762Y138651D01*
X6143Y139065D01*
X5413Y139210D01*
X3789D01*
Y149606D01*
X3759Y149679D01*
X3906Y151179D01*
X4365Y152691D01*
X5110Y154084D01*
X6112Y155305D01*
X7333Y156308D01*
X8727Y157053D01*
X10239Y157511D01*
X11738Y157659D01*
X11811Y157629D01*
X27559D01*
X27593Y157643D01*
X28741Y157794D01*
X29842Y158250D01*
X30788Y158976D01*
X31514Y159921D01*
X31970Y161023D01*
X32121Y162171D01*
X32135Y162205D01*
Y171945D01*
X32635Y172011D01*
X32696Y171785D01*
X33188Y170932D01*
X33885Y170236D01*
X34738Y169743D01*
X35689Y169488D01*
X36674D01*
X37625Y169743D01*
X38478Y170236D01*
X39174Y170932D01*
X39666Y171785D01*
X39921Y172736D01*
Y173721D01*
X39666Y174672D01*
X39174Y175525D01*
X38478Y176221D01*
X37625Y176714D01*
X37252Y176814D01*
X37318Y177314D01*
X45045D01*
X45110Y176814D01*
X44737Y176714D01*
X43885Y176221D01*
X43188Y175525D01*
X42696Y174672D01*
X42441Y173721D01*
Y172736D01*
X42696Y171785D01*
X43188Y170932D01*
X43885Y170236D01*
X44737Y169743D01*
X45689Y169488D01*
X46674D01*
X47625Y169743D01*
X48478Y170236D01*
X49174Y170932D01*
X49666Y171785D01*
X49921Y172736D01*
Y173721D01*
X49666Y174672D01*
X49174Y175525D01*
X48478Y176221D01*
X47625Y176714D01*
X47252Y176814D01*
X47318Y177314D01*
X55045D01*
X55110Y176814D01*
X54738Y176714D01*
X53885Y176221D01*
X53188Y175525D01*
X52696Y174672D01*
X52441Y173721D01*
Y172736D01*
X52696Y171785D01*
X53188Y170932D01*
X53885Y170236D01*
X54738Y169743D01*
X55689Y169488D01*
X56674D01*
X57625Y169743D01*
X58478Y170236D01*
X59174Y170932D01*
X59666Y171785D01*
X59921Y172736D01*
Y173721D01*
X59666Y174672D01*
X59174Y175525D01*
X58478Y176221D01*
X57625Y176714D01*
X57252Y176814D01*
X57318Y177314D01*
X70227D01*
Y162205D01*
D02*
G37*
G36*
X84969Y146623D02*
X85658Y145591D01*
X86536Y144713D01*
X87567Y144024D01*
X88714Y143549D01*
X89931Y143307D01*
X91172D01*
X91535Y143008D01*
Y140354D01*
Y29724D01*
X85630D01*
Y140354D01*
X79823D01*
Y140570D01*
X79658Y140968D01*
X79353Y141272D01*
X78956Y141437D01*
X78525D01*
X78127Y141272D01*
X77822Y140968D01*
X77658Y140570D01*
Y140354D01*
X69119D01*
X69028Y140574D01*
X68723Y140878D01*
X68326Y141043D01*
X67895D01*
X67497Y140878D01*
X67192Y140574D01*
X67101Y140354D01*
X24705D01*
Y140767D01*
X24540Y141165D01*
X24235Y141469D01*
X23837Y141634D01*
X23407D01*
X23009Y141469D01*
X22704Y141165D01*
X22539Y140767D01*
Y140354D01*
X16732D01*
Y29724D01*
X10827D01*
Y140354D01*
Y143008D01*
X11191Y143307D01*
X12431D01*
X13648Y143549D01*
X14795Y144024D01*
X15826Y144713D01*
X16704Y145591D01*
X17393Y146623D01*
X17732Y147441D01*
X84630D01*
X84969Y146623D01*
D02*
G37*
%LPC*%
G36*
X55334Y152657D02*
X54903D01*
X54505Y152493D01*
X54200Y152188D01*
X54035Y151790D01*
Y151359D01*
X54200Y150961D01*
X54505Y150657D01*
X54903Y150492D01*
X55334D01*
X55731Y150657D01*
X56036Y150961D01*
X56201Y151359D01*
Y151790D01*
X56036Y152188D01*
X55731Y152493D01*
X55334Y152657D01*
D02*
G37*
G36*
X65963Y139075D02*
X65533D01*
X65135Y138910D01*
X64830Y138605D01*
X64665Y138207D01*
Y137777D01*
X64830Y137379D01*
X65135Y137074D01*
X65533Y136909D01*
X65963D01*
X66361Y137074D01*
X66666Y137379D01*
X66831Y137777D01*
Y138207D01*
X66666Y138605D01*
X66361Y138910D01*
X65963Y139075D01*
D02*
G37*
G36*
X44310Y138878D02*
X43879D01*
X43481Y138713D01*
X43177Y138409D01*
X43012Y138011D01*
Y137580D01*
X43177Y137182D01*
X43481Y136877D01*
X43879Y136713D01*
X44310D01*
X44708Y136877D01*
X45012Y137182D01*
X45177Y137580D01*
Y138011D01*
X45012Y138409D01*
X44708Y138713D01*
X44310Y138878D01*
D02*
G37*
G36*
X72518Y138878D02*
X72088D01*
X71690Y138713D01*
X71385Y138409D01*
X71220Y138011D01*
Y137580D01*
X71385Y137182D01*
X71690Y136877D01*
X72088Y136713D01*
X72518D01*
X72916Y136877D01*
X73221Y137182D01*
X73386Y137580D01*
Y138011D01*
X73221Y138409D01*
X72916Y138713D01*
X72518Y138878D01*
D02*
G37*
G36*
X41554D02*
X41123D01*
X40725Y138713D01*
X40421Y138409D01*
X40256Y138011D01*
Y137580D01*
X40421Y137182D01*
X40725Y136877D01*
X41123Y136713D01*
X41554D01*
X41952Y136877D01*
X42256Y137182D01*
X42421Y137580D01*
Y138011D01*
X42256Y138409D01*
X41952Y138713D01*
X41554Y138878D01*
D02*
G37*
G36*
X26200D02*
X25769D01*
X25371Y138713D01*
X25066Y138409D01*
X24902Y138011D01*
Y137580D01*
X25066Y137182D01*
X25371Y136877D01*
X25769Y136713D01*
X26200D01*
X26597Y136877D01*
X26902Y137182D01*
X27067Y137580D01*
Y138011D01*
X26902Y138409D01*
X26597Y138713D01*
X26200Y138878D01*
D02*
G37*
G36*
X24034Y135925D02*
X23604D01*
X23206Y135760D01*
X22901Y135456D01*
X22736Y135058D01*
Y134627D01*
X22901Y134229D01*
X23206Y133925D01*
X23604Y133760D01*
X24034D01*
X24432Y133925D01*
X24737Y134229D01*
X24902Y134627D01*
Y135058D01*
X24737Y135456D01*
X24432Y135760D01*
X24034Y135925D01*
D02*
G37*
G36*
X31908Y137106D02*
X31478D01*
X31080Y136942D01*
X30775Y136637D01*
X30610Y136239D01*
Y135808D01*
X30775Y135410D01*
X30819Y135366D01*
X31036Y135039D01*
X30819Y134713D01*
X30775Y134668D01*
X30610Y134271D01*
Y133840D01*
X30775Y133442D01*
X31080Y133137D01*
X31478Y132973D01*
X31908D01*
X32306Y133137D01*
X32611Y133442D01*
X32776Y133840D01*
Y134271D01*
X32611Y134668D01*
X32566Y134713D01*
X32350Y135039D01*
X32566Y135366D01*
X32611Y135410D01*
X32776Y135808D01*
Y136239D01*
X32611Y136637D01*
X32306Y136942D01*
X31908Y137106D01*
D02*
G37*
G36*
X68326Y134941D02*
X67895D01*
X67497Y134776D01*
X67192Y134471D01*
X67028Y134074D01*
Y133643D01*
X67192Y133245D01*
X67497Y132940D01*
X67895Y132776D01*
X68326D01*
X68723Y132940D01*
X69028Y133245D01*
X69193Y133643D01*
Y134074D01*
X69028Y134471D01*
X68723Y134776D01*
X68326Y134941D01*
D02*
G37*
G36*
X63798D02*
X63367D01*
X62969Y134776D01*
X62665Y134471D01*
X62500Y134074D01*
Y133643D01*
X62665Y133245D01*
X62969Y132940D01*
X63367Y132776D01*
X63798D01*
X64196Y132940D01*
X64500Y133245D01*
X64665Y133643D01*
Y134074D01*
X64500Y134471D01*
X64196Y134776D01*
X63798Y134941D01*
D02*
G37*
G36*
X55924Y136516D02*
X55493D01*
X55095Y136351D01*
X54791Y136046D01*
X54626Y135648D01*
Y135254D01*
X51352Y131981D01*
X51310Y131879D01*
X51064Y131511D01*
X50977Y131074D01*
X50936Y130973D01*
Y117367D01*
X50829Y117297D01*
X50714Y117308D01*
X50256Y117522D01*
X50164Y117744D01*
X50120Y117788D01*
X49901Y118110D01*
X50120Y118441D01*
X50160Y118481D01*
X50325Y118879D01*
Y119310D01*
X50160Y119708D01*
X50116Y119752D01*
X49900Y120079D01*
X50116Y120405D01*
X50160Y120450D01*
X50325Y120848D01*
Y121279D01*
X50160Y121677D01*
X49856Y121981D01*
X49458Y122146D01*
X49027D01*
X48629Y121981D01*
X48324Y121677D01*
X48160Y121279D01*
Y120848D01*
X48324Y120450D01*
X48369Y120405D01*
X48585Y120079D01*
X48369Y119752D01*
X48324Y119708D01*
X48160Y119310D01*
Y118879D01*
X48324Y118481D01*
X48368Y118437D01*
X48588Y118114D01*
X48368Y117784D01*
X48328Y117744D01*
X48164Y117346D01*
Y116915D01*
X48328Y116517D01*
X48633Y116212D01*
X49031Y116048D01*
X49279D01*
X49503Y115565D01*
X48198Y114260D01*
X48198Y114260D01*
X47736Y114505D01*
Y114782D01*
X47571Y115180D01*
X47267Y115485D01*
X46869Y115650D01*
X46438D01*
X46040Y115485D01*
X45736Y115180D01*
X45571Y114782D01*
Y114352D01*
X45736Y113954D01*
X46040Y113649D01*
X46438Y113484D01*
X46716D01*
X46961Y113023D01*
X46961Y113022D01*
X46268Y112329D01*
X46045Y112370D01*
X45734Y112502D01*
X45603Y112818D01*
X45298Y113123D01*
X44900Y113287D01*
X44470D01*
X44072Y113123D01*
X44027Y113078D01*
X43701Y112862D01*
X43374Y113078D01*
X43330Y113123D01*
X42932Y113287D01*
X42501D01*
X42103Y113123D01*
X41799Y112818D01*
X41634Y112420D01*
Y111989D01*
X41799Y111591D01*
X42103Y111287D01*
X42501Y111122D01*
X42932D01*
X43330Y111287D01*
X43374Y111331D01*
X43701Y111548D01*
X44027Y111331D01*
X44072Y111287D01*
X44388Y111156D01*
X44520Y110845D01*
X44561Y110622D01*
X36005Y102067D01*
X35611D01*
X35214Y101902D01*
X34909Y101597D01*
X34744Y101200D01*
Y100769D01*
X34909Y100371D01*
X35214Y100066D01*
X35294Y100033D01*
X35343Y99824D01*
X35342Y99472D01*
X35106Y99235D01*
X34941Y98837D01*
Y98407D01*
X35106Y98009D01*
X35410Y97704D01*
X35601Y97625D01*
X35761Y97077D01*
X31574Y92890D01*
X31226Y92561D01*
X30825Y92322D01*
X30484Y92254D01*
Y92242D01*
X27587D01*
Y92254D01*
X27245Y92322D01*
X26844Y92562D01*
X26496Y92891D01*
X25689Y93699D01*
Y93719D01*
X25524Y94117D01*
X25220Y94422D01*
X24822Y94587D01*
X24391D01*
X23993Y94422D01*
X23688Y94117D01*
X23524Y93719D01*
Y93289D01*
X23670Y92936D01*
X23688Y92891D01*
X23313Y92589D01*
X21555Y94347D01*
Y94704D01*
X21390Y95101D01*
X21086Y95406D01*
X21074Y95941D01*
X21107Y96014D01*
X25855D01*
X25959Y95972D01*
X27657Y94273D01*
Y93879D01*
X27822Y93481D01*
X28127Y93177D01*
X28525Y93012D01*
X28956D01*
X29353Y93177D01*
X29658Y93481D01*
X29823Y93879D01*
Y94310D01*
X29658Y94708D01*
X29353Y95012D01*
X28956Y95177D01*
X28561D01*
X27215Y96523D01*
X26863Y96876D01*
Y96876D01*
X26862Y96876D01*
X26862D01*
X26862Y96876D01*
X26761Y96918D01*
X26393Y97164D01*
X25956Y97251D01*
X25855Y97293D01*
X20799D01*
X20698Y97251D01*
X20261Y97164D01*
X19893Y96918D01*
X19792Y96876D01*
X19792Y96876D01*
X19791Y96876D01*
X19438Y96523D01*
X18872Y95957D01*
X18830Y95855D01*
X18584Y95487D01*
X18497Y95050D01*
X18455Y94949D01*
Y65090D01*
X18497Y64989D01*
X18584Y64552D01*
X18829Y64185D01*
X18872Y64082D01*
X20970Y61984D01*
X20984Y61979D01*
X21020Y61892D01*
X21014Y61879D01*
X21014Y21389D01*
X21056Y21289D01*
X21143Y20852D01*
X21385Y20489D01*
X21429Y20384D01*
X22350Y19463D01*
X22452Y19421D01*
X22820Y19174D01*
X23257Y19087D01*
X23358Y19046D01*
X27651D01*
X27930Y18767D01*
X28328Y18602D01*
X28759D01*
X29157Y18767D01*
X29461Y19072D01*
X29626Y19470D01*
Y19900D01*
X29461Y20298D01*
X29157Y20603D01*
X28759Y20768D01*
X28328D01*
X27930Y20603D01*
X27651Y20324D01*
X25029D01*
X24695Y20824D01*
X24705Y20848D01*
Y21278D01*
X24540Y21676D01*
X24235Y21981D01*
X24064Y22052D01*
X24050Y22288D01*
X24114Y22572D01*
X24432Y22704D01*
X24737Y23009D01*
X24902Y23407D01*
Y23837D01*
X24737Y24235D01*
X24432Y24540D01*
X24034Y24705D01*
X23604D01*
X23206Y24540D01*
X22901Y24235D01*
X22793Y23974D01*
X22293Y24073D01*
Y29657D01*
X22376Y29706D01*
X22793Y29810D01*
X23009Y29594D01*
X23407Y29429D01*
X23837D01*
X24235Y29594D01*
X24414Y29772D01*
X24902Y29565D01*
Y29312D01*
X25066Y28914D01*
X25371Y28610D01*
X25769Y28445D01*
X26200D01*
X26597Y28610D01*
X26902Y28914D01*
X27067Y29312D01*
Y29743D01*
X26902Y30141D01*
X26597Y30445D01*
X26200Y30610D01*
X25769D01*
X25371Y30445D01*
X25192Y30267D01*
X24705Y30475D01*
Y30727D01*
X24540Y31125D01*
X24496Y31169D01*
X24279Y31496D01*
X24496Y31823D01*
X24540Y31867D01*
X24705Y32265D01*
Y32696D01*
X24540Y33094D01*
X24235Y33398D01*
X23837Y33563D01*
X23407D01*
X23009Y33398D01*
X22793Y33182D01*
X22376Y33286D01*
X22293Y33335D01*
Y34982D01*
X22793Y35081D01*
X22901Y34820D01*
X23206Y34515D01*
X23604Y34350D01*
X24034D01*
X24432Y34515D01*
X24737Y34820D01*
X24902Y35218D01*
Y35648D01*
X24737Y36046D01*
X24432Y36351D01*
X24034Y36516D01*
X23604D01*
X23206Y36351D01*
X22901Y36046D01*
X22793Y35785D01*
X22293Y35884D01*
Y39302D01*
X22376Y39351D01*
X22793Y39456D01*
X23009Y39240D01*
X23407Y39075D01*
X23837D01*
X24235Y39240D01*
X24540Y39544D01*
X24705Y39942D01*
Y40373D01*
X24540Y40771D01*
X24496Y40815D01*
X24279Y41142D01*
X24496Y41468D01*
X24540Y41513D01*
X24705Y41911D01*
Y42341D01*
X24540Y42739D01*
X24496Y42784D01*
X24279Y43110D01*
X24496Y43437D01*
X24540Y43481D01*
X24705Y43879D01*
Y44310D01*
X24540Y44708D01*
X24235Y45012D01*
X23837Y45177D01*
X23407D01*
X23009Y45012D01*
X22793Y44796D01*
X22376Y44901D01*
X22293Y44950D01*
Y46793D01*
X22793Y46892D01*
X22901Y46631D01*
X23206Y46326D01*
X23604Y46161D01*
X24034D01*
X24432Y46326D01*
X24737Y46631D01*
X24902Y47029D01*
Y47459D01*
X24737Y47857D01*
X24432Y48162D01*
X24034Y48327D01*
X23604D01*
X23206Y48162D01*
X22901Y47857D01*
X22793Y47596D01*
X22293Y47695D01*
Y61385D01*
X22293Y61879D01*
X22293Y61879D01*
X22293Y61879D01*
X22293D01*
X22251Y61979D01*
X22164Y62416D01*
X21915Y62789D01*
X21874Y62888D01*
X20165Y64597D01*
X20165Y64597D01*
X20410Y65059D01*
X20688D01*
X21086Y65224D01*
X21364Y65503D01*
X27456D01*
X27521Y65445D01*
X27749Y65003D01*
X27657Y64782D01*
Y64734D01*
X27589Y64340D01*
X27196Y64272D01*
X27147D01*
X26749Y64107D01*
X26444Y63802D01*
X26280Y63404D01*
Y62974D01*
X26444Y62576D01*
X26749Y62271D01*
X27147Y62106D01*
X27578D01*
X27975Y62271D01*
X28280Y62576D01*
X28445Y62974D01*
Y63022D01*
X28513Y63416D01*
X28907Y63484D01*
X28956D01*
X29353Y63649D01*
X29528Y63823D01*
X29702Y63649D01*
X30100Y63484D01*
X30530D01*
X30928Y63649D01*
X31233Y63954D01*
X31398Y64352D01*
Y64782D01*
X31306Y65003D01*
X31534Y65445D01*
X31599Y65503D01*
X34272D01*
X34372Y65544D01*
X34809Y65631D01*
X35149Y65858D01*
X35263Y65903D01*
X36020Y66634D01*
X36436D01*
X36834Y66799D01*
X37138Y67103D01*
X37303Y67501D01*
Y67932D01*
X37212Y68152D01*
X37440Y68595D01*
X37505Y68652D01*
X38086D01*
X38151Y68595D01*
X38379Y68152D01*
X38287Y67932D01*
Y67501D01*
X38452Y67103D01*
X38757Y66799D01*
X39155Y66634D01*
X39585D01*
X39983Y66799D01*
X40288Y67103D01*
X40453Y67501D01*
Y67932D01*
X40413Y68028D01*
X40829Y68330D01*
X41437Y67806D01*
Y67501D01*
X41602Y67103D01*
X41906Y66799D01*
X42304Y66634D01*
X42735D01*
X43133Y66799D01*
X43437Y67103D01*
X43602Y67501D01*
Y67932D01*
X43437Y68330D01*
X43133Y68634D01*
X42735Y68799D01*
X42304D01*
X42263Y68782D01*
X41331Y69585D01*
X41196Y69629D01*
X40938Y69802D01*
X40609Y69867D01*
X40491Y70010D01*
X40429Y70121D01*
X40371Y70311D01*
X40361Y70431D01*
X40453Y70651D01*
Y71082D01*
X40288Y71479D01*
X39983Y71784D01*
X39585Y71949D01*
X39155D01*
X39113Y71931D01*
X38182Y72734D01*
X38047Y72779D01*
X37788Y72952D01*
X37351Y73039D01*
X37250Y73080D01*
X34355D01*
X34290Y73137D01*
X34062Y73580D01*
X34154Y73800D01*
Y74231D01*
X33989Y74629D01*
X33684Y74934D01*
X33286Y75098D01*
X32855D01*
X32458Y74934D01*
X32153Y74629D01*
X31988Y74231D01*
Y73800D01*
X32079Y73580D01*
X31851Y73137D01*
X31787Y73080D01*
X29066D01*
X29053Y73075D01*
X28967Y73111D01*
X28962Y73124D01*
X21555Y80530D01*
Y80924D01*
X21390Y81322D01*
X21086Y81626D01*
X20688Y81791D01*
X20257D01*
X20234Y81782D01*
X19734Y82116D01*
Y83435D01*
X20234Y83770D01*
X20257Y83760D01*
X20688D01*
X21086Y83925D01*
X21390Y84229D01*
X21555Y84627D01*
Y85058D01*
X21390Y85456D01*
X21086Y85760D01*
X20688Y85925D01*
X20257D01*
X20234Y85915D01*
X19734Y86250D01*
Y87176D01*
X20234Y87510D01*
X20257Y87500D01*
X20651D01*
X26579Y81573D01*
X26676Y81532D01*
X27052Y81281D01*
X27489Y81194D01*
X27590Y81152D01*
X34255D01*
X34268Y81157D01*
X34348Y81124D01*
X34353Y81115D01*
X35138Y80420D01*
Y80100D01*
X35303Y79702D01*
X35607Y79397D01*
X36005Y79232D01*
X36436D01*
X36799Y78842D01*
X36825Y78674D01*
X36399Y78248D01*
X36005D01*
X35607Y78083D01*
X35303Y77779D01*
X35138Y77381D01*
Y76950D01*
X35303Y76552D01*
X35607Y76248D01*
X36005Y76083D01*
X36286D01*
X36545Y75915D01*
X36713Y75656D01*
Y75375D01*
X36877Y74977D01*
X37182Y74673D01*
X37580Y74508D01*
X37861D01*
X38120Y74340D01*
X38287Y74081D01*
Y73800D01*
X38452Y73403D01*
X38757Y73098D01*
X39155Y72933D01*
X39585D01*
X39983Y73098D01*
X40288Y73403D01*
X40453Y73800D01*
Y74217D01*
X41184Y74973D01*
X41228Y75087D01*
X41456Y75427D01*
X41542Y75864D01*
X41554Y75893D01*
X41637Y75976D01*
X41679Y76004D01*
X42084Y76174D01*
X42305Y76082D01*
X42735D01*
X43133Y76247D01*
X43438Y76552D01*
X43603Y76950D01*
Y77381D01*
X43438Y77778D01*
X43133Y78083D01*
X42735Y78248D01*
X42305D01*
X42084Y78156D01*
X41642Y78384D01*
X41584Y78449D01*
Y81564D01*
X41542Y81664D01*
X41456Y82101D01*
X41208Y82472D01*
X41166Y82572D01*
X41166Y82572D01*
X41166Y82572D01*
X37257Y86482D01*
X36903Y86835D01*
X36903Y86836D01*
X36903Y86835D01*
X36803Y86877D01*
X36432Y87125D01*
X35995Y87212D01*
X35894Y87253D01*
X28710D01*
X28697Y87248D01*
X28611Y87284D01*
X28605Y87297D01*
X23832Y92071D01*
X24098Y92511D01*
X24423Y92410D01*
X25558Y91275D01*
X25554Y91269D01*
X26147Y90814D01*
X26842Y90526D01*
X27587Y90428D01*
Y90435D01*
X30484D01*
Y90428D01*
X31229Y90526D01*
X31923Y90814D01*
X32513Y91266D01*
X32510Y91269D01*
X32511Y91273D01*
X38111Y96873D01*
X38459Y97203D01*
X38860Y97442D01*
X39201Y97510D01*
Y97522D01*
X45632D01*
X45647Y97507D01*
X46044Y97342D01*
X46475D01*
X46931Y96990D01*
Y95894D01*
X46919D01*
X46851Y95553D01*
X46612Y95152D01*
X46283Y94804D01*
X45603Y94125D01*
X45600Y94124D01*
X45597Y94127D01*
X45145Y93537D01*
X44857Y92843D01*
X44759Y92098D01*
X44766D01*
Y84280D01*
X44759D01*
X44857Y83535D01*
X45145Y82841D01*
X45600Y82247D01*
X45605Y82251D01*
X45606Y82251D01*
X47736Y80121D01*
Y80100D01*
X47901Y79702D01*
X48206Y79397D01*
X48604Y79233D01*
X49034D01*
X49432Y79397D01*
X49737Y79702D01*
X49902Y80100D01*
Y80531D01*
X49737Y80928D01*
X49432Y81233D01*
X49034Y81398D01*
X49014D01*
X47222Y83189D01*
X46893Y83537D01*
X46653Y83938D01*
X46585Y84280D01*
X46573D01*
Y92098D01*
X46585D01*
X46653Y92439D01*
X46892Y92840D01*
X47221Y93188D01*
X47900Y93867D01*
X47903Y93867D01*
X47907Y93864D01*
X48359Y94455D01*
X48647Y95149D01*
X48745Y95894D01*
X48738D01*
Y98425D01*
X48769D01*
X48578Y99385D01*
X48034Y100199D01*
X47783Y100366D01*
X47747Y100408D01*
X47589Y100526D01*
X47514Y100562D01*
X47306Y100722D01*
X46611Y101009D01*
X45866Y101107D01*
Y101100D01*
X38414D01*
Y101107D01*
X37669Y101009D01*
X37235Y101371D01*
X37208Y101462D01*
X51445Y115698D01*
X51797Y116051D01*
X51798Y116052D01*
X51798Y116052D01*
X51839Y116153D01*
X52085Y116521D01*
X52172Y116958D01*
X52214Y117058D01*
Y121753D01*
X52714Y122028D01*
X52904Y121949D01*
X53335D01*
X53733Y122114D01*
X54037Y122418D01*
X54202Y122816D01*
Y123247D01*
X54037Y123645D01*
X53993Y123689D01*
X53777Y124016D01*
X53993Y124342D01*
X54038Y124387D01*
X54203Y124784D01*
Y125215D01*
X54038Y125613D01*
X53993Y125658D01*
X53777Y125984D01*
X53993Y126311D01*
X54038Y126356D01*
X54203Y126753D01*
Y127184D01*
X54038Y127582D01*
X53994Y127626D01*
X53777Y127953D01*
X53994Y128279D01*
X54038Y128323D01*
X54203Y128721D01*
Y129152D01*
X54038Y129550D01*
X53733Y129855D01*
X53335Y130019D01*
X52905D01*
X52714Y129940D01*
X52214Y130215D01*
Y130973D01*
X52256Y131077D01*
X55530Y134350D01*
X55924D01*
X56218Y134472D01*
X56532Y134252D01*
X56622Y134139D01*
X56595Y134074D01*
Y133643D01*
X56759Y133245D01*
X57064Y132940D01*
X57462Y132776D01*
X57893D01*
X58290Y132940D01*
X58335Y132985D01*
X58661Y133201D01*
X58988Y132985D01*
X59032Y132940D01*
X59430Y132776D01*
X59861D01*
X60259Y132940D01*
X60563Y133245D01*
X60728Y133643D01*
Y134074D01*
X60563Y134471D01*
X60259Y134776D01*
X59861Y134941D01*
X59430D01*
X59032Y134776D01*
X58988Y134732D01*
X58661Y134516D01*
X58335Y134732D01*
X58290Y134776D01*
X57893Y134941D01*
X57462D01*
X57167Y134819D01*
X56854Y135040D01*
X56764Y135152D01*
X56791Y135218D01*
Y135648D01*
X56626Y136046D01*
X56322Y136351D01*
X55924Y136516D01*
D02*
G37*
G36*
X46672Y135138D02*
X46241D01*
X45843Y134973D01*
X45539Y134668D01*
X45374Y134271D01*
Y134064D01*
X45170Y133750D01*
X44916Y133638D01*
X44666D01*
X44269Y133473D01*
X43964Y133168D01*
X43799Y132771D01*
Y132340D01*
X43964Y131942D01*
X44269Y131637D01*
X44666Y131473D01*
X45097D01*
X45495Y131637D01*
X45800Y131942D01*
X45965Y132340D01*
Y132546D01*
X46169Y132861D01*
X46422Y132973D01*
X46672D01*
X47070Y133137D01*
X47374Y133442D01*
X47539Y133840D01*
Y134271D01*
X47374Y134668D01*
X47070Y134973D01*
X46672Y135138D01*
D02*
G37*
G36*
X55924Y132579D02*
X55493D01*
X55095Y132414D01*
X54791Y132109D01*
X54626Y131711D01*
Y131281D01*
X54791Y130883D01*
X55095Y130578D01*
X55493Y130413D01*
X55924D01*
X56322Y130578D01*
X56626Y130883D01*
X56791Y131281D01*
Y131711D01*
X56626Y132109D01*
X56322Y132414D01*
X55924Y132579D01*
D02*
G37*
G36*
X35058Y131004D02*
X34627D01*
X34229Y130839D01*
X33925Y130535D01*
X33760Y130137D01*
Y129706D01*
X33925Y129308D01*
X34229Y129003D01*
X34627Y128839D01*
X35058D01*
X35456Y129003D01*
X35760Y129308D01*
X35925Y129706D01*
Y130137D01*
X35760Y130535D01*
X35456Y130839D01*
X35058Y131004D01*
D02*
G37*
G36*
X24034Y132972D02*
X23604D01*
X23206Y132808D01*
X22901Y132503D01*
X22736Y132105D01*
Y131674D01*
X22901Y131277D01*
X23009Y130839D01*
X22704Y130535D01*
X22539Y130137D01*
Y129706D01*
X22704Y129308D01*
X23009Y129003D01*
X23407Y128839D01*
X23837D01*
X24235Y129003D01*
X24540Y129308D01*
X24705Y129706D01*
Y130137D01*
X24540Y130535D01*
X24432Y130972D01*
X24737Y131277D01*
X24902Y131674D01*
Y132105D01*
X24737Y132503D01*
X24432Y132808D01*
X24034Y132972D01*
D02*
G37*
G36*
X76593D02*
X76163D01*
X75765Y132808D01*
X75460Y132503D01*
X75295Y132105D01*
Y131674D01*
X75460Y131277D01*
X75765Y130972D01*
X76163Y130807D01*
X76593D01*
X76991Y130972D01*
X77170Y131150D01*
X77658Y130943D01*
Y130690D01*
X77822Y130292D01*
X77867Y130248D01*
X78083Y129921D01*
X77867Y129595D01*
X77822Y129550D01*
X77658Y129152D01*
Y128722D01*
X77822Y128324D01*
X78127Y128019D01*
X78525Y127854D01*
X78956D01*
X79353Y128019D01*
X79658Y128324D01*
X79823Y128722D01*
Y129152D01*
X79658Y129550D01*
X79614Y129595D01*
X79397Y129921D01*
X79614Y130248D01*
X79658Y130292D01*
X79823Y130690D01*
Y131121D01*
X79658Y131519D01*
X79353Y131823D01*
X78956Y131988D01*
X78525D01*
X78127Y131823D01*
X77948Y131645D01*
X77461Y131853D01*
Y132105D01*
X77296Y132503D01*
X76991Y132808D01*
X76593Y132972D01*
D02*
G37*
G36*
X26823Y130020D02*
X26393D01*
X25995Y129855D01*
X25690Y129550D01*
X25525Y129152D01*
Y128722D01*
X25690Y128324D01*
X25995Y128019D01*
X26393Y127854D01*
X26823D01*
X27221Y128019D01*
X27526Y128324D01*
X27691Y128722D01*
Y129152D01*
X27526Y129550D01*
X27221Y129855D01*
X26823Y130020D01*
D02*
G37*
G36*
X78759Y127067D02*
X78328D01*
X77930Y126902D01*
X77626Y126597D01*
X77461Y126200D01*
Y125769D01*
X77626Y125371D01*
X77930Y125066D01*
X78328Y124902D01*
X78759D01*
X79157Y125066D01*
X79461Y125371D01*
X79626Y125769D01*
Y126200D01*
X79461Y126597D01*
X79157Y126902D01*
X78759Y127067D01*
D02*
G37*
G36*
X75969Y124114D02*
X75539D01*
X75141Y123949D01*
X74836Y123645D01*
X74672Y123247D01*
Y122816D01*
X74836Y122418D01*
X75141Y122114D01*
X75539Y121949D01*
X75969D01*
X76367Y122114D01*
X76672Y122418D01*
X76837Y122816D01*
Y123247D01*
X76672Y123645D01*
X76367Y123949D01*
X75969Y124114D01*
D02*
G37*
G36*
X26823D02*
X26393D01*
X25995Y123949D01*
X25690Y123645D01*
X25525Y123247D01*
Y122816D01*
X25690Y122418D01*
X25995Y122114D01*
X26393Y121949D01*
X26823D01*
X27221Y122114D01*
X27526Y122418D01*
X27691Y122816D01*
Y123247D01*
X27526Y123645D01*
X27221Y123949D01*
X26823Y124114D01*
D02*
G37*
G36*
X71672Y125098D02*
X71241D01*
X70843Y124934D01*
X70539Y124629D01*
X70374Y124231D01*
Y123800D01*
X70539Y123403D01*
X70713Y123228D01*
X70539Y123054D01*
X70374Y122656D01*
Y122226D01*
X70539Y121828D01*
X70843Y121523D01*
X71241Y121358D01*
X71672D01*
X72070Y121523D01*
X72374Y121828D01*
X72539Y122226D01*
Y122656D01*
X72374Y123054D01*
X72200Y123228D01*
X72374Y123403D01*
X72539Y123800D01*
Y124231D01*
X72374Y124629D01*
X72070Y124934D01*
X71672Y125098D01*
D02*
G37*
G36*
X31121Y124705D02*
X30690D01*
X30292Y124540D01*
X29988Y124235D01*
X29823Y123837D01*
Y123407D01*
X29988Y123009D01*
X30162Y122835D01*
X29988Y122661D01*
X29823Y122263D01*
Y121832D01*
X29988Y121434D01*
X30292Y121129D01*
X30690Y120965D01*
X31121D01*
X31519Y121129D01*
X31823Y121434D01*
X31988Y121832D01*
Y122263D01*
X31823Y122661D01*
X31649Y122835D01*
X31823Y123009D01*
X31988Y123407D01*
Y123837D01*
X31823Y124235D01*
X31519Y124540D01*
X31121Y124705D01*
D02*
G37*
G36*
X23837Y127657D02*
X23407D01*
X23009Y127493D01*
X22704Y127188D01*
X22539Y126790D01*
Y126359D01*
X22704Y125961D01*
X22859Y125806D01*
X22957Y125492D01*
X22859Y125178D01*
X22704Y125023D01*
X22539Y124625D01*
Y124194D01*
X22704Y123796D01*
X22859Y123641D01*
X22957Y123327D01*
X22859Y123012D01*
X22704Y122857D01*
X22539Y122459D01*
Y122029D01*
X22704Y121631D01*
X22945Y121390D01*
X23008Y121295D01*
X22998Y120789D01*
X22901Y120692D01*
X22736Y120294D01*
Y119863D01*
X22901Y119465D01*
X23206Y119161D01*
X23604Y118996D01*
X24034D01*
X24432Y119161D01*
X24737Y119465D01*
X24902Y119863D01*
Y120294D01*
X24737Y120692D01*
X24496Y120933D01*
X24433Y121028D01*
X24443Y121534D01*
X24540Y121631D01*
X24705Y122029D01*
Y122459D01*
X24540Y122857D01*
X24385Y123012D01*
X24287Y123327D01*
X24385Y123641D01*
X24540Y123796D01*
X24705Y124194D01*
Y124625D01*
X24540Y125023D01*
X24385Y125178D01*
X24287Y125492D01*
X24385Y125806D01*
X24540Y125961D01*
X24705Y126359D01*
Y126790D01*
X24540Y127188D01*
X24235Y127493D01*
X23837Y127657D01*
D02*
G37*
G36*
X78956Y122343D02*
X78525D01*
X78127Y122178D01*
X77822Y121873D01*
X77658Y121475D01*
Y121045D01*
X77822Y120647D01*
X77867Y120602D01*
X78083Y120276D01*
X77867Y119949D01*
X77822Y119905D01*
X77658Y119507D01*
Y119076D01*
X77822Y118678D01*
X77867Y118634D01*
X78083Y118307D01*
X77867Y117980D01*
X77822Y117936D01*
X77658Y117538D01*
Y117107D01*
X77822Y116709D01*
X78127Y116405D01*
X78525Y116240D01*
X78956D01*
X79353Y116405D01*
X79658Y116709D01*
X79823Y117107D01*
Y117538D01*
X79658Y117936D01*
X79614Y117980D01*
X79397Y118307D01*
X79614Y118634D01*
X79658Y118678D01*
X79823Y119076D01*
Y119507D01*
X79658Y119905D01*
X79614Y119949D01*
X79397Y120276D01*
X79614Y120602D01*
X79658Y120647D01*
X79823Y121045D01*
Y121475D01*
X79658Y121873D01*
X79353Y122178D01*
X78956Y122343D01*
D02*
G37*
G36*
X75969Y118209D02*
X75539D01*
X75141Y118044D01*
X74836Y117739D01*
X74672Y117341D01*
Y116911D01*
X74836Y116513D01*
X75141Y116208D01*
X75539Y116043D01*
X75969D01*
X76367Y116208D01*
X76672Y116513D01*
X76837Y116911D01*
Y117341D01*
X76672Y117739D01*
X76367Y118044D01*
X75969Y118209D01*
D02*
G37*
G36*
X23837D02*
X23407D01*
X23009Y118044D01*
X22704Y117739D01*
X22539Y117341D01*
Y116911D01*
X22704Y116513D01*
X23009Y116208D01*
X23407Y116043D01*
X23837D01*
X24235Y116208D01*
X24540Y116513D01*
X24705Y116911D01*
Y117341D01*
X24540Y117739D01*
X24235Y118044D01*
X23837Y118209D01*
D02*
G37*
G36*
X78759Y115256D02*
X78328D01*
X77930Y115091D01*
X77626Y114787D01*
X77461Y114389D01*
Y113958D01*
X77626Y113560D01*
X77930Y113255D01*
X78328Y113091D01*
X78759D01*
X79157Y113255D01*
X79461Y113560D01*
X79626Y113958D01*
Y114389D01*
X79461Y114787D01*
X79157Y115091D01*
X78759Y115256D01*
D02*
G37*
G36*
X67735D02*
X67304D01*
X66906Y115091D01*
X66602Y114787D01*
X66437Y114389D01*
Y113958D01*
X66602Y113560D01*
X66906Y113255D01*
X67304Y113091D01*
X67735D01*
X68133Y113255D01*
X68437Y113560D01*
X68602Y113958D01*
Y114389D01*
X68437Y114787D01*
X68133Y115091D01*
X67735Y115256D01*
D02*
G37*
G36*
X26200D02*
X25769D01*
X25371Y115091D01*
X25066Y114787D01*
X24902Y114389D01*
Y113958D01*
X25066Y113560D01*
X25371Y113255D01*
X25769Y113091D01*
X26200D01*
X26597Y113255D01*
X26902Y113560D01*
X27067Y113958D01*
Y114389D01*
X26902Y114787D01*
X26597Y115091D01*
X26200Y115256D01*
D02*
G37*
G36*
X58483Y114469D02*
X58052D01*
X57654Y114304D01*
X57350Y113999D01*
X57185Y113601D01*
Y113171D01*
X57350Y112773D01*
X57654Y112468D01*
X58052Y112303D01*
X58483D01*
X58881Y112468D01*
X59186Y112773D01*
X59350Y113171D01*
Y113601D01*
X59186Y113999D01*
X58881Y114304D01*
X58483Y114469D01*
D02*
G37*
G36*
X38995Y113287D02*
X38564D01*
X38166Y113123D01*
X37862Y112818D01*
X37697Y112420D01*
Y111989D01*
X37862Y111591D01*
X38166Y111287D01*
X38564Y111122D01*
X38995D01*
X39393Y111287D01*
X39697Y111591D01*
X39862Y111989D01*
Y112420D01*
X39697Y112818D01*
X39393Y113123D01*
X38995Y113287D01*
D02*
G37*
G36*
X70294Y111122D02*
X69863D01*
X69466Y110957D01*
X69161Y110653D01*
X68996Y110255D01*
Y109824D01*
X69137Y109485D01*
X68763Y109170D01*
X68723Y109186D01*
X68678Y109204D01*
X68326Y109350D01*
X67895D01*
X67497Y109186D01*
X67192Y108881D01*
X66666D01*
X66361Y109186D01*
X65963Y109350D01*
X65533D01*
X65135Y109186D01*
X64830Y108881D01*
X64665Y108483D01*
Y108052D01*
X64830Y107654D01*
X65135Y107350D01*
X65533Y107185D01*
X65963D01*
X66361Y107350D01*
X66666Y107654D01*
X67192D01*
X67497Y107350D01*
X67895Y107185D01*
X68326D01*
X68723Y107350D01*
X69028Y107654D01*
X69193Y108052D01*
Y108483D01*
X69052Y108823D01*
X69425Y109137D01*
X69466Y109122D01*
X69511Y109103D01*
X69863Y108957D01*
X70294D01*
X70692Y109122D01*
X70997Y109426D01*
X71161Y109824D01*
Y110255D01*
X70997Y110653D01*
X70692Y110957D01*
X70294Y111122D01*
D02*
G37*
G36*
X63208Y109350D02*
X62777D01*
X62379Y109186D01*
X62335Y109141D01*
X62008Y108925D01*
X61681Y109141D01*
X61637Y109186D01*
X61239Y109350D01*
X60808D01*
X60410Y109186D01*
X60106Y108881D01*
X59941Y108483D01*
Y108052D01*
X60106Y107654D01*
X60410Y107350D01*
X60808Y107185D01*
X61239D01*
X61637Y107350D01*
X61681Y107394D01*
X62008Y107610D01*
X62335Y107394D01*
X62379Y107350D01*
X62777Y107185D01*
X63208D01*
X63605Y107350D01*
X63910Y107654D01*
X64075Y108052D01*
Y108483D01*
X63910Y108881D01*
X63605Y109186D01*
X63208Y109350D01*
D02*
G37*
G36*
X30274Y109350D02*
X29844D01*
X29446Y109186D01*
X29141Y108881D01*
X28976Y108483D01*
Y108052D01*
X29141Y107654D01*
X29446Y107350D01*
X29844Y107185D01*
X30274D01*
X30672Y107350D01*
X30977Y107654D01*
X31142Y108052D01*
Y108483D01*
X30977Y108881D01*
X30672Y109186D01*
X30274Y109350D01*
D02*
G37*
G36*
X58483Y109350D02*
X58052D01*
X57654Y109186D01*
X57350Y108881D01*
X57185Y108483D01*
Y108052D01*
X57350Y107654D01*
X57654Y107350D01*
X58052Y107185D01*
X58483D01*
X58881Y107350D01*
X59186Y107654D01*
X59350Y108052D01*
Y108483D01*
X59186Y108881D01*
X58881Y109186D01*
X58483Y109350D01*
D02*
G37*
G36*
X24034Y109350D02*
X23604D01*
X23206Y109186D01*
X22901Y108881D01*
X22736Y108483D01*
Y108052D01*
X22901Y107654D01*
X23009Y107217D01*
X22704Y106913D01*
X22539Y106515D01*
Y106084D01*
X22704Y105686D01*
X23009Y105381D01*
X23407Y105217D01*
X23837D01*
X24235Y105381D01*
X24540Y105686D01*
X24705Y106084D01*
Y106515D01*
X24540Y106913D01*
X24432Y107350D01*
X24737Y107654D01*
X24902Y108052D01*
Y108483D01*
X24737Y108881D01*
X24432Y109186D01*
X24034Y109350D01*
D02*
G37*
G36*
X62223Y103445D02*
X61792D01*
X61394Y103280D01*
X61090Y102975D01*
X60563D01*
X60259Y103280D01*
X59861Y103445D01*
X59430D01*
X59032Y103280D01*
X58728Y102975D01*
X58563Y102578D01*
Y102147D01*
X58728Y101749D01*
X59032Y101444D01*
X59430Y101279D01*
X59861D01*
X60259Y101444D01*
X60563Y101749D01*
X61090D01*
X61394Y101444D01*
X61628Y101348D01*
Y100818D01*
X61394Y100721D01*
X61090Y100417D01*
X60925Y100019D01*
Y99588D01*
X61090Y99190D01*
X61394Y98885D01*
X61792Y98721D01*
X62223D01*
X62621Y98885D01*
X62926Y99190D01*
X63090Y99588D01*
Y100019D01*
X62926Y100417D01*
X62621Y100721D01*
X62388Y100818D01*
Y101348D01*
X62621Y101444D01*
X62926Y101749D01*
X63090Y102147D01*
Y102578D01*
X62926Y102975D01*
X62621Y103280D01*
X62223Y103445D01*
D02*
G37*
G36*
X72263D02*
X71832D01*
X71434Y103280D01*
X71129Y102975D01*
X70965Y102578D01*
Y102147D01*
X71129Y101749D01*
X71434Y101444D01*
X71832Y101279D01*
X72263D01*
X72660Y101444D01*
X72965Y101749D01*
X73130Y102147D01*
Y102578D01*
X72965Y102975D01*
X72660Y103280D01*
X72263Y103445D01*
D02*
G37*
G36*
X53759Y100886D02*
X53328D01*
X52930Y100721D01*
X52626Y100416D01*
X52461Y100019D01*
Y99588D01*
X52626Y99190D01*
X52930Y98885D01*
X53328Y98721D01*
X53759D01*
X54157Y98885D01*
X54461Y99190D01*
X54626Y99588D01*
Y100019D01*
X54461Y100416D01*
X54157Y100721D01*
X53759Y100886D01*
D02*
G37*
G36*
X64883Y98721D02*
X64453D01*
X64055Y98556D01*
X63750Y98251D01*
X63585Y97853D01*
Y97422D01*
X63750Y97025D01*
X64055Y96720D01*
X64453Y96555D01*
X64883D01*
X65281Y96720D01*
X65586Y97025D01*
X65751Y97422D01*
Y97853D01*
X65586Y98251D01*
X65281Y98556D01*
X64883Y98721D01*
D02*
G37*
G36*
X78168Y100394D02*
X77737D01*
X77340Y100229D01*
X77035Y99924D01*
X76870Y99526D01*
Y99096D01*
X77026Y98721D01*
X76870Y98345D01*
Y97915D01*
X77026Y97539D01*
X76870Y97164D01*
Y96733D01*
X77035Y96336D01*
X77340Y96031D01*
X77737Y95866D01*
X78168D01*
X78566Y96031D01*
X78871Y96336D01*
X79035Y96733D01*
Y97164D01*
X78880Y97539D01*
X79035Y97915D01*
Y98345D01*
X78880Y98721D01*
X79035Y99096D01*
Y99526D01*
X78871Y99924D01*
X78566Y100229D01*
X78168Y100394D01*
D02*
G37*
G36*
X42735Y93996D02*
X42304D01*
X41906Y93831D01*
X41602Y93527D01*
X41437Y93129D01*
Y92698D01*
X41602Y92300D01*
X41906Y91996D01*
X42304Y91831D01*
X42735D01*
X43133Y91996D01*
X43437Y92300D01*
X43602Y92698D01*
Y93129D01*
X43437Y93527D01*
X43133Y93831D01*
X42735Y93996D01*
D02*
G37*
G36*
X39585D02*
X39155D01*
X38757Y93831D01*
X38452Y93527D01*
X38287Y93129D01*
Y92698D01*
X38452Y92300D01*
X38757Y91996D01*
X39155Y91831D01*
X39585D01*
X39983Y91996D01*
X40288Y92300D01*
X40453Y92698D01*
Y93129D01*
X40288Y93527D01*
X39983Y93831D01*
X39585Y93996D01*
D02*
G37*
G36*
X58483Y93996D02*
X58053D01*
X57655Y93831D01*
X57350Y93526D01*
X57185Y93129D01*
Y92698D01*
X57350Y92300D01*
X57655Y91995D01*
X58053Y91830D01*
X58483D01*
X58881Y91995D01*
X59186Y92300D01*
X59351Y92698D01*
Y93129D01*
X59186Y93526D01*
X58881Y93831D01*
X58483Y93996D01*
D02*
G37*
G36*
Y90847D02*
X58053D01*
X57655Y90682D01*
X57350Y90377D01*
X57185Y89979D01*
Y89549D01*
X57350Y89151D01*
X57655Y88846D01*
X58053Y88682D01*
X58483D01*
X58881Y88846D01*
X59186Y89151D01*
X59351Y89549D01*
Y89979D01*
X59186Y90377D01*
X58881Y90682D01*
X58483Y90847D01*
D02*
G37*
G36*
X49034Y90847D02*
X48603D01*
X48206Y90682D01*
X47901Y90377D01*
X47736Y89979D01*
Y89548D01*
X47901Y89151D01*
X48206Y88846D01*
X48603Y88681D01*
X49034D01*
X49432Y88846D01*
X49737Y89151D01*
X49902Y89548D01*
Y89979D01*
X49737Y90377D01*
X49432Y90682D01*
X49034Y90847D01*
D02*
G37*
G36*
X42735D02*
X42304D01*
X41906Y90682D01*
X41602Y90377D01*
X41437Y89979D01*
Y89548D01*
X41602Y89151D01*
X41906Y88846D01*
X42304Y88681D01*
X42735D01*
X43133Y88846D01*
X43437Y89151D01*
X43602Y89548D01*
Y89979D01*
X43437Y90377D01*
X43133Y90682D01*
X42735Y90847D01*
D02*
G37*
G36*
X39585D02*
X39155D01*
X38757Y90682D01*
X38452Y90377D01*
X38287Y89979D01*
Y89548D01*
X38452Y89151D01*
X38757Y88846D01*
X39155Y88681D01*
X39585D01*
X39983Y88846D01*
X40288Y89151D01*
X40453Y89548D01*
Y89979D01*
X40288Y90377D01*
X39983Y90682D01*
X39585Y90847D01*
D02*
G37*
G36*
X75576Y89272D02*
X75145D01*
X74747Y89107D01*
X74443Y88802D01*
X74278Y88404D01*
Y87974D01*
X74443Y87576D01*
X74747Y87271D01*
X75145Y87106D01*
X75576D01*
X75974Y87271D01*
X76278Y87576D01*
X76443Y87974D01*
Y88404D01*
X76278Y88802D01*
X75974Y89107D01*
X75576Y89272D01*
D02*
G37*
G36*
X61632Y87697D02*
X61202D01*
X60804Y87532D01*
X60499Y87227D01*
X60334Y86830D01*
Y86399D01*
X60499Y86001D01*
X60804Y85696D01*
X61202Y85532D01*
X61632D01*
X62030Y85696D01*
X62335Y86001D01*
X62500Y86399D01*
Y86830D01*
X62335Y87227D01*
X62030Y87532D01*
X61632Y87697D01*
D02*
G37*
G36*
X39585D02*
X39155D01*
X38757Y87532D01*
X38452Y87227D01*
X38287Y86830D01*
Y86399D01*
X38452Y86001D01*
X38757Y85696D01*
X39155Y85532D01*
X39585D01*
X39983Y85696D01*
X40288Y86001D01*
X40453Y86399D01*
Y86830D01*
X40288Y87227D01*
X39983Y87532D01*
X39585Y87697D01*
D02*
G37*
G36*
X53759Y86122D02*
X53328D01*
X52930Y85957D01*
X52626Y85653D01*
X52461Y85255D01*
Y84824D01*
X52626Y84426D01*
X52930Y84122D01*
X53328Y83957D01*
X53759D01*
X54157Y84122D01*
X54461Y84426D01*
X54626Y84824D01*
Y85255D01*
X54461Y85653D01*
X54157Y85957D01*
X53759Y86122D01*
D02*
G37*
G36*
X49034Y87697D02*
X48603D01*
X48206Y87532D01*
X47901Y87227D01*
X47736Y86830D01*
Y86399D01*
X47901Y86001D01*
X48206Y85696D01*
X48603Y85532D01*
X48884D01*
X49143Y85364D01*
X49311Y85105D01*
Y84824D01*
X49476Y84426D01*
X49780Y84122D01*
X50178Y83957D01*
X50609D01*
X51007Y84122D01*
X51311Y84426D01*
X51476Y84824D01*
Y85255D01*
X51311Y85653D01*
X51007Y85957D01*
X50609Y86122D01*
X50328D01*
X50069Y86290D01*
X49902Y86549D01*
Y86830D01*
X49737Y87227D01*
X49432Y87532D01*
X49034Y87697D01*
D02*
G37*
G36*
X77578Y86713D02*
X77147D01*
X76749Y86548D01*
X76444Y86243D01*
X76279Y85845D01*
Y85415D01*
X76435Y85039D01*
X76279Y84664D01*
Y84233D01*
X76435Y83858D01*
X76279Y83483D01*
Y83052D01*
X76444Y82654D01*
X76749Y82350D01*
X77147Y82185D01*
X77578D01*
X77975Y82350D01*
X78280Y82654D01*
X78445Y83052D01*
Y83483D01*
X78289Y83858D01*
X78445Y84233D01*
Y84664D01*
X78289Y85039D01*
X78445Y85415D01*
Y85845D01*
X78280Y86243D01*
X77975Y86548D01*
X77578Y86713D01*
D02*
G37*
G36*
X52184Y81398D02*
X51753D01*
X51355Y81233D01*
X51050Y80928D01*
X50885Y80531D01*
Y80100D01*
X51050Y79702D01*
X51355Y79397D01*
X51753Y79233D01*
X52184D01*
X52581Y79397D01*
X52886Y79702D01*
X53051Y80100D01*
Y80531D01*
X52886Y80928D01*
X52581Y81233D01*
X52184Y81398D01*
D02*
G37*
G36*
X55334Y81398D02*
X54903D01*
X54505Y81233D01*
X54200Y80928D01*
X54035Y80530D01*
Y80100D01*
X54200Y79702D01*
X54505Y79397D01*
X54903Y79232D01*
X55334D01*
X55731Y79397D01*
X56036Y79702D01*
X56201Y80100D01*
Y80530D01*
X56036Y80928D01*
X55731Y81233D01*
X55334Y81398D01*
D02*
G37*
G36*
X7274Y78839D02*
X6843D01*
X6445Y78674D01*
X6141Y78369D01*
X5976Y77971D01*
Y77540D01*
X6141Y77143D01*
X6445Y76838D01*
X6843Y76673D01*
X7274D01*
X7672Y76838D01*
X7976Y77143D01*
X8141Y77540D01*
Y77971D01*
X7976Y78369D01*
X7672Y78674D01*
X7274Y78839D01*
D02*
G37*
G36*
X58483Y81398D02*
X58053D01*
X57655Y81233D01*
X57350Y80928D01*
X57185Y80531D01*
Y80100D01*
X57350Y79702D01*
X57655Y79397D01*
X58053Y79233D01*
X58423D01*
X58880Y78757D01*
X58885Y78743D01*
X58858Y78634D01*
X58483Y78248D01*
X58053D01*
X57655Y78083D01*
X57350Y77778D01*
X57185Y77381D01*
Y76963D01*
X56453Y76203D01*
X56408Y76088D01*
X56182Y75750D01*
X56095Y75313D01*
X56085Y75287D01*
X56005Y75207D01*
X55944Y75168D01*
X55554Y75007D01*
X55334Y75098D01*
X54903D01*
X54505Y74934D01*
X54200Y74629D01*
X54035Y74231D01*
Y73837D01*
X53321Y73123D01*
X53278Y73020D01*
X53033Y72652D01*
X52946Y72215D01*
X52904Y72115D01*
Y69001D01*
X52847Y68936D01*
X52404Y68708D01*
X52184Y68799D01*
X51753D01*
X51533Y68708D01*
X51090Y68936D01*
X51033Y69001D01*
Y75264D01*
X51075Y75368D01*
X52191Y76484D01*
X52295Y76526D01*
X54226D01*
X54505Y76248D01*
X54903Y76083D01*
X55334D01*
X55731Y76248D01*
X56036Y76552D01*
X56201Y76950D01*
Y77381D01*
X56036Y77779D01*
X55731Y78083D01*
X55334Y78248D01*
X54903D01*
X54505Y78083D01*
X54226Y77805D01*
X52295D01*
X52194Y77763D01*
X51757Y77676D01*
X51389Y77430D01*
X51288Y77388D01*
X51288Y77388D01*
X51287Y77388D01*
X50934Y77035D01*
X50171Y76272D01*
X50129Y76170D01*
X49883Y75802D01*
X49796Y75365D01*
X49755Y75264D01*
Y69001D01*
X49697Y68936D01*
X49255Y68708D01*
X49034Y68799D01*
X48603D01*
X48206Y68634D01*
X47901Y68330D01*
X47736Y67932D01*
Y67538D01*
X47022Y66823D01*
X46979Y66721D01*
X46733Y66353D01*
X46647Y65916D01*
X46605Y65816D01*
Y56527D01*
X46143Y56336D01*
X44778Y57701D01*
X44764Y57707D01*
X44728Y57793D01*
X44734Y57806D01*
Y65768D01*
X44728Y65781D01*
X44763Y65865D01*
X44775Y65871D01*
X45512Y66634D01*
X45885D01*
X46283Y66799D01*
X46587Y67103D01*
X46752Y67501D01*
Y67932D01*
X46587Y68330D01*
X46283Y68634D01*
X45885Y68799D01*
X45454D01*
X45056Y68634D01*
X44751Y68330D01*
X44587Y67932D01*
Y67516D01*
X43856Y66759D01*
X43811Y66645D01*
X43584Y66305D01*
X43497Y65868D01*
X43455Y65768D01*
Y57806D01*
X43497Y57706D01*
X43584Y57269D01*
X43832Y56897D01*
X43874Y56797D01*
X45774Y54897D01*
X45787Y54891D01*
X45823Y54805D01*
X45818Y54792D01*
Y35562D01*
X45775Y35458D01*
X40329Y30012D01*
X40286Y29910D01*
X40041Y29542D01*
X39954Y29105D01*
X39912Y29005D01*
Y28665D01*
X39412Y28458D01*
X39393Y28477D01*
X38995Y28642D01*
X38564D01*
X38166Y28477D01*
X37862Y28172D01*
X37697Y27774D01*
Y27344D01*
X37862Y26946D01*
X38166Y26641D01*
X38564Y26476D01*
X38995D01*
X39393Y26641D01*
X39412Y26660D01*
X39912Y26453D01*
Y23358D01*
X39917Y23345D01*
X39882Y23259D01*
X39869Y23254D01*
X34423Y17808D01*
X34319Y17765D01*
X32407D01*
X32306Y17724D01*
X31869Y17637D01*
X31501Y17391D01*
X31400Y17349D01*
X31400Y17349D01*
X31400Y17349D01*
X31399Y17348D01*
X31289Y17238D01*
X31282Y17231D01*
X31240Y17129D01*
X30994Y16761D01*
X30907Y16324D01*
X30865Y16223D01*
Y6995D01*
X30586Y6716D01*
X30421Y6318D01*
Y5887D01*
X30586Y5489D01*
X30891Y5185D01*
X31289Y5020D01*
X31719D01*
X32117Y5185D01*
X32422Y5489D01*
X32587Y5887D01*
Y6318D01*
X32422Y6716D01*
X32143Y6995D01*
Y14696D01*
X32229Y14746D01*
X32643Y14849D01*
X32860Y14633D01*
X33258Y14468D01*
X33688D01*
X34086Y14633D01*
X34391Y14938D01*
X34431Y15034D01*
X34464Y15041D01*
X34832Y15287D01*
X34934Y15329D01*
X39893Y20288D01*
X39952Y20294D01*
X40454Y20142D01*
X40538Y19939D01*
X40843Y19634D01*
X41241Y19469D01*
X41671D01*
X42069Y19634D01*
X42374Y19939D01*
X42539Y20337D01*
Y20731D01*
X50474Y28666D01*
X50936Y28474D01*
Y26704D01*
X50893Y26600D01*
X35219Y10926D01*
X35177Y10824D01*
X34931Y10456D01*
X34844Y10019D01*
X34802Y9918D01*
Y6995D01*
X34523Y6716D01*
X34358Y6318D01*
Y5887D01*
X34523Y5489D01*
X34828Y5185D01*
X35226Y5020D01*
X35656D01*
X36054Y5185D01*
X36099Y5229D01*
X36426Y5445D01*
X36752Y5229D01*
X36797Y5185D01*
X37195Y5020D01*
X37625D01*
X38023Y5185D01*
X38328Y5489D01*
X38493Y5887D01*
Y6318D01*
X38328Y6716D01*
X38023Y7021D01*
X37625Y7185D01*
X37195D01*
X36797Y7021D01*
X36752Y6976D01*
X36505Y6813D01*
X36080Y7074D01*
Y9918D01*
X36075Y9931D01*
X36110Y10017D01*
X36123Y10022D01*
X37601Y11500D01*
X38025Y11217D01*
X37952Y11042D01*
Y10611D01*
X38117Y10214D01*
X38422Y9909D01*
X38820Y9744D01*
X39250D01*
X39648Y9909D01*
X39953Y10214D01*
X40118Y10611D01*
Y11005D01*
X52232Y23120D01*
X52585Y23472D01*
X52585Y23473D01*
X52585Y23473D01*
X52627Y23574D01*
X52873Y23942D01*
X52960Y24379D01*
X53001Y24480D01*
Y36682D01*
X53044Y36786D01*
X54017Y37759D01*
X54479Y37567D01*
Y11940D01*
X54521Y11840D01*
X54607Y11403D01*
X54850Y11040D01*
X54893Y10935D01*
X59948Y5881D01*
X60049Y5838D01*
X60418Y5592D01*
X60855Y5505D01*
X60956Y5464D01*
X64077D01*
X64356Y5185D01*
X64754Y5020D01*
X65184D01*
X65582Y5185D01*
X65627Y5229D01*
X65953Y5446D01*
X66280Y5229D01*
X66324Y5185D01*
X66722Y5020D01*
X67153D01*
X67550Y5185D01*
X67855Y5489D01*
X68020Y5887D01*
Y6318D01*
X67855Y6716D01*
X67639Y6932D01*
X67745Y7350D01*
X67793Y7432D01*
X70019D01*
X70067Y7350D01*
X70172Y6932D01*
X69956Y6716D01*
X69792Y6318D01*
Y5887D01*
X69956Y5489D01*
X70261Y5185D01*
X70659Y5020D01*
X71090D01*
X71487Y5185D01*
X71792Y5489D01*
X71957Y5887D01*
Y6318D01*
X71792Y6716D01*
X71576Y6932D01*
X71682Y7350D01*
X71730Y7432D01*
X73956D01*
X74004Y7350D01*
X74109Y6932D01*
X73893Y6716D01*
X73729Y6318D01*
Y5887D01*
X73893Y5489D01*
X74198Y5185D01*
X74596Y5020D01*
X75027D01*
X75424Y5185D01*
X75469Y5229D01*
X75796Y5445D01*
X76122Y5229D01*
X76167Y5185D01*
X76565Y5020D01*
X76995D01*
X77393Y5185D01*
X77698Y5489D01*
X77863Y5887D01*
Y6318D01*
X77698Y6716D01*
X77393Y7021D01*
X76995Y7185D01*
X76601D01*
X75495Y8292D01*
X75394Y8334D01*
X75024Y8581D01*
X74586Y8668D01*
X74486Y8710D01*
Y8710D01*
X74486Y8710D01*
X74486Y8710D01*
X74002Y8710D01*
X60546Y8710D01*
X60066Y8753D01*
X60063Y8755D01*
X59710Y9107D01*
X56585Y12233D01*
X56574Y12237D01*
X56539Y12321D01*
X56545Y12334D01*
Y21202D01*
X57045Y21302D01*
X57153Y21040D01*
X57458Y20736D01*
X57855Y20571D01*
X58286D01*
X58684Y20736D01*
X58989Y21040D01*
X59153Y21438D01*
Y21869D01*
X58989Y22267D01*
X58881Y22704D01*
X59186Y23009D01*
X59350Y23407D01*
Y23837D01*
X59186Y24235D01*
X58881Y24540D01*
X58483Y24705D01*
X58052D01*
X57654Y24540D01*
X57350Y24235D01*
X57185Y23837D01*
Y23407D01*
X57350Y23009D01*
X57458Y22571D01*
X57153Y22267D01*
X57045Y22005D01*
X56545Y22105D01*
Y27333D01*
X57045Y27667D01*
X57068Y27657D01*
X57499D01*
X57897Y27822D01*
X58201Y28127D01*
X58366Y28525D01*
Y28956D01*
X58201Y29353D01*
X57897Y29658D01*
X57499Y29823D01*
X57068D01*
X57045Y29813D01*
X56545Y30147D01*
Y37863D01*
X56587Y37966D01*
X61681Y43060D01*
X62033Y43413D01*
X62034Y43414D01*
X62034Y43414D01*
X62076Y43515D01*
X62322Y43883D01*
X62409Y44320D01*
X62450Y44421D01*
X62450Y48107D01*
X62950Y48314D01*
X62969Y48295D01*
X63367Y48130D01*
X63798D01*
X64196Y48295D01*
X64500Y48599D01*
X64665Y48997D01*
Y49428D01*
X64500Y49826D01*
X64196Y50130D01*
X63798Y50295D01*
X63367D01*
X62969Y50130D01*
X62937Y50099D01*
X62818Y50091D01*
X62634Y50126D01*
X62391Y50259D01*
X62322Y50605D01*
X62074Y50976D01*
X62032Y51077D01*
X60126Y52983D01*
X60279Y53537D01*
X60456Y53610D01*
X60760Y53914D01*
X60925Y54312D01*
Y54743D01*
X60760Y55141D01*
X60456Y55445D01*
X60058Y55610D01*
X59627D01*
X59407Y55519D01*
X58964Y55747D01*
X58907Y55812D01*
Y62075D01*
X58902Y62088D01*
X58937Y62174D01*
X58949Y62179D01*
X59712Y62942D01*
X60065Y63295D01*
X60065Y63296D01*
X60065Y63296D01*
X60107Y63397D01*
X60353Y63765D01*
X60440Y64202D01*
X60482Y64302D01*
Y78362D01*
X60440Y78463D01*
X60353Y78900D01*
X60128Y79237D01*
X60083Y79351D01*
X59351Y80112D01*
Y80531D01*
X59186Y80928D01*
X58881Y81233D01*
X58483Y81398D01*
D02*
G37*
G36*
X72263Y78642D02*
X71832D01*
X71434Y78477D01*
X71129Y78172D01*
X70965Y77774D01*
Y77344D01*
X71120Y76968D01*
X70965Y76593D01*
Y76163D01*
X71120Y75787D01*
X70965Y75412D01*
Y74981D01*
X71129Y74584D01*
X71434Y74279D01*
X71832Y74114D01*
X72263D01*
X72660Y74279D01*
X72965Y74584D01*
X73130Y74981D01*
Y75412D01*
X72974Y75787D01*
X73130Y76163D01*
Y76593D01*
X72974Y76968D01*
X73130Y77344D01*
Y77774D01*
X72965Y78172D01*
X72660Y78477D01*
X72263Y78642D01*
D02*
G37*
G36*
X42735Y75098D02*
X42304D01*
X41906Y74934D01*
X41602Y74629D01*
X41437Y74231D01*
Y73800D01*
X41602Y73403D01*
X41906Y73098D01*
X42304Y72933D01*
X42735D01*
X43133Y73098D01*
X43437Y73403D01*
X43602Y73800D01*
Y74231D01*
X43437Y74629D01*
X43133Y74934D01*
X42735Y75098D01*
D02*
G37*
G36*
X65963Y72539D02*
X65533D01*
X65135Y72374D01*
X64830Y72070D01*
X64665Y71672D01*
Y71241D01*
X64830Y70843D01*
X65135Y70539D01*
X65533Y70374D01*
X65963D01*
X66361Y70539D01*
X66666Y70843D01*
X66831Y71241D01*
Y71672D01*
X66666Y72070D01*
X66361Y72374D01*
X65963Y72539D01*
D02*
G37*
G36*
X45885Y71949D02*
X45454D01*
X45056Y71784D01*
X44751Y71479D01*
X44587Y71082D01*
Y70651D01*
X44751Y70253D01*
X45056Y69948D01*
X45454Y69784D01*
X45885D01*
X46283Y69948D01*
X46587Y70253D01*
X46752Y70651D01*
Y71082D01*
X46587Y71479D01*
X46283Y71784D01*
X45885Y71949D01*
D02*
G37*
G36*
X42735D02*
X42304D01*
X41906Y71784D01*
X41602Y71479D01*
X41437Y71082D01*
Y70651D01*
X41602Y70253D01*
X41906Y69948D01*
X42304Y69784D01*
X42735D01*
X43133Y69948D01*
X43437Y70253D01*
X43602Y70651D01*
Y71082D01*
X43437Y71479D01*
X43133Y71784D01*
X42735Y71949D01*
D02*
G37*
G36*
X74231Y72737D02*
X73800D01*
X73403Y72573D01*
X73098Y72268D01*
X72933Y71870D01*
Y71439D01*
X73089Y71064D01*
X72933Y70689D01*
Y70258D01*
X73098Y69860D01*
X73403Y69556D01*
X73800Y69391D01*
X74231D01*
X74629Y69556D01*
X74934Y69860D01*
X75098Y70258D01*
Y70689D01*
X74943Y71064D01*
X75098Y71439D01*
Y71870D01*
X74934Y72268D01*
X74629Y72573D01*
X74231Y72737D01*
D02*
G37*
G36*
X94704Y69980D02*
X94273D01*
X93875Y69815D01*
X93570Y69511D01*
X93405Y69113D01*
Y68682D01*
X93570Y68284D01*
X93875Y67980D01*
X94273Y67815D01*
X94704D01*
X95101Y67980D01*
X95406Y68284D01*
X95571Y68682D01*
Y69113D01*
X95406Y69511D01*
X95101Y69815D01*
X94704Y69980D01*
D02*
G37*
G36*
X39585Y65650D02*
X39155D01*
X38757Y65485D01*
X38452Y65180D01*
X38287Y64782D01*
Y64352D01*
X38452Y63954D01*
X38757Y63649D01*
X39155Y63484D01*
X39585D01*
X39983Y63649D01*
X40288Y63954D01*
X40453Y64352D01*
Y64782D01*
X40288Y65180D01*
X39983Y65485D01*
X39585Y65650D01*
D02*
G37*
G36*
X61532Y63287D02*
X61101D01*
X60703Y63123D01*
X60398Y62818D01*
X60234Y62420D01*
Y61989D01*
X60398Y61591D01*
X60703Y61287D01*
X61101Y61122D01*
X61532D01*
X61930Y61287D01*
X62234Y61591D01*
X62399Y61989D01*
Y62420D01*
X62234Y62818D01*
X61930Y63123D01*
X61532Y63287D01*
D02*
G37*
G36*
X33680Y61122D02*
X33249D01*
X32851Y60957D01*
X32547Y60653D01*
X32382Y60255D01*
Y59824D01*
X32547Y59426D01*
X32851Y59122D01*
X33249Y58957D01*
X33680D01*
X34078Y59122D01*
X34382Y59426D01*
X34547Y59824D01*
Y60255D01*
X34382Y60653D01*
X34078Y60957D01*
X33680Y61122D01*
D02*
G37*
G36*
X68433Y58957D02*
X68003D01*
X67628Y58801D01*
X67252Y58957D01*
X66822D01*
X66424Y58792D01*
X66119Y58487D01*
X65954Y58089D01*
Y57659D01*
X66119Y57261D01*
X66424Y56956D01*
X66822Y56791D01*
X67252D01*
X67628Y56947D01*
X68003Y56791D01*
X68433D01*
X68831Y56956D01*
X69136Y57261D01*
X69301Y57659D01*
Y58089D01*
X69136Y58487D01*
X68831Y58792D01*
X68433Y58957D01*
D02*
G37*
G36*
X28759D02*
X28328D01*
X27953Y58801D01*
X27578Y58957D01*
X27147D01*
X26749Y58792D01*
X26444Y58487D01*
X26280Y58089D01*
Y57659D01*
X26444Y57261D01*
X26749Y56956D01*
X27147Y56791D01*
X27578D01*
X27953Y56947D01*
X28328Y56791D01*
X28759D01*
X29157Y56956D01*
X29461Y57261D01*
X29626Y57659D01*
Y58089D01*
X29461Y58487D01*
X29157Y58792D01*
X28759Y58957D01*
D02*
G37*
G36*
X72263Y60532D02*
X71832D01*
X71434Y60367D01*
X71129Y60062D01*
X70964Y59664D01*
Y59233D01*
X71120Y58858D01*
X70964Y58483D01*
Y58052D01*
X71120Y57677D01*
X70964Y57302D01*
Y56871D01*
X71129Y56473D01*
X71434Y56169D01*
X71832Y56004D01*
X72263D01*
X72660Y56169D01*
X72965Y56473D01*
X73130Y56871D01*
Y57302D01*
X72974Y57677D01*
X73130Y58052D01*
Y58483D01*
X72974Y58858D01*
X73130Y59233D01*
Y59664D01*
X72965Y60062D01*
X72660Y60367D01*
X72263Y60532D01*
D02*
G37*
G36*
X42538Y56201D02*
X42107D01*
X41710Y56036D01*
X41405Y55731D01*
X41240Y55334D01*
Y54903D01*
X41311Y54732D01*
X41144Y54287D01*
X41033Y54195D01*
X40725Y54067D01*
X40681Y54023D01*
X40354Y53807D01*
X40028Y54023D01*
X39983Y54067D01*
X39585Y54232D01*
X39155D01*
X38757Y54067D01*
X38452Y53763D01*
X38287Y53365D01*
Y52934D01*
X38452Y52536D01*
X38757Y52232D01*
X39155Y52067D01*
X39585D01*
X39983Y52232D01*
X40028Y52276D01*
X40354Y52492D01*
X40681Y52276D01*
X40725Y52232D01*
X41123Y52067D01*
X41554D01*
X41952Y52232D01*
X42256Y52536D01*
X42421Y52934D01*
Y53365D01*
X42351Y53535D01*
X42518Y53981D01*
X42519Y53982D01*
X42726Y53985D01*
X42792Y53952D01*
X43064Y53490D01*
X43012Y53365D01*
Y52934D01*
X43177Y52536D01*
X43481Y52232D01*
X43879Y52067D01*
X44310D01*
X44708Y52232D01*
X45012Y52536D01*
X45177Y52934D01*
Y53365D01*
X45012Y53763D01*
X44708Y54067D01*
X44310Y54232D01*
X43879D01*
X43562Y54101D01*
X43537Y54095D01*
X43225Y54465D01*
X43241Y54505D01*
X43260Y54550D01*
X43406Y54903D01*
Y55334D01*
X43241Y55731D01*
X42936Y56036D01*
X42538Y56201D01*
D02*
G37*
G36*
X36830Y54232D02*
X36399D01*
X36001Y54067D01*
X35696Y53763D01*
X35170D01*
X34865Y54067D01*
X34467Y54232D01*
X34037D01*
X33639Y54067D01*
X33334Y53763D01*
X33169Y53365D01*
Y52934D01*
X33310Y52595D01*
X32937Y52280D01*
X32897Y52296D01*
X32851Y52315D01*
X32499Y52461D01*
X32068D01*
X31670Y52296D01*
X31366Y51991D01*
X31201Y51593D01*
Y51163D01*
X31366Y50765D01*
X31670Y50460D01*
X32068Y50295D01*
X32499D01*
X32897Y50460D01*
X33201Y50765D01*
X33366Y51163D01*
Y51593D01*
X33226Y51933D01*
X33599Y52247D01*
X33639Y52232D01*
X33684Y52213D01*
X34037Y52067D01*
X34467D01*
X34865Y52232D01*
X35170Y52536D01*
X35696D01*
X36001Y52232D01*
X36399Y52067D01*
X36830D01*
X37227Y52232D01*
X37532Y52536D01*
X37697Y52934D01*
Y53365D01*
X37532Y53763D01*
X37227Y54067D01*
X36830Y54232D01*
D02*
G37*
G36*
X78956Y56201D02*
X78525D01*
X78127Y56036D01*
X77822Y55731D01*
X77658Y55334D01*
Y54903D01*
X77801Y54555D01*
X77930Y54067D01*
X77626Y53763D01*
X77461Y53365D01*
Y52934D01*
X77626Y52536D01*
X77930Y52232D01*
X78328Y52067D01*
X78759D01*
X79157Y52232D01*
X79461Y52536D01*
X79626Y52934D01*
Y53365D01*
X79482Y53712D01*
X79353Y54200D01*
X79658Y54505D01*
X79823Y54903D01*
Y55334D01*
X79658Y55731D01*
X79353Y56036D01*
X78956Y56201D01*
D02*
G37*
G36*
X72518Y54232D02*
X72088D01*
X71690Y54067D01*
X71385Y53763D01*
X71220Y53365D01*
Y52934D01*
X71385Y52536D01*
X71690Y52232D01*
X72088Y52067D01*
X72518D01*
X72916Y52232D01*
X73221Y52536D01*
X73386Y52934D01*
Y53365D01*
X73221Y53763D01*
X72916Y54067D01*
X72518Y54232D01*
D02*
G37*
G36*
X44310Y49114D02*
X43879D01*
X43481Y48949D01*
X43177Y48645D01*
X43012Y48247D01*
Y47816D01*
X43177Y47418D01*
X43481Y47114D01*
X43879Y46949D01*
X44310D01*
X44708Y47114D01*
X45012Y47418D01*
X45177Y47816D01*
Y48247D01*
X45012Y48645D01*
X44708Y48949D01*
X44310Y49114D01*
D02*
G37*
G36*
X76593Y48327D02*
X76163D01*
X75765Y48162D01*
X75460Y47857D01*
X75295Y47459D01*
Y47029D01*
X75460Y46631D01*
X75765Y46326D01*
X76163Y46161D01*
X76593D01*
X76991Y46326D01*
X77296Y46631D01*
X77461Y47029D01*
Y47459D01*
X77296Y47857D01*
X76991Y48162D01*
X76593Y48327D01*
D02*
G37*
G36*
X35058D02*
X34627D01*
X34229Y48162D01*
X33925Y47857D01*
X33760Y47459D01*
Y47029D01*
X33925Y46631D01*
X34229Y46326D01*
X34627Y46161D01*
X35058D01*
X35456Y46326D01*
X35760Y46631D01*
X35925Y47029D01*
Y47459D01*
X35760Y47857D01*
X35456Y48162D01*
X35058Y48327D01*
D02*
G37*
G36*
X78956Y45374D02*
X78525D01*
X78127Y45209D01*
X77822Y44905D01*
X77658Y44507D01*
Y44076D01*
X77822Y43678D01*
X78127Y43374D01*
X78525Y43209D01*
X78956D01*
X79353Y43374D01*
X79658Y43678D01*
X79823Y44076D01*
Y44507D01*
X79658Y44905D01*
X79353Y45209D01*
X78956Y45374D01*
D02*
G37*
G36*
X26823D02*
X26393D01*
X25995Y45209D01*
X25690Y44905D01*
X25525Y44507D01*
Y44076D01*
X25690Y43678D01*
X25995Y43374D01*
X26393Y43209D01*
X26823D01*
X27221Y43374D01*
X27526Y43678D01*
X27691Y44076D01*
Y44507D01*
X27526Y44905D01*
X27221Y45209D01*
X26823Y45374D01*
D02*
G37*
G36*
X75969Y39469D02*
X75539D01*
X75141Y39304D01*
X74836Y38999D01*
X74672Y38601D01*
Y38170D01*
X74836Y37773D01*
X75141Y37468D01*
X75539Y37303D01*
X75969D01*
X76367Y37468D01*
X76672Y37773D01*
X76837Y38170D01*
Y38601D01*
X76672Y38999D01*
X76367Y39304D01*
X75969Y39469D01*
D02*
G37*
G36*
X26823D02*
X26393D01*
X25995Y39304D01*
X25690Y38999D01*
X25525Y38601D01*
Y38170D01*
X25690Y37773D01*
X25995Y37468D01*
X26393Y37303D01*
X26823D01*
X27221Y37468D01*
X27526Y37773D01*
X27691Y38170D01*
Y38601D01*
X27526Y38999D01*
X27221Y39304D01*
X26823Y39469D01*
D02*
G37*
G36*
X71672Y40453D02*
X71241D01*
X70843Y40288D01*
X70539Y39983D01*
X70374Y39585D01*
Y39155D01*
X70539Y38757D01*
X70713Y38583D01*
X70539Y38409D01*
X70374Y38011D01*
Y37580D01*
X70539Y37182D01*
X70843Y36877D01*
X71241Y36713D01*
X71672D01*
X72070Y36877D01*
X72374Y37182D01*
X72539Y37580D01*
Y38011D01*
X72374Y38409D01*
X72200Y38583D01*
X72374Y38757D01*
X72539Y39155D01*
Y39585D01*
X72374Y39983D01*
X72070Y40288D01*
X71672Y40453D01*
D02*
G37*
G36*
X31121Y40059D02*
X30690D01*
X30292Y39894D01*
X29988Y39590D01*
X29823Y39192D01*
Y38761D01*
X29988Y38363D01*
X30162Y38189D01*
X29988Y38015D01*
X29823Y37617D01*
Y37186D01*
X29988Y36788D01*
X30292Y36484D01*
X30690Y36319D01*
X31121D01*
X31519Y36484D01*
X31823Y36788D01*
X31988Y37186D01*
Y37617D01*
X31823Y38015D01*
X31649Y38189D01*
X31823Y38363D01*
X31988Y38761D01*
Y39192D01*
X31823Y39590D01*
X31519Y39894D01*
X31121Y40059D01*
D02*
G37*
G36*
X78759Y42421D02*
X78328D01*
X77930Y42256D01*
X77626Y41952D01*
X77461Y41554D01*
Y41123D01*
X77626Y40725D01*
X77867Y40484D01*
X77929Y40389D01*
X77920Y39884D01*
X77822Y39786D01*
X77658Y39389D01*
Y38958D01*
X77822Y38560D01*
X77977Y38405D01*
X78075Y38091D01*
X77977Y37776D01*
X77822Y37621D01*
X77658Y37223D01*
Y36792D01*
X77822Y36395D01*
X77977Y36240D01*
X78075Y35925D01*
X77977Y35611D01*
X77822Y35456D01*
X77658Y35058D01*
Y34627D01*
X77822Y34229D01*
X78127Y33925D01*
X78525Y33760D01*
X78956D01*
X79353Y33925D01*
X79658Y34229D01*
X79823Y34627D01*
Y35058D01*
X79658Y35456D01*
X79503Y35611D01*
X79405Y35925D01*
X79503Y36240D01*
X79658Y36395D01*
X79823Y36792D01*
Y37223D01*
X79658Y37621D01*
X79503Y37776D01*
X79405Y38091D01*
X79503Y38405D01*
X79658Y38560D01*
X79823Y38958D01*
Y39389D01*
X79658Y39786D01*
X79417Y40028D01*
X79354Y40123D01*
X79364Y40628D01*
X79461Y40725D01*
X79626Y41123D01*
Y41554D01*
X79461Y41952D01*
X79157Y42256D01*
X78759Y42421D01*
D02*
G37*
G36*
X75969Y33563D02*
X75539D01*
X75141Y33398D01*
X74836Y33094D01*
X74672Y32696D01*
Y32265D01*
X74836Y31867D01*
X75141Y31563D01*
X75539Y31398D01*
X75969D01*
X76367Y31563D01*
X76672Y31867D01*
X76837Y32265D01*
Y32696D01*
X76672Y33094D01*
X76367Y33398D01*
X75969Y33563D01*
D02*
G37*
G36*
X67735Y32579D02*
X67304D01*
X66906Y32414D01*
X66602Y32109D01*
X66437Y31711D01*
Y31281D01*
X66602Y30883D01*
X66906Y30578D01*
X67304Y30413D01*
X67735D01*
X68133Y30578D01*
X68437Y30883D01*
X68602Y31281D01*
Y31711D01*
X68437Y32109D01*
X68133Y32414D01*
X67735Y32579D01*
D02*
G37*
G36*
X78956D02*
X78525D01*
X78127Y32414D01*
X77822Y32109D01*
X77658Y31711D01*
Y31281D01*
X77822Y30883D01*
X77930Y30445D01*
X77626Y30141D01*
X77461Y29743D01*
Y29312D01*
X77626Y28914D01*
X77930Y28610D01*
X78328Y28445D01*
X78759D01*
X79157Y28610D01*
X79461Y28914D01*
X79626Y29312D01*
Y29743D01*
X79461Y30141D01*
X79353Y30578D01*
X79658Y30883D01*
X79823Y31281D01*
Y31711D01*
X79658Y32109D01*
X79353Y32414D01*
X78956Y32579D01*
D02*
G37*
G36*
X34467Y28642D02*
X34037D01*
X33639Y28477D01*
X33334Y28172D01*
X33169Y27774D01*
Y27344D01*
X33334Y26946D01*
X33639Y26641D01*
X34037Y26476D01*
X34467D01*
X34865Y26641D01*
X35170Y26946D01*
X35335Y27344D01*
Y27774D01*
X35170Y28172D01*
X34865Y28477D01*
X34467Y28642D01*
D02*
G37*
G36*
X70885Y28445D02*
X70454D01*
X70056Y28280D01*
X69751Y27975D01*
X69587Y27578D01*
Y27147D01*
X69751Y26749D01*
X69796Y26705D01*
X70012Y26378D01*
X69796Y26051D01*
X69751Y26007D01*
X69587Y25609D01*
Y25178D01*
X69751Y24780D01*
X70056Y24476D01*
X70454Y24311D01*
X70885D01*
X71283Y24476D01*
X71587Y24780D01*
X71752Y25178D01*
Y25609D01*
X71587Y26007D01*
X71543Y26051D01*
X71327Y26378D01*
X71543Y26705D01*
X71587Y26749D01*
X71752Y27147D01*
Y27578D01*
X71587Y27975D01*
X71283Y28280D01*
X70885Y28445D01*
D02*
G37*
G36*
X76593Y24705D02*
X76163D01*
X75765Y24540D01*
X75460Y24235D01*
X75295Y23837D01*
Y23407D01*
X75460Y23009D01*
X75765Y22704D01*
X76163Y22539D01*
X76593D01*
X76991Y22704D01*
X77296Y23009D01*
X77461Y23407D01*
Y23837D01*
X77296Y24235D01*
X76991Y24540D01*
X76593Y24705D01*
D02*
G37*
G36*
X61239D02*
X60808D01*
X60410Y24540D01*
X60106Y24235D01*
X59941Y23837D01*
Y23407D01*
X60106Y23009D01*
X60410Y22704D01*
X60808Y22539D01*
X61239D01*
X61637Y22704D01*
X61941Y23009D01*
X62106Y23407D01*
Y23837D01*
X61941Y24235D01*
X61637Y24540D01*
X61239Y24705D01*
D02*
G37*
G36*
X30274D02*
X29844D01*
X29446Y24540D01*
X29141Y24235D01*
X28976Y23837D01*
Y23407D01*
X29141Y23009D01*
X29446Y22704D01*
X29844Y22539D01*
X30274D01*
X30672Y22704D01*
X30977Y23009D01*
X31142Y23407D01*
Y23837D01*
X30977Y24235D01*
X30672Y24540D01*
X30274Y24705D01*
D02*
G37*
G36*
X36830Y24508D02*
X36399D01*
X36001Y24343D01*
X35696Y24038D01*
X35531Y23641D01*
Y23210D01*
X35696Y22812D01*
X36001Y22507D01*
X36399Y22343D01*
X36830D01*
X37227Y22507D01*
X37532Y22812D01*
X37697Y23210D01*
Y23641D01*
X37532Y24038D01*
X37227Y24343D01*
X36830Y24508D01*
D02*
G37*
G36*
X64585Y24705D02*
X64155D01*
X63757Y24540D01*
X63452Y24235D01*
X63287Y23837D01*
Y23407D01*
X63452Y23009D01*
X63757Y22704D01*
X64155Y22539D01*
X64203D01*
X64597Y22471D01*
X64665Y22077D01*
Y22029D01*
X64830Y21631D01*
X65135Y21326D01*
X65533Y21161D01*
X65963D01*
X66361Y21326D01*
X66666Y21631D01*
X67190D01*
X67495Y21326D01*
X67893Y21161D01*
X68323D01*
X68721Y21326D01*
X69026Y21631D01*
X69125Y21870D01*
X69652D01*
X69751Y21631D01*
X70056Y21326D01*
X70454Y21161D01*
X70885D01*
X71283Y21326D01*
X71587Y21631D01*
X71752Y22029D01*
Y22459D01*
X71587Y22857D01*
X71283Y23162D01*
X70885Y23327D01*
X70454D01*
X70056Y23162D01*
X69751Y22857D01*
X69652Y22619D01*
X69125D01*
X69026Y22857D01*
X68721Y23162D01*
X68323Y23327D01*
X67893D01*
X67495Y23162D01*
X67190Y22857D01*
X66666D01*
X66361Y23162D01*
X65963Y23327D01*
X65915D01*
X65521Y23395D01*
X65453Y23789D01*
Y23837D01*
X65288Y24235D01*
X64983Y24540D01*
X64585Y24705D01*
D02*
G37*
G36*
X34467Y22539D02*
X34037D01*
X33639Y22375D01*
X33334Y22070D01*
X33169Y21672D01*
Y21241D01*
X33334Y20843D01*
X33639Y20539D01*
X34037Y20374D01*
X34467D01*
X34865Y20539D01*
X35170Y20843D01*
X35335Y21241D01*
Y21672D01*
X35170Y22070D01*
X34865Y22375D01*
X34467Y22539D01*
D02*
G37*
G36*
X78956Y21949D02*
X78525D01*
X78127Y21784D01*
X77822Y21479D01*
X77658Y21081D01*
Y20651D01*
X77822Y20253D01*
X78127Y19948D01*
X78525Y19783D01*
X78956D01*
X79353Y19948D01*
X79658Y20253D01*
X79823Y20651D01*
Y21081D01*
X79658Y21479D01*
X79353Y21784D01*
X78956Y21949D01*
D02*
G37*
G36*
X60058Y18012D02*
X59627D01*
X59229Y17847D01*
X58925Y17542D01*
X58760Y17144D01*
Y16714D01*
X58925Y16316D01*
X59229Y16011D01*
X59627Y15846D01*
X60058D01*
X60456Y16011D01*
X60760Y16316D01*
X60925Y16714D01*
Y17144D01*
X60760Y17542D01*
X60456Y17847D01*
X60058Y18012D01*
D02*
G37*
G36*
X73058Y16633D02*
X72628D01*
X72230Y16469D01*
X71925Y16164D01*
X71760Y15766D01*
Y15335D01*
X71925Y14938D01*
X72230Y14633D01*
X72628Y14468D01*
X73058D01*
X73456Y14633D01*
X73761Y14938D01*
X73926Y15335D01*
Y15766D01*
X73761Y16164D01*
X73456Y16469D01*
X73058Y16633D01*
D02*
G37*
G36*
X62676Y12083D02*
X62246D01*
X61848Y11918D01*
X61543Y11613D01*
X61378Y11215D01*
Y10785D01*
X61543Y10387D01*
X61848Y10082D01*
X62246Y9917D01*
X62676D01*
X63074Y10082D01*
X63379Y10387D01*
X63544Y10785D01*
Y11215D01*
X63379Y11613D01*
X63074Y11918D01*
X62676Y12083D01*
D02*
G37*
G36*
X78620Y11909D02*
X78190D01*
X77792Y11745D01*
X77487Y11440D01*
X77323Y11042D01*
Y10611D01*
X77487Y10214D01*
X77792Y9909D01*
X78190Y9744D01*
X78620D01*
X79018Y9909D01*
X79323Y10214D01*
X79488Y10611D01*
Y11042D01*
X79323Y11440D01*
X79018Y11745D01*
X78620Y11909D01*
D02*
G37*
G36*
X27184D02*
X26753D01*
X26355Y11745D01*
X26051Y11440D01*
X25886Y11042D01*
Y10611D01*
X26051Y10214D01*
X26355Y9909D01*
X26753Y9744D01*
X27184D01*
X27582Y9909D01*
X27886Y10214D01*
X28051Y10611D01*
Y11042D01*
X27886Y11440D01*
X27582Y11745D01*
X27184Y11909D01*
D02*
G37*
G36*
X24172D02*
X23742D01*
X23344Y11745D01*
X23039Y11440D01*
X22874Y11042D01*
Y10611D01*
X23039Y10214D01*
X23344Y9909D01*
X23742Y9744D01*
X24172D01*
X24570Y9909D01*
X24875Y10214D01*
X25040Y10611D01*
Y11042D01*
X24875Y11440D01*
X24570Y11745D01*
X24172Y11909D01*
D02*
G37*
G36*
X71278Y11713D02*
X70848D01*
X70450Y11548D01*
X70145Y11243D01*
X69980Y10845D01*
Y10415D01*
X70145Y10017D01*
X70450Y9712D01*
X70848Y9547D01*
X71278D01*
X71676Y9712D01*
X71981Y10017D01*
X72146Y10415D01*
Y10845D01*
X71981Y11243D01*
X71676Y11548D01*
X71278Y11713D01*
D02*
G37*
G36*
X27782Y7185D02*
X27352D01*
X26954Y7021D01*
X26910Y6977D01*
X26583Y6760D01*
X26256Y6977D01*
X26212Y7021D01*
X25814Y7185D01*
X25384D01*
X24986Y7021D01*
X24681Y6716D01*
X24516Y6318D01*
Y5887D01*
X24681Y5489D01*
X24986Y5185D01*
X25384Y5020D01*
X25814D01*
X26212Y5185D01*
X26256Y5229D01*
X26583Y5446D01*
X26910Y5229D01*
X26954Y5185D01*
X27352Y5020D01*
X27782D01*
X28180Y5185D01*
X28485Y5489D01*
X28650Y5887D01*
Y6318D01*
X28485Y6716D01*
X28180Y7021D01*
X27782Y7185D01*
D02*
G37*
%LPD*%
D72*
X58497Y62631D02*
G03*
X58268Y62075I558J-556D01*
G01*
Y54263D02*
G03*
X58498Y53707I787J0D01*
G01*
X59613Y63747D02*
G03*
X59842Y64302I-558J556D01*
G01*
X55905Y12334D02*
G03*
X56133Y11781I787J0D01*
G01*
X58268Y80315D02*
G03*
X58269Y80314I568J545D01*
G01*
X59842Y78362D02*
G03*
X59622Y78908I-787J0D01*
G01*
X56913Y75759D02*
G03*
X56693Y75213I567J-546D01*
G01*
Y54657D02*
G03*
X56924Y54100I787J0D01*
G01*
X26411Y96424D02*
G03*
X25855Y96653I-556J-558D01*
G01*
X21654Y21389D02*
G03*
X21881Y20836I787J0D01*
G01*
X19324Y95505D02*
G03*
X19094Y94949I558J-556D01*
G01*
Y65090D02*
G03*
X19324Y64534I787J0D01*
G01*
X20799Y96653D02*
G03*
X20243Y96424I0J-787D01*
G01*
X22802Y19915D02*
G03*
X23358Y19685I556J558D01*
G01*
X51345Y116503D02*
G03*
X51575Y117058I-558J556D01*
G01*
X51804Y131529D02*
G03*
X51575Y130973I558J-556D01*
G01*
X20635Y94363D02*
G03*
X20475Y94486I-557J-557D01*
G01*
X36451Y86384D02*
G03*
X35894Y86614I-557J-557D01*
G01*
X40945Y81564D02*
G03*
X40714Y82120I-787J0D01*
G01*
X28153Y86845D02*
G03*
X28710Y86614I557J556D01*
G01*
X59611Y8303D02*
G03*
X60169Y8071I558J556D01*
G01*
X60400Y6333D02*
G03*
X60956Y6103I556J558D01*
G01*
X54298Y38944D02*
G03*
X54528Y39499I-558J556D01*
G01*
Y44949D02*
G03*
X54297Y45506I-787J0D01*
G01*
X54888Y62566D02*
G03*
X55118Y63121I-558J556D01*
G01*
X53773Y72671D02*
G03*
X53543Y72115I558J-556D01*
G01*
X51345Y26148D02*
G03*
X51575Y26704I-558J556D01*
G01*
X52295Y77165D02*
G03*
X51739Y76936I0J-787D01*
G01*
X50787Y59123D02*
G03*
X50621Y59607I-787J0D01*
G01*
X47014Y34613D02*
G03*
X47244Y35169I-558J556D01*
G01*
X33498Y15551D02*
G03*
X33473Y15551I0J-787D01*
G01*
X33926Y15551D02*
G03*
X34482Y15781I0J787D01*
G01*
X47474Y66371D02*
G03*
X47244Y65816I558J-556D01*
G01*
X52133Y23924D02*
G03*
X52362Y24480I-558J556D01*
G01*
X52592Y37238D02*
G03*
X52362Y36682I558J-556D01*
G01*
X52592Y60269D02*
G03*
X52362Y59713I558J-556D01*
G01*
Y47767D02*
G03*
X52596Y47207I787J0D01*
G01*
X53314Y62762D02*
G03*
X53543Y63318I-558J556D01*
G01*
X51804Y61253D02*
G03*
X51575Y60698I558J-556D01*
G01*
X35671Y10474D02*
G03*
X35441Y9918I558J-556D01*
G01*
X34776Y81594D02*
G03*
X34255Y81791I-522J-589D01*
G01*
X40914Y69100D02*
G03*
X40400Y69291I-514J-596D01*
G01*
X56135Y38418D02*
G03*
X55905Y37863I558J-556D01*
G01*
X50558Y29654D02*
G03*
X50787Y30209I-558J556D01*
G01*
X41109Y22408D02*
G03*
X41339Y22964I-558J556D01*
G01*
X37566Y78510D02*
G03*
X37795Y79066I-558J556D01*
G01*
X77888Y64632D02*
G03*
X77331Y64862I-557J-557D01*
G01*
X27031Y82025D02*
G03*
X27590Y81791I559J554D01*
G01*
X44094Y57806D02*
G03*
X44326Y57249I787J0D01*
G01*
X50394Y60169D02*
G03*
X50563Y59680I787J0D01*
G01*
X37764Y72250D02*
G03*
X37250Y72441I-514J-596D01*
G01*
X28510Y72672D02*
G03*
X29066Y72441I557J557D01*
G01*
X60794Y44258D02*
G03*
X61024Y44814I-558J556D01*
G01*
X40724Y75418D02*
G03*
X40945Y75964I-566J547D01*
G01*
X41568Y29166D02*
G03*
X41339Y28611I558J-556D01*
G01*
X46457Y54792D02*
G03*
X46226Y55349I-787J0D01*
G01*
X37795Y81564D02*
G03*
X37565Y82120I-787J-0D01*
G01*
X35270Y84415D02*
G03*
X34713Y84646I-557J-557D01*
G01*
X26144Y84880D02*
G03*
X26708Y84646I560J553D01*
G01*
X55348Y38812D02*
G03*
X55118Y38256I558J-556D01*
G01*
X61024Y49674D02*
G03*
X60793Y50231I-787J-0D01*
G01*
X55118Y11940D02*
G03*
X55345Y11387I787J0D01*
G01*
X31734Y16779D02*
G03*
X31504Y16223I558J-556D01*
G01*
X40321Y22802D02*
G03*
X40551Y23358I-558J556D01*
G01*
X21654Y61879D02*
G03*
X21422Y62436I-787J-0D01*
G01*
X61811Y50068D02*
G03*
X61580Y50625I-787J-0D01*
G01*
X61581Y43865D02*
G03*
X61811Y44421I-558J556D01*
G01*
X50623Y75820D02*
G03*
X50394Y75264I558J-556D01*
G01*
X75043Y7840D02*
G03*
X74486Y8071I-557J-557D01*
G01*
X46227Y35007D02*
G03*
X46457Y35562I-558J556D01*
G01*
X34272Y66142D02*
G03*
X34819Y66363I0J787D01*
G01*
X32407Y17126D02*
G03*
X31851Y16896I0J-787D01*
G01*
X44315Y66315D02*
G03*
X44094Y65768I566J-547D01*
G01*
X34319Y17126D02*
G03*
X34875Y17356I0J787D01*
G01*
X40781Y29560D02*
G03*
X40551Y29005I558J-556D01*
G01*
X24570Y69525D02*
G03*
X25129Y69291I559J554D01*
G01*
X58497Y62631D02*
X59613Y63747D01*
X56133Y11781D02*
X59611Y8303D01*
X58268Y54263D02*
Y62075D01*
X75043Y7840D02*
X76780Y6103D01*
X61811Y50068D02*
X61811Y44421D01*
X59842Y64302D02*
Y78362D01*
X56924Y54100D02*
X58499Y52525D01*
X60956Y6103D02*
X64969D01*
X56913Y75759D02*
X58268Y77165D01*
Y80315D02*
Y80315D01*
X26411Y96424D02*
X28740Y94095D01*
X20799Y96653D02*
X25855D01*
X23358Y19685D02*
X28543D01*
X19324Y95505D02*
X20243Y96424D01*
X19094Y65090D02*
Y94949D01*
X19324Y64534D02*
X21422Y62436D01*
X21881Y20836D02*
X22802Y19915D01*
X21654Y61879D02*
X21654Y21389D01*
X35827Y100984D02*
X51345Y116503D01*
X51575Y117058D02*
Y130973D01*
X20635Y94363D02*
X28153Y86845D01*
X20472Y94488D02*
X20475Y94486D01*
X20472Y94488D02*
X20491Y94507D01*
X28710Y86614D02*
X35894D01*
X40945Y75964D02*
Y81564D01*
X36451Y86383D02*
X40714Y82120D01*
X31734Y16779D02*
X31851Y16896D01*
X44094Y57806D02*
Y65768D01*
X32407Y17126D02*
X34319D01*
X77888Y64632D02*
X84449Y58071D01*
X70236Y64862D02*
X77331D01*
X20472Y88583D02*
X27031Y82025D01*
X61024Y49674D02*
X61024Y44814D01*
X58499Y52525D02*
X60793Y50231D01*
X58498Y53707D02*
X61580Y50625D01*
X55348Y38812D02*
X60794Y44258D01*
X55905Y12334D02*
Y37863D01*
X39035Y10827D02*
X52133Y23924D01*
X52592Y37238D02*
X54298Y38944D01*
X55118Y63121D02*
Y64567D01*
X52362Y24480D02*
Y36682D01*
X20472Y66142D02*
X34272D01*
X20472Y73622D02*
X24570Y69525D01*
X51804Y131529D02*
X55709Y135433D01*
X20472Y80709D02*
X28510Y72672D01*
X37764Y72250D02*
X39370Y70866D01*
X52295Y77165D02*
X55118D01*
X50394Y60169D02*
Y75264D01*
X44315Y66315D02*
X45669Y67716D01*
X44326Y57249D02*
X46226Y55349D01*
X40781Y29560D02*
X46227Y35007D01*
X34482Y15781D02*
X41109Y22408D01*
X47244Y35169D02*
Y65816D01*
X47474Y66371D02*
X48819Y67716D01*
X52362Y47767D02*
Y59713D01*
X31504Y6103D02*
Y16223D01*
X53773Y72671D02*
X55118Y74016D01*
X35671Y10474D02*
X51345Y26148D01*
X60169Y8071D02*
X74486Y8071D01*
X56135Y38418D02*
X61581Y43865D01*
X58269Y80314D02*
X59622Y78908D01*
X55118Y11940D02*
Y38256D01*
X52596Y47207D02*
X54297Y45506D01*
X52592Y60269D02*
X54888Y62566D01*
X54528Y39499D02*
Y44949D01*
X51804Y61253D02*
X53314Y62762D01*
X51575Y26704D02*
Y60698D01*
X35441Y6103D02*
Y9918D01*
X55345Y11387D02*
X60400Y6333D01*
X56693Y54657D02*
Y75213D01*
X34875Y17356D02*
X40321Y22802D01*
X46457Y35562D02*
Y54792D01*
X33498Y15551D02*
X33926D01*
X41339Y22964D02*
Y28611D01*
X41568Y29166D02*
X47014Y34613D01*
X40551Y23358D02*
Y29005D01*
X50563Y59680D02*
X50621Y59607D01*
X50623Y75820D02*
X51739Y76936D01*
X50787Y30209D02*
Y59123D01*
X53543Y63318D02*
Y72115D01*
X41456Y20552D02*
X50558Y29654D01*
X34819Y66363D02*
X36220Y67716D01*
X40914Y69100D02*
X42520Y67716D01*
X25129Y69291D02*
X40400D01*
X27590Y81791D02*
X34255D01*
X20472Y90551D02*
X26144Y84880D01*
X37795Y81564D02*
X37795Y79066D01*
X29066Y72441D02*
X37250D01*
X34776Y81594D02*
X36220Y80315D01*
X26708Y84646D02*
X34713Y84646D01*
X35270Y84415D02*
X37565Y82120D01*
X36220Y77165D02*
X37566Y78510D01*
X39370Y74016D02*
X40724Y75418D01*
D73*
X30484Y91339D02*
G03*
X31872Y91911I0J1969D01*
G01*
X47047Y99803D02*
G03*
X45866Y100197I-1181J-1575D01*
G01*
X26197Y91913D02*
G03*
X27587Y91339I1390J1394D01*
G01*
X39201Y98425D02*
G03*
X37813Y97852I0J-1969D01*
G01*
X47262Y94506D02*
G03*
X47835Y95894I-1396J1388D01*
G01*
Y98425D02*
G03*
X47205Y99685I-1575J0D01*
G01*
X38414Y100197D02*
G03*
X37025Y99624I0J-1969D01*
G01*
X46242Y93486D02*
G03*
X45669Y92098I1396J-1388D01*
G01*
Y84280D02*
G03*
X46244Y82890I1969J0D01*
G01*
X46242Y93486D02*
X47262Y94506D01*
X47835Y95894D02*
Y98425D01*
X46244Y82890D02*
X48819Y80315D01*
X45669Y84280D02*
Y92098D01*
X47047Y99803D02*
X47205Y99685D01*
X38414Y100197D02*
X45866D01*
X39201Y98425D02*
X46260D01*
X36024Y98622D02*
X37025Y99624D01*
X24606Y93504D02*
X26197Y91913D01*
X31872Y91911D02*
X37813Y97852D01*
X27587Y91339D02*
X30484D01*
D76*
X93307Y54132D02*
D03*
Y55313D02*
D03*
X94488Y54132D02*
D03*
Y55313D02*
D03*
X95669Y54132D02*
D03*
Y55313D02*
D03*
X96850Y54132D02*
D03*
Y55313D02*
D03*
X98032Y54132D02*
D03*
Y55313D02*
D03*
X62008Y52968D02*
D03*
X63976D02*
D03*
X53543Y85039D02*
D03*
X61316Y62205D02*
D03*
X59842Y54528D02*
D03*
X28740Y94095D02*
D03*
X35827Y100984D02*
D03*
X39370Y86614D02*
D03*
X42913Y5810D02*
D03*
X23622Y152953D02*
D03*
X24803D02*
D03*
X22441D02*
D03*
X78740D02*
D03*
X79921D02*
D03*
X77559D02*
D03*
X78740Y145472D02*
D03*
X79921D02*
D03*
X77559D02*
D03*
X23622D02*
D03*
X24803D02*
D03*
X22441D02*
D03*
X71653Y148868D02*
D03*
X69291D02*
D03*
X74016D02*
D03*
X55118Y151575D02*
D03*
X50393Y148868D02*
D03*
X52755D02*
D03*
X35827D02*
D03*
X28741D02*
D03*
X26378D02*
D03*
X33465D02*
D03*
X31102D02*
D03*
X71063Y10630D02*
D03*
X9056Y141340D02*
D03*
X6694Y142521D02*
D03*
X20472Y94488D02*
D03*
X69190Y90551D02*
D03*
X68009D02*
D03*
X25787Y61102D02*
D03*
X23425D02*
D03*
X24606D02*
D03*
X5414Y101772D02*
D03*
X6595D02*
D03*
X5414Y102953D02*
D03*
X6595D02*
D03*
X36220Y70866D02*
D03*
X34252Y53150D02*
D03*
X83701Y100295D02*
D03*
X81339D02*
D03*
X82520D02*
D03*
X81339Y99114D02*
D03*
X82520D02*
D03*
X83701D02*
D03*
X70236Y71161D02*
D03*
X69055D02*
D03*
X67874D02*
D03*
X70236Y69980D02*
D03*
X69055D02*
D03*
X67874D02*
D03*
X72047Y75197D02*
D03*
Y76378D02*
D03*
Y77559D02*
D03*
X67874Y64862D02*
D03*
X69055D02*
D03*
X70236D02*
D03*
X75754Y44291D02*
D03*
X71457Y39370D02*
D03*
X71457Y37795D02*
D03*
X64370Y23622D02*
D03*
X37992Y137795D02*
D03*
X6693Y55315D02*
D03*
Y54134D02*
D03*
X5512Y55315D02*
D03*
Y54134D02*
D03*
X4331Y55315D02*
D03*
Y54134D02*
D03*
X59646Y102362D02*
D03*
X53543Y99803D02*
D03*
X49242Y119094D02*
D03*
X68898Y105118D02*
D03*
X72047Y102362D02*
D03*
X9055Y87008D02*
D03*
X4724Y79921D02*
D03*
X7058Y77756D02*
D03*
X66828Y90551D02*
D03*
X64668Y92913D02*
D03*
X65748Y22244D02*
D03*
X70669Y27362D02*
D03*
Y25394D02*
D03*
X34254Y139173D02*
D03*
X39370Y64567D02*
D03*
X26969Y10827D02*
D03*
X84449Y58071D02*
D03*
X41339Y137795D02*
D03*
X25984D02*
D03*
X23819Y134843D02*
D03*
X20472Y88583D02*
D03*
Y68504D02*
D03*
X61423Y39370D02*
D03*
X63785D02*
D03*
X62604Y38188D02*
D03*
Y40551D02*
D03*
X60242Y38188D02*
D03*
X61423Y37007D02*
D03*
X63785D02*
D03*
X64966Y38188D02*
D03*
Y40551D02*
D03*
X63785Y41732D02*
D03*
X61423D02*
D03*
X60242Y40551D02*
D03*
X53120Y40354D02*
D03*
Y42323D02*
D03*
X38577Y122048D02*
D03*
X40939D02*
D03*
X39758Y120867D02*
D03*
Y123229D02*
D03*
X37396Y120867D02*
D03*
X38577Y119685D02*
D03*
X40939D02*
D03*
X42121Y120867D02*
D03*
Y123229D02*
D03*
X40939Y124410D02*
D03*
X38577D02*
D03*
X37396Y123229D02*
D03*
X58268Y108268D02*
D03*
X60242Y122834D02*
D03*
X58268Y113386D02*
D03*
X60242Y125196D02*
D03*
X61423Y124015D02*
D03*
X63785D02*
D03*
X62604Y122834D02*
D03*
Y125196D02*
D03*
X61423Y121653D02*
D03*
X63785D02*
D03*
X64966Y122834D02*
D03*
Y125196D02*
D03*
X63785Y126377D02*
D03*
X61423D02*
D03*
X37396Y38583D02*
D03*
X38577Y39764D02*
D03*
X40939D02*
D03*
X42121Y38583D02*
D03*
Y36221D02*
D03*
X40939Y35040D02*
D03*
X38577D02*
D03*
X37396Y36221D02*
D03*
X39758Y38583D02*
D03*
Y36221D02*
D03*
X40939Y37402D02*
D03*
X38577D02*
D03*
X74016Y71655D02*
D03*
X54921Y53347D02*
D03*
X54528Y59055D02*
D03*
X46260Y98425D02*
D03*
X36024Y98622D02*
D03*
X61417Y86614D02*
D03*
X48819Y59055D02*
D03*
X42323Y55118D02*
D03*
X33465Y60039D02*
D03*
X65748Y71457D02*
D03*
X58268Y67716D02*
D03*
Y74016D02*
D03*
X48819Y80315D02*
D03*
X51968D02*
D03*
X20472Y84842D02*
D03*
X43307Y24606D02*
D03*
X24606Y93504D02*
D03*
X44882Y132555D02*
D03*
X49246Y117130D02*
D03*
X27362Y63189D02*
D03*
X20472Y71063D02*
D03*
X44094Y53150D02*
D03*
X58071Y21654D02*
D03*
X46457Y134055D02*
D03*
X53120Y123031D02*
D03*
X49242Y38386D02*
D03*
X50394Y85039D02*
D03*
X20472Y66142D02*
D03*
Y73622D02*
D03*
X28543Y19685D02*
D03*
X44685Y112205D02*
D03*
X55709Y135433D02*
D03*
X65748Y137992D02*
D03*
X68110Y139961D02*
D03*
X77953Y96949D02*
D03*
X28543Y57874D02*
D03*
X27362D02*
D03*
X20472Y80709D02*
D03*
X68218Y57874D02*
D03*
X67037D02*
D03*
X81339Y93996D02*
D03*
X78740Y39173D02*
D03*
X77953Y99311D02*
D03*
X93371Y100330D02*
D03*
X62008Y99803D02*
D03*
Y102362D02*
D03*
X94488Y68898D02*
D03*
X87008Y59449D02*
D03*
Y57087D02*
D03*
Y58268D02*
D03*
X89764Y62402D02*
D03*
Y60039D02*
D03*
Y61221D02*
D03*
X72047Y57087D02*
D03*
Y59449D02*
D03*
Y58268D02*
D03*
X84416Y64567D02*
D03*
X74016Y70474D02*
D03*
X77362Y83268D02*
D03*
Y85630D02*
D03*
Y84449D02*
D03*
X75361Y88189D02*
D03*
X64668Y97638D02*
D03*
X77953Y98130D02*
D03*
X86221Y93701D02*
D03*
X87402Y93701D02*
D03*
X86221Y90158D02*
D03*
Y91339D02*
D03*
Y92520D02*
D03*
Y86614D02*
D03*
Y87795D02*
D03*
Y88976D02*
D03*
X87402Y90158D02*
D03*
Y91339D02*
D03*
Y92520D02*
D03*
Y86614D02*
D03*
Y87795D02*
D03*
Y88976D02*
D03*
X82520Y93996D02*
D03*
X83701D02*
D03*
X88583Y93701D02*
D03*
Y90158D02*
D03*
Y91339D02*
D03*
Y92520D02*
D03*
X89764Y91339D02*
D03*
Y92520D02*
D03*
Y93701D02*
D03*
X90945Y91339D02*
D03*
Y92520D02*
D03*
Y93701D02*
D03*
Y90158D02*
D03*
X89764D02*
D03*
X90945Y88976D02*
D03*
X88583D02*
D03*
X89764D02*
D03*
X90945Y87795D02*
D03*
X88583D02*
D03*
X89764D02*
D03*
X90945Y86614D02*
D03*
X88583D02*
D03*
X89764D02*
D03*
X90945Y85433D02*
D03*
X88583D02*
D03*
X89764D02*
D03*
X87402D02*
D03*
X86221Y85433D02*
D03*
X90945Y84252D02*
D03*
X88583D02*
D03*
X89764D02*
D03*
X87402D02*
D03*
X86221Y84252D02*
D03*
Y83071D02*
D03*
X87402Y83071D02*
D03*
X89764D02*
D03*
X88583D02*
D03*
X90945D02*
D03*
X87402Y108071D02*
D03*
X86221Y110433D02*
D03*
X87402D02*
D03*
Y109252D02*
D03*
X90945Y106890D02*
D03*
X89764Y109252D02*
D03*
X88583Y106890D02*
D03*
X89764D02*
D03*
X88583Y109252D02*
D03*
X89764Y108071D02*
D03*
Y110433D02*
D03*
X86221Y108071D02*
D03*
X87402Y106890D02*
D03*
X90945Y109252D02*
D03*
X88583Y108071D02*
D03*
X86221Y109252D02*
D03*
X88583Y110433D02*
D03*
X86221Y106890D02*
D03*
X90945Y108071D02*
D03*
Y110433D02*
D03*
X41456Y20552D02*
D03*
X39035Y10827D02*
D03*
X23957D02*
D03*
X33473Y15551D02*
D03*
X31504Y6103D02*
D03*
X35441D02*
D03*
X37410D02*
D03*
X25599D02*
D03*
X27567D02*
D03*
X64969D02*
D03*
X70874D02*
D03*
X66937D02*
D03*
X74811D02*
D03*
X72843Y15551D02*
D03*
X78405Y10827D02*
D03*
X76780Y6103D02*
D03*
X37795Y75590D02*
D03*
X45669Y77165D02*
D03*
X42520D02*
D03*
X39370Y80315D02*
D03*
X51968Y67716D02*
D03*
Y64567D02*
D03*
X61024Y23622D02*
D03*
X57284Y28740D02*
D03*
X58268Y64567D02*
D03*
X55118Y80315D02*
D03*
X59842Y16929D02*
D03*
X55118Y67716D02*
D03*
Y70866D02*
D03*
X55709Y46850D02*
D03*
X53120Y44291D02*
D03*
X42520Y70866D02*
D03*
X58268Y80315D02*
D03*
Y77165D02*
D03*
X62461Y11000D02*
D03*
X42520Y74016D02*
D03*
X45669Y70866D02*
D03*
X42717Y27559D02*
D03*
X45669Y67716D02*
D03*
X48819D02*
D03*
X55118Y77165D02*
D03*
Y74016D02*
D03*
Y64567D02*
D03*
X30315D02*
D03*
X36614Y53150D02*
D03*
X39370D02*
D03*
X41339D02*
D03*
X28740Y64567D02*
D03*
X36220Y67716D02*
D03*
X39370D02*
D03*
X42520D02*
D03*
X33071Y74016D02*
D03*
X20472Y90551D02*
D03*
X39370Y70866D02*
D03*
Y77165D02*
D03*
X36220D02*
D03*
Y80315D02*
D03*
X39370Y74016D02*
D03*
X20472Y92716D02*
D03*
X23622Y140551D02*
D03*
Y106299D02*
D03*
Y117126D02*
D03*
Y129921D02*
D03*
X36614Y139173D02*
D03*
X46654Y114567D02*
D03*
X49242Y121063D02*
D03*
X44094Y137795D02*
D03*
X39370Y89764D02*
D03*
Y92913D02*
D03*
X42520D02*
D03*
Y89764D02*
D03*
X48819Y86614D02*
D03*
Y89764D02*
D03*
X53120Y128937D02*
D03*
X55709Y131496D02*
D03*
X59646Y133858D02*
D03*
X63583D02*
D03*
X57677D02*
D03*
X61024Y108268D02*
D03*
X58268Y89764D02*
D03*
Y92913D02*
D03*
X94488Y141339D02*
D03*
X93307D02*
D03*
X95669Y142520D02*
D03*
Y141339D02*
D03*
X96850Y142520D02*
D03*
Y141339D02*
D03*
X98032Y142520D02*
D03*
Y141339D02*
D03*
X4332Y141340D02*
D03*
Y142521D02*
D03*
X5513Y141340D02*
D03*
Y142521D02*
D03*
X6694Y141340D02*
D03*
X7875D02*
D03*
X84842Y21457D02*
D03*
X86024D02*
D03*
X87205D02*
D03*
X88386D02*
D03*
X86024Y19094D02*
D03*
X84842D02*
D03*
X88386Y20276D02*
D03*
X89567D02*
D03*
X90748D02*
D03*
X87205D02*
D03*
X86024D02*
D03*
X84842D02*
D03*
X89567Y21457D02*
D03*
X90748D02*
D03*
X93307Y30510D02*
D03*
Y31691D02*
D03*
X94488Y30510D02*
D03*
Y31691D02*
D03*
X95669Y30510D02*
D03*
Y31691D02*
D03*
X96850Y30510D02*
D03*
Y31691D02*
D03*
X98032Y30510D02*
D03*
Y31691D02*
D03*
Y43502D02*
D03*
Y42321D02*
D03*
X96850Y43502D02*
D03*
Y42321D02*
D03*
X95669Y43502D02*
D03*
Y42321D02*
D03*
X94488Y43502D02*
D03*
Y42321D02*
D03*
X93307Y43502D02*
D03*
Y42321D02*
D03*
X9056Y130906D02*
D03*
Y129725D02*
D03*
X7875Y130906D02*
D03*
Y129725D02*
D03*
X6694Y130906D02*
D03*
Y129725D02*
D03*
X5513Y130906D02*
D03*
Y129725D02*
D03*
X4332Y130906D02*
D03*
Y129725D02*
D03*
Y117914D02*
D03*
Y119095D02*
D03*
X5513Y117914D02*
D03*
Y119095D02*
D03*
X6694Y117914D02*
D03*
Y119095D02*
D03*
X7875Y117914D02*
D03*
Y119095D02*
D03*
X9056Y117914D02*
D03*
Y119095D02*
D03*
X93307Y117913D02*
D03*
Y119095D02*
D03*
X94488Y117913D02*
D03*
Y119095D02*
D03*
X95669Y117913D02*
D03*
Y119095D02*
D03*
X96850Y117913D02*
D03*
Y119095D02*
D03*
X98032Y117913D02*
D03*
Y119095D02*
D03*
Y130905D02*
D03*
Y129724D02*
D03*
X96850Y130905D02*
D03*
Y129724D02*
D03*
X95669Y130905D02*
D03*
Y129724D02*
D03*
X94488Y130905D02*
D03*
Y129724D02*
D03*
X93307Y130905D02*
D03*
Y129724D02*
D03*
X9055Y31693D02*
D03*
Y30512D02*
D03*
X7874Y31693D02*
D03*
Y30512D02*
D03*
X6693Y31693D02*
D03*
Y30512D02*
D03*
X5512Y31693D02*
D03*
Y30512D02*
D03*
X4331Y31693D02*
D03*
Y30512D02*
D03*
Y42323D02*
D03*
Y43504D02*
D03*
X5512Y42323D02*
D03*
Y43504D02*
D03*
X6693Y42323D02*
D03*
Y43504D02*
D03*
X7874Y42323D02*
D03*
Y43504D02*
D03*
X9055Y42323D02*
D03*
Y43504D02*
D03*
X17520Y19094D02*
D03*
X16339D02*
D03*
X15157Y20276D02*
D03*
X16339D02*
D03*
X17520D02*
D03*
X13976D02*
D03*
X12795D02*
D03*
X11614D02*
D03*
X17520Y21457D02*
D03*
X16339D02*
D03*
X15157D02*
D03*
X13976D02*
D03*
X12795D02*
D03*
X11614D02*
D03*
X16142Y54528D02*
D03*
Y53347D02*
D03*
Y52165D02*
D03*
Y50984D02*
D03*
X11417Y54527D02*
D03*
X12598D02*
D03*
X13780D02*
D03*
X14961D02*
D03*
X11417Y53347D02*
D03*
X12598D02*
D03*
X13780D02*
D03*
X14961D02*
D03*
Y52165D02*
D03*
X13780D02*
D03*
X12598D02*
D03*
X11417D02*
D03*
Y50984D02*
D03*
X12598D02*
D03*
X13780D02*
D03*
X14961D02*
D03*
X90945Y131102D02*
D03*
X89764D02*
D03*
X88583D02*
D03*
X87402D02*
D03*
X86221D02*
D03*
X90945Y129921D02*
D03*
X89764D02*
D03*
X88583D02*
D03*
X87402D02*
D03*
X86221D02*
D03*
Y128740D02*
D03*
X87402D02*
D03*
X88583D02*
D03*
X89764D02*
D03*
X90945D02*
D03*
X86221Y127559D02*
D03*
X87402D02*
D03*
X88583D02*
D03*
X89764D02*
D03*
X90945D02*
D03*
Y126378D02*
D03*
X89764D02*
D03*
X88583D02*
D03*
X87402D02*
D03*
X86221D02*
D03*
X16142Y35039D02*
D03*
X14961D02*
D03*
X13780D02*
D03*
X12598D02*
D03*
X11417D02*
D03*
Y33858D02*
D03*
X12598D02*
D03*
X13780D02*
D03*
X14961D02*
D03*
X16142D02*
D03*
X11417Y32677D02*
D03*
X12598D02*
D03*
X13780D02*
D03*
X14961D02*
D03*
X16142D02*
D03*
Y31496D02*
D03*
X14961D02*
D03*
X13780D02*
D03*
X12598D02*
D03*
X11417D02*
D03*
X16142Y30315D02*
D03*
X14961D02*
D03*
X13780D02*
D03*
X12598D02*
D03*
X11417D02*
D03*
X90945Y50984D02*
D03*
X89764D02*
D03*
X88583D02*
D03*
X87402D02*
D03*
X86221D02*
D03*
X90945Y52165D02*
D03*
X89764D02*
D03*
X88583D02*
D03*
X87402D02*
D03*
X86221D02*
D03*
X90945Y53347D02*
D03*
X89764D02*
D03*
X88583D02*
D03*
X87402D02*
D03*
X86221D02*
D03*
X90945Y54528D02*
D03*
X89764D02*
D03*
X88583D02*
D03*
X87402D02*
D03*
X86221D02*
D03*
X90945Y55709D02*
D03*
X89764D02*
D03*
X88583D02*
D03*
X87402D02*
D03*
X86221D02*
D03*
X86221Y30315D02*
D03*
X87402D02*
D03*
X88583D02*
D03*
X89764D02*
D03*
X90945D02*
D03*
X86221Y31496D02*
D03*
X87402D02*
D03*
X88583D02*
D03*
X89764D02*
D03*
X90945D02*
D03*
Y32677D02*
D03*
X89764D02*
D03*
X88583D02*
D03*
X87402D02*
D03*
X86221D02*
D03*
X90945Y33858D02*
D03*
X89764D02*
D03*
X88583D02*
D03*
X87402D02*
D03*
X86221D02*
D03*
X90945Y35039D02*
D03*
X89764D02*
D03*
X88583D02*
D03*
X87402D02*
D03*
X86221D02*
D03*
X16142Y126378D02*
D03*
X14961D02*
D03*
X13780D02*
D03*
X12598D02*
D03*
X11417D02*
D03*
X16142Y105709D02*
D03*
X14961D02*
D03*
X13780D02*
D03*
X12598D02*
D03*
X11417D02*
D03*
X16142Y106890D02*
D03*
X14961D02*
D03*
X13780D02*
D03*
X12598D02*
D03*
X11417D02*
D03*
X16142Y108071D02*
D03*
X14961D02*
D03*
X13780D02*
D03*
X12598D02*
D03*
X11417D02*
D03*
X16142Y109252D02*
D03*
X14961D02*
D03*
X13780D02*
D03*
X12598D02*
D03*
X11417D02*
D03*
X16142Y110433D02*
D03*
X14961D02*
D03*
X13780D02*
D03*
X12598D02*
D03*
X11417D02*
D03*
X16142Y127559D02*
D03*
X14961D02*
D03*
X13780D02*
D03*
X12598D02*
D03*
X11417D02*
D03*
X16142Y128740D02*
D03*
X14961D02*
D03*
X13780D02*
D03*
X12598D02*
D03*
X11417D02*
D03*
Y129921D02*
D03*
X12598D02*
D03*
X13780D02*
D03*
X14961D02*
D03*
X16142D02*
D03*
X11417Y131102D02*
D03*
X12598D02*
D03*
X13780D02*
D03*
X14961D02*
D03*
X16142D02*
D03*
X26608Y123031D02*
D03*
X30059Y108268D02*
D03*
X23819D02*
D03*
Y131890D02*
D03*
Y120079D02*
D03*
X25984Y114173D02*
D03*
X42717Y112205D02*
D03*
X38780D02*
D03*
X23622Y126575D02*
D03*
X26608Y128937D02*
D03*
X23622Y124409D02*
D03*
X34843Y129921D02*
D03*
X30906Y123622D02*
D03*
X30906Y122047D02*
D03*
X31693Y139173D02*
D03*
Y134055D02*
D03*
Y136024D02*
D03*
X23622Y122244D02*
D03*
X78543Y41339D02*
D03*
X78740Y31496D02*
D03*
Y55118D02*
D03*
X68108Y22244D02*
D03*
X70669D02*
D03*
X78740Y20866D02*
D03*
X67520Y31496D02*
D03*
X78740Y37008D02*
D03*
X75754Y32480D02*
D03*
X78740Y34843D02*
D03*
Y44291D02*
D03*
X76378Y23622D02*
D03*
Y47244D02*
D03*
X78543Y53150D02*
D03*
Y29528D02*
D03*
X72303Y53150D02*
D03*
X75754Y38386D02*
D03*
X58268Y23622D02*
D03*
X63583Y49213D02*
D03*
X59646D02*
D03*
X57677D02*
D03*
X75754Y123031D02*
D03*
Y117126D02*
D03*
X76378Y131890D02*
D03*
X67520Y114173D02*
D03*
X71457Y124016D02*
D03*
X68110Y133858D02*
D03*
X71457Y122441D02*
D03*
X72303Y137795D02*
D03*
X53120Y126969D02*
D03*
Y125000D02*
D03*
X78740Y121260D02*
D03*
Y119291D02*
D03*
Y117323D02*
D03*
Y128937D02*
D03*
Y130905D02*
D03*
Y140354D02*
D03*
X62992Y108268D02*
D03*
X78543Y137795D02*
D03*
Y125984D02*
D03*
Y114173D02*
D03*
X65748Y108268D02*
D03*
X68110D02*
D03*
X70079Y110039D02*
D03*
X32283Y51378D02*
D03*
X23819Y47244D02*
D03*
Y35433D02*
D03*
Y23622D02*
D03*
X23622Y21063D02*
D03*
Y30512D02*
D03*
Y32480D02*
D03*
Y44094D02*
D03*
Y42126D02*
D03*
Y40157D02*
D03*
X44094Y48031D02*
D03*
X49242Y36418D02*
D03*
Y34449D02*
D03*
Y32481D02*
D03*
X46654Y29921D02*
D03*
X38780Y27559D02*
D03*
X44685D02*
D03*
X36614Y23425D02*
D03*
X30059Y23622D02*
D03*
X34252Y21457D02*
D03*
X30906Y38976D02*
D03*
X34252Y27559D02*
D03*
X30906Y37402D02*
D03*
X34843Y47244D02*
D03*
X25984Y29528D02*
D03*
X26608Y44291D02*
D03*
Y38386D02*
D03*
D86*
X66181Y173228D02*
D03*
D87*
X56181D02*
D03*
X46181D02*
D03*
X36181D02*
D03*
D89*
X99213Y98425D02*
D03*
Y74803D02*
D03*
D90*
Y86614D02*
D03*
Y62992D02*
D03*
D91*
X3150Y124016D02*
D03*
Y112205D02*
D03*
Y135827D02*
D03*
Y25591D02*
D03*
Y49213D02*
D03*
Y37402D02*
D03*
X99213Y124016D02*
D03*
Y135827D02*
D03*
Y112205D02*
D03*
Y49213D02*
D03*
Y25591D02*
D03*
Y37402D02*
D03*
M02*
