M48
;Layer_Color=9474304
;FILE_FORMAT=2:5
INCH,TZ
;TYPE=PLATED
T01F00S00C0.00591
T03F00S00C0.04331
T05F00S00C0.11811
%
T01
X25599Y6103
X27567
X31504
X35441
X37410
X42913Y5810
X39035Y10827
X33473Y15551
X34252Y21457
X36614Y23425
X38780Y27559
X42717
X44685
X46654Y29921
X49242Y32481
Y34449
Y36418
Y38386
X53120Y40354
Y42323
Y44291
X55709Y46850
X57677Y49213
X59646
X63583
X63976Y52968
X62008
X59842Y54528
X54921Y53347
X54528Y59055
X48819
X51968Y64567
Y67716
X48819
X45669
Y70866
X42520
Y67716
X39370
Y70866
X36220
Y67716
X39370Y64567
X30315
X28740
X27362Y63189
X25787Y61102
X24606
X23425
X27362Y57874
X28543
X33465Y60039
X34252Y53150
X36614
X39370
X41339
X44094
X42323Y55118
X44094Y48031
X34843Y47244
X32283Y51378
X23819Y47244
X23622Y44094
Y42126
Y40157
X26608Y38386
X30906Y38976
Y37402
X37396Y36221
Y38583
X38577Y39764
X40939
X42121Y38583
Y36221
X40939Y35040
X38577
X39758Y36221
Y38583
X40939Y37402
X38577
X34252Y27559
X30059Y23622
X28543Y19685
X23622Y21063
X23819Y23622
X23622Y30512
Y32480
X23819Y35433
X16142Y35039
X14961
X13780
X12598
X11417
Y33858
X12598
X13780
X14961
X16142
Y32677
X14961
X13780
X12598
X11417
Y31496
X12598
X13780
X14961
X16142
Y30315
X14961
X13780
X12598
X11417
X9055Y30512
Y31693
X7874
Y30512
X6693
Y31693
X5512
Y30512
X4331
Y31693
Y42323
Y43504
X5512
Y42323
X6693
Y43504
X7874
Y42323
X9055Y42323
Y43504
X11417Y50984
Y52165
Y53347
Y54527
X12598
X13780
X14961
Y53347
X16142
Y52165
Y50984
X14961
Y52165
X13780
Y53347
X12598
Y52165
Y50984
X13780
X16142Y54528
X6693Y54134
Y55315
X5512
Y54134
X4331
Y55315
X4724Y79921
X7058Y77756
X9055Y87008
X20472Y88583
Y90551
Y92716
Y94488
X24606Y93504
X28740Y94095
X36024Y98622
X35827Y100984
X39370Y92913
Y89764
X42520
Y92913
X46260Y98425
X53543Y99803
X62008Y99803
Y102362
X59646
X58268Y108268
X61024
X62992
X65748
X68110
X70079Y110039
X68898Y105118
X72047Y102362
X77953Y99311
Y98130
Y96949
X81339Y99114
Y100295
X82520
X83701
Y99114
X82520
Y93996
X81339
X83701
X86221Y93701
Y92520
Y91339
Y90158
Y88976
Y87795
Y86614
Y85433
Y84252
Y83071
X87402Y83071
Y84252
Y85433
Y86614
X88583
X89764
Y85433
X88583
Y84252
X89764
Y83071
X88583
X90945
Y84252
Y85433
Y86614
Y87795
Y88976
Y90158
Y91339
Y92520
Y93701
X89764
X88583
X87402
Y92520
Y91339
X88583
Y90158
X87402Y90158
Y88976
Y87795
X88583
Y88976
X89764
Y90158
Y91339
Y92520
X88583
X89764Y87795
X77362Y85630
Y84449
Y83268
X75361Y88189
X69190Y90551
X68009
X66828
X64668Y92913
X64668Y97638
X58268Y92913
Y89764
X61417Y86614
X58268Y80315
Y77165
Y74016
X55118Y74016
Y77165
Y80315
X51968Y80315
X48819
X50394Y85039
X48819Y86614
Y89764
X53543Y85039
X39370Y86614
X39370Y80315
Y77165
X37795Y75590
X39370Y74016
X42520
X42520Y77165
X45669
X36220Y77165
Y80315
X33071Y74016
X20472Y73622
Y71063
Y68504
Y66142
Y80709
Y84842
X23622Y106299
X23819Y108268
X30059
X25984Y114173
X23622Y117126
X23819Y120079
X23622Y122244
Y124409
Y126575
Y129921
X23819Y131890
Y134843
X25984Y137795
X23622Y140551
X23622Y145472
X24803
X22441
X26378Y148868
X28741
X31102
X33465
X35827
X36614Y139173
X34254
X31693
Y136024
Y134055
X34843Y129921
X26608Y128937
X26608Y123031
X30906Y123622
X30906Y122047
X37396Y120867
X38577Y122048
X40939
X39758Y120867
Y123229
X42121
Y120867
X40939Y119685
X38577
Y124410
X40939
X37396Y123229
X38780Y112205
X42717
X44685
X46654Y114567
X49246Y117130
X49242Y119094
Y121063
X53120Y123031
X53120Y125000
Y126969
Y128937
X55709Y131496
X55709Y135433
X57677Y133858
X59646
X63583
X68110
Y139961
X65748Y137992
X72303Y137795
X78543
X78740Y140354
Y145472
X79921
X77559
X74016Y148868
X71653
X69291
X77559Y152953
X78740
X79921
X78740Y130905
Y128937
X78543Y125984
X78740Y121260
Y119291
Y117323
X75754Y117126
X78543Y114173
X67520
X58268Y113386
X60242Y122834
Y125196
X61423Y124015
X63785
X62604Y122834
Y125196
X64966
Y122834
X63785Y121653
X61423
Y126377
X63785
X71457Y124016
Y122441
X75754Y123031
X76378Y131890
X86221Y131102
X87402
X88583
X89764
X90945
Y129921
X89764
X88583
X87402
X86221
Y128740
X87402
X88583
X89764
X90945
Y127559
X89764
X88583
X87402
X86221
Y126378
X87402
X88583
X89764
X90945
X93307Y129724
Y130905
X94488Y130905
X95669
X96850
X98032
Y129724
X96850
X95669
X94488
Y119095
Y117913
X93307
Y119095
X95669Y119095
Y117913
X96850
Y119095
X98032
Y117913
X90945Y110433
Y109252
Y108071
Y106890
X89764
X88583
X87402
Y108071
Y109252
Y110433
X86221
Y109252
Y108071
Y106890
X88583Y108071
Y109252
X89764
Y108071
Y110433
X88583
X93371Y100330
X94488Y68898
X89764Y62402
Y61221
Y60039
X87008Y59449
Y58268
Y57087
X87402Y55709
Y54528
Y53347
Y52165
Y50984
X88583
X89764
X90945
Y52165
X89764
X88583
Y53347
X89764
X90945
Y54528
X89764
X88583
Y55709
X89764
X90945
X93307Y55313
Y54132
X94488
Y55313
X95669
Y54132
X96850
Y55313
X98032
Y54132
Y43502
Y42321
X96850
Y43502
X95669
Y42321
X94488
Y43502
X93307Y43502
Y42321
X90945Y35039
X89764
X88583
X87402
X86221
Y33858
Y32677
Y31496
Y30315
X87402
X88583
X89764
X90945
Y31496
X89764
X88583
X87402
Y32677
X88583
X89764
X90945
Y33858
X89764
X88583
X87402
X93307Y31691
Y30510
X94488
Y31691
X95669
Y30510
X96850
Y31691
X98032
Y30510
X90748Y21457
Y20276
X89567
Y21457
X88386
X87205
X86024
Y20276
Y19094
X84842
Y20276
Y21457
X87205Y20276
X88386
X78740Y20866
X76378Y23622
X70669Y22244
X68108
X65748
X64370Y23622
X61024
X58268Y23622
X58071Y21654
X59842Y16929
X62461Y11000
X64969Y6103
X66937
X70874
X74811
X76780
X78405Y10827
X71063Y10630
X72843Y15551
X70669Y25394
Y27362
X67520Y31496
X75754Y32480
X78740Y31496
X78543Y29528
X78740Y34843
Y37008
Y39173
X78543Y41339
X78740Y44291
X75754
X76378Y47244
X78543Y53150
X78740Y55118
X86221Y54528
Y53347
Y52165
Y50984
Y55709
X84449Y58071
X84416Y64567
X70236Y64862
X69055
X67874
Y69980
Y71161
X69055
X70236
Y69980
X69055
X65748Y71457
X74016Y71655
Y70474
X72047Y75197
Y76378
Y77559
X72047Y59449
Y58268
Y57087
X72303Y53150
X68218Y57874
X67037
X61316Y62205
X58268Y64567
X58268Y67716
X55118Y67716
Y70866
Y64567
X61423Y41732
Y39370
X63785
X62604Y38188
Y40551
X64966
Y38188
X63785Y37007
X61423
X60242Y38188
Y40551
X63785Y41732
X71457Y39370
X71457Y37795
X75754Y38386
X57284Y28740
X43307Y24606
X41456Y20552
X17520Y20276
Y19094
X16339
Y20276
X15157
X13976
X12795
Y21457
X13976
X15157
X16339
X17520
X11614
Y20276
X23957Y10827
X26969
X25984Y29528
X26608Y44291
X16142Y105709
X14961
X13780
X12598
X11417
Y106890
X12598
X13780
X14961
X16142
Y108071
X14961
X13780
X12598
X11417
Y109252
X12598
X13780
X14961
X16142
Y110433
X14961
X13780
X12598
X11417
X9056Y117914
Y119095
X7875
X6694
X5513
X4332
Y117914
X5513
X6694
X7875
Y129725
Y130906
X9056
Y129725
X6694Y129725
Y130906
X5513
Y129725
X4332
Y130906
X11417Y131102
Y129921
Y128740
Y127559
X12598
X13780
X14961
X16142
Y128740
X14961
X13780
X12598
Y129921
X13780
X14961
X16142
Y131102
X14961
X13780
X12598
Y126378
X13780
X14961
X16142
X11417
X9056Y141340
X7875Y141340
X6694
Y142521
X5513
X4332
Y141340
X5513
X22441Y152953
X23622
X24803
X37992Y137795
X41339Y137795
X44094Y137795
X44882Y132555
X46457Y134055
X50393Y148868
X52755
X55118Y151575
X93307Y141339
X94488
X95669
Y142520
X96850
Y141339
X98032
Y142520
X6595Y102953
Y101772
X5414
Y102953
T03
X36181Y173228
X46181
X56181
X66181
T05
X11811Y11811
X90551
Y149606
X11811
M30
