G04*
G04 #@! TF.GenerationSoftware,Altium Limited,Altium Designer,24.8.2 (39)*
G04*
G04 Layer_Color=128*
%FSLAX25Y25*%
%MOIN*%
G70*
G04*
G04 #@! TF.SameCoordinates,487F02F3-95FA-4862-9DB4-007DCD7F3BB9*
G04*
G04*
G04 #@! TF.FilePolarity,Positive*
G04*
G01*
G75*
%ADD10C,0.00500*%
D10*
X64016Y165354D02*
X68347D01*
X66181Y163189D02*
Y167520D01*
X54016Y165354D02*
X58346D01*
X56181Y163189D02*
Y167520D01*
X44016Y165354D02*
X48346D01*
X46181Y163189D02*
Y167520D01*
X34016Y165354D02*
X38346D01*
X36181Y163189D02*
Y167520D01*
X5906Y149606D02*
X17717D01*
X11811Y143701D02*
Y155512D01*
X84646Y149606D02*
X96457D01*
X90551Y143701D02*
Y155512D01*
X5906Y11811D02*
X17717D01*
X11811Y5906D02*
Y17717D01*
X84646Y11811D02*
X96457D01*
X90551Y5906D02*
Y17717D01*
X96850Y98425D02*
X101575D01*
X99213Y96063D02*
Y100787D01*
X96850Y86614D02*
X101575D01*
X99213Y84252D02*
Y88976D01*
X1575Y124016D02*
X4724D01*
X3150Y122441D02*
Y125591D01*
X1575Y112205D02*
X4724D01*
X3150Y110630D02*
Y113779D01*
X1575Y135827D02*
X4724D01*
X3150Y134252D02*
Y137402D01*
X1575Y25591D02*
X4724D01*
X3150Y24016D02*
Y27165D01*
X1575Y49213D02*
X4724D01*
X3150Y47638D02*
Y50787D01*
X1575Y37402D02*
X4724D01*
X3150Y35827D02*
Y38976D01*
X97638Y124016D02*
X100787D01*
X99213Y122441D02*
Y125591D01*
X97638Y135827D02*
X100787D01*
X99213Y134252D02*
Y137402D01*
X97638Y112205D02*
X100787D01*
X99213Y110630D02*
Y113779D01*
X97638Y49213D02*
X100787D01*
X99213Y47638D02*
Y50787D01*
X97638Y25591D02*
X100787D01*
X99213Y24016D02*
Y27165D01*
X97638Y37402D02*
X100787D01*
X99213Y35827D02*
Y38976D01*
X96850Y74803D02*
X101575D01*
X99213Y72441D02*
Y77165D01*
X96850Y62992D02*
X101575D01*
X99213Y60630D02*
Y65354D01*
X42618Y5810D02*
X43209D01*
X42913Y5514D02*
Y6105D01*
X23327Y152953D02*
X23917D01*
X23622Y152657D02*
Y153248D01*
X24508Y152953D02*
X25098D01*
X24803Y152657D02*
Y153248D01*
X22146Y152953D02*
X22736D01*
X22441Y152657D02*
Y153248D01*
X78445Y152953D02*
X79035D01*
X78740Y152657D02*
Y153248D01*
X79626Y152953D02*
X80216D01*
X79921Y152657D02*
Y153248D01*
X77264Y152953D02*
X77854D01*
X77559Y152657D02*
Y153248D01*
X78445Y145472D02*
X79035D01*
X78740Y145177D02*
Y145768D01*
X79626Y145472D02*
X80216D01*
X79921Y145177D02*
Y145768D01*
X77264Y145472D02*
X77854D01*
X77559Y145177D02*
Y145768D01*
X23327Y145472D02*
X23917D01*
X23622Y145177D02*
Y145768D01*
X24508Y145472D02*
X25098D01*
X24803Y145177D02*
Y145768D01*
X22146Y145472D02*
X22736D01*
X22441Y145177D02*
Y145768D01*
X71358Y148868D02*
X71948D01*
X71653Y148573D02*
Y149164D01*
X68996Y148868D02*
X69586D01*
X69291Y148573D02*
Y149164D01*
X73721Y148868D02*
X74311D01*
X74016Y148573D02*
Y149164D01*
X54823Y151575D02*
X55413D01*
X55118Y151279D02*
Y151870D01*
X50098Y148868D02*
X50689D01*
X50393Y148573D02*
Y149164D01*
X52460Y148868D02*
X53051D01*
X52755Y148573D02*
Y149164D01*
X35532Y148868D02*
X36122D01*
X35827Y148573D02*
Y149164D01*
X28446Y148868D02*
X29036D01*
X28741Y148573D02*
Y149164D01*
X26083Y148868D02*
X26673D01*
X26378Y148573D02*
Y149164D01*
X33170Y148868D02*
X33760D01*
X33465Y148573D02*
Y149164D01*
X30807Y148868D02*
X31397D01*
X31102Y148573D02*
Y149164D01*
X70768Y10630D02*
X71358D01*
X71063Y10335D02*
Y10925D01*
X8761Y141340D02*
X9351D01*
X9056Y141044D02*
Y141635D01*
X6399Y142521D02*
X6989D01*
X6694Y142225D02*
Y142816D01*
X20177Y94488D02*
X20768D01*
X20472Y94193D02*
Y94784D01*
X68895Y90551D02*
X69485D01*
X69190Y90256D02*
Y90847D01*
X67714Y90551D02*
X68304D01*
X68009Y90256D02*
Y90847D01*
X25492Y61102D02*
X26083D01*
X25787Y60807D02*
Y61397D01*
X23130Y61102D02*
X23721D01*
X23425Y60807D02*
Y61397D01*
X24311Y61102D02*
X24902D01*
X24606Y60807D02*
Y61397D01*
X5119Y101772D02*
X5710D01*
X5414Y101476D02*
Y102067D01*
X6300Y101772D02*
X6891D01*
X6595Y101476D02*
Y102067D01*
X5119Y102953D02*
X5710D01*
X5414Y102657D02*
Y103248D01*
X6300Y102953D02*
X6891D01*
X6595Y102657D02*
Y103248D01*
X35925Y70866D02*
X36516D01*
X36220Y70571D02*
Y71161D01*
X33957Y53150D02*
X34547D01*
X34252Y52854D02*
Y53445D01*
X83405Y100295D02*
X83996D01*
X83701Y100000D02*
Y100591D01*
X81043Y100295D02*
X81634D01*
X81339Y100000D02*
Y100591D01*
X82224Y100295D02*
X82815D01*
X82520Y100000D02*
Y100591D01*
X81043Y99114D02*
X81634D01*
X81339Y98819D02*
Y99409D01*
X82224Y99114D02*
X82815D01*
X82520Y98819D02*
Y99409D01*
X83405Y99114D02*
X83996D01*
X83701Y98819D02*
Y99409D01*
X69941Y71161D02*
X70532D01*
X70236Y70866D02*
Y71457D01*
X68760Y71161D02*
X69350D01*
X69055Y70866D02*
Y71457D01*
X67579Y71161D02*
X68169D01*
X67874Y70866D02*
Y71457D01*
X69941Y69980D02*
X70532D01*
X70236Y69685D02*
Y70275D01*
X68760Y69980D02*
X69350D01*
X69055Y69685D02*
Y70275D01*
X67579Y69980D02*
X68169D01*
X67874Y69685D02*
Y70275D01*
X71752Y75197D02*
X72342D01*
X72047Y74902D02*
Y75492D01*
X71752Y76378D02*
X72342D01*
X72047Y76083D02*
Y76673D01*
X71752Y77559D02*
X72342D01*
X72047Y77264D02*
Y77854D01*
X67579Y64862D02*
X68169D01*
X67874Y64567D02*
Y65158D01*
X68760Y64862D02*
X69350D01*
X69055Y64567D02*
Y65158D01*
X69941Y64862D02*
X70532D01*
X70236Y64567D02*
Y65158D01*
X59547Y54528D02*
X60138D01*
X59842Y54232D02*
Y54823D01*
X75459Y44291D02*
X76049D01*
X75754Y43996D02*
Y44587D01*
X71161Y39370D02*
X71752D01*
X71457Y39075D02*
Y39665D01*
X71161Y37795D02*
X71752D01*
X71457Y37500D02*
Y38091D01*
X64075Y23622D02*
X64665D01*
X64370Y23327D02*
Y23917D01*
X37697Y137795D02*
X38287D01*
X37992Y137500D02*
Y138091D01*
X6398Y55315D02*
X6988D01*
X6693Y55020D02*
Y55610D01*
X6398Y54134D02*
X6988D01*
X6693Y53839D02*
Y54429D01*
X5217Y55315D02*
X5807D01*
X5512Y55020D02*
Y55610D01*
X5217Y54134D02*
X5807D01*
X5512Y53839D02*
Y54429D01*
X4035Y55315D02*
X4626D01*
X4331Y55020D02*
Y55610D01*
X4035Y54134D02*
X4626D01*
X4331Y53839D02*
Y54429D01*
X59350Y102362D02*
X59941D01*
X59646Y102067D02*
Y102657D01*
X53248Y99803D02*
X53839D01*
X53543Y99508D02*
Y100098D01*
X48947Y119094D02*
X49538D01*
X49242Y118799D02*
Y119389D01*
X68602Y105118D02*
X69193D01*
X68898Y104823D02*
Y105413D01*
X71752Y102362D02*
X72342D01*
X72047Y102067D02*
Y102657D01*
X8760Y87008D02*
X9350D01*
X9055Y86713D02*
Y87303D01*
X5020Y79921D02*
X5610D01*
X5315Y79626D02*
Y80216D01*
X6763Y77756D02*
X7354D01*
X7058Y77461D02*
Y78051D01*
X66533Y90551D02*
X67123D01*
X66828Y90256D02*
Y90847D01*
X64373Y92913D02*
X64963D01*
X64668Y92618D02*
Y93209D01*
X65453Y22244D02*
X66043D01*
X65748Y21949D02*
Y22539D01*
X70374Y27362D02*
X70965D01*
X70669Y27067D02*
Y27657D01*
X70374Y25394D02*
X70965D01*
X70669Y25098D02*
Y25689D01*
X33959Y139173D02*
X34549D01*
X34254Y138878D02*
Y139469D01*
X39075Y64567D02*
X39665D01*
X39370Y64272D02*
Y64862D01*
X26673Y10827D02*
X27264D01*
X26969Y10531D02*
Y11122D01*
X84153Y58071D02*
X84744D01*
X84449Y57776D02*
Y58366D01*
X41043Y137795D02*
X41634D01*
X41339Y137500D02*
Y138091D01*
X25689Y137795D02*
X26280D01*
X25984Y137500D02*
Y138091D01*
X23524Y134843D02*
X24114D01*
X23819Y134547D02*
Y135138D01*
X20177Y88583D02*
X20768D01*
X20472Y88287D02*
Y88878D01*
X17028Y128740D02*
X17618D01*
X17323Y128445D02*
Y129035D01*
X17028Y129921D02*
X17618D01*
X17323Y129626D02*
Y130217D01*
X17028Y131102D02*
X17618D01*
X17323Y130807D02*
Y131398D01*
X20177Y68504D02*
X20768D01*
X20472Y68209D02*
Y68799D01*
X61128Y39370D02*
X61718D01*
X61423Y39074D02*
Y39665D01*
X63490Y39370D02*
X64080D01*
X63785Y39074D02*
Y39665D01*
X62309Y38188D02*
X62899D01*
X62604Y37893D02*
Y38484D01*
X62309Y40551D02*
X62899D01*
X62604Y40255D02*
Y40846D01*
X59947Y38188D02*
X60537D01*
X60242Y37893D02*
Y38484D01*
X61128Y37007D02*
X61718D01*
X61423Y36712D02*
Y37303D01*
X63490Y37007D02*
X64080D01*
X63785Y36712D02*
Y37303D01*
X64671Y38188D02*
X65261D01*
X64966Y37893D02*
Y38484D01*
X64671Y40551D02*
X65261D01*
X64966Y40255D02*
Y40846D01*
X63490Y41732D02*
X64080D01*
X63785Y41436D02*
Y42027D01*
X61128Y41732D02*
X61718D01*
X61423Y41436D02*
Y42027D01*
X59947Y40551D02*
X60537D01*
X60242Y40255D02*
Y40846D01*
X52825Y40354D02*
X53415D01*
X53120Y40059D02*
Y40649D01*
X52825Y42323D02*
X53415D01*
X53120Y42028D02*
Y42618D01*
X38282Y122048D02*
X38872D01*
X38577Y121753D02*
Y122343D01*
X40644Y122048D02*
X41235D01*
X40939Y121753D02*
Y122343D01*
X39463Y120867D02*
X40054D01*
X39758Y120571D02*
Y121162D01*
X39463Y123229D02*
X40054D01*
X39758Y122934D02*
Y123524D01*
X37101Y120867D02*
X37691D01*
X37396Y120571D02*
Y121162D01*
X38282Y119685D02*
X38872D01*
X38577Y119390D02*
Y119981D01*
X40644Y119685D02*
X41235D01*
X40939Y119390D02*
Y119981D01*
X41825Y120867D02*
X42416D01*
X42121Y120571D02*
Y121162D01*
X41825Y123229D02*
X42416D01*
X42121Y122934D02*
Y123524D01*
X40644Y124410D02*
X41235D01*
X40939Y124115D02*
Y124705D01*
X38282Y124410D02*
X38872D01*
X38577Y124115D02*
Y124705D01*
X37101Y123229D02*
X37691D01*
X37396Y122934D02*
Y123524D01*
X57973Y108268D02*
X58563D01*
X58268Y107972D02*
Y108563D01*
X59947Y122834D02*
X60537D01*
X60242Y122539D02*
Y123129D01*
X57973Y113386D02*
X58563D01*
X58268Y113091D02*
Y113681D01*
X59947Y125196D02*
X60537D01*
X60242Y124901D02*
Y125492D01*
X61128Y124015D02*
X61718D01*
X61423Y123720D02*
Y124311D01*
X63490Y124015D02*
X64080D01*
X63785Y123720D02*
Y124311D01*
X62309Y122834D02*
X62899D01*
X62604Y122539D02*
Y123129D01*
X62309Y125196D02*
X62899D01*
X62604Y124901D02*
Y125492D01*
X61128Y121653D02*
X61718D01*
X61423Y121358D02*
Y121948D01*
X63490Y121653D02*
X64080D01*
X63785Y121358D02*
Y121948D01*
X64671Y122834D02*
X65261D01*
X64966Y122539D02*
Y123129D01*
X64671Y125196D02*
X65261D01*
X64966Y124901D02*
Y125492D01*
X63490Y126377D02*
X64080D01*
X63785Y126082D02*
Y126673D01*
X61128Y126377D02*
X61718D01*
X61423Y126082D02*
Y126673D01*
X37101Y38583D02*
X37691D01*
X37396Y38288D02*
Y38878D01*
X38282Y39764D02*
X38872D01*
X38577Y39469D02*
Y40060D01*
X40644Y39764D02*
X41235D01*
X40939Y39469D02*
Y40060D01*
X41825Y38583D02*
X42416D01*
X42121Y38288D02*
Y38878D01*
X41825Y36221D02*
X42416D01*
X42121Y35926D02*
Y36516D01*
X40644Y35040D02*
X41235D01*
X40939Y34745D02*
Y35335D01*
X38282Y35040D02*
X38872D01*
X38577Y34745D02*
Y35335D01*
X37101Y36221D02*
X37691D01*
X37396Y35926D02*
Y36516D01*
X39463Y38583D02*
X40054D01*
X39758Y38288D02*
Y38878D01*
X39463Y36221D02*
X40054D01*
X39758Y35926D02*
Y36516D01*
X40644Y37402D02*
X41235D01*
X40939Y37107D02*
Y37697D01*
X38282Y37402D02*
X38872D01*
X38577Y37107D02*
Y37697D01*
X73721Y71655D02*
X74311D01*
X74016Y71359D02*
Y71950D01*
X54626Y53347D02*
X55216D01*
X54921Y53051D02*
Y53642D01*
X54232Y59055D02*
X54823D01*
X54528Y58760D02*
Y59350D01*
X45965Y98425D02*
X46555D01*
X46260Y98130D02*
Y98721D01*
X35728Y98622D02*
X36319D01*
X36024Y98327D02*
Y98917D01*
X61122Y86614D02*
X61712D01*
X61417Y86319D02*
Y86909D01*
X48524Y59055D02*
X49114D01*
X48819Y58760D02*
Y59350D01*
X42028Y55118D02*
X42618D01*
X42323Y54823D02*
Y55413D01*
X33169Y60039D02*
X33760D01*
X33465Y59744D02*
Y60335D01*
X65453Y71457D02*
X66043D01*
X65748Y71161D02*
Y71752D01*
X57973Y67716D02*
X58563D01*
X58268Y67421D02*
Y68011D01*
X57973Y74016D02*
X58563D01*
X58268Y73721D02*
Y74311D01*
X48524Y80315D02*
X49114D01*
X48819Y80020D02*
Y80610D01*
X51673Y80315D02*
X52263D01*
X51968Y80020D02*
Y80610D01*
X20177Y84842D02*
X20768D01*
X20472Y84547D02*
Y85138D01*
X43012Y24606D02*
X43602D01*
X43307Y24311D02*
Y24902D01*
X24311Y93504D02*
X24902D01*
X24606Y93209D02*
Y93799D01*
X44587Y132555D02*
X45177D01*
X44882Y132260D02*
Y132850D01*
X48951Y117130D02*
X49542D01*
X49246Y116835D02*
Y117426D01*
X27067Y63189D02*
X27657D01*
X27362Y62894D02*
Y63484D01*
X20177Y71063D02*
X20768D01*
X20472Y70768D02*
Y71358D01*
X43799Y53150D02*
X44390D01*
X44094Y52854D02*
Y53445D01*
X57776Y21654D02*
X58366D01*
X58071Y21358D02*
Y21949D01*
X46161Y134055D02*
X46752D01*
X46457Y133760D02*
Y134350D01*
X52824Y123031D02*
X53415D01*
X53120Y122736D02*
Y123327D01*
X48947Y38386D02*
X49538D01*
X49242Y38090D02*
Y38681D01*
X53248Y85039D02*
X53839D01*
X53543Y84744D02*
Y85335D01*
X50098Y85039D02*
X50689D01*
X50394Y84744D02*
Y85335D01*
X75492Y50197D02*
X76083D01*
X75787Y49902D02*
Y50492D01*
X20177Y66142D02*
X20768D01*
X20472Y65847D02*
Y66437D01*
X20177Y73622D02*
X20768D01*
X20472Y73327D02*
Y73917D01*
X28248Y19685D02*
X28839D01*
X28543Y19390D02*
Y19980D01*
X44390Y112205D02*
X44980D01*
X44685Y111909D02*
Y112500D01*
X55413Y135433D02*
X56004D01*
X55709Y135138D02*
Y135728D01*
X65453Y137992D02*
X66043D01*
X65748Y137697D02*
Y138287D01*
X67815Y139961D02*
X68405D01*
X68110Y139665D02*
Y140256D01*
X77658Y96949D02*
X78248D01*
X77953Y96653D02*
Y97244D01*
X28248Y57874D02*
X28839D01*
X28543Y57579D02*
Y58169D01*
X27067Y57874D02*
X27657D01*
X27362Y57579D02*
Y58169D01*
X20177Y80709D02*
X20768D01*
X20472Y80413D02*
Y81004D01*
X67923Y57874D02*
X68513D01*
X68218Y57579D02*
Y58169D01*
X66742Y57874D02*
X67332D01*
X67037Y57579D02*
Y58169D01*
X62596Y62205D02*
X63186D01*
X62891Y61910D02*
Y62500D01*
X81043Y93996D02*
X81634D01*
X81339Y93701D02*
Y94291D01*
X78445Y39173D02*
X79035D01*
X78740Y38878D02*
Y39469D01*
X77658Y99311D02*
X78248D01*
X77953Y99016D02*
Y99606D01*
X93076Y100330D02*
X93666D01*
X93371Y100034D02*
Y100625D01*
X61712Y99803D02*
X62303D01*
X62008Y99508D02*
Y100099D01*
X61712Y102362D02*
X62303D01*
X62008Y102067D02*
Y102657D01*
X94193Y68898D02*
X94784D01*
X94488Y68602D02*
Y69193D01*
X86713Y59449D02*
X87303D01*
X87008Y59153D02*
Y59744D01*
X86713Y57087D02*
X87303D01*
X87008Y56791D02*
Y57382D01*
X86713Y58268D02*
X87303D01*
X87008Y57973D02*
Y58563D01*
X89468Y62402D02*
X90059D01*
X89764Y62106D02*
Y62697D01*
X89468Y60039D02*
X90059D01*
X89764Y59744D02*
Y60335D01*
X89468Y61221D02*
X90059D01*
X89764Y60925D02*
Y61516D01*
X71752Y57087D02*
X72342D01*
X72047Y56791D02*
Y57382D01*
X71752Y59449D02*
X72342D01*
X72047Y59153D02*
Y59744D01*
X71752Y58268D02*
X72342D01*
X72047Y57973D02*
Y58563D01*
X84120Y64567D02*
X84711D01*
X84416Y64272D02*
Y64862D01*
X73721Y70474D02*
X74311D01*
X74016Y70178D02*
Y70769D01*
X77067Y83268D02*
X77657D01*
X77362Y82973D02*
Y83563D01*
X77067Y85630D02*
X77657D01*
X77362Y85335D02*
Y85925D01*
X77067Y84449D02*
X77657D01*
X77362Y84153D02*
Y84744D01*
X75065Y88189D02*
X75656D01*
X75361Y87894D02*
Y88484D01*
X64373Y97638D02*
X64963D01*
X64668Y97342D02*
Y97933D01*
X77658Y98130D02*
X78248D01*
X77953Y97835D02*
Y98425D01*
X85925Y93701D02*
X86516D01*
X86221Y93405D02*
Y93996D01*
X87106Y93701D02*
X87697D01*
X87402Y93405D02*
Y93996D01*
X85925Y90158D02*
X86516D01*
X86221Y89862D02*
Y90453D01*
X85925Y91339D02*
X86516D01*
X86221Y91043D02*
Y91634D01*
X85925Y92520D02*
X86516D01*
X86221Y92224D02*
Y92815D01*
X85925Y86614D02*
X86516D01*
X86221Y86319D02*
Y86909D01*
X85925Y87795D02*
X86516D01*
X86221Y87500D02*
Y88090D01*
X85925Y88976D02*
X86516D01*
X86221Y88681D02*
Y89272D01*
X87106Y90158D02*
X87697D01*
X87402Y89862D02*
Y90453D01*
X87106Y91339D02*
X87697D01*
X87402Y91043D02*
Y91634D01*
X87106Y92520D02*
X87697D01*
X87402Y92224D02*
Y92815D01*
X87106Y86614D02*
X87697D01*
X87402Y86319D02*
Y86909D01*
X87106Y87795D02*
X87697D01*
X87402Y87500D02*
Y88090D01*
X87106Y88976D02*
X87697D01*
X87402Y88681D02*
Y89272D01*
X82224Y93996D02*
X82815D01*
X82520Y93701D02*
Y94291D01*
X83405Y93996D02*
X83996D01*
X83701Y93701D02*
Y94291D01*
X88287Y93701D02*
X88878D01*
X88583Y93405D02*
Y93996D01*
X88287Y90158D02*
X88878D01*
X88583Y89862D02*
Y90453D01*
X88287Y91339D02*
X88878D01*
X88583Y91043D02*
Y91634D01*
X88287Y92520D02*
X88878D01*
X88583Y92224D02*
Y92815D01*
X89468Y91339D02*
X90059D01*
X89764Y91043D02*
Y91634D01*
X89468Y92520D02*
X90059D01*
X89764Y92224D02*
Y92815D01*
X89468Y93701D02*
X90059D01*
X89764Y93405D02*
Y93996D01*
X90650Y91339D02*
X91240D01*
X90945Y91043D02*
Y91634D01*
X90650Y92520D02*
X91240D01*
X90945Y92224D02*
Y92815D01*
X90650Y93701D02*
X91240D01*
X90945Y93405D02*
Y93996D01*
X90650Y90158D02*
X91240D01*
X90945Y89862D02*
Y90453D01*
X89468Y90158D02*
X90059D01*
X89764Y89862D02*
Y90453D01*
X90650Y88976D02*
X91240D01*
X90945Y88681D02*
Y89272D01*
X88287Y88976D02*
X88878D01*
X88583Y88681D02*
Y89272D01*
X89468Y88976D02*
X90059D01*
X89764Y88681D02*
Y89272D01*
X90650Y87795D02*
X91240D01*
X90945Y87500D02*
Y88090D01*
X88287Y87795D02*
X88878D01*
X88583Y87500D02*
Y88090D01*
X89468Y87795D02*
X90059D01*
X89764Y87500D02*
Y88090D01*
X90650Y86614D02*
X91240D01*
X90945Y86319D02*
Y86909D01*
X88287Y86614D02*
X88878D01*
X88583Y86319D02*
Y86909D01*
X89468Y86614D02*
X90059D01*
X89764Y86319D02*
Y86909D01*
X90650Y85433D02*
X91240D01*
X90945Y85138D02*
Y85728D01*
X88287Y85433D02*
X88878D01*
X88583Y85138D02*
Y85728D01*
X89468Y85433D02*
X90059D01*
X89764Y85138D02*
Y85728D01*
X87106Y85433D02*
X87697D01*
X87402Y85138D02*
Y85728D01*
X85925Y85433D02*
X86516D01*
X86221Y85138D02*
Y85728D01*
X90650Y84252D02*
X91240D01*
X90945Y83957D02*
Y84547D01*
X88287Y84252D02*
X88878D01*
X88583Y83957D02*
Y84547D01*
X89468Y84252D02*
X90059D01*
X89764Y83957D02*
Y84547D01*
X87106Y84252D02*
X87697D01*
X87402Y83957D02*
Y84547D01*
X85925Y84252D02*
X86516D01*
X86221Y83957D02*
Y84547D01*
X85925Y83071D02*
X86516D01*
X86221Y82776D02*
Y83366D01*
X87106Y83071D02*
X87697D01*
X87402Y82776D02*
Y83366D01*
X89468Y83071D02*
X90059D01*
X89764Y82776D02*
Y83366D01*
X88287Y83071D02*
X88878D01*
X88583Y82776D02*
Y83366D01*
X90650Y83071D02*
X91240D01*
X90945Y82776D02*
Y83366D01*
X87106Y108071D02*
X87697D01*
X87402Y107776D02*
Y108366D01*
X85925Y110433D02*
X86516D01*
X86221Y110138D02*
Y110728D01*
X87106Y110433D02*
X87697D01*
X87402Y110138D02*
Y110728D01*
X87106Y109252D02*
X87697D01*
X87402Y108957D02*
Y109547D01*
X90650Y106890D02*
X91240D01*
X90945Y106595D02*
Y107185D01*
X89468Y109252D02*
X90059D01*
X89764Y108957D02*
Y109547D01*
X88287Y106890D02*
X88878D01*
X88583Y106595D02*
Y107185D01*
X89468Y106890D02*
X90059D01*
X89764Y106595D02*
Y107185D01*
X88287Y109252D02*
X88878D01*
X88583Y108957D02*
Y109547D01*
X89468Y108071D02*
X90059D01*
X89764Y107776D02*
Y108366D01*
X89468Y110433D02*
X90059D01*
X89764Y110138D02*
Y110728D01*
X85925Y108071D02*
X86516D01*
X86221Y107776D02*
Y108366D01*
X87106Y106890D02*
X87697D01*
X87402Y106595D02*
Y107185D01*
X90650Y109252D02*
X91240D01*
X90945Y108957D02*
Y109547D01*
X88287Y108071D02*
X88878D01*
X88583Y107776D02*
Y108366D01*
X85925Y109252D02*
X86516D01*
X86221Y108957D02*
Y109547D01*
X88287Y110433D02*
X88878D01*
X88583Y110138D02*
Y110728D01*
X85925Y106890D02*
X86516D01*
X86221Y106595D02*
Y107185D01*
X90650Y108071D02*
X91240D01*
X90945Y107776D02*
Y108366D01*
X90650Y110433D02*
X91240D01*
X90945Y110138D02*
Y110728D01*
X41161Y20552D02*
X41751D01*
X41456Y20257D02*
Y20847D01*
X38740Y10827D02*
X39330D01*
X39035Y10531D02*
Y11122D01*
X23662Y10827D02*
X24252D01*
X23957Y10531D02*
Y11122D01*
X33178Y15551D02*
X33768D01*
X33473Y15256D02*
Y15846D01*
X31209Y6103D02*
X31799D01*
X31504Y5807D02*
Y6398D01*
X35146Y6103D02*
X35736D01*
X35441Y5807D02*
Y6398D01*
X37115Y6103D02*
X37705D01*
X37410Y5807D02*
Y6398D01*
X25304Y6103D02*
X25894D01*
X25599Y5807D02*
Y6398D01*
X27272Y6103D02*
X27862D01*
X27567Y5807D02*
Y6398D01*
X64674Y6103D02*
X65264D01*
X64969Y5807D02*
Y6398D01*
X70579Y6103D02*
X71169D01*
X70874Y5807D02*
Y6398D01*
X66642Y6103D02*
X67232D01*
X66937Y5807D02*
Y6398D01*
X74516Y6103D02*
X75106D01*
X74811Y5807D02*
Y6398D01*
X72548Y15551D02*
X73138D01*
X72843Y15256D02*
Y15846D01*
X78110Y10827D02*
X78700D01*
X78405Y10531D02*
Y11122D01*
X76485Y6103D02*
X77075D01*
X76780Y5807D02*
Y6398D01*
X37500Y75590D02*
X38091D01*
X37795Y75295D02*
Y75886D01*
X45374Y77165D02*
X45964D01*
X45669Y76870D02*
Y77460D01*
X42225Y77165D02*
X42815D01*
X42520Y76870D02*
Y77460D01*
X39075Y80315D02*
X39665D01*
X39370Y80020D02*
Y80610D01*
X51673Y67716D02*
X52264D01*
X51968Y67421D02*
Y68012D01*
X51673Y64567D02*
X52264D01*
X51968Y64272D02*
Y64862D01*
X60728Y23622D02*
X61319D01*
X61024Y23327D02*
Y23917D01*
X56988Y28740D02*
X57579D01*
X57284Y28445D02*
Y29035D01*
X57973Y64567D02*
X58563D01*
X58268Y64272D02*
Y64862D01*
X54823Y80315D02*
X55413D01*
X55118Y80020D02*
Y80610D01*
X59547Y16929D02*
X60138D01*
X59842Y16634D02*
Y17224D01*
X54823Y67716D02*
X55413D01*
X55118Y67421D02*
Y68012D01*
X54823Y70866D02*
X55413D01*
X55118Y70571D02*
Y71161D01*
X55413Y46850D02*
X56004D01*
X55709Y46555D02*
Y47146D01*
X52825Y44291D02*
X53415D01*
X53120Y43996D02*
Y44586D01*
X42224Y70866D02*
X42815D01*
X42520Y70571D02*
Y71161D01*
X57973Y80315D02*
X58563D01*
X58268Y80020D02*
Y80610D01*
X57973Y77165D02*
X58563D01*
X58268Y76870D02*
Y77460D01*
X62166Y11000D02*
X62756D01*
X62461Y10705D02*
Y11295D01*
X42224Y74016D02*
X42815D01*
X42520Y73721D02*
Y74311D01*
X45374Y70866D02*
X45965D01*
X45669Y70571D02*
Y71161D01*
X42421Y27559D02*
X43012D01*
X42717Y27264D02*
Y27854D01*
X45374Y67716D02*
X45965D01*
X45669Y67421D02*
Y68012D01*
X48524Y67716D02*
X49114D01*
X48819Y67421D02*
Y68012D01*
X54823Y77165D02*
X55413D01*
X55118Y76870D02*
Y77461D01*
X54823Y74016D02*
X55413D01*
X55118Y73721D02*
Y74311D01*
X54823Y64567D02*
X55413D01*
X55118Y64272D02*
Y64862D01*
X30020Y64567D02*
X30610D01*
X30315Y64272D02*
Y64862D01*
X36319Y53150D02*
X36909D01*
X36614Y52854D02*
Y53445D01*
X39075Y53150D02*
X39665D01*
X39370Y52854D02*
Y53445D01*
X41043Y53150D02*
X41634D01*
X41339Y52854D02*
Y53445D01*
X28445Y64567D02*
X29035D01*
X28740Y64272D02*
Y64862D01*
X35925Y67716D02*
X36516D01*
X36220Y67421D02*
Y68012D01*
X39075Y67716D02*
X39665D01*
X39370Y67421D02*
Y68012D01*
X42224Y67716D02*
X42815D01*
X42520Y67421D02*
Y68012D01*
X32776Y74016D02*
X33366D01*
X33071Y73721D02*
Y74311D01*
X20177Y90551D02*
X20768D01*
X20472Y90256D02*
Y90847D01*
X39075Y70866D02*
X39665D01*
X39370Y70571D02*
Y71161D01*
X39075Y77165D02*
X39665D01*
X39370Y76870D02*
Y77461D01*
X35925Y77165D02*
X36516D01*
X36220Y76870D02*
Y77461D01*
X35925Y80315D02*
X36516D01*
X36220Y80020D02*
Y80610D01*
X39075Y74016D02*
X39665D01*
X39370Y73721D02*
Y74311D01*
X20177Y92716D02*
X20768D01*
X20472Y92421D02*
Y93012D01*
X29232Y83071D02*
X29823D01*
X29528Y82776D02*
Y83366D01*
X29232Y88583D02*
X29823D01*
X29528Y88287D02*
Y88878D01*
X29232Y94095D02*
X29823D01*
X29528Y93799D02*
Y94390D01*
X29232Y99606D02*
X29823D01*
X29528Y99311D02*
Y99902D01*
X23327Y140551D02*
X23917D01*
X23622Y140256D02*
Y140847D01*
X23327Y106299D02*
X23917D01*
X23622Y106004D02*
Y106595D01*
X23327Y117126D02*
X23917D01*
X23622Y116831D02*
Y117421D01*
X23327Y129921D02*
X23917D01*
X23622Y129626D02*
Y130217D01*
X36319Y139173D02*
X36909D01*
X36614Y138878D02*
Y139469D01*
X46358Y114567D02*
X46949D01*
X46654Y114272D02*
Y114862D01*
X48947Y121063D02*
X49538D01*
X49242Y120768D02*
Y121359D01*
X43799Y137795D02*
X44390D01*
X44094Y137500D02*
Y138091D01*
X39075Y89764D02*
X39665D01*
X39370Y89468D02*
Y90059D01*
X39075Y92913D02*
X39665D01*
X39370Y92618D02*
Y93209D01*
X42224Y92913D02*
X42815D01*
X42520Y92618D02*
Y93209D01*
X42224Y89764D02*
X42815D01*
X42520Y89468D02*
Y90059D01*
X48524Y86614D02*
X49114D01*
X48819Y86319D02*
Y86909D01*
X48524Y89764D02*
X49114D01*
X48819Y89468D02*
Y90059D01*
X52825Y128937D02*
X53415D01*
X53120Y128641D02*
Y129232D01*
X55413Y131496D02*
X56004D01*
X55709Y131201D02*
Y131791D01*
X59350Y133858D02*
X59941D01*
X59646Y133563D02*
Y134153D01*
X63287Y133858D02*
X63878D01*
X63583Y133563D02*
Y134153D01*
X57382Y133858D02*
X57972D01*
X57677Y133563D02*
Y134153D01*
X60728Y108268D02*
X61319D01*
X61024Y107972D02*
Y108563D01*
X57973Y89764D02*
X58563D01*
X58268Y89469D02*
Y90059D01*
X57973Y92913D02*
X58563D01*
X58268Y92618D02*
Y93208D01*
X94193Y141339D02*
X94784D01*
X94488Y141043D02*
Y141634D01*
X93012Y141339D02*
X93602D01*
X93307Y141043D02*
Y141634D01*
X95374Y142520D02*
X95965D01*
X95669Y142224D02*
Y142815D01*
X95374Y141339D02*
X95965D01*
X95669Y141043D02*
Y141634D01*
X96555Y142520D02*
X97146D01*
X96850Y142224D02*
Y142815D01*
X96555Y141339D02*
X97146D01*
X96850Y141043D02*
Y141634D01*
X97736Y142520D02*
X98327D01*
X98032Y142224D02*
Y142815D01*
X97736Y141339D02*
X98327D01*
X98032Y141043D02*
Y141634D01*
X4036Y141340D02*
X4627D01*
X4332Y141044D02*
Y141635D01*
X4036Y142521D02*
X4627D01*
X4332Y142225D02*
Y142816D01*
X5218Y141340D02*
X5808D01*
X5513Y141044D02*
Y141635D01*
X5218Y142521D02*
X5808D01*
X5513Y142225D02*
Y142816D01*
X6399Y141340D02*
X6989D01*
X6694Y141044D02*
Y141635D01*
X7580Y141340D02*
X8170D01*
X7875Y141044D02*
Y141635D01*
X84547Y21457D02*
X85138D01*
X84842Y21161D02*
Y21752D01*
X85728Y21457D02*
X86319D01*
X86024Y21161D02*
Y21752D01*
X86910Y21457D02*
X87500D01*
X87205Y21161D02*
Y21752D01*
X88090Y21457D02*
X88681D01*
X88386Y21161D02*
Y21752D01*
X85728Y19094D02*
X86319D01*
X86024Y18799D02*
Y19390D01*
X84547Y19094D02*
X85138D01*
X84842Y18799D02*
Y19390D01*
X88090Y20276D02*
X88681D01*
X88386Y19980D02*
Y20571D01*
X89272Y20276D02*
X89862D01*
X89567Y19980D02*
Y20571D01*
X90453Y20276D02*
X91043D01*
X90748Y19980D02*
Y20571D01*
X86910Y20276D02*
X87500D01*
X87205Y19980D02*
Y20571D01*
X85728Y20276D02*
X86319D01*
X86024Y19980D02*
Y20571D01*
X84547Y20276D02*
X85138D01*
X84842Y19980D02*
Y20571D01*
X89272Y21457D02*
X89862D01*
X89567Y21161D02*
Y21752D01*
X90453Y21457D02*
X91043D01*
X90748Y21161D02*
Y21752D01*
X93012Y30510D02*
X93602D01*
X93307Y30215D02*
Y30805D01*
X93012Y31691D02*
X93602D01*
X93307Y31396D02*
Y31986D01*
X94193Y30510D02*
X94784D01*
X94488Y30215D02*
Y30805D01*
X94193Y31691D02*
X94784D01*
X94488Y31396D02*
Y31986D01*
X95374Y30510D02*
X95965D01*
X95669Y30215D02*
Y30805D01*
X95374Y31691D02*
X95965D01*
X95669Y31396D02*
Y31986D01*
X96555Y30510D02*
X97146D01*
X96850Y30215D02*
Y30805D01*
X96555Y31691D02*
X97146D01*
X96850Y31396D02*
Y31986D01*
X97736Y30510D02*
X98327D01*
X98032Y30215D02*
Y30805D01*
X97736Y31691D02*
X98327D01*
X98032Y31396D02*
Y31986D01*
X97736Y43502D02*
X98327D01*
X98032Y43207D02*
Y43797D01*
X97736Y42321D02*
X98327D01*
X98032Y42026D02*
Y42616D01*
X96555Y43502D02*
X97146D01*
X96850Y43207D02*
Y43797D01*
X96555Y42321D02*
X97146D01*
X96850Y42026D02*
Y42616D01*
X95374Y43502D02*
X95965D01*
X95669Y43207D02*
Y43797D01*
X95374Y42321D02*
X95965D01*
X95669Y42026D02*
Y42616D01*
X94193Y43502D02*
X94784D01*
X94488Y43207D02*
Y43797D01*
X94193Y42321D02*
X94784D01*
X94488Y42026D02*
Y42616D01*
X93012Y43502D02*
X93602D01*
X93307Y43207D02*
Y43797D01*
X93012Y42321D02*
X93602D01*
X93307Y42026D02*
Y42616D01*
X8761Y130906D02*
X9351D01*
X9056Y130611D02*
Y131202D01*
X8761Y129725D02*
X9351D01*
X9056Y129430D02*
Y130021D01*
X7580Y130906D02*
X8170D01*
X7875Y130611D02*
Y131202D01*
X7580Y129725D02*
X8170D01*
X7875Y129430D02*
Y130021D01*
X6399Y130906D02*
X6989D01*
X6694Y130611D02*
Y131202D01*
X6399Y129725D02*
X6989D01*
X6694Y129430D02*
Y130021D01*
X5218Y130906D02*
X5808D01*
X5513Y130611D02*
Y131202D01*
X5218Y129725D02*
X5808D01*
X5513Y129430D02*
Y130021D01*
X4036Y130906D02*
X4627D01*
X4332Y130611D02*
Y131202D01*
X4036Y129725D02*
X4627D01*
X4332Y129430D02*
Y130021D01*
X4036Y117914D02*
X4627D01*
X4332Y117619D02*
Y118210D01*
X4036Y119095D02*
X4627D01*
X4332Y118800D02*
Y119391D01*
X5218Y117914D02*
X5808D01*
X5513Y117619D02*
Y118210D01*
X5218Y119095D02*
X5808D01*
X5513Y118800D02*
Y119391D01*
X6399Y117914D02*
X6989D01*
X6694Y117619D02*
Y118210D01*
X6399Y119095D02*
X6989D01*
X6694Y118800D02*
Y119391D01*
X7580Y117914D02*
X8170D01*
X7875Y117619D02*
Y118210D01*
X7580Y119095D02*
X8170D01*
X7875Y118800D02*
Y119391D01*
X8761Y117914D02*
X9351D01*
X9056Y117619D02*
Y118210D01*
X8761Y119095D02*
X9351D01*
X9056Y118800D02*
Y119391D01*
X93012Y117913D02*
X93602D01*
X93307Y117618D02*
Y118209D01*
X93012Y119095D02*
X93602D01*
X93307Y118799D02*
Y119390D01*
X94193Y117913D02*
X94784D01*
X94488Y117618D02*
Y118209D01*
X94193Y119095D02*
X94784D01*
X94488Y118799D02*
Y119390D01*
X95374Y117913D02*
X95965D01*
X95669Y117618D02*
Y118209D01*
X95374Y119095D02*
X95965D01*
X95669Y118799D02*
Y119390D01*
X96555Y117913D02*
X97146D01*
X96850Y117618D02*
Y118209D01*
X96555Y119095D02*
X97146D01*
X96850Y118799D02*
Y119390D01*
X97736Y117913D02*
X98327D01*
X98032Y117618D02*
Y118209D01*
X97736Y119095D02*
X98327D01*
X98032Y118799D02*
Y119390D01*
X97736Y130905D02*
X98327D01*
X98032Y130610D02*
Y131201D01*
X97736Y129724D02*
X98327D01*
X98032Y129429D02*
Y130020D01*
X96555Y130905D02*
X97146D01*
X96850Y130610D02*
Y131201D01*
X96555Y129724D02*
X97146D01*
X96850Y129429D02*
Y130020D01*
X95374Y130905D02*
X95965D01*
X95669Y130610D02*
Y131201D01*
X95374Y129724D02*
X95965D01*
X95669Y129429D02*
Y130020D01*
X94193Y130905D02*
X94784D01*
X94488Y130610D02*
Y131201D01*
X94193Y129724D02*
X94784D01*
X94488Y129429D02*
Y130020D01*
X93012Y130905D02*
X93602D01*
X93307Y130610D02*
Y131201D01*
X93012Y129724D02*
X93602D01*
X93307Y129429D02*
Y130020D01*
X8760Y31693D02*
X9350D01*
X9055Y31398D02*
Y31988D01*
X8760Y30512D02*
X9350D01*
X9055Y30217D02*
Y30807D01*
X7579Y31693D02*
X8169D01*
X7874Y31398D02*
Y31988D01*
X7579Y30512D02*
X8169D01*
X7874Y30217D02*
Y30807D01*
X6398Y31693D02*
X6988D01*
X6693Y31398D02*
Y31988D01*
X6398Y30512D02*
X6988D01*
X6693Y30217D02*
Y30807D01*
X5217Y31693D02*
X5807D01*
X5512Y31398D02*
Y31988D01*
X5217Y30512D02*
X5807D01*
X5512Y30217D02*
Y30807D01*
X4035Y31693D02*
X4626D01*
X4331Y31398D02*
Y31988D01*
X4035Y30512D02*
X4626D01*
X4331Y30217D02*
Y30807D01*
X4035Y42323D02*
X4626D01*
X4331Y42028D02*
Y42618D01*
X4035Y43504D02*
X4626D01*
X4331Y43209D02*
Y43799D01*
X5217Y42323D02*
X5807D01*
X5512Y42028D02*
Y42618D01*
X5217Y43504D02*
X5807D01*
X5512Y43209D02*
Y43799D01*
X6398Y42323D02*
X6988D01*
X6693Y42028D02*
Y42618D01*
X6398Y43504D02*
X6988D01*
X6693Y43209D02*
Y43799D01*
X7579Y42323D02*
X8169D01*
X7874Y42028D02*
Y42618D01*
X7579Y43504D02*
X8169D01*
X7874Y43209D02*
Y43799D01*
X8760Y42323D02*
X9350D01*
X9055Y42028D02*
Y42618D01*
X8760Y43504D02*
X9350D01*
X9055Y43209D02*
Y43799D01*
X17224Y19094D02*
X17815D01*
X17520Y18799D02*
Y19390D01*
X16043Y19094D02*
X16634D01*
X16339Y18799D02*
Y19390D01*
X14862Y20276D02*
X15453D01*
X15157Y19980D02*
Y20571D01*
X16043Y20276D02*
X16634D01*
X16339Y19980D02*
Y20571D01*
X17224Y20276D02*
X17815D01*
X17520Y19980D02*
Y20571D01*
X13681Y20276D02*
X14272D01*
X13976Y19980D02*
Y20571D01*
X12500Y20276D02*
X13091D01*
X12795Y19980D02*
Y20571D01*
X11319Y20276D02*
X11909D01*
X11614Y19980D02*
Y20571D01*
X17224Y21457D02*
X17815D01*
X17520Y21161D02*
Y21752D01*
X16043Y21457D02*
X16634D01*
X16339Y21161D02*
Y21752D01*
X14862Y21457D02*
X15453D01*
X15157Y21161D02*
Y21752D01*
X13681Y21457D02*
X14272D01*
X13976Y21161D02*
Y21752D01*
X12500Y21457D02*
X13091D01*
X12795Y21161D02*
Y21752D01*
X11319Y21457D02*
X11909D01*
X11614Y21161D02*
Y21752D01*
X15846Y54528D02*
X16437D01*
X16142Y54232D02*
Y54823D01*
X15846Y53347D02*
X16437D01*
X16142Y53051D02*
Y53642D01*
X15846Y52165D02*
X16437D01*
X16142Y51870D02*
Y52461D01*
X15846Y50984D02*
X16437D01*
X16142Y50689D02*
Y51279D01*
X11122Y54527D02*
X11713D01*
X11417Y54232D02*
Y54823D01*
X12303Y54527D02*
X12894D01*
X12598Y54232D02*
Y54823D01*
X13484Y54527D02*
X14075D01*
X13780Y54232D02*
Y54823D01*
X14665Y54527D02*
X15256D01*
X14961Y54232D02*
Y54823D01*
X11122Y53347D02*
X11713D01*
X11417Y53051D02*
Y53642D01*
X12303Y53347D02*
X12894D01*
X12598Y53051D02*
Y53642D01*
X13484Y53347D02*
X14075D01*
X13780Y53051D02*
Y53642D01*
X14665Y53347D02*
X15256D01*
X14961Y53051D02*
Y53642D01*
X14665Y52165D02*
X15256D01*
X14961Y51870D02*
Y52461D01*
X13484Y52165D02*
X14075D01*
X13780Y51870D02*
Y52461D01*
X12303Y52165D02*
X12894D01*
X12598Y51870D02*
Y52461D01*
X11122Y52165D02*
X11713D01*
X11417Y51870D02*
Y52461D01*
X11122Y50984D02*
X11713D01*
X11417Y50689D02*
Y51279D01*
X12303Y50984D02*
X12894D01*
X12598Y50689D02*
Y51279D01*
X13484Y50984D02*
X14075D01*
X13780Y50689D02*
Y51279D01*
X14665Y50984D02*
X15256D01*
X14961Y50689D02*
Y51279D01*
X90650Y131102D02*
X91240D01*
X90945Y130807D02*
Y131398D01*
X89468Y131102D02*
X90059D01*
X89764Y130807D02*
Y131398D01*
X88287Y131102D02*
X88878D01*
X88583Y130807D02*
Y131398D01*
X87106Y131102D02*
X87697D01*
X87402Y130807D02*
Y131398D01*
X85925Y131102D02*
X86516D01*
X86221Y130807D02*
Y131398D01*
X84744Y131102D02*
X85335D01*
X85039Y130807D02*
Y131398D01*
X90650Y129921D02*
X91240D01*
X90945Y129626D02*
Y130217D01*
X89468Y129921D02*
X90059D01*
X89764Y129626D02*
Y130217D01*
X88287Y129921D02*
X88878D01*
X88583Y129626D02*
Y130217D01*
X87106Y129921D02*
X87697D01*
X87402Y129626D02*
Y130217D01*
X85925Y129921D02*
X86516D01*
X86221Y129626D02*
Y130217D01*
X84744Y129921D02*
X85335D01*
X85039Y129626D02*
Y130217D01*
X84744Y128740D02*
X85335D01*
X85039Y128445D02*
Y129035D01*
X85925Y128740D02*
X86516D01*
X86221Y128445D02*
Y129035D01*
X87106Y128740D02*
X87697D01*
X87402Y128445D02*
Y129035D01*
X88287Y128740D02*
X88878D01*
X88583Y128445D02*
Y129035D01*
X89468Y128740D02*
X90059D01*
X89764Y128445D02*
Y129035D01*
X90650Y128740D02*
X91240D01*
X90945Y128445D02*
Y129035D01*
X84744Y127559D02*
X85335D01*
X85039Y127264D02*
Y127854D01*
X85925Y127559D02*
X86516D01*
X86221Y127264D02*
Y127854D01*
X87106Y127559D02*
X87697D01*
X87402Y127264D02*
Y127854D01*
X88287Y127559D02*
X88878D01*
X88583Y127264D02*
Y127854D01*
X89468Y127559D02*
X90059D01*
X89764Y127264D02*
Y127854D01*
X90650Y127559D02*
X91240D01*
X90945Y127264D02*
Y127854D01*
X90650Y126378D02*
X91240D01*
X90945Y126083D02*
Y126673D01*
X89468Y126378D02*
X90059D01*
X89764Y126083D02*
Y126673D01*
X88287Y126378D02*
X88878D01*
X88583Y126083D02*
Y126673D01*
X87106Y126378D02*
X87697D01*
X87402Y126083D02*
Y126673D01*
X85925Y126378D02*
X86516D01*
X86221Y126083D02*
Y126673D01*
X84744Y126378D02*
X85335D01*
X85039Y126083D02*
Y126673D01*
X17028Y35039D02*
X17618D01*
X17323Y34744D02*
Y35335D01*
X15846Y35039D02*
X16437D01*
X16142Y34744D02*
Y35335D01*
X14665Y35039D02*
X15256D01*
X14961Y34744D02*
Y35335D01*
X13484Y35039D02*
X14075D01*
X13780Y34744D02*
Y35335D01*
X12303Y35039D02*
X12894D01*
X12598Y34744D02*
Y35335D01*
X11122Y35039D02*
X11713D01*
X11417Y34744D02*
Y35335D01*
X11122Y33858D02*
X11713D01*
X11417Y33563D02*
Y34154D01*
X12303Y33858D02*
X12894D01*
X12598Y33563D02*
Y34154D01*
X13484Y33858D02*
X14075D01*
X13780Y33563D02*
Y34154D01*
X14665Y33858D02*
X15256D01*
X14961Y33563D02*
Y34154D01*
X15846Y33858D02*
X16437D01*
X16142Y33563D02*
Y34154D01*
X17028Y33858D02*
X17618D01*
X17323Y33563D02*
Y34154D01*
X11122Y32677D02*
X11713D01*
X11417Y32382D02*
Y32972D01*
X12303Y32677D02*
X12894D01*
X12598Y32382D02*
Y32972D01*
X13484Y32677D02*
X14075D01*
X13780Y32382D02*
Y32972D01*
X14665Y32677D02*
X15256D01*
X14961Y32382D02*
Y32972D01*
X15846Y32677D02*
X16437D01*
X16142Y32382D02*
Y32972D01*
X17028Y32677D02*
X17618D01*
X17323Y32382D02*
Y32972D01*
X17028Y31496D02*
X17618D01*
X17323Y31201D02*
Y31791D01*
X15846Y31496D02*
X16437D01*
X16142Y31201D02*
Y31791D01*
X14665Y31496D02*
X15256D01*
X14961Y31201D02*
Y31791D01*
X13484Y31496D02*
X14075D01*
X13780Y31201D02*
Y31791D01*
X12303Y31496D02*
X12894D01*
X12598Y31201D02*
Y31791D01*
X11122Y31496D02*
X11713D01*
X11417Y31201D02*
Y31791D01*
X17028Y30315D02*
X17618D01*
X17323Y30020D02*
Y30610D01*
X15846Y30315D02*
X16437D01*
X16142Y30020D02*
Y30610D01*
X14665Y30315D02*
X15256D01*
X14961Y30020D02*
Y30610D01*
X13484Y30315D02*
X14075D01*
X13780Y30020D02*
Y30610D01*
X12303Y30315D02*
X12894D01*
X12598Y30020D02*
Y30610D01*
X11122Y30315D02*
X11713D01*
X11417Y30020D02*
Y30610D01*
X90650Y50984D02*
X91240D01*
X90945Y50689D02*
Y51279D01*
X89468Y50984D02*
X90059D01*
X89764Y50689D02*
Y51279D01*
X88287Y50984D02*
X88878D01*
X88583Y50689D02*
Y51279D01*
X87106Y50984D02*
X87697D01*
X87402Y50689D02*
Y51279D01*
X85925Y50984D02*
X86516D01*
X86221Y50689D02*
Y51279D01*
X90650Y52165D02*
X91240D01*
X90945Y51870D02*
Y52461D01*
X89468Y52165D02*
X90059D01*
X89764Y51870D02*
Y52461D01*
X88287Y52165D02*
X88878D01*
X88583Y51870D02*
Y52461D01*
X87106Y52165D02*
X87697D01*
X87402Y51870D02*
Y52461D01*
X85925Y52165D02*
X86516D01*
X86221Y51870D02*
Y52461D01*
X90650Y53347D02*
X91240D01*
X90945Y53051D02*
Y53642D01*
X89468Y53347D02*
X90059D01*
X89764Y53051D02*
Y53642D01*
X88287Y53347D02*
X88878D01*
X88583Y53051D02*
Y53642D01*
X87106Y53347D02*
X87697D01*
X87402Y53051D02*
Y53642D01*
X85925Y53347D02*
X86516D01*
X86221Y53051D02*
Y53642D01*
X90650Y54528D02*
X91240D01*
X90945Y54232D02*
Y54823D01*
X89468Y54528D02*
X90059D01*
X89764Y54232D02*
Y54823D01*
X88287Y54528D02*
X88878D01*
X88583Y54232D02*
Y54823D01*
X87106Y54528D02*
X87697D01*
X87402Y54232D02*
Y54823D01*
X85925Y54528D02*
X86516D01*
X86221Y54232D02*
Y54823D01*
X90650Y55709D02*
X91240D01*
X90945Y55413D02*
Y56004D01*
X89468Y55709D02*
X90059D01*
X89764Y55413D02*
Y56004D01*
X88287Y55709D02*
X88878D01*
X88583Y55413D02*
Y56004D01*
X87106Y55709D02*
X87697D01*
X87402Y55413D02*
Y56004D01*
X85925Y55709D02*
X86516D01*
X86221Y55413D02*
Y56004D01*
X84744Y30315D02*
X85335D01*
X85039Y30020D02*
Y30610D01*
X85925Y30315D02*
X86516D01*
X86221Y30020D02*
Y30610D01*
X87106Y30315D02*
X87697D01*
X87402Y30020D02*
Y30610D01*
X88287Y30315D02*
X88878D01*
X88583Y30020D02*
Y30610D01*
X89468Y30315D02*
X90059D01*
X89764Y30020D02*
Y30610D01*
X90650Y30315D02*
X91240D01*
X90945Y30020D02*
Y30610D01*
X84744Y31496D02*
X85335D01*
X85039Y31201D02*
Y31791D01*
X85925Y31496D02*
X86516D01*
X86221Y31201D02*
Y31791D01*
X87106Y31496D02*
X87697D01*
X87402Y31201D02*
Y31791D01*
X88287Y31496D02*
X88878D01*
X88583Y31201D02*
Y31791D01*
X89468Y31496D02*
X90059D01*
X89764Y31201D02*
Y31791D01*
X90650Y31496D02*
X91240D01*
X90945Y31201D02*
Y31791D01*
X90650Y32677D02*
X91240D01*
X90945Y32382D02*
Y32972D01*
X89468Y32677D02*
X90059D01*
X89764Y32382D02*
Y32972D01*
X88287Y32677D02*
X88878D01*
X88583Y32382D02*
Y32972D01*
X87106Y32677D02*
X87697D01*
X87402Y32382D02*
Y32972D01*
X85925Y32677D02*
X86516D01*
X86221Y32382D02*
Y32972D01*
X84744Y32677D02*
X85335D01*
X85039Y32382D02*
Y32972D01*
X90650Y33858D02*
X91240D01*
X90945Y33563D02*
Y34154D01*
X89468Y33858D02*
X90059D01*
X89764Y33563D02*
Y34154D01*
X88287Y33858D02*
X88878D01*
X88583Y33563D02*
Y34154D01*
X87106Y33858D02*
X87697D01*
X87402Y33563D02*
Y34154D01*
X85925Y33858D02*
X86516D01*
X86221Y33563D02*
Y34154D01*
X84744Y33858D02*
X85335D01*
X85039Y33563D02*
Y34154D01*
X90650Y35039D02*
X91240D01*
X90945Y34744D02*
Y35335D01*
X89468Y35039D02*
X90059D01*
X89764Y34744D02*
Y35335D01*
X88287Y35039D02*
X88878D01*
X88583Y34744D02*
Y35335D01*
X87106Y35039D02*
X87697D01*
X87402Y34744D02*
Y35335D01*
X85925Y35039D02*
X86516D01*
X86221Y34744D02*
Y35335D01*
X84744Y35039D02*
X85335D01*
X85039Y34744D02*
Y35335D01*
X17028Y126378D02*
X17618D01*
X17323Y126083D02*
Y126673D01*
X15846Y126378D02*
X16437D01*
X16142Y126083D02*
Y126673D01*
X14665Y126378D02*
X15256D01*
X14961Y126083D02*
Y126673D01*
X13484Y126378D02*
X14075D01*
X13780Y126083D02*
Y126673D01*
X12303Y126378D02*
X12894D01*
X12598Y126083D02*
Y126673D01*
X11122Y126378D02*
X11713D01*
X11417Y126083D02*
Y126673D01*
X15846Y105709D02*
X16437D01*
X16142Y105413D02*
Y106004D01*
X14665Y105709D02*
X15256D01*
X14961Y105413D02*
Y106004D01*
X13484Y105709D02*
X14075D01*
X13780Y105413D02*
Y106004D01*
X12303Y105709D02*
X12894D01*
X12598Y105413D02*
Y106004D01*
X11122Y105709D02*
X11713D01*
X11417Y105413D02*
Y106004D01*
X15846Y106890D02*
X16437D01*
X16142Y106595D02*
Y107185D01*
X14665Y106890D02*
X15256D01*
X14961Y106595D02*
Y107185D01*
X13484Y106890D02*
X14075D01*
X13780Y106595D02*
Y107185D01*
X12303Y106890D02*
X12894D01*
X12598Y106595D02*
Y107185D01*
X11122Y106890D02*
X11713D01*
X11417Y106595D02*
Y107185D01*
X15846Y108071D02*
X16437D01*
X16142Y107776D02*
Y108366D01*
X14665Y108071D02*
X15256D01*
X14961Y107776D02*
Y108366D01*
X13484Y108071D02*
X14075D01*
X13780Y107776D02*
Y108366D01*
X12303Y108071D02*
X12894D01*
X12598Y107776D02*
Y108366D01*
X11122Y108071D02*
X11713D01*
X11417Y107776D02*
Y108366D01*
X15846Y109252D02*
X16437D01*
X16142Y108957D02*
Y109547D01*
X14665Y109252D02*
X15256D01*
X14961Y108957D02*
Y109547D01*
X13484Y109252D02*
X14075D01*
X13780Y108957D02*
Y109547D01*
X12303Y109252D02*
X12894D01*
X12598Y108957D02*
Y109547D01*
X11122Y109252D02*
X11713D01*
X11417Y108957D02*
Y109547D01*
X15846Y110433D02*
X16437D01*
X16142Y110138D02*
Y110728D01*
X14665Y110433D02*
X15256D01*
X14961Y110138D02*
Y110728D01*
X13484Y110433D02*
X14075D01*
X13780Y110138D02*
Y110728D01*
X12303Y110433D02*
X12894D01*
X12598Y110138D02*
Y110728D01*
X11122Y110433D02*
X11713D01*
X11417Y110138D02*
Y110728D01*
X17028Y127559D02*
X17618D01*
X17323Y127264D02*
Y127854D01*
X15846Y127559D02*
X16437D01*
X16142Y127264D02*
Y127854D01*
X14665Y127559D02*
X15256D01*
X14961Y127264D02*
Y127854D01*
X13484Y127559D02*
X14075D01*
X13780Y127264D02*
Y127854D01*
X12303Y127559D02*
X12894D01*
X12598Y127264D02*
Y127854D01*
X11122Y127559D02*
X11713D01*
X11417Y127264D02*
Y127854D01*
X15846Y128740D02*
X16437D01*
X16142Y128445D02*
Y129035D01*
X14665Y128740D02*
X15256D01*
X14961Y128445D02*
Y129035D01*
X13484Y128740D02*
X14075D01*
X13780Y128445D02*
Y129035D01*
X12303Y128740D02*
X12894D01*
X12598Y128445D02*
Y129035D01*
X11122Y128740D02*
X11713D01*
X11417Y128445D02*
Y129035D01*
X11122Y129921D02*
X11713D01*
X11417Y129626D02*
Y130217D01*
X12303Y129921D02*
X12894D01*
X12598Y129626D02*
Y130217D01*
X13484Y129921D02*
X14075D01*
X13780Y129626D02*
Y130217D01*
X14665Y129921D02*
X15256D01*
X14961Y129626D02*
Y130217D01*
X15846Y129921D02*
X16437D01*
X16142Y129626D02*
Y130217D01*
X11122Y131102D02*
X11713D01*
X11417Y130807D02*
Y131398D01*
X12303Y131102D02*
X12894D01*
X12598Y130807D02*
Y131398D01*
X13484Y131102D02*
X14075D01*
X13780Y130807D02*
Y131398D01*
X14665Y131102D02*
X15256D01*
X14961Y130807D02*
Y131398D01*
X15846Y131102D02*
X16437D01*
X16142Y130807D02*
Y131398D01*
X26313Y123031D02*
X26903D01*
X26608Y122736D02*
Y123327D01*
X29764Y108268D02*
X30354D01*
X30059Y107973D02*
Y108563D01*
X23524Y108268D02*
X24114D01*
X23819Y107973D02*
Y108563D01*
X23524Y131890D02*
X24114D01*
X23819Y131595D02*
Y132185D01*
X23524Y120079D02*
X24114D01*
X23819Y119783D02*
Y120374D01*
X25689Y114173D02*
X26280D01*
X25984Y113878D02*
Y114469D01*
X42421Y112205D02*
X43012D01*
X42717Y111909D02*
Y112500D01*
X38484Y112205D02*
X39075D01*
X38780Y111909D02*
Y112500D01*
X23327Y126575D02*
X23917D01*
X23622Y126279D02*
Y126870D01*
X26313Y128937D02*
X26903D01*
X26608Y128642D02*
Y129232D01*
X23327Y124409D02*
X23917D01*
X23622Y124114D02*
Y124705D01*
X34547Y129921D02*
X35138D01*
X34843Y129626D02*
Y130217D01*
X30610Y123622D02*
X31201D01*
X30906Y123327D02*
Y123917D01*
X30610Y122047D02*
X31201D01*
X30906Y121752D02*
Y122343D01*
X31398Y139173D02*
X31988D01*
X31693Y138878D02*
Y139469D01*
X31398Y134055D02*
X31988D01*
X31693Y133760D02*
Y134350D01*
X31398Y136024D02*
X31988D01*
X31693Y135728D02*
Y136319D01*
X23327Y122244D02*
X23917D01*
X23622Y121949D02*
Y122539D01*
X78248Y41339D02*
X78839D01*
X78543Y41043D02*
Y41634D01*
X78445Y31496D02*
X79035D01*
X78740Y31201D02*
Y31791D01*
X78445Y55118D02*
X79035D01*
X78740Y54823D02*
Y55413D01*
X67813Y22244D02*
X68403D01*
X68108Y21949D02*
Y22539D01*
X70374Y22244D02*
X70965D01*
X70669Y21949D02*
Y22539D01*
X78445Y20866D02*
X79035D01*
X78740Y20571D02*
Y21161D01*
X67224Y31496D02*
X67815D01*
X67520Y31201D02*
Y31791D01*
X78445Y37008D02*
X79035D01*
X78740Y36713D02*
Y37303D01*
X75459Y32480D02*
X76049D01*
X75754Y32185D02*
Y32776D01*
X78445Y34843D02*
X79035D01*
X78740Y34547D02*
Y35138D01*
X78445Y44291D02*
X79035D01*
X78740Y43996D02*
Y44587D01*
X76083Y23622D02*
X76673D01*
X76378Y23327D02*
Y23917D01*
X76083Y47244D02*
X76673D01*
X76378Y46949D02*
Y47539D01*
X78248Y53150D02*
X78839D01*
X78543Y52854D02*
Y53445D01*
X78248Y29528D02*
X78839D01*
X78543Y29232D02*
Y29823D01*
X72008Y53150D02*
X72598D01*
X72303Y52854D02*
Y53445D01*
X75459Y38386D02*
X76049D01*
X75754Y38091D02*
Y38681D01*
X57973Y23622D02*
X58563D01*
X58268Y23327D02*
Y23917D01*
X63287Y49213D02*
X63878D01*
X63583Y48917D02*
Y49508D01*
X59350Y49213D02*
X59941D01*
X59646Y48917D02*
Y49508D01*
X57382Y49213D02*
X57972D01*
X57677Y48917D02*
Y49508D01*
X75459Y123031D02*
X76049D01*
X75754Y122736D02*
Y123327D01*
X75459Y117126D02*
X76049D01*
X75754Y116831D02*
Y117421D01*
X76083Y131890D02*
X76673D01*
X76378Y131595D02*
Y132185D01*
X67224Y114173D02*
X67815D01*
X67520Y113878D02*
Y114469D01*
X71161Y124016D02*
X71752D01*
X71457Y123721D02*
Y124311D01*
X67815Y133858D02*
X68405D01*
X68110Y133563D02*
Y134153D01*
X71161Y122441D02*
X71752D01*
X71457Y122146D02*
Y122736D01*
X72008Y137795D02*
X72598D01*
X72303Y137500D02*
Y138091D01*
X52825Y126969D02*
X53415D01*
X53120Y126673D02*
Y127264D01*
X52825Y125000D02*
X53415D01*
X53120Y124705D02*
Y125295D01*
X78445Y121260D02*
X79035D01*
X78740Y120965D02*
Y121555D01*
X78445Y119291D02*
X79035D01*
X78740Y118996D02*
Y119587D01*
X78445Y117323D02*
X79035D01*
X78740Y117028D02*
Y117618D01*
X78445Y128937D02*
X79035D01*
X78740Y128642D02*
Y129232D01*
X78445Y130905D02*
X79035D01*
X78740Y130610D02*
Y131201D01*
X78445Y140354D02*
X79035D01*
X78740Y140059D02*
Y140650D01*
X62697Y108268D02*
X63287D01*
X62992Y107972D02*
Y108563D01*
X78248Y137795D02*
X78839D01*
X78543Y137500D02*
Y138091D01*
X78248Y125984D02*
X78839D01*
X78543Y125689D02*
Y126279D01*
X78248Y114173D02*
X78839D01*
X78543Y113878D02*
Y114469D01*
X65453Y108268D02*
X66043D01*
X65748Y107972D02*
Y108563D01*
X67815Y108268D02*
X68405D01*
X68110Y107972D02*
Y108563D01*
X69784Y110039D02*
X70374D01*
X70079Y109744D02*
Y110335D01*
X31988Y51378D02*
X32579D01*
X32283Y51083D02*
Y51673D01*
X23524Y47244D02*
X24114D01*
X23819Y46949D02*
Y47539D01*
X23524Y35433D02*
X24114D01*
X23819Y35138D02*
Y35728D01*
X23524Y23622D02*
X24114D01*
X23819Y23327D02*
Y23917D01*
X23327Y21063D02*
X23917D01*
X23622Y20768D02*
Y21358D01*
X23327Y30512D02*
X23917D01*
X23622Y30217D02*
Y30807D01*
X23327Y32480D02*
X23917D01*
X23622Y32185D02*
Y32776D01*
X23327Y44094D02*
X23917D01*
X23622Y43799D02*
Y44390D01*
X23327Y42126D02*
X23917D01*
X23622Y41831D02*
Y42421D01*
X23327Y40157D02*
X23917D01*
X23622Y39862D02*
Y40453D01*
X43799Y48031D02*
X44390D01*
X44094Y47736D02*
Y48327D01*
X48947Y36418D02*
X49538D01*
X49242Y36122D02*
Y36713D01*
X48947Y34449D02*
X49538D01*
X49242Y34153D02*
Y34744D01*
X48947Y32481D02*
X49538D01*
X49242Y32185D02*
Y32776D01*
X46358Y29921D02*
X46949D01*
X46654Y29626D02*
Y30217D01*
X38484Y27559D02*
X39075D01*
X38780Y27264D02*
Y27854D01*
X44390Y27559D02*
X44980D01*
X44685Y27264D02*
Y27854D01*
X36319Y23425D02*
X36909D01*
X36614Y23130D02*
Y23720D01*
X29764Y23622D02*
X30354D01*
X30059Y23327D02*
Y23917D01*
X33957Y21457D02*
X34547D01*
X34252Y21161D02*
Y21752D01*
X30610Y38976D02*
X31201D01*
X30906Y38681D02*
Y39272D01*
X33957Y27559D02*
X34547D01*
X34252Y27264D02*
Y27854D01*
X30610Y37402D02*
X31201D01*
X30906Y37106D02*
Y37697D01*
X34547Y47244D02*
X35138D01*
X34843Y46949D02*
Y47539D01*
X25689Y29528D02*
X26280D01*
X25984Y29232D02*
Y29823D01*
X26313Y44291D02*
X26903D01*
X26608Y43996D02*
Y44587D01*
X26313Y38386D02*
X26903D01*
X26608Y38091D02*
Y38681D01*
M02*
