G04*
G04 #@! TF.GenerationSoftware,Altium Limited,Altium Designer,24.8.2 (39)*
G04*
G04 Layer_Physical_Order=1*
G04 Layer_Color=255*
%FSLAX25Y25*%
%MOIN*%
G70*
G04*
G04 #@! TF.SameCoordinates,F5A21F31-771D-4283-B627-84B0D88358AA*
G04*
G04*
G04 #@! TF.FilePolarity,Positive*
G04*
G01*
G75*
%ADD17R,0.03543X0.01772*%
%ADD18R,0.01575X0.02362*%
%ADD19R,0.02756X0.04134*%
%ADD20R,0.04134X0.02756*%
%ADD21R,0.02362X0.01575*%
%ADD22R,0.02362X0.01654*%
%ADD23R,0.03661X0.01417*%
%ADD24R,0.09843X0.01968*%
%ADD25R,0.09843X0.03937*%
%ADD26R,0.04555X0.01929*%
%ADD27R,0.04626X0.01929*%
G04:AMPARAMS|DCode=28|XSize=14.33mil|YSize=19.68mil|CornerRadius=3.58mil|HoleSize=0mil|Usage=FLASHONLY|Rotation=90.000|XOffset=0mil|YOffset=0mil|HoleType=Round|Shape=RoundedRectangle|*
%AMROUNDEDRECTD28*
21,1,0.01433,0.01252,0,0,90.0*
21,1,0.00717,0.01968,0,0,90.0*
1,1,0.00717,0.00626,0.00358*
1,1,0.00717,0.00626,-0.00358*
1,1,0.00717,-0.00626,-0.00358*
1,1,0.00717,-0.00626,0.00358*
%
%ADD28ROUNDEDRECTD28*%
%ADD29R,0.03150X0.00984*%
%ADD30R,0.00984X0.03150*%
%ADD31R,0.01575X0.02126*%
%ADD32R,0.03937X0.03543*%
%ADD33R,0.03937X0.05315*%
%ADD34R,0.02126X0.01575*%
%ADD35R,0.02756X0.03543*%
%ADD72C,0.00984*%
%ADD73C,0.00394*%
%ADD74C,0.03937*%
%ADD75C,0.01772*%
%ADD76C,0.00984*%
%ADD77R,0.02618X0.01102*%
%ADD78R,0.01102X0.02618*%
%ADD79R,0.10039X0.10039*%
%ADD80R,0.01276X0.01451*%
%ADD81R,0.01193X0.01276*%
%ADD82R,0.01451X0.01276*%
%ADD83R,0.01276X0.01193*%
%ADD84C,0.01260*%
%ADD85C,0.02756*%
%ADD86R,0.06693X0.06693*%
%ADD87C,0.06693*%
%ADD88C,0.15748*%
G04:AMPARAMS|DCode=89|XSize=86.61mil|YSize=78.74mil|CornerRadius=19.68mil|HoleSize=0mil|Usage=FLASHONLY|Rotation=0.000|XOffset=0mil|YOffset=0mil|HoleType=Round|Shape=RoundedRectangle|*
%AMROUNDEDRECTD89*
21,1,0.08661,0.03937,0,0,0.0*
21,1,0.04724,0.07874,0,0,0.0*
1,1,0.03937,0.02362,-0.01968*
1,1,0.03937,-0.02362,-0.01968*
1,1,0.03937,-0.02362,0.01968*
1,1,0.03937,0.02362,0.01968*
%
%ADD89ROUNDEDRECTD89*%
%ADD90R,0.08661X0.07874*%
G04:AMPARAMS|DCode=91|XSize=74.8mil|YSize=59.06mil|CornerRadius=14.76mil|HoleSize=0mil|Usage=FLASHONLY|Rotation=0.000|XOffset=0mil|YOffset=0mil|HoleType=Round|Shape=RoundedRectangle|*
%AMROUNDEDRECTD91*
21,1,0.07480,0.02953,0,0,0.0*
21,1,0.04528,0.05906,0,0,0.0*
1,1,0.02953,0.02264,-0.01476*
1,1,0.02953,-0.02264,-0.01476*
1,1,0.02953,-0.02264,0.01476*
1,1,0.02953,0.02264,0.01476*
%
%ADD91ROUNDEDRECTD91*%
G36*
X70227Y162205D02*
X70241Y162171D01*
X70392Y161023D01*
X70848Y159921D01*
X71574Y158976D01*
X72520Y158250D01*
X73621Y157794D01*
X74769Y157643D01*
X74803Y157629D01*
X90551D01*
X90624Y157659D01*
X92124Y157511D01*
X93635Y157053D01*
X95029Y156308D01*
X96250Y155305D01*
X97253Y154084D01*
X97997Y152691D01*
X98456Y151179D01*
X98604Y149679D01*
X98573Y149606D01*
Y139210D01*
X96949D01*
X96219Y139065D01*
X95601Y138651D01*
X95187Y138033D01*
X95042Y137303D01*
Y137134D01*
X86615D01*
X86382Y137088D01*
X84327D01*
X83957Y137402D01*
X83957Y137588D01*
Y140551D01*
X81595D01*
Y139616D01*
X80444D01*
X80340Y139658D01*
X79823Y140176D01*
Y140570D01*
X79658Y140968D01*
X79353Y141272D01*
X78956Y141437D01*
X78525D01*
X78127Y141272D01*
X77822Y140968D01*
X77658Y140570D01*
Y140139D01*
X77822Y139741D01*
X78127Y139436D01*
X78221Y139398D01*
X78121Y138898D01*
X75079D01*
Y136693D01*
X79527D01*
Y137342D01*
X79626Y137580D01*
Y138011D01*
X79620Y138026D01*
X79922Y138401D01*
X80028Y138442D01*
X80344Y138379D01*
X80444Y138337D01*
X81241D01*
X81595Y137984D01*
X81595Y137465D01*
X81300Y137088D01*
X81300Y137024D01*
Y133593D01*
X77492Y133593D01*
X77392Y133551D01*
X76955Y133464D01*
X76778Y133346D01*
X75197D01*
Y131339D01*
X74846Y131050D01*
X74410Y131237D01*
Y133346D01*
X73868D01*
Y136693D01*
X74528D01*
Y138898D01*
X70079D01*
Y136693D01*
X72589D01*
Y133346D01*
X72047D01*
Y130433D01*
X73640D01*
X73831Y129971D01*
X73478Y129618D01*
X73374Y129576D01*
X69843D01*
Y129882D01*
X66913D01*
X66496Y129882D01*
X66496Y130299D01*
Y133229D01*
X66190D01*
Y134713D01*
X66544Y135066D01*
X67080Y135066D01*
X67287Y134566D01*
X67192Y134471D01*
X67028Y134074D01*
Y133643D01*
X67192Y133245D01*
X67497Y132940D01*
X67895Y132776D01*
X68326D01*
X68723Y132940D01*
X69028Y133245D01*
X69193Y133643D01*
Y134074D01*
X69028Y134471D01*
X68933Y134566D01*
X69140Y135066D01*
X69142D01*
Y138949D01*
X69142Y138949D01*
X69070Y139449D01*
X69193Y139745D01*
Y140176D01*
X69028Y140574D01*
X68723Y140878D01*
X68326Y141043D01*
X67895D01*
X67497Y140878D01*
X67192Y140574D01*
X67028Y140176D01*
Y139745D01*
X67150Y139449D01*
X67079Y138949D01*
X66780D01*
X66579Y138949D01*
X66266D01*
X65963Y139075D01*
X65533D01*
X65230Y138949D01*
X64717D01*
Y138331D01*
X64665Y138207D01*
Y137777D01*
X64717Y137653D01*
Y135066D01*
X64717Y135066D01*
X64697Y134982D01*
X64259Y134802D01*
X64141Y134799D01*
X63798Y134941D01*
X63367D01*
X62969Y134776D01*
X62665Y134471D01*
X62500Y134074D01*
Y133729D01*
X62500Y133643D01*
X62130Y133229D01*
X61098D01*
X60728Y133643D01*
X60728Y133729D01*
Y134074D01*
X60563Y134471D01*
X60259Y134776D01*
X59861Y134941D01*
X59430D01*
X59032Y134776D01*
X58988Y134732D01*
X58661Y134516D01*
X58335Y134732D01*
X58290Y134776D01*
X57893Y134941D01*
X57462D01*
X57167Y134819D01*
X56854Y135040D01*
X56764Y135152D01*
X56791Y135218D01*
Y135648D01*
X56626Y136046D01*
X56322Y136351D01*
X55924Y136516D01*
X55493D01*
X55095Y136351D01*
X54791Y136046D01*
X54626Y135648D01*
Y135218D01*
X54791Y134820D01*
X55095Y134515D01*
X55493Y134350D01*
X55924D01*
X56218Y134472D01*
X56532Y134252D01*
X56622Y134139D01*
X56595Y134074D01*
Y133704D01*
X56595Y133643D01*
X56225Y133229D01*
X54764D01*
Y132045D01*
X54626Y131711D01*
Y131281D01*
X54764Y130947D01*
Y130299D01*
X54764Y129882D01*
X54347Y129882D01*
X53668D01*
X53335Y130019D01*
X52905D01*
X52572Y129882D01*
X51417D01*
Y127992D01*
X51417D01*
Y127914D01*
X51417D01*
Y126445D01*
X50950Y125945D01*
X50917Y125945D01*
X47539D01*
X47539Y124055D01*
X47539Y123555D01*
Y122086D01*
X47539Y122086D01*
Y122008D01*
X47539D01*
X47539Y121586D01*
Y120118D01*
X47539D01*
Y120039D01*
X47539D01*
Y118149D01*
X47539D01*
Y118071D01*
X47539D01*
Y116657D01*
X47539Y116240D01*
X47122Y116240D01*
X46130D01*
X45708Y116240D01*
Y116240D01*
X45630D01*
Y116240D01*
X43740D01*
Y116240D01*
X43661D01*
X43661Y116240D01*
X41771Y116240D01*
X41271Y116240D01*
X39803Y116240D01*
X39303Y116240D01*
X37834Y116240D01*
X37334Y116240D01*
X36279D01*
X35925Y116594D01*
X35925Y118071D01*
X35925Y118571D01*
Y120039D01*
X35925D01*
Y120118D01*
X35925D01*
Y121586D01*
X35925Y122008D01*
X35925D01*
Y122086D01*
X35925D01*
Y123555D01*
X35925Y123976D01*
X35925D01*
Y124055D01*
X35925D01*
Y125523D01*
X35925Y125945D01*
X35925D01*
Y126023D01*
X35925D01*
Y127437D01*
X35925Y127855D01*
X36342Y127855D01*
X37756D01*
Y127855D01*
X37834D01*
Y127855D01*
X39724D01*
Y127855D01*
X39803D01*
Y127855D01*
X41693D01*
Y127855D01*
X41771D01*
X41771Y127855D01*
X43661Y127855D01*
X44161Y127855D01*
X45630Y127855D01*
X46130Y127855D01*
X47598D01*
Y131260D01*
X45791Y131260D01*
X45623Y131570D01*
X45618Y131760D01*
X45800Y131942D01*
X45965Y132340D01*
Y132546D01*
X46169Y132861D01*
X46422Y132973D01*
X46672D01*
X47070Y133137D01*
X47374Y133442D01*
X47539Y133840D01*
Y134271D01*
X47374Y134668D01*
X47070Y134973D01*
X46672Y135138D01*
X46241D01*
X46137Y135095D01*
X45651Y135433D01*
X45688Y136325D01*
X45667Y136382D01*
X45668Y136385D01*
X45561Y136922D01*
X45314Y137291D01*
X45272Y137392D01*
X45272Y137392D01*
X45272Y137393D01*
X45272D01*
X45177Y137580D01*
Y138011D01*
X45012Y138409D01*
X44708Y138713D01*
X44310Y138878D01*
X43879D01*
X43481Y138713D01*
X42908Y138847D01*
X42841Y138948D01*
X42799Y139048D01*
X42799Y139048D01*
X42799Y139048D01*
X42784Y139063D01*
X42550Y139297D01*
X42549Y139298D01*
X42549Y139298D01*
X42549Y139298D01*
X42448Y139339D01*
X42426Y139354D01*
X42080Y139585D01*
X41643Y139672D01*
X41542Y139714D01*
X39598D01*
X39585Y139709D01*
X39498Y139745D01*
X39492Y139759D01*
X38445Y140783D01*
X38336Y140827D01*
X37985Y141062D01*
X37548Y141149D01*
X37447Y141190D01*
X24514D01*
X24235Y141469D01*
X23837Y141634D01*
X23407D01*
X23009Y141469D01*
X22704Y141165D01*
X22539Y140767D01*
Y140336D01*
X22704Y139938D01*
X23009Y139633D01*
X23407Y139469D01*
X23837D01*
X24235Y139633D01*
X24514Y139912D01*
X29981D01*
X30067Y139838D01*
X30248Y139412D01*
X30125Y139252D01*
X27953D01*
Y136339D01*
X28495D01*
Y132992D01*
X27835D01*
Y130787D01*
X31054D01*
Y128309D01*
X31047Y128299D01*
X30892Y128165D01*
X30554Y128045D01*
X30382Y128160D01*
X30040Y128228D01*
X29921Y128277D01*
X28048D01*
X27691Y128722D01*
Y129152D01*
X27526Y129550D01*
X27221Y129855D01*
X26823Y130020D01*
X26393D01*
X25995Y129855D01*
X25690Y129550D01*
X25525Y129152D01*
Y128722D01*
X25690Y128324D01*
X25995Y128019D01*
X25885Y127524D01*
X25839Y127441D01*
X24803Y127441D01*
X24303Y127425D01*
X24235Y127493D01*
X23837Y127657D01*
X23407D01*
X23009Y127493D01*
X22704Y127188D01*
X22539Y126790D01*
Y126359D01*
X22704Y125961D01*
X22859Y125806D01*
X22911Y125639D01*
X22628Y125166D01*
X21304D01*
X21260Y125251D01*
X21062Y125669D01*
Y125708D01*
X21095Y125787D01*
Y127930D01*
X21095Y128150D01*
X21062Y128425D01*
D01*
X20768Y128792D01*
Y129282D01*
X22730D01*
X23009Y129003D01*
X23407Y128839D01*
X23837D01*
X24235Y129003D01*
X24540Y129308D01*
X24705Y129706D01*
Y130137D01*
X24642Y130287D01*
X24940Y130787D01*
X27283D01*
Y132992D01*
X22835D01*
Y132343D01*
X22736Y132105D01*
Y131674D01*
X22835Y131437D01*
Y130787D01*
X22429Y130561D01*
X20768D01*
Y131890D01*
X18405D01*
Y131890D01*
X17953Y132004D01*
X17936Y132020D01*
X17538Y132185D01*
X17108D01*
X16732Y132030D01*
X16357Y132185D01*
X15926D01*
X15551Y132030D01*
X15176Y132185D01*
X14745D01*
X14402Y132414D01*
Y138583D01*
X14370Y138662D01*
Y138878D01*
X14280D01*
X14278Y138884D01*
X13976Y139009D01*
X10827D01*
X10525Y138884D01*
X10523Y138878D01*
X9645D01*
Y132776D01*
X10401D01*
Y131477D01*
X10335Y131318D01*
Y130887D01*
X10401Y130728D01*
Y130296D01*
X10335Y130137D01*
Y129706D01*
X10401Y129547D01*
Y129115D01*
X10335Y128955D01*
Y128525D01*
X10401Y128366D01*
Y127934D01*
X10335Y127774D01*
Y127344D01*
X10401Y127184D01*
Y126753D01*
X10335Y126593D01*
Y126163D01*
X10401Y126003D01*
Y125787D01*
X10433Y125710D01*
Y125669D01*
X10239Y125249D01*
X10195Y125163D01*
X8211D01*
X8079Y125137D01*
X7695Y125188D01*
X7320Y125467D01*
Y125492D01*
X7175Y126222D01*
X6762Y126840D01*
X6143Y127254D01*
X5413Y127399D01*
X3789D01*
Y132444D01*
X5413D01*
X6143Y132589D01*
X6762Y133002D01*
X7175Y133621D01*
X7320Y134350D01*
Y137303D01*
X7175Y138033D01*
X6762Y138651D01*
X6143Y139065D01*
X5413Y139210D01*
X3789D01*
Y149606D01*
X3759Y149679D01*
X3906Y151179D01*
X4365Y152691D01*
X5110Y154084D01*
X6112Y155305D01*
X7333Y156308D01*
X8727Y157053D01*
X10239Y157511D01*
X11738Y157659D01*
X11811Y157629D01*
X27559D01*
X27593Y157643D01*
X28741Y157794D01*
X29842Y158250D01*
X30788Y158976D01*
X31514Y159921D01*
X31970Y161023D01*
X32121Y162171D01*
X32135Y162205D01*
Y164071D01*
X32635Y164137D01*
X32696Y163911D01*
X33188Y163058D01*
X33885Y162362D01*
X34738Y161869D01*
X35689Y161614D01*
X36674D01*
X37625Y161869D01*
X38478Y162362D01*
X39174Y163058D01*
X39666Y163911D01*
X39921Y164862D01*
Y165847D01*
X39666Y166798D01*
X39174Y167651D01*
X38478Y168347D01*
X37625Y168840D01*
X37252Y168939D01*
X37318Y169439D01*
X45045D01*
X45110Y168939D01*
X44737Y168840D01*
X43885Y168347D01*
X43188Y167651D01*
X42696Y166798D01*
X42441Y165847D01*
Y164862D01*
X42696Y163911D01*
X43188Y163058D01*
X43885Y162362D01*
X44737Y161869D01*
X45689Y161614D01*
X46674D01*
X47625Y161869D01*
X48478Y162362D01*
X49174Y163058D01*
X49666Y163911D01*
X49921Y164862D01*
Y165847D01*
X49666Y166798D01*
X49174Y167651D01*
X48478Y168347D01*
X47625Y168840D01*
X47252Y168939D01*
X47318Y169439D01*
X55045D01*
X55110Y168939D01*
X54738Y168840D01*
X53885Y168347D01*
X53188Y167651D01*
X52696Y166798D01*
X52441Y165847D01*
Y164862D01*
X52696Y163911D01*
X53188Y163058D01*
X53885Y162362D01*
X54738Y161869D01*
X55689Y161614D01*
X56674D01*
X57625Y161869D01*
X58478Y162362D01*
X59174Y163058D01*
X59666Y163911D01*
X59921Y164862D01*
Y165847D01*
X59666Y166798D01*
X59174Y167651D01*
X58478Y168347D01*
X57625Y168840D01*
X57252Y168939D01*
X57318Y169439D01*
X70227D01*
Y162205D01*
D02*
G37*
G36*
X98573Y127399D02*
X96949D01*
X96219Y127254D01*
X95601Y126840D01*
X95187Y126222D01*
X95042Y125492D01*
Y122539D01*
X95187Y121810D01*
X95601Y121191D01*
X96219Y120778D01*
X96949Y120633D01*
X98573D01*
Y115588D01*
X97971D01*
X97422Y115882D01*
X95492Y116467D01*
X93485Y116665D01*
Y116661D01*
X86615D01*
X86382Y116615D01*
X84327D01*
X83957Y116929D01*
Y120079D01*
X81595D01*
Y119143D01*
X80407D01*
X80307Y119102D01*
X79823Y119507D01*
X79658Y119905D01*
X79614Y119949D01*
X79397Y120276D01*
X79614Y120602D01*
X79658Y120647D01*
X79823Y121045D01*
Y121475D01*
X79658Y121873D01*
X79353Y122178D01*
X78956Y122343D01*
X78525D01*
X78127Y122178D01*
X77822Y121873D01*
X77559Y121535D01*
X76278D01*
X76179Y122035D01*
X76367Y122114D01*
X76672Y122418D01*
X76837Y122816D01*
Y123247D01*
X76672Y123645D01*
X76367Y123949D01*
X75969Y124114D01*
X75539D01*
X75141Y123949D01*
X74836Y123645D01*
X74672Y123247D01*
Y122816D01*
X74836Y122418D01*
X75141Y122114D01*
X75330Y122035D01*
X75230Y121535D01*
X75197D01*
Y119602D01*
X74869Y119336D01*
X74410Y119531D01*
Y121535D01*
X73868D01*
Y124882D01*
X74528D01*
Y127087D01*
X70922D01*
X69843Y127425D01*
Y127914D01*
X70123Y128297D01*
X73374D01*
X73475Y128339D01*
X73912Y128426D01*
X74280Y128672D01*
X74382Y128714D01*
X76101Y130433D01*
X77381Y130433D01*
X77714Y130327D01*
X77898Y130201D01*
X78083Y129921D01*
X77867Y129595D01*
X77822Y129550D01*
X77658Y129152D01*
Y128722D01*
X77822Y128324D01*
X78127Y128019D01*
X78525Y127854D01*
X78801D01*
X79026Y127567D01*
X78812Y127087D01*
X75079D01*
Y124882D01*
X79527D01*
Y125531D01*
X79626Y125769D01*
Y126200D01*
X79592Y126282D01*
X79700Y126496D01*
X80296Y126658D01*
X80300Y126655D01*
X80737Y126568D01*
X80838Y126526D01*
X81595D01*
Y125591D01*
X83957D01*
X84148Y125486D01*
X84449Y125361D01*
X84665D01*
X84824Y125295D01*
X85255D01*
X85414Y125361D01*
X85846D01*
X86005Y125295D01*
X86436D01*
X86595Y125361D01*
X87027D01*
X87186Y125295D01*
X87617D01*
X87776Y125361D01*
X88208D01*
X88367Y125295D01*
X88798D01*
X88957Y125361D01*
X89389D01*
X89548Y125295D01*
X89979D01*
X90139Y125361D01*
X90570D01*
X90729Y125295D01*
X91160D01*
X91320Y125361D01*
X91535D01*
X91837Y125486D01*
X91962Y125787D01*
Y126003D01*
X92028Y126163D01*
Y126593D01*
X91962Y126753D01*
Y127184D01*
X92028Y127344D01*
Y127774D01*
X91962Y127934D01*
Y128366D01*
X92028Y128525D01*
Y128955D01*
X91962Y129115D01*
Y129547D01*
X92028Y129706D01*
Y130137D01*
X91962Y130296D01*
Y130728D01*
X92028Y130887D01*
Y131318D01*
X91962Y131477D01*
Y131693D01*
X91930Y131770D01*
Y131811D01*
X92123Y132231D01*
X92167Y132317D01*
X95190D01*
Y132314D01*
X95645Y132359D01*
X95809Y132336D01*
X97580Y132438D01*
X97602Y132444D01*
X98573D01*
Y127399D01*
D02*
G37*
G36*
X66020Y129823D02*
X66437Y129823D01*
X66437Y129406D01*
Y127992D01*
X66437D01*
Y127914D01*
X66437D01*
Y126024D01*
X66437D01*
Y125945D01*
X66437D01*
Y124477D01*
X66437Y124055D01*
X66437D01*
Y123977D01*
X66437D01*
Y122508D01*
X66437Y122087D01*
X66437D01*
Y122008D01*
X66437D01*
Y120540D01*
X66437Y120118D01*
X66437D01*
Y120040D01*
X66437D01*
Y118626D01*
X66437Y118209D01*
X66020Y118209D01*
X64606D01*
X64606Y118209D01*
X64528D01*
Y118209D01*
X64106Y118209D01*
X62638D01*
X62638Y118209D01*
X62559D01*
Y118209D01*
X62138Y118209D01*
X60669D01*
Y118209D01*
X60591D01*
Y118209D01*
X58701Y118209D01*
X58201Y118209D01*
X56732Y118209D01*
X56232Y118209D01*
X54764D01*
Y114803D01*
X56654Y114803D01*
X57553Y114803D01*
X57654Y114307D01*
X57654Y114303D01*
X57350Y113999D01*
X57185Y113601D01*
Y113171D01*
X57350Y112773D01*
X57629Y112494D01*
Y109160D01*
X57350Y108881D01*
X57185Y108483D01*
Y108052D01*
X57350Y107654D01*
X57654Y107350D01*
X57730Y107319D01*
X57740Y107302D01*
X57809Y106745D01*
X56471Y105406D01*
X56428Y105304D01*
X56182Y104936D01*
X56095Y104499D01*
X56054Y104398D01*
Y101024D01*
X52953D01*
Y101024D01*
X52463Y100706D01*
X50414D01*
X49937Y100712D01*
X49926Y100714D01*
X49917Y100712D01*
X49419Y100706D01*
X48953D01*
X48453Y100714D01*
Y100714D01*
X47708Y100616D01*
X47014Y100328D01*
X46424Y99875D01*
X46426Y99872D01*
X46426Y99869D01*
X46065Y99508D01*
X46044D01*
X45647Y99343D01*
X45342Y99038D01*
X45177Y98641D01*
Y98210D01*
X45342Y97812D01*
X45647Y97507D01*
X46044Y97342D01*
X46475D01*
X46873Y97507D01*
X47178Y97812D01*
X47343Y98210D01*
Y98226D01*
X47366Y98250D01*
X47711Y98581D01*
X48112Y98820D01*
X48453Y98888D01*
Y98900D01*
X49920Y98900D01*
X49922Y98887D01*
X49922Y98887D01*
X49931Y98887D01*
X49931Y98896D01*
X49935Y98900D01*
X51680D01*
X51872Y98438D01*
X51315Y97882D01*
X50355D01*
Y95819D01*
X52593D01*
Y96605D01*
X54187Y98199D01*
X54196Y98208D01*
X54221Y98243D01*
X54247Y98263D01*
X54247Y98263D01*
X54346Y98380D01*
X54466Y98581D01*
X54466Y98583D01*
X56054D01*
Y94132D01*
X55949Y94028D01*
X55554Y93841D01*
X55322Y93937D01*
X54914D01*
X54538Y93781D01*
X54250Y93493D01*
X54094Y93117D01*
Y92710D01*
X54250Y92333D01*
X54538Y92045D01*
X54914Y91890D01*
X55322D01*
X55554Y91986D01*
X55949Y91798D01*
X56054Y91694D01*
Y90983D01*
X55949Y90879D01*
X55554Y90692D01*
X55322Y90788D01*
X54914D01*
X54538Y90632D01*
X54250Y90344D01*
X54094Y89968D01*
Y89561D01*
X54191Y89328D01*
X54003Y88934D01*
X53899Y88828D01*
X53869D01*
X53768Y88787D01*
X53332Y88700D01*
X52966Y88455D01*
X52862Y88412D01*
X52088Y87638D01*
X51765D01*
X51388Y87482D01*
X51100Y87194D01*
X50945Y86818D01*
Y86524D01*
X50724Y86260D01*
X50523Y86122D01*
X50328D01*
X50069Y86290D01*
X49902Y86549D01*
Y86830D01*
X49737Y87227D01*
X49432Y87532D01*
X49034Y87697D01*
X48603D01*
X48206Y87532D01*
X47901Y87227D01*
X47736Y86830D01*
Y86399D01*
X47827Y86179D01*
X47600Y85736D01*
X47535Y85679D01*
X46888D01*
X46784Y85784D01*
X46597Y86179D01*
X46693Y86411D01*
Y86818D01*
X46537Y87194D01*
X46249Y87482D01*
X45873Y87638D01*
X45465D01*
X45089Y87482D01*
X44801Y87194D01*
X44646Y86818D01*
Y86411D01*
X44742Y86179D01*
X44554Y85784D01*
X44450Y85679D01*
X43739D01*
X43635Y85784D01*
X43448Y86179D01*
X43544Y86411D01*
Y86818D01*
X43388Y87194D01*
X43100Y87482D01*
X42724Y87638D01*
X42316D01*
X41940Y87482D01*
X41652Y87194D01*
X41497Y86818D01*
Y86411D01*
X41593Y86179D01*
X41569Y86043D01*
X41460Y85772D01*
X41353Y85627D01*
X40968Y85550D01*
X40602Y85305D01*
X40499Y85263D01*
X39680Y84444D01*
X39574Y84488D01*
X39167D01*
X39059Y84443D01*
X38231Y85265D01*
X38127Y85307D01*
X37764Y85550D01*
X37386Y85625D01*
X37269Y85785D01*
X37168Y86046D01*
X37148Y86179D01*
X37244Y86411D01*
Y86818D01*
X37175Y86984D01*
X37591Y87287D01*
X38346Y86645D01*
Y86411D01*
X38502Y86034D01*
X38790Y85746D01*
X39167Y85591D01*
X39574D01*
X39950Y85746D01*
X40238Y86034D01*
X40394Y86411D01*
Y86818D01*
X40238Y87194D01*
X39950Y87482D01*
X39574Y87638D01*
X39167D01*
X39157Y87634D01*
X38150Y88489D01*
X38014Y88533D01*
X37764Y88700D01*
X37385Y88775D01*
X37270Y88934D01*
X37168Y89195D01*
X37147Y89328D01*
X37244Y89561D01*
Y89968D01*
X37088Y90344D01*
X36800Y90632D01*
X36424Y90788D01*
X36016D01*
X35640Y90632D01*
X35352Y90344D01*
X35197Y89968D01*
Y89561D01*
X35293Y89328D01*
X35105Y88934D01*
X35001Y88828D01*
X34290D01*
X34186Y88934D01*
X33998Y89328D01*
X34095Y89561D01*
Y89968D01*
X33939Y90344D01*
X33651Y90632D01*
X33275Y90788D01*
X32951D01*
X30351Y93387D01*
X30445Y93481D01*
X30610Y93879D01*
Y94310D01*
X30445Y94708D01*
X30141Y95012D01*
X29743Y95177D01*
X29312D01*
X28914Y95012D01*
X28610Y94708D01*
X28445Y94310D01*
Y93879D01*
X28610Y93481D01*
X28914Y93177D01*
X29009Y93138D01*
X29017Y93096D01*
X29263Y92727D01*
X29305Y92625D01*
X32048Y89883D01*
Y89561D01*
X32144Y89328D01*
X31956Y88934D01*
X31852Y88828D01*
X30598D01*
X30445Y89196D01*
X30141Y89500D01*
X29743Y89665D01*
X29312D01*
X28914Y89500D01*
X28610Y89196D01*
X28445Y88798D01*
Y88367D01*
X28610Y87969D01*
X28914Y87665D01*
X29312Y87500D01*
X29743D01*
X30023Y87616D01*
X30147Y87591D01*
X30247Y87550D01*
X31852D01*
X31956Y87445D01*
X32144Y87050D01*
X32048Y86818D01*
Y86411D01*
X32144Y86179D01*
X31956Y85784D01*
X31852Y85679D01*
X31822D01*
X31722Y85637D01*
X31285Y85550D01*
X30916Y85304D01*
X30816Y85262D01*
X30816Y85262D01*
X30814Y85262D01*
X30462Y84909D01*
X29706Y84153D01*
X29312D01*
X28914Y83989D01*
X28610Y83684D01*
X28445Y83286D01*
Y83177D01*
X27945Y83078D01*
X27816Y83390D01*
X27358Y83986D01*
X26762Y84444D01*
X26662Y84485D01*
X26642Y84501D01*
X25473Y85106D01*
Y86024D01*
X22559D01*
X22209Y86201D01*
Y86201D01*
X16796D01*
Y83484D01*
X22209D01*
Y83484D01*
X22559Y83661D01*
X24333D01*
X25381Y83119D01*
X25800Y82873D01*
X26153Y82567D01*
X26295Y82353D01*
X26375Y81950D01*
X26388D01*
X26388Y81950D01*
X26388Y80461D01*
X26405Y80374D01*
Y79283D01*
X26492D01*
Y78197D01*
X26405D01*
Y78021D01*
X25047D01*
Y78189D01*
X22984D01*
Y75951D01*
X25047D01*
Y76214D01*
X26405D01*
Y76134D01*
X30288D01*
Y77293D01*
X31054Y78058D01*
X31157Y78101D01*
X31852D01*
X31956Y77996D01*
X32144Y77601D01*
X32048Y77369D01*
Y76961D01*
X32203Y76585D01*
X32491Y76297D01*
X32868Y76142D01*
X33275D01*
X33651Y76297D01*
X33939Y76585D01*
X34095Y76961D01*
Y77369D01*
X34022Y77543D01*
X34438Y77846D01*
X35138Y77249D01*
Y76950D01*
X35303Y76552D01*
X35607Y76248D01*
X36005Y76083D01*
X36286D01*
X36545Y75915D01*
X36713Y75656D01*
Y75461D01*
X36575Y75260D01*
X36310Y75040D01*
X36016D01*
X35640Y74884D01*
X35352Y74596D01*
X35197Y74220D01*
Y73813D01*
X35293Y73580D01*
X35105Y73186D01*
X35001Y73080D01*
X34355D01*
X34290Y73137D01*
X34062Y73580D01*
X34154Y73800D01*
Y74231D01*
X33989Y74629D01*
X33684Y74934D01*
X33286Y75098D01*
X32855D01*
X32458Y74934D01*
X32153Y74629D01*
X31988Y74231D01*
Y73800D01*
X32079Y73580D01*
X31851Y73137D01*
X31787Y73080D01*
X31157D01*
X31057Y73039D01*
X30620Y72952D01*
X30251Y72706D01*
X30151Y72664D01*
X30151Y72664D01*
X30149Y72663D01*
X29797Y72311D01*
X29384Y71898D01*
X28307D01*
Y69835D01*
X30288D01*
Y70994D01*
X31054Y71759D01*
X31157Y71802D01*
X31852D01*
X31956Y71697D01*
X32144Y71302D01*
X32048Y71070D01*
Y70746D01*
X28518Y67217D01*
X28476Y67115D01*
X28230Y66747D01*
X28143Y66310D01*
X28101Y66209D01*
Y65459D01*
X27822Y65180D01*
X27657Y64782D01*
Y64734D01*
X27589Y64340D01*
X27196Y64272D01*
X27147D01*
X26749Y64107D01*
X26734Y64092D01*
X25047D01*
Y64409D01*
X22984D01*
Y62171D01*
X25047D01*
Y62286D01*
X26734D01*
X26749Y62271D01*
X27147Y62106D01*
X27578D01*
X27975Y62271D01*
X28280Y62576D01*
X28445Y62974D01*
Y63022D01*
X28513Y63416D01*
X28907Y63484D01*
X28956D01*
X29353Y63649D01*
X29528Y63823D01*
X29702Y63649D01*
X30100Y63484D01*
X30530D01*
X30928Y63649D01*
X31233Y63954D01*
X31398Y64352D01*
Y64782D01*
X31233Y65180D01*
X31289Y65818D01*
X32405Y66934D01*
X32491Y66848D01*
X32868Y66693D01*
X33275D01*
X33651Y66848D01*
X33939Y67136D01*
X34095Y67513D01*
Y67920D01*
X33939Y68296D01*
X33651Y68584D01*
X33275Y68740D01*
X32868D01*
X32491Y68584D01*
X32377Y68469D01*
X32281Y68465D01*
X32064Y68955D01*
X32952Y69843D01*
X33275D01*
X33651Y69998D01*
X33939Y70286D01*
X34095Y70662D01*
Y71070D01*
X33999Y71302D01*
X34186Y71697D01*
X34290Y71802D01*
X34936D01*
X35001Y71745D01*
X35229Y71302D01*
X35138Y71082D01*
Y70651D01*
X35303Y70253D01*
X35607Y69948D01*
X36005Y69784D01*
X36436D01*
X36834Y69948D01*
X37138Y70253D01*
X37303Y70651D01*
Y71082D01*
X37147Y71458D01*
X37138Y71493D01*
X37246Y72079D01*
X37390Y72176D01*
X37492Y72219D01*
X38018Y72744D01*
X38018Y72745D01*
X38406Y73036D01*
X38743Y73098D01*
X38778Y73089D01*
X39155Y72933D01*
X39585D01*
X39983Y73098D01*
X40288Y73403D01*
X40453Y73800D01*
Y74231D01*
X40361Y74451D01*
X40589Y74894D01*
X40654Y74951D01*
X41235D01*
X41300Y74894D01*
X41528Y74451D01*
X41437Y74231D01*
Y73800D01*
X41602Y73403D01*
X41906Y73098D01*
X42304Y72933D01*
X42735D01*
X43133Y73098D01*
X43437Y73403D01*
X43602Y73800D01*
Y74231D01*
X43511Y74451D01*
X43739Y74894D01*
X43804Y74951D01*
X44450D01*
X44553Y74847D01*
X44741Y74451D01*
X44646Y74220D01*
Y73813D01*
X44801Y73436D01*
X45089Y73148D01*
X45465Y72993D01*
X45873D01*
X46249Y73148D01*
X46537Y73436D01*
X46693Y73813D01*
Y74220D01*
X46624Y74385D01*
X47040Y74689D01*
X47796Y74047D01*
Y73813D01*
X47951Y73436D01*
X48239Y73148D01*
X48616Y72993D01*
X49023D01*
X49399Y73148D01*
X49687Y73436D01*
X49843Y73813D01*
Y74220D01*
X49687Y74596D01*
X49399Y74884D01*
X49023Y75040D01*
X48616D01*
X48606Y75036D01*
X47599Y75891D01*
X47463Y75934D01*
X47213Y76101D01*
X46776Y76188D01*
X46676Y76230D01*
X43804D01*
X43740Y76287D01*
X43512Y76730D01*
X43603Y76950D01*
Y77381D01*
X43438Y77778D01*
X43133Y78083D01*
X42735Y78248D01*
X42305D01*
X41907Y78083D01*
X41602Y77778D01*
X41437Y77381D01*
Y76950D01*
X41529Y76730D01*
X41300Y76287D01*
X41236Y76230D01*
X40654D01*
X40589Y76287D01*
X40361Y76730D01*
X40453Y76950D01*
Y77381D01*
X40288Y77779D01*
X39983Y78083D01*
X39585Y78248D01*
X39155D01*
X38757Y78083D01*
X38452Y77779D01*
X38287Y77381D01*
Y77100D01*
X38120Y76841D01*
X37861Y76673D01*
X37730D01*
X37471Y76841D01*
X37303Y77100D01*
Y77381D01*
X37138Y77779D01*
X36834Y78083D01*
X36436Y78248D01*
X36005D01*
X35959Y78229D01*
X35011Y79038D01*
X34875Y79082D01*
X34622Y79251D01*
X34238Y79327D01*
X34130Y79474D01*
X34022Y79744D01*
X33999Y79879D01*
X34095Y80111D01*
Y80519D01*
X34023Y80693D01*
X34438Y80995D01*
X35138Y80398D01*
Y80100D01*
X35303Y79702D01*
X35607Y79397D01*
X36005Y79232D01*
X36436D01*
X36834Y79397D01*
X37138Y79702D01*
X37303Y80100D01*
Y80530D01*
X37138Y80928D01*
X36834Y81233D01*
X36436Y81398D01*
X36005D01*
X35959Y81379D01*
X35012Y82187D01*
X34876Y82231D01*
X34622Y82400D01*
X34238Y82477D01*
X34131Y82623D01*
X34022Y82894D01*
X33999Y83029D01*
X34095Y83261D01*
Y83668D01*
X33998Y83900D01*
X34186Y84295D01*
X34290Y84400D01*
X35001D01*
X35105Y84295D01*
X35293Y83900D01*
X35197Y83668D01*
Y83261D01*
X35352Y82884D01*
X35640Y82596D01*
X36016Y82441D01*
X36424D01*
X36800Y82596D01*
X37088Y82884D01*
X37244Y83261D01*
Y83668D01*
X37194Y83788D01*
X37617Y84073D01*
X38346Y83349D01*
Y83261D01*
X38502Y82884D01*
X38790Y82596D01*
X39167Y82441D01*
X39574D01*
X39950Y82596D01*
X40238Y82884D01*
X40394Y83261D01*
Y83349D01*
X41127Y84083D01*
X41551Y83800D01*
X41497Y83668D01*
Y83261D01*
X41652Y82884D01*
X41940Y82596D01*
X42316Y82441D01*
X42724D01*
X43100Y82596D01*
X43388Y82884D01*
X43544Y83261D01*
Y83668D01*
X43447Y83900D01*
X43635Y84295D01*
X43739Y84400D01*
X44450D01*
X44554Y84295D01*
X44742Y83900D01*
X44646Y83668D01*
Y83261D01*
X44801Y82884D01*
X45089Y82596D01*
X45465Y82441D01*
X45873D01*
X46249Y82596D01*
X46537Y82884D01*
X46693Y83261D01*
Y83668D01*
X46596Y83900D01*
X46784Y84295D01*
X46888Y84400D01*
X47600D01*
X47704Y84295D01*
X47892Y83900D01*
X47796Y83668D01*
Y83261D01*
X47951Y82884D01*
X48239Y82596D01*
X48616Y82441D01*
X49023D01*
X49399Y82596D01*
X49687Y82884D01*
X49843Y83261D01*
Y83555D01*
X50064Y83819D01*
X50264Y83957D01*
X50523D01*
X50724Y83819D01*
X50945Y83554D01*
Y83261D01*
X51100Y82884D01*
X51388Y82596D01*
X51765Y82441D01*
X52172D01*
X52548Y82596D01*
X52836Y82884D01*
X52992Y83261D01*
Y83584D01*
X53365Y83957D01*
X53673D01*
X53873Y83819D01*
X54094Y83555D01*
Y83261D01*
X54250Y82884D01*
X54538Y82596D01*
X54914Y82441D01*
X55322D01*
X55698Y82596D01*
X55986Y82884D01*
X56142Y83261D01*
Y83668D01*
X55986Y84044D01*
X55698Y84332D01*
X55322Y84488D01*
X55028D01*
X54763Y84710D01*
X54626Y84909D01*
Y85169D01*
X54763Y85369D01*
X55028Y85591D01*
X55322D01*
X55698Y85746D01*
X55986Y86034D01*
X56142Y86411D01*
Y86818D01*
X55991Y87183D01*
X55986Y87195D01*
X55976Y87269D01*
X56093Y87794D01*
X56288Y87924D01*
X56390Y87967D01*
X56915Y88492D01*
X56916Y88493D01*
X57303Y88785D01*
X57640Y88847D01*
X57676Y88837D01*
X58053Y88682D01*
X58483D01*
X58881Y88846D01*
X59186Y89151D01*
X59351Y89549D01*
Y89979D01*
X59186Y90377D01*
X58881Y90682D01*
X58483Y90847D01*
X58053D01*
X57832Y90755D01*
X57390Y90983D01*
X57332Y91048D01*
Y91629D01*
X57390Y91694D01*
X57832Y91922D01*
X58053Y91830D01*
X58483D01*
X58881Y91995D01*
X59186Y92300D01*
X59351Y92698D01*
Y93129D01*
X59186Y93526D01*
X58881Y93831D01*
X58483Y93996D01*
X58053D01*
X57832Y93904D01*
X57390Y94132D01*
X57332Y94197D01*
Y104398D01*
X57375Y104502D01*
X58884Y106011D01*
X58988Y106054D01*
X60433D01*
Y103749D01*
X60216Y103510D01*
X59933Y103415D01*
X59861Y103445D01*
X59430D01*
X59032Y103280D01*
X58728Y102975D01*
X58563Y102578D01*
Y102147D01*
X58728Y101749D01*
X59032Y101444D01*
X59097Y101417D01*
X59226Y100839D01*
X59184Y100737D01*
X58938Y100369D01*
X58851Y99932D01*
X58810Y99831D01*
Y96389D01*
X58851Y96289D01*
X58938Y95851D01*
X59186Y95481D01*
X59227Y95380D01*
X59227Y95380D01*
X59555Y95053D01*
X59657Y95011D01*
X60025Y94765D01*
X60462Y94678D01*
X60562Y94636D01*
X63807D01*
Y94244D01*
X65333D01*
X65709Y93945D01*
Y92083D01*
X65709Y91882D01*
X65333Y91583D01*
X64722D01*
X63579Y92297D01*
X63183Y92582D01*
X63019Y92692D01*
X63007Y92680D01*
X63003Y92680D01*
X62386Y93248D01*
X62285Y93493D01*
X61997Y93781D01*
X61621Y93937D01*
X61213D01*
X60837Y93781D01*
X60549Y93493D01*
X60394Y93117D01*
Y92710D01*
X60549Y92333D01*
X60837Y92045D01*
X61180Y91903D01*
X61779Y91352D01*
X61819Y91327D01*
X62178Y91051D01*
X62209Y91023D01*
X63549Y90185D01*
Y89520D01*
X63549D01*
Y89220D01*
X63549D01*
Y88623D01*
X61593Y87697D01*
X61202D01*
X60804Y87532D01*
X60499Y87227D01*
X60334Y86830D01*
Y86399D01*
X60338Y86389D01*
X59914Y86106D01*
X59292Y86729D01*
Y86818D01*
X59136Y87194D01*
X58848Y87482D01*
X58472Y87638D01*
X58065D01*
X57688Y87482D01*
X57400Y87194D01*
X57244Y86818D01*
Y86411D01*
X57400Y86034D01*
X57688Y85746D01*
X58065Y85591D01*
X58472D01*
X58578Y85635D01*
X59394Y84819D01*
X59494Y84777D01*
X59866Y84529D01*
X60303Y84442D01*
X60403Y84400D01*
X63807D01*
Y83416D01*
X62348Y82550D01*
X62348Y82550D01*
X62285Y82524D01*
X62272Y82529D01*
X60155D01*
X60051Y82571D01*
X59292Y83331D01*
Y83668D01*
X59136Y84044D01*
X58848Y84332D01*
X58472Y84488D01*
X58065D01*
X57688Y84332D01*
X57400Y84044D01*
X57244Y83668D01*
Y83261D01*
X57400Y82884D01*
X57688Y82596D01*
X58065Y82441D01*
X58374D01*
X59147Y81667D01*
X59249Y81625D01*
X59617Y81379D01*
X60054Y81292D01*
X60155Y81251D01*
X60198D01*
X60302Y81146D01*
X60489Y80751D01*
X60394Y80519D01*
Y80111D01*
X60549Y79735D01*
X60837Y79447D01*
X61213Y79292D01*
X61621D01*
X61997Y79447D01*
X62225Y79676D01*
X63297D01*
X63398Y79717D01*
X63835Y79804D01*
X64152Y80016D01*
X64273Y80062D01*
X64702Y80465D01*
X67689D01*
Y80857D01*
X68469D01*
X68569Y80898D01*
X69006Y80985D01*
X69077Y81032D01*
X69177Y81045D01*
X69217Y81068D01*
X69256Y81060D01*
X70508D01*
X70801Y81118D01*
X71050Y81285D01*
X71216Y81533D01*
X71275Y81827D01*
Y82543D01*
X71216Y82837D01*
X71050Y83086D01*
X70898Y83187D01*
X70853Y83413D01*
Y83516D01*
X70898Y83742D01*
X71050Y83844D01*
X71216Y84092D01*
X71275Y84386D01*
Y84440D01*
X71735Y84728D01*
X72032Y84579D01*
Y84386D01*
X72091Y84092D01*
X72257Y83844D01*
X72409Y83742D01*
X72454Y83516D01*
Y83413D01*
X72409Y83187D01*
X72257Y83086D01*
X72091Y82837D01*
X72032Y82543D01*
Y81974D01*
X72030Y81961D01*
Y81426D01*
X72018D01*
X71937Y81023D01*
X71730Y80712D01*
X71545Y80522D01*
X71355Y80337D01*
X71044Y80130D01*
X70641Y80050D01*
Y80037D01*
X68926D01*
Y80044D01*
X68181Y79946D01*
X67486Y79659D01*
X66896Y79206D01*
X66899Y79203D01*
X66899Y79199D01*
X65682Y77983D01*
X65679Y77983D01*
X65676Y77986D01*
X65223Y77396D01*
X64936Y76701D01*
X64838Y75956D01*
X64845D01*
Y72862D01*
X64722Y72754D01*
X64222Y72981D01*
X64222Y74185D01*
X64222Y74673D01*
X64222Y74673D01*
X64222Y74673D01*
X64222D01*
X64180Y74774D01*
X64093Y75211D01*
X63846Y75582D01*
X63804Y75682D01*
X63804Y75682D01*
X63804Y75682D01*
X63804Y75682D01*
X62441Y77046D01*
Y77369D01*
X62285Y77745D01*
X61997Y78033D01*
X61621Y78189D01*
X61213D01*
X60837Y78033D01*
X60549Y77745D01*
X60394Y77369D01*
Y76961D01*
X60549Y76585D01*
X60837Y76297D01*
X61213Y76142D01*
X61537D01*
X62900Y74778D01*
X62913Y74773D01*
X62949Y74686D01*
X62944Y74673D01*
X62944Y71389D01*
X62985Y71289D01*
X63038Y71021D01*
X62602Y70723D01*
X62441Y70844D01*
Y71070D01*
X62285Y71446D01*
X61997Y71734D01*
X61621Y71890D01*
X61213D01*
X60837Y71734D01*
X60549Y71446D01*
X60394Y71070D01*
Y70662D01*
X60549Y70286D01*
X60837Y69998D01*
X61213Y69843D01*
X61537D01*
X63294Y68086D01*
X63337Y67981D01*
X63337Y63692D01*
X62837Y63287D01*
X62676D01*
X62278Y63123D01*
X61973Y62818D01*
X61808Y62420D01*
Y61989D01*
X61973Y61591D01*
X62041Y61524D01*
X61834Y61024D01*
X61614D01*
Y56693D01*
X66338D01*
X66338Y56693D01*
Y56693D01*
X66822Y56791D01*
X67252D01*
X67628Y56947D01*
X68003Y56791D01*
X68433D01*
X68831Y56956D01*
X69136Y57261D01*
X69301Y57659D01*
Y58089D01*
X69136Y58487D01*
X68831Y58792D01*
X68433Y58957D01*
X68003D01*
X67628Y58801D01*
X67252Y58957D01*
X66822D01*
X66338Y59298D01*
Y61024D01*
X64615D01*
X64615Y64857D01*
X65115Y65315D01*
X66349D01*
X66785Y65081D01*
X66791Y64820D01*
Y64647D01*
X66890Y64409D01*
Y63583D01*
X71221D01*
Y64409D01*
X71319Y64647D01*
Y65078D01*
X71221Y65315D01*
Y66459D01*
X71495Y66573D01*
X71613Y66603D01*
X71955Y66770D01*
X72020Y66819D01*
X72118Y66859D01*
X72606Y67234D01*
X72647Y67262D01*
X72647Y67262D01*
X72651Y67264D01*
X73001Y67614D01*
X74938Y69551D01*
X75221Y69974D01*
X75320Y70474D01*
Y71761D01*
X75311Y71807D01*
X75474Y72624D01*
X75936Y73316D01*
X75974Y73342D01*
X77435Y74803D01*
X79134D01*
Y76794D01*
X79168Y76968D01*
Y84449D01*
X79134Y84623D01*
Y86614D01*
X77815D01*
X77578Y86713D01*
X77147D01*
X77049Y86672D01*
X76443Y88060D01*
Y88404D01*
X76351Y88627D01*
Y89220D01*
X75699D01*
X75576Y89272D01*
X75145D01*
X75022Y89220D01*
X74098D01*
Y90158D01*
X74764D01*
Y92716D01*
Y95275D01*
Y97834D01*
Y100394D01*
X70433D01*
Y98887D01*
X68820Y98286D01*
X68820Y98287D01*
X68781Y98272D01*
X68768Y98277D01*
X67947D01*
Y98669D01*
X66559D01*
X66189Y98982D01*
Y101622D01*
X67940D01*
Y101331D01*
X71708D01*
X71832Y101279D01*
X72263D01*
X72386Y101331D01*
X74448D01*
Y103394D01*
X72386D01*
X72263Y103445D01*
X71956D01*
X71824Y103889D01*
X71823Y103907D01*
Y104918D01*
X72301Y105196D01*
X72323Y105194D01*
X72739Y105112D01*
X72840Y105069D01*
X81739D01*
X82185Y105069D01*
X82260Y105101D01*
X82340Y105089D01*
X82380Y105118D01*
X83957Y105118D01*
X84444Y105088D01*
X84449Y105086D01*
X91535D01*
X91614Y105118D01*
X91634D01*
Y105126D01*
X91837Y105210D01*
X91962Y105512D01*
Y106515D01*
X92028Y106674D01*
Y107105D01*
X91962Y107264D01*
Y107696D01*
X92028Y107855D01*
Y108286D01*
X91962Y108446D01*
Y108877D01*
X92028Y109037D01*
Y109467D01*
X91962Y109627D01*
Y110058D01*
X92028Y110218D01*
Y110648D01*
X91962Y110808D01*
Y111024D01*
X91930Y111339D01*
D01*
X91929Y111344D01*
X92389Y111844D01*
X93485D01*
X93617Y111871D01*
X94911Y111700D01*
X95042Y111646D01*
Y110728D01*
X95187Y109999D01*
X95601Y109380D01*
X96219Y108967D01*
X96949Y108822D01*
X98573D01*
Y102802D01*
X96850D01*
X95929Y102619D01*
X95147Y102097D01*
X94625Y101315D01*
X94625Y101314D01*
X94082Y101149D01*
X93984Y101248D01*
X93586Y101412D01*
X93156D01*
X92758Y101248D01*
X92453Y100943D01*
X92289Y100545D01*
Y100114D01*
X92453Y99716D01*
X92758Y99412D01*
X93156Y99247D01*
X93586D01*
X93942Y99394D01*
X94157Y99317D01*
X94442Y99162D01*
Y96457D01*
X94625Y95535D01*
X95147Y94754D01*
X95929Y94231D01*
X96850Y94048D01*
X98573D01*
Y79180D01*
X96850D01*
X95929Y78997D01*
X95147Y78475D01*
X94625Y77693D01*
X94442Y76772D01*
Y72835D01*
X94625Y71913D01*
X95147Y71132D01*
X95929Y70609D01*
X96850Y70426D01*
X98573D01*
Y52596D01*
X96949D01*
X96219Y52451D01*
X95601Y52037D01*
X95187Y51419D01*
X95042Y50689D01*
Y47736D01*
X95187Y47007D01*
X95601Y46388D01*
X96219Y45975D01*
X96949Y45829D01*
X98573D01*
Y40785D01*
X97677D01*
X96314Y40973D01*
X96070Y40959D01*
X94903Y41074D01*
Y41074D01*
X94403Y41071D01*
X86615Y41071D01*
X86382Y41025D01*
X84327D01*
X83957Y41339D01*
X83957Y41525D01*
Y44488D01*
X82429D01*
X82428Y44489D01*
X81614Y44824D01*
X81502Y44823D01*
X81172Y44889D01*
X81072Y44930D01*
X79632D01*
X79353Y45209D01*
X78956Y45374D01*
X78525D01*
X78127Y45209D01*
X77822Y44905D01*
X77658Y44507D01*
Y44076D01*
X77822Y43678D01*
X78127Y43374D01*
X78525Y43209D01*
X78956D01*
X79353Y43374D01*
X79632Y43652D01*
X81072D01*
X81085Y43657D01*
X81127Y43640D01*
X81128Y43641D01*
X81595Y43449D01*
X81595Y41402D01*
X81300Y41025D01*
X81300Y40961D01*
Y37530D01*
X79696D01*
X79658Y37621D01*
X79503Y37776D01*
X79405Y38091D01*
X79503Y38405D01*
X79658Y38560D01*
X79823Y38958D01*
Y39389D01*
X79667Y39765D01*
X79528Y40236D01*
X79528Y40236D01*
X79527Y40236D01*
Y40886D01*
X79626Y41123D01*
Y41554D01*
X79527Y41791D01*
Y42441D01*
X75079D01*
Y40236D01*
X77565D01*
X77714Y39976D01*
X77802Y39736D01*
X77658Y39389D01*
Y38958D01*
X77822Y38560D01*
X77977Y38405D01*
X78075Y38091D01*
X77977Y37776D01*
X77822Y37621D01*
X77784Y37529D01*
X77703Y37518D01*
X77580Y37447D01*
X77349Y37401D01*
X76980Y37155D01*
X76878Y37113D01*
X76766Y37001D01*
X76584Y37031D01*
X76521Y37159D01*
X76459Y37560D01*
X76672Y37773D01*
X76837Y38170D01*
Y38601D01*
X76672Y38999D01*
X76367Y39304D01*
X75969Y39469D01*
X75539D01*
X75141Y39304D01*
X74836Y38999D01*
X74672Y38601D01*
Y38170D01*
X74836Y37773D01*
X75141Y37468D01*
X75330Y37390D01*
X75230Y36890D01*
X75197D01*
Y34956D01*
X74869Y34691D01*
X74410Y34885D01*
Y36890D01*
X73868D01*
Y40236D01*
X74528D01*
Y42441D01*
X70943D01*
X69843Y42716D01*
X69843Y43268D01*
X70123Y43652D01*
X73374D01*
X73475Y43694D01*
X73912Y43780D01*
X74280Y44026D01*
X74382Y44069D01*
X76101Y45787D01*
X77559D01*
Y48701D01*
X76311D01*
X76212Y49201D01*
X76401Y49279D01*
X76705Y49584D01*
X76870Y49981D01*
Y50412D01*
X76705Y50810D01*
X76401Y51115D01*
X76003Y51279D01*
X75572D01*
X75174Y51115D01*
X74870Y50810D01*
X74705Y50412D01*
Y49981D01*
X74870Y49584D01*
X75174Y49279D01*
X75363Y49201D01*
X75264Y48701D01*
X75197D01*
Y46694D01*
X74846Y46405D01*
X74410Y46591D01*
Y48701D01*
X73868D01*
X73867Y52047D01*
X74528D01*
Y53769D01*
X74803Y53928D01*
X75079Y53769D01*
Y52047D01*
X79527D01*
Y52697D01*
X79626Y52934D01*
Y53365D01*
X79527Y53603D01*
Y54252D01*
X79639Y54485D01*
X79658Y54505D01*
X79823Y54903D01*
Y55334D01*
X79658Y55731D01*
X79353Y56036D01*
X78956Y56201D01*
X78525D01*
X78127Y56036D01*
X77848Y55757D01*
X74176D01*
X73819Y56102D01*
X73819Y56257D01*
Y60433D01*
X72500D01*
X72263Y60532D01*
X71832D01*
X71594Y60433D01*
X70275D01*
Y56219D01*
X70275Y56102D01*
X70100Y55675D01*
X69867Y55629D01*
X69575Y55434D01*
X69446Y55388D01*
X68251Y54304D01*
X67079D01*
Y50421D01*
X67471D01*
Y49766D01*
X67476Y49753D01*
X67441Y49667D01*
X67429Y49662D01*
X66441Y48674D01*
X66337Y48632D01*
X65905D01*
X65788Y48583D01*
X65035D01*
X64665Y48997D01*
X64665Y49083D01*
Y49428D01*
X64500Y49826D01*
X64196Y50130D01*
X63798Y50295D01*
X63367D01*
X62969Y50130D01*
X62665Y49826D01*
X62500Y49428D01*
Y49083D01*
X62500Y48997D01*
X62130Y48583D01*
X61098D01*
X60728Y48997D01*
X60728Y49083D01*
Y49428D01*
X60563Y49826D01*
X60259Y50130D01*
X59861Y50295D01*
X59430D01*
X59032Y50130D01*
X58988Y50086D01*
X58661Y49870D01*
X58335Y50086D01*
X58290Y50130D01*
X57946Y50273D01*
X57893Y50295D01*
X57912Y50787D01*
X58858D01*
Y53273D01*
X58978Y53382D01*
X59358Y53556D01*
X59627Y53445D01*
X60058D01*
X60456Y53610D01*
X60760Y53914D01*
X60925Y54312D01*
Y54743D01*
X60760Y55141D01*
X60456Y55445D01*
X60058Y55610D01*
X59627D01*
X59590Y55595D01*
X59128Y55997D01*
X58994Y56042D01*
X58768Y56193D01*
X58764Y56229D01*
X58858Y56693D01*
X58858D01*
Y61024D01*
X54134D01*
Y60064D01*
X53914Y59973D01*
X53900Y59958D01*
X53000D01*
Y61981D01*
X52607D01*
Y63675D01*
X52886Y63954D01*
X53051Y64352D01*
Y64782D01*
X52886Y65180D01*
X52582Y65485D01*
X52184Y65650D01*
X51753D01*
X51390Y66040D01*
X51364Y66208D01*
X51790Y66634D01*
X52184D01*
X52582Y66799D01*
X52886Y67103D01*
X53051Y67501D01*
Y67932D01*
X52886Y68330D01*
X52582Y68634D01*
X52184Y68799D01*
X51753D01*
X51355Y68634D01*
X51051Y68330D01*
X50886Y67932D01*
Y67538D01*
X50172Y66824D01*
X50131Y66724D01*
X49883Y66353D01*
X49796Y65916D01*
X49755Y65816D01*
Y65786D01*
X49650Y65683D01*
X49255Y65495D01*
X49023Y65591D01*
X48616D01*
X48239Y65435D01*
X47951Y65147D01*
X47796Y64771D01*
Y64363D01*
X47799Y64356D01*
X46946Y63358D01*
X46902Y63222D01*
X46733Y62969D01*
X46647Y62532D01*
X46605Y62432D01*
Y57216D01*
X46647Y57115D01*
X46733Y56678D01*
X46979Y56310D01*
X47022Y56208D01*
X47744Y55486D01*
X47846Y55444D01*
X48214Y55198D01*
X48651Y55111D01*
X48751Y55069D01*
X54134D01*
Y54305D01*
X53798Y54062D01*
X53347Y54263D01*
Y54409D01*
X50984D01*
Y51496D01*
X51000D01*
Y50638D01*
X50552D01*
Y48575D01*
X52789D01*
Y49665D01*
X52807Y49752D01*
Y51496D01*
X53347D01*
Y51786D01*
X53740Y52042D01*
X53758Y52045D01*
X54134Y51715D01*
Y50787D01*
X57442D01*
X57462Y50295D01*
X57408Y50273D01*
X57064Y50130D01*
X56759Y49826D01*
X56595Y49428D01*
Y49058D01*
X56595Y48997D01*
X56225Y48583D01*
X54764D01*
Y47399D01*
X54626Y47066D01*
Y46635D01*
X54764Y46302D01*
Y45653D01*
X54764Y45236D01*
X54347Y45236D01*
X53668D01*
X53335Y45374D01*
X52905D01*
X52572Y45236D01*
X51417D01*
Y43346D01*
X51417D01*
Y43268D01*
X51417D01*
Y41799D01*
X50955Y41304D01*
X50917Y41300D01*
X47539D01*
Y39410D01*
X47539Y39410D01*
Y39331D01*
X47539D01*
X47539Y38910D01*
Y37441D01*
X47539D01*
Y37363D01*
X47539D01*
Y35473D01*
X47539D01*
Y35394D01*
X47539D01*
Y33504D01*
X47539D01*
Y33426D01*
X47539D01*
Y32011D01*
X47539Y31594D01*
X47122Y31594D01*
X46130D01*
X45708Y31594D01*
Y31594D01*
X45630D01*
Y31594D01*
X43740D01*
Y31594D01*
X43661D01*
X43661Y31594D01*
X41771Y31594D01*
X41271Y31594D01*
X39803Y31594D01*
X39303Y31594D01*
X37834Y31594D01*
X37334Y31594D01*
X36342D01*
X35925Y31594D01*
X35925Y32011D01*
Y33426D01*
X35925D01*
Y33504D01*
X35925D01*
Y35394D01*
X35925D01*
Y35473D01*
X35925D01*
Y36941D01*
X35925Y37363D01*
X35925D01*
Y37441D01*
X35925D01*
Y38910D01*
X35925Y39331D01*
X35925D01*
Y39410D01*
X35925D01*
Y40878D01*
X35925Y41300D01*
X35925D01*
Y41378D01*
X35925D01*
Y42792D01*
X35925Y43209D01*
X36342Y43209D01*
X37756D01*
X37756Y43209D01*
X37834D01*
Y43209D01*
X38256Y43209D01*
X39724D01*
X39724Y43209D01*
X39803D01*
Y43209D01*
X40224Y43209D01*
X41693D01*
Y43209D01*
X41771D01*
Y43209D01*
X43661Y43209D01*
X44161Y43209D01*
X45630Y43209D01*
X46130Y43209D01*
X47598D01*
Y46614D01*
X45708Y46614D01*
X44809Y46614D01*
X44708Y47110D01*
X44708Y47114D01*
X45012Y47418D01*
X45177Y47816D01*
Y48247D01*
X45012Y48645D01*
X44734Y48923D01*
Y52258D01*
X45012Y52536D01*
X45177Y52934D01*
Y53365D01*
X45012Y53763D01*
X44708Y54067D01*
X44310Y54232D01*
X43879D01*
X43481Y54067D01*
X43178Y54442D01*
X43241Y54505D01*
X43406Y54903D01*
Y55334D01*
X43241Y55731D01*
X42936Y56036D01*
X42538Y56201D01*
X42107D01*
X41710Y56036D01*
X41405Y55731D01*
X41240Y55334D01*
Y54903D01*
X41311Y54732D01*
X41144Y54287D01*
X41033Y54195D01*
X40725Y54067D01*
X40681Y54023D01*
X40354Y53807D01*
X40028Y54023D01*
X39983Y54067D01*
X39585Y54232D01*
X39155D01*
X38757Y54067D01*
X38452Y53763D01*
X38287Y53365D01*
Y52934D01*
X38044Y52789D01*
X37697Y53156D01*
Y53365D01*
X37532Y53763D01*
X37227Y54067D01*
X36830Y54232D01*
X36399D01*
X36001Y54067D01*
X35696Y53763D01*
X35170D01*
X34865Y54067D01*
X34467Y54232D01*
X34037D01*
X33639Y54067D01*
X33334Y53763D01*
X32765Y53695D01*
X30529Y55930D01*
X30529Y55930D01*
X30529Y55930D01*
X30429Y55972D01*
X30058Y56219D01*
X29621Y56306D01*
X29521Y56348D01*
X28995D01*
X28895Y56848D01*
X29157Y56956D01*
X29461Y57261D01*
X29626Y57659D01*
Y58089D01*
X29461Y58487D01*
X29157Y58792D01*
X28759Y58957D01*
X28328D01*
X27953Y58801D01*
X27578Y58957D01*
X27147D01*
X26749Y58792D01*
X26734Y58777D01*
X17154D01*
Y58790D01*
X16813Y58857D01*
X16412Y59096D01*
X16064Y59426D01*
X15347Y60143D01*
X15017Y60491D01*
X14778Y60892D01*
X14710Y61233D01*
X14698D01*
Y63681D01*
X15420Y64403D01*
X15423Y64403D01*
X15426Y64400D01*
X15879Y64991D01*
X16167Y65685D01*
X16265Y66430D01*
X16258D01*
Y69149D01*
X16258Y69149D01*
X16258Y69149D01*
Y79394D01*
X16257Y82118D01*
X16259Y82120D01*
X16264Y82120D01*
X16167Y82858D01*
X15879Y83553D01*
X15421Y84149D01*
X14825Y84606D01*
X14131Y84894D01*
X14006Y84911D01*
X13974Y84924D01*
X13090Y85108D01*
Y86201D01*
X13058D01*
Y92913D01*
X13730D01*
Y95227D01*
X16959D01*
X17063Y95184D01*
X19113Y93134D01*
X19136Y93125D01*
X19145Y93102D01*
X19390Y92868D01*
Y92501D01*
X19555Y92103D01*
X19710Y91948D01*
X19808Y91634D01*
X19710Y91319D01*
X19555Y91164D01*
X19390Y90767D01*
Y90336D01*
X19555Y89938D01*
X19599Y89894D01*
X19815Y89567D01*
X19599Y89240D01*
X19555Y89196D01*
X19390Y88798D01*
Y88367D01*
X19555Y87969D01*
X19859Y87665D01*
X20257Y87500D01*
X20688D01*
X21086Y87665D01*
X21390Y87969D01*
X21555Y88367D01*
Y88798D01*
X21390Y89196D01*
X21346Y89240D01*
X21130Y89567D01*
X21346Y89894D01*
X21390Y89938D01*
X21555Y90336D01*
Y90767D01*
X21390Y91164D01*
X21235Y91319D01*
X21137Y91634D01*
X21235Y91948D01*
X21390Y92103D01*
X21555Y92501D01*
Y92932D01*
X21390Y93330D01*
X21118Y93602D01*
X21390Y93875D01*
X21555Y94273D01*
Y94704D01*
X21390Y95101D01*
X21086Y95406D01*
X20688Y95571D01*
X20294D01*
X17766Y98098D01*
X17413Y98451D01*
Y98451D01*
X17412Y98452D01*
X17412D01*
X17412Y98452D01*
X17312Y98493D01*
X16943Y98739D01*
X16506Y98826D01*
X16406Y98868D01*
X13730D01*
Y100000D01*
X10581D01*
Y98137D01*
X10581Y97638D01*
X10581D01*
Y97637D01*
X10581D01*
Y92913D01*
X11252D01*
Y86201D01*
X7747D01*
Y86201D01*
X7362Y86024D01*
X4449D01*
Y83661D01*
X7362D01*
X7747Y83484D01*
Y83484D01*
X12028D01*
X13124Y83256D01*
X13598Y83124D01*
D01*
X14024Y82929D01*
X14130Y82858D01*
X14323Y82569D01*
X14438Y82116D01*
D01*
X14451Y81637D01*
X14451Y79777D01*
X14093Y79428D01*
X13693Y79190D01*
X13615Y79174D01*
X13623Y79145D01*
X12021Y78721D01*
X7747D01*
X7747Y78721D01*
Y78721D01*
X7275Y78838D01*
X7274Y78839D01*
X6843D01*
X6445Y78674D01*
X6141Y78369D01*
X5976Y77971D01*
Y77540D01*
X6141Y77143D01*
X6445Y76838D01*
X6843Y76673D01*
X7274D01*
X7747Y76328D01*
Y76004D01*
X13090D01*
Y77135D01*
X13951Y77363D01*
X14366Y77142D01*
X14451Y77065D01*
Y71434D01*
X14426Y71378D01*
X14350Y71289D01*
X13954Y71064D01*
X13763Y71112D01*
X13090Y71290D01*
Y72421D01*
X7747D01*
Y72421D01*
X7362Y72244D01*
X4449D01*
Y69882D01*
X7362D01*
X7747Y69705D01*
Y69705D01*
X12021D01*
X13175Y69399D01*
X13650Y69242D01*
X14094Y69061D01*
X14256Y68953D01*
X14451Y68534D01*
Y66430D01*
X14439D01*
X14371Y66089D01*
X14132Y65688D01*
X13803Y65340D01*
X13421Y64958D01*
X12204D01*
X12117Y64941D01*
X7747D01*
Y62225D01*
X12892D01*
Y61233D01*
X12885D01*
X12983Y60488D01*
X13270Y59794D01*
X13723Y59203D01*
X13726Y59206D01*
X13729Y59206D01*
X15127Y57808D01*
X15127Y57805D01*
X15124Y57802D01*
X15714Y57349D01*
X16409Y57062D01*
X17154Y56964D01*
Y56971D01*
X26537D01*
X26662Y56848D01*
X26458Y56348D01*
X20177D01*
X20102Y56317D01*
X20022Y56329D01*
X19982Y56299D01*
X18405Y56299D01*
X17918Y56330D01*
X17913Y56332D01*
X10827D01*
X10748Y56299D01*
X10728D01*
Y56291D01*
X10525Y56207D01*
X10401Y55905D01*
Y54902D01*
X10335Y54743D01*
Y54312D01*
X10401Y54153D01*
Y53721D01*
X10335Y53562D01*
Y53131D01*
X10401Y52972D01*
Y52540D01*
X10335Y52381D01*
Y51950D01*
X10401Y51791D01*
Y51359D01*
X10335Y51200D01*
Y50769D01*
X10401Y50610D01*
Y50394D01*
X10433Y50078D01*
D01*
X10433Y50073D01*
X9973Y49573D01*
X9234D01*
X9103Y49547D01*
X7808Y49717D01*
X7389Y49891D01*
X7377Y49898D01*
X7320Y49919D01*
Y50689D01*
X7175Y51419D01*
X6762Y52037D01*
X6143Y52451D01*
X5413Y52596D01*
X3789D01*
Y108822D01*
X5413D01*
X6143Y108967D01*
X6762Y109380D01*
X7175Y109999D01*
X7320Y110728D01*
Y113681D01*
X7175Y114411D01*
X6762Y115029D01*
X6143Y115443D01*
X5413Y115588D01*
X3789D01*
Y120633D01*
X4706D01*
X7240Y120392D01*
X7472Y120416D01*
X8211Y120343D01*
Y120346D01*
X15747D01*
X15980Y120393D01*
X18035D01*
X18405Y120079D01*
X18405Y119893D01*
Y116929D01*
X19982D01*
X20022Y116900D01*
X20066Y116906D01*
X20105Y116885D01*
X22672Y116591D01*
X22704Y116513D01*
X23009Y116208D01*
X23407Y116043D01*
X23837D01*
X24235Y116208D01*
X24540Y116513D01*
X24705Y116911D01*
Y117341D01*
X24540Y117739D01*
X24235Y118044D01*
X23837Y118209D01*
X23407D01*
X23009Y118044D01*
X22825Y117860D01*
X20768Y118096D01*
X20768Y120015D01*
X21062Y120393D01*
X21062Y120457D01*
Y123887D01*
X22666D01*
X22704Y123796D01*
X22859Y123641D01*
X22957Y123327D01*
X22859Y123012D01*
X22704Y122857D01*
X22539Y122459D01*
Y122029D01*
X22695Y121652D01*
X22835Y121181D01*
X22835Y121181D01*
X22835Y121181D01*
Y120532D01*
X22736Y120294D01*
Y119863D01*
X22835Y119626D01*
Y118976D01*
X27283D01*
Y121181D01*
X24797D01*
X24648Y121441D01*
X24561Y121681D01*
X24705Y122029D01*
Y122459D01*
X24540Y122857D01*
X24385Y123012D01*
X24287Y123327D01*
X24385Y123641D01*
X24540Y123796D01*
X24597Y123933D01*
X25014Y124016D01*
X25388Y124266D01*
X25487Y124307D01*
X25596Y124417D01*
X25778Y124386D01*
X25842Y124258D01*
X25903Y123857D01*
X25690Y123645D01*
X25525Y123247D01*
Y122816D01*
X25690Y122418D01*
X25995Y122114D01*
X26393Y121949D01*
X26823D01*
X27221Y122114D01*
X27526Y122418D01*
X27691Y122816D01*
Y123247D01*
X27526Y123645D01*
X27221Y123949D01*
X27033Y124028D01*
X27132Y124528D01*
X27165D01*
Y126461D01*
X27494Y126726D01*
X27953Y126532D01*
Y124528D01*
X28495D01*
Y121181D01*
X27835D01*
Y118976D01*
X31440D01*
X32520Y118638D01*
X32520Y118149D01*
X32239Y117765D01*
X28988D01*
X28887Y117724D01*
X28450Y117637D01*
X28082Y117391D01*
X27981Y117349D01*
X27981Y117349D01*
X27980Y117349D01*
X27627Y116996D01*
X26261Y115630D01*
X24803D01*
Y112716D01*
X27165D01*
Y114724D01*
X27516Y115013D01*
X27953Y114826D01*
Y112716D01*
X28495D01*
Y109370D01*
X27835D01*
Y107648D01*
X27559Y107489D01*
X27283Y107648D01*
Y109370D01*
X22835D01*
Y108721D01*
X22736Y108483D01*
Y108052D01*
X22835Y107815D01*
Y107165D01*
X22724Y106932D01*
X22704Y106913D01*
X22539Y106515D01*
Y106084D01*
X22704Y105686D01*
X23009Y105381D01*
X23407Y105217D01*
X23837D01*
X24235Y105381D01*
X24514Y105660D01*
X31958D01*
X32058Y105702D01*
X32495Y105789D01*
X32784Y105981D01*
X32914Y106028D01*
X34111Y107114D01*
X35283D01*
Y110996D01*
X34891D01*
Y111652D01*
X34934Y111756D01*
X35921Y112743D01*
X36025Y112786D01*
X36457D01*
X36574Y112835D01*
X37327D01*
X37697Y112420D01*
X37697Y112335D01*
Y111989D01*
X37862Y111591D01*
X38166Y111287D01*
X38564Y111122D01*
X38995D01*
X39393Y111287D01*
X39697Y111591D01*
X39862Y111989D01*
Y112335D01*
X39862Y112420D01*
X40232Y112835D01*
X41264D01*
X41634Y112420D01*
X41634Y112335D01*
Y111989D01*
X41799Y111591D01*
X42103Y111287D01*
X42501Y111122D01*
X42932D01*
X43330Y111287D01*
X43374Y111331D01*
X43701Y111548D01*
X44027Y111331D01*
X44072Y111287D01*
X44470Y111122D01*
X44900D01*
X45298Y111287D01*
X45603Y111591D01*
X45768Y111989D01*
Y112359D01*
X45768Y112420D01*
X46137Y112835D01*
X47598D01*
Y114018D01*
X47736Y114352D01*
Y114782D01*
X47598Y115115D01*
Y115764D01*
X47598Y116181D01*
X48015Y116181D01*
X48708D01*
X49031Y116048D01*
X49462D01*
X49785Y116181D01*
X50945D01*
Y117649D01*
X50945Y118071D01*
X50945D01*
Y118149D01*
X50945D01*
Y119618D01*
X51408Y120113D01*
X51445Y120118D01*
X54823D01*
Y122008D01*
X54823Y122008D01*
Y122087D01*
X54823D01*
X54823Y122508D01*
Y123977D01*
X54823Y123977D01*
Y124055D01*
X54823D01*
X54823Y124477D01*
Y125945D01*
X54823D01*
Y126024D01*
X54823D01*
Y127914D01*
X54823D01*
Y127992D01*
X54823D01*
Y129406D01*
X54823Y129823D01*
X55240Y129823D01*
X56232D01*
X56654Y129823D01*
Y129823D01*
X56732D01*
Y129823D01*
X58622D01*
Y129823D01*
X58701D01*
X58701Y129823D01*
X60591Y129823D01*
X61091Y129823D01*
X62559Y129823D01*
X63059Y129823D01*
X64528Y129823D01*
X65028Y129823D01*
X66020D01*
D02*
G37*
G36*
X91535Y125787D02*
X84449D01*
Y129331D01*
X81693D01*
Y131693D01*
X91535D01*
Y125787D01*
D02*
G37*
G36*
X13976Y131496D02*
X17913D01*
Y128150D01*
X20669D01*
Y125787D01*
X10827D01*
Y138583D01*
X13976D01*
Y131496D01*
D02*
G37*
G36*
X58584Y113004D02*
X58559Y112972D01*
X58537Y112938D01*
X58518Y112902D01*
X58501Y112863D01*
X58488Y112823D01*
X58478Y112780D01*
X58470Y112735D01*
X58466Y112689D01*
X58465Y112639D01*
X58071D01*
X58069Y112689D01*
X58065Y112735D01*
X58058Y112780D01*
X58047Y112823D01*
X58034Y112863D01*
X58018Y112902D01*
X57999Y112938D01*
X57976Y112972D01*
X57951Y113004D01*
X57923Y113034D01*
X58612D01*
X58584Y113004D01*
D02*
G37*
G36*
X58466Y108965D02*
X58470Y108918D01*
X58478Y108873D01*
X58488Y108831D01*
X58501Y108790D01*
X58518Y108752D01*
X58537Y108715D01*
X58559Y108681D01*
X58584Y108649D01*
X58612Y108619D01*
X57923D01*
X57951Y108649D01*
X57976Y108681D01*
X57999Y108715D01*
X58018Y108752D01*
X58034Y108790D01*
X58047Y108831D01*
X58058Y108873D01*
X58065Y108918D01*
X58069Y108965D01*
X58071Y109014D01*
X58465D01*
X58466Y108965D01*
D02*
G37*
G36*
X91535Y105512D02*
X84449D01*
Y108858D01*
X81693D01*
Y111024D01*
X91535D01*
Y105512D01*
D02*
G37*
G36*
X70433Y92200D02*
Y90158D01*
X72819D01*
Y89575D01*
X72468Y89220D01*
X72020D01*
Y89220D01*
X70039D01*
Y87190D01*
X70039Y87157D01*
X69960Y86690D01*
X67608D01*
X67508Y86649D01*
X67071Y86562D01*
X66969Y86494D01*
X66854Y86475D01*
X66838Y86465D01*
X64493D01*
X64389Y86965D01*
X64696Y87157D01*
X65787D01*
Y89220D01*
X65787D01*
Y89520D01*
X65787D01*
Y91382D01*
X65787Y91583D01*
X66163Y91882D01*
X67947D01*
Y91926D01*
X68300Y92287D01*
X70056Y92529D01*
X70433Y92200D01*
D02*
G37*
G36*
X75590Y85500D02*
Y84623D01*
X75556Y84449D01*
Y76968D01*
X75590Y76794D01*
Y76648D01*
X74129Y75187D01*
X74128Y75187D01*
X74117Y75198D01*
X73346Y74193D01*
X72860Y73020D01*
X72695Y71761D01*
X72711D01*
Y71014D01*
X70894Y69197D01*
X70471Y68954D01*
X70044Y68817D01*
X69565Y68726D01*
X69055Y68726D01*
X68929Y68701D01*
X67279D01*
X66890Y68701D01*
X66780Y69155D01*
Y71118D01*
X66831Y71241D01*
Y71672D01*
X66780Y71796D01*
Y72414D01*
X66651D01*
Y75956D01*
X66664D01*
X66731Y76297D01*
X66970Y76698D01*
X67300Y77046D01*
X67836Y77582D01*
X68183Y77911D01*
X68585Y78150D01*
X68926Y78218D01*
Y78231D01*
X70165D01*
X70641Y78223D01*
X70964Y77776D01*
X70965Y77762D01*
Y77344D01*
X71120Y76968D01*
X70965Y76593D01*
Y76163D01*
X71120Y75787D01*
X70965Y75412D01*
Y74981D01*
X71129Y74584D01*
X71434Y74279D01*
X71832Y74114D01*
X72263D01*
X72660Y74279D01*
X72965Y74584D01*
X73130Y74981D01*
Y75412D01*
X72974Y75787D01*
X73130Y76163D01*
Y76593D01*
X72974Y76968D01*
X73130Y77344D01*
Y77774D01*
X72965Y78172D01*
X72691Y78447D01*
X72659Y78503D01*
X72656Y78567D01*
X72671Y79062D01*
X73005Y79396D01*
D01*
X73021Y79416D01*
X73458Y79986D01*
X73745Y80681D01*
X73795Y81060D01*
X74051D01*
X74345Y81118D01*
X74593Y81285D01*
X74760Y81533D01*
X74818Y81827D01*
Y82543D01*
X74760Y82837D01*
X74593Y83086D01*
X74441Y83187D01*
X74397Y83413D01*
Y83516D01*
X74441Y83742D01*
X74593Y83844D01*
X74760Y84092D01*
X74818Y84386D01*
Y85102D01*
X74760Y85396D01*
X74593Y85645D01*
X74345Y85811D01*
X74051Y85869D01*
X72799D01*
X72701Y85849D01*
X71165Y86548D01*
X71113Y86550D01*
X71109Y86552D01*
X70594Y86655D01*
X70508Y86690D01*
X70587Y87157D01*
X72020D01*
Y87157D01*
X72468D01*
Y87157D01*
X74866D01*
X75590Y85500D01*
D02*
G37*
G36*
X44411Y52768D02*
X44386Y52736D01*
X44364Y52702D01*
X44344Y52666D01*
X44328Y52627D01*
X44315Y52587D01*
X44305Y52544D01*
X44297Y52499D01*
X44293Y52452D01*
X44291Y52403D01*
X43898D01*
X43896Y52452D01*
X43892Y52499D01*
X43884Y52544D01*
X43874Y52587D01*
X43861Y52627D01*
X43845Y52666D01*
X43825Y52702D01*
X43803Y52736D01*
X43778Y52768D01*
X43750Y52798D01*
X44439D01*
X44411Y52768D01*
D02*
G37*
G36*
X17913Y52559D02*
X20669D01*
Y50394D01*
X10827D01*
Y55905D01*
X17913D01*
Y52559D01*
D02*
G37*
G36*
X44293Y48729D02*
X44297Y48682D01*
X44305Y48637D01*
X44315Y48595D01*
X44328Y48554D01*
X44344Y48516D01*
X44364Y48479D01*
X44386Y48445D01*
X44411Y48413D01*
X44439Y48383D01*
X43750D01*
X43778Y48413D01*
X43803Y48445D01*
X43825Y48479D01*
X43845Y48516D01*
X43861Y48554D01*
X43874Y48595D01*
X43884Y48637D01*
X43892Y48682D01*
X43896Y48729D01*
X43898Y48778D01*
X44291D01*
X44293Y48729D01*
D02*
G37*
G36*
X66437Y44824D02*
X66437Y43346D01*
X66437Y42846D01*
Y41378D01*
X66437D01*
Y41299D01*
X66437D01*
Y39831D01*
X66437Y39409D01*
X66437D01*
Y39331D01*
X66437D01*
Y37862D01*
X66437Y37441D01*
X66437D01*
Y37362D01*
X66437D01*
Y35894D01*
X66437Y35472D01*
X66437D01*
Y35394D01*
X66437D01*
Y33980D01*
X66437Y33563D01*
X66020Y33563D01*
X64606D01*
Y33563D01*
X64528D01*
Y33563D01*
X62638D01*
Y33563D01*
X62559D01*
Y33563D01*
X60669D01*
Y33563D01*
X60591D01*
X60591Y33563D01*
X58701Y33563D01*
X58201Y33563D01*
X56732Y33563D01*
X56232Y33563D01*
X54764D01*
Y30157D01*
X56366Y30157D01*
X56669Y29834D01*
X56669Y29657D01*
X56366Y29353D01*
X56201Y28956D01*
Y28525D01*
X56366Y28127D01*
X56644Y27848D01*
Y25061D01*
X56655Y25035D01*
X56602Y24856D01*
X56283Y24460D01*
X56187Y24442D01*
X55801Y24828D01*
X55801Y24828D01*
X55801Y24828D01*
X55700Y24869D01*
X55330Y25117D01*
X54892Y25204D01*
X54792Y25245D01*
X44199D01*
X43920Y25524D01*
X43522Y25689D01*
X43092D01*
X42694Y25524D01*
X42389Y25220D01*
X42224Y24822D01*
Y24391D01*
X42389Y23993D01*
X42694Y23688D01*
X43092Y23524D01*
X43522D01*
X43920Y23688D01*
X44199Y23967D01*
X54792D01*
X54805Y23972D01*
X54891Y23937D01*
X54897Y23924D01*
X56988Y21832D01*
Y21438D01*
X57153Y21040D01*
X57458Y20736D01*
X57855Y20571D01*
X58286D01*
X58684Y20736D01*
X58989Y21040D01*
X59153Y21438D01*
Y21869D01*
X59038Y22148D01*
X59071Y22191D01*
X59683Y22250D01*
X61289Y20643D01*
X61391Y20601D01*
X61759Y20356D01*
X62195Y20269D01*
X62296Y20227D01*
X77848D01*
X78127Y19948D01*
X78525Y19783D01*
X78956D01*
X79353Y19948D01*
X79658Y20253D01*
X79823Y20651D01*
Y21081D01*
X79658Y21479D01*
X79353Y21784D01*
X78956Y21949D01*
X78525D01*
X78127Y21784D01*
X77848Y21505D01*
X72381D01*
X72296Y21579D01*
X72114Y22005D01*
X72237Y22165D01*
X74410D01*
Y25079D01*
X73868D01*
Y28425D01*
X74528D01*
Y30630D01*
X71308D01*
X71308Y33110D01*
X71443Y33235D01*
X71808Y33372D01*
X71980Y33257D01*
X72322Y33189D01*
X72441Y33140D01*
X74314D01*
X74672Y32696D01*
Y32265D01*
X74836Y31867D01*
X75141Y31563D01*
X75539Y31398D01*
X75969D01*
X76367Y31563D01*
X76672Y31867D01*
X76837Y32265D01*
Y32696D01*
X76672Y33094D01*
X76367Y33398D01*
X76478Y33894D01*
X76523Y33976D01*
X77559Y33976D01*
X78059Y33992D01*
X78127Y33925D01*
X78525Y33760D01*
X78956D01*
X79353Y33925D01*
X79658Y34229D01*
X79823Y34627D01*
Y35058D01*
X79658Y35456D01*
X79503Y35611D01*
X79451Y35778D01*
X79734Y36252D01*
X81059D01*
X81102Y36167D01*
X81300Y35748D01*
X81267Y35630D01*
X81267Y35262D01*
X81267Y33487D01*
X81267Y33268D01*
X81300Y32992D01*
D01*
X81595Y32625D01*
Y32135D01*
X79632D01*
X79353Y32414D01*
X78956Y32579D01*
X78525D01*
X78127Y32414D01*
X77822Y32109D01*
X77658Y31711D01*
Y31281D01*
X77720Y31130D01*
X77422Y30630D01*
X75079D01*
Y28425D01*
X79527D01*
Y29075D01*
X79626Y29312D01*
Y29743D01*
X79527Y29980D01*
Y30630D01*
X79934Y30857D01*
X81595D01*
Y29528D01*
X83957D01*
X84148Y29423D01*
X84449Y29298D01*
X84665D01*
X84824Y29232D01*
X85255D01*
X85414Y29298D01*
X85846D01*
X86005Y29232D01*
X86436D01*
X86595Y29298D01*
X87027D01*
X87186Y29232D01*
X87617D01*
X87960Y28833D01*
Y22835D01*
X87992Y22756D01*
Y22539D01*
X88082D01*
X88085Y22533D01*
X88386Y22409D01*
X91535D01*
X91837Y22533D01*
X91839Y22539D01*
X92716D01*
Y28642D01*
X91962D01*
Y29940D01*
X92027Y30100D01*
Y30530D01*
X91962Y30690D01*
Y31121D01*
X92027Y31281D01*
Y31711D01*
X91962Y31871D01*
Y32302D01*
X92027Y32462D01*
Y32893D01*
X91962Y33052D01*
Y33484D01*
X92027Y33643D01*
Y34074D01*
X91962Y34233D01*
Y34665D01*
X92027Y34824D01*
Y35255D01*
X91962Y35414D01*
Y35630D01*
X91930Y35707D01*
Y35748D01*
X92123Y36168D01*
X92167Y36254D01*
X94903Y36254D01*
X95042Y35925D01*
X95187Y35195D01*
X95601Y34577D01*
X96219Y34164D01*
X96949Y34018D01*
X98573D01*
Y28974D01*
X96949D01*
X96219Y28828D01*
X95601Y28415D01*
X95187Y27797D01*
X95042Y27067D01*
Y24114D01*
X95187Y23384D01*
X95601Y22766D01*
X96219Y22353D01*
X96949Y22208D01*
X98573D01*
Y11811D01*
X98604Y11738D01*
X98456Y10239D01*
X97997Y8727D01*
X97253Y7333D01*
X96250Y6112D01*
X95029Y5110D01*
X93635Y4365D01*
X92124Y3906D01*
X90624Y3759D01*
X90551Y3789D01*
X78023D01*
X77666Y4134D01*
X77666Y4289D01*
Y5457D01*
X77698Y5489D01*
X77863Y5887D01*
Y6318D01*
X77698Y6716D01*
X77666Y6748D01*
Y8071D01*
X75894D01*
Y8071D01*
X75697D01*
Y8071D01*
X74238D01*
X73925Y8071D01*
X73695Y8476D01*
X73655Y8780D01*
X73368Y9474D01*
X72910Y10070D01*
X72910Y10070D01*
X72554Y10417D01*
X72146Y10825D01*
Y10845D01*
X71981Y11243D01*
X71676Y11548D01*
X71278Y11713D01*
X71258D01*
X70475Y12495D01*
X70130Y12858D01*
X69938Y13146D01*
X69823Y13598D01*
D01*
X69809Y14077D01*
X69809Y15551D01*
X69792Y15638D01*
Y17519D01*
X68020D01*
Y15638D01*
X68003Y15551D01*
X68003Y13595D01*
X68000Y13592D01*
X67997Y13592D01*
X68094Y12857D01*
X68381Y12163D01*
X68839Y11566D01*
X68844Y11572D01*
X68844Y11572D01*
X69536Y10880D01*
Y10749D01*
X69480Y10554D01*
X69213Y10173D01*
X69213Y10173D01*
X69203Y10143D01*
X68569Y9839D01*
X68559Y9859D01*
X68182Y9762D01*
X68184Y9738D01*
X68184Y9738D01*
X65556Y9549D01*
X65296Y10031D01*
Y11713D01*
X63279D01*
X63074Y11918D01*
X62676Y12083D01*
X62246D01*
X61848Y11918D01*
X61642Y11713D01*
X61359D01*
Y9941D01*
X62189D01*
X62246Y9917D01*
X62676D01*
X62733Y9941D01*
X64132D01*
X64164Y9441D01*
X61659Y9115D01*
X61655Y9145D01*
X61521Y9119D01*
X61027Y9106D01*
X60352D01*
Y9612D01*
X60480D01*
Y11850D01*
X58417D01*
Y11634D01*
X43945D01*
Y11850D01*
X41882D01*
Y9961D01*
X41447Y9805D01*
X41004Y10062D01*
Y11713D01*
X39680D01*
X39648Y11745D01*
X39250Y11909D01*
X38820D01*
X38422Y11745D01*
X38390Y11713D01*
X37067D01*
Y9941D01*
X36641Y9761D01*
X33839D01*
X30760Y12841D01*
X30760Y12858D01*
X30520Y13259D01*
X30452Y13602D01*
X30439D01*
Y14468D01*
X30439Y15551D01*
X30422Y15638D01*
Y17519D01*
X28650D01*
Y15638D01*
X28633Y15551D01*
X28633Y14468D01*
Y13602D01*
X28626D01*
X28724Y12857D01*
X29011Y12163D01*
X29467Y11568D01*
X29472Y11573D01*
X29473Y11573D01*
X32230Y8816D01*
X32179Y8160D01*
X32070Y8071D01*
X30922D01*
X30618Y8071D01*
Y8071D01*
X30422D01*
X30422Y8071D01*
X28953D01*
X28650Y8071D01*
X28150Y8071D01*
X26681D01*
Y8071D01*
X26485D01*
Y8071D01*
X24713D01*
Y6748D01*
X24681Y6716D01*
X24516Y6318D01*
Y5887D01*
X24681Y5489D01*
X24713Y5457D01*
Y4289D01*
X24713Y4134D01*
X24356Y3789D01*
X11811D01*
X11738Y3759D01*
X10239Y3906D01*
X8727Y4365D01*
X7333Y5110D01*
X6112Y6112D01*
X5110Y7333D01*
X4365Y8727D01*
X3906Y10239D01*
X3759Y11738D01*
X3789Y11811D01*
Y22208D01*
X5413D01*
X6143Y22353D01*
X6762Y22766D01*
X7175Y23384D01*
X7320Y24114D01*
Y24262D01*
X7731Y24279D01*
X7841Y24306D01*
X7953Y24283D01*
X15747Y24284D01*
X15980Y24330D01*
X18035D01*
X18405Y24016D01*
X18405Y23830D01*
Y20866D01*
X20768D01*
Y21802D01*
X21918D01*
X21931Y21807D01*
X22017Y21771D01*
X22023Y21758D01*
X22539Y21242D01*
Y20848D01*
X22704Y20450D01*
X23009Y20145D01*
X23407Y19980D01*
X23837D01*
X24235Y20145D01*
X24540Y20450D01*
X24705Y20848D01*
Y21278D01*
X24540Y21676D01*
X24235Y21981D01*
X24141Y22020D01*
X24241Y22520D01*
X27283D01*
Y24724D01*
X22835D01*
Y24075D01*
X22736Y23837D01*
Y23407D01*
X22742Y23392D01*
X22440Y23016D01*
X22335Y22976D01*
X22018Y23039D01*
X21918Y23080D01*
X21121D01*
X20768Y23434D01*
X20768Y23952D01*
X21062Y24330D01*
X21062Y24394D01*
Y27824D01*
X24843D01*
X24943Y27866D01*
X25380Y27953D01*
X25460Y28006D01*
X25565Y28021D01*
X25650Y28071D01*
X27165D01*
Y30078D01*
X27516Y30367D01*
X27953Y30180D01*
Y28071D01*
X28495D01*
Y24724D01*
X27835D01*
Y22520D01*
X32283D01*
Y24724D01*
X29773D01*
Y28071D01*
X30315D01*
Y30984D01*
X28723D01*
X28531Y31446D01*
X28884Y31799D01*
X28988Y31841D01*
X32520D01*
Y31536D01*
X35449D01*
X35866Y31536D01*
X35866Y31119D01*
Y28189D01*
X36172D01*
Y26704D01*
X35818Y26351D01*
X35282Y26351D01*
X35075Y26851D01*
X35170Y26946D01*
X35335Y27344D01*
Y27774D01*
X35170Y28172D01*
X34865Y28477D01*
X34467Y28642D01*
X34037D01*
X33639Y28477D01*
X33334Y28172D01*
X33169Y27774D01*
Y27344D01*
X33334Y26946D01*
X33429Y26851D01*
X33222Y26351D01*
X33220D01*
Y22468D01*
X33220Y22468D01*
X33292Y21968D01*
X33169Y21672D01*
Y21241D01*
X33334Y20843D01*
X33639Y20539D01*
X34037Y20374D01*
X34467D01*
X34865Y20539D01*
X35170Y20843D01*
X35335Y21241D01*
Y21672D01*
X35212Y21968D01*
X35283Y22468D01*
X35583D01*
X35783Y22468D01*
X36096D01*
X36399Y22343D01*
X36830D01*
X37132Y22468D01*
X37646D01*
Y23086D01*
X37697Y23210D01*
Y23641D01*
X37646Y23764D01*
Y26351D01*
X37646Y26351D01*
X37665Y26435D01*
X38103Y26615D01*
X38221Y26618D01*
X38564Y26476D01*
X38995D01*
X39393Y26641D01*
X39697Y26946D01*
X39862Y27344D01*
Y27689D01*
X39862Y27774D01*
X40232Y28189D01*
X41264D01*
X41634Y27774D01*
X41634Y27689D01*
Y27344D01*
X41799Y26946D01*
X42103Y26641D01*
X42501Y26476D01*
X42932D01*
X43330Y26641D01*
X43374Y26686D01*
X43701Y26902D01*
X44027Y26686D01*
X44072Y26641D01*
X44470Y26476D01*
X44900D01*
X45298Y26641D01*
X45603Y26946D01*
X45768Y27344D01*
Y27713D01*
X45768Y27774D01*
X46137Y28189D01*
X47598D01*
Y29373D01*
X47736Y29706D01*
Y30137D01*
X47598Y30470D01*
Y31119D01*
X47598Y31536D01*
X48015Y31536D01*
X48694D01*
X49027Y31398D01*
X49458D01*
X49790Y31536D01*
X50945D01*
Y33426D01*
X50945D01*
Y33504D01*
X50945D01*
Y34973D01*
X51412Y35472D01*
X51445Y35472D01*
X54823D01*
X54823Y37362D01*
X54823Y37862D01*
Y39331D01*
X54823Y39331D01*
Y39409D01*
X54823D01*
X54823Y39831D01*
Y41299D01*
X54823D01*
Y41378D01*
X54823D01*
Y43268D01*
X54823D01*
Y43346D01*
X54823D01*
Y44760D01*
X54823Y45177D01*
X55240Y45177D01*
X56232D01*
X56654Y45177D01*
Y45177D01*
X56732D01*
Y45177D01*
X58622D01*
Y45177D01*
X58701D01*
X58701Y45177D01*
X60591Y45177D01*
X61091Y45177D01*
X62559Y45177D01*
X63059Y45177D01*
X64528Y45177D01*
X65028Y45177D01*
X66084D01*
X66437Y44824D01*
D02*
G37*
G36*
X5731Y45371D02*
X5953Y45337D01*
X7227Y44950D01*
X9234Y44753D01*
Y44756D01*
X15747D01*
X15980Y44802D01*
X18035D01*
X18405Y44488D01*
Y41339D01*
X20768D01*
Y42274D01*
X21971D01*
X22071Y42316D01*
X22539Y41911D01*
X22704Y41513D01*
X22749Y41468D01*
X22965Y41142D01*
X22749Y40815D01*
X22704Y40771D01*
X22539Y40373D01*
Y39942D01*
X22704Y39544D01*
X23009Y39240D01*
X23407Y39075D01*
X23837D01*
X24235Y39240D01*
X24540Y39544D01*
X24803Y39882D01*
X26084D01*
X26184Y39382D01*
X25995Y39304D01*
X25690Y38999D01*
X25525Y38601D01*
Y38170D01*
X25690Y37773D01*
X25995Y37468D01*
X26393Y37303D01*
X26823D01*
X27221Y37468D01*
X27526Y37773D01*
X27691Y38170D01*
Y38601D01*
X27526Y38999D01*
X27221Y39304D01*
X27033Y39382D01*
X27132Y39882D01*
X27165D01*
Y41815D01*
X27494Y42081D01*
X27953Y41886D01*
Y39882D01*
X28495D01*
Y36535D01*
X27835D01*
Y34331D01*
X31440D01*
X32520Y33992D01*
Y33504D01*
X32239Y33120D01*
X28988D01*
X28887Y33078D01*
X28450Y32991D01*
X28082Y32745D01*
X27981Y32703D01*
X27981Y32703D01*
X27980Y32703D01*
X27627Y32350D01*
X26261Y30984D01*
X24982Y30984D01*
X24648Y31091D01*
X24464Y31216D01*
X24279Y31496D01*
X24496Y31823D01*
X24540Y31867D01*
X24705Y32265D01*
Y32696D01*
X24540Y33094D01*
X24235Y33398D01*
X23837Y33563D01*
X23561D01*
X23336Y33850D01*
X23550Y34331D01*
X27283D01*
Y36535D01*
X22835D01*
Y35886D01*
X22736Y35648D01*
Y35218D01*
X22769Y35139D01*
X22661Y34923D01*
X22066Y34760D01*
X22062Y34763D01*
X21625Y34850D01*
X21524Y34891D01*
X20768D01*
Y35827D01*
X18405D01*
X18215Y35931D01*
X17913Y36056D01*
X17698D01*
X17538Y36122D01*
X17108D01*
X16948Y36056D01*
X16517D01*
X16357Y36122D01*
X15926D01*
X15767Y36056D01*
X15335D01*
X15176Y36122D01*
X14745D01*
X14586Y36056D01*
X14154D01*
X13995Y36122D01*
X13564D01*
X13405Y36056D01*
X12973D01*
X12814Y36122D01*
X12383D01*
X12224Y36056D01*
X11792D01*
X11633Y36122D01*
X11202D01*
X11043Y36056D01*
X10827D01*
X10525Y35931D01*
X10401Y35630D01*
Y35414D01*
X10335Y35255D01*
Y34824D01*
X10401Y34665D01*
Y34233D01*
X10335Y34074D01*
Y33643D01*
X10401Y33484D01*
Y33052D01*
X10335Y32893D01*
Y32462D01*
X10401Y32302D01*
Y31871D01*
X10335Y31711D01*
Y31281D01*
X10401Y31121D01*
Y30690D01*
X10335Y30530D01*
Y30100D01*
X10401Y29940D01*
Y29724D01*
X10433Y29647D01*
Y29606D01*
X10239Y29186D01*
X10195Y29100D01*
X8453Y29100D01*
X7953Y29104D01*
X7534Y29092D01*
X7458Y29089D01*
X4823Y28981D01*
X4792Y28974D01*
X3789D01*
Y34018D01*
X5413D01*
X6143Y34164D01*
X6762Y34577D01*
X7175Y35195D01*
X7320Y35925D01*
Y38878D01*
X7175Y39608D01*
X6762Y40226D01*
X6143Y40639D01*
X5413Y40785D01*
X3789D01*
Y45829D01*
X4470D01*
X5731Y45371D01*
D02*
G37*
G36*
X17913Y32087D02*
X20669D01*
Y29724D01*
X10827Y29724D01*
Y35630D01*
X17913D01*
Y32087D01*
D02*
G37*
G36*
X91535Y22835D02*
X88386D01*
Y29724D01*
X84449D01*
Y33268D01*
X81693D01*
X81693Y35630D01*
X91535Y35630D01*
Y22835D01*
D02*
G37*
G36*
X58417Y9612D02*
X58546D01*
Y9089D01*
X58417D01*
Y6851D01*
X60480D01*
Y7300D01*
X61521D01*
X61521Y7292D01*
X61892Y7324D01*
X62005Y7338D01*
X62005Y7339D01*
X62005Y7339D01*
X63697Y7559D01*
X64069Y7235D01*
X64079Y6744D01*
X64051Y6716D01*
X63886Y6318D01*
Y5887D01*
X64051Y5489D01*
X64083Y5457D01*
Y4289D01*
X64083Y4134D01*
X63726Y3789D01*
X38653D01*
X38296Y4134D01*
X38296Y4289D01*
Y5457D01*
X38328Y5489D01*
X38493Y5887D01*
Y6318D01*
X38328Y6716D01*
X38296Y6748D01*
Y7955D01*
X41882D01*
Y6851D01*
X43945D01*
Y9089D01*
X43817D01*
Y9612D01*
X43945D01*
Y9828D01*
X58417D01*
Y9612D01*
D02*
G37*
%LPC*%
G36*
X32284Y150443D02*
X31784Y150443D01*
X28059D01*
X27560Y150443D01*
X27060Y150443D01*
X25197D01*
Y147293D01*
X27559Y147293D01*
X28059Y147293D01*
X31784D01*
X32283Y147293D01*
X32783Y147293D01*
X37008D01*
Y150443D01*
X32284Y150443D01*
D02*
G37*
G36*
X72835D02*
X72335Y150443D01*
X68110D01*
Y147293D01*
X72335D01*
X72834Y147293D01*
X73334Y147293D01*
X75197D01*
Y150443D01*
X72835Y150443D01*
D02*
G37*
G36*
X55334Y152657D02*
X54903D01*
X54505Y152493D01*
X54200Y152188D01*
X54035Y151790D01*
Y151359D01*
X54200Y150961D01*
X54215Y150947D01*
Y150828D01*
X53937Y150443D01*
X53437Y150443D01*
X49212D01*
Y147293D01*
X53437D01*
X53937Y147293D01*
X54437Y147293D01*
X56300D01*
Y150443D01*
X56021D01*
Y150947D01*
X56036Y150961D01*
X56201Y151359D01*
Y151790D01*
X56036Y152188D01*
X55731Y152493D01*
X55334Y152657D01*
D02*
G37*
G36*
X80137Y146555D02*
X79706D01*
X79331Y146400D01*
X78956Y146555D01*
X78525D01*
X78150Y146400D01*
X77774Y146555D01*
X77344D01*
X76946Y146390D01*
X76641Y146086D01*
X76476Y145688D01*
Y145257D01*
X76641Y144859D01*
X76946Y144555D01*
X77344Y144390D01*
X77774D01*
X78150Y144545D01*
X78525Y144390D01*
X78956D01*
X79331Y144545D01*
X79706Y144390D01*
X80137D01*
X80534Y144555D01*
X80839Y144859D01*
X81004Y145257D01*
Y145688D01*
X80839Y146086D01*
X80534Y146390D01*
X80137Y146555D01*
D02*
G37*
G36*
X25019D02*
X24588D01*
X24213Y146400D01*
X23837Y146555D01*
X23407D01*
X23031Y146400D01*
X22656Y146555D01*
X22226D01*
X21828Y146390D01*
X21523Y146086D01*
X21358Y145688D01*
Y145257D01*
X21523Y144859D01*
X21828Y144555D01*
X22226Y144390D01*
X22656D01*
X23031Y144545D01*
X23407Y144390D01*
X23837D01*
X24213Y144545D01*
X24588Y144390D01*
X25019D01*
X25416Y144555D01*
X25721Y144859D01*
X25886Y145257D01*
Y145688D01*
X25721Y146086D01*
X25416Y146390D01*
X25019Y146555D01*
D02*
G37*
G36*
X27165Y139252D02*
X24803D01*
Y136339D01*
X27165D01*
Y139252D01*
D02*
G37*
G36*
X24034Y135925D02*
X23604D01*
X23206Y135760D01*
X22901Y135456D01*
X22736Y135058D01*
Y134627D01*
X22901Y134229D01*
X23206Y133925D01*
X23604Y133760D01*
X24034D01*
X24432Y133925D01*
X24737Y134229D01*
X24902Y134627D01*
Y135058D01*
X24737Y135456D01*
X24432Y135760D01*
X24034Y135925D01*
D02*
G37*
G36*
X14370Y115256D02*
X9646D01*
Y109153D01*
X10335D01*
Y109037D01*
X10401Y108877D01*
Y108446D01*
X10335Y108286D01*
Y107855D01*
X10401Y107696D01*
Y107264D01*
X10335Y107105D01*
Y106674D01*
X10401Y106515D01*
Y106083D01*
X10335Y105924D01*
Y105493D01*
X10401Y105334D01*
Y105118D01*
X10525Y104817D01*
X10827Y104692D01*
X11043D01*
X11202Y104626D01*
X11633D01*
X11792Y104692D01*
X12224D01*
X12383Y104626D01*
X12814D01*
X12973Y104692D01*
X13405D01*
X13564Y104626D01*
X13995D01*
X14154Y104692D01*
X14586D01*
X14745Y104626D01*
X15176D01*
X15335Y104692D01*
X15767D01*
X15926Y104626D01*
X16357D01*
X16517Y104692D01*
X16732D01*
X17034Y104817D01*
X17158Y105118D01*
Y105334D01*
X17224Y105493D01*
Y105924D01*
X17158Y106083D01*
Y106515D01*
X17224Y106674D01*
Y107105D01*
X17158Y107264D01*
Y107696D01*
X17224Y107855D01*
Y108286D01*
X17158Y108446D01*
Y108877D01*
X17224Y109037D01*
Y109467D01*
X17158Y109627D01*
Y110058D01*
X17224Y110218D01*
Y110648D01*
X17158Y110808D01*
Y111024D01*
X17034Y111325D01*
X16732Y111450D01*
X16516D01*
X16357Y111516D01*
X15926D01*
X15767Y111450D01*
X15335D01*
X15176Y111516D01*
X14745D01*
X14370Y111887D01*
Y115256D01*
D02*
G37*
G36*
X36239Y99705D02*
X35808D01*
X35410Y99540D01*
X35106Y99235D01*
X34941Y98837D01*
Y98407D01*
X35106Y98009D01*
X35410Y97704D01*
X35808Y97539D01*
X36239D01*
X36637Y97704D01*
X36652Y97719D01*
X38339D01*
Y95696D01*
X39492D01*
X40264Y94893D01*
X40276Y94888D01*
X40311Y94803D01*
X40306Y94790D01*
Y94198D01*
X40249Y94133D01*
X39806Y93905D01*
X39585Y93996D01*
X39155D01*
X38757Y93831D01*
X38452Y93527D01*
X38287Y93129D01*
Y92698D01*
X38452Y92300D01*
X38757Y91996D01*
X39155Y91831D01*
X39585D01*
X39806Y91922D01*
X40276Y91680D01*
X40318Y91634D01*
X40347Y91564D01*
X40434Y91127D01*
X40680Y90759D01*
X40723Y90657D01*
X41437Y89942D01*
Y89548D01*
X41602Y89151D01*
X41906Y88846D01*
X42304Y88681D01*
X42735D01*
X43133Y88846D01*
X43437Y89151D01*
X43602Y89548D01*
Y89979D01*
X43437Y90377D01*
X43133Y90682D01*
X42735Y90847D01*
X42341D01*
X41915Y91273D01*
X41941Y91440D01*
X42304Y91831D01*
X42735D01*
X43133Y91996D01*
X43437Y92300D01*
X43602Y92698D01*
Y93129D01*
X43437Y93527D01*
X43159Y93805D01*
Y95696D01*
X43551D01*
Y99579D01*
X41488D01*
Y99492D01*
X40402D01*
Y99579D01*
X38339D01*
Y99525D01*
X36652D01*
X36637Y99540D01*
X36239Y99705D01*
D02*
G37*
G36*
X24822Y94587D02*
X24391D01*
X23993Y94422D01*
X23688Y94117D01*
X23524Y93719D01*
Y93289D01*
X23688Y92891D01*
X23993Y92586D01*
X24391Y92421D01*
X24822D01*
X25220Y92586D01*
X25524Y92891D01*
X25689Y93289D01*
Y93719D01*
X25524Y94117D01*
X25220Y94422D01*
X24822Y94587D01*
D02*
G37*
G36*
X52172Y93937D02*
X51765D01*
X51388Y93781D01*
X51100Y93493D01*
X50945Y93117D01*
Y92710D01*
X51100Y92333D01*
X51388Y92045D01*
X51765Y91890D01*
X52172D01*
X52548Y92045D01*
X52836Y92333D01*
X52992Y92710D01*
Y93117D01*
X52836Y93493D01*
X52548Y93781D01*
X52172Y93937D01*
D02*
G37*
G36*
X49023D02*
X48616D01*
X48239Y93781D01*
X47951Y93493D01*
X47796Y93117D01*
Y92710D01*
X47951Y92333D01*
X48239Y92045D01*
X48616Y91890D01*
X49023D01*
X49399Y92045D01*
X49687Y92333D01*
X49843Y92710D01*
Y93117D01*
X49687Y93493D01*
X49399Y93781D01*
X49023Y93937D01*
D02*
G37*
G36*
X45873D02*
X45465D01*
X45089Y93781D01*
X44801Y93493D01*
X44646Y93117D01*
Y92710D01*
X44801Y92333D01*
X45089Y92045D01*
X45465Y91890D01*
X45873D01*
X46249Y92045D01*
X46537Y92333D01*
X46693Y92710D01*
Y93117D01*
X46537Y93493D01*
X46249Y93781D01*
X45873Y93937D01*
D02*
G37*
G36*
X36424D02*
X36016D01*
X35640Y93781D01*
X35352Y93493D01*
X35197Y93117D01*
Y92710D01*
X35352Y92333D01*
X35640Y92045D01*
X36016Y91890D01*
X36424D01*
X36800Y92045D01*
X37088Y92333D01*
X37244Y92710D01*
Y93117D01*
X37088Y93493D01*
X36800Y93781D01*
X36424Y93937D01*
D02*
G37*
G36*
X29743Y100689D02*
X29312D01*
X28914Y100524D01*
X28610Y100220D01*
X28445Y99822D01*
Y99391D01*
X28610Y98993D01*
X28914Y98689D01*
X29312Y98524D01*
X29706D01*
X32388Y95841D01*
X32401Y95836D01*
X32437Y95749D01*
X32432Y95737D01*
Y93721D01*
X32203Y93493D01*
X32048Y93117D01*
Y92710D01*
X32203Y92333D01*
X32491Y92045D01*
X32868Y91890D01*
X33275D01*
X33651Y92045D01*
X33939Y92333D01*
X34095Y92710D01*
Y93117D01*
X33939Y93493D01*
X33710Y93721D01*
Y95737D01*
X33669Y95837D01*
X33582Y96274D01*
X33334Y96645D01*
X33292Y96745D01*
X33292Y96745D01*
X33292Y96745D01*
X33292Y96745D01*
X30610Y99428D01*
Y99822D01*
X30445Y100220D01*
X30141Y100524D01*
X29743Y100689D01*
D02*
G37*
G36*
X52172Y90788D02*
X51765D01*
X51388Y90632D01*
X51100Y90344D01*
X50945Y89968D01*
Y89561D01*
X51100Y89184D01*
X51388Y88896D01*
X51765Y88741D01*
X52172D01*
X52548Y88896D01*
X52836Y89184D01*
X52992Y89561D01*
Y89968D01*
X52836Y90344D01*
X52548Y90632D01*
X52172Y90788D01*
D02*
G37*
G36*
X45873D02*
X45465D01*
X45089Y90632D01*
X44801Y90344D01*
X44646Y89968D01*
Y89561D01*
X44801Y89184D01*
X45089Y88896D01*
X45465Y88741D01*
X45873D01*
X46249Y88896D01*
X46537Y89184D01*
X46693Y89561D01*
Y89968D01*
X46537Y90344D01*
X46249Y90632D01*
X45873Y90788D01*
D02*
G37*
G36*
X49034Y90847D02*
X48603D01*
X48206Y90682D01*
X47901Y90377D01*
X47736Y89979D01*
Y89548D01*
X47901Y89151D01*
X48206Y88846D01*
X48603Y88681D01*
X49034D01*
X49432Y88846D01*
X49737Y89151D01*
X49902Y89548D01*
Y89979D01*
X49737Y90377D01*
X49432Y90682D01*
X49034Y90847D01*
D02*
G37*
G36*
X39585D02*
X39155D01*
X38757Y90682D01*
X38452Y90377D01*
X38287Y89979D01*
Y89548D01*
X38452Y89151D01*
X38757Y88846D01*
X39155Y88681D01*
X39585D01*
X39983Y88846D01*
X40288Y89151D01*
X40453Y89548D01*
Y89979D01*
X40288Y90377D01*
X39983Y90682D01*
X39585Y90847D01*
D02*
G37*
G36*
X77953Y100616D02*
X77454Y100516D01*
X77030Y100233D01*
X76748Y99810D01*
X76648Y99311D01*
Y96949D01*
X76687Y96754D01*
X76709Y96557D01*
X76736Y96506D01*
X76748Y96450D01*
X76858Y96284D01*
X76953Y96110D01*
X76998Y96074D01*
X77030Y96026D01*
X77195Y95916D01*
X77350Y95792D01*
X77353Y95790D01*
X77407Y95774D01*
X77454Y95744D01*
X77518Y95731D01*
X78317Y95400D01*
X79576Y95234D01*
Y95250D01*
X80354D01*
Y94449D01*
X80256Y94212D01*
Y93781D01*
X80354Y93543D01*
Y92716D01*
X84638D01*
X84685Y92716D01*
X85138Y92603D01*
Y92304D01*
X85293Y91929D01*
X85138Y91554D01*
Y91123D01*
X85293Y90748D01*
X85138Y90373D01*
Y89942D01*
X85293Y89567D01*
X85138Y89192D01*
Y88761D01*
X85293Y88386D01*
X85138Y88011D01*
Y87580D01*
X85293Y87205D01*
X85138Y86830D01*
Y86399D01*
X85293Y86024D01*
X85138Y85648D01*
Y85218D01*
X85293Y84842D01*
X85138Y84467D01*
Y84037D01*
X85293Y83661D01*
X85138Y83286D01*
Y82855D01*
X85303Y82458D01*
X85607Y82153D01*
X86005Y81988D01*
X86436D01*
X86811Y82144D01*
X87186Y81988D01*
X87617D01*
X87992Y82144D01*
X88367Y81988D01*
X88798D01*
X89173Y82144D01*
X89548Y81988D01*
X89979D01*
X90354Y82144D01*
X90729Y81988D01*
X91160D01*
X91558Y82153D01*
X91863Y82458D01*
X92027Y82855D01*
Y83286D01*
X91872Y83661D01*
X92027Y84037D01*
Y84467D01*
X91872Y84842D01*
X92027Y85218D01*
Y85648D01*
X91872Y86024D01*
X92027Y86399D01*
Y86830D01*
X91872Y87205D01*
X92027Y87580D01*
Y88011D01*
X91872Y88386D01*
X92027Y88761D01*
Y89192D01*
X91872Y89567D01*
X92027Y89942D01*
Y90373D01*
X91872Y90748D01*
X92027Y91123D01*
Y91554D01*
X91872Y91929D01*
X92027Y92304D01*
Y92735D01*
X91872Y93110D01*
X92027Y93485D01*
Y93916D01*
X91863Y94314D01*
X91558Y94619D01*
X91160Y94784D01*
X90729D01*
X90354Y94628D01*
X89979Y94784D01*
X89548D01*
X89173Y94628D01*
X88798Y94784D01*
X88367D01*
X87992Y94628D01*
X87617Y94784D01*
X87186D01*
X86811Y94628D01*
X86436Y94784D01*
X86005D01*
X85607Y94619D01*
X85303Y94314D01*
X84821Y94458D01*
X84685Y94573D01*
Y97835D01*
X82645D01*
X82520Y97860D01*
X81634Y97860D01*
X79576D01*
X79257Y98224D01*
Y99311D01*
X79158Y99810D01*
X78875Y100233D01*
X78452Y100516D01*
X77953Y100616D01*
D02*
G37*
G36*
X52184Y81398D02*
X51753D01*
X51355Y81233D01*
X51340Y81218D01*
X49447D01*
X49432Y81233D01*
X49034Y81398D01*
X48604D01*
X48206Y81233D01*
X48191Y81218D01*
X46163D01*
X45873Y81339D01*
X45465D01*
X45175Y81218D01*
X43014D01*
X42724Y81339D01*
X42316D01*
X41940Y81183D01*
X41652Y80895D01*
X41497Y80519D01*
Y80111D01*
X41652Y79735D01*
X41940Y79447D01*
X42316Y79292D01*
X42724D01*
X43014Y79412D01*
X45175D01*
X45465Y79292D01*
X45873D01*
X46163Y79412D01*
X48191D01*
X48206Y79397D01*
X48604Y79233D01*
X49034D01*
X49432Y79397D01*
X49447Y79412D01*
X51340D01*
X51355Y79397D01*
X51753Y79233D01*
X52184D01*
X52581Y79397D01*
X52886Y79702D01*
X53051Y80100D01*
Y80531D01*
X52886Y80928D01*
X52581Y81233D01*
X52184Y81398D01*
D02*
G37*
G36*
X20688Y81791D02*
X20257D01*
X19859Y81626D01*
X19555Y81322D01*
X19390Y80924D01*
Y80493D01*
X19555Y80095D01*
X19859Y79791D01*
X20257Y79626D01*
X20688D01*
X21086Y79791D01*
X21390Y80095D01*
X21555Y80493D01*
Y80924D01*
X21390Y81322D01*
X21086Y81626D01*
X20688Y81791D01*
D02*
G37*
G36*
X58483Y81398D02*
X58053D01*
X57655Y81233D01*
X57350Y80928D01*
X57185Y80531D01*
Y80100D01*
X57350Y79702D01*
X57655Y79397D01*
X58053Y79233D01*
X58483D01*
X58881Y79397D01*
X59186Y79702D01*
X59351Y80100D01*
Y80531D01*
X59186Y80928D01*
X58881Y81233D01*
X58483Y81398D01*
D02*
G37*
G36*
X55334Y81398D02*
X54903D01*
X54505Y81233D01*
X54200Y80928D01*
X54035Y80530D01*
Y80100D01*
X54200Y79702D01*
X54505Y79397D01*
X54903Y79232D01*
X55334D01*
X55731Y79397D01*
X56036Y79702D01*
X56201Y80100D01*
Y80530D01*
X56036Y80928D01*
X55731Y81233D01*
X55334Y81398D01*
D02*
G37*
G36*
X39585D02*
X39155D01*
X38757Y81233D01*
X38452Y80928D01*
X38287Y80530D01*
Y80100D01*
X38452Y79702D01*
X38757Y79397D01*
X39155Y79232D01*
X39585D01*
X39983Y79397D01*
X40288Y79702D01*
X40453Y80100D01*
Y80530D01*
X40288Y80928D01*
X39983Y81233D01*
X39585Y81398D01*
D02*
G37*
G36*
X55334Y78248D02*
X54903D01*
X54505Y78083D01*
X54200Y77779D01*
X54035Y77381D01*
Y76950D01*
X54200Y76552D01*
X54505Y76248D01*
X54903Y76083D01*
X55334D01*
X55731Y76248D01*
X56036Y76552D01*
X56201Y76950D01*
Y77381D01*
X56036Y77779D01*
X55731Y78083D01*
X55334Y78248D01*
D02*
G37*
G36*
X58483Y78248D02*
X58053D01*
X57655Y78083D01*
X57350Y77778D01*
X57185Y77381D01*
Y76950D01*
X57350Y76552D01*
X57655Y76247D01*
X58053Y76082D01*
X58483D01*
X58881Y76247D01*
X59186Y76552D01*
X59351Y76950D01*
Y77381D01*
X59186Y77778D01*
X58881Y78083D01*
X58483Y78248D01*
D02*
G37*
G36*
X22209Y78721D02*
X16796D01*
Y76004D01*
X22209D01*
Y78721D01*
D02*
G37*
G36*
X61621Y75040D02*
X61213D01*
X60837Y74884D01*
X60549Y74596D01*
X60394Y74220D01*
Y73813D01*
X60549Y73436D01*
X60837Y73148D01*
X61213Y72993D01*
X61621D01*
X61997Y73148D01*
X62285Y73436D01*
X62441Y73813D01*
Y74220D01*
X62285Y74596D01*
X61997Y74884D01*
X61621Y75040D01*
D02*
G37*
G36*
X52172D02*
X51765D01*
X51388Y74884D01*
X51100Y74596D01*
X50945Y74220D01*
Y73813D01*
X51100Y73436D01*
X51388Y73148D01*
X51765Y72993D01*
X52172D01*
X52548Y73148D01*
X52836Y73436D01*
X52992Y73813D01*
Y74220D01*
X52836Y74596D01*
X52548Y74884D01*
X52172Y75040D01*
D02*
G37*
G36*
X58483Y75099D02*
X58053D01*
X57655Y74934D01*
X57350Y74629D01*
X57185Y74231D01*
Y73801D01*
X57350Y73403D01*
X57655Y73098D01*
X58053Y72934D01*
X58483D01*
X58881Y73098D01*
X59186Y73403D01*
X59351Y73801D01*
Y74231D01*
X59186Y74629D01*
X58881Y74934D01*
X58483Y75099D01*
D02*
G37*
G36*
X55334Y75098D02*
X54903D01*
X54505Y74934D01*
X54200Y74629D01*
X54035Y74231D01*
Y73800D01*
X54200Y73403D01*
X54505Y73098D01*
X54903Y72933D01*
X55334D01*
X55731Y73098D01*
X56036Y73403D01*
X56201Y73800D01*
Y74231D01*
X56036Y74629D01*
X55731Y74934D01*
X55334Y75098D01*
D02*
G37*
G36*
X28385Y75047D02*
X26147D01*
Y74255D01*
X24189Y72244D01*
X22559D01*
X22209Y72421D01*
Y72421D01*
X21510D01*
X21303Y72921D01*
X21390Y73009D01*
X21555Y73407D01*
Y73837D01*
X21390Y74235D01*
X21086Y74540D01*
X20688Y74705D01*
X20257D01*
X19859Y74540D01*
X19555Y74235D01*
X19390Y73837D01*
Y73407D01*
X19555Y73009D01*
X19642Y72921D01*
X19435Y72421D01*
X16796D01*
Y69705D01*
X19435D01*
X19642Y69205D01*
X19555Y69117D01*
X19390Y68719D01*
Y68289D01*
X19555Y67891D01*
X19859Y67586D01*
Y67060D01*
X19555Y66755D01*
X19390Y66357D01*
Y65926D01*
X19555Y65528D01*
X19642Y65441D01*
X19435Y64941D01*
X16796D01*
Y62225D01*
X22209D01*
Y64941D01*
X21510D01*
X21303Y65441D01*
X21390Y65528D01*
X21555Y65926D01*
Y66357D01*
X21390Y66755D01*
X21086Y67060D01*
Y67586D01*
X21390Y67891D01*
X21555Y68289D01*
Y68719D01*
X21390Y69117D01*
X21303Y69205D01*
X21510Y69705D01*
X22209D01*
Y69705D01*
X22559Y69882D01*
X25473D01*
Y70973D01*
X27431Y72984D01*
X28385D01*
Y75047D01*
D02*
G37*
G36*
X52172Y71890D02*
X51765D01*
X51388Y71734D01*
X51100Y71446D01*
X50945Y71070D01*
Y70662D01*
X51100Y70286D01*
X51388Y69998D01*
X51765Y69843D01*
X52172D01*
X52548Y69998D01*
X52836Y70286D01*
X52992Y70662D01*
Y71070D01*
X52836Y71446D01*
X52548Y71734D01*
X52172Y71890D01*
D02*
G37*
G36*
X49023D02*
X48616D01*
X48239Y71734D01*
X47951Y71446D01*
X47796Y71070D01*
Y70662D01*
X47951Y70286D01*
X48239Y69998D01*
X48616Y69843D01*
X49023D01*
X49399Y69998D01*
X49687Y70286D01*
X49843Y70662D01*
Y71070D01*
X49687Y71446D01*
X49399Y71734D01*
X49023Y71890D01*
D02*
G37*
G36*
X55334Y71949D02*
X54903D01*
X54505Y71784D01*
X54200Y71479D01*
X54035Y71082D01*
Y70651D01*
X54200Y70253D01*
X54505Y69948D01*
X54903Y69784D01*
X55334D01*
X55731Y69948D01*
X56036Y70253D01*
X56201Y70651D01*
Y71082D01*
X56036Y71479D01*
X55731Y71784D01*
X55334Y71949D01*
D02*
G37*
G36*
X45885D02*
X45454D01*
X45056Y71784D01*
X44751Y71479D01*
X44587Y71082D01*
Y70651D01*
X44751Y70253D01*
X45056Y69948D01*
X45454Y69784D01*
X45885D01*
X46283Y69948D01*
X46587Y70253D01*
X46752Y70651D01*
Y71082D01*
X46587Y71479D01*
X46283Y71784D01*
X45885Y71949D01*
D02*
G37*
G36*
X42735D02*
X42304D01*
X41906Y71784D01*
X41602Y71479D01*
X41437Y71082D01*
Y70651D01*
X41602Y70253D01*
X41906Y69948D01*
X42304Y69784D01*
X42735D01*
X43133Y69948D01*
X43437Y70253D01*
X43602Y70651D01*
Y71082D01*
X43437Y71479D01*
X43133Y71784D01*
X42735Y71949D01*
D02*
G37*
G36*
X39585D02*
X39155D01*
X38757Y71784D01*
X38452Y71479D01*
X38287Y71082D01*
Y70651D01*
X38452Y70253D01*
X38757Y69948D01*
X39155Y69784D01*
X39585D01*
X39983Y69948D01*
X40288Y70253D01*
X40453Y70651D01*
Y71082D01*
X40288Y71479D01*
X39983Y71784D01*
X39585Y71949D01*
D02*
G37*
G36*
X85406Y72685D02*
X81523D01*
Y71546D01*
X81142Y71260D01*
X76811D01*
Y68701D01*
Y66142D01*
Y63583D01*
Y61024D01*
X81142D01*
Y61024D01*
X81266Y61173D01*
X83810D01*
Y58963D01*
X83531Y58684D01*
X83366Y58286D01*
Y57855D01*
X83531Y57458D01*
X83836Y57153D01*
X84233Y56988D01*
X84664D01*
X84736Y57018D01*
X85236Y56684D01*
Y56378D01*
X85204Y56299D01*
Y56083D01*
X85138Y55924D01*
Y55493D01*
X85204Y55334D01*
Y54902D01*
X85138Y54743D01*
Y54312D01*
X85204Y54153D01*
Y53721D01*
X85138Y53562D01*
Y53131D01*
X85204Y52972D01*
Y52540D01*
X85138Y52381D01*
Y51950D01*
X85204Y51791D01*
Y51359D01*
X85138Y51200D01*
Y50769D01*
X85204Y50610D01*
Y50394D01*
X85329Y50092D01*
X85630Y49968D01*
X85846D01*
X86005Y49902D01*
X86436D01*
X86595Y49968D01*
X87027D01*
X87186Y49902D01*
X87617D01*
X87992Y49530D01*
Y46161D01*
X92716D01*
Y52264D01*
X92028D01*
Y52381D01*
X91962Y52540D01*
Y52972D01*
X92028Y53131D01*
Y53562D01*
X91962Y53721D01*
Y54153D01*
X92028Y54312D01*
Y54743D01*
X91962Y54902D01*
Y55334D01*
X92028Y55493D01*
Y55924D01*
X91962Y56083D01*
Y56299D01*
X91837Y56600D01*
X91535Y56725D01*
X91320D01*
X91160Y56791D01*
X90729D01*
X90570Y56725D01*
X90139D01*
X89979Y56791D01*
X89548D01*
X89389Y56725D01*
X88957D01*
X88798Y56791D01*
X88780D01*
Y58785D01*
X88900Y58894D01*
X89280Y59068D01*
X89548Y58957D01*
X89979D01*
X90377Y59122D01*
X90682Y59426D01*
X90847Y59824D01*
Y60255D01*
X90691Y60630D01*
X90847Y61005D01*
Y61436D01*
X90691Y61811D01*
X90847Y62186D01*
Y62617D01*
X90682Y63015D01*
X90377Y63319D01*
X89979Y63484D01*
X89548D01*
X89151Y63319D01*
X88846Y63015D01*
X88681Y62617D01*
Y62186D01*
X88836Y61811D01*
X88681Y61436D01*
Y61005D01*
X88711Y60933D01*
X88380Y60433D01*
X87461D01*
X87223Y60532D01*
X86793D01*
X86555Y60433D01*
X85594D01*
X85302Y60933D01*
X85438Y61173D01*
X85663D01*
Y63236D01*
X85663D01*
X85406Y63630D01*
Y64129D01*
X85498Y64352D01*
Y64782D01*
X85406Y65005D01*
Y65598D01*
X84755D01*
X84631Y65650D01*
X84200D01*
X84077Y65598D01*
X83880D01*
X83504Y65898D01*
Y67760D01*
X83504Y68245D01*
X83504Y68260D01*
X83504D01*
Y70323D01*
X83880Y70622D01*
X85406D01*
Y71014D01*
X91406D01*
X91419Y71020D01*
X91505Y70984D01*
X91511Y70971D01*
X93405Y69076D01*
Y68682D01*
X93570Y68284D01*
X93875Y67980D01*
X94273Y67815D01*
X94704D01*
X95101Y67980D01*
X95406Y68284D01*
X95571Y68682D01*
Y69113D01*
X95406Y69511D01*
X95101Y69815D01*
X94704Y69980D01*
X94310D01*
X92415Y71875D01*
X92314Y71917D01*
X91944Y72164D01*
X91507Y72251D01*
X91406Y72293D01*
X85406D01*
Y72685D01*
D02*
G37*
G36*
X61621Y68740D02*
X61213D01*
X60837Y68584D01*
X60549Y68296D01*
X60394Y67920D01*
Y67513D01*
X60549Y67136D01*
X60837Y66848D01*
X61213Y66693D01*
X61621D01*
X61997Y66848D01*
X62285Y67136D01*
X62441Y67513D01*
Y67920D01*
X62285Y68296D01*
X61997Y68584D01*
X61621Y68740D01*
D02*
G37*
G36*
X55334Y68799D02*
X54903D01*
X54505Y68634D01*
X54200Y68330D01*
X54035Y67932D01*
Y67501D01*
X54200Y67103D01*
X54505Y66799D01*
X54903Y66634D01*
X55334D01*
X55731Y66799D01*
X56036Y67103D01*
X56201Y67501D01*
Y67932D01*
X56036Y68330D01*
X55731Y68634D01*
X55334Y68799D01*
D02*
G37*
G36*
X49034D02*
X48603D01*
X48206Y68634D01*
X47901Y68330D01*
X47736Y67932D01*
Y67501D01*
X47901Y67103D01*
X48206Y66799D01*
X48603Y66634D01*
X49034D01*
X49432Y66799D01*
X49737Y67103D01*
X49902Y67501D01*
Y67932D01*
X49737Y68330D01*
X49432Y68634D01*
X49034Y68799D01*
D02*
G37*
G36*
X45885D02*
X45454D01*
X45056Y68634D01*
X44751Y68330D01*
X44587Y67932D01*
Y67501D01*
X44751Y67103D01*
X45056Y66799D01*
X45454Y66634D01*
X45885D01*
X46283Y66799D01*
X46587Y67103D01*
X46752Y67501D01*
Y67932D01*
X46587Y68330D01*
X46283Y68634D01*
X45885Y68799D01*
D02*
G37*
G36*
X58483Y68799D02*
X58053D01*
X57655Y68634D01*
X57350Y68329D01*
X57185Y67931D01*
Y67501D01*
X57350Y67103D01*
X57655Y66798D01*
X58053Y66633D01*
X58483D01*
X58881Y66798D01*
X59186Y67103D01*
X59351Y67501D01*
Y67931D01*
X59186Y68329D01*
X58881Y68634D01*
X58483Y68799D01*
D02*
G37*
G36*
X42735Y68799D02*
X42304D01*
X41906Y68634D01*
X41602Y68330D01*
X41437Y67932D01*
Y67501D01*
X41602Y67103D01*
X41906Y66799D01*
X42304Y66634D01*
X42603D01*
X43200Y65934D01*
X42898Y65519D01*
X42724Y65591D01*
X42316D01*
X42084Y65495D01*
X41949Y65518D01*
X41678Y65627D01*
X41532Y65734D01*
X41456Y66119D01*
X41287Y66371D01*
X41243Y66507D01*
X40433Y67455D01*
X40453Y67501D01*
Y67932D01*
X40288Y68330D01*
X39983Y68634D01*
X39585Y68799D01*
X39155D01*
X38757Y68634D01*
X38452Y68330D01*
X38287Y67932D01*
Y67501D01*
X38452Y67103D01*
X38757Y66799D01*
X39155Y66634D01*
X39453D01*
X39966Y66033D01*
X39664Y65617D01*
X39585Y65650D01*
X39155D01*
X38934Y65558D01*
X38821Y65563D01*
X38658Y65608D01*
X38509Y65688D01*
X38368Y65803D01*
X38306Y66118D01*
X38058Y66489D01*
X38017Y66589D01*
X38017Y66589D01*
X38017Y66589D01*
X37245Y67361D01*
X37303Y67501D01*
Y67932D01*
X37138Y68330D01*
X36834Y68634D01*
X36436Y68799D01*
X36005D01*
X35607Y68634D01*
X35303Y68330D01*
X35138Y67932D01*
Y67501D01*
X35303Y67103D01*
X35607Y66799D01*
X36005Y66634D01*
X36164D01*
X36837Y65961D01*
X36554Y65537D01*
X36424Y65591D01*
X36016D01*
X35640Y65435D01*
X35352Y65147D01*
X35197Y64771D01*
Y64363D01*
X35352Y63987D01*
X35640Y63699D01*
X36016Y63544D01*
X36424D01*
X36656Y63640D01*
X37051Y63452D01*
X37156Y63348D01*
Y62850D01*
X37114Y62746D01*
X36348Y61981D01*
X35189D01*
Y60855D01*
X34784Y60561D01*
X34325Y60710D01*
X34078Y60957D01*
X33680Y61122D01*
X33249D01*
X32851Y60957D01*
X32547Y60653D01*
X32382Y60255D01*
Y59824D01*
X32547Y59426D01*
X32851Y59122D01*
X33249Y58957D01*
X33680D01*
X33766Y58992D01*
X35189Y58531D01*
Y58098D01*
X37252D01*
Y58185D01*
X38339D01*
Y58098D01*
X40402D01*
Y58185D01*
X41488D01*
Y58098D01*
X43551D01*
Y61082D01*
X44337Y61900D01*
X44383Y62016D01*
X44605Y62349D01*
X44692Y62786D01*
X44734Y62887D01*
Y63348D01*
X44839Y63452D01*
X45234Y63640D01*
X45465Y63544D01*
X45873D01*
X46249Y63699D01*
X46537Y63987D01*
X46693Y64363D01*
Y64771D01*
X46537Y65147D01*
X46249Y65435D01*
X45873Y65591D01*
X45465D01*
X45234Y65495D01*
X45098Y65518D01*
X44827Y65627D01*
X44682Y65734D01*
X44605Y66119D01*
X44436Y66372D01*
X44392Y66507D01*
X43583Y67455D01*
X43602Y67501D01*
Y67932D01*
X43437Y68330D01*
X43133Y68634D01*
X42735Y68799D01*
D02*
G37*
G36*
X61621Y65591D02*
X61213D01*
X60837Y65435D01*
X60549Y65147D01*
X60394Y64771D01*
Y64363D01*
X60549Y63987D01*
X60837Y63699D01*
X61213Y63544D01*
X61621D01*
X61997Y63699D01*
X62285Y63987D01*
X62441Y64363D01*
Y64771D01*
X62285Y65147D01*
X61997Y65435D01*
X61621Y65591D01*
D02*
G37*
G36*
X33275D02*
X32868D01*
X32491Y65435D01*
X32203Y65147D01*
X32048Y64771D01*
Y64363D01*
X32203Y63987D01*
X32491Y63699D01*
X32868Y63544D01*
X33275D01*
X33651Y63699D01*
X33939Y63987D01*
X34095Y64363D01*
Y64771D01*
X33939Y65147D01*
X33651Y65435D01*
X33275Y65591D01*
D02*
G37*
G36*
X58483Y65650D02*
X58052D01*
X57654Y65485D01*
X57350Y65180D01*
X57185Y64782D01*
Y64352D01*
X57350Y63954D01*
X57654Y63649D01*
X58052Y63484D01*
X58483D01*
X58881Y63649D01*
X59186Y63954D01*
X59350Y64352D01*
Y64782D01*
X59186Y65180D01*
X58881Y65485D01*
X58483Y65650D01*
D02*
G37*
G36*
X55334D02*
X54903D01*
X54505Y65485D01*
X54200Y65180D01*
X54035Y64782D01*
Y64352D01*
X54200Y63954D01*
X54505Y63649D01*
X54903Y63484D01*
X55334D01*
X55731Y63649D01*
X56036Y63954D01*
X56201Y64352D01*
Y64782D01*
X56036Y65180D01*
X55731Y65485D01*
X55334Y65650D01*
D02*
G37*
%LPD*%
G36*
X16732Y105118D02*
X10827D01*
Y111024D01*
X16732D01*
Y105118D01*
D02*
G37*
G36*
X91535Y50394D02*
X85630D01*
Y56299D01*
X91535D01*
Y50394D01*
D02*
G37*
%LPC*%
G36*
X77559Y25079D02*
X75197D01*
Y22165D01*
X77559D01*
Y25079D01*
D02*
G37*
G36*
X41671Y21635D02*
X41241D01*
X40843Y21470D01*
X40538Y21165D01*
X40373Y20767D01*
Y20337D01*
X40538Y19939D01*
X40843Y19634D01*
X41241Y19469D01*
X41671D01*
X42069Y19634D01*
X42374Y19939D01*
X42539Y20337D01*
Y20767D01*
X42374Y21165D01*
X42069Y21470D01*
X41671Y21635D01*
D02*
G37*
G36*
X28759Y20768D02*
X28328D01*
X27930Y20603D01*
X27626Y20298D01*
X27461Y19900D01*
Y19470D01*
X27626Y19072D01*
X27930Y18767D01*
X28328Y18602D01*
X28759D01*
X29157Y18767D01*
X29461Y19072D01*
X29626Y19470D01*
Y19900D01*
X29461Y20298D01*
X29157Y20603D01*
X28759Y20768D01*
D02*
G37*
G36*
X60058Y18012D02*
X59627D01*
X59229Y17847D01*
X58925Y17542D01*
X58760Y17144D01*
Y16714D01*
X58925Y16316D01*
X59229Y16011D01*
X59627Y15846D01*
X60058D01*
X60456Y16011D01*
X60760Y16316D01*
X60925Y16714D01*
Y17144D01*
X60760Y17542D01*
X60456Y17847D01*
X60058Y18012D01*
D02*
G37*
G36*
X73729Y17519D02*
X71957D01*
Y16196D01*
X71925Y16164D01*
X71760Y15766D01*
Y15335D01*
X71925Y14938D01*
X71957Y14906D01*
Y13582D01*
X73729D01*
Y14906D01*
X73761Y14938D01*
X73926Y15335D01*
Y15766D01*
X73761Y16164D01*
X73729Y16196D01*
Y17519D01*
D02*
G37*
G36*
X65855D02*
X64083D01*
Y13582D01*
X65855D01*
Y17519D01*
D02*
G37*
G36*
X34359D02*
X32587D01*
Y16196D01*
X32555Y16164D01*
X32390Y15766D01*
Y15335D01*
X32555Y14938D01*
X32587Y14906D01*
Y13582D01*
X34359D01*
Y14906D01*
X34391Y14938D01*
X34556Y15335D01*
Y15766D01*
X34391Y16164D01*
X34359Y16196D01*
Y17519D01*
D02*
G37*
G36*
X26485D02*
X24713D01*
Y13582D01*
X26485D01*
Y17519D01*
D02*
G37*
G36*
X27184Y11909D02*
X26753D01*
X26404Y11765D01*
X25926Y11713D01*
X25925Y11713D01*
X25925Y11713D01*
X24602D01*
X24570Y11745D01*
X24172Y11909D01*
X23742D01*
X23344Y11745D01*
X23312Y11713D01*
X21989D01*
Y9941D01*
X23312D01*
X23344Y9909D01*
X23742Y9744D01*
X24172D01*
X24570Y9909D01*
X24602Y9941D01*
X25925D01*
X25926Y9941D01*
X26404Y9889D01*
X26753Y9744D01*
X27184D01*
X27582Y9909D01*
X27886Y10214D01*
X28051Y10611D01*
Y11042D01*
X27886Y11440D01*
X27582Y11745D01*
X27184Y11909D01*
D02*
G37*
G36*
X78620D02*
X78190D01*
X77792Y11745D01*
X77760Y11713D01*
X76437D01*
Y9941D01*
X77760D01*
X77792Y9909D01*
X78190Y9744D01*
X78620D01*
X79018Y9909D01*
X79050Y9941D01*
X80374D01*
Y11713D01*
X79050D01*
X79018Y11745D01*
X78620Y11909D01*
D02*
G37*
%LPD*%
D17*
X82520Y91437D02*
D03*
Y93996D02*
D03*
Y96555D02*
D03*
Y99114D02*
D03*
X72599D02*
D03*
Y96555D02*
D03*
Y93996D02*
D03*
Y91437D02*
D03*
X78976Y69980D02*
D03*
Y67421D02*
D03*
Y64862D02*
D03*
Y62303D02*
D03*
X69055D02*
D03*
Y64862D02*
D03*
Y67421D02*
D03*
Y69980D02*
D03*
D18*
X26378Y148868D02*
D03*
X28741D02*
D03*
X31102D02*
D03*
X33465D02*
D03*
X35827D02*
D03*
X38189D02*
D03*
X50393D02*
D03*
X52755D02*
D03*
X55119D02*
D03*
X57481D02*
D03*
X69291D02*
D03*
X71653D02*
D03*
X74016D02*
D03*
X76378D02*
D03*
X82776Y127165D02*
D03*
X85335D02*
D03*
X87894D02*
D03*
X90453D02*
D03*
Y138976D02*
D03*
X87894D02*
D03*
X85335D02*
D03*
X82776D02*
D03*
Y118504D02*
D03*
X85335D02*
D03*
X87894D02*
D03*
X90453D02*
D03*
Y106693D02*
D03*
X87894D02*
D03*
X85335D02*
D03*
X82776D02*
D03*
Y42913D02*
D03*
X85335D02*
D03*
X87894D02*
D03*
X90453D02*
D03*
Y31102D02*
D03*
X87894D02*
D03*
X85335D02*
D03*
X82776D02*
D03*
X19587Y22441D02*
D03*
X17028D02*
D03*
X14469D02*
D03*
X11909D02*
D03*
Y34252D02*
D03*
X14469D02*
D03*
X17028D02*
D03*
X19587D02*
D03*
Y54724D02*
D03*
X17028D02*
D03*
X14469D02*
D03*
X11909D02*
D03*
Y42913D02*
D03*
X14469D02*
D03*
X17028D02*
D03*
X19587D02*
D03*
Y118504D02*
D03*
X17028D02*
D03*
X14469D02*
D03*
X11909D02*
D03*
Y130315D02*
D03*
X14469D02*
D03*
X17028D02*
D03*
X19587D02*
D03*
D19*
X41929Y154281D02*
D03*
X22638D02*
D03*
X46654D02*
D03*
X61221D02*
D03*
X65551D02*
D03*
X80118D02*
D03*
D20*
X6742Y90354D02*
D03*
Y104921D02*
D03*
D21*
X12155Y94094D02*
D03*
Y96456D02*
D03*
Y98819D02*
D03*
Y101181D02*
D03*
D22*
X54528Y104921D02*
D03*
Y102362D02*
D03*
Y99803D02*
D03*
X62008D02*
D03*
Y102362D02*
D03*
Y104921D02*
D03*
D23*
X72303Y137795D02*
D03*
X77303D02*
D03*
Y125984D02*
D03*
X72303D02*
D03*
Y114173D02*
D03*
X77303D02*
D03*
X25059Y23622D02*
D03*
X30059D02*
D03*
Y35433D02*
D03*
X25059D02*
D03*
Y47244D02*
D03*
X30059D02*
D03*
Y108268D02*
D03*
X25059D02*
D03*
Y120079D02*
D03*
X30059D02*
D03*
Y131890D02*
D03*
X25059D02*
D03*
X77303Y53150D02*
D03*
X72303D02*
D03*
Y41339D02*
D03*
X77303D02*
D03*
Y29528D02*
D03*
X72303D02*
D03*
D24*
X86615Y130433D02*
D03*
Y109961D02*
D03*
Y34370D02*
D03*
X15747Y30984D02*
D03*
Y51456D02*
D03*
Y127047D02*
D03*
D25*
X86615Y134725D02*
D03*
Y114253D02*
D03*
Y38662D02*
D03*
X15747Y26692D02*
D03*
Y47164D02*
D03*
Y122755D02*
D03*
D26*
X10419Y84842D02*
D03*
Y81102D02*
D03*
Y77362D02*
D03*
Y63583D02*
D03*
Y67323D02*
D03*
Y71063D02*
D03*
D27*
X19503Y77362D02*
D03*
Y84842D02*
D03*
Y71063D02*
D03*
Y63583D02*
D03*
D28*
X73425Y82185D02*
D03*
X69882Y84744D02*
D03*
Y82185D02*
D03*
X73425Y84744D02*
D03*
D29*
X63327Y10827D02*
D03*
X78405D02*
D03*
X39035D02*
D03*
X23957D02*
D03*
D30*
X64969Y6103D02*
D03*
X66937D02*
D03*
X68906D02*
D03*
X70874D02*
D03*
X72843D02*
D03*
X74811D02*
D03*
X76780D02*
D03*
Y15551D02*
D03*
X74811D02*
D03*
X72843D02*
D03*
X70874D02*
D03*
X68906D02*
D03*
X66937D02*
D03*
X64969D02*
D03*
X25599D02*
D03*
X27567D02*
D03*
X29536D02*
D03*
X31504D02*
D03*
X33473D02*
D03*
X35441D02*
D03*
X37410D02*
D03*
Y6103D02*
D03*
X35441D02*
D03*
X33473D02*
D03*
X31504D02*
D03*
X29536D02*
D03*
X27567D02*
D03*
X25599D02*
D03*
D31*
X29134Y114173D02*
D03*
X25984D02*
D03*
X29134Y137795D02*
D03*
X25984D02*
D03*
X29134Y125984D02*
D03*
X25984D02*
D03*
X73228Y120079D02*
D03*
X76378D02*
D03*
X73228Y131890D02*
D03*
X76378D02*
D03*
X73228Y108268D02*
D03*
X76378D02*
D03*
Y23622D02*
D03*
X73228D02*
D03*
X76378Y35433D02*
D03*
X73228D02*
D03*
X76378Y47244D02*
D03*
X73228D02*
D03*
X25984Y53150D02*
D03*
X29134D02*
D03*
X25984Y41339D02*
D03*
X29134D02*
D03*
X25984Y29528D02*
D03*
X29134D02*
D03*
X52165Y52953D02*
D03*
X49016D02*
D03*
D32*
X56496Y52952D02*
D03*
X63976D02*
D03*
Y58859D02*
D03*
X56496D02*
D03*
D33*
X82874Y49213D02*
D03*
X90354D02*
D03*
X82874Y25591D02*
D03*
X90354D02*
D03*
X12007Y135827D02*
D03*
X19488D02*
D03*
X12008Y112205D02*
D03*
X19488D02*
D03*
D34*
X24016Y71063D02*
D03*
Y67913D02*
D03*
Y84842D02*
D03*
Y81693D02*
D03*
X5906Y71063D02*
D03*
Y67913D02*
D03*
Y84842D02*
D03*
Y81693D02*
D03*
D35*
X82874Y76968D02*
D03*
X77362D02*
D03*
X81496Y58268D02*
D03*
X87008D02*
D03*
X77559D02*
D03*
X72047D02*
D03*
X82874Y84449D02*
D03*
X77362D02*
D03*
D72*
X14903Y69600D02*
G03*
X14015Y70111I-1392J-1392D01*
G01*
X68906Y13595D02*
G03*
X69483Y12210I1969J7D01*
G01*
X69613Y9338D02*
G03*
X70151Y9718I-850J1775D01*
G01*
X64413Y8561D02*
G03*
X64363Y8556I64J-883D01*
G01*
X33473Y8676D02*
G03*
X33465Y8849I-1969J-0D01*
G01*
X13854Y78271D02*
G03*
X14739Y78779I-503J1903D01*
G01*
X14781Y65042D02*
G03*
X15354Y66430I-1396J1388D01*
G01*
X15766Y58447D02*
G03*
X17154Y57874I1388J1396D01*
G01*
X13795Y61233D02*
G03*
X14368Y59845I1969J0D01*
G01*
X53656Y98963D02*
G03*
X53740Y99172I-1780J840D01*
G01*
X62391Y92016D02*
G03*
X62687Y91789I1340J1442D01*
G01*
X53740Y52953D02*
G03*
X54921Y53347I0J1969D01*
G01*
X66321Y77344D02*
G03*
X65748Y75956I1396J-1388D01*
G01*
X70641Y79134D02*
G03*
X72029Y79707I0J1969D01*
G01*
X68248Y8837D02*
G03*
X68959Y9025I-140J1964D01*
G01*
X72360Y80037D02*
G03*
X72933Y81426I-1396J1388D01*
G01*
X27291Y81950D02*
G03*
X26227Y83699I-1969J0D01*
G01*
X54928Y53344D02*
G03*
X55020Y53309I745J1822D01*
G01*
X48453Y99803D02*
G03*
X47065Y99230I0J-1969D01*
G01*
X54528Y99803D02*
G03*
X53923Y99526I506J-1902D01*
G01*
X29536Y13602D02*
G03*
X30112Y12211I1969J0D01*
G01*
X68926Y79134D02*
G03*
X67537Y78561I0J-1969D01*
G01*
X49935Y99803D02*
G03*
X49920Y99803I-9J-1969D01*
G01*
X15354Y82118D02*
G03*
X13790Y84040I-1969J-5D01*
G01*
X61521Y8203D02*
G03*
X61775Y8219I0J1969D01*
G01*
X72843Y8035D02*
G03*
X72267Y9426I-1969J-0D01*
G01*
X15354Y82118D02*
X15354Y79394D01*
X14903Y69600D02*
X15354Y69149D01*
X42913Y8858D02*
Y10731D01*
Y7970D02*
Y8858D01*
X69483Y12210D02*
X71063Y10630D01*
X59449Y8057D02*
X59595Y8203D01*
X42913Y10731D02*
X59449D01*
X68906Y14468D02*
X68906Y13595D01*
X59449Y8057D02*
Y10731D01*
X33473Y7186D02*
X33473Y6103D01*
X72843Y8035D02*
X72843Y7186D01*
X33465Y8858D02*
X42913D01*
X59449Y7970D02*
Y8057D01*
X33465Y8858D02*
X33465Y8849D01*
X10419Y84842D02*
X11683D01*
X12204Y84370D02*
X13790Y84040D01*
X12204Y70590D02*
X13889Y70144D01*
X17154Y57874D02*
X28543D01*
X12204Y77835D02*
X13854Y78271D01*
X14368Y59845D02*
X15766Y58447D01*
X11683Y84842D02*
X12155Y85315D01*
X13795Y64055D02*
X14781Y65042D01*
X13795Y61233D02*
Y64055D01*
X12155Y85315D02*
Y94094D01*
X46260Y98425D02*
X47065Y99230D01*
X20472Y71063D02*
X23445D01*
X13889Y70144D02*
X14015Y70111D01*
X27291Y77118D02*
X27395Y77165D01*
X11683Y84842D02*
X12204Y84370D01*
X71063Y10630D02*
X72267Y9426D01*
X51474Y96850D02*
X51707Y96996D01*
X48453Y99803D02*
X49920Y99803D01*
X15354Y66430D02*
Y69149D01*
X42520Y80315D02*
X51968D01*
X29536Y13602D02*
Y14468D01*
X36024Y98622D02*
X39224D01*
X61417Y92913D02*
X62391Y92016D01*
X36220Y59088D02*
X42520D01*
X27291Y80461D02*
X27395Y80315D01*
X64435Y90697D02*
X64668Y90551D01*
X24016Y84842D02*
X24587Y84547D01*
X55020Y53309D02*
X56496Y52952D01*
X72933Y81426D02*
Y81961D01*
X66321Y77344D02*
X67537Y78561D01*
X52165Y52953D02*
X53740D01*
X54921D02*
Y53347D01*
X24161Y77118D02*
X27291D01*
X51968Y59088D02*
X52114Y59055D01*
X39224Y98622D02*
X39370Y98589D01*
X72933Y81961D02*
X73425Y82185D01*
X68959Y9025D02*
X69613Y9338D01*
X51671Y49606D02*
X51904Y49752D01*
X27291Y81950D02*
X27291Y80461D01*
X23445Y84842D02*
X24016Y84842D01*
X55020Y59055D02*
X56496Y58859D01*
X65748Y71423D02*
Y75956D01*
X64435Y88043D02*
X64668Y88189D01*
X24016Y77070D02*
X24161Y77118D01*
X36075Y59193D02*
X36220Y59088D01*
X20472Y84842D02*
X23445D01*
X24587Y84547D02*
X26227Y83699D01*
X51904Y52382D02*
X52165Y52953D01*
X48819Y59088D02*
X51968D01*
X24587Y71358D02*
X27033Y73870D01*
X29536Y15551D02*
X29536Y14468D01*
X72843Y7186D02*
X72843Y6103D01*
X30112Y12211D02*
X33465Y8858D01*
X51904Y49752D02*
Y52382D01*
X68926Y79134D02*
X70641D01*
X64668Y88189D02*
Y90551D01*
X62687Y91789D02*
X64435Y90697D01*
X68906Y15551D02*
X68906Y14468D01*
X59595Y8203D02*
X61521D01*
X33465Y60039D02*
X36075Y59193D01*
X54921Y53347D02*
X54928Y53344D01*
X53557Y98846D02*
X53656Y98963D01*
X49935Y99803D02*
X53543D01*
X51707Y96996D02*
X53557Y98846D01*
X24161Y63189D02*
X27362D01*
X53543Y99803D02*
X53839Y99469D01*
X27033Y73870D02*
X27266Y74016D01*
X24016Y63290D02*
X24161Y63189D01*
X75361Y88148D02*
Y88189D01*
X76476Y85728D02*
X77362Y85630D01*
X53543Y99803D02*
X53740Y99172D01*
X53839Y99469D02*
X53923Y99526D01*
X53543Y99803D02*
Y99803D01*
X24016Y71063D02*
X24587Y71358D01*
X23445Y71063D02*
X24016Y71063D01*
X70151Y9718D02*
X71063Y10630D01*
X27395Y77165D02*
Y80315D01*
X33473Y8676D02*
X33473Y7186D01*
X61775Y8219D02*
X64363Y8556D01*
X52114Y59055D02*
X55020D01*
X61417Y86614D02*
X64435Y88043D01*
X19503Y71063D02*
X20472Y71063D01*
X64413Y8561D02*
X68248Y8837D01*
X72029Y79707D02*
X72360Y80037D01*
X5906Y71063D02*
X6476Y71063D01*
X15354Y69149D02*
Y79394D01*
X12204Y64055D02*
X13795D01*
X5906Y84842D02*
X6476Y84842D01*
X10419Y77362D02*
X12204Y77835D01*
X10419Y63583D02*
X12204Y64055D01*
X6476Y71063D02*
X8633D01*
X14739Y78779D02*
X15354Y79394D01*
X10419Y71063D02*
X12204Y70590D01*
X8633Y71063D02*
X10419Y71063D01*
X8633Y84842D02*
X10419Y84842D01*
X6476Y84842D02*
X8633D01*
X55118Y149557D02*
X55119Y148868D01*
X55118Y149557D02*
Y151575D01*
X39370Y98589D02*
X42520D01*
X19503Y84842D02*
X20472Y84842D01*
X75361Y88148D02*
X75465Y88043D01*
X76476Y85728D01*
D73*
X16962Y97999D02*
G03*
X16406Y98229I-556J-558D01*
G01*
X17515Y95636D02*
G03*
X16959Y95866I-556J-558D01*
G01*
X19565Y93586D02*
G03*
X19587Y93564I907J903D01*
G01*
X39811Y96287D02*
G03*
X39813Y96285I569J544D01*
G01*
X40945Y91665D02*
G03*
X41175Y91109I787J0D01*
G01*
X40945Y94790D02*
G03*
X40725Y95336I-787J0D01*
G01*
X32610Y67716D02*
G03*
X32054Y67487I0J-787D01*
G01*
X30545Y65978D02*
G03*
X30315Y65422I558J-556D01*
G01*
X33071Y67716D02*
G03*
X33051Y67716I-24J-787D01*
G01*
X28970Y66765D02*
G03*
X28740Y66209I558J-556D01*
G01*
X71653Y35304D02*
G03*
X71423Y35861I-787J0D01*
G01*
X64495Y70151D02*
G03*
X65051Y69921I556J558D01*
G01*
X71653Y119294D02*
G03*
X71883Y118738I787J0D01*
G01*
X30709Y41467D02*
G03*
X30938Y40912I787J0D01*
G01*
X30709Y126769D02*
G03*
X30478Y127326I-787J0D01*
G01*
X81371Y44232D02*
G03*
X81072Y44291I-299J-728D01*
G01*
X34481Y112207D02*
G03*
X34252Y111652I558J-556D01*
G01*
X37998Y140326D02*
G03*
X37447Y140551I-551J-563D01*
G01*
X69358Y126907D02*
G03*
X69356Y126908I-235J-751D01*
G01*
X33004Y119156D02*
G03*
X33110Y119131I235J751D01*
G01*
X67881Y49210D02*
G03*
X68110Y49766I-558J556D01*
G01*
X33004Y34511D02*
G03*
X33110Y34485I235J751D01*
G01*
X65483Y106476D02*
G03*
X64940Y106693I-543J-571D01*
G01*
X61531Y27861D02*
G03*
X61614Y28213I-704J353D01*
G01*
X40832Y133557D02*
G03*
X40748Y133204I704J-353D01*
G01*
X37566Y73196D02*
G03*
X37795Y73751I-558J556D01*
G01*
X48816Y74019D02*
G03*
X48819Y74016I514J597D01*
G01*
X31157Y72441D02*
G03*
X30602Y72211I0J-787D01*
G01*
X47185Y75403D02*
G03*
X46676Y75590I-510J-600D01*
G01*
X36485Y72441D02*
G03*
X37040Y72671I0J787D01*
G01*
X73374Y128937D02*
G03*
X73930Y129166I0J787D01*
G01*
X42098Y138845D02*
G03*
X41542Y139075I-556J-558D01*
G01*
X76781Y116259D02*
G03*
X77342Y116025I560J553D01*
G01*
X39370Y83464D02*
G03*
X39826Y83685I-98J781D01*
G01*
X37736Y88002D02*
G03*
X37226Y88189I-510J-600D01*
G01*
X74674Y118425D02*
G03*
X75230Y118655I0J787D01*
G01*
X34597Y81701D02*
G03*
X34085Y81890I-512J-598D01*
G01*
X66337Y47992D02*
G03*
X66893Y48222I0J787D01*
G01*
X72020Y118602D02*
G03*
X72441Y118425I421J414D01*
G01*
X39370Y86614D02*
G03*
X39369Y86615I-510J-600D01*
G01*
X22081Y34021D02*
G03*
X21524Y34252I-557J-557D01*
G01*
X42717Y27559D02*
G03*
X42717Y27569I-787J10D01*
G01*
X23661Y124527D02*
G03*
X23622Y124526I0J-787D01*
G01*
X59846Y85271D02*
G03*
X60403Y85039I557J556D01*
G01*
X58727Y86390D02*
G03*
X58275Y86613I-557J-557D01*
G01*
X42520Y67716D02*
G03*
X42523Y67713I602J508D01*
G01*
X31958Y106299D02*
G03*
X32485Y106501I-0J787D01*
G01*
X65307Y113698D02*
G03*
X65077Y114254I-787J0D01*
G01*
X69023Y112846D02*
G03*
X69252Y113401I-558J556D01*
G01*
X59599Y82119D02*
G03*
X60155Y81890I556J558D01*
G01*
X24476Y124527D02*
G03*
X25035Y124759I0J787D01*
G01*
X70901Y85966D02*
G03*
X70508Y86051I-393J-864D01*
G01*
X38780Y27562D02*
G03*
X38780Y27567I-787J4D01*
G01*
X57677Y133854D02*
G03*
X57677Y133857I-787J0D01*
G01*
X91963Y71423D02*
G03*
X91406Y71653I-557J-557D01*
G01*
X23622Y124409D02*
G03*
X23213Y124527I-413J-670D01*
G01*
X23807Y48936D02*
G03*
X24362Y49166I0J787D01*
G01*
X69023Y30562D02*
G03*
X69252Y31118I-558J556D01*
G01*
X30709Y126113D02*
G03*
X30938Y125557I787J0D01*
G01*
X55383Y88189D02*
G03*
X55938Y88419I0J787D01*
G01*
X78697Y37002D02*
G03*
X78687Y37001I93J-782D01*
G01*
X39417Y47523D02*
G03*
X39589Y47032I787J0D01*
G01*
X61417Y80315D02*
G03*
X61434Y80315I18J787D01*
G01*
X33110Y36772D02*
G03*
X33108Y36773I-295J-730D01*
G01*
X56923Y104954D02*
G03*
X56693Y104398I558J-556D01*
G01*
X77492Y132954D02*
G03*
X77005Y132785I0J-787D01*
G01*
X42249Y138695D02*
G03*
X42237Y138706I-910J-899D01*
G01*
X40945Y65581D02*
G03*
X40756Y66092I-787J0D01*
G01*
X41506Y85039D02*
G03*
X40951Y84811I0J-787D01*
G01*
X61741Y21095D02*
G03*
X62296Y20866I555J558D01*
G01*
X28988Y117126D02*
G03*
X28432Y116897I0J-787D01*
G01*
X29690Y88421D02*
G03*
X30247Y88189I558J556D01*
G01*
X37781Y84811D02*
G03*
X37226Y85039I-555J-559D01*
G01*
X21971Y42913D02*
G03*
X22488Y43107I0J787D01*
G01*
X58270Y83461D02*
G03*
X58348Y83370I635J465D01*
G01*
X31822Y85039D02*
G03*
X31266Y84810I0J-787D01*
G01*
X67608Y86051D02*
G03*
X67192Y85932I0J-787D01*
G01*
X70404Y55118D02*
G03*
X69876Y54914I0J-787D01*
G01*
X62272Y81890D02*
G03*
X62674Y82000I0J787D01*
G01*
X63976Y67981D02*
G03*
X63746Y68538I-787J-0D01*
G01*
X59646Y133843D02*
G03*
X59646Y133854I-787J0D01*
G01*
X78525Y36980D02*
G03*
X78513Y36978I92J-782D01*
G01*
X73374Y44291D02*
G03*
X73930Y44521I0J787D01*
G01*
X63583Y49199D02*
G03*
X63583Y49211I-787J0D01*
G01*
X68106Y92913D02*
G03*
X68213Y92921I0J787D01*
G01*
X30336Y127467D02*
G03*
X29921Y127638I-415J-420D01*
G01*
X79888Y139206D02*
G03*
X80444Y138976I556J558D01*
G01*
X55349Y24376D02*
G03*
X54792Y24606I-557J-557D01*
G01*
X71653Y34648D02*
G03*
X71883Y34093I787J0D01*
G01*
X31971Y37231D02*
G03*
X31677Y37289I-295J-730D01*
G01*
X39045Y139302D02*
G03*
X39598Y139075I553J560D01*
G01*
X31157Y81890D02*
G03*
X30602Y81660I0J-787D01*
G01*
X33340Y130855D02*
G03*
X33110Y130299I558J-556D01*
G01*
X57284Y25061D02*
G03*
X57515Y24504I787J0D01*
G01*
X33056Y89779D02*
G03*
X33068Y89767I553J560D01*
G01*
X29528Y93633D02*
G03*
X29757Y93077I787J0D01*
G01*
X58267Y23624D02*
G03*
X58070Y23949I-752J-234D01*
G01*
X33071Y95737D02*
G03*
X32840Y96293I-787J0D01*
G01*
X69249Y24311D02*
G03*
X69157Y24421I-649J-446D01*
G01*
X22475Y22210D02*
G03*
X21918Y22441I-557J-557D01*
G01*
X31555Y121570D02*
G03*
X32021Y121418I466J635D01*
G01*
X36025Y113425D02*
G03*
X35469Y113195I0J-787D01*
G01*
X30077Y55478D02*
G03*
X29521Y55709I-557J-557D01*
G01*
X67034Y114377D02*
G03*
X67519Y114173I530J582D01*
G01*
X57677Y49208D02*
G03*
X57677Y49212I-787J0D01*
G01*
X42527Y138318D02*
G03*
X42347Y138596I-737J-278D01*
G01*
X67409Y23740D02*
G03*
X67253Y23963I-713J-333D01*
G01*
X63583Y74673D02*
G03*
X63352Y75230I-787J-0D01*
G01*
X28988Y32481D02*
G03*
X28432Y32251I0J-787D01*
G01*
X72020Y33956D02*
G03*
X72441Y33779I421J414D01*
G01*
X35860Y47014D02*
G03*
X35304Y47244I-557J-557D01*
G01*
X31157Y78740D02*
G03*
X30602Y78510I0J-787D01*
G01*
X59678Y100387D02*
G03*
X59449Y99831I558J-556D01*
G01*
X70669Y118965D02*
G03*
X70439Y119522I-787J0D01*
G01*
X58708Y55515D02*
G03*
X58191Y55709I-517J-594D01*
G01*
X36220Y67715D02*
G03*
X36442Y67260I781J99D01*
G01*
X59842Y54528D02*
G03*
X59841Y54528I-517J-594D01*
G01*
X40715Y62294D02*
G03*
X40945Y62850I-558J556D01*
G01*
X33811Y136390D02*
G03*
X33810Y136392I-687J-384D01*
G01*
X30709Y42123D02*
G03*
X30478Y42680I-787J0D01*
G01*
X68768Y97638D02*
G03*
X69043Y97687I0J787D01*
G01*
X66055Y105924D02*
G03*
X65995Y105990I-465J-365D01*
G01*
X68469Y81496D02*
G03*
X68860Y81600I0J787D01*
G01*
X78743Y37006D02*
G03*
X79153Y36891I411J672D01*
G01*
X43876Y62343D02*
G03*
X44094Y62887I-569J544D01*
G01*
X72282Y105942D02*
G03*
X72840Y105709I559J554D01*
G01*
X53869Y88189D02*
G03*
X53314Y87960I0J-787D01*
G01*
X63297Y80315D02*
G03*
X63836Y80528I0J787D01*
G01*
X43260Y136390D02*
G03*
X43259Y136393I-736J-280D01*
G01*
X31693Y127098D02*
G03*
X31925Y126540I787J0D01*
G01*
X25129Y41339D02*
G03*
X24574Y41109I0J-787D01*
G01*
X42946Y133375D02*
G03*
X42716Y132819I558J-556D01*
G01*
X32997Y134720D02*
G03*
X33555Y134488I558J556D01*
G01*
X48196Y55938D02*
G03*
X48751Y55709I555J558D01*
G01*
X71653Y119950D02*
G03*
X71423Y120506I-787J0D01*
G01*
X63583Y133844D02*
G03*
X63583Y133857I-787J0D01*
G01*
X37795Y65580D02*
G03*
X37565Y66137I-787J0D01*
G01*
X80282Y127395D02*
G03*
X80838Y127165I556J558D01*
G01*
X30336Y42822D02*
G03*
X29921Y42992I-415J-420D01*
G01*
X58988Y106693D02*
G03*
X58432Y106463I0J-787D01*
G01*
X50624Y66372D02*
G03*
X50394Y65816I557J-557D01*
G01*
X39370Y67716D02*
G03*
X39371Y67715I600J510D01*
G01*
X77198Y111450D02*
G03*
X76968Y110894I558J-556D01*
G01*
X59449Y96389D02*
G03*
X59679Y95832I787J0D01*
G01*
X44685Y112205D02*
G03*
X44685Y112218I-787J14D01*
G01*
X76121Y116919D02*
G03*
X75761Y117124I-557J-557D01*
G01*
X36331Y46419D02*
G03*
X36138Y46736I-750J-240D01*
G01*
X27688Y127638D02*
G03*
X27133Y127408I0J-787D01*
G01*
X45049Y136352D02*
G03*
X44820Y136941I-787J33D01*
G01*
X37055Y47720D02*
G03*
X37287Y47162I787J0D01*
G01*
X67258Y95276D02*
G03*
X67382Y95285I0J787D01*
G01*
X56463Y88944D02*
G03*
X56693Y89499I-558J556D01*
G01*
X77785Y36884D02*
G03*
X77330Y36661I101J-781D01*
G01*
X47244Y57216D02*
G03*
X47474Y56660I787J0D01*
G01*
X34596Y78552D02*
G03*
X34084Y78740I-511J-599D01*
G01*
X50175Y62343D02*
G03*
X50394Y62887I-569J544D01*
G01*
X25552Y45202D02*
G03*
X25038Y45393I-514J-597D01*
G01*
X59416Y28043D02*
G03*
X59646Y28598I-558J556D01*
G01*
X44685Y27559D02*
G03*
X44685Y27573I-787J14D01*
G01*
X44928Y133458D02*
G03*
X44929Y133469I-590J33D01*
G01*
X24843Y28464D02*
G03*
X25241Y28572I0J787D01*
G01*
X25164Y49967D02*
G03*
X25394Y50523I-558J556D01*
G01*
X68108Y22244D02*
X68108Y22245D01*
X63583Y71389D02*
G03*
X63812Y70833I787J0D01*
G01*
X62945Y113894D02*
G03*
X62773Y114385I-787J0D01*
G01*
X31693Y42452D02*
G03*
X31925Y41895I787J0D01*
G01*
X78555Y112481D02*
G03*
X78000Y112252I0J-787D01*
G01*
X38818Y83782D02*
G03*
X39037Y83625I561J552D01*
G01*
X77233Y120079D02*
G03*
X77789Y120308I0J787D01*
G01*
X70669Y34319D02*
G03*
X70439Y34876I-787J0D01*
G01*
X44095Y137793D02*
G03*
X44287Y137473I752J235D01*
G01*
X59646Y49198D02*
G03*
X59646Y49209I-787J0D01*
G01*
X74674Y33779D02*
G03*
X75230Y34009I0J787D01*
G01*
X35348Y138023D02*
G03*
X35202Y138225I-703J-355D01*
G01*
X61970Y115391D02*
G03*
X61968Y115393I-617J-489D01*
G01*
X44094Y65581D02*
G03*
X43906Y66092I-787J0D01*
G01*
X36214Y77170D02*
G03*
X36220Y77165I513J597D01*
G01*
X47433Y62943D02*
G03*
X47244Y62432I599J-511D01*
G01*
X60007Y95505D02*
G03*
X60562Y95276I556J558D01*
G01*
X33340Y48571D02*
G03*
X33110Y48016I558J-556D01*
G01*
X59646Y23517D02*
G03*
X59875Y22961I787J0D01*
G01*
X32875Y138064D02*
G03*
X32744Y138237I-687J-384D01*
G01*
X80407Y118504D02*
G03*
X79851Y118274I0J-787D01*
G01*
X42717Y112208D02*
G03*
X42717Y112213I-787J4D01*
G01*
X31996Y138985D02*
G03*
X31698Y139172I-557J-557D01*
G01*
X27688Y42992D02*
G03*
X27133Y42763I0J-787D01*
G01*
X78740Y117323D02*
G03*
X79107Y117530I-189J764D01*
G01*
X37566Y62294D02*
G03*
X37795Y62850I-558J556D01*
G01*
X59646Y24158D02*
G03*
X59415Y24714I-787J0D01*
G01*
X39813Y96285D02*
X40725Y95336D01*
X41175Y91109D02*
X42520Y89764D01*
X40945Y91665D02*
Y94790D01*
X13140Y95866D02*
X16959D01*
X17515Y95636D02*
X19565Y93586D01*
X19587Y93564D02*
X20472Y92716D01*
X12155Y96456D02*
X13140Y95866D01*
Y98229D02*
X16406D01*
X16962Y97999D02*
X20472Y94488D01*
X12155Y98819D02*
X13140Y98229D01*
X30545Y65978D02*
X32054Y67487D01*
X32610Y67716D02*
X33051D01*
X30315Y64567D02*
Y65422D01*
X28740Y64567D02*
Y66209D01*
X28970Y66765D02*
X33071Y70866D01*
X76968Y132756D02*
X77005Y132785D01*
X61417Y70866D02*
X63746Y68538D01*
X55349Y24376D02*
X58071Y21654D01*
X43307Y24606D02*
X54792D01*
X29528Y83071D02*
X31266Y84810D01*
X39037Y83625D02*
X39370Y83464D01*
X81739Y105709D02*
X82185Y105709D01*
X57284Y25061D02*
Y28740D01*
X39826Y83685D02*
X40951Y84811D01*
X29298Y70866D02*
X29697Y71307D01*
X37040Y72671D02*
X37566Y73196D01*
X29697Y71307D02*
X30602Y72211D01*
X37795Y75590D02*
X46676D01*
X48819Y74016D02*
X48819D01*
X47185Y75403D02*
X48816Y74019D01*
X37795Y73751D02*
Y75590D01*
X31157Y72441D02*
X36485D01*
X57677Y46880D02*
X57677Y47992D01*
X78740Y37008D02*
X78743Y37006D01*
X57677Y133857D02*
X57677Y133858D01*
X78525Y36980D02*
X78687Y37001D01*
X69252Y38032D02*
X71423Y35861D01*
X23622Y40157D02*
X24574Y41109D01*
X31157Y81890D02*
X34085D01*
X29298Y80315D02*
X29697Y80756D01*
X30602Y81660D01*
X34597Y81701D02*
X36220Y80315D01*
X19587Y54724D02*
X20177Y55709D01*
X58708Y55515D02*
X59841Y54528D01*
X47433Y62943D02*
X48819Y64567D01*
X47244Y57216D02*
Y62432D01*
X68110Y27329D02*
X68551Y26929D01*
X70669Y25394D01*
X63827Y25027D02*
X64370Y23622D01*
X63386Y25427D02*
X63827Y25027D01*
X37992Y137795D02*
X38535Y136390D01*
X38976Y135990D01*
X39598Y139075D02*
X41542D01*
X42249Y138695D02*
X42347Y138596D01*
X43260Y136390D02*
X43701Y135990D01*
X42527Y138318D02*
X43259Y136393D01*
X37998Y140326D02*
X39045Y139302D01*
X59679Y95832D02*
X60007Y95505D01*
X62008Y102362D02*
X64717D01*
X65158Y102261D02*
X68531D01*
X68931Y102362D01*
X59449Y96389D02*
Y99831D01*
X56693Y89499D02*
Y104398D01*
X58988Y106693D02*
X64940D01*
X51968Y86614D02*
X53314Y87960D01*
X67409Y23740D02*
X68108Y22245D01*
X65748Y25427D02*
X66189Y25027D01*
X59102D02*
X59415Y24714D01*
X59875Y22961D02*
X61741Y21095D01*
X34254Y139173D02*
X35202Y138225D01*
X35348Y138023D02*
X36173Y136390D01*
X32875Y138064D02*
X33810Y136392D01*
X19587Y130315D02*
X20177Y129921D01*
X23622D01*
X31693Y139173D02*
X31698Y139172D01*
X31996Y138985D02*
X32744Y138237D01*
X60562Y95276D02*
X64797D01*
X84449Y61764D02*
X84545Y62205D01*
X84449Y58071D02*
Y61764D01*
X41339Y135990D02*
Y137795D01*
X58268Y108268D02*
Y113386D01*
X47474Y56660D02*
X48196Y55938D01*
X44882Y132555D02*
X44928Y133458D01*
X44094Y137795D02*
X44095Y137793D01*
X44287Y137473D02*
X44820Y136941D01*
X44094Y48031D02*
Y53150D01*
X51968Y83464D02*
X53543Y85039D01*
X39370Y83464D02*
X39441D01*
X37781Y84811D02*
X38818Y83782D01*
X39370Y83464D02*
X39370Y83464D01*
X44685Y112218D02*
Y113425D01*
X44685Y114537D01*
X68110Y137959D02*
Y139961D01*
X49242Y38386D02*
X50354Y38386D01*
X62891Y60433D02*
Y62205D01*
Y60433D02*
X63976Y58859D01*
Y60433D01*
X70833Y102362D02*
Y104921D01*
X66055Y105924D02*
X66496Y105362D01*
X53869Y88189D02*
X55383D01*
X55938Y88419D02*
X56463Y88944D01*
X65483Y106476D02*
X65995Y105990D01*
X66496Y105362D02*
X66896Y104921D01*
X56923Y104954D02*
X58432Y106463D01*
X70833Y102362D02*
X73329D01*
X84416Y71653D02*
X91406D01*
X91963Y71423D02*
X94488Y68898D01*
X52008Y38386D02*
X53120Y38386D01*
X82514Y69291D02*
Y71653D01*
X80551Y69691D02*
X82114D01*
X82514Y69291D01*
X78976Y69980D02*
X80551Y69691D01*
X81856Y67370D02*
X82385Y66929D01*
X78976Y67421D02*
X80551Y67370D01*
X81856D01*
X82114Y64862D02*
X82514Y64567D01*
X78976Y64862D02*
X82114D01*
X81856Y62303D02*
X82385Y62205D01*
X78976Y62303D02*
X81856D01*
X62008Y104921D02*
X62992Y104921D01*
X64994D01*
X71030Y88189D02*
X73458D01*
X72599Y91437D02*
X73458Y90748D01*
Y88189D02*
Y90748D01*
X61023Y101732D02*
X62008Y102362D01*
X59678Y100387D02*
X61023Y101732D01*
X62008Y99803D02*
X64717D01*
X65158Y100101D01*
X64717Y102362D02*
X65158Y102261D01*
X69043Y97687D02*
X71024Y98425D01*
X66828Y97638D02*
X68768D01*
X71024Y93307D02*
X72599Y93996D01*
X66828Y92913D02*
X68106D01*
X68213Y92921D02*
X71024Y93307D01*
X67382Y95285D02*
X71024Y95866D01*
X72599Y96555D01*
X66699Y95276D02*
X67258D01*
X71024Y98425D02*
X72599Y99114D01*
X76968Y109134D02*
Y110894D01*
X76121Y116919D02*
X76781Y116259D01*
X65905Y115393D02*
X67034Y114377D01*
X65051Y69921D02*
X65307D01*
X63583Y74673D02*
X63583Y71389D01*
X61417Y77165D02*
X63352Y75230D01*
X63812Y70833D02*
X64495Y70151D01*
X65307Y69921D02*
X65748Y69521D01*
Y66434D02*
Y69521D01*
X60403Y85039D02*
X64397D01*
X58727Y86390D02*
X59846Y85271D01*
X58268Y86614D02*
X58275Y86613D01*
X64397Y81055D02*
X64797Y81496D01*
X61434Y80315D02*
X63297D01*
X63836Y80528D02*
X64397Y81055D01*
Y85039D02*
X64797Y85433D01*
X64397Y83024D02*
X64797Y83465D01*
X60155Y81890D02*
X62272D01*
X58348Y83370D02*
X59599Y82119D01*
X62674Y82000D02*
X64397Y83024D01*
X58268Y83464D02*
X58270Y83461D01*
X72799Y85102D02*
X73425Y84744D01*
X66699Y85433D02*
X67099Y85874D01*
X67192Y85932D01*
X70901Y85966D02*
X72799Y85102D01*
X67608Y86051D02*
X70508D01*
X69256Y84386D02*
X69882Y84744D01*
X66699Y83465D02*
X67099Y83906D01*
X69256Y84386D01*
X68860Y81600D02*
X69256Y81827D01*
X69882Y82185D01*
X66699Y81496D02*
X68469D01*
X48751Y55709D02*
X58191D01*
X49260Y61390D02*
X50175Y62343D01*
X50394Y62887D02*
Y65816D01*
X50624Y66372D02*
X51968Y67716D01*
X51968Y67716D01*
Y67716D01*
X48819Y60990D02*
X49260Y61390D01*
X51968D02*
Y64567D01*
X51968Y64567D01*
X51968Y61390D02*
X51968Y60990D01*
X39370Y96687D02*
X39811Y96287D01*
X42520Y96687D02*
X42520Y96287D01*
Y92913D02*
Y96287D01*
X61024Y23622D02*
Y25427D01*
X63976Y67981D02*
X63976Y60433D01*
X42717Y27559D02*
X42717Y27559D01*
X42716Y29892D02*
X42716Y28779D01*
X42717Y27569D01*
X39370Y51745D02*
Y53150D01*
X41339Y51345D02*
Y53150D01*
X36614Y51345D02*
Y53150D01*
X29697Y77606D02*
X30602Y78510D01*
X34596Y78552D02*
X36214Y77170D01*
X31157Y78740D02*
X34084D01*
X29298Y77165D02*
X29697Y77606D01*
X42523Y67713D02*
X43906Y66092D01*
X42961Y61390D02*
X43876Y62343D01*
X44094Y62887D02*
Y65581D01*
X42520Y60990D02*
X42961Y61390D01*
X42520Y67716D02*
X42520Y67716D01*
X40945Y62850D02*
Y65581D01*
X39371Y67715D02*
X40756Y66092D01*
X39370Y67716D02*
X39370Y67716D01*
X39370Y60990D02*
X39811Y61390D01*
X40715Y62294D01*
X36220Y60990D02*
X36661Y61390D01*
X37795Y62850D02*
Y65580D01*
X36661Y61390D02*
X37566Y62294D01*
X36442Y67260D02*
X37565Y66137D01*
X36220Y67716D02*
X36220Y67715D01*
X39370Y83464D02*
X39441D01*
X31822Y85039D02*
X37226D01*
X41506D02*
X50394D01*
X29528Y88583D02*
X29690Y88421D01*
X30247Y88189D02*
X37226D01*
X37736Y88002D02*
X39369Y86615D01*
X33068Y89767D02*
X33071Y89764D01*
X29757Y93077D02*
X33056Y89779D01*
X29528Y93633D02*
Y94095D01*
X33071Y92913D02*
Y95737D01*
X29528Y99606D02*
X32840Y96293D01*
X23622Y106299D02*
X31958D01*
X23622Y140551D02*
X37447D01*
X42098Y138845D02*
X42237Y138706D01*
X44929Y133469D02*
X45049Y136352D01*
X42520Y92913D02*
X42520Y92913D01*
X59646Y132638D02*
Y133843D01*
Y132638D02*
X59646Y131526D01*
X59646Y133858D02*
X59646Y133854D01*
X72303Y137795D02*
X73228Y137284D01*
X63583Y132638D02*
Y133844D01*
X57677Y132638D02*
X57677Y133854D01*
X57677Y131526D02*
X57677Y132638D01*
X61024Y108268D02*
Y110073D01*
X38779Y113425D02*
X38780Y112205D01*
X38779Y114537D02*
X38779Y113425D01*
X29134Y108780D02*
Y113307D01*
X34252Y110006D02*
Y111652D01*
X36025Y113425D02*
X36457D01*
X36811Y114537D01*
X34481Y112207D02*
X35469Y113195D01*
X31693Y119567D02*
X33004Y119156D01*
X30059Y120079D02*
X31693Y119567D01*
X29134Y120590D02*
Y125984D01*
Y120590D02*
X30059Y120079D01*
X33110Y119131D02*
X34222Y119094D01*
X30938Y125557D02*
X33110Y123386D01*
X43260Y133688D02*
X43701Y134088D01*
X42716Y129557D02*
Y132819D01*
X42946Y133375D02*
X43260Y133688D01*
X40898Y133688D02*
X41339Y134088D01*
X40832Y133557D02*
X40898Y133688D01*
X40748Y129557D02*
Y133204D01*
X38779Y129557D02*
Y133688D01*
X38976Y134088D01*
X33110Y125355D02*
X34222Y125000D01*
X31693Y127098D02*
Y131378D01*
X31925Y126540D02*
X33110Y125355D01*
X30059Y131890D02*
X31693Y131378D01*
X29134Y132402D02*
Y137795D01*
Y132402D02*
X30059Y131890D01*
X25035Y124759D02*
X25394Y125118D01*
X27688Y127638D02*
X29921D01*
X30709Y126113D02*
Y126769D01*
X25984Y125984D02*
X26575Y126850D01*
X25394Y125118D02*
X25984Y125984D01*
X26575Y126850D02*
X27133Y127408D01*
X20472Y124527D02*
X23213D01*
X33340Y130855D02*
X36173Y133688D01*
X33110Y127323D02*
Y130299D01*
X36173Y133688D02*
X36614Y134088D01*
X33110Y127323D02*
X34222Y126968D01*
X25984Y114449D02*
X28432Y116897D01*
X28988Y117126D02*
X34222D01*
X25984Y114173D02*
Y114449D01*
X23622Y124409D02*
Y124526D01*
X42716Y113425D02*
X42717Y112213D01*
X42717Y112208D02*
X42717Y112205D01*
X42716Y114537D02*
X42716Y113425D01*
X29134Y108780D02*
X30059Y108268D01*
X29134Y113307D02*
Y114173D01*
X15747Y122755D02*
X20472Y124527D01*
X20177Y117520D02*
X23622Y117126D01*
X19587Y118504D02*
X20177Y117520D01*
X36173Y136390D02*
X36614Y135990D01*
X23661Y124527D02*
X24476D01*
X33110Y123386D02*
X34222Y123031D01*
X30336Y127467D02*
X30478Y127326D01*
X36457Y129921D02*
X36811Y129557D01*
X34843Y129921D02*
X36457D01*
X32021Y121418D02*
X33110D01*
X30906Y122047D02*
X31555Y121570D01*
X31693Y136024D02*
X32997Y134720D01*
X33811Y134488D02*
X34252Y134088D01*
X33555Y134488D02*
X33811D01*
X32485Y106501D02*
X33811Y107704D01*
X34252Y108104D01*
X33110Y121418D02*
X34222Y121063D01*
X33811Y136390D02*
X34252Y135990D01*
X69249Y24311D02*
X70669Y22244D01*
X70404Y55118D02*
X78740D01*
X68551Y53713D02*
X69876Y54914D01*
X68110Y53313D02*
X68551Y53713D01*
X66893Y48222D02*
X67881Y49210D01*
X65551Y46880D02*
X65905Y47992D01*
X66337D01*
X68110Y49766D02*
Y51411D01*
Y25427D02*
X68551Y25027D01*
X78740Y31496D02*
X82185D01*
X82776Y31102D01*
X68551Y25027D02*
X69157Y24421D01*
X68140Y40354D02*
X69252Y40000D01*
X71457Y39370D01*
X68140Y34449D02*
X69252Y34095D01*
X66189Y27729D02*
X69023Y30562D01*
X65905Y31496D02*
X67520D01*
X65748Y27329D02*
X66189Y27729D01*
X69252Y31118D02*
Y34095D01*
X65551Y31860D02*
X65905Y31496D01*
X75230Y34009D02*
X75787Y34567D01*
X81890Y36891D02*
X86615Y38662D01*
X72441Y33779D02*
X74674D01*
X71653Y34648D02*
Y35304D01*
X76968Y36299D02*
X77330Y36661D01*
X77785Y36884D02*
X78513Y36978D01*
X68140Y44291D02*
X73374D01*
X75787Y46378D02*
X76378Y47244D01*
X73930Y44521D02*
X75787Y46378D01*
X66189Y25027D02*
X67253Y23963D01*
X81371Y44232D02*
X82185Y43898D01*
X82776Y42913D01*
X78740Y44291D02*
X81072D01*
X68140Y38386D02*
X69252Y38032D01*
X76378Y35433D02*
X76968Y36299D01*
X63583Y47992D02*
Y49199D01*
X63583Y49213D02*
X63583Y49211D01*
X73228Y52638D02*
X73228Y48110D01*
X72716Y41339D02*
X73228Y40827D01*
Y35433D02*
Y40827D01*
X69252Y42205D02*
X70669Y41850D01*
X72716Y41339D01*
X68140Y42323D02*
X69252Y42205D01*
Y36063D02*
X70439Y34876D01*
X73228Y23622D02*
Y29016D01*
X72716Y29528D02*
X73228Y29016D01*
X70669Y34319D02*
X70669Y30039D01*
X72716Y29528D01*
X68140Y36417D02*
X69252Y36063D01*
X59646Y23517D02*
Y24158D01*
X58661Y25427D02*
X59102Y25027D01*
X62296Y20866D02*
X78740D01*
X63386Y27329D02*
X63583Y27729D01*
Y31860D01*
X61465Y27729D02*
X61531Y27861D01*
X61614Y28213D02*
Y31860D01*
X61024Y27329D02*
X61465Y27729D01*
X58661Y27329D02*
X59102Y27729D01*
X59646Y28598D02*
Y31860D01*
X59102Y27729D02*
X59416Y28043D01*
X57515Y24504D02*
X58070Y23949D01*
X58267Y23624D02*
X58268Y23622D01*
X63583Y47992D02*
X63583Y46880D01*
X72303Y53150D02*
X73228Y52638D01*
X73228Y47244D02*
Y48110D01*
X59646Y47992D02*
X59646Y46880D01*
X59646Y49213D02*
X59646Y49209D01*
X59646Y47992D02*
Y49198D01*
X57677Y47992D02*
X57677Y49208D01*
Y49212D02*
X57677Y49213D01*
X68110Y133858D02*
Y136057D01*
X76378Y108268D02*
X76968Y109134D01*
X65551Y116506D02*
X65905Y115393D01*
X35860Y47014D02*
X36138Y46736D01*
X37055Y47720D02*
Y49043D01*
X53120Y123031D02*
X53120Y123032D01*
X49242Y123031D02*
X50354Y123031D01*
X53120D01*
X80838Y127165D02*
X82776D01*
X78740Y128937D02*
X80282Y127395D01*
X77492Y132954D02*
X84521Y132954D01*
X84521Y112481D02*
X86615Y114253D01*
X81890Y116025D02*
X86615Y114253D01*
X78555Y112481D02*
X84521Y112481D01*
X68140Y128937D02*
X73374D01*
X76378Y131890D02*
Y132165D01*
X84521Y132954D02*
X86615Y134725D01*
X76378Y132165D02*
X76968Y132756D01*
X73228Y131890D02*
Y137284D01*
X63583Y133858D02*
X63583Y133857D01*
X68140Y126969D02*
X69252Y126940D01*
X72303Y125984D02*
X73228Y125472D01*
Y120079D02*
Y125472D01*
X70669Y114685D02*
Y118965D01*
X75787Y119213D02*
X76378Y120079D01*
X77233D01*
X71883Y118738D02*
X72020Y118602D01*
X77789Y120308D02*
X78740Y121260D01*
X69252Y122677D02*
X71423Y120506D01*
X75230Y118655D02*
X75787Y119213D01*
X69252Y120708D02*
X70439Y119522D01*
X73228Y108268D02*
Y113661D01*
X68898Y121063D02*
X69252Y120708D01*
X70669Y114685D02*
X72716Y114173D01*
X73228Y113661D01*
X68110Y111975D02*
X68551Y112374D01*
X68898Y119095D02*
X69252Y118740D01*
Y113401D02*
Y118740D01*
X68551Y112374D02*
X69023Y112846D01*
X63583Y115748D02*
X63937Y115393D01*
X65307Y112374D02*
Y113698D01*
Y112374D02*
X65748Y111975D01*
X63937Y115393D02*
X65077Y114254D01*
X61970Y115391D02*
X62773Y114385D01*
X62945Y113894D02*
X62945Y112374D01*
X60000Y115393D02*
X60583Y112374D01*
X59646Y116506D02*
X60000Y115393D01*
X60583Y112374D02*
X61024Y111975D01*
X62945Y112374D02*
X63386Y111975D01*
X61614Y116506D02*
X61968Y115393D01*
X73930Y129166D02*
X75787Y131024D01*
X76378Y131890D01*
X70669Y126496D02*
X72303Y125984D01*
X69358Y126907D02*
X70669Y126496D01*
X69252Y126940D02*
X69356Y126907D01*
X68140Y125000D02*
X69252Y124645D01*
X71457Y124016D01*
X65551Y131526D02*
Y135657D01*
X65748Y136057D01*
X63583Y132638D02*
X63583Y131526D01*
X77198Y111450D02*
X78000Y112252D01*
X75754Y117126D02*
X75761Y117124D01*
X67519Y114173D02*
X67520Y114173D01*
X77342Y116025D02*
X81890D01*
X72840Y105709D02*
X81739D01*
X68551Y109673D02*
X72282Y105942D01*
X68898Y123032D02*
X69252Y122677D01*
X71653Y119294D02*
Y119950D01*
X72441Y118425D02*
X74674D01*
X62992Y109673D02*
X63386Y110073D01*
X80407Y118504D02*
X82776D01*
X79107Y117530D02*
X79851Y118274D01*
X78740Y140354D02*
X79888Y139206D01*
X80444Y138976D02*
X82776D01*
X62992Y108268D02*
Y109673D01*
X65748Y108268D02*
Y110073D01*
X82185Y105709D02*
X82776Y106693D01*
X68110Y110073D02*
X68551Y109673D01*
X22475Y22210D02*
X23622Y21063D01*
X19587Y22441D02*
X21918D01*
X19587Y34252D02*
X21524D01*
X22081Y34021D02*
X23622Y32480D01*
X19587Y42913D02*
X21971D01*
X22488Y43107D02*
X23622Y44094D01*
X38976Y51345D02*
X39370Y51745D01*
X30336Y42822D02*
X30478Y42680D01*
X25984Y41339D02*
X26575Y42205D01*
X30077Y55478D02*
X33811Y51745D01*
X34252Y51345D01*
X20177Y55709D02*
X29521D01*
X20472Y45393D02*
X25038D01*
X36331Y46419D02*
X36457Y46024D01*
X34843Y47244D02*
X35304D01*
X50354Y38386D02*
X52008D01*
X38779Y29892D02*
X38779Y28779D01*
X29134Y24134D02*
X30059Y23622D01*
X44685Y28779D02*
X44685Y29892D01*
X44685Y27573D02*
Y28779D01*
X34252Y21457D02*
Y23458D01*
X38780Y27562D02*
X38780Y27559D01*
X36614Y25361D02*
X36811Y25760D01*
Y29892D01*
X33110Y36772D02*
X34222Y36418D01*
X31971Y37231D02*
X33108Y36773D01*
X30906Y37402D02*
X31677Y37289D01*
X34252Y25361D02*
Y27559D01*
X30059Y35433D02*
X31693Y34921D01*
X33004Y34511D01*
X29134Y35945D02*
X30059Y35433D01*
X25984Y29528D02*
Y29803D01*
X25394Y28661D02*
X25984Y29528D01*
X38976Y49443D02*
X39417Y49043D01*
X40394Y46024D02*
X40748Y44912D01*
X42362Y46024D02*
X42716Y44912D01*
X41780Y49043D02*
X42362Y46024D01*
X41339Y49443D02*
X41780Y49043D01*
X39417Y47523D02*
Y49043D01*
X39589Y47032D02*
X40394Y46024D01*
X36614Y49443D02*
X37055Y49043D01*
X38425Y46024D02*
X38779Y44912D01*
X37287Y47162D02*
X38425Y46024D01*
X33811Y49043D02*
X34252Y49443D01*
X33110Y42677D02*
Y48016D01*
X33340Y48571D02*
X33811Y49043D01*
X33110Y42677D02*
X34222Y42323D01*
X30059Y47244D02*
X31693Y46732D01*
X33110Y40709D02*
X34222Y40355D01*
X31925Y41895D02*
X33110Y40709D01*
X29134Y47756D02*
X30059Y47244D01*
X27688Y42992D02*
X29921D01*
X26575Y42205D02*
X27133Y42763D01*
X30709Y41467D02*
Y42123D01*
X25129Y41339D02*
X25984D01*
X30938Y40912D02*
X33110Y38740D01*
X34222Y38386D01*
X29134Y47756D02*
Y53150D01*
X31693Y42452D02*
Y46732D01*
X29134Y35945D02*
Y41339D01*
X33110Y34485D02*
X34222Y34449D01*
X38779Y28779D02*
X38780Y27567D01*
X29134Y24134D02*
Y29528D01*
X25241Y28572D02*
X25394Y28661D01*
X36457Y46024D02*
X36811Y44912D01*
X25394Y50523D02*
Y52284D01*
X24362Y49166D02*
X25164Y49967D01*
X15747Y47164D02*
X20472Y48936D01*
X15747Y47164D02*
X20472Y45393D01*
X28988Y32481D02*
X34222D01*
X20472Y28464D02*
X24843D01*
X15747Y26692D02*
X20472Y28464D01*
X25984Y29803D02*
X28432Y32251D01*
X20472Y48936D02*
X23807D01*
X25552Y45202D02*
X26608Y44291D01*
X25394Y52284D02*
X25984Y53150D01*
X75787Y34567D02*
X76378Y35433D01*
X78697Y37002D02*
X78740Y37008D01*
X79153Y36891D02*
X81890D01*
X71883Y34093D02*
X72020Y33956D01*
D74*
X95984Y38588D02*
G03*
X94903Y38662I-1081J-7800D01*
G01*
X7468Y122790D02*
G03*
X8211Y122755I743J7839D01*
G01*
X97310Y113262D02*
G03*
X93485Y114253I-3824J-6883D01*
G01*
X7953Y26692D02*
G03*
X7632Y26685I0J-7874D01*
G01*
X95190Y134725D02*
G03*
X95670Y134740I0J7874D01*
G01*
X6554Y47635D02*
G03*
X9234Y47164I2680J7404D01*
G01*
X86615Y38662D02*
X94903Y38662D01*
X97441Y113189D02*
X99213Y112205D01*
X3937Y124016D02*
X4921Y123031D01*
X8211Y122755D02*
X15747D01*
X4921Y123031D02*
X7468Y122790D01*
X97441Y38386D02*
X99213Y37402D01*
X95984Y38588D02*
X97441Y38386D01*
X4921Y48228D02*
X6554Y47635D01*
X86615Y134725D02*
X95190D01*
X86615Y134725D02*
X86615Y134725D01*
X97441Y134843D02*
X99213Y135827D01*
X86615Y114253D02*
X93485D01*
X95670Y134740D02*
X97441Y134843D01*
X97310Y113262D02*
X97441Y113189D01*
X3937Y49213D02*
X4921Y48228D01*
X9234Y47164D02*
X15747D01*
X4921Y26575D02*
X7632Y26685D01*
X7953Y26692D02*
X15747Y26692D01*
X3937Y25591D02*
X4921Y26575D01*
D75*
X77956Y96947D02*
G03*
X79576Y96555I1620J3151D01*
G01*
X70372Y67532D02*
G03*
X71043Y67777I-877J3433D01*
G01*
X71386Y67943D02*
G03*
X71729Y68187I-559J1151D01*
G01*
X75052Y74264D02*
G03*
X74016Y71761I2507J-2504D01*
G01*
X75052Y74264D02*
X76870Y76083D01*
X77953Y96949D02*
Y99311D01*
Y96949D02*
X77956Y96947D01*
X81634Y96555D02*
X82520Y96555D01*
X69055Y67421D02*
X69941Y67421D01*
X76870Y76083D02*
X77362Y76968D01*
X71043Y67777D02*
X71386Y67943D01*
X69941Y67421D02*
X70372Y67532D01*
X74016Y70474D02*
Y71761D01*
X79576Y96555D02*
X81634D01*
X71729Y68187D02*
X74016Y70474D01*
D76*
X13889Y70144D02*
D03*
X42913Y5810D02*
D03*
X23622Y152953D02*
D03*
X24803D02*
D03*
X22441D02*
D03*
X78740D02*
D03*
X79921D02*
D03*
X77559D02*
D03*
X78740Y145472D02*
D03*
X79921D02*
D03*
X77559D02*
D03*
X23622D02*
D03*
X24803D02*
D03*
X22441D02*
D03*
X71653Y148868D02*
D03*
X69291D02*
D03*
X74016D02*
D03*
X55118Y151575D02*
D03*
X50393Y148868D02*
D03*
X52755D02*
D03*
X35827D02*
D03*
X28741D02*
D03*
X26378D02*
D03*
X33465D02*
D03*
X31102D02*
D03*
X71063Y10630D02*
D03*
X9056Y141340D02*
D03*
X6694Y142521D02*
D03*
X20472Y94488D02*
D03*
X69190Y90551D02*
D03*
X68009D02*
D03*
X25787Y61102D02*
D03*
X23425D02*
D03*
X24606D02*
D03*
X5414Y101772D02*
D03*
X6595D02*
D03*
X5414Y102953D02*
D03*
X6595D02*
D03*
X36220Y70866D02*
D03*
X34252Y53150D02*
D03*
X83701Y100295D02*
D03*
X81339D02*
D03*
X82520D02*
D03*
X81339Y99114D02*
D03*
X82520D02*
D03*
X83701D02*
D03*
X70236Y71161D02*
D03*
X69055D02*
D03*
X67874D02*
D03*
X70236Y69980D02*
D03*
X69055D02*
D03*
X67874D02*
D03*
X72047Y75197D02*
D03*
Y76378D02*
D03*
Y77559D02*
D03*
X67874Y64862D02*
D03*
X69055D02*
D03*
X70236D02*
D03*
X59842Y54528D02*
D03*
X75754Y44291D02*
D03*
X71457Y39370D02*
D03*
X71457Y37795D02*
D03*
X64370Y23622D02*
D03*
X37992Y137795D02*
D03*
X6693Y55315D02*
D03*
Y54134D02*
D03*
X5512Y55315D02*
D03*
Y54134D02*
D03*
X4331Y55315D02*
D03*
Y54134D02*
D03*
X59646Y102362D02*
D03*
X53543Y99803D02*
D03*
X49242Y119094D02*
D03*
X68898Y105118D02*
D03*
X72047Y102362D02*
D03*
X9055Y87008D02*
D03*
X4724Y79921D02*
D03*
X7058Y77756D02*
D03*
X66828Y90551D02*
D03*
X64668Y92913D02*
D03*
X65748Y22244D02*
D03*
X70669Y27362D02*
D03*
Y25394D02*
D03*
X34254Y139173D02*
D03*
X39370Y64567D02*
D03*
X26969Y10827D02*
D03*
X84449Y58071D02*
D03*
X41339Y137795D02*
D03*
X25984D02*
D03*
X23819Y134843D02*
D03*
X20472Y88583D02*
D03*
X17323Y128740D02*
D03*
Y129921D02*
D03*
Y131102D02*
D03*
X20472Y68504D02*
D03*
X61423Y39370D02*
D03*
X63785D02*
D03*
X62604Y38188D02*
D03*
Y40551D02*
D03*
X60242Y38188D02*
D03*
X61423Y37007D02*
D03*
X63785D02*
D03*
X64966Y38188D02*
D03*
Y40551D02*
D03*
X63785Y41732D02*
D03*
X61423D02*
D03*
X60242Y40551D02*
D03*
X53120Y40354D02*
D03*
Y42323D02*
D03*
X38577Y122048D02*
D03*
X40939D02*
D03*
X39758Y120867D02*
D03*
Y123229D02*
D03*
X37396Y120867D02*
D03*
X38577Y119685D02*
D03*
X40939D02*
D03*
X42121Y120867D02*
D03*
Y123229D02*
D03*
X40939Y124410D02*
D03*
X38577D02*
D03*
X37396Y123229D02*
D03*
X58268Y108268D02*
D03*
X60242Y122834D02*
D03*
X58268Y113386D02*
D03*
X60242Y125196D02*
D03*
X61423Y124015D02*
D03*
X63785D02*
D03*
X62604Y122834D02*
D03*
Y125196D02*
D03*
X61423Y121653D02*
D03*
X63785D02*
D03*
X64966Y122834D02*
D03*
Y125196D02*
D03*
X63785Y126377D02*
D03*
X61423D02*
D03*
X37396Y38583D02*
D03*
X38577Y39764D02*
D03*
X40939D02*
D03*
X42121Y38583D02*
D03*
Y36221D02*
D03*
X40939Y35040D02*
D03*
X38577D02*
D03*
X37396Y36221D02*
D03*
X39758Y38583D02*
D03*
Y36221D02*
D03*
X40939Y37402D02*
D03*
X38577D02*
D03*
X74016Y71655D02*
D03*
X54921Y53347D02*
D03*
X54528Y59055D02*
D03*
X46260Y98425D02*
D03*
X36024Y98622D02*
D03*
X61417Y86614D02*
D03*
X48819Y59055D02*
D03*
X42323Y55118D02*
D03*
X33465Y60039D02*
D03*
X65748Y71457D02*
D03*
X58268Y67716D02*
D03*
Y74016D02*
D03*
X48819Y80315D02*
D03*
X51968D02*
D03*
X20472Y84842D02*
D03*
X43307Y24606D02*
D03*
X24606Y93504D02*
D03*
X44882Y132555D02*
D03*
X49246Y117130D02*
D03*
X27362Y63189D02*
D03*
X20472Y71063D02*
D03*
X44094Y53150D02*
D03*
X58071Y21654D02*
D03*
X46457Y134055D02*
D03*
X53120Y123031D02*
D03*
X49242Y38386D02*
D03*
X53543Y85039D02*
D03*
X50394D02*
D03*
X75787Y50197D02*
D03*
X20472Y66142D02*
D03*
Y73622D02*
D03*
X28543Y19685D02*
D03*
X44685Y112205D02*
D03*
X55709Y135433D02*
D03*
X65748Y137992D02*
D03*
X68110Y139961D02*
D03*
X77953Y96949D02*
D03*
X28543Y57874D02*
D03*
X27362D02*
D03*
X20472Y80709D02*
D03*
X68218Y57874D02*
D03*
X67037D02*
D03*
X62891Y62205D02*
D03*
X81339Y93996D02*
D03*
X78740Y39173D02*
D03*
X77953Y99311D02*
D03*
X93371Y100330D02*
D03*
X62008Y99803D02*
D03*
Y102362D02*
D03*
X94488Y68898D02*
D03*
X87008Y59449D02*
D03*
Y57087D02*
D03*
Y58268D02*
D03*
X89764Y62402D02*
D03*
Y60039D02*
D03*
Y61221D02*
D03*
X72047Y57087D02*
D03*
Y59449D02*
D03*
Y58268D02*
D03*
X84416Y64567D02*
D03*
X74016Y70474D02*
D03*
X77362Y83268D02*
D03*
Y85630D02*
D03*
Y84449D02*
D03*
X75361Y88189D02*
D03*
X64668Y97638D02*
D03*
X77953Y98130D02*
D03*
X86221Y93701D02*
D03*
X87402Y93701D02*
D03*
X86221Y90158D02*
D03*
Y91339D02*
D03*
Y92520D02*
D03*
Y86614D02*
D03*
Y87795D02*
D03*
Y88976D02*
D03*
X87402Y90158D02*
D03*
Y91339D02*
D03*
Y92520D02*
D03*
Y86614D02*
D03*
Y87795D02*
D03*
Y88976D02*
D03*
X82520Y93996D02*
D03*
X83701D02*
D03*
X88583Y93701D02*
D03*
Y90158D02*
D03*
Y91339D02*
D03*
Y92520D02*
D03*
X89764Y91339D02*
D03*
Y92520D02*
D03*
Y93701D02*
D03*
X90945Y91339D02*
D03*
Y92520D02*
D03*
Y93701D02*
D03*
Y90158D02*
D03*
X89764D02*
D03*
X90945Y88976D02*
D03*
X88583D02*
D03*
X89764D02*
D03*
X90945Y87795D02*
D03*
X88583D02*
D03*
X89764D02*
D03*
X90945Y86614D02*
D03*
X88583D02*
D03*
X89764D02*
D03*
X90945Y85433D02*
D03*
X88583D02*
D03*
X89764D02*
D03*
X87402D02*
D03*
X86221Y85433D02*
D03*
X90945Y84252D02*
D03*
X88583D02*
D03*
X89764D02*
D03*
X87402D02*
D03*
X86221Y84252D02*
D03*
Y83071D02*
D03*
X87402Y83071D02*
D03*
X89764D02*
D03*
X88583D02*
D03*
X90945D02*
D03*
X87402Y108071D02*
D03*
X86221Y110433D02*
D03*
X87402D02*
D03*
Y109252D02*
D03*
X90945Y106890D02*
D03*
X89764Y109252D02*
D03*
X88583Y106890D02*
D03*
X89764D02*
D03*
X88583Y109252D02*
D03*
X89764Y108071D02*
D03*
Y110433D02*
D03*
X86221Y108071D02*
D03*
X87402Y106890D02*
D03*
X90945Y109252D02*
D03*
X88583Y108071D02*
D03*
X86221Y109252D02*
D03*
X88583Y110433D02*
D03*
X86221Y106890D02*
D03*
X90945Y108071D02*
D03*
Y110433D02*
D03*
X41456Y20552D02*
D03*
X39035Y10827D02*
D03*
X23957D02*
D03*
X33473Y15551D02*
D03*
X31504Y6103D02*
D03*
X35441D02*
D03*
X37410D02*
D03*
X25599D02*
D03*
X27567D02*
D03*
X64969D02*
D03*
X70874D02*
D03*
X66937D02*
D03*
X74811D02*
D03*
X72843Y15551D02*
D03*
X78405Y10827D02*
D03*
X76780Y6103D02*
D03*
X37795Y75590D02*
D03*
X45669Y77165D02*
D03*
X42520D02*
D03*
X39370Y80315D02*
D03*
X51968Y67716D02*
D03*
Y64567D02*
D03*
X61024Y23622D02*
D03*
X57284Y28740D02*
D03*
X58268Y64567D02*
D03*
X55118Y80315D02*
D03*
X59842Y16929D02*
D03*
X55118Y67716D02*
D03*
Y70866D02*
D03*
X55709Y46850D02*
D03*
X53120Y44291D02*
D03*
X42520Y70866D02*
D03*
X58268Y80315D02*
D03*
Y77165D02*
D03*
X62461Y11000D02*
D03*
X42520Y74016D02*
D03*
X45669Y70866D02*
D03*
X42717Y27559D02*
D03*
X45669Y67716D02*
D03*
X48819D02*
D03*
X55118Y77165D02*
D03*
Y74016D02*
D03*
Y64567D02*
D03*
X30315D02*
D03*
X36614Y53150D02*
D03*
X39370D02*
D03*
X41339D02*
D03*
X28740Y64567D02*
D03*
X36220Y67716D02*
D03*
X39370D02*
D03*
X42520D02*
D03*
X33071Y74016D02*
D03*
X20472Y90551D02*
D03*
X39370Y70866D02*
D03*
Y77165D02*
D03*
X36220D02*
D03*
Y80315D02*
D03*
X39370Y74016D02*
D03*
X20472Y92716D02*
D03*
X29528Y83071D02*
D03*
Y88583D02*
D03*
Y94095D02*
D03*
Y99606D02*
D03*
X23622Y140551D02*
D03*
Y106299D02*
D03*
Y117126D02*
D03*
Y129921D02*
D03*
X36614Y139173D02*
D03*
X46654Y114567D02*
D03*
X49242Y121063D02*
D03*
X44094Y137795D02*
D03*
X39370Y89764D02*
D03*
Y92913D02*
D03*
X42520D02*
D03*
Y89764D02*
D03*
X48819Y86614D02*
D03*
Y89764D02*
D03*
X53120Y128937D02*
D03*
X55709Y131496D02*
D03*
X59646Y133858D02*
D03*
X63583D02*
D03*
X57677D02*
D03*
X61024Y108268D02*
D03*
X58268Y89764D02*
D03*
Y92913D02*
D03*
X94488Y141339D02*
D03*
X93307D02*
D03*
X95669Y142520D02*
D03*
Y141339D02*
D03*
X96850Y142520D02*
D03*
Y141339D02*
D03*
X98032Y142520D02*
D03*
Y141339D02*
D03*
X4332Y141340D02*
D03*
Y142521D02*
D03*
X5513Y141340D02*
D03*
Y142521D02*
D03*
X6694Y141340D02*
D03*
X7875D02*
D03*
X84842Y21457D02*
D03*
X86024D02*
D03*
X87205D02*
D03*
X88386D02*
D03*
X86024Y19094D02*
D03*
X84842D02*
D03*
X88386Y20276D02*
D03*
X89567D02*
D03*
X90748D02*
D03*
X87205D02*
D03*
X86024D02*
D03*
X84842D02*
D03*
X89567Y21457D02*
D03*
X90748D02*
D03*
X93307Y30510D02*
D03*
Y31691D02*
D03*
X94488Y30510D02*
D03*
Y31691D02*
D03*
X95669Y30510D02*
D03*
Y31691D02*
D03*
X96850Y30510D02*
D03*
Y31691D02*
D03*
X98032Y30510D02*
D03*
Y31691D02*
D03*
Y43502D02*
D03*
Y42321D02*
D03*
X96850Y43502D02*
D03*
Y42321D02*
D03*
X95669Y43502D02*
D03*
Y42321D02*
D03*
X94488Y43502D02*
D03*
Y42321D02*
D03*
X93307Y43502D02*
D03*
Y42321D02*
D03*
X9056Y130906D02*
D03*
Y129725D02*
D03*
X7875Y130906D02*
D03*
Y129725D02*
D03*
X6694Y130906D02*
D03*
Y129725D02*
D03*
X5513Y130906D02*
D03*
Y129725D02*
D03*
X4332Y130906D02*
D03*
Y129725D02*
D03*
Y117914D02*
D03*
Y119095D02*
D03*
X5513Y117914D02*
D03*
Y119095D02*
D03*
X6694Y117914D02*
D03*
Y119095D02*
D03*
X7875Y117914D02*
D03*
Y119095D02*
D03*
X9056Y117914D02*
D03*
Y119095D02*
D03*
X93307Y117913D02*
D03*
Y119095D02*
D03*
X94488Y117913D02*
D03*
Y119095D02*
D03*
X95669Y117913D02*
D03*
Y119095D02*
D03*
X96850Y117913D02*
D03*
Y119095D02*
D03*
X98032Y117913D02*
D03*
Y119095D02*
D03*
Y130905D02*
D03*
Y129724D02*
D03*
X96850Y130905D02*
D03*
Y129724D02*
D03*
X95669Y130905D02*
D03*
Y129724D02*
D03*
X94488Y130905D02*
D03*
Y129724D02*
D03*
X93307Y130905D02*
D03*
Y129724D02*
D03*
X9055Y31693D02*
D03*
Y30512D02*
D03*
X7874Y31693D02*
D03*
Y30512D02*
D03*
X6693Y31693D02*
D03*
Y30512D02*
D03*
X5512Y31693D02*
D03*
Y30512D02*
D03*
X4331Y31693D02*
D03*
Y30512D02*
D03*
Y42323D02*
D03*
Y43504D02*
D03*
X5512Y42323D02*
D03*
Y43504D02*
D03*
X6693Y42323D02*
D03*
Y43504D02*
D03*
X7874Y42323D02*
D03*
Y43504D02*
D03*
X9055Y42323D02*
D03*
Y43504D02*
D03*
X17520Y19094D02*
D03*
X16339D02*
D03*
X15157Y20276D02*
D03*
X16339D02*
D03*
X17520D02*
D03*
X13976D02*
D03*
X12795D02*
D03*
X11614D02*
D03*
X17520Y21457D02*
D03*
X16339D02*
D03*
X15157D02*
D03*
X13976D02*
D03*
X12795D02*
D03*
X11614D02*
D03*
X16142Y54528D02*
D03*
Y53347D02*
D03*
Y52165D02*
D03*
Y50984D02*
D03*
X11417Y54527D02*
D03*
X12598D02*
D03*
X13780D02*
D03*
X14961D02*
D03*
X11417Y53347D02*
D03*
X12598D02*
D03*
X13780D02*
D03*
X14961D02*
D03*
Y52165D02*
D03*
X13780D02*
D03*
X12598D02*
D03*
X11417D02*
D03*
Y50984D02*
D03*
X12598D02*
D03*
X13780D02*
D03*
X14961D02*
D03*
X90945Y131102D02*
D03*
X89764D02*
D03*
X88583D02*
D03*
X87402D02*
D03*
X86221D02*
D03*
X85039D02*
D03*
X90945Y129921D02*
D03*
X89764D02*
D03*
X88583D02*
D03*
X87402D02*
D03*
X86221D02*
D03*
X85039D02*
D03*
Y128740D02*
D03*
X86221D02*
D03*
X87402D02*
D03*
X88583D02*
D03*
X89764D02*
D03*
X90945D02*
D03*
X85039Y127559D02*
D03*
X86221D02*
D03*
X87402D02*
D03*
X88583D02*
D03*
X89764D02*
D03*
X90945D02*
D03*
Y126378D02*
D03*
X89764D02*
D03*
X88583D02*
D03*
X87402D02*
D03*
X86221D02*
D03*
X85039D02*
D03*
X17323Y35039D02*
D03*
X16142D02*
D03*
X14961D02*
D03*
X13780D02*
D03*
X12598D02*
D03*
X11417D02*
D03*
Y33858D02*
D03*
X12598D02*
D03*
X13780D02*
D03*
X14961D02*
D03*
X16142D02*
D03*
X17323D02*
D03*
X11417Y32677D02*
D03*
X12598D02*
D03*
X13780D02*
D03*
X14961D02*
D03*
X16142D02*
D03*
X17323D02*
D03*
Y31496D02*
D03*
X16142D02*
D03*
X14961D02*
D03*
X13780D02*
D03*
X12598D02*
D03*
X11417D02*
D03*
X17323Y30315D02*
D03*
X16142D02*
D03*
X14961D02*
D03*
X13780D02*
D03*
X12598D02*
D03*
X11417D02*
D03*
X90945Y50984D02*
D03*
X89764D02*
D03*
X88583D02*
D03*
X87402D02*
D03*
X86221D02*
D03*
X90945Y52165D02*
D03*
X89764D02*
D03*
X88583D02*
D03*
X87402D02*
D03*
X86221D02*
D03*
X90945Y53347D02*
D03*
X89764D02*
D03*
X88583D02*
D03*
X87402D02*
D03*
X86221D02*
D03*
X90945Y54528D02*
D03*
X89764D02*
D03*
X88583D02*
D03*
X87402D02*
D03*
X86221D02*
D03*
X90945Y55709D02*
D03*
X89764D02*
D03*
X88583D02*
D03*
X87402D02*
D03*
X86221D02*
D03*
X85039Y30315D02*
D03*
X86221D02*
D03*
X87402D02*
D03*
X88583D02*
D03*
X89764D02*
D03*
X90945D02*
D03*
X85039Y31496D02*
D03*
X86221D02*
D03*
X87402D02*
D03*
X88583D02*
D03*
X89764D02*
D03*
X90945D02*
D03*
Y32677D02*
D03*
X89764D02*
D03*
X88583D02*
D03*
X87402D02*
D03*
X86221D02*
D03*
X85039D02*
D03*
X90945Y33858D02*
D03*
X89764D02*
D03*
X88583D02*
D03*
X87402D02*
D03*
X86221D02*
D03*
X85039D02*
D03*
X90945Y35039D02*
D03*
X89764D02*
D03*
X88583D02*
D03*
X87402D02*
D03*
X86221D02*
D03*
X85039D02*
D03*
X17323Y126378D02*
D03*
X16142D02*
D03*
X14961D02*
D03*
X13780D02*
D03*
X12598D02*
D03*
X11417D02*
D03*
X16142Y105709D02*
D03*
X14961D02*
D03*
X13780D02*
D03*
X12598D02*
D03*
X11417D02*
D03*
X16142Y106890D02*
D03*
X14961D02*
D03*
X13780D02*
D03*
X12598D02*
D03*
X11417D02*
D03*
X16142Y108071D02*
D03*
X14961D02*
D03*
X13780D02*
D03*
X12598D02*
D03*
X11417D02*
D03*
X16142Y109252D02*
D03*
X14961D02*
D03*
X13780D02*
D03*
X12598D02*
D03*
X11417D02*
D03*
X16142Y110433D02*
D03*
X14961D02*
D03*
X13780D02*
D03*
X12598D02*
D03*
X11417D02*
D03*
X17323Y127559D02*
D03*
X16142D02*
D03*
X14961D02*
D03*
X13780D02*
D03*
X12598D02*
D03*
X11417D02*
D03*
X16142Y128740D02*
D03*
X14961D02*
D03*
X13780D02*
D03*
X12598D02*
D03*
X11417D02*
D03*
Y129921D02*
D03*
X12598D02*
D03*
X13780D02*
D03*
X14961D02*
D03*
X16142D02*
D03*
X11417Y131102D02*
D03*
X12598D02*
D03*
X13780D02*
D03*
X14961D02*
D03*
X16142D02*
D03*
X26608Y123031D02*
D03*
X30059Y108268D02*
D03*
X23819D02*
D03*
Y131890D02*
D03*
Y120079D02*
D03*
X25984Y114173D02*
D03*
X42717Y112205D02*
D03*
X38780D02*
D03*
X23622Y126575D02*
D03*
X26608Y128937D02*
D03*
X23622Y124409D02*
D03*
X34843Y129921D02*
D03*
X30906Y123622D02*
D03*
X30906Y122047D02*
D03*
X31693Y139173D02*
D03*
Y134055D02*
D03*
Y136024D02*
D03*
X23622Y122244D02*
D03*
X78543Y41339D02*
D03*
X78740Y31496D02*
D03*
Y55118D02*
D03*
X68108Y22244D02*
D03*
X70669D02*
D03*
X78740Y20866D02*
D03*
X67520Y31496D02*
D03*
X78740Y37008D02*
D03*
X75754Y32480D02*
D03*
X78740Y34843D02*
D03*
Y44291D02*
D03*
X76378Y23622D02*
D03*
Y47244D02*
D03*
X78543Y53150D02*
D03*
Y29528D02*
D03*
X72303Y53150D02*
D03*
X75754Y38386D02*
D03*
X58268Y23622D02*
D03*
X63583Y49213D02*
D03*
X59646D02*
D03*
X57677D02*
D03*
X75754Y123031D02*
D03*
Y117126D02*
D03*
X76378Y131890D02*
D03*
X67520Y114173D02*
D03*
X71457Y124016D02*
D03*
X68110Y133858D02*
D03*
X71457Y122441D02*
D03*
X72303Y137795D02*
D03*
X53120Y126969D02*
D03*
Y125000D02*
D03*
X78740Y121260D02*
D03*
Y119291D02*
D03*
Y117323D02*
D03*
Y128937D02*
D03*
Y130905D02*
D03*
Y140354D02*
D03*
X62992Y108268D02*
D03*
X78543Y137795D02*
D03*
Y125984D02*
D03*
Y114173D02*
D03*
X65748Y108268D02*
D03*
X68110D02*
D03*
X70079Y110039D02*
D03*
X32283Y51378D02*
D03*
X23819Y47244D02*
D03*
Y35433D02*
D03*
Y23622D02*
D03*
X23622Y21063D02*
D03*
Y30512D02*
D03*
Y32480D02*
D03*
Y44094D02*
D03*
Y42126D02*
D03*
Y40157D02*
D03*
X44094Y48031D02*
D03*
X49242Y36418D02*
D03*
Y34449D02*
D03*
Y32481D02*
D03*
X46654Y29921D02*
D03*
X38780Y27559D02*
D03*
X44685D02*
D03*
X36614Y23425D02*
D03*
X30059Y23622D02*
D03*
X34252Y21457D02*
D03*
X30906Y38976D02*
D03*
X34252Y27559D02*
D03*
X30906Y37402D02*
D03*
X34843Y47244D02*
D03*
X25984Y29528D02*
D03*
X26608Y44291D02*
D03*
Y38386D02*
D03*
D77*
X53120Y128937D02*
D03*
Y126969D02*
D03*
Y125000D02*
D03*
Y123032D02*
D03*
Y121063D02*
D03*
Y119095D02*
D03*
X68140D02*
D03*
Y121063D02*
D03*
Y123032D02*
D03*
Y125000D02*
D03*
Y126969D02*
D03*
Y128937D02*
D03*
X34222Y32481D02*
D03*
Y34449D02*
D03*
Y36418D02*
D03*
Y38386D02*
D03*
Y40355D02*
D03*
Y42323D02*
D03*
X49242D02*
D03*
Y40355D02*
D03*
Y38386D02*
D03*
Y36418D02*
D03*
Y34449D02*
D03*
Y32481D02*
D03*
Y117126D02*
D03*
Y119094D02*
D03*
Y121063D02*
D03*
Y123031D02*
D03*
Y125000D02*
D03*
Y126968D02*
D03*
X34222D02*
D03*
Y125000D02*
D03*
Y123031D02*
D03*
Y121063D02*
D03*
Y119094D02*
D03*
Y117126D02*
D03*
X68140Y44291D02*
D03*
Y42323D02*
D03*
Y40354D02*
D03*
Y38386D02*
D03*
Y36417D02*
D03*
Y34449D02*
D03*
X53120D02*
D03*
Y36417D02*
D03*
Y38386D02*
D03*
Y40354D02*
D03*
Y42323D02*
D03*
Y44291D02*
D03*
D78*
X55709Y116506D02*
D03*
X57677D02*
D03*
X59646D02*
D03*
X61614D02*
D03*
X63583D02*
D03*
X65551D02*
D03*
Y131526D02*
D03*
X63583D02*
D03*
X61614D02*
D03*
X59646D02*
D03*
X57677D02*
D03*
X55709D02*
D03*
X46653Y29892D02*
D03*
X44685D02*
D03*
X42716D02*
D03*
X40748D02*
D03*
X38779D02*
D03*
X36811D02*
D03*
Y44912D02*
D03*
X38779D02*
D03*
X40748D02*
D03*
X42716D02*
D03*
X44685D02*
D03*
X46653D02*
D03*
Y129557D02*
D03*
X44685D02*
D03*
X42716D02*
D03*
X40748D02*
D03*
X38779D02*
D03*
X36811D02*
D03*
Y114537D02*
D03*
X38779D02*
D03*
X40748D02*
D03*
X42716D02*
D03*
X44685D02*
D03*
X46653D02*
D03*
X55709Y46880D02*
D03*
X57677D02*
D03*
X59646D02*
D03*
X61614D02*
D03*
X63583D02*
D03*
X65551D02*
D03*
Y31860D02*
D03*
X63583D02*
D03*
X61614D02*
D03*
X59646D02*
D03*
X57677D02*
D03*
X55709D02*
D03*
D79*
X60630Y124016D02*
D03*
X41732Y37402D02*
D03*
Y122047D02*
D03*
X60630Y39370D02*
D03*
D80*
X42913Y12891D02*
D03*
Y10731D02*
D03*
Y5810D02*
D03*
Y7970D02*
D03*
X65158Y100101D02*
D03*
Y102261D02*
D03*
X24016Y63290D02*
D03*
Y65450D02*
D03*
Y77070D02*
D03*
Y79230D02*
D03*
X59449Y10731D02*
D03*
Y12891D02*
D03*
Y7970D02*
D03*
Y5810D02*
D03*
X65748Y64274D02*
D03*
Y66434D02*
D03*
D81*
X84416Y64567D02*
D03*
X82514D02*
D03*
X66699Y85433D02*
D03*
X64797D02*
D03*
X66699Y83465D02*
D03*
X64797D02*
D03*
X66699Y81496D02*
D03*
X64797D02*
D03*
X84416Y71653D02*
D03*
X82514D02*
D03*
X64994Y104921D02*
D03*
X66896D02*
D03*
X70833Y102362D02*
D03*
X68931D02*
D03*
Y104921D02*
D03*
X70833D02*
D03*
X66699Y95276D02*
D03*
X64797D02*
D03*
X73458Y88189D02*
D03*
X75361D02*
D03*
X84416Y69291D02*
D03*
X82514D02*
D03*
X69128Y88189D02*
D03*
X71030D02*
D03*
X29298Y77165D02*
D03*
X27395D02*
D03*
X29298Y80315D02*
D03*
X27395D02*
D03*
X29298Y70866D02*
D03*
X27395D02*
D03*
D82*
X64668Y90551D02*
D03*
X66828D02*
D03*
X51474Y96850D02*
D03*
X49314D02*
D03*
X73329Y102362D02*
D03*
X75489D02*
D03*
X84545Y62205D02*
D03*
X82385D02*
D03*
X84545Y66929D02*
D03*
X82385D02*
D03*
X64668Y97638D02*
D03*
X66828D02*
D03*
X64668Y92913D02*
D03*
X66828D02*
D03*
X29427Y74016D02*
D03*
X27266D02*
D03*
X49511Y49606D02*
D03*
X51671D02*
D03*
X66828Y88189D02*
D03*
X64668D02*
D03*
D83*
X34252Y110006D02*
D03*
Y108104D02*
D03*
X61024Y111975D02*
D03*
Y110073D02*
D03*
X63386Y111975D02*
D03*
Y110073D02*
D03*
X65748Y111975D02*
D03*
Y110073D02*
D03*
X34252Y25361D02*
D03*
Y23458D02*
D03*
X42520Y60990D02*
D03*
Y59088D02*
D03*
X39370Y60990D02*
D03*
Y59088D02*
D03*
X36220Y60990D02*
D03*
Y59088D02*
D03*
X39370Y96687D02*
D03*
Y98589D02*
D03*
X42520Y96687D02*
D03*
Y98589D02*
D03*
X48819Y60990D02*
D03*
Y59088D02*
D03*
X51968Y60990D02*
D03*
Y59088D02*
D03*
X58661Y25427D02*
D03*
Y27329D02*
D03*
X63386Y25427D02*
D03*
Y27329D02*
D03*
X41339Y135990D02*
D03*
Y134088D02*
D03*
Y51345D02*
D03*
Y49443D02*
D03*
X36614Y51345D02*
D03*
Y49443D02*
D03*
X65748Y25427D02*
D03*
Y27329D02*
D03*
X68110Y53313D02*
D03*
Y51411D02*
D03*
X34252Y135990D02*
D03*
Y134088D02*
D03*
Y51345D02*
D03*
Y49443D02*
D03*
X36614Y23458D02*
D03*
Y25361D02*
D03*
X68110Y137959D02*
D03*
Y136057D02*
D03*
X61024Y25427D02*
D03*
Y27329D02*
D03*
X43701Y135990D02*
D03*
Y134088D02*
D03*
X38976Y135990D02*
D03*
Y134088D02*
D03*
Y51345D02*
D03*
Y49443D02*
D03*
X68110Y25427D02*
D03*
Y27329D02*
D03*
X36614Y135990D02*
D03*
Y134088D02*
D03*
X68110Y110073D02*
D03*
Y111975D02*
D03*
X65748Y137959D02*
D03*
Y136057D02*
D03*
Y69521D02*
D03*
Y71423D02*
D03*
D84*
X61417Y64567D02*
D03*
X58268D02*
D03*
X55118D02*
D03*
X51968D02*
D03*
X48819D02*
D03*
X45669D02*
D03*
X42520D02*
D03*
X39370D02*
D03*
X36220D02*
D03*
X33071D02*
D03*
X61417Y67716D02*
D03*
X58268D02*
D03*
X55118D02*
D03*
X51968D02*
D03*
X48819D02*
D03*
X45669D02*
D03*
X42520D02*
D03*
X39370D02*
D03*
X36220D02*
D03*
X33071D02*
D03*
X61417Y70866D02*
D03*
X58268D02*
D03*
X55118D02*
D03*
X51968D02*
D03*
X48819D02*
D03*
X45669D02*
D03*
X42520D02*
D03*
X39370D02*
D03*
X36220D02*
D03*
X33071D02*
D03*
X61417Y74016D02*
D03*
X58268D02*
D03*
X55118D02*
D03*
X51968D02*
D03*
X48819D02*
D03*
X45669D02*
D03*
X42520D02*
D03*
X39370D02*
D03*
X36220D02*
D03*
X33071D02*
D03*
X61417Y77165D02*
D03*
X58268D02*
D03*
X55118D02*
D03*
X51968D02*
D03*
X48819D02*
D03*
X45669D02*
D03*
X42520D02*
D03*
X39370D02*
D03*
X36220D02*
D03*
X33071D02*
D03*
X61417Y80315D02*
D03*
X58268D02*
D03*
X55118D02*
D03*
X51968D02*
D03*
X48819D02*
D03*
X45669D02*
D03*
X42520D02*
D03*
X39370D02*
D03*
X36220D02*
D03*
X33071D02*
D03*
X61417Y83464D02*
D03*
X58268D02*
D03*
X55118D02*
D03*
X51968D02*
D03*
X48819D02*
D03*
X45669D02*
D03*
X42520D02*
D03*
X39370D02*
D03*
X36220D02*
D03*
X33071D02*
D03*
X61417Y86614D02*
D03*
X58268D02*
D03*
X55118D02*
D03*
X51968D02*
D03*
X48819D02*
D03*
X45669D02*
D03*
X42520D02*
D03*
X39370D02*
D03*
X36220D02*
D03*
X33071D02*
D03*
X61417Y89764D02*
D03*
X58268D02*
D03*
X55118D02*
D03*
X51968D02*
D03*
X48819D02*
D03*
X45669D02*
D03*
X42520D02*
D03*
X39370D02*
D03*
X36220D02*
D03*
X33071D02*
D03*
X61417Y92913D02*
D03*
X58268D02*
D03*
X55118D02*
D03*
X51968D02*
D03*
X48819D02*
D03*
X45669D02*
D03*
X42520D02*
D03*
X39370D02*
D03*
X36220D02*
D03*
X33071D02*
D03*
D85*
X77362Y76968D02*
Y84449D01*
D86*
X66181Y165354D02*
D03*
D87*
X56181D02*
D03*
X46181D02*
D03*
X36181D02*
D03*
D88*
X11811Y149606D02*
D03*
X90551D02*
D03*
X11811Y11811D02*
D03*
X90551D02*
D03*
D89*
X99213Y98425D02*
D03*
Y74803D02*
D03*
D90*
Y86614D02*
D03*
Y62992D02*
D03*
D91*
X3150Y124016D02*
D03*
Y112205D02*
D03*
Y135827D02*
D03*
Y25591D02*
D03*
Y49213D02*
D03*
Y37402D02*
D03*
X99213Y124016D02*
D03*
Y135827D02*
D03*
Y112205D02*
D03*
Y49213D02*
D03*
Y25591D02*
D03*
Y37402D02*
D03*
M02*
