G04*
G04 #@! TF.GenerationSoftware,Altium Limited,Altium Designer,24.8.2 (39)*
G04*
G04 Layer_Physical_Order=4*
G04 Layer_Color=6736896*
%FSLAX25Y25*%
%MOIN*%
G70*
G04*
G04 #@! TF.SameCoordinates,30F909D6-0262-4237-A391-FF9CD089CF35*
G04*
G04*
G04 #@! TF.FilePolarity,Positive*
G04*
G01*
G75*
%ADD72C,0.00394*%
%ADD73C,0.00984*%
%ADD76C,0.00984*%
%ADD86R,0.06693X0.06693*%
%ADD87C,0.06693*%
G04:AMPARAMS|DCode=89|XSize=86.61mil|YSize=78.74mil|CornerRadius=19.68mil|HoleSize=0mil|Usage=FLASHONLY|Rotation=0.000|XOffset=0mil|YOffset=0mil|HoleType=Round|Shape=RoundedRectangle|*
%AMROUNDEDRECTD89*
21,1,0.08661,0.03937,0,0,0.0*
21,1,0.04724,0.07874,0,0,0.0*
1,1,0.03937,0.02362,-0.01968*
1,1,0.03937,-0.02362,-0.01968*
1,1,0.03937,-0.02362,0.01968*
1,1,0.03937,0.02362,0.01968*
%
%ADD89ROUNDEDRECTD89*%
%ADD90R,0.08661X0.07874*%
G04:AMPARAMS|DCode=91|XSize=74.8mil|YSize=59.06mil|CornerRadius=14.76mil|HoleSize=0mil|Usage=FLASHONLY|Rotation=0.000|XOffset=0mil|YOffset=0mil|HoleType=Round|Shape=RoundedRectangle|*
%AMROUNDEDRECTD91*
21,1,0.07480,0.02953,0,0,0.0*
21,1,0.04528,0.05906,0,0,0.0*
1,1,0.02953,0.02264,-0.01476*
1,1,0.02953,-0.02264,-0.01476*
1,1,0.02953,-0.02264,0.01476*
1,1,0.02953,0.02264,0.01476*
%
%ADD91ROUNDEDRECTD91*%
%ADD92C,0.00394*%
G36*
X70227Y162205D02*
X70241Y162171D01*
X70392Y161023D01*
X70848Y159921D01*
X71574Y158976D01*
X72520Y158250D01*
X73621Y157794D01*
X74769Y157643D01*
X74803Y157629D01*
X90551D01*
X90624Y157659D01*
X92124Y157511D01*
X93635Y157053D01*
X95029Y156308D01*
X96250Y155305D01*
X97253Y154084D01*
X97997Y152691D01*
X98456Y151179D01*
X98604Y149679D01*
X98573Y149606D01*
Y139210D01*
X96949D01*
X96219Y139065D01*
X95601Y138651D01*
X95187Y138033D01*
X95042Y137303D01*
Y134350D01*
X95187Y133621D01*
X95601Y133002D01*
X96219Y132589D01*
X96949Y132444D01*
X98573D01*
Y127399D01*
X96949D01*
X96219Y127254D01*
X95601Y126840D01*
X95187Y126222D01*
X95042Y125492D01*
Y122539D01*
X95187Y121810D01*
X95601Y121191D01*
X96219Y120778D01*
X96949Y120633D01*
X98573D01*
Y115588D01*
X96949D01*
X96219Y115443D01*
X95601Y115029D01*
X95187Y114411D01*
X95042Y113681D01*
Y110728D01*
X95187Y109999D01*
X95601Y109380D01*
X96219Y108967D01*
X96949Y108822D01*
X98573D01*
Y102802D01*
X96850D01*
X95929Y102619D01*
X95147Y102097D01*
X94625Y101315D01*
X94625Y101314D01*
X94082Y101149D01*
X93984Y101248D01*
X93586Y101412D01*
X93156D01*
X92758Y101248D01*
X92453Y100943D01*
X92289Y100545D01*
Y100114D01*
X92453Y99716D01*
X92758Y99412D01*
X93156Y99247D01*
X93586D01*
X93942Y99394D01*
X94157Y99317D01*
X94442Y99162D01*
Y96457D01*
X94625Y95535D01*
X95147Y94754D01*
X95929Y94231D01*
X96850Y94048D01*
X98573D01*
Y79180D01*
X96850D01*
X95929Y78997D01*
X95147Y78475D01*
X94625Y77693D01*
X94442Y76772D01*
Y72835D01*
X94625Y71913D01*
X95147Y71132D01*
X95929Y70609D01*
X96850Y70426D01*
X98573D01*
Y52596D01*
X96949D01*
X96219Y52451D01*
X95601Y52037D01*
X95187Y51419D01*
X95042Y50689D01*
Y47736D01*
X95187Y47007D01*
X95601Y46388D01*
X96219Y45975D01*
X96949Y45829D01*
X98573D01*
Y40785D01*
X96949D01*
X96219Y40639D01*
X95601Y40226D01*
X95187Y39608D01*
X95042Y38878D01*
Y35925D01*
X95187Y35195D01*
X95601Y34577D01*
X96219Y34164D01*
X96949Y34018D01*
X98573D01*
Y28974D01*
X96949D01*
X96219Y28828D01*
X95601Y28415D01*
X95187Y27797D01*
X95042Y27067D01*
Y24114D01*
X95187Y23384D01*
X95601Y22766D01*
X96219Y22353D01*
X96949Y22208D01*
X98573D01*
Y11811D01*
X98604Y11738D01*
X98456Y10239D01*
X97997Y8727D01*
X97253Y7333D01*
X96250Y6112D01*
X95029Y5110D01*
X93635Y4365D01*
X92124Y3906D01*
X90624Y3759D01*
X90551Y3789D01*
X11811D01*
X11738Y3759D01*
X10239Y3906D01*
X8727Y4365D01*
X7333Y5110D01*
X6112Y6112D01*
X5110Y7333D01*
X4365Y8727D01*
X3906Y10239D01*
X3759Y11738D01*
X3789Y11811D01*
Y22208D01*
X5413D01*
X6143Y22353D01*
X6762Y22766D01*
X7175Y23384D01*
X7320Y24114D01*
Y27067D01*
X7175Y27797D01*
X6762Y28415D01*
X6143Y28828D01*
X5413Y28974D01*
X3789D01*
Y34018D01*
X5413D01*
X6143Y34164D01*
X6762Y34577D01*
X7175Y35195D01*
X7320Y35925D01*
Y38878D01*
X7175Y39608D01*
X6762Y40226D01*
X6143Y40639D01*
X5413Y40785D01*
X3789D01*
Y45829D01*
X5413D01*
X6143Y45975D01*
X6762Y46388D01*
X7175Y47007D01*
X7320Y47736D01*
Y50689D01*
X7175Y51419D01*
X6762Y52037D01*
X6143Y52451D01*
X5413Y52596D01*
X3789D01*
Y108822D01*
X5413D01*
X6143Y108967D01*
X6762Y109380D01*
X7175Y109999D01*
X7320Y110728D01*
Y113681D01*
X7175Y114411D01*
X6762Y115029D01*
X6143Y115443D01*
X5413Y115588D01*
X3789D01*
Y120633D01*
X5413D01*
X6143Y120778D01*
X6762Y121191D01*
X7175Y121810D01*
X7320Y122539D01*
Y125492D01*
X7175Y126222D01*
X6762Y126840D01*
X6143Y127254D01*
X5413Y127399D01*
X3789D01*
Y132444D01*
X5413D01*
X6143Y132589D01*
X6762Y133002D01*
X7175Y133621D01*
X7320Y134350D01*
Y137303D01*
X7175Y138033D01*
X6762Y138651D01*
X6143Y139065D01*
X5413Y139210D01*
X3789D01*
Y149606D01*
X3759Y149679D01*
X3906Y151179D01*
X4365Y152691D01*
X5110Y154084D01*
X6112Y155305D01*
X7333Y156308D01*
X8727Y157053D01*
X10239Y157511D01*
X11738Y157659D01*
X11811Y157629D01*
X27559D01*
X27593Y157643D01*
X28741Y157794D01*
X29842Y158250D01*
X30788Y158976D01*
X31514Y159921D01*
X31970Y161023D01*
X32121Y162171D01*
X32135Y162205D01*
Y171945D01*
X32635Y172011D01*
X32696Y171785D01*
X33188Y170932D01*
X33885Y170236D01*
X34738Y169743D01*
X35542Y169527D01*
Y164342D01*
X35584Y164241D01*
X35671Y163804D01*
X35917Y163436D01*
X35959Y163334D01*
X37508Y161785D01*
X37550Y161682D01*
Y145995D01*
X37591Y145895D01*
X37678Y145458D01*
X37926Y145087D01*
X37968Y144987D01*
X43636Y139318D01*
X43518Y138729D01*
X43481Y138713D01*
X43177Y138409D01*
X43012Y138011D01*
Y137580D01*
X43177Y137182D01*
X43481Y136877D01*
X43879Y136713D01*
X44310D01*
X44708Y136877D01*
X45012Y137182D01*
X45028Y137219D01*
X45618Y137337D01*
X49317Y133637D01*
X49330Y133631D01*
X49366Y133545D01*
X49361Y133532D01*
X49361Y132413D01*
X49373Y132384D01*
X49535Y131568D01*
X49768Y131219D01*
X49802Y131087D01*
X50119Y130663D01*
X50123Y130660D01*
X50154Y130587D01*
X50148Y130574D01*
Y122342D01*
X49648Y122067D01*
X49458Y122146D01*
X49027D01*
X48629Y121981D01*
X48324Y121677D01*
X48160Y121279D01*
Y120848D01*
X48324Y120450D01*
X48369Y120405D01*
X48585Y120079D01*
X48369Y119752D01*
X48324Y119708D01*
X48160Y119310D01*
Y118879D01*
X48324Y118481D01*
X48368Y118437D01*
X48588Y118114D01*
X48368Y117784D01*
X48328Y117744D01*
X48296Y117664D01*
X48166Y117639D01*
X47681Y117590D01*
X47681Y117590D01*
X47452Y117932D01*
X47372Y118335D01*
X47360D01*
Y133427D01*
X47374Y133442D01*
X47539Y133840D01*
Y134271D01*
X47374Y134668D01*
X47070Y134973D01*
X46672Y135138D01*
X46241D01*
X45843Y134973D01*
X45539Y134668D01*
X45374Y134271D01*
Y134064D01*
X45170Y133750D01*
X44916Y133638D01*
X44666D01*
X44269Y133473D01*
X43964Y133168D01*
X43799Y132771D01*
Y132340D01*
X43964Y131942D01*
X44269Y131637D01*
X44666Y131473D01*
X45097D01*
X45553Y131120D01*
Y118832D01*
X45546Y118335D01*
X45546Y118335D01*
X45644Y117590D01*
X45932Y116896D01*
X46389Y116299D01*
X46390Y116299D01*
X46391Y116297D01*
X46459Y115823D01*
X46369Y115621D01*
X46040Y115485D01*
X45736Y115180D01*
X45571Y114782D01*
Y114352D01*
X45736Y113954D01*
X46040Y113649D01*
X46438Y113484D01*
X46869D01*
X47267Y113649D01*
X47571Y113954D01*
X47706Y114279D01*
X47917Y114371D01*
X48384Y114290D01*
X48611Y113950D01*
X48691Y113547D01*
X48703D01*
Y102587D01*
X48691D01*
X48623Y102246D01*
X48384Y101845D01*
X48055Y101497D01*
X46065Y99508D01*
X46044D01*
X45647Y99343D01*
X45342Y99038D01*
X45177Y98641D01*
Y98210D01*
X45342Y97812D01*
X45647Y97507D01*
X46044Y97342D01*
X46475D01*
X46873Y97507D01*
X47178Y97812D01*
X47343Y98210D01*
Y98231D01*
X49648Y100536D01*
X49739Y100530D01*
X50148Y100348D01*
Y98487D01*
X50154Y98474D01*
X50118Y98388D01*
X50106Y98383D01*
X47680Y95957D01*
X47576Y95915D01*
X39893D01*
X39792Y95873D01*
X39355Y95786D01*
X38987Y95540D01*
X38886Y95498D01*
X38886Y95498D01*
X38885Y95498D01*
X38533Y95145D01*
X37573Y94186D01*
X37531Y94084D01*
X37285Y93715D01*
X37198Y93278D01*
X37156Y93178D01*
Y91665D01*
X37198Y91564D01*
X37285Y91127D01*
X37532Y90757D01*
X37574Y90656D01*
X38287Y89942D01*
Y89548D01*
X38452Y89151D01*
X38757Y88846D01*
X39155Y88681D01*
X39585D01*
X39983Y88846D01*
X40288Y89151D01*
X40453Y89548D01*
Y89979D01*
X40288Y90377D01*
X39983Y90682D01*
X39585Y90847D01*
X39191D01*
X38765Y91273D01*
X38791Y91440D01*
X39155Y91831D01*
X39585D01*
X39983Y91996D01*
X40288Y92300D01*
X40453Y92698D01*
Y93092D01*
X40879Y93518D01*
X41046Y93492D01*
X41437Y93129D01*
Y92698D01*
X41602Y92300D01*
X41906Y91996D01*
X42304Y91831D01*
X42735D01*
X43133Y91996D01*
X43437Y92300D01*
X43602Y92698D01*
Y93129D01*
X43511Y93349D01*
X43739Y93792D01*
X43804Y93849D01*
X47902D01*
X48003Y93891D01*
X48440Y93978D01*
X48808Y94224D01*
X48910Y94266D01*
X51445Y96800D01*
X51797Y97153D01*
X51798Y97154D01*
X51798Y97154D01*
X51839Y97255D01*
X52085Y97623D01*
X52172Y98060D01*
X52214Y98161D01*
Y98948D01*
X52297Y98997D01*
X52714Y99101D01*
X52930Y98885D01*
X53328Y98721D01*
X53759D01*
X54157Y98885D01*
X54461Y99190D01*
X54626Y99588D01*
Y100019D01*
X54461Y100416D01*
X54157Y100721D01*
X53759Y100886D01*
X53328D01*
X52930Y100721D01*
X52714Y100505D01*
X52297Y100609D01*
X52214Y100658D01*
X52214Y121753D01*
X52714Y122028D01*
X52904Y121949D01*
X53335D01*
X53733Y122114D01*
X54037Y122418D01*
X54202Y122816D01*
Y123247D01*
X54037Y123645D01*
X53993Y123689D01*
X53777Y124016D01*
X53993Y124342D01*
X54038Y124387D01*
X54203Y124784D01*
Y125215D01*
X54038Y125613D01*
X53993Y125658D01*
X53777Y125984D01*
X53993Y126311D01*
X54038Y126356D01*
X54203Y126753D01*
Y127184D01*
X54038Y127582D01*
X53994Y127626D01*
X53777Y127953D01*
X53994Y128279D01*
X54038Y128323D01*
X54203Y128721D01*
Y129152D01*
X54038Y129550D01*
X53733Y129855D01*
X53335Y130019D01*
X52905D01*
X52714Y129940D01*
X52214Y130215D01*
X52214Y130971D01*
X52214Y130971D01*
X52214Y130971D01*
X52214D01*
X52172Y131071D01*
X52085Y131508D01*
X51843Y131870D01*
X51801Y131975D01*
X51799Y131977D01*
X51757Y132018D01*
X51472Y132306D01*
X51470Y132308D01*
X51470Y132308D01*
X51470D01*
X51470Y132308D01*
X51427Y132790D01*
X51427Y134220D01*
X51427Y134713D01*
X51427Y134713D01*
X51427Y134713D01*
X51427D01*
X51385Y134814D01*
X51298Y135251D01*
X51050Y135621D01*
X51009Y135722D01*
X51009Y135722D01*
X51009Y135722D01*
X51009Y135722D01*
X46864Y139867D01*
X46851Y139872D01*
X46815Y139959D01*
X46820Y139972D01*
Y169527D01*
X47625Y169743D01*
X48478Y170236D01*
X49174Y170932D01*
X49666Y171785D01*
X49921Y172736D01*
Y173721D01*
X49666Y174672D01*
X49174Y175525D01*
X48478Y176221D01*
X47625Y176714D01*
X47252Y176814D01*
X47318Y177314D01*
X55045D01*
X55110Y176814D01*
X54738Y176714D01*
X53885Y176221D01*
X53188Y175525D01*
X52696Y174672D01*
X52441Y173721D01*
Y172736D01*
X52696Y171785D01*
X53188Y170932D01*
X53885Y170236D01*
X54738Y169743D01*
X55689Y169488D01*
X56674D01*
X57625Y169743D01*
X58478Y170236D01*
X59174Y170932D01*
X59666Y171785D01*
X59921Y172736D01*
Y173721D01*
X59666Y174672D01*
X59174Y175525D01*
X58478Y176221D01*
X57625Y176714D01*
X57252Y176814D01*
X57318Y177314D01*
X70227D01*
Y162205D01*
D02*
G37*
%LPC*%
G36*
X55334Y152657D02*
X54903D01*
X54505Y152493D01*
X54200Y152188D01*
X54035Y151790D01*
Y151359D01*
X54065Y151287D01*
X53731Y150787D01*
X52159D01*
X52058Y150745D01*
X51621Y150658D01*
X51251Y150411D01*
X51150Y150369D01*
X50696Y149915D01*
X50609Y149951D01*
X50178D01*
X49780Y149786D01*
X49476Y149482D01*
X49311Y149084D01*
Y148653D01*
X49476Y148255D01*
X49780Y147950D01*
X50178Y147786D01*
X50609D01*
X51007Y147950D01*
X51311Y148255D01*
X51838D01*
X52142Y147950D01*
X52540Y147786D01*
X52971D01*
X53369Y147950D01*
X53647Y148229D01*
X58679D01*
X58783Y148187D01*
X60539Y146431D01*
X60551Y146426D01*
X60587Y146340D01*
X60581Y146327D01*
Y135143D01*
X60524Y135078D01*
X60081Y134850D01*
X59861Y134941D01*
X59430D01*
X59032Y134776D01*
X58988Y134732D01*
X58661Y134516D01*
X58335Y134732D01*
X58290Y134776D01*
X57893Y134941D01*
X57462D01*
X57167Y134819D01*
X56854Y135040D01*
X56764Y135152D01*
X56791Y135218D01*
Y135648D01*
X56626Y136046D01*
X56322Y136351D01*
X55924Y136516D01*
X55493D01*
X55095Y136351D01*
X54791Y136046D01*
X54626Y135648D01*
Y135218D01*
X54791Y134820D01*
X55095Y134515D01*
X55493Y134350D01*
X55924D01*
X56218Y134472D01*
X56532Y134252D01*
X56622Y134139D01*
X56595Y134074D01*
Y133643D01*
X56759Y133245D01*
X57064Y132940D01*
X57462Y132776D01*
X57893D01*
X58290Y132940D01*
X58335Y132985D01*
X58661Y133201D01*
X58988Y132985D01*
X59032Y132940D01*
X59430Y132776D01*
X59861D01*
X60224Y132385D01*
X60251Y132218D01*
X56470Y128437D01*
X56428Y128335D01*
X56182Y127967D01*
X56095Y127530D01*
X56054Y127430D01*
Y91717D01*
X56095Y91616D01*
X56182Y91179D01*
X56410Y90839D01*
X56454Y90726D01*
X57185Y89967D01*
Y89549D01*
X57350Y89151D01*
X57655Y88846D01*
X58053Y88682D01*
X58483D01*
X58881Y88846D01*
X59186Y89151D01*
X59351Y89549D01*
Y89979D01*
X59186Y90377D01*
X58881Y90682D01*
X58483Y90847D01*
X58113D01*
X57653Y91324D01*
X57651Y91330D01*
X57678Y91444D01*
X58053Y91830D01*
X58483D01*
X58881Y91995D01*
X59186Y92300D01*
X59351Y92698D01*
Y93129D01*
X59186Y93526D01*
X58907Y93805D01*
Y100955D01*
X59407Y101289D01*
X59430Y101279D01*
X59861D01*
X60259Y101444D01*
X60563Y101749D01*
X61090D01*
X61394Y101444D01*
X61628Y101348D01*
Y100818D01*
X61394Y100721D01*
X61090Y100417D01*
X60925Y100019D01*
Y99588D01*
X61090Y99190D01*
X61394Y98885D01*
X61792Y98721D01*
X61873D01*
X62080Y98220D01*
X61195Y97335D01*
X61153Y97233D01*
X60907Y96865D01*
X60820Y96428D01*
X60778Y96327D01*
Y90090D01*
X60783Y90077D01*
X60748Y89991D01*
X60736Y89986D01*
X56471Y85721D01*
X56367Y85679D01*
X54435D01*
X54157Y85957D01*
X53759Y86122D01*
X53328D01*
X52930Y85957D01*
X52626Y85653D01*
X52461Y85255D01*
Y84824D01*
X52626Y84426D01*
X52930Y84122D01*
X53328Y83957D01*
X53759D01*
X54157Y84122D01*
X54435Y84400D01*
X56367D01*
X56467Y84442D01*
X56904Y84529D01*
X57272Y84775D01*
X57374Y84817D01*
X61287Y88730D01*
X61640Y89082D01*
X61640Y89083D01*
X61640Y89083D01*
X61682Y89184D01*
X61928Y89552D01*
X62015Y89989D01*
X62056Y90090D01*
Y96327D01*
X62099Y96431D01*
X63087Y97419D01*
X63226Y97420D01*
X63648Y97273D01*
X63750Y97025D01*
X64055Y96720D01*
X64453Y96555D01*
X64883D01*
X65281Y96720D01*
X65586Y97025D01*
X65751Y97422D01*
Y97853D01*
X65586Y98251D01*
X65281Y98556D01*
X65033Y98658D01*
X64886Y99080D01*
X64887Y99219D01*
X67348Y101681D01*
X67452Y101723D01*
X71155D01*
X71434Y101444D01*
X71832Y101279D01*
X72263D01*
X72660Y101444D01*
X72965Y101749D01*
X73130Y102147D01*
Y102578D01*
X72965Y102975D01*
X72660Y103280D01*
X72263Y103445D01*
X71832D01*
X71434Y103280D01*
X71155Y103001D01*
X67452D01*
X67352Y102960D01*
X66914Y102873D01*
X66546Y102627D01*
X66445Y102585D01*
X66445Y102585D01*
X66444Y102585D01*
X66092Y102232D01*
X63590Y99731D01*
X63090Y99938D01*
Y100019D01*
X62926Y100417D01*
X62621Y100721D01*
X62388Y100818D01*
Y101348D01*
X62621Y101444D01*
X62926Y101749D01*
X63090Y102147D01*
Y102578D01*
X62926Y102975D01*
X62621Y103280D01*
X62223Y103445D01*
X61792D01*
X61394Y103280D01*
X61090Y102975D01*
X60563D01*
X60259Y103280D01*
X59861Y103445D01*
X59430D01*
X59407Y103435D01*
X58907Y103769D01*
Y105973D01*
X58950Y106077D01*
X59515Y106643D01*
X59868Y106995D01*
X59869Y106997D01*
X60259Y107279D01*
X60410Y107350D01*
X60808Y107185D01*
X61239D01*
X61637Y107350D01*
X61681Y107394D01*
X62008Y107610D01*
X62335Y107394D01*
X62379Y107350D01*
X62777Y107185D01*
X63208D01*
X63605Y107350D01*
X63910Y107654D01*
X64075Y108052D01*
Y108483D01*
X63910Y108881D01*
X63605Y109186D01*
X63208Y109350D01*
X62777D01*
X62379Y109186D01*
X62335Y109141D01*
X62088Y108978D01*
X61663Y109239D01*
Y109910D01*
X61705Y110014D01*
X63805Y112114D01*
X63909Y112156D01*
X73887D01*
X73987Y112198D01*
X74424Y112285D01*
X74792Y112531D01*
X74894Y112573D01*
X77068Y114746D01*
X77491Y114463D01*
X77461Y114389D01*
Y113958D01*
X77626Y113560D01*
X77930Y113255D01*
X78328Y113091D01*
X78759D01*
X79157Y113255D01*
X79461Y113560D01*
X79626Y113958D01*
Y114389D01*
X79461Y114787D01*
X79157Y115091D01*
X78759Y115256D01*
X78328D01*
X78254Y115225D01*
X77970Y115649D01*
X78562Y116240D01*
X78956D01*
X79353Y116405D01*
X79658Y116709D01*
X79823Y117107D01*
Y117538D01*
X79658Y117936D01*
X79614Y117980D01*
X79397Y118307D01*
X79614Y118634D01*
X79658Y118678D01*
X79823Y119076D01*
Y119507D01*
X79658Y119905D01*
X79614Y119949D01*
X79397Y120276D01*
X79614Y120602D01*
X79658Y120647D01*
X79823Y121045D01*
Y121475D01*
X79658Y121873D01*
X79353Y122178D01*
X78956Y122343D01*
X78525D01*
X78127Y122178D01*
X77822Y121873D01*
X77658Y121475D01*
Y121045D01*
X77822Y120647D01*
X77867Y120602D01*
X78083Y120276D01*
X77867Y119949D01*
X77822Y119905D01*
X77658Y119507D01*
Y119076D01*
X77822Y118678D01*
X77867Y118634D01*
X78083Y118307D01*
X77867Y117980D01*
X77822Y117936D01*
X77658Y117538D01*
Y117144D01*
X77299Y116785D01*
X77188Y116815D01*
X76837Y117031D01*
Y117341D01*
X76672Y117739D01*
X76367Y118044D01*
X75969Y118209D01*
X75539D01*
X75141Y118044D01*
X74862Y117765D01*
X74539D01*
X74438Y117724D01*
X74001Y117637D01*
X73633Y117391D01*
X73532Y117349D01*
X73532Y117349D01*
X73531Y117348D01*
X73178Y116996D01*
X71037Y114855D01*
X70934Y114812D01*
X68412D01*
X68133Y115091D01*
X67735Y115256D01*
X67304D01*
X66906Y115091D01*
X66602Y114787D01*
X66437Y114389D01*
Y113958D01*
X66447Y113935D01*
X66113Y113435D01*
X63909D01*
X63808Y113393D01*
X63371Y113306D01*
X63003Y113060D01*
X62902Y113018D01*
X62902Y113018D01*
X62901Y113018D01*
X62548Y112665D01*
X60801Y110918D01*
X60759Y110816D01*
X60285Y111006D01*
X60285Y113156D01*
X60285Y113650D01*
X60285Y113650D01*
X60285Y113650D01*
X60285D01*
X60243Y113751D01*
X60156Y114188D01*
X59912Y114553D01*
X59870Y114655D01*
X59869Y114657D01*
X59869Y114657D01*
X58163Y116363D01*
X58150Y116368D01*
X58114Y116455D01*
X58119Y116468D01*
Y127036D01*
X58114Y127049D01*
X58150Y127135D01*
X58162Y127140D01*
X61878Y130856D01*
X62230Y131208D01*
X62231Y131209D01*
X62231Y131209D01*
X62272Y131310D01*
X62519Y131678D01*
X62605Y132115D01*
X62647Y132216D01*
Y132574D01*
X62704Y132639D01*
X63147Y132867D01*
X63367Y132776D01*
X63798D01*
X64196Y132940D01*
X64500Y133245D01*
X64665Y133643D01*
Y134074D01*
X64500Y134471D01*
X64196Y134776D01*
X63798Y134941D01*
X63367D01*
X63147Y134850D01*
X62704Y135078D01*
X62647Y135143D01*
Y146721D01*
X62605Y146822D01*
X62519Y147259D01*
X62272Y147627D01*
X62231Y147728D01*
X62231Y147728D01*
X62230Y147729D01*
X62230Y147729D01*
X61885Y148074D01*
X59787Y150172D01*
X59995Y150672D01*
X70494D01*
Y150659D01*
X70897Y150579D01*
X71184Y150387D01*
X71208Y150226D01*
X71092Y149808D01*
X71040Y149786D01*
X70735Y149482D01*
X70209D01*
X69904Y149786D01*
X69507Y149951D01*
X69076D01*
X68678Y149786D01*
X68373Y149482D01*
X68208Y149084D01*
Y148653D01*
X68373Y148255D01*
X68678Y147950D01*
X69076Y147786D01*
X69507D01*
X69904Y147950D01*
X70209Y148255D01*
X70735D01*
X71040Y147950D01*
X71438Y147786D01*
X71868D01*
X72266Y147950D01*
X72571Y148255D01*
X73098D01*
X73403Y147950D01*
X73801Y147786D01*
X74231D01*
X74629Y147950D01*
X74934Y148255D01*
X75099Y148653D01*
Y149084D01*
X74934Y149482D01*
X74629Y149786D01*
X74231Y149951D01*
X74211D01*
X72521Y151640D01*
X72521Y151640D01*
X72521Y151644D01*
X72524Y151647D01*
X71934Y152100D01*
X71239Y152387D01*
X70494Y152485D01*
Y152478D01*
X55746D01*
X55731Y152493D01*
X55334Y152657D01*
D02*
G37*
G36*
X36042Y149951D02*
X35612D01*
X35214Y149786D01*
X34909Y149482D01*
X34383D01*
X34078Y149786D01*
X33680Y149951D01*
X33250D01*
X32852Y149786D01*
X32547Y149482D01*
X32020D01*
X31715Y149786D01*
X31317Y149951D01*
X30887D01*
X30489Y149786D01*
X30184Y149482D01*
X29659D01*
X29354Y149786D01*
X28956Y149951D01*
X28526D01*
X28128Y149786D01*
X27823Y149482D01*
X27296D01*
X26991Y149786D01*
X26593Y149951D01*
X26163D01*
X25765Y149786D01*
X25460Y149482D01*
X25295Y149084D01*
Y148653D01*
X25460Y148255D01*
X25765Y147950D01*
X26163Y147786D01*
X26593D01*
X26991Y147950D01*
X27296Y148255D01*
X27823D01*
X28128Y147950D01*
X28526Y147786D01*
X28956D01*
X29354Y147950D01*
X29659Y148255D01*
X30184D01*
X30489Y147950D01*
X30887Y147786D01*
X31317D01*
X31715Y147950D01*
X32020Y148255D01*
X32547D01*
X32852Y147950D01*
X33250Y147786D01*
X33680D01*
X34078Y147950D01*
X34383Y148255D01*
X34909D01*
X35214Y147950D01*
X35612Y147786D01*
X36042D01*
X36440Y147950D01*
X36745Y148255D01*
X36910Y148653D01*
Y149084D01*
X36745Y149482D01*
X36440Y149786D01*
X36042Y149951D01*
D02*
G37*
G36*
X80137Y146555D02*
X79706D01*
X79331Y146400D01*
X78956Y146555D01*
X78525D01*
X78150Y146400D01*
X77774Y146555D01*
X77344D01*
X76946Y146390D01*
X76641Y146086D01*
X76476Y145688D01*
Y145257D01*
X76641Y144859D01*
X76946Y144555D01*
X77344Y144390D01*
X77774D01*
X78150Y144545D01*
X78525Y144390D01*
X78956D01*
X79331Y144545D01*
X79706Y144390D01*
X80137D01*
X80534Y144555D01*
X80839Y144859D01*
X81004Y145257D01*
Y145688D01*
X80839Y146086D01*
X80534Y146390D01*
X80137Y146555D01*
D02*
G37*
G36*
X25019D02*
X24588D01*
X24213Y146400D01*
X23837Y146555D01*
X23407D01*
X23031Y146400D01*
X22656Y146555D01*
X22226D01*
X21828Y146390D01*
X21523Y146086D01*
X21358Y145688D01*
Y145257D01*
X21523Y144859D01*
X21828Y144555D01*
X22226Y144390D01*
X22656D01*
X23031Y144545D01*
X23407Y144390D01*
X23837D01*
X24213Y144545D01*
X24588Y144390D01*
X25019D01*
X25416Y144555D01*
X25721Y144859D01*
X25886Y145257D01*
Y145688D01*
X25721Y146086D01*
X25416Y146390D01*
X25019Y146555D01*
D02*
G37*
G36*
X36830Y140256D02*
X36399D01*
X36001Y140091D01*
X35696Y139787D01*
X35172D01*
X34868Y140091D01*
X34470Y140256D01*
X34039D01*
X33641Y140091D01*
X33336Y139787D01*
X33237Y139548D01*
X32710D01*
X32611Y139787D01*
X32306Y140091D01*
X31908Y140256D01*
X31478D01*
X31080Y140091D01*
X30775Y139787D01*
X30610Y139389D01*
Y138958D01*
X30620Y138935D01*
X30286Y138435D01*
X26876D01*
X26597Y138713D01*
X26200Y138878D01*
X25769D01*
X25371Y138713D01*
X25066Y138409D01*
X24902Y138011D01*
Y137580D01*
X25066Y137182D01*
X25345Y136903D01*
Y135294D01*
X24845Y135194D01*
X24737Y135456D01*
X24432Y135760D01*
X24034Y135925D01*
X23604D01*
X23206Y135760D01*
X22901Y135456D01*
X22736Y135058D01*
Y134627D01*
X22901Y134229D01*
X23206Y133925D01*
X23604Y133760D01*
X24034D01*
X24432Y133925D01*
X24737Y134229D01*
X24845Y134491D01*
X25345Y134391D01*
Y132341D01*
X24845Y132242D01*
X24737Y132503D01*
X24432Y132808D01*
X24034Y132972D01*
X23604D01*
X23206Y132808D01*
X22901Y132503D01*
X22736Y132105D01*
Y131674D01*
X22901Y131277D01*
X23009Y130839D01*
X22704Y130535D01*
X22539Y130137D01*
Y129706D01*
X22704Y129308D01*
X23009Y129003D01*
X23407Y128839D01*
X23837D01*
X24235Y129003D01*
X24540Y129308D01*
X24705Y129706D01*
Y130137D01*
X24540Y130535D01*
X24432Y130972D01*
X24737Y131277D01*
X24845Y131538D01*
X25345Y131438D01*
Y130047D01*
X25387Y129946D01*
X25474Y129509D01*
X25588Y129338D01*
X25593Y129316D01*
X25525Y129152D01*
Y128722D01*
X25690Y128324D01*
X25995Y128019D01*
X26393Y127854D01*
X26823D01*
X27221Y128019D01*
X27526Y128324D01*
X27691Y128722D01*
Y129152D01*
X27526Y129550D01*
X27221Y129855D01*
X26823Y130020D01*
X26623Y130047D01*
Y136903D01*
X26876Y137156D01*
X30587D01*
X30794Y136656D01*
X30775Y136637D01*
X30610Y136239D01*
Y135808D01*
X30775Y135410D01*
X30819Y135366D01*
X31036Y135039D01*
X30819Y134713D01*
X30775Y134668D01*
X30610Y134271D01*
Y133876D01*
X28911Y132178D01*
X28869Y132076D01*
X28623Y131708D01*
X28536Y131271D01*
X28495Y131170D01*
Y117649D01*
X28500Y117636D01*
X28464Y117550D01*
X28452Y117545D01*
X26163Y115256D01*
X25769D01*
X25371Y115091D01*
X25066Y114787D01*
X24902Y114389D01*
Y113958D01*
X25066Y113560D01*
X25371Y113255D01*
X25769Y113091D01*
X26200D01*
X26597Y113255D01*
X26902Y113560D01*
X27067Y113958D01*
Y114352D01*
X29004Y116289D01*
X29356Y116641D01*
X29357Y116642D01*
X29357Y116642D01*
X29398Y116743D01*
X29645Y117111D01*
X29731Y117548D01*
X29773Y117649D01*
Y120941D01*
X30273Y121149D01*
X30292Y121129D01*
X30690Y120965D01*
X31121D01*
X31519Y121129D01*
X31823Y121434D01*
X31823Y121434D01*
X31861Y121450D01*
X32298Y121537D01*
X32666Y121783D01*
X32768Y121825D01*
X33195Y122251D01*
X33195Y122253D01*
X33195Y122253D01*
X33237Y122353D01*
X33483Y122722D01*
X33570Y123159D01*
X33612Y123259D01*
Y128914D01*
X34112Y129121D01*
X34229Y129003D01*
X34627Y128839D01*
X35058D01*
X35456Y129003D01*
X35760Y129308D01*
X35925Y129706D01*
Y130137D01*
X35760Y130535D01*
X35456Y130839D01*
X35058Y131004D01*
X34812D01*
X34551Y131308D01*
X34497Y131380D01*
X34497Y131380D01*
X34497Y131873D01*
X34497Y135501D01*
X34456Y135601D01*
X34369Y136038D01*
X34121Y136409D01*
X34080Y136509D01*
Y136509D01*
X34080Y136509D01*
X32572Y138017D01*
X32571Y138356D01*
X32776Y138671D01*
X33300Y138647D01*
X33336Y138560D01*
X33641Y138255D01*
X34039Y138091D01*
X34470D01*
X34868Y138255D01*
X35172Y138560D01*
X35696D01*
X36001Y138255D01*
X36399Y138091D01*
X36448D01*
X36841Y138022D01*
X36909Y137629D01*
Y137580D01*
X37074Y137182D01*
X37379Y136877D01*
X37777Y136713D01*
X38208D01*
X38605Y136877D01*
X38910Y137182D01*
X39075Y137580D01*
Y138011D01*
X38910Y138409D01*
X38605Y138713D01*
X38208Y138878D01*
X38159D01*
X37765Y138946D01*
X37697Y139340D01*
Y139389D01*
X37532Y139787D01*
X37227Y140091D01*
X36830Y140256D01*
D02*
G37*
G36*
X23837Y141634D02*
X23407D01*
X23009Y141469D01*
X22704Y141165D01*
X22539Y140767D01*
Y140336D01*
X22704Y139938D01*
X23009Y139633D01*
X23407Y139469D01*
X23837D01*
X24235Y139633D01*
X24540Y139938D01*
X24705Y140336D01*
Y140767D01*
X24540Y141165D01*
X24235Y141469D01*
X23837Y141634D01*
D02*
G37*
G36*
X68326Y141043D02*
X67895D01*
X67497Y140878D01*
X67192Y140574D01*
X67028Y140176D01*
Y139745D01*
X67192Y139347D01*
X67408Y139131D01*
X67304Y138715D01*
X67255Y138631D01*
X66640D01*
X66361Y138910D01*
X65963Y139075D01*
X65533D01*
X65135Y138910D01*
X64830Y138605D01*
X64665Y138207D01*
Y137777D01*
X64830Y137379D01*
X65135Y137074D01*
X65533Y136909D01*
X65963D01*
X66361Y137074D01*
X66640Y137353D01*
X68178D01*
X68283Y137310D01*
X70183Y135408D01*
X70196Y135403D01*
X70232Y135317D01*
X70227Y135304D01*
X70227Y132150D01*
X69727Y131947D01*
X69255Y132429D01*
X68908Y132783D01*
X69028Y133245D01*
X69193Y133643D01*
Y134074D01*
X69028Y134471D01*
X68723Y134776D01*
X68326Y134941D01*
X67895D01*
X67497Y134776D01*
X67192Y134471D01*
X67028Y134074D01*
Y133643D01*
X67192Y133245D01*
X67497Y132940D01*
X67584Y132904D01*
Y132890D01*
X67626Y132790D01*
X67713Y132353D01*
X67952Y131995D01*
X67994Y131889D01*
X72153Y127640D01*
X72165Y127635D01*
X72201Y127549D01*
X72195Y127536D01*
Y125720D01*
X72201Y125707D01*
X72165Y125621D01*
X72153Y125616D01*
X71635Y125098D01*
X71241D01*
X70843Y124934D01*
X70539Y124629D01*
X70374Y124231D01*
Y123800D01*
X70539Y123403D01*
X70713Y123228D01*
X70539Y123054D01*
X70374Y122656D01*
Y122226D01*
X70539Y121828D01*
X70843Y121523D01*
X71241Y121358D01*
X71672D01*
X72070Y121523D01*
X72374Y121828D01*
X72539Y122226D01*
Y122656D01*
X72374Y123054D01*
X72200Y123228D01*
X72374Y123403D01*
X72539Y123800D01*
Y124194D01*
X73057Y124712D01*
X73058Y124713D01*
X73058Y124713D01*
X73099Y124814D01*
X73345Y125182D01*
X73432Y125619D01*
X73474Y125720D01*
Y127536D01*
X73432Y127637D01*
X73400Y127798D01*
X73739Y128281D01*
X73772Y128298D01*
X77848D01*
X78127Y128019D01*
X78525Y127854D01*
X78956D01*
X79353Y128019D01*
X79658Y128324D01*
X79823Y128722D01*
Y129152D01*
X79658Y129550D01*
X79614Y129595D01*
X79397Y129921D01*
X79614Y130248D01*
X79658Y130292D01*
X79823Y130690D01*
Y131121D01*
X79658Y131519D01*
X79353Y131823D01*
X78956Y131988D01*
X78828D01*
X78430Y132197D01*
X78395Y132593D01*
Y133926D01*
X78353Y134026D01*
X78267Y134463D01*
X78019Y134834D01*
X77977Y134934D01*
X77977Y134935D01*
X77977Y134935D01*
X73083Y139828D01*
X72730Y140182D01*
X72730Y140182D01*
X72730Y140182D01*
X72629Y140224D01*
X72259Y140471D01*
X71822Y140558D01*
X71721Y140600D01*
X69002D01*
X68723Y140878D01*
X68326Y141043D01*
D02*
G37*
G36*
X78956Y141437D02*
X78525D01*
X78127Y141272D01*
X77822Y140968D01*
X77658Y140570D01*
Y140139D01*
X77822Y139741D01*
X78127Y139436D01*
X78298Y139366D01*
X78312Y139129D01*
X78248Y138845D01*
X77930Y138713D01*
X77626Y138409D01*
X77461Y138011D01*
Y137580D01*
X77626Y137182D01*
X77930Y136877D01*
X78328Y136713D01*
X78759D01*
X79157Y136877D01*
X79461Y137182D01*
X79626Y137580D01*
Y138011D01*
X79461Y138409D01*
X79157Y138713D01*
X78985Y138784D01*
X78971Y139020D01*
X79035Y139305D01*
X79353Y139436D01*
X79658Y139741D01*
X79823Y140139D01*
Y140570D01*
X79658Y140968D01*
X79353Y141272D01*
X78956Y141437D01*
D02*
G37*
G36*
X41554Y138878D02*
X41123D01*
X40725Y138713D01*
X40421Y138409D01*
X40256Y138011D01*
Y137580D01*
X40421Y137182D01*
X40725Y136877D01*
X41123Y136713D01*
X41554D01*
X41952Y136877D01*
X42256Y137182D01*
X42421Y137580D01*
Y138011D01*
X42256Y138409D01*
X41952Y138713D01*
X41554Y138878D01*
D02*
G37*
G36*
X91160Y132185D02*
X90729D01*
X90354Y132030D01*
X89979Y132185D01*
X89548D01*
X89173Y132030D01*
X88798Y132185D01*
X88367D01*
X87992Y132030D01*
X87617Y132185D01*
X87186D01*
X86811Y132030D01*
X86436Y132185D01*
X86005D01*
X85607Y132020D01*
X85303Y131716D01*
X85138Y131318D01*
Y130887D01*
X85293Y130512D01*
X85138Y130137D01*
Y129706D01*
X85293Y129331D01*
X85138Y128955D01*
Y128525D01*
X85293Y128150D01*
X85138Y127774D01*
Y127344D01*
X85293Y126969D01*
X85138Y126593D01*
Y126163D01*
X85303Y125765D01*
X85607Y125460D01*
X86005Y125295D01*
X86436D01*
X86811Y125451D01*
X87186Y125295D01*
X87617D01*
X87992Y125451D01*
X88367Y125295D01*
X88798D01*
X89173Y125451D01*
X89548Y125295D01*
X89979D01*
X90354Y125451D01*
X90729Y125295D01*
X91160D01*
X91558Y125460D01*
X91863Y125765D01*
X92028Y126163D01*
Y126593D01*
X91872Y126969D01*
X92028Y127344D01*
Y127774D01*
X91872Y128150D01*
X92028Y128525D01*
Y128955D01*
X91872Y129331D01*
X92028Y129706D01*
Y130137D01*
X91872Y130512D01*
X92028Y130887D01*
Y131318D01*
X91863Y131716D01*
X91558Y132020D01*
X91160Y132185D01*
D02*
G37*
G36*
X16357Y132185D02*
X15926D01*
X15551Y132030D01*
X15176Y132185D01*
X14745D01*
X14370Y132030D01*
X13995Y132185D01*
X13564D01*
X13189Y132030D01*
X12814Y132185D01*
X12383D01*
X12008Y132030D01*
X11633Y132185D01*
X11202D01*
X10804Y132020D01*
X10499Y131716D01*
X10335Y131318D01*
Y130887D01*
X10490Y130512D01*
X10335Y130137D01*
Y129706D01*
X10490Y129331D01*
X10335Y128955D01*
Y128525D01*
X10490Y128150D01*
X10335Y127774D01*
Y127344D01*
X10490Y126969D01*
X10335Y126593D01*
Y126163D01*
X10499Y125765D01*
X10804Y125460D01*
X11202Y125295D01*
X11633D01*
X12008Y125451D01*
X12383Y125295D01*
X12814D01*
X13189Y125451D01*
X13564Y125295D01*
X13995D01*
X14370Y125451D01*
X14745Y125295D01*
X15176D01*
X15551Y125451D01*
X15926Y125295D01*
X16357D01*
X16755Y125460D01*
X17060Y125765D01*
X17224Y126163D01*
Y126593D01*
X17069Y126969D01*
X17224Y127344D01*
Y127774D01*
X17069Y128150D01*
X17224Y128525D01*
Y128955D01*
X17069Y129331D01*
X17224Y129706D01*
Y130137D01*
X17069Y130512D01*
X17224Y130887D01*
Y131318D01*
X17060Y131716D01*
X16755Y132020D01*
X16357Y132185D01*
D02*
G37*
G36*
X55924Y132579D02*
X55493D01*
X55095Y132414D01*
X54791Y132109D01*
X54626Y131711D01*
Y131281D01*
X54791Y130883D01*
X55095Y130578D01*
X55493Y130413D01*
X55924D01*
X56322Y130578D01*
X56626Y130883D01*
X56791Y131281D01*
Y131711D01*
X56626Y132109D01*
X56322Y132414D01*
X55924Y132579D01*
D02*
G37*
G36*
X78759Y127067D02*
X78328D01*
X77930Y126902D01*
X77626Y126597D01*
X77461Y126200D01*
Y125769D01*
X77626Y125371D01*
X77930Y125066D01*
X78328Y124902D01*
X78759D01*
X79157Y125066D01*
X79461Y125371D01*
X79626Y125769D01*
Y126200D01*
X79461Y126597D01*
X79157Y126902D01*
X78759Y127067D01*
D02*
G37*
G36*
X75969Y124114D02*
X75539D01*
X75141Y123949D01*
X74836Y123645D01*
X74672Y123247D01*
Y122816D01*
X74836Y122418D01*
X75141Y122114D01*
X75539Y121949D01*
X75969D01*
X76367Y122114D01*
X76672Y122418D01*
X76837Y122816D01*
Y123247D01*
X76672Y123645D01*
X76367Y123949D01*
X75969Y124114D01*
D02*
G37*
G36*
X26823D02*
X26393D01*
X25995Y123949D01*
X25690Y123645D01*
X25525Y123247D01*
Y122816D01*
X25690Y122418D01*
X25995Y122114D01*
X26393Y121949D01*
X26823D01*
X27221Y122114D01*
X27526Y122418D01*
X27691Y122816D01*
Y123247D01*
X27526Y123645D01*
X27221Y123949D01*
X26823Y124114D01*
D02*
G37*
G36*
X23837Y127657D02*
X23407D01*
X23009Y127493D01*
X22704Y127188D01*
X22539Y126790D01*
Y126359D01*
X22704Y125961D01*
X22859Y125806D01*
X22957Y125492D01*
X22859Y125178D01*
X22704Y125023D01*
X22539Y124625D01*
Y124194D01*
X22704Y123796D01*
X22859Y123641D01*
X22957Y123327D01*
X22859Y123012D01*
X22704Y122857D01*
X22539Y122459D01*
Y122029D01*
X22704Y121631D01*
X22945Y121390D01*
X23008Y121295D01*
X22998Y120789D01*
X22901Y120692D01*
X22736Y120294D01*
Y119863D01*
X22901Y119465D01*
X23206Y119161D01*
X23604Y118996D01*
X24034D01*
X24432Y119161D01*
X24737Y119465D01*
X24902Y119863D01*
Y120294D01*
X24737Y120692D01*
X24496Y120933D01*
X24433Y121028D01*
X24443Y121534D01*
X24540Y121631D01*
X24705Y122029D01*
Y122459D01*
X24540Y122857D01*
X24385Y123012D01*
X24287Y123327D01*
X24385Y123641D01*
X24540Y123796D01*
X24705Y124194D01*
Y124625D01*
X24540Y125023D01*
X24385Y125178D01*
X24287Y125492D01*
X24385Y125806D01*
X24540Y125961D01*
X24705Y126359D01*
Y126790D01*
X24540Y127188D01*
X24235Y127493D01*
X23837Y127657D01*
D02*
G37*
G36*
Y118209D02*
X23407D01*
X23009Y118044D01*
X22704Y117739D01*
X22539Y117341D01*
Y116911D01*
X22704Y116513D01*
X23009Y116208D01*
X23407Y116043D01*
X23837D01*
X24235Y116208D01*
X24540Y116513D01*
X24705Y116911D01*
Y117341D01*
X24540Y117739D01*
X24235Y118044D01*
X23837Y118209D01*
D02*
G37*
G36*
X44900Y113287D02*
X44470D01*
X44072Y113123D01*
X44027Y113078D01*
X43701Y112862D01*
X43374Y113078D01*
X43330Y113123D01*
X42932Y113287D01*
X42501D01*
X42103Y113123D01*
X41799Y112818D01*
X41634Y112420D01*
Y111989D01*
X41799Y111591D01*
X42103Y111287D01*
X42501Y111122D01*
X42932D01*
X43330Y111287D01*
X43374Y111331D01*
X43701Y111548D01*
X44027Y111331D01*
X44072Y111287D01*
X44470Y111122D01*
X44900D01*
X45298Y111287D01*
X45603Y111591D01*
X45768Y111989D01*
Y112420D01*
X45603Y112818D01*
X45298Y113123D01*
X44900Y113287D01*
D02*
G37*
G36*
X91160Y111516D02*
X90729D01*
X90354Y111360D01*
X89979Y111516D01*
X89548D01*
X89173Y111360D01*
X88798Y111516D01*
X88367D01*
X87992Y111360D01*
X87617Y111516D01*
X87186D01*
X86811Y111360D01*
X86436Y111516D01*
X86005D01*
X85607Y111351D01*
X85303Y111046D01*
X85138Y110648D01*
Y110218D01*
X85293Y109843D01*
X85138Y109467D01*
Y109037D01*
X85293Y108661D01*
X85138Y108286D01*
Y107855D01*
X85293Y107480D01*
X85138Y107105D01*
Y106674D01*
X85303Y106277D01*
X85607Y105972D01*
X86005Y105807D01*
X86436D01*
X86811Y105963D01*
X87186Y105807D01*
X87617D01*
X87992Y105963D01*
X88367Y105807D01*
X88798D01*
X89173Y105963D01*
X89548Y105807D01*
X89979D01*
X90354Y105963D01*
X90729Y105807D01*
X91160D01*
X91558Y105972D01*
X91863Y106277D01*
X92028Y106674D01*
Y107105D01*
X91872Y107480D01*
X92028Y107855D01*
Y108286D01*
X91872Y108661D01*
X92028Y109037D01*
Y109467D01*
X91872Y109843D01*
X92028Y110218D01*
Y110648D01*
X91863Y111046D01*
X91558Y111351D01*
X91160Y111516D01*
D02*
G37*
G36*
X16357Y111516D02*
X15926D01*
X15551Y111360D01*
X15176Y111516D01*
X14745D01*
X14370Y111360D01*
X13995Y111516D01*
X13564D01*
X13189Y111360D01*
X12814Y111516D01*
X12383D01*
X12008Y111360D01*
X11633Y111516D01*
X11202D01*
X10804Y111351D01*
X10499Y111046D01*
X10335Y110648D01*
Y110218D01*
X10490Y109843D01*
X10335Y109467D01*
Y109037D01*
X10490Y108661D01*
X10335Y108286D01*
Y107855D01*
X10490Y107480D01*
X10335Y107105D01*
Y106674D01*
X10490Y106299D01*
X10335Y105924D01*
Y105493D01*
X10499Y105095D01*
X10804Y104791D01*
X11202Y104626D01*
X11633D01*
X12008Y104781D01*
X12383Y104626D01*
X12814D01*
X13189Y104781D01*
X13564Y104626D01*
X13995D01*
X14370Y104781D01*
X14745Y104626D01*
X15176D01*
X15551Y104781D01*
X15926Y104626D01*
X16357D01*
X16755Y104791D01*
X17060Y105095D01*
X17224Y105493D01*
Y105924D01*
X17069Y106299D01*
X17224Y106674D01*
Y107105D01*
X17069Y107480D01*
X17224Y107855D01*
Y108286D01*
X17069Y108661D01*
X17224Y109037D01*
Y109467D01*
X17069Y109843D01*
X17224Y110218D01*
Y110648D01*
X17060Y111046D01*
X16755Y111351D01*
X16357Y111516D01*
D02*
G37*
G36*
X38995Y113287D02*
X38564D01*
X38166Y113123D01*
X37862Y112818D01*
X37697Y112420D01*
Y111989D01*
X37862Y111591D01*
X38166Y111287D01*
X38564Y111122D01*
X38995D01*
X39393Y111287D01*
X39697Y111591D01*
X39862Y111989D01*
Y112420D01*
X39697Y112818D01*
X39393Y113123D01*
X38995Y113287D01*
D02*
G37*
G36*
X70294Y111122D02*
X69863D01*
X69466Y110957D01*
X69161Y110653D01*
X68996Y110255D01*
Y109824D01*
X69137Y109485D01*
X68763Y109170D01*
X68723Y109186D01*
X68678Y109204D01*
X68326Y109350D01*
X67895D01*
X67497Y109186D01*
X67192Y108881D01*
X66666D01*
X66361Y109186D01*
X65963Y109350D01*
X65533D01*
X65135Y109186D01*
X64830Y108881D01*
X64665Y108483D01*
Y108052D01*
X64830Y107654D01*
X65135Y107350D01*
X65533Y107185D01*
X65963D01*
X66361Y107350D01*
X66666Y107654D01*
X67192D01*
X67497Y107350D01*
X67895Y107185D01*
X68326D01*
X68723Y107350D01*
X69028Y107654D01*
X69193Y108052D01*
Y108483D01*
X69052Y108823D01*
X69425Y109137D01*
X69466Y109122D01*
X69511Y109103D01*
X69863Y108957D01*
X70294D01*
X70692Y109122D01*
X70997Y109426D01*
X71161Y109824D01*
Y110255D01*
X70997Y110653D01*
X70692Y110957D01*
X70294Y111122D01*
D02*
G37*
G36*
X30274Y109350D02*
X29844D01*
X29446Y109186D01*
X29141Y108881D01*
X28976Y108483D01*
Y108052D01*
X29141Y107654D01*
X29446Y107350D01*
X29844Y107185D01*
X30274D01*
X30672Y107350D01*
X30977Y107654D01*
X31142Y108052D01*
Y108483D01*
X30977Y108881D01*
X30672Y109186D01*
X30274Y109350D01*
D02*
G37*
G36*
X24034D02*
X23604D01*
X23206Y109186D01*
X22901Y108881D01*
X22736Y108483D01*
Y108052D01*
X22880Y107705D01*
X23009Y107217D01*
X22704Y106913D01*
X22539Y106515D01*
Y106084D01*
X22704Y105686D01*
X23009Y105381D01*
X23407Y105217D01*
X23837D01*
X24235Y105381D01*
X24540Y105686D01*
X24705Y106084D01*
Y106515D01*
X24561Y106862D01*
X24432Y107350D01*
X24737Y107654D01*
X24902Y108052D01*
Y108483D01*
X24737Y108881D01*
X24432Y109186D01*
X24034Y109350D01*
D02*
G37*
G36*
X36042Y102067D02*
X35611D01*
X35214Y101902D01*
X34909Y101597D01*
X34744Y101200D01*
Y100769D01*
X34909Y100371D01*
X35214Y100066D01*
X35294Y100033D01*
X35343Y99824D01*
X35342Y99472D01*
X35106Y99235D01*
X34941Y98837D01*
Y98407D01*
X35106Y98009D01*
X35410Y97704D01*
X35808Y97539D01*
X36239D01*
X36637Y97704D01*
X36941Y98009D01*
X37106Y98407D01*
Y98837D01*
X36941Y99235D01*
X36637Y99540D01*
X36556Y99573D01*
X36507Y99782D01*
X36508Y100135D01*
X36745Y100371D01*
X36909Y100769D01*
Y101200D01*
X36745Y101597D01*
X36440Y101902D01*
X36042Y102067D01*
D02*
G37*
G36*
X20838Y97367D02*
Y97360D01*
X15973D01*
Y97367D01*
X15228Y97269D01*
X14533Y96981D01*
X13943Y96529D01*
X13946Y96525D01*
X13946Y96522D01*
X6992Y89569D01*
X6989Y89569D01*
X6986Y89572D01*
X6534Y88982D01*
X6246Y88287D01*
X6148Y87542D01*
X6155D01*
Y78384D01*
X6141Y78369D01*
X5976Y77971D01*
Y77540D01*
X6141Y77143D01*
X6445Y76838D01*
X6843Y76673D01*
X7274D01*
X7672Y76838D01*
X7976Y77143D01*
X8141Y77540D01*
Y77971D01*
X7976Y78369D01*
X7962Y78384D01*
Y87542D01*
X7974D01*
X8042Y87883D01*
X8281Y88284D01*
X8610Y88632D01*
X14883Y94905D01*
X15231Y95234D01*
X15632Y95473D01*
X15973Y95541D01*
Y95553D01*
X19299D01*
X19450Y95286D01*
X19535Y95053D01*
X19390Y94704D01*
Y94273D01*
X19555Y93875D01*
X19827Y93602D01*
X19555Y93330D01*
X19390Y92932D01*
Y92501D01*
X19555Y92103D01*
X19710Y91948D01*
X19808Y91634D01*
X19710Y91319D01*
X19555Y91164D01*
X19390Y90767D01*
Y90336D01*
X19555Y89938D01*
X19599Y89894D01*
X19815Y89567D01*
X19599Y89240D01*
X19555Y89196D01*
X19390Y88798D01*
Y88367D01*
X19555Y87969D01*
X19859Y87665D01*
X20257Y87500D01*
X20688D01*
X21086Y87665D01*
X21390Y87969D01*
X21555Y88367D01*
Y88798D01*
X21390Y89196D01*
X21346Y89240D01*
X21130Y89567D01*
X21346Y89894D01*
X21390Y89938D01*
X21555Y90336D01*
Y90767D01*
X21390Y91164D01*
X21235Y91319D01*
X21137Y91634D01*
X21235Y91948D01*
X21390Y92103D01*
X21555Y92501D01*
Y92932D01*
X21390Y93330D01*
X21118Y93602D01*
X21390Y93875D01*
X21555Y94273D01*
Y94571D01*
X21949Y94799D01*
X22017Y94816D01*
X23524Y93309D01*
Y93289D01*
X23688Y92891D01*
X23993Y92586D01*
X24391Y92421D01*
X24822D01*
X25220Y92586D01*
X25524Y92891D01*
X25689Y93289D01*
Y93719D01*
X25524Y94117D01*
X25220Y94422D01*
X24822Y94587D01*
X24801D01*
X22868Y96520D01*
X22868Y96520D01*
X22868Y96521D01*
X22872Y96525D01*
X22278Y96981D01*
X21583Y97269D01*
X20838Y97367D01*
D02*
G37*
G36*
X78168Y100394D02*
X77737D01*
X77340Y100229D01*
X77035Y99924D01*
X76870Y99526D01*
Y99096D01*
X77026Y98721D01*
X76870Y98345D01*
Y97915D01*
X77026Y97539D01*
X76870Y97164D01*
Y96733D01*
X77035Y96336D01*
X77340Y96031D01*
X77737Y95866D01*
X78168D01*
X78566Y96031D01*
X78871Y96336D01*
X79035Y96733D01*
Y97164D01*
X78880Y97539D01*
X79035Y97915D01*
Y98345D01*
X78880Y98721D01*
X79035Y99096D01*
Y99526D01*
X78871Y99924D01*
X78566Y100229D01*
X78168Y100394D01*
D02*
G37*
G36*
X83916Y95079D02*
X83485D01*
X83110Y94923D01*
X82735Y95079D01*
X82304D01*
X81929Y94923D01*
X81554Y95079D01*
X81123D01*
X80725Y94914D01*
X80421Y94609D01*
X80256Y94212D01*
Y93781D01*
X80421Y93383D01*
X80725Y93078D01*
X81123Y92913D01*
X81554D01*
X81929Y93069D01*
X82304Y92913D01*
X82735D01*
X83110Y93069D01*
X83485Y92913D01*
X83916D01*
X84314Y93078D01*
X84528Y93292D01*
X84941Y93273D01*
X85093Y93222D01*
X85226Y92949D01*
X85138Y92735D01*
Y92304D01*
X85293Y91929D01*
X85138Y91554D01*
Y91123D01*
X85293Y90748D01*
X85138Y90373D01*
Y89942D01*
X85293Y89567D01*
X85138Y89192D01*
Y88761D01*
X85293Y88386D01*
X85138Y88011D01*
Y87580D01*
X85293Y87205D01*
X85138Y86830D01*
Y86399D01*
X85293Y86024D01*
X85138Y85648D01*
Y85218D01*
X85293Y84842D01*
X85138Y84467D01*
Y84037D01*
X85293Y83661D01*
X85138Y83286D01*
Y82855D01*
X85303Y82458D01*
X85607Y82153D01*
X86005Y81988D01*
X86436D01*
X86811Y82144D01*
X87186Y81988D01*
X87617D01*
X87992Y82144D01*
X88367Y81988D01*
X88798D01*
X89173Y82144D01*
X89548Y81988D01*
X89979D01*
X90354Y82144D01*
X90729Y81988D01*
X91160D01*
X91558Y82153D01*
X91863Y82458D01*
X92027Y82855D01*
Y83286D01*
X91872Y83661D01*
X92027Y84037D01*
Y84467D01*
X91872Y84842D01*
X92027Y85218D01*
Y85648D01*
X91872Y86024D01*
X92027Y86399D01*
Y86830D01*
X91872Y87205D01*
X92027Y87580D01*
Y88011D01*
X91872Y88386D01*
X92027Y88761D01*
Y89192D01*
X91872Y89567D01*
X92027Y89942D01*
Y90373D01*
X91872Y90748D01*
X92027Y91123D01*
Y91554D01*
X91872Y91929D01*
X92027Y92304D01*
Y92735D01*
X91872Y93110D01*
X92027Y93485D01*
Y93916D01*
X91863Y94314D01*
X91558Y94619D01*
X91160Y94784D01*
X90729D01*
X90354Y94628D01*
X89979Y94784D01*
X89548D01*
X89173Y94628D01*
X88798Y94784D01*
X88367D01*
X87992Y94628D01*
X87617Y94784D01*
X87186D01*
X86811Y94628D01*
X86436Y94784D01*
X86005D01*
X85607Y94619D01*
X85303Y94314D01*
X85272Y94239D01*
X85028Y94226D01*
X84751Y94289D01*
X84619Y94609D01*
X84314Y94914D01*
X83916Y95079D01*
D02*
G37*
G36*
X28956Y95177D02*
X28525D01*
X28127Y95012D01*
X27822Y94708D01*
X27657Y94310D01*
Y93879D01*
X27822Y93481D01*
X28127Y93177D01*
X28525Y93012D01*
X28956D01*
X29353Y93177D01*
X29658Y93481D01*
X29823Y93879D01*
Y94310D01*
X29658Y94708D01*
X29353Y95012D01*
X28956Y95177D01*
D02*
G37*
G36*
X49034Y90847D02*
X48603D01*
X48206Y90682D01*
X47901Y90377D01*
X47736Y89979D01*
Y89548D01*
X47901Y89151D01*
X48206Y88846D01*
X48603Y88681D01*
X49034D01*
X49432Y88846D01*
X49737Y89151D01*
X49902Y89548D01*
Y89979D01*
X49737Y90377D01*
X49432Y90682D01*
X49034Y90847D01*
D02*
G37*
G36*
X42735D02*
X42304D01*
X41906Y90682D01*
X41602Y90377D01*
X41437Y89979D01*
Y89548D01*
X41602Y89151D01*
X41906Y88846D01*
X42304Y88681D01*
X42735D01*
X43133Y88846D01*
X43437Y89151D01*
X43602Y89548D01*
Y89979D01*
X43437Y90377D01*
X43133Y90682D01*
X42735Y90847D01*
D02*
G37*
G36*
X75576Y89272D02*
X75145D01*
X74747Y89107D01*
X74443Y88802D01*
X74278Y88404D01*
Y87974D01*
X74443Y87576D01*
X74747Y87271D01*
X75145Y87106D01*
X75576D01*
X75974Y87271D01*
X76278Y87576D01*
X76443Y87974D01*
Y88404D01*
X76278Y88802D01*
X75974Y89107D01*
X75576Y89272D01*
D02*
G37*
G36*
X61632Y87697D02*
X61202D01*
X60804Y87532D01*
X60499Y87227D01*
X60334Y86830D01*
Y86399D01*
X60499Y86001D01*
X60804Y85696D01*
X61202Y85532D01*
X61632D01*
X62030Y85696D01*
X62335Y86001D01*
X62500Y86399D01*
Y86830D01*
X62335Y87227D01*
X62030Y87532D01*
X61632Y87697D01*
D02*
G37*
G36*
X39585D02*
X39155D01*
X38757Y87532D01*
X38452Y87227D01*
X38287Y86830D01*
Y86399D01*
X38452Y86001D01*
X38757Y85696D01*
X39155Y85532D01*
X39585D01*
X39983Y85696D01*
X40288Y86001D01*
X40453Y86399D01*
Y86830D01*
X40288Y87227D01*
X39983Y87532D01*
X39585Y87697D01*
D02*
G37*
G36*
X49034Y87697D02*
X48603D01*
X48206Y87532D01*
X47901Y87227D01*
X47736Y86830D01*
Y86399D01*
X47901Y86001D01*
X48206Y85696D01*
X48603Y85532D01*
X48884D01*
X49143Y85364D01*
X49311Y85105D01*
Y84824D01*
X49476Y84426D01*
X49780Y84122D01*
X50178Y83957D01*
X50609D01*
X51007Y84122D01*
X51311Y84426D01*
X51476Y84824D01*
Y85255D01*
X51311Y85653D01*
X51007Y85957D01*
X50609Y86122D01*
X50328D01*
X50069Y86290D01*
X49902Y86549D01*
Y86830D01*
X49737Y87227D01*
X49432Y87532D01*
X49034Y87697D01*
D02*
G37*
G36*
X20688Y85925D02*
X20257D01*
X19859Y85760D01*
X19555Y85456D01*
X19390Y85058D01*
Y84627D01*
X19555Y84229D01*
X19859Y83925D01*
X20257Y83760D01*
X20688D01*
X21086Y83925D01*
X21390Y84229D01*
X21555Y84627D01*
Y85058D01*
X21390Y85456D01*
X21086Y85760D01*
X20688Y85925D01*
D02*
G37*
G36*
X77578Y86713D02*
X77147D01*
X76749Y86548D01*
X76444Y86243D01*
X76279Y85845D01*
Y85415D01*
X76435Y85039D01*
X76279Y84664D01*
Y84233D01*
X76435Y83858D01*
X76279Y83483D01*
Y83052D01*
X76444Y82654D01*
X76749Y82350D01*
X77147Y82185D01*
X77578D01*
X77975Y82350D01*
X78280Y82654D01*
X78445Y83052D01*
Y83483D01*
X78289Y83858D01*
X78445Y84233D01*
Y84664D01*
X78289Y85039D01*
X78445Y85415D01*
Y85845D01*
X78280Y86243D01*
X77975Y86548D01*
X77578Y86713D01*
D02*
G37*
G36*
X20688Y81791D02*
X20257D01*
X19859Y81626D01*
X19555Y81322D01*
X19390Y80924D01*
Y80493D01*
X19555Y80095D01*
X19859Y79791D01*
X20257Y79626D01*
X20688D01*
X21086Y79791D01*
X21390Y80095D01*
X21555Y80493D01*
Y80924D01*
X21390Y81322D01*
X21086Y81626D01*
X20688Y81791D01*
D02*
G37*
G36*
X58483Y81398D02*
X58053D01*
X57655Y81233D01*
X57350Y80928D01*
X57185Y80531D01*
Y80100D01*
X57350Y79702D01*
X57655Y79397D01*
X58053Y79233D01*
X58483D01*
X58881Y79397D01*
X59186Y79702D01*
X59351Y80100D01*
Y80531D01*
X59186Y80928D01*
X58881Y81233D01*
X58483Y81398D01*
D02*
G37*
G36*
X52184D02*
X51753D01*
X51355Y81233D01*
X51050Y80928D01*
X50885Y80531D01*
Y80100D01*
X51050Y79702D01*
X51355Y79397D01*
X51753Y79233D01*
X52184D01*
X52581Y79397D01*
X52886Y79702D01*
X53051Y80100D01*
Y80531D01*
X52886Y80928D01*
X52581Y81233D01*
X52184Y81398D01*
D02*
G37*
G36*
X49034D02*
X48604D01*
X48206Y81233D01*
X47901Y80928D01*
X47736Y80531D01*
Y80100D01*
X47901Y79702D01*
X48206Y79397D01*
X48604Y79233D01*
X49034D01*
X49432Y79397D01*
X49737Y79702D01*
X49902Y80100D01*
Y80531D01*
X49737Y80928D01*
X49432Y81233D01*
X49034Y81398D01*
D02*
G37*
G36*
X55334Y81398D02*
X54903D01*
X54505Y81233D01*
X54200Y80928D01*
X54035Y80530D01*
Y80100D01*
X54200Y79702D01*
X54505Y79397D01*
X54903Y79232D01*
X55334D01*
X55731Y79397D01*
X56036Y79702D01*
X56201Y80100D01*
Y80530D01*
X56036Y80928D01*
X55731Y81233D01*
X55334Y81398D01*
D02*
G37*
G36*
X39585D02*
X39155D01*
X38757Y81233D01*
X38452Y80928D01*
X38287Y80530D01*
Y80100D01*
X38452Y79702D01*
X38757Y79397D01*
X39155Y79232D01*
X39585D01*
X39983Y79397D01*
X40288Y79702D01*
X40453Y80100D01*
Y80530D01*
X40288Y80928D01*
X39983Y81233D01*
X39585Y81398D01*
D02*
G37*
G36*
X36436D02*
X36005D01*
X35607Y81233D01*
X35303Y80928D01*
X35138Y80530D01*
Y80100D01*
X35303Y79702D01*
X35607Y79397D01*
X36005Y79232D01*
X36436D01*
X36834Y79397D01*
X37138Y79702D01*
X37303Y80100D01*
Y80530D01*
X37138Y80928D01*
X36834Y81233D01*
X36436Y81398D01*
D02*
G37*
G36*
X39585Y78248D02*
X39155D01*
X38757Y78083D01*
X38452Y77779D01*
X38287Y77381D01*
Y77100D01*
X38120Y76841D01*
X37861Y76673D01*
X37730D01*
X37471Y76841D01*
X37303Y77100D01*
Y77381D01*
X37138Y77779D01*
X36834Y78083D01*
X36436Y78248D01*
X36005D01*
X35607Y78083D01*
X35303Y77779D01*
X35138Y77381D01*
Y76950D01*
X35303Y76552D01*
X35607Y76248D01*
X36005Y76083D01*
X36286D01*
X36545Y75915D01*
X36713Y75656D01*
Y75375D01*
X36877Y74977D01*
X37182Y74673D01*
X37580Y74508D01*
X37861D01*
X38120Y74340D01*
X38287Y74081D01*
Y73800D01*
X38452Y73403D01*
X38757Y73098D01*
X39155Y72933D01*
X39585D01*
X39983Y73098D01*
X40288Y73403D01*
X40453Y73800D01*
Y74231D01*
X40288Y74629D01*
X39983Y74934D01*
X39585Y75098D01*
X39305D01*
X39046Y75266D01*
X38878Y75525D01*
Y75656D01*
X39046Y75915D01*
X39305Y76083D01*
X39585D01*
X39983Y76248D01*
X40288Y76552D01*
X40453Y76950D01*
Y77381D01*
X40288Y77779D01*
X39983Y78083D01*
X39585Y78248D01*
D02*
G37*
G36*
X55334D02*
X54903D01*
X54505Y78083D01*
X54200Y77779D01*
X54035Y77381D01*
Y76950D01*
X54200Y76552D01*
X54505Y76248D01*
X54903Y76083D01*
X55334D01*
X55731Y76248D01*
X56036Y76552D01*
X56201Y76950D01*
Y77381D01*
X56036Y77779D01*
X55731Y78083D01*
X55334Y78248D01*
D02*
G37*
G36*
X58483Y78248D02*
X58053D01*
X57655Y78083D01*
X57350Y77778D01*
X57185Y77381D01*
Y76950D01*
X57350Y76552D01*
X57655Y76247D01*
X58053Y76082D01*
X58483D01*
X58881Y76247D01*
X59186Y76552D01*
X59351Y76950D01*
Y77381D01*
X59186Y77778D01*
X58881Y78083D01*
X58483Y78248D01*
D02*
G37*
G36*
X42735D02*
X42305D01*
X41907Y78083D01*
X41602Y77778D01*
X41437Y77381D01*
Y76950D01*
X41602Y76552D01*
X41907Y76247D01*
X42305Y76082D01*
X42735D01*
X43133Y76247D01*
X43438Y76552D01*
X43603Y76950D01*
Y77381D01*
X43438Y77778D01*
X43133Y78083D01*
X42735Y78248D01*
D02*
G37*
G36*
X72263Y78642D02*
X71832D01*
X71434Y78477D01*
X71129Y78172D01*
X70965Y77774D01*
Y77344D01*
X71120Y76968D01*
X70965Y76593D01*
Y76163D01*
X71120Y75787D01*
X70965Y75412D01*
Y74981D01*
X71129Y74584D01*
X71434Y74279D01*
X71832Y74114D01*
X72263D01*
X72660Y74279D01*
X72965Y74584D01*
X73130Y74981D01*
Y75412D01*
X72974Y75787D01*
X73130Y76163D01*
Y76593D01*
X72974Y76968D01*
X73130Y77344D01*
Y77774D01*
X72965Y78172D01*
X72660Y78477D01*
X72263Y78642D01*
D02*
G37*
G36*
X58483Y75099D02*
X58053D01*
X57655Y74934D01*
X57350Y74629D01*
X57185Y74231D01*
Y73801D01*
X57350Y73403D01*
X57655Y73098D01*
X58053Y72934D01*
X58483D01*
X58881Y73098D01*
X59186Y73403D01*
X59351Y73801D01*
Y74231D01*
X59186Y74629D01*
X58881Y74934D01*
X58483Y75099D01*
D02*
G37*
G36*
X55334Y75098D02*
X54903D01*
X54505Y74934D01*
X54200Y74629D01*
X54035Y74231D01*
Y73800D01*
X54200Y73403D01*
X54505Y73098D01*
X54903Y72933D01*
X55334D01*
X55731Y73098D01*
X56036Y73403D01*
X56201Y73800D01*
Y74231D01*
X56036Y74629D01*
X55731Y74934D01*
X55334Y75098D01*
D02*
G37*
G36*
X33286D02*
X32855D01*
X32458Y74934D01*
X32153Y74629D01*
X31988Y74231D01*
Y73800D01*
X32153Y73403D01*
X32458Y73098D01*
X32855Y72933D01*
X33286D01*
X33684Y73098D01*
X33989Y73403D01*
X34154Y73800D01*
Y74231D01*
X33989Y74629D01*
X33684Y74934D01*
X33286Y75098D01*
D02*
G37*
G36*
X42735D02*
X42304D01*
X41906Y74934D01*
X41602Y74629D01*
X41437Y74231D01*
Y73837D01*
X40722Y73123D01*
X40680Y73020D01*
X40434Y72652D01*
X40347Y72215D01*
X40318Y72145D01*
X40276Y72099D01*
X39806Y71858D01*
X39585Y71949D01*
X39155D01*
X38757Y71784D01*
X38452Y71479D01*
X38287Y71082D01*
Y70651D01*
X38452Y70253D01*
X38757Y69948D01*
X39155Y69784D01*
X39585D01*
X39806Y69875D01*
X40249Y69647D01*
X40306Y69582D01*
Y69001D01*
X40249Y68936D01*
X39806Y68708D01*
X39585Y68799D01*
X39155D01*
X38757Y68634D01*
X38452Y68330D01*
X38287Y67932D01*
Y67501D01*
X38452Y67103D01*
X38757Y66799D01*
X39155Y66634D01*
X39585D01*
X39806Y66725D01*
X40249Y66497D01*
X40306Y66432D01*
Y65851D01*
X40249Y65786D01*
X39806Y65558D01*
X39585Y65650D01*
X39155D01*
X38757Y65485D01*
X38452Y65180D01*
X38287Y64782D01*
Y64352D01*
X38452Y63954D01*
X38757Y63649D01*
X39155Y63484D01*
X39585D01*
X39806Y63576D01*
X40249Y63348D01*
X40306Y63283D01*
Y60956D01*
X40347Y60855D01*
X40434Y60418D01*
X40683Y60047D01*
X40724Y59947D01*
X45774Y54897D01*
X45818Y54792D01*
Y35562D01*
X45823Y35549D01*
X45787Y35464D01*
X45775Y35459D01*
X40329Y30012D01*
X40287Y29910D01*
X40041Y29542D01*
X39954Y29105D01*
X39912Y29005D01*
Y28665D01*
X39412Y28458D01*
X39393Y28477D01*
X38995Y28642D01*
X38564D01*
X38166Y28477D01*
X37862Y28172D01*
X37697Y27774D01*
Y27344D01*
X37862Y26946D01*
X38166Y26641D01*
X38564Y26476D01*
X38995D01*
X39393Y26641D01*
X39412Y26660D01*
X39912Y26453D01*
Y23358D01*
X39917Y23345D01*
X39882Y23259D01*
X39869Y23254D01*
X35211Y18595D01*
X35107Y18553D01*
X29649D01*
X29442Y19053D01*
X29461Y19072D01*
X29626Y19470D01*
Y19900D01*
X29461Y20298D01*
X29157Y20603D01*
X28759Y20768D01*
X28328D01*
X27930Y20603D01*
X27626Y20298D01*
X27461Y19900D01*
Y19470D01*
X27626Y19072D01*
X27645Y19053D01*
X27437Y18553D01*
X25129D01*
X25029Y18511D01*
X24592Y18424D01*
X24223Y18178D01*
X24123Y18136D01*
X24123Y18136D01*
X24122Y18136D01*
X23769Y17783D01*
X22415Y16430D01*
X22373Y16327D01*
X22127Y15959D01*
X22040Y15522D01*
X21999Y15422D01*
Y10169D01*
X22040Y10068D01*
X22127Y9631D01*
X22375Y9261D01*
X22416Y9160D01*
X23727Y7850D01*
X23828Y7808D01*
X24198Y7560D01*
X24635Y7473D01*
X24736Y7432D01*
X24744D01*
X24791Y7350D01*
X24897Y6932D01*
X24681Y6716D01*
X24516Y6318D01*
Y5887D01*
X24681Y5489D01*
X24986Y5185D01*
X25384Y5020D01*
X25814D01*
X26212Y5185D01*
X26256Y5229D01*
X26583Y5446D01*
X26910Y5229D01*
X26954Y5185D01*
X27352Y5020D01*
X27782D01*
X28180Y5185D01*
X28485Y5489D01*
X28650Y5887D01*
Y6318D01*
X28485Y6716D01*
X28180Y7021D01*
X27782Y7185D01*
X27388D01*
X26281Y8292D01*
X26281Y8292D01*
X26281Y8292D01*
X26281Y8292D01*
X26181Y8334D01*
X25810Y8581D01*
X25373Y8668D01*
X25273Y8710D01*
X25113D01*
X24631Y8754D01*
X24631Y8754D01*
X24140Y9244D01*
X24151Y9411D01*
X24296Y9795D01*
X24570Y9909D01*
X24875Y10214D01*
X25040Y10611D01*
Y11042D01*
X24875Y11440D01*
X24596Y11719D01*
Y15560D01*
X24639Y15664D01*
X25419Y16444D01*
X25523Y16487D01*
X32189D01*
X32254Y16429D01*
X32482Y15987D01*
X32390Y15766D01*
Y15335D01*
X32555Y14938D01*
X32860Y14633D01*
X33258Y14468D01*
X33688D01*
X34086Y14633D01*
X34391Y14938D01*
X34556Y15335D01*
Y15766D01*
X34464Y15987D01*
X34692Y16429D01*
X34757Y16487D01*
X35501D01*
X35601Y16528D01*
X36038Y16615D01*
X36406Y16861D01*
X36453Y16881D01*
X36662Y16754D01*
X36867Y16555D01*
X36812Y16281D01*
X36771Y16180D01*
Y7074D01*
X36346Y6813D01*
X36099Y6976D01*
X36054Y7021D01*
X35656Y7185D01*
X35226D01*
X34828Y7021D01*
X34523Y6716D01*
X34358Y6318D01*
Y5887D01*
X34523Y5489D01*
X34828Y5185D01*
X35226Y5020D01*
X35656D01*
X36054Y5185D01*
X36099Y5229D01*
X36426Y5445D01*
X36752Y5229D01*
X36797Y5185D01*
X37195Y5020D01*
X37625D01*
X38023Y5185D01*
X38328Y5489D01*
X38493Y5887D01*
Y6318D01*
X38328Y6716D01*
X38049Y6995D01*
Y9574D01*
X38171Y9684D01*
X38549Y9856D01*
X38820Y9744D01*
X39250D01*
X39648Y9909D01*
X39953Y10214D01*
X40118Y10611D01*
Y11042D01*
X39953Y11440D01*
X39648Y11745D01*
X39250Y11909D01*
X38820D01*
X38549Y11797D01*
X38171Y11970D01*
X38049Y12079D01*
Y16180D01*
X38092Y16284D01*
X41277Y19469D01*
X41671D01*
X42069Y19634D01*
X42374Y19939D01*
X42539Y20337D01*
Y20767D01*
X42374Y21165D01*
X42069Y21470D01*
X41866Y21554D01*
X41713Y21755D01*
X41660Y21971D01*
X41654Y22135D01*
X41849Y22426D01*
X41936Y22863D01*
X41978Y22964D01*
Y23751D01*
X42061Y23800D01*
X42478Y23904D01*
X42694Y23688D01*
X43092Y23524D01*
X43522D01*
X43920Y23688D01*
X44225Y23993D01*
X44390Y24391D01*
Y24822D01*
X44225Y25220D01*
X43920Y25524D01*
X43522Y25689D01*
X43092D01*
X42694Y25524D01*
X42478Y25308D01*
X42061Y25412D01*
X41978Y25461D01*
Y26152D01*
X42478Y26486D01*
X42501Y26476D01*
X42932D01*
X43330Y26641D01*
X43374Y26686D01*
X43701Y26902D01*
X44027Y26686D01*
X44072Y26641D01*
X44470Y26476D01*
X44900D01*
X45298Y26641D01*
X45603Y26946D01*
X45768Y27344D01*
Y27774D01*
X45603Y28172D01*
X45298Y28477D01*
X44900Y28642D01*
X44470D01*
X44072Y28477D01*
X44027Y28433D01*
X43701Y28216D01*
X43374Y28433D01*
X43330Y28477D01*
X42932Y28642D01*
X42654D01*
X42409Y29103D01*
X42409Y29104D01*
X47114Y33808D01*
X47466Y34161D01*
X47467Y34162D01*
X47660Y34290D01*
X47803Y34274D01*
X48210Y34112D01*
X48324Y33835D01*
X48368Y33791D01*
X48585Y33465D01*
X48368Y33138D01*
X48324Y33094D01*
X48160Y32696D01*
Y32265D01*
X48324Y31867D01*
X48629Y31563D01*
X49027Y31398D01*
X49458D01*
X49856Y31563D01*
X50160Y31867D01*
X50325Y32265D01*
Y32696D01*
X50160Y33094D01*
X50116Y33138D01*
X49899Y33465D01*
X50116Y33791D01*
X50160Y33835D01*
X50325Y34233D01*
Y34664D01*
X50160Y35062D01*
X50116Y35106D01*
X49900Y35433D01*
X50116Y35760D01*
X50160Y35804D01*
X50325Y36202D01*
Y36633D01*
X50160Y37031D01*
X50116Y37075D01*
X49899Y37402D01*
X50116Y37728D01*
X50160Y37772D01*
X50325Y38170D01*
Y38601D01*
X50160Y38999D01*
X49856Y39303D01*
X49458Y39468D01*
X49027D01*
X48629Y39303D01*
X48383Y39058D01*
X48106Y39104D01*
X47883Y39211D01*
Y55579D01*
X47842Y55680D01*
X47755Y56117D01*
X47507Y56488D01*
X47465Y56588D01*
X47466Y56588D01*
X47465Y56588D01*
X45131Y58923D01*
X44778Y59276D01*
X44778Y59276D01*
X44778D01*
X44777Y59278D01*
X44734Y59758D01*
Y66432D01*
X44791Y66497D01*
X45234Y66725D01*
X45454Y66634D01*
X45885D01*
X46283Y66799D01*
X46587Y67103D01*
X46752Y67501D01*
Y67932D01*
X46587Y68330D01*
X46283Y68634D01*
X45885Y68799D01*
X45454D01*
X45085Y69188D01*
X45057Y69312D01*
X45512Y69784D01*
X45885D01*
X46283Y69948D01*
X46587Y70253D01*
X46752Y70651D01*
Y71082D01*
X46661Y71302D01*
X46889Y71745D01*
X46954Y71802D01*
X52233D01*
X52246Y71807D01*
X52332Y71771D01*
X52338Y71758D01*
X52861Y71235D01*
X52904Y71131D01*
Y69001D01*
X52847Y68936D01*
X52404Y68708D01*
X52184Y68799D01*
X51753D01*
X51355Y68634D01*
X51051Y68330D01*
X50886Y67932D01*
Y67501D01*
X51051Y67103D01*
X51355Y66799D01*
X51753Y66634D01*
X52184D01*
X52404Y66725D01*
X52847Y66497D01*
X52904Y66432D01*
Y65851D01*
X52847Y65786D01*
X52404Y65558D01*
X52184Y65650D01*
X51753D01*
X51355Y65485D01*
X51051Y65180D01*
X50886Y64782D01*
Y64352D01*
X51051Y63954D01*
X51355Y63649D01*
X51753Y63484D01*
X52184D01*
X52547Y63094D01*
X52573Y62926D01*
X52140Y62493D01*
X52098Y62391D01*
X51852Y62023D01*
X51765Y61585D01*
X51723Y61485D01*
Y47767D01*
X51765Y47666D01*
X51852Y47229D01*
X52094Y46867D01*
X52136Y46763D01*
X53015Y45874D01*
X52961Y45629D01*
X52835Y45345D01*
X52507Y45209D01*
X52202Y44904D01*
X52037Y44506D01*
Y44076D01*
X52202Y43678D01*
X52246Y43634D01*
X52463Y43307D01*
X52246Y42980D01*
X52202Y42936D01*
X52037Y42538D01*
Y42108D01*
X52202Y41710D01*
X52247Y41665D01*
X52463Y41339D01*
X52247Y41012D01*
X52202Y40967D01*
X52037Y40569D01*
Y40139D01*
X52202Y39741D01*
X52507Y39436D01*
X52905Y39271D01*
X53335D01*
X53388Y39293D01*
X53888Y38959D01*
Y16271D01*
X53930Y16170D01*
X54017Y15733D01*
X54263Y15365D01*
X54305Y15263D01*
X56799Y12770D01*
X56901Y12728D01*
X57269Y12482D01*
X57706Y12395D01*
X57806Y12353D01*
X61629D01*
X61726Y12160D01*
X61783Y11853D01*
X61543Y11613D01*
X61378Y11215D01*
Y10785D01*
X61543Y10387D01*
X61848Y10082D01*
X62246Y9917D01*
X62676D01*
X63074Y10082D01*
X63379Y10387D01*
X63544Y10785D01*
Y11215D01*
X63379Y11613D01*
X63139Y11853D01*
X63196Y12160D01*
X63292Y12353D01*
X75914D01*
X75927Y12358D01*
X76013Y12323D01*
X76018Y12309D01*
X77323Y11005D01*
Y10611D01*
X77487Y10214D01*
X77792Y9909D01*
X78190Y9744D01*
X78620D01*
X79018Y9909D01*
X79323Y10214D01*
X79488Y10611D01*
Y11042D01*
X79323Y11440D01*
X79018Y11745D01*
X78620Y11909D01*
X78226D01*
X76922Y13214D01*
X76922Y13214D01*
X76922Y13214D01*
X76922Y13214D01*
X76822Y13255D01*
X76451Y13503D01*
X76014Y13590D01*
X75914Y13631D01*
X57806D01*
X57703Y13674D01*
X55209Y16167D01*
X55197Y16172D01*
X55161Y16258D01*
X55167Y16271D01*
Y20048D01*
X55629Y20239D01*
X58760Y17108D01*
Y16714D01*
X58925Y16316D01*
X59229Y16011D01*
X59627Y15846D01*
X60058D01*
X60456Y16011D01*
X60760Y16316D01*
X60834Y16492D01*
X61387Y16646D01*
X62704Y15329D01*
X62806Y15286D01*
X63175Y15040D01*
X63612Y14953D01*
X63712Y14912D01*
X71951D01*
X72230Y14633D01*
X72628Y14468D01*
X73058D01*
X73456Y14633D01*
X73761Y14938D01*
X73926Y15335D01*
Y15766D01*
X73761Y16164D01*
X73456Y16469D01*
X73058Y16633D01*
X72628D01*
X72230Y16469D01*
X71951Y16190D01*
X63712D01*
X63608Y16233D01*
X60327Y19514D01*
X60315Y19519D01*
X60280Y19604D01*
X60285Y19617D01*
Y22215D01*
X60785Y22549D01*
X60808Y22539D01*
X61239D01*
X61637Y22704D01*
X61941Y23009D01*
X62106Y23407D01*
Y23837D01*
X61941Y24235D01*
X61637Y24540D01*
X61239Y24705D01*
X60808D01*
X60785Y24695D01*
X60285Y25029D01*
Y28319D01*
X60285Y28808D01*
X60285Y28808D01*
X60285Y28808D01*
X60285D01*
X60243Y28908D01*
X60156Y29345D01*
X59909Y29716D01*
X59867Y29816D01*
X59867Y29816D01*
X59867Y29816D01*
X56785Y32899D01*
X56772Y32904D01*
X56736Y32990D01*
X56742Y33003D01*
Y42193D01*
X56784Y42297D01*
X61681Y47194D01*
X62033Y47547D01*
X62034Y47548D01*
X62034Y47548D01*
X62076Y47649D01*
X62322Y48017D01*
X62358Y48199D01*
X62878Y48361D01*
X62909Y48355D01*
X62969Y48295D01*
X63367Y48130D01*
X63798D01*
X64196Y48295D01*
X64500Y48599D01*
X64665Y48997D01*
Y49428D01*
X64500Y49826D01*
X64196Y50130D01*
X63798Y50295D01*
X63367D01*
X62969Y50130D01*
X62937Y50098D01*
X62818Y50091D01*
X62634Y50126D01*
X62391Y50259D01*
X62322Y50605D01*
X62074Y50976D01*
X62032Y51076D01*
X62032Y51076D01*
X62032Y51076D01*
X60126Y52983D01*
X60279Y53537D01*
X60456Y53610D01*
X60760Y53914D01*
X60925Y54312D01*
Y54743D01*
X60760Y55141D01*
X60456Y55445D01*
X60058Y55610D01*
X59627D01*
X59407Y55519D01*
X58964Y55747D01*
X58907Y55812D01*
Y63675D01*
X59186Y63954D01*
X59350Y64352D01*
Y64782D01*
X59186Y65180D01*
X58881Y65485D01*
X58483Y65650D01*
X58052D01*
X57832Y65558D01*
X57442Y65719D01*
X57381Y65759D01*
X57301Y65838D01*
X57290Y65864D01*
X57204Y66301D01*
X56956Y66672D01*
X56914Y66773D01*
X56914Y66773D01*
X56914Y66773D01*
X56196Y67490D01*
X56201Y67501D01*
Y67932D01*
X56036Y68330D01*
X55731Y68634D01*
X55334Y68799D01*
X54903D01*
X54682Y68708D01*
X54240Y68936D01*
X54182Y69001D01*
Y69582D01*
X54240Y69647D01*
X54682Y69875D01*
X54903Y69784D01*
X55334D01*
X55731Y69948D01*
X56036Y70253D01*
X56201Y70651D01*
Y71082D01*
X56036Y71479D01*
X55731Y71784D01*
X55334Y71949D01*
X54903D01*
X54526Y71793D01*
X54491Y71784D01*
X53905Y71891D01*
X53765Y72139D01*
Y72139D01*
X53242Y72662D01*
X53141Y72704D01*
X52771Y72952D01*
X52333Y73039D01*
X52233Y73080D01*
X44473D01*
X44372Y73039D01*
X43935Y72952D01*
X43567Y72706D01*
X43465Y72663D01*
X42746Y71944D01*
X42735Y71949D01*
X42304D01*
X41941Y72339D01*
X41915Y72507D01*
X42341Y72933D01*
X42735D01*
X43133Y73098D01*
X43437Y73403D01*
X43602Y73800D01*
Y74231D01*
X43437Y74629D01*
X43133Y74934D01*
X42735Y75098D01*
D02*
G37*
G36*
X65963Y72539D02*
X65533D01*
X65135Y72374D01*
X64830Y72070D01*
X64665Y71672D01*
Y71241D01*
X64830Y70843D01*
X65135Y70539D01*
X65533Y70374D01*
X65963D01*
X66361Y70539D01*
X66666Y70843D01*
X66831Y71241D01*
Y71672D01*
X66666Y72070D01*
X66361Y72374D01*
X65963Y72539D01*
D02*
G37*
G36*
X36436Y71949D02*
X36005D01*
X35607Y71784D01*
X35303Y71479D01*
X35138Y71082D01*
Y70651D01*
X35303Y70253D01*
X35607Y69948D01*
X36005Y69784D01*
X36436D01*
X36834Y69948D01*
X37138Y70253D01*
X37303Y70651D01*
Y71082D01*
X37138Y71479D01*
X36834Y71784D01*
X36436Y71949D01*
D02*
G37*
G36*
X74231Y72737D02*
X73800D01*
X73403Y72573D01*
X73098Y72268D01*
X72933Y71870D01*
Y71439D01*
X73089Y71064D01*
X72933Y70689D01*
Y70258D01*
X73098Y69860D01*
X73403Y69556D01*
X73800Y69391D01*
X74231D01*
X74629Y69556D01*
X74934Y69860D01*
X75098Y70258D01*
Y70689D01*
X74943Y71064D01*
X75098Y71439D01*
Y71870D01*
X74934Y72268D01*
X74629Y72573D01*
X74231Y72737D01*
D02*
G37*
G36*
X94704Y69980D02*
X94273D01*
X93875Y69815D01*
X93570Y69511D01*
X93405Y69113D01*
Y68682D01*
X93570Y68284D01*
X93875Y67980D01*
X94273Y67815D01*
X94704D01*
X95101Y67980D01*
X95406Y68284D01*
X95571Y68682D01*
Y69113D01*
X95406Y69511D01*
X95101Y69815D01*
X94704Y69980D01*
D02*
G37*
G36*
X49034Y68799D02*
X48603D01*
X48206Y68634D01*
X47901Y68330D01*
X47736Y67932D01*
Y67501D01*
X47901Y67103D01*
X48206Y66799D01*
X48603Y66634D01*
X49034D01*
X49432Y66799D01*
X49737Y67103D01*
X49902Y67501D01*
Y67932D01*
X49737Y68330D01*
X49432Y68634D01*
X49034Y68799D01*
D02*
G37*
G36*
X36436D02*
X36005D01*
X35607Y68634D01*
X35303Y68330D01*
X35138Y67932D01*
Y67501D01*
X35303Y67103D01*
X35607Y66799D01*
X36005Y66634D01*
X36436D01*
X36834Y66799D01*
X37138Y67103D01*
X37303Y67501D01*
Y67932D01*
X37138Y68330D01*
X36834Y68634D01*
X36436Y68799D01*
D02*
G37*
G36*
X58483Y68799D02*
X58053D01*
X57655Y68634D01*
X57350Y68329D01*
X57185Y67931D01*
Y67501D01*
X57350Y67103D01*
X57655Y66798D01*
X58053Y66633D01*
X58483D01*
X58881Y66798D01*
X59186Y67103D01*
X59351Y67501D01*
Y67931D01*
X59186Y68329D01*
X58881Y68634D01*
X58483Y68799D01*
D02*
G37*
G36*
X70452Y65945D02*
X70021D01*
X69646Y65790D01*
X69271Y65945D01*
X68840D01*
X68465Y65790D01*
X68089Y65945D01*
X67659D01*
X67261Y65780D01*
X66956Y65475D01*
X66791Y65078D01*
Y64647D01*
X66956Y64249D01*
X67261Y63944D01*
X67659Y63780D01*
X68089D01*
X68465Y63935D01*
X68840Y63780D01*
X69271D01*
X69646Y63935D01*
X70021Y63780D01*
X70452D01*
X70850Y63944D01*
X71154Y64249D01*
X71319Y64647D01*
Y65078D01*
X71154Y65475D01*
X70850Y65780D01*
X70452Y65945D01*
D02*
G37*
G36*
X30530Y65650D02*
X30100D01*
X29702Y65485D01*
X29528Y65311D01*
X29353Y65485D01*
X28956Y65650D01*
X28525D01*
X28127Y65485D01*
X27822Y65180D01*
X27657Y64782D01*
Y64734D01*
X27589Y64340D01*
X27196Y64272D01*
X27147D01*
X26749Y64107D01*
X26444Y63802D01*
X26280Y63404D01*
Y62974D01*
X26444Y62576D01*
X26749Y62271D01*
X27147Y62106D01*
X27578D01*
X27975Y62271D01*
X28280Y62576D01*
X28445Y62974D01*
Y63022D01*
X28513Y63416D01*
X28907Y63484D01*
X28956D01*
X29353Y63649D01*
X29528Y63823D01*
X29702Y63649D01*
X30100Y63484D01*
X30530D01*
X30928Y63649D01*
X31233Y63954D01*
X31398Y64352D01*
Y64782D01*
X31233Y65180D01*
X30928Y65485D01*
X30530Y65650D01*
D02*
G37*
G36*
X20688Y74705D02*
X20257D01*
X19859Y74540D01*
X19555Y74235D01*
X19390Y73837D01*
Y73407D01*
X19555Y73009D01*
X19859Y72704D01*
X20092Y72608D01*
Y72077D01*
X19859Y71981D01*
X19555Y71676D01*
X19390Y71278D01*
Y70848D01*
X19555Y70450D01*
X19859Y70145D01*
X20092Y70049D01*
Y69518D01*
X19859Y69422D01*
X19555Y69117D01*
X19390Y68719D01*
Y68289D01*
X19555Y67891D01*
X19859Y67586D01*
Y67060D01*
X19555Y66755D01*
X19390Y66357D01*
Y65926D01*
X19555Y65528D01*
X19859Y65224D01*
X20257Y65059D01*
X20688D01*
X21086Y65224D01*
X21390Y65528D01*
X21555Y65926D01*
Y66357D01*
X21390Y66755D01*
X21086Y67060D01*
Y67586D01*
X21390Y67891D01*
X21555Y68289D01*
Y68719D01*
X21390Y69117D01*
X21086Y69422D01*
X20853Y69518D01*
Y70049D01*
X21086Y70145D01*
X21390Y70450D01*
X21555Y70848D01*
Y71278D01*
X21390Y71676D01*
X21086Y71981D01*
X20853Y72077D01*
Y72608D01*
X21086Y72704D01*
X21390Y73009D01*
X21555Y73407D01*
Y73837D01*
X21390Y74235D01*
X21086Y74540D01*
X20688Y74705D01*
D02*
G37*
G36*
X84631Y65650D02*
X84200D01*
X83802Y65485D01*
X83498Y65180D01*
X83333Y64782D01*
Y64352D01*
X83498Y63954D01*
X83802Y63649D01*
X84200Y63484D01*
X84631D01*
X85029Y63649D01*
X85333Y63954D01*
X85498Y64352D01*
Y64782D01*
X85333Y65180D01*
X85029Y65485D01*
X84631Y65650D01*
D02*
G37*
G36*
X61532Y63287D02*
X61101D01*
X60703Y63123D01*
X60398Y62818D01*
X60234Y62420D01*
Y61989D01*
X60398Y61591D01*
X60703Y61287D01*
X61101Y61122D01*
X61532D01*
X61930Y61287D01*
X62234Y61591D01*
X62399Y61989D01*
Y62420D01*
X62234Y62818D01*
X61930Y63123D01*
X61532Y63287D01*
D02*
G37*
G36*
X89979Y63484D02*
X89548D01*
X89151Y63319D01*
X88846Y63015D01*
X88681Y62617D01*
Y62186D01*
X88836Y61811D01*
X88681Y61436D01*
Y61005D01*
X88836Y60630D01*
X88681Y60255D01*
Y59824D01*
X88846Y59426D01*
X89151Y59122D01*
X89548Y58957D01*
X89979D01*
X90377Y59122D01*
X90682Y59426D01*
X90847Y59824D01*
Y60255D01*
X90691Y60630D01*
X90847Y61005D01*
Y61436D01*
X90691Y61811D01*
X90847Y62186D01*
Y62617D01*
X90682Y63015D01*
X90377Y63319D01*
X89979Y63484D01*
D02*
G37*
G36*
X33680Y61122D02*
X33249D01*
X32851Y60957D01*
X32547Y60653D01*
X32382Y60255D01*
Y59824D01*
X32547Y59426D01*
X32851Y59122D01*
X33249Y58957D01*
X33680D01*
X34078Y59122D01*
X34382Y59426D01*
X34547Y59824D01*
Y60255D01*
X34382Y60653D01*
X34078Y60957D01*
X33680Y61122D01*
D02*
G37*
G36*
X68433Y58957D02*
X68003D01*
X67628Y58801D01*
X67252Y58957D01*
X66822D01*
X66424Y58792D01*
X66119Y58487D01*
X65954Y58089D01*
Y57659D01*
X66119Y57261D01*
X66424Y56956D01*
X66822Y56791D01*
X67252D01*
X67628Y56947D01*
X68003Y56791D01*
X68433D01*
X68831Y56956D01*
X69136Y57261D01*
X69301Y57659D01*
Y58089D01*
X69136Y58487D01*
X68831Y58792D01*
X68433Y58957D01*
D02*
G37*
G36*
X28759D02*
X28328D01*
X27953Y58801D01*
X27578Y58957D01*
X27147D01*
X26749Y58792D01*
X26444Y58487D01*
X26280Y58089D01*
Y57659D01*
X26444Y57261D01*
X26749Y56956D01*
X27147Y56791D01*
X27578D01*
X27953Y56947D01*
X28328Y56791D01*
X28759D01*
X29157Y56956D01*
X29461Y57261D01*
X29626Y57659D01*
Y58089D01*
X29461Y58487D01*
X29157Y58792D01*
X28759Y58957D01*
D02*
G37*
G36*
X87223Y60532D02*
X86793D01*
X86395Y60367D01*
X86090Y60062D01*
X85925Y59664D01*
Y59233D01*
X86013Y59022D01*
X85880Y58751D01*
X85624Y58718D01*
X85317Y58734D01*
X85062Y58989D01*
X84664Y59153D01*
X84233D01*
X83836Y58989D01*
X83531Y58684D01*
X83366Y58286D01*
Y57855D01*
X83531Y57458D01*
X83836Y57153D01*
X84233Y56988D01*
X84664D01*
X85062Y57153D01*
X85293Y57384D01*
X85568Y57469D01*
X85808Y57483D01*
X85902Y57444D01*
X85937Y57330D01*
X85925Y57302D01*
Y56871D01*
X85965Y56775D01*
X85607Y56626D01*
X85303Y56322D01*
X85138Y55924D01*
Y55493D01*
X85293Y55118D01*
X85138Y54743D01*
Y54312D01*
X85293Y53937D01*
X85138Y53562D01*
Y53131D01*
X85293Y52756D01*
X85138Y52381D01*
Y51950D01*
X85293Y51575D01*
X85138Y51200D01*
Y50769D01*
X85303Y50371D01*
X85607Y50066D01*
X86005Y49902D01*
X86436D01*
X86811Y50057D01*
X87186Y49902D01*
X87617D01*
X87992Y50057D01*
X88367Y49902D01*
X88798D01*
X89173Y50057D01*
X89548Y49902D01*
X89979D01*
X90354Y50057D01*
X90729Y49902D01*
X91160D01*
X91558Y50066D01*
X91863Y50371D01*
X92028Y50769D01*
Y51200D01*
X91872Y51575D01*
X92028Y51950D01*
Y52381D01*
X91872Y52756D01*
X92028Y53131D01*
Y53562D01*
X91872Y53937D01*
X92028Y54312D01*
Y54743D01*
X91872Y55118D01*
X92028Y55493D01*
Y55924D01*
X91863Y56322D01*
X91558Y56626D01*
X91160Y56791D01*
X90729D01*
X90354Y56636D01*
X89979Y56791D01*
X89548D01*
X89173Y56636D01*
X88798Y56791D01*
X88553D01*
X88344Y56827D01*
X88091Y57218D01*
Y57302D01*
X87935Y57677D01*
X88091Y58052D01*
Y58483D01*
X87935Y58858D01*
X88091Y59233D01*
Y59664D01*
X87926Y60062D01*
X87621Y60367D01*
X87223Y60532D01*
D02*
G37*
G36*
X49034Y60138D02*
X48603D01*
X48206Y59973D01*
X47901Y59668D01*
X47736Y59271D01*
Y58840D01*
X47901Y58442D01*
X48206Y58137D01*
X48603Y57973D01*
X49034D01*
X49432Y58137D01*
X49737Y58442D01*
X49902Y58840D01*
Y59271D01*
X49737Y59668D01*
X49432Y59973D01*
X49034Y60138D01*
D02*
G37*
G36*
X72263Y60532D02*
X71832D01*
X71434Y60367D01*
X71129Y60062D01*
X70964Y59664D01*
Y59233D01*
X71120Y58858D01*
X70964Y58483D01*
Y58052D01*
X71120Y57677D01*
X70964Y57302D01*
Y56871D01*
X71129Y56473D01*
X71434Y56169D01*
X71832Y56004D01*
X72263D01*
X72660Y56169D01*
X72965Y56473D01*
X73130Y56871D01*
Y57302D01*
X72974Y57677D01*
X73130Y58052D01*
Y58483D01*
X72974Y58858D01*
X73130Y59233D01*
Y59664D01*
X72965Y60062D01*
X72660Y60367D01*
X72263Y60532D01*
D02*
G37*
G36*
X16357Y55610D02*
X15926D01*
X15551Y55455D01*
X15176Y55610D01*
X14745D01*
X14370Y55455D01*
X13995Y55610D01*
X13564D01*
X13189Y55455D01*
X12814Y55610D01*
X12383D01*
X12008Y55455D01*
X11633Y55610D01*
X11202D01*
X10804Y55445D01*
X10499Y55141D01*
X10335Y54743D01*
Y54312D01*
X10490Y53937D01*
X10335Y53562D01*
Y53131D01*
X10490Y52756D01*
X10335Y52381D01*
Y51950D01*
X10490Y51575D01*
X10335Y51200D01*
Y50769D01*
X10499Y50371D01*
X10804Y50066D01*
X11202Y49902D01*
X11633D01*
X12008Y50057D01*
X12383Y49902D01*
X12814D01*
X13189Y50057D01*
X13564Y49902D01*
X13995D01*
X14370Y50057D01*
X14745Y49902D01*
X15176D01*
X15551Y50057D01*
X15926Y49902D01*
X16357D01*
X16755Y50066D01*
X17060Y50371D01*
X17224Y50769D01*
Y51200D01*
X17069Y51575D01*
X17224Y51950D01*
Y52381D01*
X17069Y52756D01*
X17224Y53131D01*
Y53562D01*
X17069Y53937D01*
X17224Y54312D01*
Y54743D01*
X17060Y55141D01*
X16755Y55445D01*
X16357Y55610D01*
D02*
G37*
G36*
X42538Y56201D02*
X42107D01*
X41710Y56036D01*
X41405Y55731D01*
X41240Y55334D01*
Y54903D01*
X41311Y54732D01*
X41144Y54287D01*
X41033Y54195D01*
X40725Y54067D01*
X40681Y54023D01*
X40354Y53807D01*
X40028Y54023D01*
X39983Y54067D01*
X39585Y54232D01*
X39155D01*
X38757Y54067D01*
X38452Y53763D01*
X38287Y53365D01*
Y52934D01*
X38452Y52536D01*
X38757Y52232D01*
X39155Y52067D01*
X39585D01*
X39983Y52232D01*
X40028Y52276D01*
X40275Y52440D01*
X40699Y52178D01*
Y51507D01*
X40705Y51494D01*
X40669Y51408D01*
X40657Y51403D01*
X38557Y49304D01*
X38453Y49261D01*
X28476D01*
X28375Y49220D01*
X27938Y49133D01*
X27570Y48887D01*
X27469Y48845D01*
X27469Y48845D01*
X27468Y48844D01*
X27115Y48492D01*
X25295Y46671D01*
X24871Y46954D01*
X24902Y47029D01*
Y47459D01*
X24737Y47857D01*
X24432Y48162D01*
X24034Y48327D01*
X23604D01*
X23206Y48162D01*
X22901Y47857D01*
X22736Y47459D01*
Y47029D01*
X22901Y46631D01*
X23206Y46326D01*
X23604Y46161D01*
X24034D01*
X24109Y46192D01*
X24392Y45768D01*
X23801Y45177D01*
X23407D01*
X23009Y45012D01*
X22704Y44708D01*
X22539Y44310D01*
Y43879D01*
X22704Y43481D01*
X22749Y43437D01*
X22965Y43110D01*
X22749Y42784D01*
X22704Y42739D01*
X22539Y42341D01*
Y41911D01*
X22704Y41513D01*
X22749Y41468D01*
X22965Y41142D01*
X22749Y40815D01*
X22704Y40771D01*
X22539Y40373D01*
Y39942D01*
X22704Y39544D01*
X23009Y39240D01*
X23407Y39075D01*
X23837D01*
X24235Y39240D01*
X24540Y39544D01*
X24705Y39942D01*
Y40373D01*
X24540Y40771D01*
X24496Y40815D01*
X24279Y41142D01*
X24496Y41468D01*
X24540Y41513D01*
X24705Y41911D01*
Y42341D01*
X24540Y42739D01*
X24496Y42784D01*
X24279Y43110D01*
X24496Y43437D01*
X24540Y43481D01*
X24705Y43879D01*
Y44273D01*
X25063Y44632D01*
X25175Y44602D01*
X25525Y44387D01*
Y44076D01*
X25690Y43678D01*
X25995Y43374D01*
X26393Y43209D01*
X26823D01*
X27221Y43374D01*
X27500Y43652D01*
X27823D01*
X27924Y43694D01*
X28361Y43781D01*
X28729Y44027D01*
X28831Y44069D01*
X31325Y46562D01*
X31429Y46605D01*
X33951D01*
X34229Y46326D01*
X34627Y46161D01*
X35058D01*
X35456Y46326D01*
X35760Y46631D01*
X35925Y47029D01*
Y47459D01*
X35915Y47483D01*
X36250Y47983D01*
X38453D01*
X38554Y48024D01*
X38991Y48112D01*
X39359Y48357D01*
X39461Y48400D01*
X41208Y50147D01*
X41561Y50499D01*
X41561Y50501D01*
X41561Y50501D01*
X41603Y50601D01*
X41849Y50970D01*
X41936Y51407D01*
X41978Y51507D01*
Y52258D01*
X42256Y52536D01*
X42421Y52934D01*
Y53365D01*
X42351Y53535D01*
X42518Y53981D01*
X42519Y53982D01*
X42726Y53985D01*
X42792Y53952D01*
X43064Y53490D01*
X43012Y53365D01*
Y52934D01*
X43177Y52536D01*
X43481Y52232D01*
X43879Y52067D01*
X44310D01*
X44708Y52232D01*
X45012Y52536D01*
X45177Y52934D01*
Y53365D01*
X45012Y53763D01*
X44708Y54067D01*
X44310Y54232D01*
X43879D01*
X43562Y54101D01*
X43537Y54095D01*
X43225Y54465D01*
X43241Y54505D01*
X43260Y54550D01*
X43406Y54903D01*
Y55334D01*
X43241Y55731D01*
X42936Y56036D01*
X42538Y56201D01*
D02*
G37*
G36*
X36830Y54232D02*
X36399D01*
X36001Y54067D01*
X35696Y53763D01*
X35170D01*
X34865Y54067D01*
X34467Y54232D01*
X34037D01*
X33639Y54067D01*
X33334Y53763D01*
X33169Y53365D01*
Y52934D01*
X33310Y52595D01*
X32937Y52280D01*
X32897Y52296D01*
X32851Y52315D01*
X32499Y52461D01*
X32068D01*
X31670Y52296D01*
X31366Y51991D01*
X31201Y51593D01*
Y51163D01*
X31366Y50765D01*
X31670Y50460D01*
X32068Y50295D01*
X32499D01*
X32897Y50460D01*
X33201Y50765D01*
X33366Y51163D01*
Y51593D01*
X33226Y51933D01*
X33599Y52247D01*
X33639Y52232D01*
X33684Y52213D01*
X34037Y52067D01*
X34467D01*
X34865Y52232D01*
X35170Y52536D01*
X35696D01*
X36001Y52232D01*
X36399Y52067D01*
X36830D01*
X37227Y52232D01*
X37532Y52536D01*
X37697Y52934D01*
Y53365D01*
X37532Y53763D01*
X37227Y54067D01*
X36830Y54232D01*
D02*
G37*
G36*
X78956Y56201D02*
X78525D01*
X78127Y56036D01*
X77822Y55731D01*
X77658Y55334D01*
Y54903D01*
X77822Y54505D01*
X77930Y54067D01*
X77626Y53763D01*
X77461Y53365D01*
Y52934D01*
X77626Y52536D01*
X77930Y52232D01*
X78328Y52067D01*
X78759D01*
X79157Y52232D01*
X79461Y52536D01*
X79626Y52934D01*
Y53365D01*
X79461Y53763D01*
X79353Y54200D01*
X79658Y54505D01*
X79823Y54903D01*
Y55334D01*
X79658Y55731D01*
X79353Y56036D01*
X78956Y56201D01*
D02*
G37*
G36*
X72518Y54232D02*
X72088D01*
X71690Y54067D01*
X71385Y53763D01*
X71220Y53365D01*
Y52934D01*
X71385Y52536D01*
X71690Y52232D01*
X72088Y52067D01*
X72518D01*
X72916Y52232D01*
X73221Y52536D01*
X73386Y52934D01*
Y53365D01*
X73221Y53763D01*
X72916Y54067D01*
X72518Y54232D01*
D02*
G37*
G36*
X44310Y49114D02*
X43879D01*
X43481Y48949D01*
X43177Y48645D01*
X43012Y48247D01*
Y47816D01*
X43177Y47418D01*
X43481Y47114D01*
X43879Y46949D01*
X44310D01*
X44708Y47114D01*
X45012Y47418D01*
X45177Y47816D01*
Y48247D01*
X45012Y48645D01*
X44708Y48949D01*
X44310Y49114D01*
D02*
G37*
G36*
X78956Y45374D02*
X78525D01*
X78127Y45209D01*
X77822Y44905D01*
X77658Y44507D01*
Y44076D01*
X77822Y43678D01*
X78127Y43374D01*
X78525Y43209D01*
X78956D01*
X79353Y43374D01*
X79658Y43678D01*
X79823Y44076D01*
Y44507D01*
X79658Y44905D01*
X79353Y45209D01*
X78956Y45374D01*
D02*
G37*
G36*
X76593Y48327D02*
X76163D01*
X75765Y48162D01*
X75460Y47857D01*
X75295Y47459D01*
Y47065D01*
X73006Y44776D01*
X72964Y44674D01*
X72718Y44306D01*
X72631Y43869D01*
X72589Y43768D01*
Y40476D01*
X72089Y40269D01*
X72070Y40288D01*
X71672Y40453D01*
X71241D01*
X70843Y40288D01*
X70539Y39983D01*
X70539Y39983D01*
X70501Y39968D01*
X70064Y39881D01*
X69696Y39635D01*
X69595Y39593D01*
X69595Y39593D01*
X69594Y39592D01*
X69167Y39166D01*
X69125Y39064D01*
X68879Y38696D01*
X68792Y38259D01*
X68751Y38158D01*
Y32503D01*
X68251Y32296D01*
X68133Y32414D01*
X67735Y32579D01*
X67304D01*
X66906Y32414D01*
X66602Y32109D01*
X66437Y31711D01*
Y31281D01*
X66602Y30883D01*
X66906Y30578D01*
X67304Y30413D01*
X67538D01*
X67821Y30131D01*
X67834Y30125D01*
X67870Y30039D01*
X67865Y30026D01*
X67865Y25917D01*
X67906Y25817D01*
X67993Y25379D01*
X68239Y25011D01*
X68282Y24909D01*
X69689Y23502D01*
X69766Y23072D01*
X69587Y22806D01*
X69034Y22838D01*
X69026Y22857D01*
X68721Y23162D01*
X68323Y23327D01*
X67893D01*
X67495Y23162D01*
X67190Y22857D01*
X66666D01*
X66361Y23162D01*
X65963Y23327D01*
X65915D01*
X65521Y23395D01*
X65453Y23789D01*
Y23837D01*
X65288Y24235D01*
X64983Y24540D01*
X64585Y24705D01*
X64155D01*
X63757Y24540D01*
X63452Y24235D01*
X63287Y23837D01*
Y23407D01*
X63452Y23009D01*
X63757Y22704D01*
X64155Y22539D01*
X64203D01*
X64597Y22471D01*
X64665Y22077D01*
Y22029D01*
X64830Y21631D01*
X65135Y21326D01*
X65533Y21161D01*
X65963D01*
X66361Y21326D01*
X66666Y21631D01*
X67190D01*
X67495Y21326D01*
X67893Y21161D01*
X68323D01*
X68721Y21326D01*
X69026Y21631D01*
X69125Y21870D01*
X69652D01*
X69751Y21631D01*
X70056Y21326D01*
X70454Y21161D01*
X70885D01*
X71283Y21326D01*
X71587Y21631D01*
X71752Y22029D01*
Y22459D01*
X71742Y22483D01*
X72076Y22983D01*
X75486D01*
X75765Y22704D01*
X76163Y22539D01*
X76593D01*
X76991Y22704D01*
X77296Y23009D01*
X77461Y23407D01*
Y23837D01*
X77296Y24235D01*
X77017Y24514D01*
X77017Y29076D01*
X77517Y29176D01*
X77626Y28914D01*
X77930Y28610D01*
X78328Y28445D01*
X78759D01*
X79157Y28610D01*
X79461Y28914D01*
X79626Y29312D01*
Y29743D01*
X79461Y30141D01*
X79353Y30578D01*
X79658Y30883D01*
X79823Y31281D01*
Y31711D01*
X79658Y32109D01*
X79353Y32414D01*
X78956Y32579D01*
X78525D01*
X78127Y32414D01*
X77822Y32109D01*
X77658Y31711D01*
Y31281D01*
X77822Y30883D01*
X77930Y30445D01*
X77626Y30141D01*
X77517Y29879D01*
X77017Y29979D01*
X77017Y31370D01*
X77017Y31370D01*
X77017D01*
X76976Y31471D01*
X76889Y31908D01*
X76775Y32079D01*
X76769Y32101D01*
X76837Y32265D01*
Y32696D01*
X76672Y33094D01*
X76367Y33398D01*
X75969Y33563D01*
X75539D01*
X75141Y33398D01*
X74836Y33094D01*
X74672Y32696D01*
Y32265D01*
X74836Y31867D01*
X75141Y31563D01*
X75539Y31398D01*
X75739Y31370D01*
X75739Y24657D01*
X75343Y24261D01*
X71775D01*
X71568Y24761D01*
X71587Y24780D01*
X71752Y25178D01*
Y25609D01*
X71587Y26007D01*
X71543Y26051D01*
X71327Y26378D01*
X71543Y26705D01*
X71587Y26749D01*
X71752Y27147D01*
Y27541D01*
X73098Y28887D01*
X73451Y29240D01*
X73451Y29241D01*
X73451Y29241D01*
X73493Y29342D01*
X73739Y29710D01*
X73826Y30147D01*
X73868Y30247D01*
Y43768D01*
X73910Y43872D01*
X76199Y46161D01*
X76593D01*
X76991Y46326D01*
X77296Y46631D01*
X77461Y47029D01*
Y47459D01*
X77296Y47857D01*
X76991Y48162D01*
X76593Y48327D01*
D02*
G37*
G36*
X75969Y39469D02*
X75539D01*
X75141Y39304D01*
X74836Y38999D01*
X74672Y38601D01*
Y38170D01*
X74836Y37773D01*
X75141Y37468D01*
X75539Y37303D01*
X75969D01*
X76367Y37468D01*
X76672Y37773D01*
X76837Y38170D01*
Y38601D01*
X76672Y38999D01*
X76367Y39304D01*
X75969Y39469D01*
D02*
G37*
G36*
X26823D02*
X26393D01*
X25995Y39304D01*
X25690Y38999D01*
X25525Y38601D01*
Y38170D01*
X25690Y37773D01*
X25995Y37468D01*
X26393Y37303D01*
X26823D01*
X27221Y37468D01*
X27526Y37773D01*
X27691Y38170D01*
Y38601D01*
X27526Y38999D01*
X27221Y39304D01*
X26823Y39469D01*
D02*
G37*
G36*
X16357Y36122D02*
X15926D01*
X15551Y35967D01*
X15176Y36122D01*
X14745D01*
X14370Y35967D01*
X13995Y36122D01*
X13564D01*
X13189Y35967D01*
X12814Y36122D01*
X12383D01*
X12008Y35967D01*
X11633Y36122D01*
X11202D01*
X10804Y35957D01*
X10499Y35653D01*
X10335Y35255D01*
Y34824D01*
X10490Y34449D01*
X10335Y34074D01*
Y33643D01*
X10490Y33268D01*
X10335Y32893D01*
Y32462D01*
X10490Y32087D01*
X10335Y31711D01*
Y31281D01*
X10490Y30906D01*
X10335Y30530D01*
Y30100D01*
X10499Y29702D01*
X10804Y29397D01*
X11202Y29232D01*
X11633D01*
X12008Y29388D01*
X12383Y29232D01*
X12814D01*
X13189Y29388D01*
X13564Y29232D01*
X13995D01*
X14370Y29388D01*
X14745Y29232D01*
X15176D01*
X15551Y29388D01*
X15926Y29232D01*
X16357D01*
X16755Y29397D01*
X17060Y29702D01*
X17224Y30100D01*
Y30530D01*
X17069Y30906D01*
X17224Y31281D01*
Y31711D01*
X17069Y32087D01*
X17224Y32462D01*
Y32893D01*
X17069Y33268D01*
X17224Y33643D01*
Y34074D01*
X17069Y34449D01*
X17224Y34824D01*
Y35255D01*
X17060Y35653D01*
X16755Y35957D01*
X16357Y36122D01*
D02*
G37*
G36*
X91160Y36122D02*
X90729D01*
X90354Y35967D01*
X89979Y36122D01*
X89548D01*
X89173Y35967D01*
X88798Y36122D01*
X88367D01*
X87992Y35967D01*
X87617Y36122D01*
X87186D01*
X86811Y35967D01*
X86436Y36122D01*
X86005D01*
X85607Y35957D01*
X85303Y35653D01*
X85138Y35255D01*
Y34824D01*
X85293Y34449D01*
X85138Y34074D01*
Y33643D01*
X85293Y33268D01*
X85138Y32893D01*
Y32462D01*
X85293Y32087D01*
X85138Y31711D01*
Y31281D01*
X85293Y30906D01*
X85138Y30530D01*
Y30100D01*
X85303Y29702D01*
X85607Y29397D01*
X86005Y29232D01*
X86436D01*
X86811Y29388D01*
X87186Y29232D01*
X87617D01*
X87992Y29388D01*
X88367Y29232D01*
X88798D01*
X89173Y29388D01*
X89548Y29232D01*
X89979D01*
X90354Y29388D01*
X90729Y29232D01*
X91160D01*
X91558Y29397D01*
X91863Y29702D01*
X92027Y30100D01*
Y30530D01*
X91872Y30906D01*
X92027Y31281D01*
Y31711D01*
X91872Y32087D01*
X92027Y32462D01*
Y32893D01*
X91872Y33268D01*
X92027Y33643D01*
Y34074D01*
X91872Y34449D01*
X92027Y34824D01*
Y35255D01*
X91863Y35653D01*
X91558Y35957D01*
X91160Y36122D01*
D02*
G37*
G36*
X24034Y36516D02*
X23604D01*
X23206Y36351D01*
X22901Y36046D01*
X22736Y35648D01*
Y35218D01*
X22901Y34820D01*
X23206Y34515D01*
X23604Y34350D01*
X24034D01*
X24432Y34515D01*
X24737Y34820D01*
X24902Y35218D01*
Y35648D01*
X24737Y36046D01*
X24432Y36351D01*
X24034Y36516D01*
D02*
G37*
G36*
X78759Y42421D02*
X78328D01*
X77930Y42256D01*
X77626Y41952D01*
X77461Y41554D01*
Y41123D01*
X77626Y40725D01*
X77867Y40484D01*
X77929Y40389D01*
X77920Y39884D01*
X77822Y39786D01*
X77658Y39389D01*
Y38958D01*
X77822Y38560D01*
X77977Y38405D01*
X78075Y38091D01*
X77977Y37776D01*
X77822Y37621D01*
X77658Y37223D01*
Y36792D01*
X77822Y36395D01*
X77977Y36240D01*
X78075Y35925D01*
X77977Y35611D01*
X77822Y35456D01*
X77658Y35058D01*
Y34627D01*
X77822Y34229D01*
X78127Y33925D01*
X78525Y33760D01*
X78956D01*
X79353Y33925D01*
X79658Y34229D01*
X79823Y34627D01*
Y35058D01*
X79658Y35456D01*
X79503Y35611D01*
X79405Y35925D01*
X79503Y36240D01*
X79658Y36395D01*
X79823Y36792D01*
Y37223D01*
X79658Y37621D01*
X79503Y37776D01*
X79405Y38091D01*
X79503Y38405D01*
X79658Y38560D01*
X79823Y38958D01*
Y39389D01*
X79658Y39786D01*
X79417Y40028D01*
X79354Y40123D01*
X79364Y40628D01*
X79461Y40725D01*
X79626Y41123D01*
Y41554D01*
X79461Y41952D01*
X79157Y42256D01*
X78759Y42421D01*
D02*
G37*
G36*
X31121Y40059D02*
X30690D01*
X30292Y39894D01*
X29988Y39590D01*
X29823Y39192D01*
Y38761D01*
X29988Y38363D01*
X30162Y38189D01*
X29988Y38015D01*
X29823Y37617D01*
Y37223D01*
X29305Y36705D01*
X29263Y36603D01*
X29017Y36235D01*
X28930Y35798D01*
X28888Y35697D01*
Y33791D01*
X28930Y33690D01*
X28944Y33619D01*
X28551Y33119D01*
X24514D01*
X24235Y33398D01*
X23837Y33563D01*
X23407D01*
X23009Y33398D01*
X22704Y33094D01*
X22539Y32696D01*
Y32265D01*
X22704Y31867D01*
X22749Y31823D01*
X22965Y31496D01*
X22749Y31169D01*
X22704Y31125D01*
X22539Y30727D01*
Y30296D01*
X22704Y29899D01*
X23009Y29594D01*
X23407Y29429D01*
X23534D01*
X23967Y29201D01*
Y27492D01*
X24009Y27391D01*
X24096Y26954D01*
X24342Y26586D01*
X24384Y26484D01*
X29634Y21234D01*
X29736Y21192D01*
X30103Y20946D01*
X30540Y20859D01*
X30641Y20818D01*
X33360D01*
X33639Y20539D01*
X34037Y20374D01*
X34467D01*
X34865Y20539D01*
X35170Y20843D01*
X35335Y21241D01*
Y21672D01*
X35170Y22070D01*
X34954Y22286D01*
X35058Y22703D01*
X35107Y22786D01*
X35722D01*
X36001Y22507D01*
X36399Y22343D01*
X36830D01*
X37227Y22507D01*
X37532Y22812D01*
X37697Y23210D01*
Y23641D01*
X37532Y24038D01*
X37227Y24343D01*
X36830Y24508D01*
X36399D01*
X36001Y24343D01*
X35722Y24064D01*
X34184D01*
X34081Y24107D01*
X32178Y26010D01*
X32165Y26015D01*
X32130Y26101D01*
X32135Y26114D01*
Y29300D01*
X32597Y29491D01*
X33459Y28629D01*
X33334Y28172D01*
X33169Y27774D01*
Y27344D01*
X33334Y26946D01*
X33639Y26641D01*
X34037Y26476D01*
X34467D01*
X34865Y26641D01*
X35170Y26946D01*
X35335Y27344D01*
Y27774D01*
X35170Y28172D01*
X34865Y28477D01*
X34791Y28508D01*
X34772Y28680D01*
X34703Y28806D01*
X34652Y29062D01*
X34404Y29433D01*
X34363Y29533D01*
X34363Y29533D01*
X34363Y29533D01*
X30564Y33332D01*
X30213Y33683D01*
X30210Y33685D01*
X30167Y34167D01*
Y35697D01*
X30209Y35801D01*
X30727Y36319D01*
X31121D01*
X31519Y36484D01*
X31823Y36788D01*
X31988Y37186D01*
Y37617D01*
X31823Y38015D01*
X31649Y38189D01*
X31823Y38363D01*
X31988Y38761D01*
Y39192D01*
X31823Y39590D01*
X31519Y39894D01*
X31121Y40059D01*
D02*
G37*
G36*
X46869Y31004D02*
X46438D01*
X46040Y30839D01*
X45736Y30534D01*
X45571Y30137D01*
Y29706D01*
X45736Y29308D01*
X46040Y29003D01*
X46438Y28839D01*
X46869D01*
X47267Y29003D01*
X47571Y29308D01*
X47736Y29706D01*
Y30137D01*
X47571Y30534D01*
X47267Y30839D01*
X46869Y31004D01*
D02*
G37*
G36*
X24034Y24705D02*
X23604D01*
X23206Y24540D01*
X22901Y24235D01*
X22736Y23837D01*
Y23407D01*
X22901Y23009D01*
X23206Y22704D01*
X23377Y22633D01*
X23391Y22397D01*
X23327Y22113D01*
X23009Y21981D01*
X22704Y21676D01*
X22539Y21278D01*
Y20848D01*
X22704Y20450D01*
X23009Y20145D01*
X23407Y19980D01*
X23837D01*
X24235Y20145D01*
X24540Y20450D01*
X24705Y20848D01*
Y21278D01*
X24540Y21676D01*
X24235Y21981D01*
X24064Y22052D01*
X24050Y22288D01*
X24114Y22572D01*
X24432Y22704D01*
X24737Y23009D01*
X24902Y23407D01*
Y23837D01*
X24737Y24235D01*
X24432Y24540D01*
X24034Y24705D01*
D02*
G37*
G36*
X78956Y21949D02*
X78525D01*
X78127Y21784D01*
X77822Y21479D01*
X77658Y21081D01*
Y20651D01*
X77822Y20253D01*
X78127Y19948D01*
X78525Y19783D01*
X78956D01*
X79353Y19948D01*
X79658Y20253D01*
X79823Y20651D01*
Y21081D01*
X79658Y21479D01*
X79353Y21784D01*
X78956Y21949D01*
D02*
G37*
G36*
X27184Y11909D02*
X26753D01*
X26355Y11745D01*
X26051Y11440D01*
X25886Y11042D01*
Y10611D01*
X26051Y10214D01*
X26355Y9909D01*
X26753Y9744D01*
X27184D01*
X27582Y9909D01*
X27886Y10214D01*
X28051Y10611D01*
Y11042D01*
X27886Y11440D01*
X27582Y11745D01*
X27184Y11909D01*
D02*
G37*
G36*
X71278Y11713D02*
X70848D01*
X70450Y11548D01*
X70145Y11243D01*
X69980Y10845D01*
Y10415D01*
X70145Y10017D01*
X70450Y9712D01*
X70848Y9547D01*
X71278D01*
X71676Y9712D01*
X71981Y10017D01*
X72146Y10415D01*
Y10845D01*
X71981Y11243D01*
X71676Y11548D01*
X71278Y11713D01*
D02*
G37*
G36*
X76995Y7185D02*
X76565D01*
X76167Y7021D01*
X76122Y6976D01*
X75796Y6760D01*
X75469Y6976D01*
X75424Y7021D01*
X75027Y7185D01*
X74596D01*
X74198Y7021D01*
X73893Y6716D01*
X73729Y6318D01*
Y5887D01*
X73893Y5489D01*
X74198Y5185D01*
X74596Y5020D01*
X75027D01*
X75424Y5185D01*
X75469Y5229D01*
X75796Y5445D01*
X76122Y5229D01*
X76167Y5185D01*
X76565Y5020D01*
X76995D01*
X77393Y5185D01*
X77698Y5489D01*
X77863Y5887D01*
Y6318D01*
X77698Y6716D01*
X77393Y7021D01*
X76995Y7185D01*
D02*
G37*
G36*
X67153D02*
X66722D01*
X66324Y7021D01*
X66280Y6977D01*
X65953Y6760D01*
X65627Y6977D01*
X65582Y7021D01*
X65184Y7185D01*
X64754D01*
X64356Y7021D01*
X64051Y6716D01*
X63886Y6318D01*
Y5887D01*
X64051Y5489D01*
X64356Y5185D01*
X64754Y5020D01*
X65184D01*
X65582Y5185D01*
X65627Y5229D01*
X65953Y5446D01*
X66280Y5229D01*
X66324Y5185D01*
X66722Y5020D01*
X67153D01*
X67550Y5185D01*
X67855Y5489D01*
X68020Y5887D01*
Y6318D01*
X67855Y6716D01*
X67550Y7021D01*
X67153Y7185D01*
D02*
G37*
G36*
X71090D02*
X70659D01*
X70261Y7021D01*
X69956Y6716D01*
X69792Y6318D01*
Y5887D01*
X69956Y5489D01*
X70261Y5185D01*
X70659Y5020D01*
X71090D01*
X71487Y5185D01*
X71792Y5489D01*
X71957Y5887D01*
Y6318D01*
X71792Y6716D01*
X71487Y7021D01*
X71090Y7185D01*
D02*
G37*
G36*
X31719D02*
X31289D01*
X30891Y7021D01*
X30586Y6716D01*
X30421Y6318D01*
Y5887D01*
X30586Y5489D01*
X30891Y5185D01*
X31289Y5020D01*
X31719D01*
X32117Y5185D01*
X32422Y5489D01*
X32587Y5887D01*
Y6318D01*
X32422Y6716D01*
X32117Y7021D01*
X31719Y7185D01*
D02*
G37*
%LPD*%
D72*
X57480Y116468D02*
G03*
X57711Y115911I787J0D01*
G01*
X52159Y150148D02*
G03*
X51602Y149917I0J-787D01*
G01*
X59137Y149918D02*
G03*
X58581Y150148I-556J-558D01*
G01*
X62008Y146721D02*
G03*
X61778Y147277I-787J0D01*
G01*
X56693Y91717D02*
G03*
X56914Y91169I787J0D01*
G01*
X50787Y130574D02*
G03*
X50631Y131045I-787J0D01*
G01*
X50000Y132413D02*
G03*
X50314Y131469I1575J0D01*
G01*
X37795Y91665D02*
G03*
X38026Y91108I787J0D01*
G01*
X50000Y133532D02*
G03*
X49769Y134089I-787J-0D01*
G01*
X38025Y93734D02*
G03*
X37795Y93178I558J-556D01*
G01*
X39893Y95276D02*
G03*
X39337Y95046I0J-787D01*
G01*
X47576Y95276D02*
G03*
X48132Y95505I0J787D01*
G01*
X50558Y97931D02*
G03*
X50787Y98487I-558J556D01*
G01*
X36181Y164342D02*
G03*
X36411Y163786I787J0D01*
G01*
X38189Y161682D02*
G03*
X37960Y162237I-787J0D01*
G01*
X38189Y145995D02*
G03*
X38420Y145439I787J0D01*
G01*
X59416Y107448D02*
G03*
X59646Y108003I-558J556D01*
G01*
X59646Y113650D02*
G03*
X59417Y114205I-787J-0D01*
G01*
X58498Y106529D02*
G03*
X58268Y105973I558J-556D01*
G01*
X57710Y127592D02*
G03*
X57480Y127036I558J-556D01*
G01*
X61778Y131660D02*
G03*
X62008Y132216I-558J556D01*
G01*
X59235Y148639D02*
G03*
X58680Y148868I-556J-558D01*
G01*
X56922Y127985D02*
G03*
X56693Y127430I558J-556D01*
G01*
X61221Y146327D02*
G03*
X60991Y146883I-787J0D01*
G01*
X72799Y129170D02*
G03*
X73358Y128937I559J554D01*
G01*
X41271Y94488D02*
G03*
X40715Y94259I0J-787D01*
G01*
X46227Y35007D02*
G03*
X46457Y35562I-558J556D01*
G01*
X35501Y17126D02*
G03*
X36056Y17356I0J787D01*
G01*
X68504Y30026D02*
G03*
X68273Y30583I-787J0D01*
G01*
X61253Y110466D02*
G03*
X61024Y109910I558J-556D01*
G01*
X33858Y131380D02*
G03*
X34042Y130867I787J-8D01*
G01*
X63156Y15781D02*
G03*
X63712Y15551I556J558D01*
G01*
X31496Y29989D02*
G03*
X31265Y30546I-787J0D01*
G01*
X52592Y62041D02*
G03*
X52362Y61485I558J-556D01*
G01*
X68223Y132890D02*
G03*
X68451Y132336I787J0D01*
G01*
X46457Y54792D02*
G03*
X46226Y55349I-787J0D01*
G01*
X42520Y70866D02*
G03*
X42713Y71008I-363J699D01*
G01*
X60991Y132054D02*
G03*
X61221Y132610I-558J556D01*
G01*
X76470Y12762D02*
G03*
X75914Y12992I-557J-557D01*
G01*
X73458Y44324D02*
G03*
X73228Y43768I558J-556D01*
G01*
X22638Y10169D02*
G03*
X22868Y9612I787J0D01*
G01*
X25129Y17913D02*
G03*
X24574Y17684I0J-787D01*
G01*
X41174Y72671D02*
G03*
X40945Y72115I558J-556D01*
G01*
X55545Y43075D02*
G03*
X55315Y42520I558J-556D01*
G01*
X56693Y54657D02*
G03*
X56922Y54102I787J0D01*
G01*
X72605Y125164D02*
G03*
X72835Y125720I-558J556D01*
G01*
X69619Y38714D02*
G03*
X69390Y38158I558J-556D01*
G01*
X47902Y94488D02*
G03*
X48458Y94718I0J787D01*
G01*
X61188Y89534D02*
G03*
X61417Y90090I-558J556D01*
G01*
X61024Y49674D02*
G03*
X60793Y50231I-787J0D01*
G01*
X72278Y139730D02*
G03*
X71721Y139961I-557J-557D01*
G01*
X31429Y47244D02*
G03*
X30873Y47014I0J-787D01*
G01*
X41568Y29167D02*
G03*
X41339Y28611I558J-556D01*
G01*
X63909Y112795D02*
G03*
X63353Y112566I0J-787D01*
G01*
X40321Y22802D02*
G03*
X40551Y23358I-558J556D01*
G01*
X73887Y112795D02*
G03*
X74442Y113025I0J787D01*
G01*
X70866Y131438D02*
G03*
X70866Y131446I-787J4D01*
G01*
X70602Y39370D02*
G03*
X70046Y39140I0J-787D01*
G01*
X69390Y26999D02*
G03*
X69619Y26444I787J-0D01*
G01*
X40781Y29560D02*
G03*
X40551Y29005I558J-556D01*
G01*
X46181Y139972D02*
G03*
X46412Y139415I787J0D01*
G01*
X50787Y134713D02*
G03*
X50557Y135270I-787J-0D01*
G01*
X67452Y102362D02*
G03*
X66896Y102133I0J-787D01*
G01*
X55120Y67713D02*
G03*
X55259Y67524I697J366D01*
G01*
X72835Y127536D02*
G03*
X72610Y128087I-787J0D01*
G01*
X72999Y29692D02*
G03*
X73228Y30247I-558J556D01*
G01*
X22867Y15978D02*
G03*
X22638Y15422I558J-556D01*
G01*
X35107Y17913D02*
G03*
X35663Y18143I0J787D01*
G01*
X40945Y60956D02*
G03*
X41176Y60399I787J0D01*
G01*
X37640Y16736D02*
G03*
X37410Y16180I558J-556D01*
G01*
X50787Y132413D02*
G03*
X51018Y131856I787J0D01*
G01*
X24606Y27492D02*
G03*
X24836Y26936I787J0D01*
G01*
X59646Y19617D02*
G03*
X59875Y19062I787J0D01*
G01*
X29561Y32250D02*
G03*
X29004Y32480I-557J-557D01*
G01*
X55315Y21783D02*
G03*
X55545Y21227I787J0D01*
G01*
X68223Y133452D02*
G03*
X68113Y133854I-787J0D01*
G01*
X70866Y135304D02*
G03*
X70635Y135861I-787J-0D01*
G01*
X68735Y137761D02*
G03*
X68178Y137992I-557J-557D01*
G01*
X57251Y13222D02*
G03*
X57806Y12992I556J558D01*
G01*
X29757Y36253D02*
G03*
X29528Y35697I558J-556D01*
G01*
X33629Y23655D02*
G03*
X34184Y23425I556J558D01*
G01*
X31760Y122047D02*
G03*
X32316Y122277I0J787D01*
G01*
X41109Y22408D02*
G03*
X41339Y22964I-558J556D01*
G01*
X47014Y34613D02*
G03*
X47244Y35169I-558J556D01*
G01*
X70243Y23852D02*
G03*
X70799Y23622I556J558D01*
G01*
X28476Y48622D02*
G03*
X27920Y48392I0J-787D01*
G01*
X25523Y17126D02*
G03*
X24967Y16896I0J-787D01*
G01*
X74539Y117126D02*
G03*
X73983Y116896I0J-787D01*
G01*
X76378Y31370D02*
G03*
X76226Y31835I-787J0D01*
G01*
X50393Y148868D02*
G03*
X50758Y149073I-189J764D01*
G01*
X77756Y132216D02*
G03*
X77989Y131657I787J0D01*
G01*
X60794Y48325D02*
G03*
X61024Y48881I-558J556D01*
G01*
X28904Y117093D02*
G03*
X29134Y117649I-558J556D01*
G01*
X44315Y69464D02*
G03*
X44094Y68917I566J-547D01*
G01*
X68504Y25917D02*
G03*
X68734Y25361I787J-0D01*
G01*
X32120Y137565D02*
G03*
X31563Y137795I-557J-557D01*
G01*
X34251Y27566D02*
G03*
X34252Y27560I784J73D01*
G01*
X31496Y26114D02*
G03*
X31726Y25558I787J0D01*
G01*
X52790Y72210D02*
G03*
X52233Y72441I-557J-557D01*
G01*
X24179Y8302D02*
G03*
X24736Y8071I557J557D01*
G01*
X54527Y44929D02*
G03*
X54300Y45483I-787J0D01*
G01*
X53314Y62762D02*
G03*
X53543Y63318I-558J556D01*
G01*
X56102Y33003D02*
G03*
X56333Y32447I787J0D01*
G01*
X25984Y130047D02*
G03*
X26136Y129582I787J0D01*
G01*
X56693Y65764D02*
G03*
X56462Y66321I-787J0D01*
G01*
X77756Y133926D02*
G03*
X77525Y134483I-787J0D01*
G01*
X29363Y131726D02*
G03*
X29134Y131170I558J-556D01*
G01*
X52362Y47767D02*
G03*
X52591Y47212I787J0D01*
G01*
X33858Y135501D02*
G03*
X33628Y136057I-787J0D01*
G01*
X29528Y33791D02*
G03*
X29761Y33231I787J0D01*
G01*
X58268Y54263D02*
G03*
X58499Y53706I787J0D01*
G01*
X56367Y85039D02*
G03*
X56922Y85269I0J787D01*
G01*
X53543Y71131D02*
G03*
X53313Y71687I-787J-0D01*
G01*
X61581Y47999D02*
G03*
X61811Y48555I-558J556D01*
G01*
X47244Y55579D02*
G03*
X47014Y56136I-787J0D01*
G01*
X32972Y134418D02*
G03*
X32742Y134975I-787J0D01*
G01*
X41109Y50951D02*
G03*
X41339Y51507I-558J556D01*
G01*
X30086Y21686D02*
G03*
X30641Y21457I555J558D01*
G01*
X56332Y42749D02*
G03*
X56102Y42193I558J-556D01*
G01*
X61647Y96883D02*
G03*
X61417Y96327I558J-556D01*
G01*
X44473Y72441D02*
G03*
X43917Y72211I0J-787D01*
G01*
X70866Y131433D02*
G03*
X71100Y130869I787J-4D01*
G01*
X34137Y28610D02*
G03*
X33911Y29081I-783J-86D01*
G01*
X54527Y16271D02*
G03*
X54757Y15715I787J0D01*
G01*
X59646Y28808D02*
G03*
X59415Y29364I-787J-0D01*
G01*
X61811Y50068D02*
G03*
X61580Y50624I-787J0D01*
G01*
X67520Y31495D02*
G03*
X67725Y31131I764J190D01*
G01*
X27823Y44291D02*
G03*
X28379Y44521I0J787D01*
G01*
X25829Y7840D02*
G03*
X25273Y8071I-557J-557D01*
G01*
X32743Y122703D02*
G03*
X32972Y123259I-558J556D01*
G01*
X44094Y59381D02*
G03*
X44326Y58824I787J0D01*
G01*
X38453Y48622D02*
G03*
X39009Y48852I0J787D01*
G01*
X51575Y130971D02*
G03*
X51347Y131525I-787J-0D01*
G01*
X24606Y29201D02*
G03*
X24376Y29758I-787J0D01*
G01*
X51345Y97605D02*
G03*
X51575Y98161I-558J556D01*
G01*
X24187Y16116D02*
G03*
X23957Y15560I558J-556D01*
G01*
X70934Y114173D02*
G03*
X71489Y114403I0J787D01*
G01*
X46181Y139972D02*
Y173228D01*
X36181Y164342D02*
Y173228D01*
X53543Y85039D02*
X56367D01*
X36411Y163786D02*
X37960Y162237D01*
X46295Y137564D02*
X49769Y134089D01*
X38420Y145439D02*
X46295Y137564D01*
X37795Y91665D02*
Y93178D01*
X38026Y91108D02*
X39370Y89764D01*
X38025Y93734D02*
X39337Y95046D01*
X39893Y95276D02*
X47576D01*
X48132Y95505D02*
X50558Y97931D01*
X38189Y145995D02*
Y161682D01*
X50000Y133532D02*
X50000Y132413D01*
X50787Y98487D02*
Y130574D01*
X51018Y131856D02*
X51347Y131525D01*
X62008Y132216D02*
Y146721D01*
X59646Y113650D02*
X59646Y108003D01*
X59137Y149918D02*
X61778Y147277D01*
X59235Y148639D02*
X60991Y146883D01*
X52755Y148868D02*
X58680D01*
X52159Y150148D02*
X58581D01*
X61221Y132610D02*
Y146327D01*
X58498Y106529D02*
X59416Y107448D01*
X58268Y92913D02*
Y105973D01*
X57710Y127592D02*
X61778Y131660D01*
X50758Y149073D02*
X51602Y149917D01*
X57480Y116468D02*
Y127036D01*
X56922Y127985D02*
X60991Y132054D01*
X56914Y91169D02*
X58268Y89764D01*
X56693Y91717D02*
Y127430D01*
X73358Y128937D02*
X78740D01*
X70602Y39370D02*
X71457D01*
X61647Y96883D02*
X66896Y102133D01*
X61417Y90090D02*
Y96327D01*
X67452Y102362D02*
X72047D01*
X73458Y44324D02*
X76378Y47244D01*
X50314Y131469D02*
X50631Y131045D01*
X51575Y130971D02*
X51575Y98161D01*
X41271Y94488D02*
X47902D01*
X46412Y139415D02*
X50557Y135270D01*
X48458Y94718D02*
X51345Y97605D01*
X39370Y92913D02*
X40715Y94259D01*
X34042Y130867D02*
X34843Y129921D01*
X25984Y137795D02*
X31563D01*
X26136Y129582D02*
X26608Y128937D01*
X61811Y48555D02*
Y50068D01*
X55545Y43075D02*
X60794Y48325D01*
X56693Y54657D02*
Y65764D01*
X63712Y15551D02*
X72843D01*
X59875Y19062D02*
X63156Y15781D01*
X55545Y21227D02*
X59842Y16929D01*
X58268Y54263D02*
Y64567D01*
X56332Y42749D02*
X61581Y47999D01*
X52362Y47767D02*
Y61485D01*
X57711Y115911D02*
X59417Y114205D01*
X56922Y85269D02*
X61188Y89534D01*
X65748Y137992D02*
X68178D01*
X70866Y131433D02*
X70866Y131438D01*
X68735Y137761D02*
X70635Y135861D01*
X68110Y139961D02*
X71721D01*
X22638Y10169D02*
Y15422D01*
X40945Y60956D02*
Y72115D01*
X35663Y18143D02*
X40321Y22802D01*
X47244Y35169D02*
Y55579D01*
X44326Y58824D02*
X47014Y56136D01*
X37640Y16736D02*
X41456Y20552D01*
X37410Y6103D02*
Y16180D01*
X25129Y17913D02*
X35107D01*
X22867Y15978D02*
X24574Y17684D01*
X24736Y8071D02*
X25273D01*
X40781Y29560D02*
X46227Y35007D01*
X44315Y69464D02*
X45669Y70866D01*
X41568Y29167D02*
X47014Y34613D01*
X25829Y7840D02*
X27567Y6103D01*
X59646Y28808D02*
X59646Y19617D01*
X56102Y33003D02*
Y42193D01*
X52790Y72210D02*
X53313Y71687D01*
X56333Y32447D02*
X59415Y29364D01*
X58499Y53706D02*
X61580Y50624D01*
X61024Y48881D02*
Y49674D01*
X76470Y12762D02*
X78405Y10827D01*
X42713Y71008D02*
X43917Y72211D01*
X55118Y67716D02*
X55120Y67713D01*
X56922Y54102D02*
X60793Y50231D01*
X55315Y21783D02*
Y42520D01*
X55259Y67524D02*
X56462Y66321D01*
X44473Y72441D02*
X52233D01*
X52592Y62041D02*
X53314Y62762D01*
X52591Y47212D02*
X54300Y45483D01*
X53543Y71131D02*
X53543Y63318D01*
X54527Y16271D02*
Y44929D01*
X57806Y12992D02*
X75914D01*
X54757Y15715D02*
X57251Y13222D01*
X40551Y23358D02*
Y29005D01*
X41176Y60399D02*
X46226Y55349D01*
X46457Y35562D02*
Y54792D01*
X23957Y10827D02*
Y15560D01*
X25523Y17126D02*
X35501D01*
X24187Y16116D02*
X24967Y16896D01*
X44094Y59381D02*
Y68917D01*
X41174Y72671D02*
X42520Y74016D01*
X22868Y9612D02*
X24179Y8302D01*
X36056Y17356D02*
X41109Y22408D01*
X41339Y22964D02*
Y28611D01*
X39009Y48852D02*
X41109Y50951D01*
X41339Y51507D02*
Y53150D01*
X33858Y135501D02*
X33858Y131380D01*
X32120Y137565D02*
X33628Y136057D01*
X50787Y134713D02*
X50787Y132413D01*
X63909Y112795D02*
X73887D01*
X61253Y110466D02*
X63353Y112566D01*
X61024Y108268D02*
Y109910D01*
X29363Y131726D02*
X31693Y134055D01*
X25984Y114173D02*
X28904Y117093D01*
X32316Y122277D02*
X32743Y122703D01*
X31693Y136024D02*
X32742Y134975D01*
X32972Y123259D02*
Y134418D01*
X30906Y122047D02*
X31760D01*
X25984Y130047D02*
Y137795D01*
X29134Y117649D02*
Y131170D01*
X68734Y25361D02*
X70243Y23852D01*
X75754Y32480D02*
X76226Y31835D01*
X76378Y31370D02*
X76378Y23622D01*
X69619Y38714D02*
X70046Y39140D01*
X69619Y26444D02*
X70669Y25394D01*
X69390Y26999D02*
Y38158D01*
X68504Y30026D02*
X68504Y25917D01*
X73228Y30247D02*
Y43768D01*
X70799Y23622D02*
X76378D01*
X67520Y31496D02*
X67520Y31495D01*
X67725Y31131D02*
X68273Y30583D01*
X70669Y27362D02*
X72999Y29692D01*
X71100Y130869D02*
X72799Y129170D01*
X70866Y135304D02*
X70866Y131446D01*
X67520Y114173D02*
X70934D01*
X74539Y117126D02*
X75754D01*
X71489Y114403D02*
X73983Y116896D01*
X74442Y113025D02*
X78740Y117323D01*
X77989Y131657D02*
X78740Y130905D01*
X72278Y139730D02*
X77525Y134483D01*
X77756Y132216D02*
Y133926D01*
X68110Y133858D02*
X68113Y133854D01*
X68451Y132336D02*
X72610Y128087D01*
X71457Y124016D02*
X72605Y125164D01*
X72835Y125720D02*
Y127536D01*
X68223Y132890D02*
Y133452D01*
X29757Y36253D02*
X30906Y37402D01*
X34252Y27560D02*
X34252Y27559D01*
X34137Y28610D02*
X34251Y27566D01*
X31726Y25558D02*
X33629Y23655D01*
X31496Y26114D02*
Y29989D01*
X29561Y32250D02*
X31265Y30545D01*
X29528Y33791D02*
Y35697D01*
X29761Y33231D02*
X33911Y29081D01*
X23622Y30512D02*
X24376Y29758D01*
X30641Y21457D02*
X34252D01*
X24606Y27492D02*
Y29201D01*
X24836Y26936D02*
X30086Y21686D01*
X23622Y32480D02*
X29004D01*
X34184Y23425D02*
X36614D01*
X28476Y48622D02*
X38453D01*
X23622Y44094D02*
X27920Y48392D01*
X28379Y44521D02*
X30873Y47014D01*
X31429Y47244D02*
X34843D01*
X26608Y44291D02*
X27823D01*
D73*
X71883Y151002D02*
G03*
X70494Y151575I-1388J-1396D01*
G01*
X54528Y59055D02*
G03*
X54528Y59050I1965J124D01*
G01*
X22229Y95881D02*
G03*
X20838Y96457I-1391J-1393D01*
G01*
X49606Y113547D02*
G03*
X49032Y114936I-1969J0D01*
G01*
X49033Y101199D02*
G03*
X49606Y102587I-1396J1388D01*
G01*
X15973Y96457D02*
G03*
X14584Y95884I0J-1969D01*
G01*
X46457Y118335D02*
G03*
X47034Y116943I1969J-0D01*
G01*
X7631Y88930D02*
G03*
X7058Y87542I1396J-1388D01*
G01*
X71883Y151002D02*
X74016Y148868D01*
X55118Y151575D02*
X70494D01*
X22229Y95881D02*
X24606Y93504D01*
X7631Y88930D02*
X14584Y95884D01*
X54527Y59055D02*
X54528Y59055D01*
X54528Y59050D02*
X54921Y53347D01*
X46457Y118335D02*
Y134055D01*
X15973Y96457D02*
X20838D01*
X7058Y77756D02*
Y87542D01*
X49606Y102587D02*
Y113547D01*
X47034Y116943D02*
X49032Y114936D01*
X46260Y98425D02*
X49033Y101199D01*
D76*
X93307Y54132D02*
D03*
Y55313D02*
D03*
X94488Y54132D02*
D03*
Y55313D02*
D03*
X95669Y54132D02*
D03*
Y55313D02*
D03*
X96850Y54132D02*
D03*
Y55313D02*
D03*
X98032Y54132D02*
D03*
Y55313D02*
D03*
X62008Y52968D02*
D03*
X63976D02*
D03*
X53543Y85039D02*
D03*
X61316Y62205D02*
D03*
X59842Y54528D02*
D03*
X28740Y94095D02*
D03*
X35827Y100984D02*
D03*
X39370Y86614D02*
D03*
X42913Y5810D02*
D03*
X23622Y152953D02*
D03*
X24803D02*
D03*
X22441D02*
D03*
X78740D02*
D03*
X79921D02*
D03*
X77559D02*
D03*
X78740Y145472D02*
D03*
X79921D02*
D03*
X77559D02*
D03*
X23622D02*
D03*
X24803D02*
D03*
X22441D02*
D03*
X71653Y148868D02*
D03*
X69291D02*
D03*
X74016D02*
D03*
X55118Y151575D02*
D03*
X50393Y148868D02*
D03*
X52755D02*
D03*
X35827D02*
D03*
X28741D02*
D03*
X26378D02*
D03*
X33465D02*
D03*
X31102D02*
D03*
X71063Y10630D02*
D03*
X9056Y141340D02*
D03*
X6694Y142521D02*
D03*
X20472Y94488D02*
D03*
X69190Y90551D02*
D03*
X68009D02*
D03*
X25787Y61102D02*
D03*
X23425D02*
D03*
X24606D02*
D03*
X5414Y101772D02*
D03*
X6595D02*
D03*
X5414Y102953D02*
D03*
X6595D02*
D03*
X36220Y70866D02*
D03*
X34252Y53150D02*
D03*
X83701Y100295D02*
D03*
X81339D02*
D03*
X82520D02*
D03*
X81339Y99114D02*
D03*
X82520D02*
D03*
X83701D02*
D03*
X70236Y71161D02*
D03*
X69055D02*
D03*
X67874D02*
D03*
X70236Y69980D02*
D03*
X69055D02*
D03*
X67874D02*
D03*
X72047Y75197D02*
D03*
Y76378D02*
D03*
Y77559D02*
D03*
X67874Y64862D02*
D03*
X69055D02*
D03*
X70236D02*
D03*
X75754Y44291D02*
D03*
X71457Y39370D02*
D03*
X71457Y37795D02*
D03*
X64370Y23622D02*
D03*
X37992Y137795D02*
D03*
X6693Y55315D02*
D03*
Y54134D02*
D03*
X5512Y55315D02*
D03*
Y54134D02*
D03*
X4331Y55315D02*
D03*
Y54134D02*
D03*
X59646Y102362D02*
D03*
X53543Y99803D02*
D03*
X49242Y119094D02*
D03*
X68898Y105118D02*
D03*
X72047Y102362D02*
D03*
X9055Y87008D02*
D03*
X4724Y79921D02*
D03*
X7058Y77756D02*
D03*
X66828Y90551D02*
D03*
X64668Y92913D02*
D03*
X65748Y22244D02*
D03*
X70669Y27362D02*
D03*
Y25394D02*
D03*
X34254Y139173D02*
D03*
X39370Y64567D02*
D03*
X26969Y10827D02*
D03*
X84449Y58071D02*
D03*
X41339Y137795D02*
D03*
X25984D02*
D03*
X23819Y134843D02*
D03*
X20472Y88583D02*
D03*
Y68504D02*
D03*
X61423Y39370D02*
D03*
X63785D02*
D03*
X62604Y38188D02*
D03*
Y40551D02*
D03*
X60242Y38188D02*
D03*
X61423Y37007D02*
D03*
X63785D02*
D03*
X64966Y38188D02*
D03*
Y40551D02*
D03*
X63785Y41732D02*
D03*
X61423D02*
D03*
X60242Y40551D02*
D03*
X53120Y40354D02*
D03*
Y42323D02*
D03*
X38577Y122048D02*
D03*
X40939D02*
D03*
X39758Y120867D02*
D03*
Y123229D02*
D03*
X37396Y120867D02*
D03*
X38577Y119685D02*
D03*
X40939D02*
D03*
X42121Y120867D02*
D03*
Y123229D02*
D03*
X40939Y124410D02*
D03*
X38577D02*
D03*
X37396Y123229D02*
D03*
X58268Y108268D02*
D03*
X60242Y122834D02*
D03*
X58268Y113386D02*
D03*
X60242Y125196D02*
D03*
X61423Y124015D02*
D03*
X63785D02*
D03*
X62604Y122834D02*
D03*
Y125196D02*
D03*
X61423Y121653D02*
D03*
X63785D02*
D03*
X64966Y122834D02*
D03*
Y125196D02*
D03*
X63785Y126377D02*
D03*
X61423D02*
D03*
X37396Y38583D02*
D03*
X38577Y39764D02*
D03*
X40939D02*
D03*
X42121Y38583D02*
D03*
Y36221D02*
D03*
X40939Y35040D02*
D03*
X38577D02*
D03*
X37396Y36221D02*
D03*
X39758Y38583D02*
D03*
Y36221D02*
D03*
X40939Y37402D02*
D03*
X38577D02*
D03*
X74016Y71655D02*
D03*
X54921Y53347D02*
D03*
X54528Y59055D02*
D03*
X46260Y98425D02*
D03*
X36024Y98622D02*
D03*
X61417Y86614D02*
D03*
X48819Y59055D02*
D03*
X42323Y55118D02*
D03*
X33465Y60039D02*
D03*
X65748Y71457D02*
D03*
X58268Y67716D02*
D03*
Y74016D02*
D03*
X48819Y80315D02*
D03*
X51968D02*
D03*
X20472Y84842D02*
D03*
X43307Y24606D02*
D03*
X24606Y93504D02*
D03*
X44882Y132555D02*
D03*
X49246Y117130D02*
D03*
X27362Y63189D02*
D03*
X20472Y71063D02*
D03*
X44094Y53150D02*
D03*
X58071Y21654D02*
D03*
X46457Y134055D02*
D03*
X53120Y123031D02*
D03*
X49242Y38386D02*
D03*
X50394Y85039D02*
D03*
X20472Y66142D02*
D03*
Y73622D02*
D03*
X28543Y19685D02*
D03*
X44685Y112205D02*
D03*
X55709Y135433D02*
D03*
X65748Y137992D02*
D03*
X68110Y139961D02*
D03*
X77953Y96949D02*
D03*
X28543Y57874D02*
D03*
X27362D02*
D03*
X20472Y80709D02*
D03*
X68218Y57874D02*
D03*
X67037D02*
D03*
X81339Y93996D02*
D03*
X78740Y39173D02*
D03*
X77953Y99311D02*
D03*
X93371Y100330D02*
D03*
X62008Y99803D02*
D03*
Y102362D02*
D03*
X94488Y68898D02*
D03*
X87008Y59449D02*
D03*
Y57087D02*
D03*
Y58268D02*
D03*
X89764Y62402D02*
D03*
Y60039D02*
D03*
Y61221D02*
D03*
X72047Y57087D02*
D03*
Y59449D02*
D03*
Y58268D02*
D03*
X84416Y64567D02*
D03*
X74016Y70474D02*
D03*
X77362Y83268D02*
D03*
Y85630D02*
D03*
Y84449D02*
D03*
X75361Y88189D02*
D03*
X64668Y97638D02*
D03*
X77953Y98130D02*
D03*
X86221Y93701D02*
D03*
X87402Y93701D02*
D03*
X86221Y90158D02*
D03*
Y91339D02*
D03*
Y92520D02*
D03*
Y86614D02*
D03*
Y87795D02*
D03*
Y88976D02*
D03*
X87402Y90158D02*
D03*
Y91339D02*
D03*
Y92520D02*
D03*
Y86614D02*
D03*
Y87795D02*
D03*
Y88976D02*
D03*
X82520Y93996D02*
D03*
X83701D02*
D03*
X88583Y93701D02*
D03*
Y90158D02*
D03*
Y91339D02*
D03*
Y92520D02*
D03*
X89764Y91339D02*
D03*
Y92520D02*
D03*
Y93701D02*
D03*
X90945Y91339D02*
D03*
Y92520D02*
D03*
Y93701D02*
D03*
Y90158D02*
D03*
X89764D02*
D03*
X90945Y88976D02*
D03*
X88583D02*
D03*
X89764D02*
D03*
X90945Y87795D02*
D03*
X88583D02*
D03*
X89764D02*
D03*
X90945Y86614D02*
D03*
X88583D02*
D03*
X89764D02*
D03*
X90945Y85433D02*
D03*
X88583D02*
D03*
X89764D02*
D03*
X87402D02*
D03*
X86221Y85433D02*
D03*
X90945Y84252D02*
D03*
X88583D02*
D03*
X89764D02*
D03*
X87402D02*
D03*
X86221Y84252D02*
D03*
Y83071D02*
D03*
X87402Y83071D02*
D03*
X89764D02*
D03*
X88583D02*
D03*
X90945D02*
D03*
X87402Y108071D02*
D03*
X86221Y110433D02*
D03*
X87402D02*
D03*
Y109252D02*
D03*
X90945Y106890D02*
D03*
X89764Y109252D02*
D03*
X88583Y106890D02*
D03*
X89764D02*
D03*
X88583Y109252D02*
D03*
X89764Y108071D02*
D03*
Y110433D02*
D03*
X86221Y108071D02*
D03*
X87402Y106890D02*
D03*
X90945Y109252D02*
D03*
X88583Y108071D02*
D03*
X86221Y109252D02*
D03*
X88583Y110433D02*
D03*
X86221Y106890D02*
D03*
X90945Y108071D02*
D03*
Y110433D02*
D03*
X41456Y20552D02*
D03*
X39035Y10827D02*
D03*
X23957D02*
D03*
X33473Y15551D02*
D03*
X31504Y6103D02*
D03*
X35441D02*
D03*
X37410D02*
D03*
X25599D02*
D03*
X27567D02*
D03*
X64969D02*
D03*
X70874D02*
D03*
X66937D02*
D03*
X74811D02*
D03*
X72843Y15551D02*
D03*
X78405Y10827D02*
D03*
X76780Y6103D02*
D03*
X37795Y75590D02*
D03*
X45669Y77165D02*
D03*
X42520D02*
D03*
X39370Y80315D02*
D03*
X51968Y67716D02*
D03*
Y64567D02*
D03*
X61024Y23622D02*
D03*
X57284Y28740D02*
D03*
X58268Y64567D02*
D03*
X55118Y80315D02*
D03*
X59842Y16929D02*
D03*
X55118Y67716D02*
D03*
Y70866D02*
D03*
X55709Y46850D02*
D03*
X53120Y44291D02*
D03*
X42520Y70866D02*
D03*
X58268Y80315D02*
D03*
Y77165D02*
D03*
X62461Y11000D02*
D03*
X42520Y74016D02*
D03*
X45669Y70866D02*
D03*
X42717Y27559D02*
D03*
X45669Y67716D02*
D03*
X48819D02*
D03*
X55118Y77165D02*
D03*
Y74016D02*
D03*
Y64567D02*
D03*
X30315D02*
D03*
X36614Y53150D02*
D03*
X39370D02*
D03*
X41339D02*
D03*
X28740Y64567D02*
D03*
X36220Y67716D02*
D03*
X39370D02*
D03*
X42520D02*
D03*
X33071Y74016D02*
D03*
X20472Y90551D02*
D03*
X39370Y70866D02*
D03*
Y77165D02*
D03*
X36220D02*
D03*
Y80315D02*
D03*
X39370Y74016D02*
D03*
X20472Y92716D02*
D03*
X23622Y140551D02*
D03*
Y106299D02*
D03*
Y117126D02*
D03*
Y129921D02*
D03*
X36614Y139173D02*
D03*
X46654Y114567D02*
D03*
X49242Y121063D02*
D03*
X44094Y137795D02*
D03*
X39370Y89764D02*
D03*
Y92913D02*
D03*
X42520D02*
D03*
Y89764D02*
D03*
X48819Y86614D02*
D03*
Y89764D02*
D03*
X53120Y128937D02*
D03*
X55709Y131496D02*
D03*
X59646Y133858D02*
D03*
X63583D02*
D03*
X57677D02*
D03*
X61024Y108268D02*
D03*
X58268Y89764D02*
D03*
Y92913D02*
D03*
X94488Y141339D02*
D03*
X93307D02*
D03*
X95669Y142520D02*
D03*
Y141339D02*
D03*
X96850Y142520D02*
D03*
Y141339D02*
D03*
X98032Y142520D02*
D03*
Y141339D02*
D03*
X4332Y141340D02*
D03*
Y142521D02*
D03*
X5513Y141340D02*
D03*
Y142521D02*
D03*
X6694Y141340D02*
D03*
X7875D02*
D03*
X84842Y21457D02*
D03*
X86024D02*
D03*
X87205D02*
D03*
X88386D02*
D03*
X86024Y19094D02*
D03*
X84842D02*
D03*
X88386Y20276D02*
D03*
X89567D02*
D03*
X90748D02*
D03*
X87205D02*
D03*
X86024D02*
D03*
X84842D02*
D03*
X89567Y21457D02*
D03*
X90748D02*
D03*
X93307Y30510D02*
D03*
Y31691D02*
D03*
X94488Y30510D02*
D03*
Y31691D02*
D03*
X95669Y30510D02*
D03*
Y31691D02*
D03*
X96850Y30510D02*
D03*
Y31691D02*
D03*
X98032Y30510D02*
D03*
Y31691D02*
D03*
Y43502D02*
D03*
Y42321D02*
D03*
X96850Y43502D02*
D03*
Y42321D02*
D03*
X95669Y43502D02*
D03*
Y42321D02*
D03*
X94488Y43502D02*
D03*
Y42321D02*
D03*
X93307Y43502D02*
D03*
Y42321D02*
D03*
X9056Y130906D02*
D03*
Y129725D02*
D03*
X7875Y130906D02*
D03*
Y129725D02*
D03*
X6694Y130906D02*
D03*
Y129725D02*
D03*
X5513Y130906D02*
D03*
Y129725D02*
D03*
X4332Y130906D02*
D03*
Y129725D02*
D03*
Y117914D02*
D03*
Y119095D02*
D03*
X5513Y117914D02*
D03*
Y119095D02*
D03*
X6694Y117914D02*
D03*
Y119095D02*
D03*
X7875Y117914D02*
D03*
Y119095D02*
D03*
X9056Y117914D02*
D03*
Y119095D02*
D03*
X93307Y117913D02*
D03*
Y119095D02*
D03*
X94488Y117913D02*
D03*
Y119095D02*
D03*
X95669Y117913D02*
D03*
Y119095D02*
D03*
X96850Y117913D02*
D03*
Y119095D02*
D03*
X98032Y117913D02*
D03*
Y119095D02*
D03*
Y130905D02*
D03*
Y129724D02*
D03*
X96850Y130905D02*
D03*
Y129724D02*
D03*
X95669Y130905D02*
D03*
Y129724D02*
D03*
X94488Y130905D02*
D03*
Y129724D02*
D03*
X93307Y130905D02*
D03*
Y129724D02*
D03*
X9055Y31693D02*
D03*
Y30512D02*
D03*
X7874Y31693D02*
D03*
Y30512D02*
D03*
X6693Y31693D02*
D03*
Y30512D02*
D03*
X5512Y31693D02*
D03*
Y30512D02*
D03*
X4331Y31693D02*
D03*
Y30512D02*
D03*
Y42323D02*
D03*
Y43504D02*
D03*
X5512Y42323D02*
D03*
Y43504D02*
D03*
X6693Y42323D02*
D03*
Y43504D02*
D03*
X7874Y42323D02*
D03*
Y43504D02*
D03*
X9055Y42323D02*
D03*
Y43504D02*
D03*
X17520Y19094D02*
D03*
X16339D02*
D03*
X15157Y20276D02*
D03*
X16339D02*
D03*
X17520D02*
D03*
X13976D02*
D03*
X12795D02*
D03*
X11614D02*
D03*
X17520Y21457D02*
D03*
X16339D02*
D03*
X15157D02*
D03*
X13976D02*
D03*
X12795D02*
D03*
X11614D02*
D03*
X16142Y54528D02*
D03*
Y53347D02*
D03*
Y52165D02*
D03*
Y50984D02*
D03*
X11417Y54527D02*
D03*
X12598D02*
D03*
X13780D02*
D03*
X14961D02*
D03*
X11417Y53347D02*
D03*
X12598D02*
D03*
X13780D02*
D03*
X14961D02*
D03*
Y52165D02*
D03*
X13780D02*
D03*
X12598D02*
D03*
X11417D02*
D03*
Y50984D02*
D03*
X12598D02*
D03*
X13780D02*
D03*
X14961D02*
D03*
X90945Y131102D02*
D03*
X89764D02*
D03*
X88583D02*
D03*
X87402D02*
D03*
X86221D02*
D03*
X90945Y129921D02*
D03*
X89764D02*
D03*
X88583D02*
D03*
X87402D02*
D03*
X86221D02*
D03*
Y128740D02*
D03*
X87402D02*
D03*
X88583D02*
D03*
X89764D02*
D03*
X90945D02*
D03*
X86221Y127559D02*
D03*
X87402D02*
D03*
X88583D02*
D03*
X89764D02*
D03*
X90945D02*
D03*
Y126378D02*
D03*
X89764D02*
D03*
X88583D02*
D03*
X87402D02*
D03*
X86221D02*
D03*
X16142Y35039D02*
D03*
X14961D02*
D03*
X13780D02*
D03*
X12598D02*
D03*
X11417D02*
D03*
Y33858D02*
D03*
X12598D02*
D03*
X13780D02*
D03*
X14961D02*
D03*
X16142D02*
D03*
X11417Y32677D02*
D03*
X12598D02*
D03*
X13780D02*
D03*
X14961D02*
D03*
X16142D02*
D03*
Y31496D02*
D03*
X14961D02*
D03*
X13780D02*
D03*
X12598D02*
D03*
X11417D02*
D03*
X16142Y30315D02*
D03*
X14961D02*
D03*
X13780D02*
D03*
X12598D02*
D03*
X11417D02*
D03*
X90945Y50984D02*
D03*
X89764D02*
D03*
X88583D02*
D03*
X87402D02*
D03*
X86221D02*
D03*
X90945Y52165D02*
D03*
X89764D02*
D03*
X88583D02*
D03*
X87402D02*
D03*
X86221D02*
D03*
X90945Y53347D02*
D03*
X89764D02*
D03*
X88583D02*
D03*
X87402D02*
D03*
X86221D02*
D03*
X90945Y54528D02*
D03*
X89764D02*
D03*
X88583D02*
D03*
X87402D02*
D03*
X86221D02*
D03*
X90945Y55709D02*
D03*
X89764D02*
D03*
X88583D02*
D03*
X87402D02*
D03*
X86221D02*
D03*
X86221Y30315D02*
D03*
X87402D02*
D03*
X88583D02*
D03*
X89764D02*
D03*
X90945D02*
D03*
X86221Y31496D02*
D03*
X87402D02*
D03*
X88583D02*
D03*
X89764D02*
D03*
X90945D02*
D03*
Y32677D02*
D03*
X89764D02*
D03*
X88583D02*
D03*
X87402D02*
D03*
X86221D02*
D03*
X90945Y33858D02*
D03*
X89764D02*
D03*
X88583D02*
D03*
X87402D02*
D03*
X86221D02*
D03*
X90945Y35039D02*
D03*
X89764D02*
D03*
X88583D02*
D03*
X87402D02*
D03*
X86221D02*
D03*
X16142Y126378D02*
D03*
X14961D02*
D03*
X13780D02*
D03*
X12598D02*
D03*
X11417D02*
D03*
X16142Y105709D02*
D03*
X14961D02*
D03*
X13780D02*
D03*
X12598D02*
D03*
X11417D02*
D03*
X16142Y106890D02*
D03*
X14961D02*
D03*
X13780D02*
D03*
X12598D02*
D03*
X11417D02*
D03*
X16142Y108071D02*
D03*
X14961D02*
D03*
X13780D02*
D03*
X12598D02*
D03*
X11417D02*
D03*
X16142Y109252D02*
D03*
X14961D02*
D03*
X13780D02*
D03*
X12598D02*
D03*
X11417D02*
D03*
X16142Y110433D02*
D03*
X14961D02*
D03*
X13780D02*
D03*
X12598D02*
D03*
X11417D02*
D03*
X16142Y127559D02*
D03*
X14961D02*
D03*
X13780D02*
D03*
X12598D02*
D03*
X11417D02*
D03*
X16142Y128740D02*
D03*
X14961D02*
D03*
X13780D02*
D03*
X12598D02*
D03*
X11417D02*
D03*
Y129921D02*
D03*
X12598D02*
D03*
X13780D02*
D03*
X14961D02*
D03*
X16142D02*
D03*
X11417Y131102D02*
D03*
X12598D02*
D03*
X13780D02*
D03*
X14961D02*
D03*
X16142D02*
D03*
X26608Y123031D02*
D03*
X30059Y108268D02*
D03*
X23819D02*
D03*
Y131890D02*
D03*
Y120079D02*
D03*
X25984Y114173D02*
D03*
X42717Y112205D02*
D03*
X38780D02*
D03*
X23622Y126575D02*
D03*
X26608Y128937D02*
D03*
X23622Y124409D02*
D03*
X34843Y129921D02*
D03*
X30906Y123622D02*
D03*
X30906Y122047D02*
D03*
X31693Y139173D02*
D03*
Y134055D02*
D03*
Y136024D02*
D03*
X23622Y122244D02*
D03*
X78543Y41339D02*
D03*
X78740Y31496D02*
D03*
Y55118D02*
D03*
X68108Y22244D02*
D03*
X70669D02*
D03*
X78740Y20866D02*
D03*
X67520Y31496D02*
D03*
X78740Y37008D02*
D03*
X75754Y32480D02*
D03*
X78740Y34843D02*
D03*
Y44291D02*
D03*
X76378Y23622D02*
D03*
Y47244D02*
D03*
X78543Y53150D02*
D03*
Y29528D02*
D03*
X72303Y53150D02*
D03*
X75754Y38386D02*
D03*
X58268Y23622D02*
D03*
X63583Y49213D02*
D03*
X59646D02*
D03*
X57677D02*
D03*
X75754Y123031D02*
D03*
Y117126D02*
D03*
X76378Y131890D02*
D03*
X67520Y114173D02*
D03*
X71457Y124016D02*
D03*
X68110Y133858D02*
D03*
X71457Y122441D02*
D03*
X72303Y137795D02*
D03*
X53120Y126969D02*
D03*
Y125000D02*
D03*
X78740Y121260D02*
D03*
Y119291D02*
D03*
Y117323D02*
D03*
Y128937D02*
D03*
Y130905D02*
D03*
Y140354D02*
D03*
X62992Y108268D02*
D03*
X78543Y137795D02*
D03*
Y125984D02*
D03*
Y114173D02*
D03*
X65748Y108268D02*
D03*
X68110D02*
D03*
X70079Y110039D02*
D03*
X32283Y51378D02*
D03*
X23819Y47244D02*
D03*
Y35433D02*
D03*
Y23622D02*
D03*
X23622Y21063D02*
D03*
Y30512D02*
D03*
Y32480D02*
D03*
Y44094D02*
D03*
Y42126D02*
D03*
Y40157D02*
D03*
X44094Y48031D02*
D03*
X49242Y36418D02*
D03*
Y34449D02*
D03*
Y32481D02*
D03*
X46654Y29921D02*
D03*
X38780Y27559D02*
D03*
X44685D02*
D03*
X36614Y23425D02*
D03*
X30059Y23622D02*
D03*
X34252Y21457D02*
D03*
X30906Y38976D02*
D03*
X34252Y27559D02*
D03*
X30906Y37402D02*
D03*
X34843Y47244D02*
D03*
X25984Y29528D02*
D03*
X26608Y44291D02*
D03*
Y38386D02*
D03*
D86*
X66181Y173228D02*
D03*
D87*
X56181D02*
D03*
X46181D02*
D03*
X36181D02*
D03*
D89*
X99213Y98425D02*
D03*
Y74803D02*
D03*
D90*
Y86614D02*
D03*
Y62992D02*
D03*
D91*
X3150Y124016D02*
D03*
Y112205D02*
D03*
Y135827D02*
D03*
Y25591D02*
D03*
Y49213D02*
D03*
Y37402D02*
D03*
X99213Y124016D02*
D03*
Y135827D02*
D03*
Y112205D02*
D03*
Y49213D02*
D03*
Y25591D02*
D03*
Y37402D02*
D03*
D92*
X58268Y89764D02*
D03*
M02*
