M48
;Layer_Color=9474304
;FILE_FORMAT=2:5
INCH,TZ
;TYPE=PLATED
T02F00S00C0.03150
T04F00S00C0.04724
%
G90
G05
T02
G00X2362Y25591
M15
G01X3937
M16
G00X2362Y37402
M15
G01X3937
M16
G00X2362Y49213
M15
G01X3937
M16
G00X2362Y112205
M15
G01X3937
M16
G00X2362Y124016
M15
G01X3937
M16
G00X2362Y135827
M15
G01X3937
M16
G00X98425Y135827
M15
G01X100000
M16
G00X98425Y124016
M15
G01X100000
M16
G00X98425Y112205
M15
G01X100000
M16
G00X98425Y49213
M15
G01X100000
M16
G00X98425Y37402
M15
G01X100000
M16
G00X98425Y25591
M15
G01X100000
M16
T04
G00X98819Y62992
M15
G01X99606
M16
G00X98819Y74803
M15
G01X99606
M16
G00X98819Y86614
M15
G01X99606
M16
G00X98819Y98425
M15
G01X99606
M16
M17
M30
