G04*
G04 #@! TF.GenerationSoftware,Altium Limited,Altium Designer,24.8.2 (39)*
G04*
G04 Layer_Physical_Order=5*
G04 Layer_Color=16737945*
%FSLAX25Y25*%
%MOIN*%
G70*
G04*
G04 #@! TF.SameCoordinates,30F909D6-0262-4237-A391-FF9CD089CF35*
G04*
G04*
G04 #@! TF.FilePolarity,Positive*
G04*
G01*
G75*
%ADD72C,0.00394*%
%ADD73C,0.00984*%
%ADD76C,0.00984*%
%ADD85C,0.02756*%
%ADD86R,0.06693X0.06693*%
%ADD87C,0.06693*%
G04:AMPARAMS|DCode=89|XSize=86.61mil|YSize=78.74mil|CornerRadius=19.68mil|HoleSize=0mil|Usage=FLASHONLY|Rotation=0.000|XOffset=0mil|YOffset=0mil|HoleType=Round|Shape=RoundedRectangle|*
%AMROUNDEDRECTD89*
21,1,0.08661,0.03937,0,0,0.0*
21,1,0.04724,0.07874,0,0,0.0*
1,1,0.03937,0.02362,-0.01968*
1,1,0.03937,-0.02362,-0.01968*
1,1,0.03937,-0.02362,0.01968*
1,1,0.03937,0.02362,0.01968*
%
%ADD89ROUNDEDRECTD89*%
%ADD90R,0.08661X0.07874*%
G04:AMPARAMS|DCode=91|XSize=74.8mil|YSize=59.06mil|CornerRadius=14.76mil|HoleSize=0mil|Usage=FLASHONLY|Rotation=0.000|XOffset=0mil|YOffset=0mil|HoleType=Round|Shape=RoundedRectangle|*
%AMROUNDEDRECTD91*
21,1,0.07480,0.02953,0,0,0.0*
21,1,0.04528,0.05906,0,0,0.0*
1,1,0.02953,0.02264,-0.01476*
1,1,0.02953,-0.02264,-0.01476*
1,1,0.02953,-0.02264,0.01476*
1,1,0.02953,0.02264,0.01476*
%
%ADD91ROUNDEDRECTD91*%
%ADD93C,0.01181*%
G36*
X70227Y162205D02*
X70241Y162171D01*
X70392Y161023D01*
X70848Y159921D01*
X71574Y158976D01*
X72520Y158250D01*
X73621Y157794D01*
X74769Y157643D01*
X74803Y157629D01*
X90551D01*
X90624Y157659D01*
X92124Y157511D01*
X93635Y157053D01*
X95029Y156308D01*
X96250Y155305D01*
X97253Y154084D01*
X97997Y152691D01*
X98456Y151179D01*
X98604Y149679D01*
X98573Y149606D01*
Y139210D01*
X96949D01*
X96219Y139065D01*
X95601Y138651D01*
X95187Y138033D01*
X95042Y137303D01*
Y134350D01*
X95187Y133621D01*
X95601Y133002D01*
X96219Y132589D01*
X96949Y132444D01*
X98573D01*
Y127399D01*
X96949D01*
X96219Y127254D01*
X95601Y126840D01*
X95187Y126222D01*
X95042Y125492D01*
Y122539D01*
X95187Y121810D01*
X95601Y121191D01*
X96219Y120778D01*
X96949Y120633D01*
X98573D01*
Y115588D01*
X96949D01*
X96219Y115443D01*
X95601Y115029D01*
X95187Y114411D01*
X95042Y113681D01*
Y110728D01*
X95187Y109999D01*
X95601Y109380D01*
X96219Y108967D01*
X96949Y108822D01*
X98573D01*
Y102802D01*
X96850D01*
X95929Y102619D01*
X95147Y102097D01*
X94625Y101315D01*
X94625Y101314D01*
X94082Y101149D01*
X93984Y101248D01*
X93586Y101412D01*
X93156D01*
X92758Y101248D01*
X92479Y100969D01*
X87382D01*
X86900Y101012D01*
X86900Y101012D01*
Y101012D01*
X86900Y101012D01*
X85919Y101993D01*
X85818Y102035D01*
X85448Y102282D01*
X85011Y102369D01*
X84910Y102411D01*
X77688D01*
X77588Y102369D01*
X77151Y102282D01*
X76783Y102036D01*
X76682Y101995D01*
X76682Y101995D01*
X76681Y101994D01*
X76328Y101641D01*
X75171Y100485D01*
X75068Y100442D01*
X62900D01*
X62621Y100721D01*
X62388Y100818D01*
Y101348D01*
X62621Y101444D01*
X62926Y101749D01*
X63090Y102147D01*
Y102541D01*
X63608Y103059D01*
X63712Y103101D01*
X70640D01*
X70974Y102601D01*
X70965Y102578D01*
Y102147D01*
X71129Y101749D01*
X71434Y101444D01*
X71832Y101279D01*
X72263D01*
X72660Y101444D01*
X72965Y101749D01*
X73130Y102147D01*
Y102578D01*
X73120Y102601D01*
X73454Y103101D01*
X82745D01*
X82845Y103143D01*
X83282Y103230D01*
X83650Y103475D01*
X83752Y103518D01*
X86042Y105807D01*
X86436D01*
X86811Y105963D01*
X87186Y105807D01*
X87617D01*
X87992Y105963D01*
X88367Y105807D01*
X88798D01*
X89173Y105963D01*
X89548Y105807D01*
X89979D01*
X90354Y105963D01*
X90729Y105807D01*
X91160D01*
X91558Y105972D01*
X91863Y106277D01*
X92028Y106674D01*
Y107105D01*
X91872Y107480D01*
X92028Y107855D01*
Y108286D01*
X91872Y108661D01*
X92028Y109037D01*
Y109467D01*
X91872Y109843D01*
X92028Y110218D01*
Y110648D01*
X91863Y111046D01*
X91558Y111351D01*
X91160Y111516D01*
X90729D01*
X90354Y111360D01*
X89979Y111516D01*
X89548D01*
X89173Y111360D01*
X88798Y111516D01*
X88367D01*
X87992Y111360D01*
X87617Y111516D01*
X87186D01*
X86811Y111360D01*
X86436Y111516D01*
X86005D01*
X85607Y111351D01*
X85303Y111046D01*
X85138Y110648D01*
Y110218D01*
X85293Y109843D01*
X85138Y109467D01*
Y109037D01*
X85293Y108661D01*
X85138Y108286D01*
Y107855D01*
X85293Y107480D01*
X85138Y107105D01*
Y106711D01*
X82848Y104422D01*
X82745Y104379D01*
X63712D01*
X63611Y104338D01*
X63174Y104251D01*
X62806Y104005D01*
X62705Y103963D01*
X62705Y103963D01*
X62704Y103963D01*
X62186Y103445D01*
X61792D01*
X61394Y103280D01*
X61090Y102975D01*
X60563D01*
X60259Y103280D01*
X59861Y103445D01*
X59430D01*
X59032Y103280D01*
X58728Y102975D01*
X58563Y102578D01*
Y102147D01*
X58728Y101749D01*
X59032Y101444D01*
X59430Y101279D01*
X59861D01*
X60259Y101444D01*
X60563Y101749D01*
X61090D01*
X61394Y101444D01*
X61628Y101348D01*
Y100818D01*
X61394Y100721D01*
X61090Y100417D01*
X60925Y100019D01*
Y99588D01*
X61090Y99190D01*
X61394Y98885D01*
X61792Y98721D01*
X62223D01*
X62621Y98885D01*
X62900Y99164D01*
X64217D01*
X64316Y98664D01*
X64055Y98556D01*
X63750Y98251D01*
X63585Y97853D01*
Y97422D01*
X63750Y97025D01*
X64055Y96720D01*
X64453Y96555D01*
X64883D01*
X65281Y96720D01*
X65586Y97025D01*
X65751Y97422D01*
Y97853D01*
X65586Y98251D01*
X65281Y98556D01*
X65020Y98664D01*
X65119Y99164D01*
X75068D01*
X75168Y99206D01*
X75605Y99293D01*
X75973Y99538D01*
X76075Y99581D01*
X76547Y100052D01*
X76971Y99769D01*
X76870Y99526D01*
Y99096D01*
X77026Y98721D01*
X76870Y98345D01*
Y97915D01*
X77026Y97539D01*
X76870Y97164D01*
Y96733D01*
X77035Y96336D01*
X77340Y96031D01*
X77737Y95866D01*
X78168D01*
X78566Y96031D01*
X78871Y96336D01*
X79035Y96733D01*
Y97164D01*
X78880Y97539D01*
X79035Y97915D01*
Y98345D01*
X78880Y98721D01*
X79035Y99096D01*
Y99526D01*
X78871Y99924D01*
X78566Y100229D01*
X78168Y100394D01*
X77737D01*
X77495Y100293D01*
X77212Y100717D01*
X77584Y101090D01*
X77688Y101132D01*
X84910D01*
X84923Y101138D01*
X85009Y101102D01*
X85015Y101089D01*
X85996Y100108D01*
X86096Y100066D01*
X86467Y99819D01*
X86904Y99732D01*
X87004Y99690D01*
X92479D01*
X92758Y99412D01*
X93156Y99247D01*
X93586D01*
X93942Y99394D01*
X94157Y99317D01*
X94442Y99162D01*
Y96457D01*
X94625Y95535D01*
X95147Y94754D01*
X95929Y94231D01*
X96850Y94048D01*
X98573D01*
Y79180D01*
X96850D01*
X95929Y78997D01*
X95147Y78475D01*
X94625Y77693D01*
X94442Y76772D01*
Y76413D01*
X83681D01*
X83631Y76403D01*
X82718Y76523D01*
X81820Y76895D01*
X81049Y77486D01*
X80458Y78257D01*
X80095Y79132D01*
X80092Y79198D01*
X79285Y82348D01*
X79269Y82381D01*
X79159Y83218D01*
X79168Y83268D01*
Y84842D01*
X79031Y85534D01*
X78639Y86120D01*
X78053Y86511D01*
X78001Y86522D01*
X77975Y86548D01*
X77578Y86713D01*
X77147D01*
X76749Y86548D01*
X76723Y86522D01*
X76671Y86511D01*
X76085Y86120D01*
X75693Y85534D01*
X75556Y84842D01*
Y83268D01*
X75555D01*
X75696Y81840D01*
X75779Y81568D01*
X75785Y81451D01*
X76592Y78301D01*
X76671Y78137D01*
X76920Y77317D01*
X77596Y76052D01*
X78506Y74943D01*
X79615Y74033D01*
X80880Y73356D01*
X82253Y72940D01*
X83681Y72799D01*
Y72800D01*
X94449D01*
X94625Y71913D01*
X95147Y71132D01*
X95929Y70609D01*
X96850Y70426D01*
X98573D01*
Y52596D01*
X96949D01*
X96219Y52451D01*
X95601Y52037D01*
X95187Y51419D01*
X95042Y50689D01*
Y47736D01*
X95187Y47007D01*
X95601Y46388D01*
X96219Y45975D01*
X96949Y45829D01*
X98573D01*
Y40785D01*
X96949D01*
X96219Y40639D01*
X95601Y40226D01*
X95187Y39608D01*
X95042Y38878D01*
Y35925D01*
X95187Y35195D01*
X95601Y34577D01*
X96219Y34164D01*
X96949Y34018D01*
X98573D01*
Y28974D01*
X96949D01*
X96219Y28828D01*
X95601Y28415D01*
X95187Y27797D01*
X95042Y27067D01*
Y24114D01*
X95187Y23384D01*
X95601Y22766D01*
X96219Y22353D01*
X96949Y22208D01*
X98573D01*
Y11811D01*
X98604Y11738D01*
X98456Y10239D01*
X97997Y8727D01*
X97253Y7333D01*
X96250Y6112D01*
X95029Y5110D01*
X93635Y4365D01*
X92124Y3906D01*
X90624Y3759D01*
X90551Y3789D01*
X11811D01*
X11738Y3759D01*
X10239Y3906D01*
X8727Y4365D01*
X7333Y5110D01*
X6112Y6112D01*
X5110Y7333D01*
X4365Y8727D01*
X3906Y10239D01*
X3759Y11738D01*
X3789Y11811D01*
Y22208D01*
X5413D01*
X6143Y22353D01*
X6762Y22766D01*
X7175Y23384D01*
X7320Y24114D01*
Y27067D01*
X7175Y27797D01*
X6762Y28415D01*
X6143Y28828D01*
X5413Y28974D01*
X3789D01*
Y34018D01*
X5413D01*
X6143Y34164D01*
X6762Y34577D01*
X7175Y35195D01*
X7320Y35925D01*
Y38878D01*
X7175Y39608D01*
X6762Y40226D01*
X6143Y40639D01*
X5413Y40785D01*
X3789D01*
Y45829D01*
X5413D01*
X6143Y45975D01*
X6762Y46388D01*
X7175Y47007D01*
X7320Y47736D01*
Y50689D01*
X7175Y51419D01*
X6762Y52037D01*
X6143Y52451D01*
X5413Y52596D01*
X3789D01*
Y108822D01*
X5413D01*
X6143Y108967D01*
X6762Y109380D01*
X7175Y109999D01*
X7320Y110728D01*
Y113681D01*
X7175Y114411D01*
X6762Y115029D01*
X6143Y115443D01*
X5413Y115588D01*
X3789D01*
Y120633D01*
X5413D01*
X6143Y120778D01*
X6762Y121191D01*
X7175Y121810D01*
X7320Y122539D01*
Y125492D01*
X7175Y126222D01*
X6762Y126840D01*
X6143Y127254D01*
X5413Y127399D01*
X3789D01*
Y132444D01*
X5413D01*
X6143Y132589D01*
X6762Y133002D01*
X7175Y133621D01*
X7320Y134350D01*
Y137303D01*
X7175Y138033D01*
X6762Y138651D01*
X6143Y139065D01*
X5413Y139210D01*
X3789D01*
Y149606D01*
X3759Y149679D01*
X3906Y151179D01*
X4365Y152691D01*
X5110Y154084D01*
X6112Y155305D01*
X7333Y156308D01*
X8727Y157053D01*
X10239Y157511D01*
X11738Y157659D01*
X11811Y157629D01*
X27559D01*
X27593Y157643D01*
X28741Y157794D01*
X29842Y158250D01*
X30788Y158976D01*
X31514Y159921D01*
X31970Y161023D01*
X32121Y162171D01*
X32135Y162205D01*
Y171945D01*
X32635Y172011D01*
X32696Y171785D01*
X33188Y170932D01*
X33885Y170236D01*
X34738Y169743D01*
X35689Y169488D01*
X36674D01*
X37625Y169743D01*
X38478Y170236D01*
X39174Y170932D01*
X39666Y171785D01*
X39921Y172736D01*
Y173721D01*
X39666Y174672D01*
X39174Y175525D01*
X38478Y176221D01*
X37625Y176714D01*
X37252Y176814D01*
X37318Y177314D01*
X45045D01*
X45110Y176814D01*
X44737Y176714D01*
X43885Y176221D01*
X43188Y175525D01*
X42696Y174672D01*
X42441Y173721D01*
Y172736D01*
X42696Y171785D01*
X43188Y170932D01*
X43885Y170236D01*
X44737Y169743D01*
X45689Y169488D01*
X46674D01*
X47625Y169743D01*
X48478Y170236D01*
X49174Y170932D01*
X49666Y171785D01*
X49921Y172736D01*
Y173721D01*
X49666Y174672D01*
X49174Y175525D01*
X48478Y176221D01*
X47625Y176714D01*
X47252Y176814D01*
X47318Y177314D01*
X55045D01*
X55110Y176814D01*
X54738Y176714D01*
X53885Y176221D01*
X53188Y175525D01*
X52696Y174672D01*
X52441Y173721D01*
Y172736D01*
X52696Y171785D01*
X53188Y170932D01*
X53885Y170236D01*
X54738Y169743D01*
X55689Y169488D01*
X56674D01*
X57625Y169743D01*
X58478Y170236D01*
X59174Y170932D01*
X59666Y171785D01*
X59921Y172736D01*
Y173721D01*
X59666Y174672D01*
X59174Y175525D01*
X58478Y176221D01*
X57625Y176714D01*
X57252Y176814D01*
X57318Y177314D01*
X70227D01*
Y162205D01*
D02*
G37*
%LPC*%
G36*
X38650Y152411D02*
X29607D01*
X29507Y152369D01*
X29070Y152282D01*
X28702Y152036D01*
X28601Y151995D01*
X28601Y151995D01*
X28600Y151994D01*
X28247Y151641D01*
X26557Y149951D01*
X26163D01*
X25765Y149786D01*
X25460Y149482D01*
X25295Y149084D01*
Y148653D01*
X25460Y148255D01*
X25765Y147950D01*
X26163Y147786D01*
X26593D01*
X26991Y147950D01*
X27296Y148255D01*
X27823D01*
X28128Y147950D01*
X28526Y147786D01*
X28956D01*
X29354Y147950D01*
X29659Y148255D01*
X30078D01*
X30463Y147870D01*
Y146389D01*
X30468Y146376D01*
X30433Y146290D01*
X30420Y146285D01*
X25145Y141010D01*
X24555Y141127D01*
X24540Y141165D01*
X24235Y141469D01*
X23837Y141634D01*
X23407D01*
X23009Y141469D01*
X22704Y141165D01*
X22539Y140767D01*
Y140336D01*
X22704Y139938D01*
X23009Y139633D01*
X23046Y139618D01*
X23164Y139028D01*
X21234Y137099D01*
X21192Y136997D01*
X20946Y136629D01*
X20859Y136192D01*
X20818Y136091D01*
Y105838D01*
X20859Y105737D01*
X20946Y105300D01*
X21189Y104938D01*
X21232Y104832D01*
X23532Y102532D01*
X23637Y102489D01*
X24001Y102245D01*
X24438Y102158D01*
X24539Y102117D01*
X30382Y102117D01*
X30487Y102073D01*
X30813Y101747D01*
X30826Y101742D01*
X30862Y101655D01*
X30857Y101642D01*
X30857Y72767D01*
X30898Y72667D01*
X30985Y72229D01*
X31228Y71867D01*
X31271Y71762D01*
X32035Y70998D01*
X32388Y70645D01*
X32388Y70645D01*
X32388Y70645D01*
X32489Y70603D01*
X32859Y70355D01*
X33296Y70269D01*
X33397Y70227D01*
X35329D01*
X35607Y69948D01*
X36005Y69784D01*
X36436D01*
X36834Y69948D01*
X37138Y70253D01*
X37303Y70651D01*
Y71082D01*
X37138Y71479D01*
X36834Y71784D01*
X36436Y71949D01*
X36005D01*
X35607Y71784D01*
X35329Y71505D01*
X33397D01*
X33384Y71500D01*
X33298Y71536D01*
X33292Y71549D01*
X32466Y72375D01*
X32492Y72542D01*
X32855Y72933D01*
X33286D01*
X33684Y73098D01*
X33989Y73403D01*
X34154Y73800D01*
Y74217D01*
X34886Y74975D01*
X34931Y75090D01*
X35156Y75427D01*
X35243Y75864D01*
X35255Y75893D01*
X35337Y75975D01*
X35380Y76004D01*
X35785Y76174D01*
X36005Y76083D01*
X36286D01*
X36545Y75915D01*
X36713Y75656D01*
Y75375D01*
X36877Y74977D01*
X37182Y74673D01*
X37580Y74508D01*
X37861D01*
X38120Y74340D01*
X38287Y74081D01*
Y73800D01*
X38452Y73403D01*
X38757Y73098D01*
X39155Y72933D01*
X39585D01*
X39983Y73098D01*
X40288Y73403D01*
X40453Y73800D01*
Y74231D01*
X40288Y74629D01*
X39983Y74934D01*
X39585Y75098D01*
X39305D01*
X39046Y75266D01*
X38878Y75525D01*
Y75656D01*
X39046Y75915D01*
X39305Y76083D01*
X39585D01*
X39983Y76248D01*
X40288Y76552D01*
X40453Y76950D01*
Y77381D01*
X40288Y77779D01*
X39983Y78083D01*
X39585Y78248D01*
X39155D01*
X38757Y78083D01*
X38452Y77779D01*
X38287Y77381D01*
Y77100D01*
X38120Y76841D01*
X37861Y76673D01*
X37730D01*
X37471Y76841D01*
X37303Y77100D01*
Y77381D01*
X37138Y77779D01*
X36834Y78083D01*
X36436Y78248D01*
X36005D01*
X35785Y78157D01*
X35342Y78385D01*
X35285Y78450D01*
Y79031D01*
X35342Y79096D01*
X35785Y79324D01*
X36005Y79232D01*
X36436D01*
X36834Y79397D01*
X37138Y79702D01*
X37303Y80100D01*
Y80530D01*
X37138Y80928D01*
X36834Y81233D01*
X36436Y81398D01*
X36005D01*
X35785Y81306D01*
X35342Y81534D01*
X35285Y81599D01*
X35285Y97215D01*
X35785Y97549D01*
X35808Y97539D01*
X36239D01*
X36637Y97704D01*
X36941Y98009D01*
X37106Y98407D01*
Y98837D01*
X36941Y99235D01*
X36637Y99540D01*
X36556Y99573D01*
X36507Y99782D01*
X36508Y100135D01*
X36745Y100371D01*
X36909Y100769D01*
Y101200D01*
X36745Y101597D01*
X36440Y101902D01*
X36042Y102067D01*
X35611D01*
X35214Y101902D01*
X34909Y101597D01*
X34836Y101421D01*
X34282Y101267D01*
X31785Y103765D01*
X31684Y103806D01*
X31314Y104054D01*
X30877Y104141D01*
X30776Y104183D01*
Y104183D01*
X30776Y104183D01*
X30776Y104183D01*
X30293Y104183D01*
X24895Y104183D01*
X24792Y104224D01*
X24193Y104823D01*
X24230Y105309D01*
X24288Y105434D01*
X24540Y105686D01*
X24705Y106084D01*
Y106515D01*
X24561Y106862D01*
X24432Y107350D01*
X24737Y107654D01*
X24902Y108052D01*
Y108483D01*
X24737Y108881D01*
X24432Y109186D01*
X24034Y109350D01*
X23604D01*
X23482Y109300D01*
X22982Y109615D01*
Y115678D01*
X23407Y116043D01*
X23837D01*
X24235Y116208D01*
X24514Y116487D01*
X29005D01*
X29105Y116528D01*
X29542Y116615D01*
X29910Y116861D01*
X30012Y116903D01*
X41208Y128100D01*
X41561Y128452D01*
X41561Y128453D01*
X41561Y128453D01*
X41603Y128554D01*
X41849Y128922D01*
X41936Y129359D01*
X41978Y129460D01*
Y136903D01*
X42256Y137182D01*
X42421Y137580D01*
Y138011D01*
X42256Y138409D01*
X41952Y138713D01*
X41554Y138878D01*
X41123D01*
X40725Y138713D01*
X40421Y138409D01*
X40256Y138011D01*
Y137580D01*
X40421Y137182D01*
X40699Y136903D01*
Y129460D01*
X40705Y129447D01*
X40669Y129361D01*
X40657Y129356D01*
X39093Y127793D01*
X38631Y127984D01*
Y136903D01*
X38910Y137182D01*
X39075Y137580D01*
Y138011D01*
X38910Y138409D01*
X38605Y138713D01*
X38208Y138878D01*
X38159D01*
X37765Y138946D01*
X37697Y139340D01*
Y139389D01*
X37532Y139787D01*
X37227Y140091D01*
X36830Y140256D01*
X36399D01*
X36001Y140091D01*
X35696Y139787D01*
X35172D01*
X34868Y140091D01*
X34470Y140256D01*
X34039D01*
X33641Y140091D01*
X33336Y139787D01*
X33237Y139548D01*
X32710D01*
X32611Y139787D01*
X32306Y140091D01*
X31908Y140256D01*
X31478D01*
X31080Y140091D01*
X31057Y140096D01*
X30894Y140640D01*
X35893Y145639D01*
X35896Y145639D01*
X35899Y145636D01*
X36352Y146227D01*
X36639Y146921D01*
X36737Y147666D01*
X36730D01*
Y148240D01*
X36745Y148255D01*
X36910Y148653D01*
Y149084D01*
X36745Y149482D01*
X36440Y149786D01*
X36298Y149845D01*
X36397Y150345D01*
X38256D01*
X38360Y150303D01*
X49023Y139640D01*
X49035Y139635D01*
X49071Y139549D01*
X49066Y139536D01*
Y137432D01*
X49107Y137332D01*
X49194Y136895D01*
X49447Y136517D01*
X49487Y136420D01*
X50107Y135800D01*
X50118Y135795D01*
X50154Y135710D01*
X50148Y135697D01*
Y122342D01*
X49648Y122067D01*
X49458Y122146D01*
X49027D01*
X48629Y121981D01*
X48324Y121677D01*
X48160Y121279D01*
Y120848D01*
X48324Y120450D01*
X48369Y120405D01*
X48585Y120079D01*
X48369Y119752D01*
X48324Y119708D01*
X48160Y119310D01*
Y118879D01*
X48324Y118481D01*
X48368Y118437D01*
X48588Y118114D01*
X48368Y117784D01*
X48328Y117744D01*
X48164Y117346D01*
Y116915D01*
X48328Y116517D01*
X48633Y116212D01*
X49031Y116048D01*
X49462D01*
X49648Y116125D01*
X50148Y115848D01*
Y98487D01*
X50154Y98474D01*
X50118Y98388D01*
X50106Y98383D01*
X46892Y95170D01*
X46789Y95127D01*
X42255D01*
X42155Y95086D01*
X41718Y94999D01*
X41349Y94753D01*
X41249Y94711D01*
X41249Y94711D01*
X41247Y94711D01*
X40723Y94186D01*
X40680Y94084D01*
X40583Y93938D01*
X39997Y93831D01*
X39962Y93840D01*
X39585Y93996D01*
X39155D01*
X38757Y93831D01*
X38452Y93527D01*
X38287Y93129D01*
Y92698D01*
X38452Y92300D01*
X38757Y91996D01*
X39155Y91831D01*
X39585D01*
X39806Y91922D01*
X40276Y91680D01*
X40318Y91634D01*
X40347Y91564D01*
X40434Y91127D01*
X40680Y90759D01*
X40723Y90657D01*
X41437Y89942D01*
Y89548D01*
X41602Y89151D01*
X41906Y88846D01*
X42304Y88681D01*
X42735D01*
X43133Y88846D01*
X43437Y89151D01*
X43602Y89548D01*
Y89979D01*
X43437Y90377D01*
X43133Y90682D01*
X42735Y90847D01*
X42341D01*
X41915Y91273D01*
X41941Y91440D01*
X42304Y91831D01*
X42735D01*
X43133Y91996D01*
X43412Y92274D01*
X46327D01*
X46428Y92316D01*
X46865Y92403D01*
X47233Y92649D01*
X47335Y92691D01*
X51445Y96800D01*
X51797Y97153D01*
X51798Y97154D01*
X51798Y97154D01*
X51839Y97255D01*
X52085Y97623D01*
X52172Y98060D01*
X52214Y98161D01*
Y98948D01*
X52297Y98997D01*
X52714Y99101D01*
X52930Y98885D01*
X53328Y98721D01*
X53759D01*
X54157Y98885D01*
X54461Y99190D01*
X54626Y99588D01*
Y100019D01*
X54461Y100416D01*
X54157Y100721D01*
X53759Y100886D01*
X53328D01*
X52930Y100721D01*
X52714Y100505D01*
X52297Y100609D01*
X52214Y100658D01*
X52214Y121753D01*
X52714Y122028D01*
X52904Y121949D01*
X53335D01*
X53733Y122114D01*
X54037Y122418D01*
X54202Y122816D01*
Y123247D01*
X54037Y123645D01*
X53993Y123689D01*
X53777Y124016D01*
X53993Y124342D01*
X54038Y124387D01*
X54203Y124784D01*
Y125215D01*
X54038Y125613D01*
X53993Y125658D01*
X53777Y125984D01*
X53993Y126311D01*
X54038Y126356D01*
X54203Y126753D01*
Y127184D01*
X54038Y127582D01*
X53994Y127626D01*
X53777Y127953D01*
X53994Y128279D01*
X54038Y128323D01*
X54203Y128721D01*
Y129152D01*
X54038Y129550D01*
X53733Y129855D01*
X53335Y130019D01*
X52905D01*
X52714Y129940D01*
X52214Y130215D01*
Y135564D01*
X52214Y136053D01*
X52214Y136053D01*
X52214Y136053D01*
X52214D01*
X52172Y136154D01*
X52085Y136591D01*
X51841Y136957D01*
X51798Y137060D01*
X51798Y137060D01*
X51178Y137680D01*
X51178Y137680D01*
X51178D01*
X51174Y137691D01*
X51131Y138165D01*
Y139930D01*
X51090Y140030D01*
X51003Y140467D01*
X50757Y140836D01*
X50715Y140936D01*
X50715Y140936D01*
X50714Y140937D01*
X50714Y140938D01*
X50370Y141282D01*
X40011Y151641D01*
X39658Y151994D01*
Y151994D01*
X39657Y151995D01*
X39657D01*
X39657Y151995D01*
X39556Y152036D01*
X39188Y152282D01*
X38751Y152369D01*
X38650Y152411D01*
D02*
G37*
G36*
X55334Y152657D02*
X54903D01*
X54505Y152493D01*
X54200Y152188D01*
X54035Y151790D01*
Y151359D01*
X54200Y150961D01*
X54505Y150657D01*
X54903Y150492D01*
X55334D01*
X55731Y150657D01*
X56036Y150961D01*
X56201Y151359D01*
Y151790D01*
X56036Y152188D01*
X55731Y152493D01*
X55334Y152657D01*
D02*
G37*
G36*
X74231Y149951D02*
X73801D01*
X73403Y149786D01*
X73098Y149482D01*
X72571D01*
X72266Y149786D01*
X71868Y149951D01*
X71438D01*
X71040Y149786D01*
X70735Y149482D01*
X70209D01*
X69904Y149786D01*
X69507Y149951D01*
X69076D01*
X68678Y149786D01*
X68373Y149482D01*
X68208Y149084D01*
Y148653D01*
X68373Y148255D01*
X68678Y147950D01*
X69076Y147786D01*
X69507D01*
X69904Y147950D01*
X70209Y148255D01*
X70735D01*
X71040Y147950D01*
X71438Y147786D01*
X71868D01*
X72266Y147950D01*
X72571Y148255D01*
X73098D01*
X73403Y147950D01*
X73801Y147786D01*
X74231D01*
X74629Y147950D01*
X74934Y148255D01*
X75099Y148653D01*
Y149084D01*
X74934Y149482D01*
X74629Y149786D01*
X74231Y149951D01*
D02*
G37*
G36*
X52971D02*
X52540D01*
X52142Y149786D01*
X51838Y149482D01*
X51311D01*
X51007Y149786D01*
X50609Y149951D01*
X50178D01*
X49780Y149786D01*
X49476Y149482D01*
X49311Y149084D01*
Y148653D01*
X49476Y148255D01*
X49780Y147950D01*
X50178Y147786D01*
X50609D01*
X51007Y147950D01*
X51311Y148255D01*
X51838D01*
X52142Y147950D01*
X52540Y147786D01*
X52971D01*
X53369Y147950D01*
X53673Y148255D01*
X53838Y148653D01*
Y149084D01*
X53673Y149482D01*
X53369Y149786D01*
X52971Y149951D01*
D02*
G37*
G36*
X25019Y146555D02*
X24588D01*
X24213Y146400D01*
X23837Y146555D01*
X23407D01*
X23031Y146400D01*
X22656Y146555D01*
X22226D01*
X21828Y146390D01*
X21523Y146086D01*
X21358Y145688D01*
Y145257D01*
X21523Y144859D01*
X21828Y144555D01*
X22226Y144390D01*
X22656D01*
X23031Y144545D01*
X23407Y144390D01*
X23837D01*
X24213Y144545D01*
X24588Y144390D01*
X25019D01*
X25416Y144555D01*
X25721Y144859D01*
X25886Y145257D01*
Y145688D01*
X25721Y146086D01*
X25416Y146390D01*
X25019Y146555D01*
D02*
G37*
G36*
X80137D02*
X79706D01*
X79331Y146400D01*
X78956Y146555D01*
X78525D01*
X78150Y146400D01*
X77774Y146555D01*
X77344D01*
X76946Y146390D01*
X76641Y146086D01*
X76476Y145688D01*
Y145257D01*
X76641Y144859D01*
X76946Y144555D01*
X77344Y144390D01*
X77774D01*
X78150Y144545D01*
X78525Y144390D01*
X78956D01*
X79331Y144545D01*
X79706Y144390D01*
X80137D01*
X80534Y144555D01*
X80839Y144859D01*
X81004Y145257D01*
Y145688D01*
X80839Y146086D01*
X80534Y146390D01*
X80137Y146555D01*
D02*
G37*
G36*
X78956Y141437D02*
X78525D01*
X78127Y141272D01*
X77848Y140993D01*
X75523D01*
X75422Y140952D01*
X74985Y140865D01*
X74617Y140619D01*
X74516Y140577D01*
X74516Y140577D01*
X74515Y140577D01*
X74163Y140224D01*
X73793Y139855D01*
X73751Y139753D01*
X73505Y139385D01*
X73418Y138948D01*
X73410Y138927D01*
X73047Y138770D01*
X72877Y138730D01*
X72518Y138878D01*
X72088D01*
X71690Y138713D01*
X71411Y138435D01*
X69421D01*
X69320Y138393D01*
X68883Y138306D01*
X68515Y138060D01*
X68414Y138018D01*
X68414Y138018D01*
X68413Y138018D01*
X68060Y137665D01*
X67100Y136705D01*
X67010Y136668D01*
X66702Y136767D01*
X66574Y137287D01*
X66666Y137379D01*
X66831Y137777D01*
Y138207D01*
X66666Y138605D01*
X66361Y138910D01*
X65963Y139075D01*
X65533D01*
X65135Y138910D01*
X64830Y138605D01*
X64665Y138207D01*
Y137777D01*
X64830Y137379D01*
X65135Y137074D01*
X65210Y137043D01*
X65304Y136515D01*
X65067Y136247D01*
X65066Y136246D01*
X64714Y135893D01*
X63761Y134941D01*
X63367D01*
X62969Y134776D01*
X62665Y134471D01*
X62500Y134074D01*
Y133643D01*
X62665Y133245D01*
X62969Y132940D01*
X63367Y132776D01*
X63798D01*
X64196Y132940D01*
X64500Y133245D01*
X64665Y133643D01*
Y134037D01*
X65970Y135342D01*
X66074Y135384D01*
X66997D01*
X67097Y135426D01*
X67534Y135513D01*
X67902Y135759D01*
X68004Y135801D01*
X69317Y137114D01*
X69421Y137156D01*
X71411D01*
X71690Y136877D01*
X72088Y136713D01*
X72518D01*
X72877Y136861D01*
X73083Y136788D01*
X73377Y136630D01*
Y128869D01*
X73382Y128857D01*
X73346Y128771D01*
X73334Y128766D01*
X65526Y120957D01*
X65483Y120855D01*
X65237Y120487D01*
X65150Y120050D01*
X65109Y119949D01*
Y109160D01*
X64830Y108881D01*
X64733Y108646D01*
X64288Y108423D01*
X64165Y108404D01*
X64075Y108458D01*
Y108483D01*
X63910Y108881D01*
X63605Y109186D01*
X63208Y109350D01*
X62777D01*
X62379Y109186D01*
X62335Y109141D01*
X62008Y108925D01*
X61681Y109141D01*
X61637Y109186D01*
X61239Y109350D01*
X60808D01*
X60410Y109186D01*
X60106Y108881D01*
X59941Y108483D01*
Y108052D01*
X60106Y107654D01*
X60410Y107350D01*
X60808Y107185D01*
X61239D01*
X61637Y107350D01*
X61681Y107394D01*
X62008Y107610D01*
X62335Y107394D01*
X62379Y107350D01*
X62777Y107185D01*
X63171D01*
X63688Y106667D01*
X63790Y106625D01*
X64159Y106379D01*
X64596Y106292D01*
X64696Y106251D01*
X68572D01*
X68672Y106292D01*
X69109Y106379D01*
X69477Y106625D01*
X69579Y106667D01*
X71326Y108415D01*
X71679Y108767D01*
X71680Y108768D01*
X71680Y108768D01*
X71721Y108869D01*
X71967Y109237D01*
X72054Y109674D01*
X72096Y109775D01*
Y117981D01*
X72138Y118085D01*
X72663Y118610D01*
X72767Y118652D01*
X75303D01*
X75402Y118152D01*
X75141Y118044D01*
X74836Y117739D01*
X74672Y117341D01*
Y116911D01*
X74836Y116513D01*
X75141Y116208D01*
X75539Y116043D01*
X75969D01*
X76367Y116208D01*
X76672Y116513D01*
X76837Y116911D01*
Y117341D01*
X76672Y117739D01*
X76367Y118044D01*
X76106Y118152D01*
X76205Y118652D01*
X77768D01*
X78030Y118228D01*
X77867Y117980D01*
X77822Y117936D01*
X77658Y117538D01*
Y117107D01*
X77822Y116709D01*
X78127Y116405D01*
X78525Y116240D01*
X78956D01*
X79353Y116405D01*
X79658Y116709D01*
X79823Y117107D01*
Y117538D01*
X79658Y117936D01*
X79614Y117980D01*
X79397Y118307D01*
X79614Y118634D01*
X79658Y118678D01*
X79823Y119076D01*
Y119507D01*
X79658Y119905D01*
X79614Y119949D01*
X79397Y120276D01*
X79614Y120602D01*
X79658Y120647D01*
X79823Y121045D01*
Y121475D01*
X79658Y121873D01*
X79353Y122178D01*
X78956Y122343D01*
X78525D01*
X78127Y122178D01*
X77957Y122008D01*
X77604Y122249D01*
D01*
X77544Y122290D01*
X77559Y122365D01*
X77631Y122727D01*
X77673Y122828D01*
Y124670D01*
X78173Y124966D01*
X78328Y124902D01*
X78759D01*
X79157Y125066D01*
X79461Y125371D01*
X79626Y125769D01*
Y126200D01*
X79461Y126597D01*
X79157Y126902D01*
X78759Y127067D01*
X78328D01*
X78173Y127003D01*
X77673Y127298D01*
Y127766D01*
X77946Y127918D01*
X78173Y128000D01*
X78525Y127854D01*
X78956D01*
X79353Y128019D01*
X79658Y128324D01*
X79823Y128722D01*
Y129152D01*
X79658Y129550D01*
X79614Y129595D01*
X79397Y129921D01*
X79614Y130248D01*
X79658Y130292D01*
X79823Y130690D01*
Y131121D01*
X79658Y131519D01*
X79353Y131823D01*
X78956Y131988D01*
X78525D01*
X78127Y131823D01*
X77970Y131667D01*
X77912Y131660D01*
X77461Y131853D01*
Y132105D01*
X77296Y132503D01*
X76991Y132808D01*
X76593Y132972D01*
X76163D01*
X75765Y132808D01*
X75460Y132503D01*
X75295Y132105D01*
Y131674D01*
X75460Y131277D01*
X75765Y130972D01*
X76163Y130807D01*
X76394D01*
X76394Y124479D01*
X76024Y124161D01*
X75894Y124114D01*
X75539D01*
X75141Y123949D01*
X74862Y123671D01*
X74145D01*
X74044Y123629D01*
X73607Y123542D01*
X73239Y123296D01*
X73138Y123254D01*
X73138Y123254D01*
X73137Y123254D01*
X73131Y123247D01*
X72820Y123299D01*
X72539Y123800D01*
Y124231D01*
X72374Y124629D01*
X72070Y124934D01*
X72033Y124949D01*
X71915Y125539D01*
X73886Y127509D01*
X74238Y127862D01*
X74239Y127863D01*
X74239Y127863D01*
X74280Y127964D01*
X74526Y128332D01*
X74613Y128769D01*
X74655Y128869D01*
Y138847D01*
X74697Y138951D01*
X75419Y139673D01*
X75523Y139715D01*
X77848D01*
X78127Y139436D01*
X78298Y139366D01*
X78312Y139129D01*
X78248Y138845D01*
X77930Y138713D01*
X77626Y138409D01*
X77461Y138011D01*
Y137580D01*
X77626Y137182D01*
X77930Y136877D01*
X78328Y136713D01*
X78759D01*
X79157Y136877D01*
X79461Y137182D01*
X79626Y137580D01*
Y138011D01*
X79461Y138409D01*
X79157Y138713D01*
X78985Y138784D01*
X78971Y139020D01*
X79035Y139305D01*
X79353Y139436D01*
X79658Y139741D01*
X79823Y140139D01*
Y140570D01*
X79658Y140968D01*
X79353Y141272D01*
X78956Y141437D01*
D02*
G37*
G36*
X68326Y141043D02*
X67895D01*
X67497Y140878D01*
X67192Y140574D01*
X67028Y140176D01*
Y139745D01*
X67192Y139347D01*
X67497Y139043D01*
X67895Y138878D01*
X68326D01*
X68723Y139043D01*
X69028Y139347D01*
X69193Y139745D01*
Y140176D01*
X69028Y140574D01*
X68723Y140878D01*
X68326Y141043D01*
D02*
G37*
G36*
X44310Y138878D02*
X43879D01*
X43481Y138713D01*
X43177Y138409D01*
X43012Y138011D01*
Y137580D01*
X43177Y137182D01*
X43481Y136877D01*
X43879Y136713D01*
X44310D01*
X44708Y136877D01*
X45012Y137182D01*
X45177Y137580D01*
Y138011D01*
X45012Y138409D01*
X44708Y138713D01*
X44310Y138878D01*
D02*
G37*
G36*
X68326Y134941D02*
X67895D01*
X67497Y134776D01*
X67192Y134471D01*
X67028Y134074D01*
Y133643D01*
X67192Y133245D01*
X67497Y132940D01*
X67895Y132776D01*
X68326D01*
X68723Y132940D01*
X69028Y133245D01*
X69193Y133643D01*
Y134074D01*
X69028Y134471D01*
X68723Y134776D01*
X68326Y134941D01*
D02*
G37*
G36*
X55924Y136516D02*
X55493D01*
X55095Y136351D01*
X54791Y136046D01*
X54626Y135648D01*
Y135218D01*
X54791Y134820D01*
X55095Y134515D01*
X55493Y134350D01*
X55924D01*
X56218Y134472D01*
X56532Y134252D01*
X56622Y134139D01*
X56595Y134074D01*
Y133643D01*
X56759Y133245D01*
X57064Y132940D01*
X57462Y132776D01*
X57893D01*
X58290Y132940D01*
X58335Y132985D01*
X58661Y133201D01*
X58988Y132985D01*
X59032Y132940D01*
X59430Y132776D01*
X59861D01*
X60259Y132940D01*
X60563Y133245D01*
X60728Y133643D01*
Y134074D01*
X60563Y134471D01*
X60259Y134776D01*
X59861Y134941D01*
X59430D01*
X59032Y134776D01*
X58988Y134732D01*
X58661Y134516D01*
X58335Y134732D01*
X58290Y134776D01*
X57893Y134941D01*
X57462D01*
X57167Y134819D01*
X56854Y135040D01*
X56764Y135152D01*
X56791Y135218D01*
Y135648D01*
X56626Y136046D01*
X56322Y136351D01*
X55924Y136516D01*
D02*
G37*
G36*
X91160Y132185D02*
X90729D01*
X90354Y132030D01*
X89979Y132185D01*
X89548D01*
X89173Y132030D01*
X88798Y132185D01*
X88367D01*
X87992Y132030D01*
X87617Y132185D01*
X87186D01*
X86811Y132030D01*
X86436Y132185D01*
X86005D01*
X85607Y132020D01*
X85303Y131716D01*
X85138Y131318D01*
Y130887D01*
X85293Y130512D01*
X85138Y130137D01*
Y129706D01*
X85293Y129331D01*
X85138Y128955D01*
Y128525D01*
X85293Y128150D01*
X85138Y127774D01*
Y127344D01*
X85293Y126969D01*
X85138Y126593D01*
Y126163D01*
X85303Y125765D01*
X85607Y125460D01*
X86005Y125295D01*
X86436D01*
X86811Y125451D01*
X87186Y125295D01*
X87617D01*
X87992Y125451D01*
X88367Y125295D01*
X88798D01*
X89173Y125451D01*
X89548Y125295D01*
X89979D01*
X90354Y125451D01*
X90729Y125295D01*
X91160D01*
X91558Y125460D01*
X91863Y125765D01*
X92028Y126163D01*
Y126593D01*
X91872Y126969D01*
X92028Y127344D01*
Y127774D01*
X91872Y128150D01*
X92028Y128525D01*
Y128955D01*
X91872Y129331D01*
X92028Y129706D01*
Y130137D01*
X91872Y130512D01*
X92028Y130887D01*
Y131318D01*
X91863Y131716D01*
X91558Y132020D01*
X91160Y132185D01*
D02*
G37*
G36*
X16357Y132185D02*
X15926D01*
X15551Y132030D01*
X15176Y132185D01*
X14745D01*
X14370Y132030D01*
X13995Y132185D01*
X13564D01*
X13189Y132030D01*
X12814Y132185D01*
X12383D01*
X12008Y132030D01*
X11633Y132185D01*
X11202D01*
X10804Y132020D01*
X10499Y131716D01*
X10335Y131318D01*
Y130887D01*
X10490Y130512D01*
X10335Y130137D01*
Y129706D01*
X10490Y129331D01*
X10335Y128955D01*
Y128525D01*
X10490Y128150D01*
X10335Y127774D01*
Y127344D01*
X10490Y126969D01*
X10335Y126593D01*
Y126163D01*
X10499Y125765D01*
X10804Y125460D01*
X11202Y125295D01*
X11633D01*
X12008Y125451D01*
X12383Y125295D01*
X12814D01*
X13189Y125451D01*
X13564Y125295D01*
X13995D01*
X14370Y125451D01*
X14745Y125295D01*
X15176D01*
X15551Y125451D01*
X15926Y125295D01*
X16357D01*
X16755Y125460D01*
X17060Y125765D01*
X17224Y126163D01*
Y126593D01*
X17069Y126969D01*
X17224Y127344D01*
Y127774D01*
X17069Y128150D01*
X17224Y128525D01*
Y128955D01*
X17069Y129331D01*
X17224Y129706D01*
Y130137D01*
X17069Y130512D01*
X17224Y130887D01*
Y131318D01*
X17060Y131716D01*
X16755Y132020D01*
X16357Y132185D01*
D02*
G37*
G36*
X46672Y135138D02*
X46241D01*
X45843Y134973D01*
X45539Y134668D01*
X45374Y134271D01*
Y134064D01*
X45170Y133750D01*
X44916Y133638D01*
X44666D01*
X44269Y133473D01*
X43964Y133168D01*
X43799Y132771D01*
Y132340D01*
X43964Y131942D01*
X44269Y131637D01*
X44666Y131473D01*
X45097D01*
X45495Y131637D01*
X45800Y131942D01*
X45965Y132340D01*
Y132546D01*
X46169Y132861D01*
X46422Y132973D01*
X46672D01*
X47070Y133137D01*
X47374Y133442D01*
X47539Y133840D01*
Y134271D01*
X47374Y134668D01*
X47070Y134973D01*
X46672Y135138D01*
D02*
G37*
G36*
X55924Y132579D02*
X55493D01*
X55095Y132414D01*
X54791Y132109D01*
X54626Y131711D01*
Y131281D01*
X54791Y130883D01*
X55095Y130578D01*
X55493Y130413D01*
X55924D01*
X56322Y130578D01*
X56626Y130883D01*
X56791Y131281D01*
Y131711D01*
X56626Y132109D01*
X56322Y132414D01*
X55924Y132579D01*
D02*
G37*
G36*
X46869Y115650D02*
X46438D01*
X46040Y115485D01*
X45736Y115180D01*
X45571Y114782D01*
Y114352D01*
X45736Y113954D01*
X46040Y113649D01*
X46438Y113484D01*
X46869D01*
X47267Y113649D01*
X47571Y113954D01*
X47736Y114352D01*
Y114782D01*
X47571Y115180D01*
X47267Y115485D01*
X46869Y115650D01*
D02*
G37*
G36*
X78759Y115256D02*
X78328D01*
X77930Y115091D01*
X77626Y114787D01*
X77461Y114389D01*
Y113958D01*
X77626Y113560D01*
X77930Y113255D01*
X78328Y113091D01*
X78759D01*
X79157Y113255D01*
X79461Y113560D01*
X79626Y113958D01*
Y114389D01*
X79461Y114787D01*
X79157Y115091D01*
X78759Y115256D01*
D02*
G37*
G36*
X26200D02*
X25769D01*
X25371Y115091D01*
X25066Y114787D01*
X24902Y114389D01*
Y113958D01*
X25066Y113560D01*
X25371Y113255D01*
X25769Y113091D01*
X26200D01*
X26597Y113255D01*
X26902Y113560D01*
X27067Y113958D01*
Y114389D01*
X26902Y114787D01*
X26597Y115091D01*
X26200Y115256D01*
D02*
G37*
G36*
X44900Y113287D02*
X44470D01*
X44072Y113123D01*
X44027Y113078D01*
X43701Y112862D01*
X43374Y113078D01*
X43330Y113123D01*
X42932Y113287D01*
X42501D01*
X42103Y113123D01*
X41799Y112818D01*
X41634Y112420D01*
Y111989D01*
X41799Y111591D01*
X42103Y111287D01*
X42501Y111122D01*
X42932D01*
X43330Y111287D01*
X43374Y111331D01*
X43701Y111548D01*
X44027Y111331D01*
X44072Y111287D01*
X44470Y111122D01*
X44900D01*
X45298Y111287D01*
X45603Y111591D01*
X45768Y111989D01*
Y112420D01*
X45603Y112818D01*
X45298Y113123D01*
X44900Y113287D01*
D02*
G37*
G36*
X58483Y114469D02*
X58052D01*
X57654Y114304D01*
X57350Y113999D01*
X57185Y113601D01*
Y113171D01*
X57350Y112773D01*
X57654Y112468D01*
X58052Y112303D01*
X58483D01*
X58881Y112468D01*
X59186Y112773D01*
X59350Y113171D01*
Y113601D01*
X59186Y113999D01*
X58881Y114304D01*
X58483Y114469D01*
D02*
G37*
G36*
X16357Y111516D02*
X15926D01*
X15551Y111360D01*
X15176Y111516D01*
X14745D01*
X14370Y111360D01*
X13995Y111516D01*
X13564D01*
X13189Y111360D01*
X12814Y111516D01*
X12383D01*
X12008Y111360D01*
X11633Y111516D01*
X11202D01*
X10804Y111351D01*
X10499Y111046D01*
X10335Y110648D01*
Y110218D01*
X10490Y109843D01*
X10335Y109467D01*
Y109037D01*
X10490Y108661D01*
X10335Y108286D01*
Y107855D01*
X10490Y107480D01*
X10335Y107105D01*
Y106674D01*
X10490Y106299D01*
X10335Y105924D01*
Y105493D01*
X10499Y105095D01*
X10804Y104791D01*
X11202Y104626D01*
X11633D01*
X12008Y104781D01*
X12383Y104626D01*
X12814D01*
X13189Y104781D01*
X13564Y104626D01*
X13995D01*
X14370Y104781D01*
X14745Y104626D01*
X15176D01*
X15551Y104781D01*
X15926Y104626D01*
X16357D01*
X16755Y104791D01*
X17060Y105095D01*
X17224Y105493D01*
Y105924D01*
X17069Y106299D01*
X17224Y106674D01*
Y107105D01*
X17069Y107480D01*
X17224Y107855D01*
Y108286D01*
X17069Y108661D01*
X17224Y109037D01*
Y109467D01*
X17069Y109843D01*
X17224Y110218D01*
Y110648D01*
X17060Y111046D01*
X16755Y111351D01*
X16357Y111516D01*
D02*
G37*
G36*
X38995Y113287D02*
X38564D01*
X38166Y113123D01*
X37862Y112818D01*
X37697Y112420D01*
Y112026D01*
X36392Y110721D01*
X36288Y110679D01*
X35366D01*
X35265Y110637D01*
X34828Y110550D01*
X34460Y110304D01*
X34359Y110262D01*
X34359Y110262D01*
X34358Y110262D01*
X34005Y109909D01*
X33045Y108949D01*
X32941Y108907D01*
X30951D01*
X30672Y109186D01*
X30274Y109350D01*
X29844D01*
X29446Y109186D01*
X29141Y108881D01*
X28976Y108483D01*
Y108052D01*
X29141Y107654D01*
X29446Y107350D01*
X29844Y107185D01*
X30274D01*
X30672Y107350D01*
X30951Y107629D01*
X32942D01*
X33042Y107670D01*
X33479Y107757D01*
X33847Y108003D01*
X33949Y108045D01*
X35262Y109358D01*
X35366Y109400D01*
X36288D01*
X36389Y109442D01*
X36826Y109529D01*
X37194Y109775D01*
X37296Y109817D01*
X38601Y111122D01*
X38995D01*
X39393Y111287D01*
X39697Y111591D01*
X39862Y111989D01*
Y112420D01*
X39697Y112818D01*
X39393Y113123D01*
X38995Y113287D01*
D02*
G37*
G36*
X58483Y109350D02*
X58052D01*
X57654Y109186D01*
X57350Y108881D01*
X57185Y108483D01*
Y108052D01*
X57350Y107654D01*
X57654Y107350D01*
X58052Y107185D01*
X58483D01*
X58881Y107350D01*
X59186Y107654D01*
X59350Y108052D01*
Y108483D01*
X59186Y108881D01*
X58881Y109186D01*
X58483Y109350D01*
D02*
G37*
G36*
X46475Y99508D02*
X46044D01*
X45647Y99343D01*
X45342Y99038D01*
X45177Y98641D01*
Y98210D01*
X45342Y97812D01*
X45647Y97507D01*
X46044Y97342D01*
X46475D01*
X46873Y97507D01*
X47178Y97812D01*
X47343Y98210D01*
Y98641D01*
X47178Y99038D01*
X46873Y99343D01*
X46475Y99508D01*
D02*
G37*
G36*
X83916Y95079D02*
X83485D01*
X83110Y94923D01*
X82735Y95079D01*
X82304D01*
X81929Y94923D01*
X81554Y95079D01*
X81123D01*
X80725Y94914D01*
X80421Y94609D01*
X80256Y94212D01*
Y93781D01*
X80421Y93383D01*
X80725Y93078D01*
X81123Y92913D01*
X81554D01*
X81929Y93069D01*
X82304Y92913D01*
X82735D01*
X83110Y93069D01*
X83485Y92913D01*
X83916D01*
X84314Y93078D01*
X84528Y93292D01*
X84941Y93273D01*
X85093Y93222D01*
X85226Y92949D01*
X85138Y92735D01*
Y92304D01*
X85293Y91929D01*
X85138Y91554D01*
Y91123D01*
X85293Y90748D01*
X85138Y90373D01*
Y89942D01*
X85293Y89567D01*
X85138Y89192D01*
Y88761D01*
X85293Y88386D01*
X85138Y88011D01*
Y87580D01*
X85293Y87205D01*
X85138Y86830D01*
Y86399D01*
X85293Y86024D01*
X85138Y85648D01*
Y85218D01*
X85293Y84842D01*
X85138Y84467D01*
Y84037D01*
X85293Y83661D01*
X85138Y83286D01*
Y82855D01*
X85303Y82458D01*
X85607Y82153D01*
X86005Y81988D01*
X86436D01*
X86811Y82144D01*
X87186Y81988D01*
X87617D01*
X87992Y82144D01*
X88367Y81988D01*
X88798D01*
X89173Y82144D01*
X89548Y81988D01*
X89979D01*
X90354Y82144D01*
X90729Y81988D01*
X91160D01*
X91558Y82153D01*
X91863Y82458D01*
X92027Y82855D01*
Y83286D01*
X91872Y83661D01*
X92027Y84037D01*
Y84467D01*
X91872Y84842D01*
X92027Y85218D01*
Y85648D01*
X91872Y86024D01*
X92027Y86399D01*
Y86830D01*
X91872Y87205D01*
X92027Y87580D01*
Y88011D01*
X91872Y88386D01*
X92027Y88761D01*
Y89192D01*
X91872Y89567D01*
X92027Y89942D01*
Y90373D01*
X91872Y90748D01*
X92027Y91123D01*
Y91554D01*
X91872Y91929D01*
X92027Y92304D01*
Y92735D01*
X91872Y93110D01*
X92027Y93485D01*
Y93916D01*
X91863Y94314D01*
X91558Y94619D01*
X91160Y94784D01*
X90729D01*
X90354Y94628D01*
X89979Y94784D01*
X89548D01*
X89173Y94628D01*
X88798Y94784D01*
X88367D01*
X87992Y94628D01*
X87617Y94784D01*
X87186D01*
X86811Y94628D01*
X86436Y94784D01*
X86005D01*
X85607Y94619D01*
X85303Y94314D01*
X85272Y94239D01*
X85028Y94226D01*
X84751Y94289D01*
X84619Y94609D01*
X84314Y94914D01*
X83916Y95079D01*
D02*
G37*
G36*
X28956Y95177D02*
X28525D01*
X28127Y95012D01*
X27822Y94708D01*
X27657Y94310D01*
Y93879D01*
X27822Y93481D01*
X28127Y93177D01*
X28525Y93012D01*
X28956D01*
X29353Y93177D01*
X29658Y93481D01*
X29823Y93879D01*
Y94310D01*
X29658Y94708D01*
X29353Y95012D01*
X28956Y95177D01*
D02*
G37*
G36*
X24822Y94587D02*
X24391D01*
X23993Y94422D01*
X23688Y94117D01*
X23524Y93719D01*
Y93289D01*
X23688Y92891D01*
X23993Y92586D01*
X24391Y92421D01*
X24822D01*
X25220Y92586D01*
X25524Y92891D01*
X25689Y93289D01*
Y93719D01*
X25524Y94117D01*
X25220Y94422D01*
X24822Y94587D01*
D02*
G37*
G36*
X58483Y93996D02*
X58053D01*
X57655Y93831D01*
X57350Y93526D01*
X57185Y93129D01*
Y92698D01*
X57350Y92300D01*
X57655Y91995D01*
X58053Y91830D01*
X58483D01*
X58881Y91995D01*
X59186Y92300D01*
X59351Y92698D01*
Y93129D01*
X59186Y93526D01*
X58881Y93831D01*
X58483Y93996D01*
D02*
G37*
G36*
Y90847D02*
X58053D01*
X57655Y90682D01*
X57350Y90377D01*
X57185Y89979D01*
Y89549D01*
X57350Y89151D01*
X57655Y88846D01*
X58053Y88682D01*
X58483D01*
X58881Y88846D01*
X59186Y89151D01*
X59351Y89549D01*
Y89979D01*
X59186Y90377D01*
X58881Y90682D01*
X58483Y90847D01*
D02*
G37*
G36*
X49034Y90847D02*
X48603D01*
X48206Y90682D01*
X47901Y90377D01*
X47736Y89979D01*
Y89548D01*
X47901Y89151D01*
X48206Y88846D01*
X48603Y88681D01*
X49034D01*
X49432Y88846D01*
X49737Y89151D01*
X49902Y89548D01*
Y89979D01*
X49737Y90377D01*
X49432Y90682D01*
X49034Y90847D01*
D02*
G37*
G36*
X39585D02*
X39155D01*
X38757Y90682D01*
X38452Y90377D01*
X38287Y89979D01*
Y89548D01*
X38452Y89151D01*
X38757Y88846D01*
X39155Y88681D01*
X39585D01*
X39983Y88846D01*
X40288Y89151D01*
X40453Y89548D01*
Y89979D01*
X40288Y90377D01*
X39983Y90682D01*
X39585Y90847D01*
D02*
G37*
G36*
X20688Y95571D02*
X20257D01*
X19859Y95406D01*
X19555Y95101D01*
X19390Y94704D01*
Y94273D01*
X19555Y93875D01*
X19827Y93602D01*
X19555Y93330D01*
X19390Y92932D01*
Y92501D01*
X19555Y92103D01*
X19710Y91948D01*
X19808Y91634D01*
X19710Y91319D01*
X19555Y91164D01*
X19390Y90767D01*
Y90336D01*
X19555Y89938D01*
X19599Y89894D01*
X19815Y89567D01*
X19599Y89240D01*
X19555Y89196D01*
X19390Y88798D01*
Y88367D01*
X19555Y87969D01*
X19859Y87665D01*
X20257Y87500D01*
X20688D01*
X21086Y87665D01*
X21390Y87969D01*
X21555Y88367D01*
Y88798D01*
X21390Y89196D01*
X21346Y89240D01*
X21130Y89567D01*
X21346Y89894D01*
X21390Y89938D01*
X21555Y90336D01*
Y90767D01*
X21390Y91164D01*
X21235Y91319D01*
X21137Y91634D01*
X21235Y91948D01*
X21390Y92103D01*
X21555Y92501D01*
Y92932D01*
X21390Y93330D01*
X21118Y93602D01*
X21390Y93875D01*
X21555Y94273D01*
Y94704D01*
X21390Y95101D01*
X21086Y95406D01*
X20688Y95571D01*
D02*
G37*
G36*
X75576Y89272D02*
X75145D01*
X74747Y89107D01*
X74443Y88802D01*
X74278Y88404D01*
Y87974D01*
X74443Y87576D01*
X74747Y87271D01*
X75145Y87106D01*
X75576D01*
X75974Y87271D01*
X76278Y87576D01*
X76443Y87974D01*
Y88404D01*
X76278Y88802D01*
X75974Y89107D01*
X75576Y89272D01*
D02*
G37*
G36*
X61632Y87697D02*
X61202D01*
X60804Y87532D01*
X60499Y87227D01*
X60334Y86830D01*
Y86399D01*
X60499Y86001D01*
X60804Y85696D01*
X61202Y85532D01*
X61632D01*
X62030Y85696D01*
X62335Y86001D01*
X62500Y86399D01*
Y86830D01*
X62335Y87227D01*
X62030Y87532D01*
X61632Y87697D01*
D02*
G37*
G36*
X39585D02*
X39155D01*
X38757Y87532D01*
X38452Y87227D01*
X38287Y86830D01*
Y86399D01*
X38452Y86001D01*
X38757Y85696D01*
X39155Y85532D01*
X39585D01*
X39983Y85696D01*
X40288Y86001D01*
X40453Y86399D01*
Y86830D01*
X40288Y87227D01*
X39983Y87532D01*
X39585Y87697D01*
D02*
G37*
G36*
X53759Y86122D02*
X53328D01*
X52930Y85957D01*
X52626Y85653D01*
X52461Y85255D01*
Y84824D01*
X52626Y84426D01*
X52930Y84122D01*
X53328Y83957D01*
X53759D01*
X54157Y84122D01*
X54461Y84426D01*
X54626Y84824D01*
Y85255D01*
X54461Y85653D01*
X54157Y85957D01*
X53759Y86122D01*
D02*
G37*
G36*
X49034Y87697D02*
X48603D01*
X48206Y87532D01*
X47901Y87227D01*
X47736Y86830D01*
Y86399D01*
X47901Y86001D01*
X48206Y85696D01*
X48603Y85532D01*
X48884D01*
X49143Y85364D01*
X49311Y85105D01*
Y84824D01*
X49476Y84426D01*
X49780Y84122D01*
X50178Y83957D01*
X50609D01*
X51007Y84122D01*
X51311Y84426D01*
X51476Y84824D01*
Y85255D01*
X51311Y85653D01*
X51007Y85957D01*
X50609Y86122D01*
X50328D01*
X50069Y86290D01*
X49902Y86549D01*
Y86830D01*
X49737Y87227D01*
X49432Y87532D01*
X49034Y87697D01*
D02*
G37*
G36*
X20688Y85925D02*
X20257D01*
X19859Y85760D01*
X19555Y85456D01*
X19390Y85058D01*
Y84627D01*
X19555Y84229D01*
X19859Y83925D01*
X20257Y83760D01*
X20688D01*
X21086Y83925D01*
X21390Y84229D01*
X21555Y84627D01*
Y85058D01*
X21390Y85456D01*
X21086Y85760D01*
X20688Y85925D01*
D02*
G37*
G36*
X58483Y81398D02*
X58053D01*
X57655Y81233D01*
X57350Y80928D01*
X57185Y80531D01*
Y80100D01*
X56796Y79734D01*
X56681Y79708D01*
X56201Y80188D01*
Y80530D01*
X56036Y80928D01*
X55731Y81233D01*
X55334Y81398D01*
X54903D01*
X54505Y81233D01*
X54200Y80928D01*
X54035Y80530D01*
Y80100D01*
X54200Y79702D01*
X54505Y79397D01*
X54903Y79232D01*
X55334D01*
X55344Y79237D01*
X56062Y78519D01*
X56161Y78478D01*
X56533Y78230D01*
X56970Y78143D01*
X56997Y78132D01*
X57077Y78052D01*
X57115Y77993D01*
X57277Y77601D01*
X57185Y77381D01*
Y76950D01*
X57350Y76552D01*
X57655Y76247D01*
X58053Y76082D01*
X58483D01*
X58703Y76174D01*
X59147Y75945D01*
X59203Y75881D01*
Y75301D01*
X59147Y75236D01*
X58703Y75008D01*
X58483Y75099D01*
X58053D01*
X57655Y74934D01*
X57350Y74629D01*
X57185Y74231D01*
Y73801D01*
X57350Y73403D01*
X57655Y73098D01*
X58053Y72934D01*
X58483D01*
X58703Y73025D01*
X59147Y72796D01*
X59203Y72732D01*
Y69001D01*
X59147Y68936D01*
X58703Y68708D01*
X58483Y68799D01*
X58053D01*
X57832Y68707D01*
X57333Y68964D01*
X57332Y68965D01*
X57290Y69066D01*
X57204Y69503D01*
X56956Y69873D01*
X56914Y69974D01*
X56201Y70687D01*
Y71082D01*
X56036Y71479D01*
X55731Y71784D01*
X55334Y71949D01*
X54903D01*
X54505Y71784D01*
X54200Y71479D01*
X54035Y71082D01*
Y70651D01*
X54200Y70253D01*
X54505Y69948D01*
X54903Y69784D01*
X55297D01*
X55723Y69357D01*
X55697Y69190D01*
X55334Y68799D01*
X54903D01*
X54505Y68634D01*
X54200Y68330D01*
X54035Y67932D01*
Y67501D01*
X54200Y67103D01*
X54505Y66799D01*
X54903Y66634D01*
X55334D01*
X55554Y66725D01*
X55997Y66497D01*
X56054Y66432D01*
Y65851D01*
X55997Y65786D01*
X55554Y65558D01*
X55334Y65650D01*
X54903D01*
X54505Y65485D01*
X54200Y65180D01*
X54035Y64782D01*
Y64352D01*
X54200Y63954D01*
X54505Y63649D01*
X54903Y63484D01*
X55334D01*
X55554Y63576D01*
X55997Y63348D01*
X56054Y63283D01*
Y59506D01*
X55554Y59407D01*
X55445Y59668D01*
X55141Y59973D01*
X54743Y60138D01*
X54312D01*
X53914Y59973D01*
X53610Y59668D01*
X53445Y59271D01*
Y58840D01*
X53610Y58442D01*
X53914Y58137D01*
X54312Y57973D01*
X54743D01*
X55141Y58137D01*
X55445Y58442D01*
X55554Y58703D01*
X56054Y58604D01*
Y54657D01*
X56095Y54556D01*
X56132Y54374D01*
X55671Y54128D01*
X55534Y54264D01*
X55137Y54429D01*
X54706D01*
X54308Y54264D01*
X54003Y53960D01*
X53839Y53562D01*
Y53131D01*
X54003Y52733D01*
X54308Y52429D01*
X54706Y52264D01*
X55137D01*
X55534Y52429D01*
X55839Y52733D01*
X56004Y53131D01*
Y53486D01*
X56472Y53648D01*
X59362Y50757D01*
X59209Y50204D01*
X59032Y50130D01*
X58988Y50086D01*
X58661Y49870D01*
X58335Y50086D01*
X58290Y50130D01*
X57893Y50295D01*
X57462D01*
X57064Y50130D01*
X56759Y49826D01*
X56595Y49428D01*
Y48997D01*
X56759Y48599D01*
X57064Y48295D01*
X57462Y48130D01*
X57893D01*
X58290Y48295D01*
X58335Y48339D01*
X58661Y48555D01*
X58988Y48339D01*
X59032Y48295D01*
X59430Y48130D01*
X59861D01*
X59884Y48140D01*
X60384Y47806D01*
Y44814D01*
X60390Y44801D01*
X60354Y44716D01*
X60342Y44710D01*
X54896Y39264D01*
X54853Y39162D01*
X54607Y38794D01*
X54521Y38357D01*
X54479Y38256D01*
Y18669D01*
X54521Y18568D01*
X54607Y18131D01*
X54853Y17763D01*
X54896Y17661D01*
X61378Y11179D01*
Y10785D01*
X61543Y10387D01*
X61848Y10082D01*
X62246Y9917D01*
X62676D01*
X63074Y10082D01*
X63379Y10387D01*
X63441Y10538D01*
X64006Y10681D01*
X66255Y8432D01*
X66298Y8327D01*
X66298Y7075D01*
X65873Y6813D01*
X65627Y6977D01*
X65582Y7021D01*
X65184Y7185D01*
X64754D01*
X64356Y7021D01*
X64051Y6716D01*
X63886Y6318D01*
Y5887D01*
X64051Y5489D01*
X64356Y5185D01*
X64754Y5020D01*
X65184D01*
X65582Y5185D01*
X65627Y5229D01*
X65953Y5446D01*
X66280Y5229D01*
X66324Y5185D01*
X66722Y5020D01*
X67153D01*
X67550Y5185D01*
X67855Y5489D01*
X68020Y5887D01*
Y6318D01*
X67855Y6716D01*
X67576Y6995D01*
X67576Y7638D01*
X68038Y7829D01*
X68459Y7408D01*
X68497Y7393D01*
X68514Y7357D01*
X69792Y6214D01*
Y5887D01*
X69956Y5489D01*
X70261Y5185D01*
X70659Y5020D01*
X71090D01*
X71487Y5185D01*
X71792Y5489D01*
X71957Y5887D01*
Y6318D01*
X71792Y6716D01*
X71487Y7021D01*
X71090Y7185D01*
X70659D01*
X70634Y7175D01*
X69367Y8309D01*
X69364Y8310D01*
X69363Y8313D01*
X60925Y16750D01*
Y17144D01*
X60760Y17542D01*
X60456Y17847D01*
X60058Y18012D01*
X59627D01*
X59229Y17847D01*
X58925Y17542D01*
X58842Y17343D01*
X58298Y17181D01*
X56587Y18891D01*
X56575Y18896D01*
X56539Y18982D01*
X56545Y18995D01*
Y21202D01*
X57045Y21302D01*
X57153Y21040D01*
X57458Y20736D01*
X57855Y20571D01*
X58286D01*
X58684Y20736D01*
X58989Y21040D01*
X59153Y21438D01*
Y21869D01*
X58989Y22267D01*
X58881Y22704D01*
X59186Y23009D01*
X59350Y23407D01*
Y23837D01*
X59186Y24235D01*
X58881Y24540D01*
X58483Y24705D01*
X58052D01*
X57654Y24540D01*
X57350Y24235D01*
X57185Y23837D01*
Y23407D01*
X57350Y23009D01*
X57458Y22571D01*
X57153Y22267D01*
X57045Y22005D01*
X56545Y22105D01*
Y27333D01*
X57045Y27667D01*
X57068Y27657D01*
X57499D01*
X57897Y27822D01*
X58201Y28127D01*
X58366Y28525D01*
Y28956D01*
X58201Y29353D01*
X57897Y29658D01*
X57499Y29823D01*
X57068D01*
X57045Y29813D01*
X56545Y30147D01*
Y37863D01*
X56539Y37876D01*
X56575Y37962D01*
X56587Y37967D01*
X61681Y43060D01*
X62033Y43413D01*
X62034Y43414D01*
X62034Y43414D01*
X62076Y43515D01*
X62322Y43883D01*
X62409Y44320D01*
X62450Y44421D01*
Y48107D01*
X62950Y48314D01*
X62969Y48295D01*
X63367Y48130D01*
X63798D01*
X64196Y48295D01*
X64500Y48599D01*
X64665Y48997D01*
Y49391D01*
X65970Y50696D01*
X66074Y50739D01*
X66997D01*
X67097Y50780D01*
X67534Y50867D01*
X67903Y51113D01*
X68005Y51156D01*
X69317Y52468D01*
X69421Y52510D01*
X71411D01*
X71690Y52232D01*
X72088Y52067D01*
X72518D01*
X72916Y52232D01*
X73221Y52536D01*
X73386Y52934D01*
Y53365D01*
X73221Y53763D01*
X72916Y54067D01*
X72518Y54232D01*
X72088D01*
X71690Y54067D01*
X71411Y53789D01*
X69421D01*
X69320Y53747D01*
X68883Y53660D01*
X68515Y53414D01*
X68414Y53372D01*
X68414Y53372D01*
X68413Y53372D01*
X68060Y53019D01*
X67101Y52060D01*
X66997Y52017D01*
X66074D01*
X65974Y51976D01*
X65536Y51889D01*
X65168Y51643D01*
X65068Y51601D01*
X65067Y51601D01*
X65066Y51600D01*
X64714Y51248D01*
X63761Y50295D01*
X63367D01*
X62969Y50130D01*
X62923Y50084D01*
X62871Y50077D01*
X62713Y50091D01*
X62383Y50251D01*
X62322Y50557D01*
X62084Y50913D01*
X62040Y51020D01*
X60107Y52983D01*
X60268Y53532D01*
X60456Y53610D01*
X60760Y53914D01*
X60925Y54312D01*
Y54743D01*
X60760Y55141D01*
X60456Y55445D01*
X60058Y55610D01*
X59627D01*
X59407Y55519D01*
X58964Y55747D01*
X58907Y55812D01*
Y59516D01*
X58902Y59529D01*
X58937Y59615D01*
X58949Y59620D01*
X59712Y60383D01*
X60065Y60736D01*
X60065Y60737D01*
X60364Y61105D01*
X60562Y61211D01*
X60866Y61220D01*
X61101Y61122D01*
X61532D01*
X61930Y61287D01*
X62234Y61591D01*
X62399Y61989D01*
Y62420D01*
X62234Y62818D01*
X61930Y63123D01*
X61532Y63287D01*
X61101D01*
X60982Y63238D01*
X60482Y63555D01*
Y77430D01*
X60440Y77530D01*
X60353Y77967D01*
X60106Y78338D01*
X60064Y78439D01*
X59540Y78962D01*
X59539Y78963D01*
X59247Y79351D01*
X59185Y79688D01*
X59195Y79723D01*
X59351Y80100D01*
Y80531D01*
X59186Y80928D01*
X58881Y81233D01*
X58483Y81398D01*
D02*
G37*
G36*
X20688Y81791D02*
X20257D01*
X19859Y81626D01*
X19555Y81322D01*
X19390Y80924D01*
Y80493D01*
X19555Y80095D01*
X19859Y79791D01*
X20257Y79626D01*
X20688D01*
X21086Y79791D01*
X21390Y80095D01*
X21555Y80493D01*
Y80924D01*
X21390Y81322D01*
X21086Y81626D01*
X20688Y81791D01*
D02*
G37*
G36*
X52184Y81398D02*
X51753D01*
X51355Y81233D01*
X51050Y80928D01*
X50885Y80531D01*
Y80100D01*
X51050Y79702D01*
X51355Y79397D01*
X51753Y79233D01*
X52184D01*
X52581Y79397D01*
X52886Y79702D01*
X53051Y80100D01*
Y80531D01*
X52886Y80928D01*
X52581Y81233D01*
X52184Y81398D01*
D02*
G37*
G36*
X49034D02*
X48604D01*
X48206Y81233D01*
X47901Y80928D01*
X47736Y80531D01*
Y80100D01*
X47901Y79702D01*
X48206Y79397D01*
X48604Y79233D01*
X49034D01*
X49432Y79397D01*
X49737Y79702D01*
X49902Y80100D01*
Y80531D01*
X49737Y80928D01*
X49432Y81233D01*
X49034Y81398D01*
D02*
G37*
G36*
X39585Y81398D02*
X39155D01*
X38757Y81233D01*
X38452Y80928D01*
X38287Y80530D01*
Y80100D01*
X38452Y79702D01*
X38757Y79397D01*
X39155Y79232D01*
X39585D01*
X39983Y79397D01*
X40288Y79702D01*
X40453Y80100D01*
Y80530D01*
X40288Y80928D01*
X39983Y81233D01*
X39585Y81398D01*
D02*
G37*
G36*
X55334Y78248D02*
X54903D01*
X54505Y78083D01*
X54200Y77779D01*
X54035Y77381D01*
Y76950D01*
X54200Y76552D01*
X54505Y76248D01*
X54903Y76083D01*
X55334D01*
X55731Y76248D01*
X56036Y76552D01*
X56201Y76950D01*
Y77381D01*
X56036Y77779D01*
X55731Y78083D01*
X55334Y78248D01*
D02*
G37*
G36*
X42735Y78248D02*
X42305D01*
X41907Y78083D01*
X41602Y77778D01*
X41437Y77381D01*
Y76950D01*
X41602Y76552D01*
X41907Y76247D01*
X42305Y76082D01*
X42735D01*
X43133Y76247D01*
X43438Y76552D01*
X43603Y76950D01*
Y77381D01*
X43438Y77778D01*
X43133Y78083D01*
X42735Y78248D01*
D02*
G37*
G36*
X55334Y75098D02*
X54903D01*
X54505Y74934D01*
X54200Y74629D01*
X54035Y74231D01*
Y73800D01*
X54200Y73403D01*
X54505Y73098D01*
X54903Y72933D01*
X55334D01*
X55731Y73098D01*
X56036Y73403D01*
X56201Y73800D01*
Y74231D01*
X56036Y74629D01*
X55731Y74934D01*
X55334Y75098D01*
D02*
G37*
G36*
X42735D02*
X42304D01*
X41906Y74934D01*
X41602Y74629D01*
X41437Y74231D01*
Y73800D01*
X41602Y73403D01*
X41906Y73098D01*
X42304Y72933D01*
X42735D01*
X43133Y73098D01*
X43437Y73403D01*
X43602Y73800D01*
Y74231D01*
X43437Y74629D01*
X43133Y74934D01*
X42735Y75098D01*
D02*
G37*
G36*
X65963Y72539D02*
X65533D01*
X65135Y72374D01*
X64830Y72070D01*
X64665Y71672D01*
Y71241D01*
X64830Y70843D01*
X65135Y70539D01*
X65533Y70374D01*
X65963D01*
X66361Y70539D01*
X66666Y70843D01*
X66831Y71241D01*
Y71672D01*
X66666Y72070D01*
X66361Y72374D01*
X65963Y72539D01*
D02*
G37*
G36*
X45885Y71949D02*
X45454D01*
X45056Y71784D01*
X44751Y71479D01*
X44587Y71082D01*
Y70651D01*
X44751Y70253D01*
X45056Y69948D01*
X45454Y69784D01*
X45885D01*
X46283Y69948D01*
X46587Y70253D01*
X46752Y70651D01*
Y71082D01*
X46587Y71479D01*
X46283Y71784D01*
X45885Y71949D01*
D02*
G37*
G36*
X42735D02*
X42304D01*
X41906Y71784D01*
X41602Y71479D01*
X41437Y71082D01*
Y70651D01*
X41602Y70253D01*
X41906Y69948D01*
X42304Y69784D01*
X42735D01*
X43133Y69948D01*
X43437Y70253D01*
X43602Y70651D01*
Y71082D01*
X43437Y71479D01*
X43133Y71784D01*
X42735Y71949D01*
D02*
G37*
G36*
X39585D02*
X39155D01*
X38757Y71784D01*
X38452Y71479D01*
X38287Y71082D01*
Y70651D01*
X38452Y70253D01*
X38757Y69948D01*
X39155Y69784D01*
X39585D01*
X39983Y69948D01*
X40288Y70253D01*
X40453Y70651D01*
Y71082D01*
X40288Y71479D01*
X39983Y71784D01*
X39585Y71949D01*
D02*
G37*
G36*
X72263Y78642D02*
X71832D01*
X71434Y78477D01*
X71129Y78172D01*
X70965Y77774D01*
Y77344D01*
X71044Y77153D01*
Y76784D01*
X70965Y76593D01*
Y76163D01*
X71044Y75972D01*
Y75603D01*
X70965Y75412D01*
Y74981D01*
X71044Y74790D01*
Y66239D01*
X70544Y65907D01*
X70452Y65945D01*
X70021D01*
X69646Y65790D01*
X69271Y65945D01*
X68840D01*
X68465Y65790D01*
X68089Y65945D01*
X67659D01*
X67261Y65780D01*
X66956Y65475D01*
X66791Y65078D01*
Y64647D01*
X66956Y64249D01*
X67261Y63944D01*
X67659Y63780D01*
X68089D01*
X68465Y63935D01*
X68840Y63780D01*
X69271D01*
X69646Y63935D01*
X70021Y63780D01*
X70452D01*
X70544Y63818D01*
X71044Y63485D01*
Y59856D01*
X70964Y59664D01*
Y59233D01*
X71044Y59042D01*
Y58674D01*
X70964Y58483D01*
Y58052D01*
X71044Y57861D01*
X71044Y57493D01*
X70964Y57302D01*
Y56871D01*
X71129Y56473D01*
X71434Y56169D01*
X71832Y56004D01*
X72263D01*
X72660Y56169D01*
X72965Y56473D01*
X73130Y56871D01*
Y57302D01*
X73051Y57493D01*
X73051Y57862D01*
X73130Y58052D01*
Y58483D01*
X73051Y58674D01*
Y59043D01*
X73130Y59233D01*
Y59664D01*
X73051Y59855D01*
Y69201D01*
X73151Y69302D01*
X73551Y69494D01*
X73800Y69391D01*
X74231D01*
X74629Y69556D01*
X74908Y69835D01*
X78183D01*
X78287Y69791D01*
X83333Y64746D01*
Y64352D01*
X83498Y63954D01*
X83802Y63649D01*
X84200Y63484D01*
X84631D01*
X85029Y63649D01*
X85333Y63954D01*
X85498Y64352D01*
Y64782D01*
X85333Y65180D01*
X85029Y65485D01*
X84631Y65650D01*
X84237D01*
X79191Y70695D01*
X79191Y70695D01*
X79191Y70695D01*
X79091Y70737D01*
X78720Y70984D01*
X78283Y71071D01*
X78183Y71113D01*
X75317D01*
X75098Y71439D01*
Y71870D01*
X74934Y72268D01*
X74629Y72573D01*
X74231Y72737D01*
X73800D01*
X73551Y72634D01*
X73151Y72826D01*
X73051Y72927D01*
Y74558D01*
X76052D01*
X76157Y74514D01*
X81994Y68677D01*
X82094Y68635D01*
X82466Y68387D01*
X82903Y68300D01*
X83003Y68258D01*
X93596D01*
X93875Y67980D01*
X94273Y67815D01*
X94704D01*
X95101Y67980D01*
X95406Y68284D01*
X95571Y68682D01*
Y69113D01*
X95406Y69511D01*
X95101Y69815D01*
X94704Y69980D01*
X94273D01*
X93875Y69815D01*
X93596Y69537D01*
X83003D01*
X82990Y69532D01*
X82903Y69567D01*
X82898Y69581D01*
X77061Y75418D01*
X77061Y75418D01*
X77061Y75418D01*
X76960Y75460D01*
X76589Y75707D01*
X76152Y75794D01*
X76052Y75836D01*
X73536D01*
X73130Y76163D01*
Y76593D01*
X73051Y76784D01*
Y77153D01*
X73130Y77344D01*
Y77774D01*
X72965Y78172D01*
X72660Y78477D01*
X72263Y78642D01*
D02*
G37*
G36*
X52184Y68799D02*
X51753D01*
X51355Y68634D01*
X51051Y68330D01*
X50886Y67932D01*
Y67501D01*
X51051Y67103D01*
X51355Y66799D01*
X51753Y66634D01*
X52184D01*
X52582Y66799D01*
X52886Y67103D01*
X53051Y67501D01*
Y67932D01*
X52886Y68330D01*
X52582Y68634D01*
X52184Y68799D01*
D02*
G37*
G36*
X49034D02*
X48603D01*
X48206Y68634D01*
X47901Y68330D01*
X47736Y67932D01*
Y67501D01*
X47901Y67103D01*
X48206Y66799D01*
X48603Y66634D01*
X49034D01*
X49432Y66799D01*
X49737Y67103D01*
X49902Y67501D01*
Y67932D01*
X49737Y68330D01*
X49432Y68634D01*
X49034Y68799D01*
D02*
G37*
G36*
X45885D02*
X45454D01*
X45056Y68634D01*
X44751Y68330D01*
X44587Y67932D01*
Y67501D01*
X44751Y67103D01*
X45056Y66799D01*
X45454Y66634D01*
X45885D01*
X46283Y66799D01*
X46587Y67103D01*
X46752Y67501D01*
Y67932D01*
X46587Y68330D01*
X46283Y68634D01*
X45885Y68799D01*
D02*
G37*
G36*
X42735D02*
X42304D01*
X41906Y68634D01*
X41602Y68330D01*
X41437Y67932D01*
Y67501D01*
X41602Y67103D01*
X41906Y66799D01*
X42304Y66634D01*
X42735D01*
X43133Y66799D01*
X43437Y67103D01*
X43602Y67501D01*
Y67932D01*
X43437Y68330D01*
X43133Y68634D01*
X42735Y68799D01*
D02*
G37*
G36*
X52184Y65650D02*
X51753D01*
X51355Y65485D01*
X51051Y65180D01*
X50886Y64782D01*
Y64352D01*
X51051Y63954D01*
X51355Y63649D01*
X51753Y63484D01*
X52184D01*
X52582Y63649D01*
X52886Y63954D01*
X53051Y64352D01*
Y64782D01*
X52886Y65180D01*
X52582Y65485D01*
X52184Y65650D01*
D02*
G37*
G36*
X39585D02*
X39155D01*
X38757Y65485D01*
X38452Y65180D01*
X38287Y64782D01*
Y64352D01*
X38452Y63954D01*
X38757Y63649D01*
X39155Y63484D01*
X39585D01*
X39983Y63649D01*
X40288Y63954D01*
X40453Y64352D01*
Y64782D01*
X40288Y65180D01*
X39983Y65485D01*
X39585Y65650D01*
D02*
G37*
G36*
X7274Y78839D02*
X6843D01*
X6445Y78674D01*
X6141Y78369D01*
X5976Y77971D01*
Y77540D01*
X6141Y77143D01*
X6230Y77053D01*
X6255Y76861D01*
X6543Y76166D01*
X6996Y75576D01*
X6999Y75579D01*
X7002Y75579D01*
X12157Y70424D01*
X12157Y70424D01*
X19455Y63126D01*
X19455Y63126D01*
X19450Y63121D01*
X20045Y62664D01*
X20740Y62377D01*
X21485Y62278D01*
Y62286D01*
X26734D01*
X26749Y62271D01*
X27147Y62106D01*
X27168D01*
X31463Y57811D01*
X31463Y57810D01*
X31458Y57806D01*
X32053Y57349D01*
X32747Y57062D01*
X33492Y56964D01*
Y56971D01*
X38752D01*
Y56958D01*
X39154Y56878D01*
X39496Y56650D01*
X39858Y56305D01*
X41240Y54923D01*
Y54903D01*
X41311Y54732D01*
X41144Y54287D01*
X41033Y54195D01*
X40725Y54067D01*
X40681Y54023D01*
X40354Y53807D01*
X40028Y54023D01*
X39983Y54067D01*
X39585Y54232D01*
X39191D01*
X38675Y54749D01*
X38675Y54749D01*
X38675Y54749D01*
X38675Y54749D01*
X38574Y54791D01*
X38204Y55038D01*
X37767Y55125D01*
X37666Y55167D01*
X33791D01*
X33690Y55125D01*
X33253Y55038D01*
X32885Y54792D01*
X32784Y54750D01*
X32784Y54750D01*
X32783Y54750D01*
X32430Y54397D01*
X30683Y52650D01*
X30641Y52548D01*
X30395Y52180D01*
X30308Y51743D01*
X30266Y51642D01*
Y43436D01*
X30272Y43423D01*
X30236Y43338D01*
X30224Y43333D01*
X29699Y42807D01*
X29595Y42765D01*
X27059D01*
X26960Y43265D01*
X27221Y43374D01*
X27526Y43678D01*
X27691Y44076D01*
Y44507D01*
X27526Y44905D01*
X27221Y45209D01*
X26823Y45374D01*
X26393D01*
X25995Y45209D01*
X25690Y44905D01*
X25525Y44507D01*
Y44076D01*
X25690Y43678D01*
X25995Y43374D01*
X26256Y43265D01*
X26157Y42765D01*
X24594D01*
X24332Y43190D01*
X24496Y43437D01*
X24540Y43481D01*
X24705Y43879D01*
Y44310D01*
X24540Y44708D01*
X24235Y45012D01*
X23837Y45177D01*
X23407D01*
X23009Y45012D01*
X22704Y44708D01*
X22539Y44310D01*
Y43879D01*
X22704Y43481D01*
X22749Y43437D01*
X22965Y43110D01*
X22749Y42784D01*
X22704Y42739D01*
X22539Y42341D01*
Y41911D01*
X22704Y41513D01*
X22749Y41468D01*
X22965Y41142D01*
X22749Y40815D01*
X22704Y40771D01*
X22539Y40373D01*
Y39942D01*
X22704Y39544D01*
X23009Y39240D01*
X23407Y39075D01*
X23837D01*
X24235Y39240D01*
X24405Y39409D01*
X24757Y39169D01*
Y39169D01*
X24818Y39127D01*
X24803Y39052D01*
X24731Y38690D01*
X24689Y38590D01*
Y36747D01*
X24189Y36452D01*
X24034Y36516D01*
X23604D01*
X23206Y36351D01*
X22901Y36046D01*
X22736Y35648D01*
Y35218D01*
X22901Y34820D01*
X23206Y34515D01*
X23604Y34350D01*
X24034D01*
X24189Y34415D01*
X24689Y34119D01*
Y33651D01*
X24416Y33499D01*
X24189Y33417D01*
X23837Y33563D01*
X23407D01*
X23009Y33398D01*
X22704Y33094D01*
X22539Y32696D01*
Y32265D01*
X22704Y31867D01*
X22749Y31823D01*
X22965Y31496D01*
X22749Y31169D01*
X22704Y31125D01*
X22539Y30727D01*
Y30296D01*
X22704Y29899D01*
X23009Y29594D01*
X23407Y29429D01*
X23837D01*
X24235Y29594D01*
X24391Y29750D01*
X24452Y29756D01*
X24902Y29565D01*
Y29312D01*
X25066Y28914D01*
X25371Y28610D01*
X25769Y28445D01*
X26200D01*
X26597Y28610D01*
X26902Y28914D01*
X27067Y29312D01*
Y29743D01*
X26902Y30141D01*
X26597Y30445D01*
X26200Y30610D01*
X25968D01*
Y36938D01*
X26393Y37303D01*
X26823D01*
X27221Y37468D01*
X27500Y37747D01*
X28217D01*
X28318Y37788D01*
X28755Y37875D01*
X29123Y38121D01*
X29225Y38163D01*
X29232Y38170D01*
X29542Y38118D01*
X29823Y37617D01*
Y37186D01*
X29988Y36788D01*
X30292Y36484D01*
X30330Y36468D01*
X30447Y35878D01*
X28124Y33555D01*
X28082Y33453D01*
X27836Y33086D01*
X27749Y32649D01*
X27707Y32548D01*
Y22570D01*
X27713Y22557D01*
X27677Y22471D01*
X27665Y22466D01*
X26943Y21745D01*
X26839Y21702D01*
X24514D01*
X24235Y21981D01*
X24064Y22052D01*
X24050Y22288D01*
X24114Y22572D01*
X24432Y22704D01*
X24737Y23009D01*
X24902Y23407D01*
Y23837D01*
X24737Y24235D01*
X24432Y24540D01*
X24034Y24705D01*
X23604D01*
X23206Y24540D01*
X22901Y24235D01*
X22736Y23837D01*
Y23407D01*
X22901Y23009D01*
X23206Y22704D01*
X23377Y22633D01*
X23391Y22397D01*
X23327Y22113D01*
X23009Y21981D01*
X22704Y21676D01*
X22539Y21278D01*
Y20848D01*
X22704Y20450D01*
X23009Y20145D01*
X23407Y19980D01*
X23837D01*
X24235Y20145D01*
X24514Y20424D01*
X26839D01*
X26940Y20466D01*
X27189Y20515D01*
X27548Y20111D01*
X27461Y19900D01*
Y19470D01*
X27626Y19072D01*
X27930Y18767D01*
X28328Y18602D01*
X28759D01*
X29157Y18767D01*
X29461Y19072D01*
X29626Y19470D01*
Y19900D01*
X29461Y20298D01*
X29157Y20603D01*
X28759Y20768D01*
X28481D01*
X28236Y21229D01*
X28236Y21230D01*
X28569Y21563D01*
X28569Y21564D01*
X28569Y21564D01*
X28611Y21664D01*
X28857Y22033D01*
X28944Y22470D01*
X28953Y22490D01*
X29316Y22648D01*
X29486Y22688D01*
X29844Y22539D01*
X30274D01*
X30672Y22704D01*
X30951Y22983D01*
X32942D01*
X33042Y23024D01*
X33479Y23111D01*
X33847Y23357D01*
X33949Y23400D01*
X35262Y24712D01*
X35353Y24749D01*
X35660Y24650D01*
X35787Y24130D01*
X35696Y24038D01*
X35531Y23641D01*
Y23210D01*
X35696Y22812D01*
X36001Y22507D01*
X36399Y22343D01*
X36830D01*
X37227Y22507D01*
X37532Y22812D01*
X37697Y23210D01*
Y23641D01*
X37532Y24038D01*
X37227Y24343D01*
X36994Y24440D01*
X36983Y24468D01*
X36955Y24970D01*
X37194Y25129D01*
X37296Y25171D01*
X38601Y26476D01*
X38995D01*
X39393Y26641D01*
X39697Y26946D01*
X39862Y27344D01*
Y27774D01*
X39697Y28172D01*
X39393Y28477D01*
X38995Y28642D01*
X38564D01*
X38166Y28477D01*
X37862Y28172D01*
X37697Y27774D01*
Y27380D01*
X36392Y26075D01*
X36288Y26033D01*
X35366D01*
X35265Y25991D01*
X34828Y25904D01*
X34460Y25658D01*
X34359Y25616D01*
X34359Y25616D01*
X34358Y25616D01*
X34005Y25263D01*
X33045Y24304D01*
X32942Y24261D01*
X30951D01*
X30672Y24540D01*
X30274Y24705D01*
X29844D01*
X29486Y24556D01*
X29279Y24629D01*
X28986Y24787D01*
Y32548D01*
X29028Y32652D01*
X36484Y40108D01*
X36836Y40460D01*
X36837Y40461D01*
X36837Y40461D01*
X36879Y40562D01*
X37125Y40930D01*
X37212Y41367D01*
X37253Y41468D01*
Y52258D01*
X37532Y52536D01*
X37629Y52771D01*
X38074Y52994D01*
X38197Y53014D01*
X38287Y52959D01*
Y52934D01*
X38452Y52536D01*
X38757Y52232D01*
X39155Y52067D01*
X39585D01*
X39983Y52232D01*
X40028Y52276D01*
X40354Y52492D01*
X40681Y52276D01*
X40725Y52232D01*
X41123Y52067D01*
X41554D01*
X41952Y52232D01*
X42256Y52536D01*
X42421Y52934D01*
Y53365D01*
X42351Y53535D01*
X42518Y53981D01*
X42519Y53982D01*
X42746Y53985D01*
X43064Y53490D01*
X43012Y53365D01*
Y52934D01*
X43177Y52536D01*
X43481Y52232D01*
X43879Y52067D01*
X44310D01*
X44708Y52232D01*
X45012Y52536D01*
X45177Y52934D01*
Y53365D01*
X45101Y53550D01*
X45283Y54066D01*
X45346Y54137D01*
X45352Y54138D01*
X46562Y52928D01*
X46605Y52823D01*
Y35169D01*
X46610Y35156D01*
X46575Y35070D01*
X46562Y35065D01*
X41116Y29618D01*
X41074Y29516D01*
X40828Y29149D01*
X40741Y28712D01*
X40699Y28611D01*
Y26901D01*
X40741Y26800D01*
X40828Y26363D01*
X41076Y25993D01*
X41117Y25892D01*
X42224Y24785D01*
Y24391D01*
X42389Y23993D01*
X42694Y23688D01*
X43092Y23524D01*
X43522D01*
X43920Y23688D01*
X44225Y23993D01*
X44390Y24391D01*
Y24822D01*
X44225Y25220D01*
X43920Y25524D01*
X43522Y25689D01*
X43205D01*
X42885Y26048D01*
X43020Y26513D01*
X43330Y26641D01*
X43374Y26686D01*
X43701Y26902D01*
X44027Y26686D01*
X44072Y26641D01*
X44470Y26476D01*
X44900D01*
X45298Y26641D01*
X45603Y26946D01*
X45768Y27344D01*
Y27774D01*
X45603Y28172D01*
X45298Y28477D01*
X44900Y28642D01*
X44470D01*
X44072Y28477D01*
X44027Y28433D01*
X43701Y28216D01*
X43374Y28433D01*
X43330Y28477D01*
X42932Y28642D01*
X42654D01*
X42409Y29103D01*
X42409Y29104D01*
X47114Y33808D01*
X47466Y34161D01*
X47467Y34162D01*
X47660Y34290D01*
X47803Y34274D01*
X48210Y34112D01*
X48324Y33835D01*
X48368Y33791D01*
X48585Y33465D01*
X48368Y33138D01*
X48324Y33094D01*
X48160Y32696D01*
Y32265D01*
X48324Y31867D01*
X48629Y31563D01*
X49027Y31398D01*
X49458D01*
X49856Y31563D01*
X50160Y31867D01*
X50325Y32265D01*
Y32696D01*
X50160Y33094D01*
X50116Y33138D01*
X49899Y33465D01*
X50116Y33791D01*
X50160Y33835D01*
X50325Y34233D01*
Y34664D01*
X50160Y35062D01*
X50116Y35106D01*
X49900Y35433D01*
X50116Y35760D01*
X50160Y35804D01*
X50325Y36202D01*
Y36633D01*
X50160Y37031D01*
X50116Y37075D01*
X49899Y37402D01*
X50116Y37728D01*
X50160Y37772D01*
X50325Y38170D01*
Y38601D01*
X50160Y38999D01*
X49856Y39303D01*
X49458Y39468D01*
X49027D01*
X48629Y39303D01*
X48383Y39058D01*
X48106Y39104D01*
X47883Y39211D01*
Y52823D01*
X47842Y52924D01*
X47755Y53361D01*
X47507Y53732D01*
X47465Y53832D01*
X47465Y53832D01*
X47465Y53832D01*
X46312Y54986D01*
X45958Y55339D01*
X45958Y55339D01*
X45958Y55339D01*
X45858Y55381D01*
X45487Y55629D01*
X45050Y55716D01*
X44949Y55757D01*
X43215D01*
X42936Y56036D01*
X42538Y56201D01*
X42517D01*
X41136Y57582D01*
X40787Y57941D01*
X40787Y57941D01*
X40191Y58399D01*
X39497Y58686D01*
X38752Y58785D01*
Y58777D01*
X34441D01*
X34233Y59277D01*
X34382Y59426D01*
X34547Y59824D01*
Y60255D01*
X34382Y60653D01*
X34078Y60957D01*
X33680Y61122D01*
X33249D01*
X32851Y60957D01*
X32547Y60653D01*
X32382Y60255D01*
Y60154D01*
X31882Y59947D01*
X28844Y62984D01*
X28900Y63233D01*
X29023Y63512D01*
X29353Y63649D01*
X29528Y63823D01*
X29702Y63649D01*
X30100Y63484D01*
X30530D01*
X30928Y63649D01*
X31233Y63954D01*
X31398Y64352D01*
Y64782D01*
X31306Y65003D01*
X31534Y65445D01*
X31599Y65503D01*
X37421D01*
X37522Y65544D01*
X37959Y65631D01*
X38299Y65858D01*
X38412Y65903D01*
X39169Y66634D01*
X39585D01*
X39983Y66799D01*
X40288Y67103D01*
X40453Y67501D01*
Y67932D01*
X40288Y68330D01*
X39983Y68634D01*
X39585Y68799D01*
X39155D01*
X38757Y68634D01*
X38452Y68330D01*
X38287Y67932D01*
Y67560D01*
X37816Y67105D01*
X37692Y67133D01*
X37303Y67501D01*
Y67932D01*
X37138Y68330D01*
X36834Y68634D01*
X36436Y68799D01*
X36005D01*
X35607Y68634D01*
X35303Y68330D01*
X35138Y67932D01*
Y67501D01*
X35229Y67281D01*
X35001Y66838D01*
X34936Y66781D01*
X23161D01*
X23148Y66776D01*
X23060Y66812D01*
X23053Y66827D01*
X21555Y68325D01*
Y68719D01*
X21390Y69117D01*
X21086Y69422D01*
X20853Y69518D01*
Y70049D01*
X21086Y70145D01*
X21390Y70450D01*
X21555Y70848D01*
Y71278D01*
X21390Y71676D01*
X21086Y71981D01*
X20853Y72077D01*
Y72608D01*
X21086Y72704D01*
X21390Y73009D01*
X21555Y73407D01*
Y73837D01*
X21390Y74235D01*
X21086Y74540D01*
X20688Y74705D01*
X20257D01*
X19859Y74540D01*
X19555Y74235D01*
X19390Y73837D01*
Y73407D01*
X19555Y73009D01*
X19808Y72755D01*
X19860Y72578D01*
X19862Y72162D01*
X19638Y71966D01*
X13169D01*
X8619Y76516D01*
X8290Y76864D01*
X8051Y77265D01*
X8043Y77304D01*
X8141Y77540D01*
Y77971D01*
X7976Y78369D01*
X7672Y78674D01*
X7274Y78839D01*
D02*
G37*
G36*
X89979Y63484D02*
X89548D01*
X89151Y63319D01*
X88846Y63015D01*
X88681Y62617D01*
Y62186D01*
X88836Y61811D01*
X88681Y61436D01*
Y61005D01*
X88836Y60630D01*
X88681Y60255D01*
Y59824D01*
X88846Y59426D01*
X89151Y59122D01*
X89548Y58957D01*
X89979D01*
X90377Y59122D01*
X90682Y59426D01*
X90847Y59824D01*
Y60255D01*
X90691Y60630D01*
X90847Y61005D01*
Y61436D01*
X90691Y61811D01*
X90847Y62186D01*
Y62617D01*
X90682Y63015D01*
X90377Y63319D01*
X89979Y63484D01*
D02*
G37*
G36*
X68433Y58957D02*
X68003D01*
X67628Y58801D01*
X67252Y58957D01*
X66822D01*
X66424Y58792D01*
X66119Y58487D01*
X65954Y58089D01*
Y57659D01*
X66119Y57261D01*
X66424Y56956D01*
X66822Y56791D01*
X67252D01*
X67628Y56947D01*
X68003Y56791D01*
X68433D01*
X68831Y56956D01*
X69136Y57261D01*
X69301Y57659D01*
Y58089D01*
X69136Y58487D01*
X68831Y58792D01*
X68433Y58957D01*
D02*
G37*
G36*
X28759D02*
X28328D01*
X27953Y58801D01*
X27578Y58957D01*
X27147D01*
X26749Y58792D01*
X26444Y58487D01*
X26280Y58089D01*
Y57659D01*
X26444Y57261D01*
X26749Y56956D01*
X27147Y56791D01*
X27578D01*
X27953Y56947D01*
X28328Y56791D01*
X28759D01*
X29157Y56956D01*
X29461Y57261D01*
X29626Y57659D01*
Y58089D01*
X29461Y58487D01*
X29157Y58792D01*
X28759Y58957D01*
D02*
G37*
G36*
X87223Y60532D02*
X86793D01*
X86395Y60367D01*
X86090Y60062D01*
X85925Y59664D01*
Y59233D01*
X86013Y59022D01*
X85880Y58751D01*
X85624Y58718D01*
X85317Y58734D01*
X85062Y58989D01*
X84664Y59153D01*
X84233D01*
X83836Y58989D01*
X83531Y58684D01*
X83366Y58286D01*
Y57855D01*
X83531Y57458D01*
X83836Y57153D01*
X84233Y56988D01*
X84664D01*
X85062Y57153D01*
X85293Y57384D01*
X85568Y57469D01*
X85808Y57483D01*
X85902Y57444D01*
X85937Y57330D01*
X85925Y57302D01*
Y56871D01*
X85965Y56775D01*
X85607Y56626D01*
X85303Y56322D01*
X85138Y55924D01*
Y55493D01*
X85293Y55118D01*
X85138Y54743D01*
Y54312D01*
X85293Y53937D01*
X85138Y53562D01*
Y53131D01*
X85293Y52756D01*
X85138Y52381D01*
Y51950D01*
X85293Y51575D01*
X85138Y51200D01*
Y50769D01*
X85303Y50371D01*
X85607Y50066D01*
X86005Y49902D01*
X86436D01*
X86811Y50057D01*
X87186Y49902D01*
X87617D01*
X87992Y50057D01*
X88367Y49902D01*
X88798D01*
X89173Y50057D01*
X89548Y49902D01*
X89979D01*
X90354Y50057D01*
X90729Y49902D01*
X91160D01*
X91558Y50066D01*
X91863Y50371D01*
X92028Y50769D01*
Y51200D01*
X91872Y51575D01*
X92028Y51950D01*
Y52381D01*
X91872Y52756D01*
X92028Y53131D01*
Y53562D01*
X91872Y53937D01*
X92028Y54312D01*
Y54743D01*
X91872Y55118D01*
X92028Y55493D01*
Y55924D01*
X91863Y56322D01*
X91558Y56626D01*
X91160Y56791D01*
X90729D01*
X90354Y56636D01*
X89979Y56791D01*
X89548D01*
X89173Y56636D01*
X88798Y56791D01*
X88553D01*
X88344Y56827D01*
X88091Y57218D01*
Y57302D01*
X87935Y57677D01*
X88091Y58052D01*
Y58483D01*
X87935Y58858D01*
X88091Y59233D01*
Y59664D01*
X87926Y60062D01*
X87621Y60367D01*
X87223Y60532D01*
D02*
G37*
G36*
X49034Y60138D02*
X48603D01*
X48206Y59973D01*
X47901Y59668D01*
X47736Y59271D01*
Y58840D01*
X47901Y58442D01*
X48206Y58137D01*
X48603Y57973D01*
X49034D01*
X49432Y58137D01*
X49737Y58442D01*
X49902Y58840D01*
Y59271D01*
X49737Y59668D01*
X49432Y59973D01*
X49034Y60138D01*
D02*
G37*
G36*
X16357Y55610D02*
X15926D01*
X15551Y55455D01*
X15176Y55610D01*
X14745D01*
X14370Y55455D01*
X13995Y55610D01*
X13564D01*
X13189Y55455D01*
X12814Y55610D01*
X12383D01*
X12008Y55455D01*
X11633Y55610D01*
X11202D01*
X10804Y55445D01*
X10499Y55141D01*
X10335Y54743D01*
Y54312D01*
X10490Y53937D01*
X10335Y53562D01*
Y53131D01*
X10490Y52756D01*
X10335Y52381D01*
Y51950D01*
X10490Y51575D01*
X10335Y51200D01*
Y50769D01*
X10499Y50371D01*
X10804Y50066D01*
X11202Y49902D01*
X11633D01*
X12008Y50057D01*
X12383Y49902D01*
X12814D01*
X13189Y50057D01*
X13564Y49902D01*
X13995D01*
X14370Y50057D01*
X14745Y49902D01*
X15176D01*
X15551Y50057D01*
X15926Y49902D01*
X16357D01*
X16755Y50066D01*
X17060Y50371D01*
X17224Y50769D01*
Y51200D01*
X17069Y51575D01*
X17224Y51950D01*
Y52381D01*
X17069Y52756D01*
X17224Y53131D01*
Y53562D01*
X17069Y53937D01*
X17224Y54312D01*
Y54743D01*
X17060Y55141D01*
X16755Y55445D01*
X16357Y55610D01*
D02*
G37*
G36*
X78956Y56201D02*
X78525D01*
X78127Y56036D01*
X77822Y55731D01*
X77658Y55334D01*
Y54903D01*
X77801Y54555D01*
X77930Y54067D01*
X77626Y53763D01*
X77461Y53365D01*
Y52934D01*
X77626Y52536D01*
X77930Y52232D01*
X78328Y52067D01*
X78759D01*
X79157Y52232D01*
X79461Y52536D01*
X79626Y52934D01*
Y53365D01*
X79482Y53712D01*
X79353Y54200D01*
X79658Y54505D01*
X79823Y54903D01*
Y55334D01*
X79658Y55731D01*
X79353Y56036D01*
X78956Y56201D01*
D02*
G37*
G36*
X44310Y49114D02*
X43879D01*
X43481Y48949D01*
X43177Y48645D01*
X43012Y48247D01*
Y47816D01*
X43177Y47418D01*
X43481Y47114D01*
X43879Y46949D01*
X44310D01*
X44708Y47114D01*
X45012Y47418D01*
X45177Y47816D01*
Y48247D01*
X45012Y48645D01*
X44708Y48949D01*
X44310Y49114D01*
D02*
G37*
G36*
X76593Y48327D02*
X76163D01*
X75765Y48162D01*
X75460Y47857D01*
X75295Y47459D01*
Y47029D01*
X75460Y46631D01*
X75765Y46326D01*
X76163Y46161D01*
X76593D01*
X76991Y46326D01*
X77296Y46631D01*
X77461Y47029D01*
Y47459D01*
X77296Y47857D01*
X76991Y48162D01*
X76593Y48327D01*
D02*
G37*
G36*
X24034D02*
X23604D01*
X23206Y48162D01*
X22901Y47857D01*
X22736Y47459D01*
Y47029D01*
X22901Y46631D01*
X23206Y46326D01*
X23604Y46161D01*
X24034D01*
X24432Y46326D01*
X24737Y46631D01*
X24902Y47029D01*
Y47459D01*
X24737Y47857D01*
X24432Y48162D01*
X24034Y48327D01*
D02*
G37*
G36*
X55924Y47933D02*
X55493D01*
X55095Y47768D01*
X54791Y47464D01*
X54626Y47066D01*
Y46635D01*
X54791Y46237D01*
X55095Y45932D01*
X55493Y45768D01*
X55924D01*
X56322Y45932D01*
X56626Y46237D01*
X56791Y46635D01*
Y47066D01*
X56626Y47464D01*
X56322Y47768D01*
X55924Y47933D01*
D02*
G37*
G36*
X78956Y45374D02*
X78525D01*
X78127Y45209D01*
X77822Y44905D01*
X77658Y44507D01*
Y44113D01*
X75762Y42217D01*
X75658Y42175D01*
X70602D01*
X70501Y42133D01*
X70064Y42046D01*
X69696Y41800D01*
X69595Y41758D01*
X69595Y41758D01*
X69594Y41758D01*
X69241Y41405D01*
X60801Y32965D01*
X60759Y32863D01*
X60513Y32495D01*
X60426Y32058D01*
X60384Y31957D01*
Y24514D01*
X60106Y24235D01*
X59941Y23837D01*
Y23407D01*
X60106Y23009D01*
X60410Y22704D01*
X60808Y22539D01*
X61239D01*
X61637Y22704D01*
X61941Y23009D01*
X62106Y23407D01*
Y23837D01*
X61941Y24235D01*
X61663Y24514D01*
Y31957D01*
X61705Y32061D01*
X63269Y33625D01*
X63731Y33433D01*
Y24514D01*
X63452Y24235D01*
X63287Y23837D01*
Y23407D01*
X63452Y23009D01*
X63757Y22704D01*
X64155Y22539D01*
X64203D01*
X64597Y22471D01*
X64665Y22077D01*
Y22029D01*
X64830Y21631D01*
X65135Y21326D01*
X65533Y21161D01*
X65963D01*
X66361Y21326D01*
X66666Y21631D01*
X67190D01*
X67495Y21326D01*
X67893Y21161D01*
X68323D01*
X68721Y21326D01*
X69026Y21631D01*
X69125Y21870D01*
X69652D01*
X69751Y21631D01*
X70056Y21326D01*
X70454Y21161D01*
X70885D01*
X71283Y21326D01*
X71587Y21631D01*
X71587Y21631D01*
X71625Y21646D01*
X72062Y21734D01*
X72430Y21979D01*
X72532Y22022D01*
X72860Y22350D01*
X72861Y22351D01*
X72861Y22351D01*
X72902Y22452D01*
X73148Y22820D01*
X73235Y23257D01*
X73277Y23358D01*
Y26052D01*
X73319Y26155D01*
X76999Y29835D01*
X76999Y29835D01*
X77461Y29590D01*
Y29312D01*
X77626Y28914D01*
X77930Y28610D01*
X78328Y28445D01*
X78759D01*
X79157Y28610D01*
X79461Y28914D01*
X79626Y29312D01*
Y29743D01*
X79461Y30141D01*
X79353Y30578D01*
X79658Y30883D01*
X79823Y31281D01*
Y31711D01*
X79658Y32109D01*
X79353Y32414D01*
X78956Y32579D01*
X78525D01*
X78127Y32414D01*
X77822Y32109D01*
X77801Y32058D01*
X77544Y32007D01*
X77176Y31761D01*
X77168Y31757D01*
X76885Y31946D01*
X76764Y32090D01*
X76837Y32265D01*
Y32696D01*
X76672Y33094D01*
X76367Y33398D01*
X76367Y33398D01*
X76229Y33943D01*
X76454Y34203D01*
X77848D01*
X78127Y33925D01*
X78525Y33760D01*
X78956D01*
X79353Y33925D01*
X79658Y34229D01*
X79823Y34627D01*
Y35058D01*
X79658Y35456D01*
X79503Y35611D01*
X79405Y35925D01*
X79503Y36240D01*
X79658Y36395D01*
X79823Y36792D01*
Y37223D01*
X79658Y37621D01*
X79503Y37776D01*
X79405Y38091D01*
X79503Y38405D01*
X79658Y38560D01*
X79823Y38958D01*
Y39389D01*
X79658Y39786D01*
X79417Y40028D01*
X79354Y40123D01*
X79364Y40628D01*
X79461Y40725D01*
X79626Y41123D01*
Y41554D01*
X79461Y41952D01*
X79157Y42256D01*
X78759Y42421D01*
X78481D01*
X78263Y42832D01*
X78543Y43178D01*
X78574Y43209D01*
X78956D01*
X79353Y43374D01*
X79658Y43678D01*
X79823Y44076D01*
Y44507D01*
X79658Y44905D01*
X79353Y45209D01*
X78956Y45374D01*
D02*
G37*
G36*
X53335Y45374D02*
X52905D01*
X52507Y45209D01*
X52202Y44904D01*
X52037Y44506D01*
Y44076D01*
X52202Y43678D01*
X52246Y43634D01*
X52463Y43307D01*
X52246Y42980D01*
X52202Y42936D01*
X52037Y42538D01*
Y42108D01*
X52202Y41710D01*
X52247Y41665D01*
X52463Y41339D01*
X52247Y41012D01*
X52202Y40967D01*
X52037Y40569D01*
Y40139D01*
X52202Y39741D01*
X52507Y39436D01*
X52905Y39271D01*
X53335D01*
X53733Y39436D01*
X54038Y39741D01*
X54203Y40139D01*
Y40569D01*
X54038Y40967D01*
X53993Y41012D01*
X53777Y41339D01*
X53993Y41665D01*
X54038Y41710D01*
X54203Y42108D01*
Y42538D01*
X54038Y42936D01*
X53994Y42980D01*
X53777Y43307D01*
X53994Y43634D01*
X54038Y43678D01*
X54203Y44076D01*
Y44506D01*
X54038Y44904D01*
X53733Y45209D01*
X53335Y45374D01*
D02*
G37*
G36*
X16357Y36122D02*
X15926D01*
X15551Y35967D01*
X15176Y36122D01*
X14745D01*
X14370Y35967D01*
X13995Y36122D01*
X13564D01*
X13189Y35967D01*
X12814Y36122D01*
X12383D01*
X12008Y35967D01*
X11633Y36122D01*
X11202D01*
X10804Y35957D01*
X10499Y35653D01*
X10335Y35255D01*
Y34824D01*
X10490Y34449D01*
X10335Y34074D01*
Y33643D01*
X10490Y33268D01*
X10335Y32893D01*
Y32462D01*
X10490Y32087D01*
X10335Y31711D01*
Y31281D01*
X10490Y30906D01*
X10335Y30530D01*
Y30100D01*
X10499Y29702D01*
X10804Y29397D01*
X11202Y29232D01*
X11633D01*
X12008Y29388D01*
X12383Y29232D01*
X12814D01*
X13189Y29388D01*
X13564Y29232D01*
X13995D01*
X14370Y29388D01*
X14745Y29232D01*
X15176D01*
X15551Y29388D01*
X15926Y29232D01*
X16357D01*
X16755Y29397D01*
X17060Y29702D01*
X17224Y30100D01*
Y30530D01*
X17069Y30906D01*
X17224Y31281D01*
Y31711D01*
X17069Y32087D01*
X17224Y32462D01*
Y32893D01*
X17069Y33268D01*
X17224Y33643D01*
Y34074D01*
X17069Y34449D01*
X17224Y34824D01*
Y35255D01*
X17060Y35653D01*
X16755Y35957D01*
X16357Y36122D01*
D02*
G37*
G36*
X91160Y36122D02*
X90729D01*
X90354Y35967D01*
X89979Y36122D01*
X89548D01*
X89173Y35967D01*
X88798Y36122D01*
X88367D01*
X87992Y35967D01*
X87617Y36122D01*
X87186D01*
X86811Y35967D01*
X86436Y36122D01*
X86005D01*
X85607Y35957D01*
X85303Y35653D01*
X85138Y35255D01*
Y34824D01*
X85293Y34449D01*
X85138Y34074D01*
Y33643D01*
X85293Y33268D01*
X85138Y32893D01*
Y32462D01*
X85293Y32087D01*
X85138Y31711D01*
Y31281D01*
X85293Y30906D01*
X85138Y30530D01*
Y30100D01*
X85303Y29702D01*
X85607Y29397D01*
X86005Y29232D01*
X86436D01*
X86811Y29388D01*
X87186Y29232D01*
X87617D01*
X87992Y29388D01*
X88367Y29232D01*
X88798D01*
X89173Y29388D01*
X89548Y29232D01*
X89979D01*
X90354Y29388D01*
X90729Y29232D01*
X91160D01*
X91558Y29397D01*
X91863Y29702D01*
X92027Y30100D01*
Y30530D01*
X91872Y30906D01*
X92027Y31281D01*
Y31711D01*
X91872Y32087D01*
X92027Y32462D01*
Y32893D01*
X91872Y33268D01*
X92027Y33643D01*
Y34074D01*
X91872Y34449D01*
X92027Y34824D01*
Y35255D01*
X91863Y35653D01*
X91558Y35957D01*
X91160Y36122D01*
D02*
G37*
G36*
X46869Y31004D02*
X46438D01*
X46040Y30839D01*
X45736Y30534D01*
X45571Y30137D01*
Y29706D01*
X45736Y29308D01*
X46040Y29003D01*
X46438Y28839D01*
X46869D01*
X47267Y29003D01*
X47571Y29308D01*
X47736Y29706D01*
Y30137D01*
X47571Y30534D01*
X47267Y30839D01*
X46869Y31004D01*
D02*
G37*
G36*
X34467Y28642D02*
X34037D01*
X33639Y28477D01*
X33334Y28172D01*
X33169Y27774D01*
Y27344D01*
X33334Y26946D01*
X33639Y26641D01*
X34037Y26476D01*
X34467D01*
X34865Y26641D01*
X35170Y26946D01*
X35335Y27344D01*
Y27774D01*
X35170Y28172D01*
X34865Y28477D01*
X34467Y28642D01*
D02*
G37*
G36*
X76593Y24705D02*
X76163D01*
X75765Y24540D01*
X75460Y24235D01*
X75295Y23837D01*
Y23407D01*
X75460Y23009D01*
X75765Y22704D01*
X76163Y22539D01*
X76593D01*
X76991Y22704D01*
X77296Y23009D01*
X77461Y23407D01*
Y23837D01*
X77296Y24235D01*
X76991Y24540D01*
X76593Y24705D01*
D02*
G37*
G36*
X34467Y22539D02*
X34037D01*
X33639Y22375D01*
X33334Y22070D01*
X33169Y21672D01*
Y21241D01*
X33334Y20843D01*
X33639Y20539D01*
X34037Y20374D01*
X34467D01*
X34865Y20539D01*
X35170Y20843D01*
X35335Y21241D01*
Y21672D01*
X35170Y22070D01*
X34865Y22375D01*
X34467Y22539D01*
D02*
G37*
G36*
X78956Y21949D02*
X78525D01*
X78127Y21784D01*
X77822Y21479D01*
X77658Y21081D01*
Y20651D01*
X77822Y20253D01*
X78127Y19948D01*
X78525Y19783D01*
X78956D01*
X79353Y19948D01*
X79658Y20253D01*
X79823Y20651D01*
Y21081D01*
X79658Y21479D01*
X79353Y21784D01*
X78956Y21949D01*
D02*
G37*
G36*
X41671Y21635D02*
X41241D01*
X40843Y21470D01*
X40538Y21165D01*
X40373Y20767D01*
Y20337D01*
X40538Y19939D01*
X40843Y19634D01*
X41241Y19469D01*
X41671D01*
X42069Y19634D01*
X42374Y19939D01*
X42539Y20337D01*
Y20767D01*
X42374Y21165D01*
X42069Y21470D01*
X41671Y21635D01*
D02*
G37*
G36*
X73058Y16633D02*
X72628D01*
X72230Y16469D01*
X71925Y16164D01*
X71760Y15766D01*
Y15335D01*
X71925Y14938D01*
X72230Y14633D01*
X72628Y14468D01*
X73058D01*
X73456Y14633D01*
X73761Y14938D01*
X73926Y15335D01*
Y15766D01*
X73761Y16164D01*
X73456Y16469D01*
X73058Y16633D01*
D02*
G37*
G36*
X33688D02*
X33258D01*
X32860Y16469D01*
X32555Y16164D01*
X32390Y15766D01*
Y15335D01*
X32555Y14938D01*
X32860Y14633D01*
X33258Y14468D01*
X33688D01*
X34086Y14633D01*
X34391Y14938D01*
X34556Y15335D01*
Y15766D01*
X34391Y16164D01*
X34086Y16469D01*
X33688Y16633D01*
D02*
G37*
G36*
X78620Y11909D02*
X78190D01*
X77792Y11745D01*
X77487Y11440D01*
X77323Y11042D01*
Y10611D01*
X77487Y10214D01*
X77792Y9909D01*
X78190Y9744D01*
X78620D01*
X79018Y9909D01*
X79323Y10214D01*
X79488Y10611D01*
Y11042D01*
X79323Y11440D01*
X79018Y11745D01*
X78620Y11909D01*
D02*
G37*
G36*
X39250D02*
X38820D01*
X38422Y11745D01*
X38117Y11440D01*
X37952Y11042D01*
Y10611D01*
X38117Y10214D01*
X38422Y9909D01*
X38820Y9744D01*
X39250D01*
X39648Y9909D01*
X39953Y10214D01*
X40118Y10611D01*
Y11042D01*
X39953Y11440D01*
X39648Y11745D01*
X39250Y11909D01*
D02*
G37*
G36*
X27184D02*
X26753D01*
X26355Y11745D01*
X26051Y11440D01*
X25886Y11042D01*
Y10611D01*
X26051Y10214D01*
X26355Y9909D01*
X26753Y9744D01*
X27184D01*
X27582Y9909D01*
X27886Y10214D01*
X28051Y10611D01*
Y11042D01*
X27886Y11440D01*
X27582Y11745D01*
X27184Y11909D01*
D02*
G37*
G36*
X24172D02*
X23742D01*
X23344Y11745D01*
X23039Y11440D01*
X22874Y11042D01*
Y10611D01*
X23039Y10214D01*
X23344Y9909D01*
X23742Y9744D01*
X24172D01*
X24570Y9909D01*
X24875Y10214D01*
X25040Y10611D01*
Y11042D01*
X24875Y11440D01*
X24570Y11745D01*
X24172Y11909D01*
D02*
G37*
G36*
X71278Y11713D02*
X70848D01*
X70450Y11548D01*
X70145Y11243D01*
X69980Y10845D01*
Y10415D01*
X70145Y10017D01*
X70450Y9712D01*
X70848Y9547D01*
X71278D01*
X71676Y9712D01*
X71981Y10017D01*
X72146Y10415D01*
Y10845D01*
X71981Y11243D01*
X71676Y11548D01*
X71278Y11713D01*
D02*
G37*
G36*
X76995Y7185D02*
X76565D01*
X76167Y7021D01*
X76122Y6976D01*
X75796Y6760D01*
X75469Y6976D01*
X75424Y7021D01*
X75027Y7185D01*
X74596D01*
X74198Y7021D01*
X73893Y6716D01*
X73729Y6318D01*
Y5887D01*
X73893Y5489D01*
X74198Y5185D01*
X74596Y5020D01*
X75027D01*
X75424Y5185D01*
X75469Y5229D01*
X75796Y5445D01*
X76122Y5229D01*
X76167Y5185D01*
X76565Y5020D01*
X76995D01*
X77393Y5185D01*
X77698Y5489D01*
X77863Y5887D01*
Y6318D01*
X77698Y6716D01*
X77393Y7021D01*
X76995Y7185D01*
D02*
G37*
G36*
X37625D02*
X37195D01*
X36797Y7021D01*
X36752Y6976D01*
X36426Y6760D01*
X36099Y6976D01*
X36054Y7021D01*
X35656Y7185D01*
X35226D01*
X34828Y7021D01*
X34523Y6716D01*
X34358Y6318D01*
Y5887D01*
X34523Y5489D01*
X34828Y5185D01*
X35226Y5020D01*
X35656D01*
X36054Y5185D01*
X36099Y5229D01*
X36426Y5445D01*
X36752Y5229D01*
X36797Y5185D01*
X37195Y5020D01*
X37625D01*
X38023Y5185D01*
X38328Y5489D01*
X38493Y5887D01*
Y6318D01*
X38328Y6716D01*
X38023Y7021D01*
X37625Y7185D01*
D02*
G37*
G36*
X27782D02*
X27352D01*
X26954Y7021D01*
X26910Y6977D01*
X26583Y6760D01*
X26256Y6977D01*
X26212Y7021D01*
X25814Y7185D01*
X25384D01*
X24986Y7021D01*
X24681Y6716D01*
X24516Y6318D01*
Y5887D01*
X24681Y5489D01*
X24986Y5185D01*
X25384Y5020D01*
X25814D01*
X26212Y5185D01*
X26256Y5229D01*
X26583Y5446D01*
X26910Y5229D01*
X26954Y5185D01*
X27352Y5020D01*
X27782D01*
X28180Y5185D01*
X28485Y5489D01*
X28650Y5887D01*
Y6318D01*
X28485Y6716D01*
X28180Y7021D01*
X27782Y7185D01*
D02*
G37*
G36*
X31719D02*
X31289D01*
X30891Y7021D01*
X30586Y6716D01*
X30421Y6318D01*
Y5887D01*
X30586Y5489D01*
X30891Y5185D01*
X31289Y5020D01*
X31719D01*
X32117Y5185D01*
X32422Y5489D01*
X32587Y5887D01*
Y6318D01*
X32422Y6716D01*
X32117Y7021D01*
X31719Y7185D01*
D02*
G37*
%LPD*%
G36*
X30554Y123278D02*
X30524Y123306D01*
X30492Y123331D01*
X30458Y123353D01*
X30421Y123372D01*
X30383Y123388D01*
X30342Y123402D01*
X30300Y123412D01*
X30255Y123419D01*
X30208Y123424D01*
X30159Y123425D01*
Y123819D01*
X30208Y123820D01*
X30255Y123825D01*
X30300Y123832D01*
X30342Y123843D01*
X30383Y123856D01*
X30421Y123872D01*
X30458Y123891D01*
X30492Y123913D01*
X30524Y123939D01*
X30554Y123967D01*
Y123278D01*
D02*
G37*
G36*
X71838Y122757D02*
X71870Y122732D01*
X71904Y122710D01*
X71941Y122691D01*
X71979Y122675D01*
X72020Y122661D01*
X72062Y122651D01*
X72107Y122644D01*
X72154Y122639D01*
X72203Y122638D01*
Y122244D01*
X72154Y122243D01*
X72107Y122238D01*
X72062Y122231D01*
X72020Y122221D01*
X71979Y122207D01*
X71941Y122191D01*
X71904Y122172D01*
X71870Y122150D01*
X71838Y122125D01*
X71808Y122097D01*
Y122785D01*
X71838Y122757D01*
D02*
G37*
G36*
X30554Y38632D02*
X30524Y38660D01*
X30492Y38685D01*
X30458Y38707D01*
X30421Y38726D01*
X30383Y38743D01*
X30343Y38756D01*
X30300Y38766D01*
X30255Y38774D01*
X30208Y38778D01*
X30159Y38780D01*
Y39173D01*
X30208Y39175D01*
X30255Y39179D01*
X30300Y39186D01*
X30343Y39197D01*
X30383Y39210D01*
X30421Y39226D01*
X30458Y39246D01*
X30492Y39268D01*
X30524Y39293D01*
X30554Y39321D01*
Y38632D01*
D02*
G37*
G36*
X71838Y38112D02*
X71870Y38087D01*
X71904Y38065D01*
X71941Y38045D01*
X71979Y38029D01*
X72020Y38016D01*
X72062Y38005D01*
X72107Y37998D01*
X72154Y37994D01*
X72203Y37992D01*
Y37598D01*
X72154Y37597D01*
X72107Y37593D01*
X72062Y37585D01*
X72020Y37575D01*
X71979Y37562D01*
X71941Y37545D01*
X71904Y37526D01*
X71870Y37504D01*
X71838Y37479D01*
X71808Y37451D01*
Y38140D01*
X71838Y38112D01*
D02*
G37*
D72*
X30872Y145833D02*
G03*
X31102Y146389I-558J556D01*
G01*
X33235Y147015D02*
G03*
X33465Y147571I-558J556D01*
G01*
X29607Y151772D02*
G03*
X29052Y151542I0J-787D01*
G01*
X51575Y136053D02*
G03*
X51346Y136608I-787J-0D01*
G01*
X39206Y151542D02*
G03*
X38650Y151772I-556J-558D01*
G01*
X50558Y97931D02*
G03*
X50787Y98487I-558J556D01*
G01*
Y135697D02*
G03*
X50559Y136252I-787J-0D01*
G01*
X31183Y150984D02*
G03*
X30627Y150755I0J-787D01*
G01*
X42255Y94488D02*
G03*
X41699Y94259I0J-787D01*
G01*
X38812Y150755D02*
G03*
X38256Y150984I-556J-558D01*
G01*
X49705Y137432D02*
G03*
X49939Y136872I787J0D01*
G01*
X46789Y94488D02*
G03*
X47344Y94718I0J787D01*
G01*
X49705Y139536D02*
G03*
X49475Y140092I-787J0D01*
G01*
X41175Y93734D02*
G03*
X40945Y93178I558J-556D01*
G01*
Y91665D02*
G03*
X41175Y91109I787J0D01*
G01*
X34646Y99674D02*
G03*
X34416Y100230I-787J-0D01*
G01*
X34426Y75419D02*
G03*
X34646Y75964I-568J546D01*
G01*
X22572Y136352D02*
G03*
X22343Y135796I558J-556D01*
G01*
X31333Y103313D02*
G03*
X30776Y103543I-557J-557D01*
G01*
X22343Y106095D02*
G03*
X22570Y105542I787J0D01*
G01*
X24340Y103771D02*
G03*
X24895Y103543I554J559D01*
G01*
X31496Y72767D02*
G03*
X31723Y72214I787J0D01*
G01*
X23984Y102984D02*
G03*
X24539Y102756I554J559D01*
G01*
X21457Y105838D02*
G03*
X21684Y105285I787J0D01*
G01*
X21686Y136647D02*
G03*
X21457Y136091I558J-556D01*
G01*
X31496Y101642D02*
G03*
X31265Y102199I-787J-0D01*
G01*
X32840Y71097D02*
G03*
X33397Y70866I557J557D01*
G01*
X30939Y102525D02*
G03*
X30382Y102756I-557J-557D01*
G01*
X46327Y92913D02*
G03*
X46883Y93143I0J787D01*
G01*
X28217Y123031D02*
G03*
X28773Y123261I0J787D01*
G01*
X61811Y50019D02*
G03*
X61585Y50571I-787J0D01*
G01*
X59842Y77430D02*
G03*
X59612Y77987I-787J0D01*
G01*
X60794Y44258D02*
G03*
X61024Y44814I-558J556D01*
G01*
X50492Y139930D02*
G03*
X50262Y140486I-787J0D01*
G01*
X69421Y137795D02*
G03*
X68865Y137566I0J-787D01*
G01*
X56693Y68965D02*
G03*
X56462Y69522I-787J0D01*
G01*
X77688Y101772D02*
G03*
X77133Y101542I0J-787D01*
G01*
X30838Y139173D02*
G03*
X30282Y138944I0J-787D01*
G01*
X68572Y106890D02*
G03*
X69127Y107119I0J787D01*
G01*
X64140Y107119D02*
G03*
X64696Y106890I556J558D01*
G01*
X72767Y119291D02*
G03*
X72211Y119062I0J-787D01*
G01*
X37421Y66142D02*
G03*
X37968Y66363I0J787D01*
G01*
X47014Y34613D02*
G03*
X47244Y35169I-558J556D01*
G01*
Y52823D02*
G03*
X47014Y53380I-787J0D01*
G01*
X66997Y136024D02*
G03*
X67552Y136253I0J787D01*
G01*
X61253Y32513D02*
G03*
X61024Y31957I558J-556D01*
G01*
X36288Y25394D02*
G03*
X36844Y25623I0J787D01*
G01*
X36384Y135400D02*
G03*
X36614Y135956I-558J556D01*
G01*
X31135Y52198D02*
G03*
X30906Y51642I558J-556D01*
G01*
X41109Y128904D02*
G03*
X41339Y129460I-558J556D01*
G01*
X64600Y34678D02*
G03*
X64370Y34123I558J-556D01*
G01*
X28117Y22014D02*
G03*
X28346Y22570I-558J556D01*
G01*
X26839Y21063D02*
G03*
X27395Y21293I0J787D01*
G01*
X35366Y110039D02*
G03*
X34810Y109810I0J-787D01*
G01*
X69062Y23198D02*
G03*
X69291Y23754I-558J556D01*
G01*
X56514Y78971D02*
G03*
X57071Y78740I557J556D01*
G01*
X37762Y126739D02*
G03*
X37992Y127295I-558J556D01*
G01*
X76381Y131887D02*
G03*
X76378Y131890I-563J-550D01*
G01*
X29954Y138615D02*
G03*
X29724Y138060I558J-556D01*
G01*
X72867Y26607D02*
G03*
X72638Y26052I558J-556D01*
G01*
X33300Y48655D02*
G03*
X33071Y48099I558J-556D01*
G01*
X59088Y78510D02*
G03*
X58532Y78740I-556J-558D01*
G01*
X65978Y26017D02*
G03*
X65748Y25461I558J-556D01*
G01*
X50492Y137788D02*
G03*
X50726Y137228I787J0D01*
G01*
X51345Y97605D02*
G03*
X51575Y98161I-558J556D01*
G01*
X78739Y70243D02*
G03*
X78183Y70474I-557J-557D01*
G01*
X70602Y41535D02*
G03*
X70046Y41306I0J-787D01*
G01*
X32942Y23622D02*
G03*
X33497Y23852I0J787D01*
G01*
X75658Y41535D02*
G03*
X76214Y41765I0J787D01*
G01*
X35366Y25394D02*
G03*
X34810Y25164I0J-787D01*
G01*
X33791Y54528D02*
G03*
X33235Y54298I0J-787D01*
G01*
X29595Y42126D02*
G03*
X30151Y42355I0J787D01*
G01*
X29005Y117126D02*
G03*
X29560Y117356I0J787D01*
G01*
X33300Y132316D02*
G03*
X33071Y131761I558J-556D01*
G01*
X32841Y127329D02*
G03*
X33071Y127885I-558J556D01*
G01*
X38223Y54297D02*
G03*
X37666Y54528I-557J-557D01*
G01*
X70995Y40748D02*
G03*
X70440Y40518I0J-787D01*
G01*
X36384Y40912D02*
G03*
X36614Y41468I-558J556D01*
G01*
X30676Y42881D02*
G03*
X30906Y43436I-558J556D01*
G01*
X77218Y40545D02*
G03*
X76691Y40748I-527J-585D01*
G01*
X28576Y33103D02*
G03*
X28346Y32548I558J-556D01*
G01*
X36288Y110039D02*
G03*
X36844Y110269I0J787D01*
G01*
X32942Y108268D02*
G03*
X33497Y108497I0J787D01*
G01*
X58268Y54263D02*
G03*
X58495Y53710I787J0D01*
G01*
X75958Y121752D02*
G03*
X76514Y121982I0J787D01*
G01*
X72408Y22802D02*
G03*
X72638Y23358I-558J556D01*
G01*
X66074Y136024D02*
G03*
X65518Y135794I0J-787D01*
G01*
X76609Y74966D02*
G03*
X76052Y75197I-557J-557D01*
G01*
X82446Y69129D02*
G03*
X83003Y68898I557J556D01*
G01*
X24280Y129921D02*
G03*
X24836Y130151I0J787D01*
G01*
X71524Y22244D02*
G03*
X72080Y22474I0J787D01*
G01*
X55348Y38812D02*
G03*
X55118Y38256I558J-556D01*
G01*
X32841Y132970D02*
G03*
X33071Y133526I-558J556D01*
G01*
X73979Y121752D02*
G03*
X73423Y121522I0J-787D01*
G01*
X25328Y30509D02*
G03*
X25559Y29953I787J0D01*
G01*
X55118Y18669D02*
G03*
X55348Y18113I787J-0D01*
G01*
X33301Y138220D02*
G03*
X33071Y137664I557J-557D01*
G01*
X32054Y43010D02*
G03*
X32283Y43566I-558J556D01*
G01*
X61024Y49674D02*
G03*
X60793Y50231I-787J0D01*
G01*
X68911Y7861D02*
G03*
X68940Y7833I554J559D01*
G01*
X25558Y39145D02*
G03*
X25328Y38590I558J-556D01*
G01*
X28383Y39665D02*
G03*
X28939Y39895I0J787D01*
G01*
X75523Y140354D02*
G03*
X74967Y140125I0J-787D01*
G01*
X61902Y13689D02*
G03*
X61345Y13919I-557J-557D01*
G01*
X55312Y80173D02*
G03*
X55124Y80312I-557J-557D01*
G01*
X68340Y112040D02*
G03*
X68110Y111485I558J-556D01*
G01*
X69521Y34088D02*
G03*
X69291Y33532I558J-556D01*
G01*
X86448Y100560D02*
G03*
X87004Y100330I557J557D01*
G01*
X61581Y43865D02*
G03*
X61811Y44421I-558J556D01*
G01*
X56135Y38419D02*
G03*
X55905Y37863I558J-556D01*
G01*
X60426Y14149D02*
G03*
X60978Y13919I555J558D01*
G01*
X23989Y122037D02*
G03*
X23627Y122243I-557J-557D01*
G01*
X78082Y31496D02*
G03*
X77526Y31266I0J-787D01*
G01*
X28217Y38386D02*
G03*
X28773Y38615I0J787D01*
G01*
X69421Y53150D02*
G03*
X68865Y52920I0J-787D01*
G01*
X74145Y38386D02*
G03*
X73589Y38156I0J-787D01*
G01*
X85467Y101541D02*
G03*
X84910Y101772I-557J-557D01*
G01*
X77034Y130903D02*
G03*
X76807Y131456I-787J-0D01*
G01*
X74245Y139403D02*
G03*
X74016Y138847I558J-556D01*
G01*
X66074Y51378D02*
G03*
X65518Y51148I0J-787D01*
G01*
X58497Y60072D02*
G03*
X58268Y59516I558J-556D01*
G01*
X31367Y120669D02*
G03*
X31922Y120899I0J787D01*
G01*
X32841Y42684D02*
G03*
X33071Y43240I-558J556D01*
G01*
X29495Y134810D02*
G03*
X29724Y135365I-558J556D01*
G01*
X45506Y54887D02*
G03*
X44949Y55118I-557J-557D01*
G01*
X71686Y118537D02*
G03*
X71457Y117981I558J-556D01*
G01*
X26404Y39665D02*
G03*
X25848Y39436I0J-787D01*
G01*
X65978Y120505D02*
G03*
X65748Y119949I558J-556D01*
G01*
X69521Y28447D02*
G03*
X69291Y27891I558J-556D01*
G01*
X34022Y49377D02*
G03*
X34252Y49933I-558J556D01*
G01*
X82745Y103740D02*
G03*
X83300Y103970I0J787D01*
G01*
X59613Y61188D02*
G03*
X59842Y61743I-558J556D01*
G01*
X25123Y120903D02*
G03*
X25683Y120669I560J553D01*
G01*
X41339Y26901D02*
G03*
X41569Y26344I787J0D01*
G01*
X69062Y29101D02*
G03*
X69291Y29657I-558J556D01*
G01*
X69521Y118733D02*
G03*
X69291Y118178I558J-556D01*
G01*
X71227Y109219D02*
G03*
X71457Y109775I-558J556D01*
G01*
X66997Y51378D02*
G03*
X67553Y51608I0J787D01*
G01*
X76243Y34843D02*
G03*
X75687Y34613I0J-787D01*
G01*
X63712Y103740D02*
G03*
X63156Y103510I0J-787D01*
G01*
X56693Y54657D02*
G03*
X56924Y54100I787J0D01*
G01*
X26119Y126575D02*
G03*
X26675Y126804I0J787D01*
G01*
X70308Y118407D02*
G03*
X70079Y117852I558J-556D01*
G01*
X73786Y128314D02*
G03*
X74016Y128869I-558J556D01*
G01*
X22601Y66375D02*
G03*
X23161Y66142I559J554D01*
G01*
X41568Y29166D02*
G03*
X41339Y28611I558J-556D01*
G01*
X76804Y122272D02*
G03*
X77034Y122828I-558J556D01*
G01*
X74145Y123031D02*
G03*
X73589Y122802I0J-787D01*
G01*
X69062Y112762D02*
G03*
X69291Y113318I-558J556D01*
G01*
X55905Y18995D02*
G03*
X56135Y18439I787J0D01*
G01*
X75068Y99803D02*
G03*
X75623Y100033I0J787D01*
G01*
X66937Y8327D02*
G03*
X66707Y8884I-787J0D01*
G01*
X34646Y99674D02*
X34646Y75964D01*
X22570Y105542D02*
X24340Y103771D01*
X50492Y137788D02*
Y139930D01*
X26378Y148868D02*
X29052Y151542D01*
X49705Y137432D02*
Y139536D01*
X38812Y150755D02*
X49475Y140092D01*
X28741Y148868D02*
X30627Y150755D01*
X51575Y136053D02*
X51575Y98161D01*
X39206Y151542D02*
X50262Y140486D01*
X49939Y136872D02*
X50559Y136252D01*
X31183Y150984D02*
X38256D01*
X47344Y94718D02*
X50558Y97931D01*
X42255Y94488D02*
X46789D01*
X41175Y93734D02*
X41699Y94259D01*
X41175Y91109D02*
X42520Y89764D01*
X40945Y91665D02*
Y93178D01*
X31333Y103313D02*
X34416Y100230D01*
X33071Y74016D02*
X34426Y75419D01*
X33465Y147571D02*
Y148868D01*
X22343Y106095D02*
Y135796D01*
X24895Y103543D02*
X30776Y103543D01*
X21684Y105285D02*
X23984Y102984D01*
X33397Y70866D02*
X36220D01*
X30939Y102525D02*
X31265Y102199D01*
X31496Y101642D02*
X31496Y72767D01*
X21457Y105838D02*
Y136091D01*
X24539Y102756D02*
X30382Y102756D01*
X31102Y146389D02*
Y148868D01*
X31723Y72214D02*
X32840Y71097D01*
X34251Y139170D02*
X34254Y139173D01*
X83003Y68898D02*
X94488D01*
X33071Y43240D02*
Y48099D01*
X31135Y52198D02*
X33235Y54298D01*
X38223Y54297D02*
X39370Y53150D01*
X30906Y43436D02*
Y51642D01*
X87004Y100330D02*
X93371D01*
X75623Y100033D02*
X77133Y101542D01*
X77688Y101772D02*
X84910D01*
X62008Y99803D02*
X75068D01*
X61253Y32513D02*
X70046Y41306D01*
X70602Y41535D02*
X75658D01*
X76214Y41765D02*
X78740Y44291D01*
X71457Y37795D02*
X73228D01*
X77218Y40545D02*
X78740Y39173D01*
X64600Y34678D02*
X70440Y40518D01*
X64370Y23622D02*
Y34123D01*
X70995Y40748D02*
X76691D01*
X74145Y38386D02*
X75754Y38386D01*
X65978Y26017D02*
X69062Y29101D01*
X25683Y120669D02*
X31367D01*
X31922Y120899D02*
X37762Y126739D01*
X28773Y123261D02*
X29134Y123622D01*
X26608Y123031D02*
X28217D01*
X62008Y102362D02*
X63156Y103510D01*
X83300Y103970D02*
X86221Y106890D01*
X63712Y103740D02*
X82745D01*
X47244Y35169D02*
Y52823D01*
X69291Y23754D02*
Y27891D01*
X76243Y34843D02*
X78740D01*
X68108Y22244D02*
X69062Y23198D01*
X29607Y151772D02*
X38650D01*
X50787Y135697D02*
X50787Y98487D01*
X26675Y126804D02*
X32841Y132970D01*
X33301Y138220D02*
X34251Y139170D01*
X23622Y117126D02*
X29005D01*
X61902Y13689D02*
X66707Y8884D01*
X58268Y54263D02*
Y59516D01*
X60978Y13919D02*
X61345Y13919D01*
X55118Y18669D02*
Y38256D01*
X56924Y54100D02*
X60793Y50231D01*
X56693Y54657D02*
Y68965D01*
X41568Y29166D02*
X47014Y34613D01*
X41339Y26901D02*
Y28611D01*
X42323Y55118D02*
X44949D01*
X41569Y26344D02*
X43307Y24606D01*
X45506Y54887D02*
X47014Y53380D01*
X85467Y101541D02*
X86448Y100560D01*
X76609Y74966D02*
X82446Y69129D01*
X78739Y70243D02*
X84416Y64567D01*
X74016Y70474D02*
X78183D01*
X72047Y75197D02*
X76052D01*
X59842Y16929D02*
X68911Y7861D01*
X68940Y7833D02*
X70874Y6103D01*
X55312Y80173D02*
X56514Y78971D01*
X59842Y61743D02*
Y77430D01*
X56135Y38419D02*
X61581Y43865D01*
X66937Y8327D02*
X66937Y6103D01*
X58495Y53709D02*
X61585Y50571D01*
X61024Y23622D02*
Y31957D01*
X58497Y60072D02*
X59613Y61188D01*
X55348Y18113D02*
X62461Y11000D01*
X57071Y78740D02*
X58532D01*
X61811Y44421D02*
Y50019D01*
X61024Y44814D02*
Y49674D01*
X55905Y18995D02*
Y37863D01*
X59088Y78510D02*
X59612Y77987D01*
X56135Y18439D02*
X60426Y14149D01*
X55118Y80315D02*
X55124Y80312D01*
X55348Y38812D02*
X60794Y44258D01*
X55118Y70866D02*
X56462Y69522D01*
X23161Y66142D02*
X37421D01*
X36614Y41468D02*
Y53150D01*
X37968Y66363D02*
X39370Y67716D01*
X20472Y68504D02*
X22601Y66375D01*
X22572Y136352D02*
X33235Y147015D01*
X29560Y117356D02*
X41109Y128904D01*
X30838Y139173D02*
X31693D01*
X21686Y136647D02*
X30872Y145833D01*
X50726Y137228D02*
X51346Y136608D01*
X46883Y93143D02*
X51345Y97605D01*
X42520Y92913D02*
X46327D01*
X67552Y136253D02*
X68865Y137566D01*
X35366Y110039D02*
X36288D01*
X36844Y110269D02*
X38780Y112205D01*
X30059Y108268D02*
X32942D01*
X33300Y132316D02*
X36384Y135400D01*
X33071Y127885D02*
Y131761D01*
X36614Y135956D02*
Y139173D01*
X33497Y108497D02*
X34810Y109810D01*
X29134Y123622D02*
X32841Y127329D01*
X33071Y133526D02*
Y137664D01*
X29134Y123622D02*
X30906D01*
X41339Y129460D02*
Y137795D01*
X23622Y129921D02*
X24280D01*
X24836Y130151D02*
X29495Y134810D01*
X23622Y126575D02*
X26119D01*
X29724Y135365D02*
Y138060D01*
X29954Y138615D02*
X30282Y138944D01*
X23989Y122037D02*
X25123Y120903D01*
X37992Y127295D02*
Y137795D01*
X23622Y122244D02*
X23627Y122243D01*
X72080Y22474D02*
X72408Y22802D01*
X70669Y22244D02*
X71524D01*
X72867Y26607D02*
X77526Y31266D01*
X78082Y31496D02*
X78740D01*
X72638Y23358D02*
Y26052D01*
X69521Y28447D02*
X75687Y34613D01*
X69291Y29657D02*
Y33532D01*
X66074Y51378D02*
X66997D01*
X73228Y37795D02*
X73589Y38156D01*
X69521Y34088D02*
X73228Y37795D01*
X65748Y22244D02*
Y25461D01*
X69421Y53150D02*
X72303D01*
X67553Y51608D02*
X68865Y52920D01*
X63583Y49213D02*
X65518Y51148D01*
X69291Y113318D02*
Y118178D01*
X70308Y118407D02*
X73423Y121522D01*
X69521Y118733D02*
X73228Y122441D01*
X71457D02*
X73228D01*
X69421Y137795D02*
X72303D01*
X63583Y133858D02*
X65518Y135794D01*
X66074Y136024D02*
X66997D01*
X74245Y139403D02*
X74967Y140125D01*
X75523Y140354D02*
X78740D01*
X74016Y128869D02*
Y138847D01*
X76514Y121982D02*
X76804Y122272D01*
X76381Y131887D02*
X76807Y131456D01*
X73979Y121752D02*
X75958D01*
X77034Y130903D02*
X77034Y122828D01*
X72767Y119291D02*
X78740D01*
X69127Y107119D02*
X71227Y109219D01*
X74145Y123031D02*
X75754D01*
X68110Y108268D02*
Y111485D01*
X68340Y112040D02*
X69062Y112762D01*
X65748Y108268D02*
Y119949D01*
X65978Y120505D02*
X73786Y128314D01*
X73228Y122441D02*
X73589Y122802D01*
X71686Y118537D02*
X72211Y119062D01*
X70079Y110030D02*
Y117852D01*
X71457Y109775D02*
Y117981D01*
X64696Y106890D02*
X68572D01*
X62992Y108268D02*
X64140Y107119D01*
X33791Y54528D02*
X37666D01*
X26404Y39665D02*
X28383D01*
X27395Y21293D02*
X28117Y22014D01*
X34252Y49933D02*
Y53150D01*
X29134Y38976D02*
X32841Y42684D01*
X26608Y38386D02*
X28217D01*
X23622Y42126D02*
X29595D01*
X30151Y42355D02*
X30676Y42881D01*
X25559Y29953D02*
X25984Y29528D01*
X25558Y39145D02*
X25848Y39436D01*
X32283Y43566D02*
Y51387D01*
X25328Y30509D02*
Y38590D01*
X28346Y22570D02*
Y32548D01*
X23622Y21063D02*
X26839D01*
X28576Y33103D02*
X36384Y40912D01*
X35366Y25394D02*
X36288D01*
X36844Y25623D02*
X38780Y27559D01*
X33497Y23852D02*
X34810Y25164D01*
X30059Y23622D02*
X32942D01*
X29134Y38976D02*
X30906D01*
X28773Y38615D02*
X29134Y38976D01*
X28939Y39895D02*
X32054Y43010D01*
X33300Y48655D02*
X34022Y49377D01*
D73*
X35254Y146278D02*
G03*
X35827Y147666I-1396J1388D01*
G01*
X28132Y139155D02*
G03*
X27559Y137796I1396J-1388D01*
G01*
X27100Y136684D02*
G03*
X27559Y137775I-1115J1112D01*
G01*
X24443Y134843D02*
G03*
X25831Y135415I0J1969D01*
G01*
X40143Y57297D02*
G03*
X38752Y57874I-1392J-1392D01*
G01*
X7070Y77516D02*
G03*
X7641Y76218I1966J90D01*
G01*
X20093Y63765D02*
G03*
X21485Y63189I1391J1392D01*
G01*
X32102Y58450D02*
G03*
X33492Y57874I1391J1393D01*
G01*
X28132Y139155D02*
X35254Y146278D01*
X35827Y147666D02*
Y148868D01*
X27559Y137775D02*
X27559Y137796D01*
X25831Y135415D02*
X27100Y136684D01*
X23819Y134843D02*
X24443D01*
X7641Y76218D02*
X12795Y71063D01*
X40143Y57297D02*
X42323Y55118D01*
X7058Y77756D02*
X7070Y77516D01*
X27362Y63189D02*
X32101Y58450D01*
X33492Y57874D02*
X38752D01*
X21485Y63189D02*
X27362D01*
X12795Y71063D02*
X20093Y63765D01*
X12795Y71063D02*
X20472D01*
D76*
X93307Y54132D02*
D03*
Y55313D02*
D03*
X94488Y54132D02*
D03*
Y55313D02*
D03*
X95669Y54132D02*
D03*
Y55313D02*
D03*
X96850Y54132D02*
D03*
Y55313D02*
D03*
X98032Y54132D02*
D03*
Y55313D02*
D03*
X62008Y52968D02*
D03*
X63976D02*
D03*
X53543Y85039D02*
D03*
X61316Y62205D02*
D03*
X59842Y54528D02*
D03*
X28740Y94095D02*
D03*
X35827Y100984D02*
D03*
X39370Y86614D02*
D03*
X42913Y5810D02*
D03*
X23622Y152953D02*
D03*
X24803D02*
D03*
X22441D02*
D03*
X78740D02*
D03*
X79921D02*
D03*
X77559D02*
D03*
X78740Y145472D02*
D03*
X79921D02*
D03*
X77559D02*
D03*
X23622D02*
D03*
X24803D02*
D03*
X22441D02*
D03*
X71653Y148868D02*
D03*
X69291D02*
D03*
X74016D02*
D03*
X55118Y151575D02*
D03*
X50393Y148868D02*
D03*
X52755D02*
D03*
X35827D02*
D03*
X28741D02*
D03*
X26378D02*
D03*
X33465D02*
D03*
X31102D02*
D03*
X71063Y10630D02*
D03*
X9056Y141340D02*
D03*
X6694Y142521D02*
D03*
X20472Y94488D02*
D03*
X69190Y90551D02*
D03*
X68009D02*
D03*
X25787Y61102D02*
D03*
X23425D02*
D03*
X24606D02*
D03*
X5414Y101772D02*
D03*
X6595D02*
D03*
X5414Y102953D02*
D03*
X6595D02*
D03*
X36220Y70866D02*
D03*
X34252Y53150D02*
D03*
X83701Y100295D02*
D03*
X81339D02*
D03*
X82520D02*
D03*
X81339Y99114D02*
D03*
X82520D02*
D03*
X83701D02*
D03*
X70236Y71161D02*
D03*
X69055D02*
D03*
X67874D02*
D03*
X70236Y69980D02*
D03*
X69055D02*
D03*
X67874D02*
D03*
X72047Y75197D02*
D03*
Y76378D02*
D03*
Y77559D02*
D03*
X67874Y64862D02*
D03*
X69055D02*
D03*
X70236D02*
D03*
X75754Y44291D02*
D03*
X71457Y39370D02*
D03*
X71457Y37795D02*
D03*
X64370Y23622D02*
D03*
X37992Y137795D02*
D03*
X6693Y55315D02*
D03*
Y54134D02*
D03*
X5512Y55315D02*
D03*
Y54134D02*
D03*
X4331Y55315D02*
D03*
Y54134D02*
D03*
X59646Y102362D02*
D03*
X53543Y99803D02*
D03*
X49242Y119094D02*
D03*
X68898Y105118D02*
D03*
X72047Y102362D02*
D03*
X9055Y87008D02*
D03*
X4724Y79921D02*
D03*
X7058Y77756D02*
D03*
X66828Y90551D02*
D03*
X64668Y92913D02*
D03*
X65748Y22244D02*
D03*
X70669Y27362D02*
D03*
Y25394D02*
D03*
X34254Y139173D02*
D03*
X39370Y64567D02*
D03*
X26969Y10827D02*
D03*
X84449Y58071D02*
D03*
X41339Y137795D02*
D03*
X25984D02*
D03*
X23819Y134843D02*
D03*
X20472Y88583D02*
D03*
Y68504D02*
D03*
X61423Y39370D02*
D03*
X63785D02*
D03*
X62604Y38188D02*
D03*
Y40551D02*
D03*
X60242Y38188D02*
D03*
X61423Y37007D02*
D03*
X63785D02*
D03*
X64966Y38188D02*
D03*
Y40551D02*
D03*
X63785Y41732D02*
D03*
X61423D02*
D03*
X60242Y40551D02*
D03*
X53120Y40354D02*
D03*
Y42323D02*
D03*
X38577Y122048D02*
D03*
X40939D02*
D03*
X39758Y120867D02*
D03*
Y123229D02*
D03*
X37396Y120867D02*
D03*
X38577Y119685D02*
D03*
X40939D02*
D03*
X42121Y120867D02*
D03*
Y123229D02*
D03*
X40939Y124410D02*
D03*
X38577D02*
D03*
X37396Y123229D02*
D03*
X58268Y108268D02*
D03*
X60242Y122834D02*
D03*
X58268Y113386D02*
D03*
X60242Y125196D02*
D03*
X61423Y124015D02*
D03*
X63785D02*
D03*
X62604Y122834D02*
D03*
Y125196D02*
D03*
X61423Y121653D02*
D03*
X63785D02*
D03*
X64966Y122834D02*
D03*
Y125196D02*
D03*
X63785Y126377D02*
D03*
X61423D02*
D03*
X37396Y38583D02*
D03*
X38577Y39764D02*
D03*
X40939D02*
D03*
X42121Y38583D02*
D03*
Y36221D02*
D03*
X40939Y35040D02*
D03*
X38577D02*
D03*
X37396Y36221D02*
D03*
X39758Y38583D02*
D03*
Y36221D02*
D03*
X40939Y37402D02*
D03*
X38577D02*
D03*
X74016Y71655D02*
D03*
X54921Y53347D02*
D03*
X54528Y59055D02*
D03*
X46260Y98425D02*
D03*
X36024Y98622D02*
D03*
X61417Y86614D02*
D03*
X48819Y59055D02*
D03*
X42323Y55118D02*
D03*
X33465Y60039D02*
D03*
X65748Y71457D02*
D03*
X58268Y67716D02*
D03*
Y74016D02*
D03*
X48819Y80315D02*
D03*
X51968D02*
D03*
X20472Y84842D02*
D03*
X43307Y24606D02*
D03*
X24606Y93504D02*
D03*
X44882Y132555D02*
D03*
X49246Y117130D02*
D03*
X27362Y63189D02*
D03*
X20472Y71063D02*
D03*
X44094Y53150D02*
D03*
X58071Y21654D02*
D03*
X46457Y134055D02*
D03*
X53120Y123031D02*
D03*
X49242Y38386D02*
D03*
X50394Y85039D02*
D03*
X20472Y66142D02*
D03*
Y73622D02*
D03*
X28543Y19685D02*
D03*
X44685Y112205D02*
D03*
X55709Y135433D02*
D03*
X65748Y137992D02*
D03*
X68110Y139961D02*
D03*
X77953Y96949D02*
D03*
X28543Y57874D02*
D03*
X27362D02*
D03*
X20472Y80709D02*
D03*
X68218Y57874D02*
D03*
X67037D02*
D03*
X81339Y93996D02*
D03*
X78740Y39173D02*
D03*
X77953Y99311D02*
D03*
X93371Y100330D02*
D03*
X62008Y99803D02*
D03*
Y102362D02*
D03*
X94488Y68898D02*
D03*
X87008Y59449D02*
D03*
Y57087D02*
D03*
Y58268D02*
D03*
X89764Y62402D02*
D03*
Y60039D02*
D03*
Y61221D02*
D03*
X72047Y57087D02*
D03*
Y59449D02*
D03*
Y58268D02*
D03*
X84416Y64567D02*
D03*
X74016Y70474D02*
D03*
X77362Y83268D02*
D03*
Y85630D02*
D03*
Y84449D02*
D03*
X75361Y88189D02*
D03*
X64668Y97638D02*
D03*
X77953Y98130D02*
D03*
X86221Y93701D02*
D03*
X87402Y93701D02*
D03*
X86221Y90158D02*
D03*
Y91339D02*
D03*
Y92520D02*
D03*
Y86614D02*
D03*
Y87795D02*
D03*
Y88976D02*
D03*
X87402Y90158D02*
D03*
Y91339D02*
D03*
Y92520D02*
D03*
Y86614D02*
D03*
Y87795D02*
D03*
Y88976D02*
D03*
X82520Y93996D02*
D03*
X83701D02*
D03*
X88583Y93701D02*
D03*
Y90158D02*
D03*
Y91339D02*
D03*
Y92520D02*
D03*
X89764Y91339D02*
D03*
Y92520D02*
D03*
Y93701D02*
D03*
X90945Y91339D02*
D03*
Y92520D02*
D03*
Y93701D02*
D03*
Y90158D02*
D03*
X89764D02*
D03*
X90945Y88976D02*
D03*
X88583D02*
D03*
X89764D02*
D03*
X90945Y87795D02*
D03*
X88583D02*
D03*
X89764D02*
D03*
X90945Y86614D02*
D03*
X88583D02*
D03*
X89764D02*
D03*
X90945Y85433D02*
D03*
X88583D02*
D03*
X89764D02*
D03*
X87402D02*
D03*
X86221Y85433D02*
D03*
X90945Y84252D02*
D03*
X88583D02*
D03*
X89764D02*
D03*
X87402D02*
D03*
X86221Y84252D02*
D03*
Y83071D02*
D03*
X87402Y83071D02*
D03*
X89764D02*
D03*
X88583D02*
D03*
X90945D02*
D03*
X87402Y108071D02*
D03*
X86221Y110433D02*
D03*
X87402D02*
D03*
Y109252D02*
D03*
X90945Y106890D02*
D03*
X89764Y109252D02*
D03*
X88583Y106890D02*
D03*
X89764D02*
D03*
X88583Y109252D02*
D03*
X89764Y108071D02*
D03*
Y110433D02*
D03*
X86221Y108071D02*
D03*
X87402Y106890D02*
D03*
X90945Y109252D02*
D03*
X88583Y108071D02*
D03*
X86221Y109252D02*
D03*
X88583Y110433D02*
D03*
X86221Y106890D02*
D03*
X90945Y108071D02*
D03*
Y110433D02*
D03*
X41456Y20552D02*
D03*
X39035Y10827D02*
D03*
X23957D02*
D03*
X33473Y15551D02*
D03*
X31504Y6103D02*
D03*
X35441D02*
D03*
X37410D02*
D03*
X25599D02*
D03*
X27567D02*
D03*
X64969D02*
D03*
X70874D02*
D03*
X66937D02*
D03*
X74811D02*
D03*
X72843Y15551D02*
D03*
X78405Y10827D02*
D03*
X76780Y6103D02*
D03*
X37795Y75590D02*
D03*
X45669Y77165D02*
D03*
X42520D02*
D03*
X39370Y80315D02*
D03*
X51968Y67716D02*
D03*
Y64567D02*
D03*
X61024Y23622D02*
D03*
X57284Y28740D02*
D03*
X58268Y64567D02*
D03*
X55118Y80315D02*
D03*
X59842Y16929D02*
D03*
X55118Y67716D02*
D03*
Y70866D02*
D03*
X55709Y46850D02*
D03*
X53120Y44291D02*
D03*
X42520Y70866D02*
D03*
X58268Y80315D02*
D03*
Y77165D02*
D03*
X62461Y11000D02*
D03*
X42520Y74016D02*
D03*
X45669Y70866D02*
D03*
X42717Y27559D02*
D03*
X45669Y67716D02*
D03*
X48819D02*
D03*
X55118Y77165D02*
D03*
Y74016D02*
D03*
Y64567D02*
D03*
X30315D02*
D03*
X36614Y53150D02*
D03*
X39370D02*
D03*
X41339D02*
D03*
X28740Y64567D02*
D03*
X36220Y67716D02*
D03*
X39370D02*
D03*
X42520D02*
D03*
X33071Y74016D02*
D03*
X20472Y90551D02*
D03*
X39370Y70866D02*
D03*
Y77165D02*
D03*
X36220D02*
D03*
Y80315D02*
D03*
X39370Y74016D02*
D03*
X20472Y92716D02*
D03*
X23622Y140551D02*
D03*
Y106299D02*
D03*
Y117126D02*
D03*
Y129921D02*
D03*
X36614Y139173D02*
D03*
X46654Y114567D02*
D03*
X49242Y121063D02*
D03*
X44094Y137795D02*
D03*
X39370Y89764D02*
D03*
Y92913D02*
D03*
X42520D02*
D03*
Y89764D02*
D03*
X48819Y86614D02*
D03*
Y89764D02*
D03*
X53120Y128937D02*
D03*
X55709Y131496D02*
D03*
X59646Y133858D02*
D03*
X63583D02*
D03*
X57677D02*
D03*
X61024Y108268D02*
D03*
X58268Y89764D02*
D03*
Y92913D02*
D03*
X94488Y141339D02*
D03*
X93307D02*
D03*
X95669Y142520D02*
D03*
Y141339D02*
D03*
X96850Y142520D02*
D03*
Y141339D02*
D03*
X98032Y142520D02*
D03*
Y141339D02*
D03*
X4332Y141340D02*
D03*
Y142521D02*
D03*
X5513Y141340D02*
D03*
Y142521D02*
D03*
X6694Y141340D02*
D03*
X7875D02*
D03*
X84842Y21457D02*
D03*
X86024D02*
D03*
X87205D02*
D03*
X88386D02*
D03*
X86024Y19094D02*
D03*
X84842D02*
D03*
X88386Y20276D02*
D03*
X89567D02*
D03*
X90748D02*
D03*
X87205D02*
D03*
X86024D02*
D03*
X84842D02*
D03*
X89567Y21457D02*
D03*
X90748D02*
D03*
X93307Y30510D02*
D03*
Y31691D02*
D03*
X94488Y30510D02*
D03*
Y31691D02*
D03*
X95669Y30510D02*
D03*
Y31691D02*
D03*
X96850Y30510D02*
D03*
Y31691D02*
D03*
X98032Y30510D02*
D03*
Y31691D02*
D03*
Y43502D02*
D03*
Y42321D02*
D03*
X96850Y43502D02*
D03*
Y42321D02*
D03*
X95669Y43502D02*
D03*
Y42321D02*
D03*
X94488Y43502D02*
D03*
Y42321D02*
D03*
X93307Y43502D02*
D03*
Y42321D02*
D03*
X9056Y130906D02*
D03*
Y129725D02*
D03*
X7875Y130906D02*
D03*
Y129725D02*
D03*
X6694Y130906D02*
D03*
Y129725D02*
D03*
X5513Y130906D02*
D03*
Y129725D02*
D03*
X4332Y130906D02*
D03*
Y129725D02*
D03*
Y117914D02*
D03*
Y119095D02*
D03*
X5513Y117914D02*
D03*
Y119095D02*
D03*
X6694Y117914D02*
D03*
Y119095D02*
D03*
X7875Y117914D02*
D03*
Y119095D02*
D03*
X9056Y117914D02*
D03*
Y119095D02*
D03*
X93307Y117913D02*
D03*
Y119095D02*
D03*
X94488Y117913D02*
D03*
Y119095D02*
D03*
X95669Y117913D02*
D03*
Y119095D02*
D03*
X96850Y117913D02*
D03*
Y119095D02*
D03*
X98032Y117913D02*
D03*
Y119095D02*
D03*
Y130905D02*
D03*
Y129724D02*
D03*
X96850Y130905D02*
D03*
Y129724D02*
D03*
X95669Y130905D02*
D03*
Y129724D02*
D03*
X94488Y130905D02*
D03*
Y129724D02*
D03*
X93307Y130905D02*
D03*
Y129724D02*
D03*
X9055Y31693D02*
D03*
Y30512D02*
D03*
X7874Y31693D02*
D03*
Y30512D02*
D03*
X6693Y31693D02*
D03*
Y30512D02*
D03*
X5512Y31693D02*
D03*
Y30512D02*
D03*
X4331Y31693D02*
D03*
Y30512D02*
D03*
Y42323D02*
D03*
Y43504D02*
D03*
X5512Y42323D02*
D03*
Y43504D02*
D03*
X6693Y42323D02*
D03*
Y43504D02*
D03*
X7874Y42323D02*
D03*
Y43504D02*
D03*
X9055Y42323D02*
D03*
Y43504D02*
D03*
X17520Y19094D02*
D03*
X16339D02*
D03*
X15157Y20276D02*
D03*
X16339D02*
D03*
X17520D02*
D03*
X13976D02*
D03*
X12795D02*
D03*
X11614D02*
D03*
X17520Y21457D02*
D03*
X16339D02*
D03*
X15157D02*
D03*
X13976D02*
D03*
X12795D02*
D03*
X11614D02*
D03*
X16142Y54528D02*
D03*
Y53347D02*
D03*
Y52165D02*
D03*
Y50984D02*
D03*
X11417Y54527D02*
D03*
X12598D02*
D03*
X13780D02*
D03*
X14961D02*
D03*
X11417Y53347D02*
D03*
X12598D02*
D03*
X13780D02*
D03*
X14961D02*
D03*
Y52165D02*
D03*
X13780D02*
D03*
X12598D02*
D03*
X11417D02*
D03*
Y50984D02*
D03*
X12598D02*
D03*
X13780D02*
D03*
X14961D02*
D03*
X90945Y131102D02*
D03*
X89764D02*
D03*
X88583D02*
D03*
X87402D02*
D03*
X86221D02*
D03*
X90945Y129921D02*
D03*
X89764D02*
D03*
X88583D02*
D03*
X87402D02*
D03*
X86221D02*
D03*
Y128740D02*
D03*
X87402D02*
D03*
X88583D02*
D03*
X89764D02*
D03*
X90945D02*
D03*
X86221Y127559D02*
D03*
X87402D02*
D03*
X88583D02*
D03*
X89764D02*
D03*
X90945D02*
D03*
Y126378D02*
D03*
X89764D02*
D03*
X88583D02*
D03*
X87402D02*
D03*
X86221D02*
D03*
X16142Y35039D02*
D03*
X14961D02*
D03*
X13780D02*
D03*
X12598D02*
D03*
X11417D02*
D03*
Y33858D02*
D03*
X12598D02*
D03*
X13780D02*
D03*
X14961D02*
D03*
X16142D02*
D03*
X11417Y32677D02*
D03*
X12598D02*
D03*
X13780D02*
D03*
X14961D02*
D03*
X16142D02*
D03*
Y31496D02*
D03*
X14961D02*
D03*
X13780D02*
D03*
X12598D02*
D03*
X11417D02*
D03*
X16142Y30315D02*
D03*
X14961D02*
D03*
X13780D02*
D03*
X12598D02*
D03*
X11417D02*
D03*
X90945Y50984D02*
D03*
X89764D02*
D03*
X88583D02*
D03*
X87402D02*
D03*
X86221D02*
D03*
X90945Y52165D02*
D03*
X89764D02*
D03*
X88583D02*
D03*
X87402D02*
D03*
X86221D02*
D03*
X90945Y53347D02*
D03*
X89764D02*
D03*
X88583D02*
D03*
X87402D02*
D03*
X86221D02*
D03*
X90945Y54528D02*
D03*
X89764D02*
D03*
X88583D02*
D03*
X87402D02*
D03*
X86221D02*
D03*
X90945Y55709D02*
D03*
X89764D02*
D03*
X88583D02*
D03*
X87402D02*
D03*
X86221D02*
D03*
X86221Y30315D02*
D03*
X87402D02*
D03*
X88583D02*
D03*
X89764D02*
D03*
X90945D02*
D03*
X86221Y31496D02*
D03*
X87402D02*
D03*
X88583D02*
D03*
X89764D02*
D03*
X90945D02*
D03*
Y32677D02*
D03*
X89764D02*
D03*
X88583D02*
D03*
X87402D02*
D03*
X86221D02*
D03*
X90945Y33858D02*
D03*
X89764D02*
D03*
X88583D02*
D03*
X87402D02*
D03*
X86221D02*
D03*
X90945Y35039D02*
D03*
X89764D02*
D03*
X88583D02*
D03*
X87402D02*
D03*
X86221D02*
D03*
X16142Y126378D02*
D03*
X14961D02*
D03*
X13780D02*
D03*
X12598D02*
D03*
X11417D02*
D03*
X16142Y105709D02*
D03*
X14961D02*
D03*
X13780D02*
D03*
X12598D02*
D03*
X11417D02*
D03*
X16142Y106890D02*
D03*
X14961D02*
D03*
X13780D02*
D03*
X12598D02*
D03*
X11417D02*
D03*
X16142Y108071D02*
D03*
X14961D02*
D03*
X13780D02*
D03*
X12598D02*
D03*
X11417D02*
D03*
X16142Y109252D02*
D03*
X14961D02*
D03*
X13780D02*
D03*
X12598D02*
D03*
X11417D02*
D03*
X16142Y110433D02*
D03*
X14961D02*
D03*
X13780D02*
D03*
X12598D02*
D03*
X11417D02*
D03*
X16142Y127559D02*
D03*
X14961D02*
D03*
X13780D02*
D03*
X12598D02*
D03*
X11417D02*
D03*
X16142Y128740D02*
D03*
X14961D02*
D03*
X13780D02*
D03*
X12598D02*
D03*
X11417D02*
D03*
Y129921D02*
D03*
X12598D02*
D03*
X13780D02*
D03*
X14961D02*
D03*
X16142D02*
D03*
X11417Y131102D02*
D03*
X12598D02*
D03*
X13780D02*
D03*
X14961D02*
D03*
X16142D02*
D03*
X26608Y123031D02*
D03*
X30059Y108268D02*
D03*
X23819D02*
D03*
Y131890D02*
D03*
Y120079D02*
D03*
X25984Y114173D02*
D03*
X42717Y112205D02*
D03*
X38780D02*
D03*
X23622Y126575D02*
D03*
X26608Y128937D02*
D03*
X23622Y124409D02*
D03*
X34843Y129921D02*
D03*
X30906Y123622D02*
D03*
X30906Y122047D02*
D03*
X31693Y139173D02*
D03*
Y134055D02*
D03*
Y136024D02*
D03*
X23622Y122244D02*
D03*
X78543Y41339D02*
D03*
X78740Y31496D02*
D03*
Y55118D02*
D03*
X68108Y22244D02*
D03*
X70669D02*
D03*
X78740Y20866D02*
D03*
X67520Y31496D02*
D03*
X78740Y37008D02*
D03*
X75754Y32480D02*
D03*
X78740Y34843D02*
D03*
Y44291D02*
D03*
X76378Y23622D02*
D03*
Y47244D02*
D03*
X78543Y53150D02*
D03*
Y29528D02*
D03*
X72303Y53150D02*
D03*
X75754Y38386D02*
D03*
X58268Y23622D02*
D03*
X63583Y49213D02*
D03*
X59646D02*
D03*
X57677D02*
D03*
X75754Y123031D02*
D03*
Y117126D02*
D03*
X76378Y131890D02*
D03*
X67520Y114173D02*
D03*
X71457Y124016D02*
D03*
X68110Y133858D02*
D03*
X71457Y122441D02*
D03*
X72303Y137795D02*
D03*
X53120Y126969D02*
D03*
Y125000D02*
D03*
X78740Y121260D02*
D03*
Y119291D02*
D03*
Y117323D02*
D03*
Y128937D02*
D03*
Y130905D02*
D03*
Y140354D02*
D03*
X62992Y108268D02*
D03*
X78543Y137795D02*
D03*
Y125984D02*
D03*
Y114173D02*
D03*
X65748Y108268D02*
D03*
X68110D02*
D03*
X70079Y110039D02*
D03*
X32283Y51378D02*
D03*
X23819Y47244D02*
D03*
Y35433D02*
D03*
Y23622D02*
D03*
X23622Y21063D02*
D03*
Y30512D02*
D03*
Y32480D02*
D03*
Y44094D02*
D03*
Y42126D02*
D03*
Y40157D02*
D03*
X44094Y48031D02*
D03*
X49242Y36418D02*
D03*
Y34449D02*
D03*
Y32481D02*
D03*
X46654Y29921D02*
D03*
X38780Y27559D02*
D03*
X44685D02*
D03*
X36614Y23425D02*
D03*
X30059Y23622D02*
D03*
X34252Y21457D02*
D03*
X30906Y38976D02*
D03*
X34252Y27559D02*
D03*
X30906Y37402D02*
D03*
X34843Y47244D02*
D03*
X25984Y29528D02*
D03*
X26608Y44291D02*
D03*
Y38386D02*
D03*
D85*
X77362Y83268D02*
G03*
X77535Y81899I5512J0D01*
G01*
X78342Y78750D02*
G03*
X83681Y74606I5339J1368D01*
G01*
X77362Y83268D02*
Y84842D01*
X96850Y74606D02*
X99213Y74803D01*
X77535Y81899D02*
X78342Y78750D01*
X83681Y74606D02*
X96850D01*
D86*
X66181Y173228D02*
D03*
D87*
X56181D02*
D03*
X46181D02*
D03*
X36181D02*
D03*
D89*
X99213Y98425D02*
D03*
Y74803D02*
D03*
D90*
Y86614D02*
D03*
Y62992D02*
D03*
D91*
X3150Y124016D02*
D03*
Y112205D02*
D03*
Y135827D02*
D03*
Y25591D02*
D03*
Y49213D02*
D03*
Y37402D02*
D03*
X99213Y124016D02*
D03*
Y135827D02*
D03*
Y112205D02*
D03*
Y49213D02*
D03*
Y25591D02*
D03*
Y37402D02*
D03*
D93*
X72047Y75197D02*
Y77559D01*
Y58268D02*
Y75197D01*
X72047Y57087D02*
X72047Y58268D01*
M02*
