G04*
G04 #@! TF.GenerationSoftware,Altium Limited,Altium Designer,24.8.2 (39)*
G04*
G04 Layer_Color=8388736*
%FSLAX25Y25*%
%MOIN*%
G70*
G04*
G04 #@! TF.SameCoordinates,30F909D6-0262-4237-A391-FF9CD089CF35*
G04*
G04*
G04 #@! TF.FilePolarity,Positive*
G04*
G01*
G75*
%ADD127C,0.01000*%
G36*
X78738Y148377D02*
X77738Y149876D01*
X79738D01*
X78738Y148377D01*
D02*
G37*
G36*
X59841D02*
X58841Y149876D01*
X60841D01*
X59841Y148377D01*
D02*
G37*
G36*
X12647Y103542D02*
X11147Y102542D01*
Y104542D01*
X12647Y103542D01*
D02*
G37*
G36*
X73544Y84900D02*
Y84853D01*
Y84806D01*
Y84759D01*
X72883Y84759D01*
Y84711D01*
Y84664D01*
Y84617D01*
X72930D01*
Y84570D01*
X73072D01*
Y84617D01*
X73119D01*
Y84664D01*
Y84711D01*
Y84759D01*
X73214D01*
Y84711D01*
Y84664D01*
X73261D01*
Y84617D01*
X73450D01*
X73450Y84664D01*
Y84711D01*
Y84759D01*
X73544Y84759D01*
Y84711D01*
Y84664D01*
Y84617D01*
Y84570D01*
Y84522D01*
X73497D01*
X73497Y84475D01*
X73450D01*
X73450Y84428D01*
X73261D01*
Y84475D01*
X73214D01*
X73214Y84522D01*
X73166D01*
Y84475D01*
X73119D01*
Y84428D01*
X73072D01*
Y84381D01*
X72930D01*
Y84428D01*
X72836D01*
X72836Y84475D01*
X72836Y84522D01*
X72789D01*
Y84570D01*
Y84617D01*
Y84664D01*
Y84711D01*
Y84759D01*
Y84806D01*
Y84853D01*
Y84900D01*
Y84948D01*
X73544D01*
Y84900D01*
D02*
G37*
G36*
X73119Y84286D02*
Y84239D01*
Y84192D01*
Y84145D01*
Y84097D01*
Y84050D01*
Y84003D01*
X73025Y84003D01*
Y84050D01*
Y84097D01*
Y84145D01*
Y84192D01*
Y84239D01*
Y84286D01*
Y84333D01*
X73119D01*
Y84286D01*
D02*
G37*
G36*
X70190Y82898D02*
X70190Y82851D01*
X70190Y82804D01*
Y82756D01*
Y82709D01*
Y82662D01*
X70190Y82615D01*
X70190Y82567D01*
Y82520D01*
X70143D01*
Y82473D01*
Y82426D01*
X69860D01*
Y82473D01*
X70143D01*
X69812Y82473D01*
Y82520D01*
Y82567D01*
X69765D01*
X69765Y82520D01*
X69718D01*
Y82473D01*
X69671D01*
Y82426D01*
X69576D01*
X69576Y82378D01*
X69482D01*
Y82331D01*
X69434D01*
Y82378D01*
X69434Y82426D01*
X69434Y82473D01*
X69434Y82520D01*
X69482D01*
Y82567D01*
X69576D01*
X69576Y82615D01*
X69860D01*
X69671Y82615D01*
Y82662D01*
X69718D01*
Y82709D01*
X69765D01*
Y82756D01*
X69434D01*
Y82804D01*
X69434Y82851D01*
X69434Y82898D01*
Y82945D01*
X70190D01*
Y82898D01*
D02*
G37*
G36*
X73369Y82745D02*
Y82698D01*
X73416D01*
Y82650D01*
X73463D01*
Y82603D01*
Y82556D01*
X73510D01*
Y82509D01*
Y82461D01*
Y82414D01*
X72754D01*
Y82461D01*
Y82509D01*
Y82556D01*
Y82603D01*
X73321D01*
Y82650D01*
X73274D01*
Y82698D01*
Y82745D01*
Y82792D01*
X73369D01*
Y82745D01*
D02*
G37*
G36*
X69765Y82237D02*
X69765Y82189D01*
Y82142D01*
X69765Y82095D01*
X69765Y82048D01*
Y82000D01*
Y81953D01*
X69671D01*
Y82000D01*
Y82048D01*
Y82095D01*
Y82142D01*
Y82189D01*
Y82237D01*
Y82284D01*
X69765D01*
X69765Y82237D01*
D02*
G37*
G36*
X73085Y82131D02*
Y82083D01*
Y82036D01*
Y81989D01*
X73274D01*
Y81942D01*
Y81894D01*
Y81847D01*
X73085D01*
Y81800D01*
Y81753D01*
Y81705D01*
Y81658D01*
Y81611D01*
X72991D01*
Y81658D01*
Y81705D01*
Y81753D01*
Y81800D01*
Y81847D01*
X72802D01*
Y81894D01*
Y81942D01*
Y81989D01*
X72991D01*
Y82036D01*
Y82083D01*
Y82131D01*
Y82178D01*
X73085D01*
Y82131D01*
D02*
G37*
G36*
X63292Y62692D02*
X62032D01*
X63292Y63952D01*
Y62692D01*
D02*
G37*
G36*
X12205Y101181D02*
X8268D01*
Y97637D01*
Y96850D01*
X4724D01*
Y62992D01*
X8268D01*
Y62204D01*
Y58661D01*
X12205D01*
Y57874D01*
X7480D01*
Y58661D01*
Y62204D01*
X3937D01*
Y62992D01*
Y96850D01*
Y97637D01*
X7480D01*
Y101181D01*
Y102362D01*
X12205D01*
Y101181D01*
D02*
G37*
G36*
X56986Y58406D02*
X57736D01*
Y57906D01*
X56986D01*
Y57156D01*
X56486D01*
Y57906D01*
X55736D01*
Y58406D01*
X56486D01*
Y59155D01*
X56986D01*
Y58406D01*
D02*
G37*
G36*
X64736Y52905D02*
X62736D01*
Y53405D01*
X64736D01*
Y52905D01*
D02*
G37*
G36*
X55432Y51576D02*
X54343Y51572D01*
X54350Y52933D01*
X55432Y51576D01*
D02*
G37*
%LPC*%
G36*
X70096Y82756D02*
X69860D01*
Y82709D01*
X69860Y82662D01*
X69860Y82615D01*
X69907D01*
X69907Y82567D01*
X70048D01*
X70049Y82615D01*
X70096D01*
X70096Y82662D01*
X70096Y82709D01*
Y82756D01*
D02*
G37*
%LPD*%
D127*
X83114Y126571D02*
G03*
X83114Y126571I-500J0D01*
G01*
Y106098D02*
G03*
X83114Y106098I-500J0D01*
G01*
X20248Y30508D02*
G03*
X20248Y30508I-500J0D01*
G01*
Y106098D02*
G03*
X20248Y106098I-500J0D01*
G01*
Y126571D02*
G03*
X20248Y126571I-500J0D01*
G01*
X83114Y30508D02*
G03*
X83114Y30508I-500J0D01*
G01*
Y130909D02*
G03*
X83114Y130909I-500J0D01*
G01*
X20248Y34846D02*
G03*
X20248Y34846I-500J0D01*
G01*
Y55319D02*
G03*
X20248Y55319I-500J0D01*
G01*
Y130909D02*
G03*
X20248Y130909I-500J0D01*
G01*
X83114Y55319D02*
G03*
X83114Y55319I-500J0D01*
G01*
Y34846D02*
G03*
X83114Y34846I-500J0D01*
G01*
X56236Y51406D02*
G03*
X56236Y51406I-500J0D01*
G01*
M02*
