G04*
G04 #@! TF.GenerationSoftware,Altium Limited,Altium Designer,24.8.2 (39)*
G04*
G04 Layer_Color=255*
%FSLAX25Y25*%
%MOIN*%
G70*
G04*
G04 #@! TF.SameCoordinates,30F909D6-0262-4237-A391-FF9CD089CF35*
G04*
G04*
G04 #@! TF.FilePolarity,Positive*
G04*
G01*
G75*
%ADD20R,0.01575X0.02362*%
%ADD21R,0.02756X0.04134*%
%ADD26R,0.09843X0.01968*%
%ADD27R,0.09843X0.03937*%
%ADD31R,0.01575X0.02126*%
%ADD33R,0.03937X0.05315*%
%ADD80R,0.01276X0.01451*%
%ADD81R,0.01193X0.01276*%
%ADD82R,0.01451X0.01276*%
%ADD83R,0.01276X0.01193*%
%ADD86R,0.06693X0.06693*%
%ADD87C,0.06693*%
%ADD88C,0.15748*%
G04:AMPARAMS|DCode=89|XSize=86.61mil|YSize=78.74mil|CornerRadius=19.68mil|HoleSize=0mil|Usage=FLASHONLY|Rotation=0.000|XOffset=0mil|YOffset=0mil|HoleType=Round|Shape=RoundedRectangle|*
%AMROUNDEDRECTD89*
21,1,0.08661,0.03937,0,0,0.0*
21,1,0.04724,0.07874,0,0,0.0*
1,1,0.03937,0.02362,-0.01968*
1,1,0.03937,-0.02362,-0.01968*
1,1,0.03937,-0.02362,0.01968*
1,1,0.03937,0.02362,0.01968*
%
%ADD89ROUNDEDRECTD89*%
%ADD90R,0.08661X0.07874*%
G04:AMPARAMS|DCode=91|XSize=74.8mil|YSize=59.06mil|CornerRadius=14.76mil|HoleSize=0mil|Usage=FLASHONLY|Rotation=0.000|XOffset=0mil|YOffset=0mil|HoleType=Round|Shape=RoundedRectangle|*
%AMROUNDEDRECTD91*
21,1,0.07480,0.02953,0,0,0.0*
21,1,0.04528,0.05906,0,0,0.0*
1,1,0.02953,0.02264,-0.01476*
1,1,0.02953,-0.02264,-0.01476*
1,1,0.02953,-0.02264,0.01476*
1,1,0.02953,0.02264,0.01476*
%
%ADD91ROUNDEDRECTD91*%
%ADD95R,0.01968X0.01181*%
%ADD96R,0.01181X0.01968*%
%ADD97R,0.03150X0.02953*%
%ADD98R,0.05315X0.03937*%
%ADD99O,0.15748X0.07087*%
%ADD100R,0.03150X0.05906*%
%ADD101R,0.01968X0.05906*%
%ADD102O,0.06299X0.02756*%
%ADD103R,0.05118X0.06496*%
%ADD104R,0.02756X0.00984*%
%ADD105R,0.01339X0.01968*%
%ADD106R,0.00984X0.02756*%
%ADD107R,0.13780X0.06000*%
%AMCUSTOMSHAPE108*
4,1,4,0.01500,0.00000,-0.01500,0.02000,-0.01500,-0.02000,0.01500,-0.02000,0.01500,0.00000,0.0*%
%ADD108CUSTOMSHAPE108*%

%AMCUSTOMSHAPE109*
4,1,4,0.01500,0.02000,-0.01500,0.02000,-0.01500,0.00000,0.01500,-0.02000,0.01500,0.02000,0.0*%
%ADD109CUSTOMSHAPE109*%

%ADD110R,0.05421X0.04459*%
G36*
G01X57874Y114370D02*
G02X58858Y113386I0J-984D01*
G02X57874Y112402I-984J0D01*
G02X56890Y113386I0J984D01*
G02X57874Y114370I984J0D01*
D02*
G37*
G36*
G01X53937D02*
G02X54921Y113386I0J-984D01*
G02X53937Y112402I-984J0D01*
G02X52953Y113386I0J984D01*
G02X53937Y114370I984J0D01*
D02*
G37*
G36*
G01X45472Y48031D02*
G02X44488Y47047I-984J0D01*
G02X43504Y48031I0J984D01*
G02X44488Y49016I984J0D01*
G02X45472Y48031I0J-984D01*
D02*
G37*
G36*
G01X49409D02*
G02X48425Y47047I-984J0D01*
G02X47441Y48031I0J984D01*
G02X48425Y49016I984J0D01*
G02X49409Y48031I0J-984D01*
D02*
G37*
G36*
G01X45472Y132677D02*
G02X44488Y131693I-984J0D01*
G02X43504Y132677I0J984D01*
G02X44488Y133661I984J0D01*
G02X45472Y132677I0J-984D01*
D02*
G37*
G36*
G01X49409D02*
G02X48425Y131693I-984J0D01*
G02X47441Y132677I0J984D01*
G02X48425Y133661I984J0D01*
G02X49409Y132677I0J-984D01*
D02*
G37*
G36*
G01X58858Y28740D02*
G02X57874Y27756I-984J0D01*
G02X56890Y28740I0J984D01*
G02X57874Y29724I984J0D01*
G02X58858Y28740I0J-984D01*
D02*
G37*
G36*
G01X54921D02*
G02X53937Y27756I-984J0D01*
G02X52953Y28740I0J984D01*
G02X53937Y29724I984J0D01*
G02X54921Y28740I0J-984D01*
D02*
G37*
D20*
X45276Y12549D02*
D03*
X47639D02*
D03*
X50000D02*
D03*
X52363D02*
D03*
X54725D02*
D03*
X57087D02*
D03*
X19587Y31102D02*
D03*
X17028D02*
D03*
X14469D02*
D03*
X11909D02*
D03*
Y42913D02*
D03*
X14469D02*
D03*
X17028D02*
D03*
X19587D02*
D03*
Y118504D02*
D03*
X17028D02*
D03*
X14469D02*
D03*
X11909D02*
D03*
Y106693D02*
D03*
X14469D02*
D03*
X17028D02*
D03*
X19587D02*
D03*
Y127165D02*
D03*
X17028D02*
D03*
X14469D02*
D03*
X11909D02*
D03*
Y138976D02*
D03*
X14469D02*
D03*
X17028D02*
D03*
X19587D02*
D03*
X82776Y130315D02*
D03*
X85335D02*
D03*
X87894D02*
D03*
X90453D02*
D03*
Y118504D02*
D03*
X87894D02*
D03*
X85335D02*
D03*
X82776D02*
D03*
Y54724D02*
D03*
X85335D02*
D03*
X87894D02*
D03*
X90453D02*
D03*
Y42913D02*
D03*
X87894D02*
D03*
X85335D02*
D03*
X82776D02*
D03*
Y22441D02*
D03*
X85335D02*
D03*
X87894D02*
D03*
X90453D02*
D03*
Y34252D02*
D03*
X87894D02*
D03*
X85335D02*
D03*
X82776D02*
D03*
D21*
X60827Y7136D02*
D03*
X41536D02*
D03*
D26*
X15747Y34370D02*
D03*
Y109961D02*
D03*
Y130433D02*
D03*
X86615Y127047D02*
D03*
Y51456D02*
D03*
Y30984D02*
D03*
D27*
X15747Y38662D02*
D03*
Y114253D02*
D03*
Y134725D02*
D03*
X86615Y122755D02*
D03*
Y47164D02*
D03*
Y26692D02*
D03*
D31*
X45669Y76968D02*
D03*
X42520D02*
D03*
Y80118D02*
D03*
X45669D02*
D03*
D33*
X68307Y104331D02*
D03*
X75787D02*
D03*
X12008Y49213D02*
D03*
X19488D02*
D03*
Y25591D02*
D03*
X12008D02*
D03*
X90354Y112205D02*
D03*
X82874D02*
D03*
X90354Y135827D02*
D03*
X82874D02*
D03*
D80*
X52362Y52267D02*
D03*
Y54426D02*
D03*
D81*
X26608Y131890D02*
D03*
X28510D02*
D03*
X26608Y125984D02*
D03*
X28510D02*
D03*
X26608Y117126D02*
D03*
X28510D02*
D03*
Y128937D02*
D03*
X26608D02*
D03*
Y123031D02*
D03*
X28510D02*
D03*
Y120079D02*
D03*
X26608D02*
D03*
X75754Y114173D02*
D03*
X73852D02*
D03*
Y117126D02*
D03*
X75754D02*
D03*
Y120079D02*
D03*
X73852D02*
D03*
X75754Y123031D02*
D03*
X73852D02*
D03*
Y125984D02*
D03*
X75754D02*
D03*
Y128937D02*
D03*
X73852D02*
D03*
Y29528D02*
D03*
X75754D02*
D03*
Y32480D02*
D03*
X73852D02*
D03*
Y35433D02*
D03*
X75754D02*
D03*
X73852Y38386D02*
D03*
X75754D02*
D03*
Y41339D02*
D03*
X73852D02*
D03*
Y44291D02*
D03*
X75754D02*
D03*
X26608D02*
D03*
X28510D02*
D03*
Y47244D02*
D03*
X26608D02*
D03*
X28510Y41339D02*
D03*
X26608D02*
D03*
X28510Y32480D02*
D03*
X26608D02*
D03*
Y35433D02*
D03*
X28510D02*
D03*
Y38386D02*
D03*
X26608D02*
D03*
D82*
X61316Y62205D02*
D03*
X59156D02*
D03*
X53251Y49606D02*
D03*
X55411D02*
D03*
X28639Y134843D02*
D03*
X26479D02*
D03*
X44196Y135827D02*
D03*
X46356D02*
D03*
X58167Y110236D02*
D03*
X56007D02*
D03*
X73723Y111221D02*
D03*
X75883D02*
D03*
X26479Y50197D02*
D03*
X28639D02*
D03*
X75883Y26575D02*
D03*
X73723D02*
D03*
X56007Y25591D02*
D03*
X58167D02*
D03*
X46356Y51181D02*
D03*
X44196D02*
D03*
D83*
X52165Y20899D02*
D03*
Y22801D02*
D03*
X34252Y110006D02*
D03*
Y108104D02*
D03*
X41339Y134088D02*
D03*
Y135990D02*
D03*
X61024Y111975D02*
D03*
Y110073D02*
D03*
X63386D02*
D03*
Y111975D02*
D03*
X65748Y110073D02*
D03*
Y111975D02*
D03*
X68110Y136057D02*
D03*
Y137959D02*
D03*
X68110Y111975D02*
D03*
Y110073D02*
D03*
X50197Y22801D02*
D03*
Y20899D02*
D03*
X54134D02*
D03*
Y22801D02*
D03*
X48228D02*
D03*
Y20899D02*
D03*
X41339Y51345D02*
D03*
Y49443D02*
D03*
X61024Y25427D02*
D03*
Y27329D02*
D03*
X65748D02*
D03*
Y25427D02*
D03*
X63386Y27329D02*
D03*
Y25427D02*
D03*
X68110D02*
D03*
Y27329D02*
D03*
X38976Y134088D02*
D03*
Y135990D02*
D03*
X36614Y134088D02*
D03*
Y135990D02*
D03*
X34252D02*
D03*
Y134088D02*
D03*
X36614Y49443D02*
D03*
Y51345D02*
D03*
X38976Y49443D02*
D03*
Y51345D02*
D03*
X34252D02*
D03*
Y49443D02*
D03*
X68110Y53313D02*
D03*
Y51411D02*
D03*
X34252Y23458D02*
D03*
Y25361D02*
D03*
D86*
X62604Y124015D02*
D03*
X39758Y37402D02*
D03*
Y122048D02*
D03*
X62604Y39370D02*
D03*
X66181Y173228D02*
D03*
D87*
X56181D02*
D03*
X46181D02*
D03*
X36181D02*
D03*
D88*
X11811Y149606D02*
D03*
X90551D02*
D03*
X11811Y11811D02*
D03*
X90551D02*
D03*
D89*
X99213Y98425D02*
D03*
Y74803D02*
D03*
D90*
Y86614D02*
D03*
Y62992D02*
D03*
D91*
X3150Y124016D02*
D03*
Y112205D02*
D03*
Y135827D02*
D03*
Y25591D02*
D03*
Y49213D02*
D03*
Y37402D02*
D03*
X99213Y124016D02*
D03*
Y135827D02*
D03*
Y112205D02*
D03*
Y49213D02*
D03*
Y25591D02*
D03*
Y37402D02*
D03*
D95*
X54838Y54528D02*
D03*
Y56496D02*
D03*
X61698D02*
D03*
Y54528D02*
D03*
D96*
X56300Y58934D02*
D03*
X58268D02*
D03*
X60237D02*
D03*
Y52090D02*
D03*
X58268D02*
D03*
X56300D02*
D03*
D97*
X36113Y10827D02*
D03*
X26880D02*
D03*
X67037Y57874D02*
D03*
X76270D02*
D03*
D98*
X71653Y145472D02*
D03*
Y152953D02*
D03*
X30709Y145472D02*
D03*
Y152953D02*
D03*
X23622D02*
D03*
Y145472D02*
D03*
X78740Y152953D02*
D03*
Y145472D02*
D03*
X83465Y61221D02*
D03*
Y68701D02*
D03*
X89764Y61221D02*
D03*
Y68701D02*
D03*
X83465Y92716D02*
D03*
Y100197D02*
D03*
Y84449D02*
D03*
Y76968D02*
D03*
X89764Y84449D02*
D03*
Y76968D02*
D03*
D99*
X18700Y99488D02*
D03*
D100*
X24606Y61102D02*
D03*
D101*
X20708Y57992D02*
D03*
D102*
X8464Y64842D02*
D03*
Y69173D02*
D03*
Y73503D02*
D03*
Y77834D02*
D03*
Y82165D02*
D03*
Y86496D02*
D03*
Y90826D02*
D03*
Y95157D02*
D03*
D103*
X15787Y59409D02*
D03*
D104*
X68313Y121062D02*
D03*
Y123031D02*
D03*
Y125000D02*
D03*
Y126968D02*
D03*
X56884D02*
D03*
Y125000D02*
D03*
Y123031D02*
D03*
Y121062D02*
D03*
X45478Y40355D02*
D03*
Y38386D02*
D03*
Y36417D02*
D03*
Y34449D02*
D03*
X34049D02*
D03*
Y36417D02*
D03*
Y38386D02*
D03*
Y40355D02*
D03*
Y125001D02*
D03*
Y123032D02*
D03*
Y121063D02*
D03*
Y119095D02*
D03*
X45478D02*
D03*
Y121063D02*
D03*
Y123032D02*
D03*
Y125001D02*
D03*
X56884Y36417D02*
D03*
Y38386D02*
D03*
Y40355D02*
D03*
Y42323D02*
D03*
X68313D02*
D03*
Y40355D02*
D03*
Y38386D02*
D03*
Y36417D02*
D03*
D105*
X67526Y129436D02*
D03*
X57683D02*
D03*
Y118595D02*
D03*
X67526D02*
D03*
X34836Y42822D02*
D03*
X44679D02*
D03*
Y31981D02*
D03*
X34836D02*
D03*
Y116627D02*
D03*
X44679D02*
D03*
Y127468D02*
D03*
X34836D02*
D03*
X67526Y33950D02*
D03*
X57683D02*
D03*
Y44791D02*
D03*
X67526D02*
D03*
D106*
X65557Y129724D02*
D03*
X63589D02*
D03*
X61620D02*
D03*
X59652D02*
D03*
Y118307D02*
D03*
X61620D02*
D03*
X63589D02*
D03*
X65557D02*
D03*
X36805Y43110D02*
D03*
X38773D02*
D03*
X40742D02*
D03*
X42710D02*
D03*
Y31693D02*
D03*
X40742D02*
D03*
X38773D02*
D03*
X36805D02*
D03*
Y116339D02*
D03*
X38773D02*
D03*
X40742D02*
D03*
X42710D02*
D03*
Y127756D02*
D03*
X40742D02*
D03*
X38773D02*
D03*
X36805D02*
D03*
X65557Y33662D02*
D03*
X63589D02*
D03*
X61620D02*
D03*
X59652D02*
D03*
Y45079D02*
D03*
X61620D02*
D03*
X63589D02*
D03*
X65557D02*
D03*
D107*
X72047Y64079D02*
D03*
Y76079D02*
D03*
Y85339D02*
D03*
Y97339D02*
D03*
D108*
X29528Y73053D02*
D03*
D109*
X29528Y76553D02*
D03*
D110*
X89764Y100394D02*
D03*
Y92520D02*
D03*
M02*
