G04*
G04 #@! TF.GenerationSoftware,Altium Limited,Altium Designer,24.8.2 (39)*
G04*
G04 Layer_Color=128*
%FSLAX25Y25*%
%MOIN*%
G70*
G04*
G04 #@! TF.SameCoordinates,F5A21F31-771D-4283-B627-84B0D88358AA*
G04*
G04*
G04 #@! TF.FilePolarity,Positive*
G04*
G01*
G75*
%ADD18R,0.01575X0.02362*%
%ADD19R,0.02756X0.04134*%
%ADD24R,0.09843X0.01968*%
%ADD25R,0.09843X0.03937*%
%ADD31R,0.01575X0.02126*%
%ADD33R,0.03937X0.05315*%
%ADD86R,0.06693X0.06693*%
%ADD95R,0.03150X0.02953*%
%ADD96R,0.05315X0.03937*%
%ADD97O,0.15748X0.07087*%
%ADD98R,0.03150X0.05906*%
%ADD99R,0.01968X0.05906*%
%ADD100O,0.06299X0.02756*%
%ADD101R,0.05118X0.06496*%
%ADD102R,0.02756X0.00984*%
%ADD103R,0.01339X0.01968*%
%ADD104R,0.00984X0.02756*%
%ADD105R,0.13780X0.06000*%
%ADD106R,0.01968X0.01181*%
%ADD107R,0.01181X0.01968*%
G36*
X68748Y138461D02*
Y137421D01*
X68654Y137327D01*
X67567D01*
X67472Y137421D01*
Y138461D01*
X67567Y138556D01*
X68654D01*
X68748Y138461D01*
D02*
G37*
G36*
Y136594D02*
Y135555D01*
X68654Y135460D01*
X67567D01*
X67472Y135555D01*
Y136594D01*
X67567Y136689D01*
X68654D01*
X68748Y136594D01*
D02*
G37*
G36*
X41976Y136493D02*
Y135453D01*
X41882Y135358D01*
X40795D01*
X40701Y135453D01*
Y136493D01*
X40795Y136587D01*
X41882D01*
X41976Y136493D01*
D02*
G37*
G36*
X39614D02*
Y135453D01*
X39520Y135358D01*
X38433D01*
X38339Y135453D01*
Y136493D01*
X38433Y136587D01*
X39520D01*
X39614Y136493D01*
D02*
G37*
G36*
X37252D02*
Y135453D01*
X37157Y135358D01*
X36071D01*
X35976Y135453D01*
Y136493D01*
X36071Y136587D01*
X37157D01*
X37252Y136493D01*
D02*
G37*
G36*
X34890D02*
Y135453D01*
X34795Y135358D01*
X33709D01*
X33614Y135453D01*
Y136493D01*
X33709Y136587D01*
X34795D01*
X34890Y136493D01*
D02*
G37*
G36*
X47080Y136370D02*
Y135284D01*
X46986Y135189D01*
X45689D01*
X45594Y135284D01*
Y136370D01*
X45689Y136465D01*
X46986D01*
X47080Y136370D01*
D02*
G37*
G36*
X44957D02*
Y135284D01*
X44862Y135189D01*
X43565D01*
X43471Y135284D01*
Y136370D01*
X43565Y136465D01*
X44862D01*
X44957Y136370D01*
D02*
G37*
G36*
X29364Y135386D02*
Y134299D01*
X29269Y134205D01*
X27972D01*
X27878Y134299D01*
Y135386D01*
X27972Y135480D01*
X29269D01*
X29364Y135386D01*
D02*
G37*
G36*
X27240D02*
Y134299D01*
X27146Y134205D01*
X25849D01*
X25754Y134299D01*
Y135386D01*
X25849Y135480D01*
X27146D01*
X27240Y135386D01*
D02*
G37*
G36*
X41976Y134626D02*
Y133586D01*
X41882Y133492D01*
X40795D01*
X40701Y133586D01*
Y134626D01*
X40795Y134721D01*
X41882D01*
X41976Y134626D01*
D02*
G37*
G36*
X39614D02*
Y133586D01*
X39520Y133492D01*
X38433D01*
X38339Y133586D01*
Y134626D01*
X38433Y134721D01*
X39520D01*
X39614Y134626D01*
D02*
G37*
G36*
X37252D02*
Y133586D01*
X37157Y133492D01*
X36071D01*
X35976Y133586D01*
Y134626D01*
X36071Y134721D01*
X37157D01*
X37252Y134626D01*
D02*
G37*
G36*
X34890D02*
Y133586D01*
X34795Y133492D01*
X33709D01*
X33614Y133586D01*
Y134626D01*
X33709Y134721D01*
X34795D01*
X34890Y134626D01*
D02*
G37*
G36*
X48522Y133661D02*
X48712Y133624D01*
X48891Y133549D01*
X49053Y133442D01*
X49190Y133305D01*
X49297Y133143D01*
X49372Y132964D01*
X49409Y132774D01*
Y132677D01*
Y132580D01*
X49372Y132390D01*
X49297Y132211D01*
X49190Y132050D01*
X49053Y131913D01*
X48891Y131805D01*
X48712Y131731D01*
X48522Y131693D01*
X48328D01*
X48138Y131731D01*
X47959Y131805D01*
X47798Y131913D01*
X47661Y132050D01*
X47553Y132211D01*
X47479Y132390D01*
X47441Y132580D01*
Y132677D01*
X47441Y132774D01*
X47479Y132964D01*
X47553Y133143D01*
X47661Y133305D01*
X47798Y133442D01*
X47959Y133549D01*
X48138Y133624D01*
X48328Y133661D01*
X48425D01*
X48522Y133661D01*
D02*
G37*
G36*
X44585D02*
X44775Y133624D01*
X44954Y133549D01*
X45116Y133442D01*
X45253Y133305D01*
X45360Y133143D01*
X45435Y132964D01*
X45472Y132774D01*
Y132677D01*
Y132580D01*
X45435Y132390D01*
X45360Y132211D01*
X45253Y132050D01*
X45116Y131913D01*
X44954Y131805D01*
X44775Y131731D01*
X44585Y131693D01*
X44391D01*
X44201Y131731D01*
X44022Y131805D01*
X43861Y131913D01*
X43724Y132050D01*
X43616Y132211D01*
X43542Y132390D01*
X43504Y132580D01*
Y132677D01*
X43504Y132774D01*
X43542Y132964D01*
X43616Y133143D01*
X43724Y133305D01*
X43861Y133442D01*
X44022Y133549D01*
X44201Y133624D01*
X44391Y133661D01*
X44488D01*
X44585Y133661D01*
D02*
G37*
G36*
X29107Y132433D02*
Y131346D01*
X29012Y131252D01*
X27972D01*
X27878Y131346D01*
Y132433D01*
X27972Y132528D01*
X29012D01*
X29107Y132433D01*
D02*
G37*
G36*
X27240D02*
Y131346D01*
X27146Y131252D01*
X26106D01*
X26011Y131346D01*
Y132433D01*
X26106Y132528D01*
X27146D01*
X27240Y132433D01*
D02*
G37*
G36*
X76351Y129480D02*
Y128394D01*
X76256Y128299D01*
X75217D01*
X75122Y128394D01*
Y129480D01*
X75217Y129575D01*
X76256D01*
X76351Y129480D01*
D02*
G37*
G36*
X74484D02*
Y128394D01*
X74390Y128299D01*
X73350D01*
X73255Y128394D01*
Y129480D01*
X73350Y129575D01*
X74390D01*
X74484Y129480D01*
D02*
G37*
G36*
X29107D02*
Y128394D01*
X29012Y128299D01*
X27972D01*
X27878Y128394D01*
Y129480D01*
X27972Y129575D01*
X29012D01*
X29107Y129480D01*
D02*
G37*
G36*
X27240D02*
Y128394D01*
X27146Y128299D01*
X26106D01*
X26011Y128394D01*
Y129480D01*
X26106Y129575D01*
X27146D01*
X27240Y129480D01*
D02*
G37*
G36*
X76351Y126528D02*
Y125441D01*
X76256Y125347D01*
X75217D01*
X75122Y125441D01*
Y126528D01*
X75217Y126622D01*
X76256D01*
X76351Y126528D01*
D02*
G37*
G36*
X74484D02*
Y125441D01*
X74390Y125347D01*
X73350D01*
X73255Y125441D01*
Y126528D01*
X73350Y126622D01*
X74390D01*
X74484Y126528D01*
D02*
G37*
G36*
X29107D02*
Y125441D01*
X29012Y125347D01*
X27972D01*
X27878Y125441D01*
Y126528D01*
X27972Y126622D01*
X29012D01*
X29107Y126528D01*
D02*
G37*
G36*
X27240D02*
Y125441D01*
X27146Y125347D01*
X26106D01*
X26011Y125441D01*
Y126528D01*
X26106Y126622D01*
X27146D01*
X27240Y126528D01*
D02*
G37*
G36*
X76351Y123575D02*
Y122488D01*
X76256Y122394D01*
X75217D01*
X75122Y122488D01*
Y123575D01*
X75217Y123669D01*
X76256D01*
X76351Y123575D01*
D02*
G37*
G36*
X74484D02*
Y122488D01*
X74390Y122394D01*
X73350D01*
X73255Y122488D01*
Y123575D01*
X73350Y123669D01*
X74390D01*
X74484Y123575D01*
D02*
G37*
G36*
X29107D02*
Y122488D01*
X29012Y122394D01*
X27972D01*
X27878Y122488D01*
Y123575D01*
X27972Y123669D01*
X29012D01*
X29107Y123575D01*
D02*
G37*
G36*
X27240D02*
Y122488D01*
X27146Y122394D01*
X26106D01*
X26011Y122488D01*
Y123575D01*
X26106Y123669D01*
X27146D01*
X27240Y123575D01*
D02*
G37*
G36*
X76351Y120622D02*
Y119535D01*
X76256Y119441D01*
X75217D01*
X75122Y119535D01*
Y120622D01*
X75217Y120717D01*
X76256D01*
X76351Y120622D01*
D02*
G37*
G36*
X74484D02*
Y119535D01*
X74390Y119441D01*
X73350D01*
X73255Y119535D01*
Y120622D01*
X73350Y120717D01*
X74390D01*
X74484Y120622D01*
D02*
G37*
G36*
X29107D02*
Y119535D01*
X29012Y119441D01*
X27972D01*
X27878Y119535D01*
Y120622D01*
X27972Y120717D01*
X29012D01*
X29107Y120622D01*
D02*
G37*
G36*
X27240D02*
Y119535D01*
X27146Y119441D01*
X26106D01*
X26011Y119535D01*
Y120622D01*
X26106Y120717D01*
X27146D01*
X27240Y120622D01*
D02*
G37*
G36*
X76351Y117669D02*
Y116583D01*
X76256Y116488D01*
X75217D01*
X75122Y116583D01*
Y117669D01*
X75217Y117764D01*
X76256D01*
X76351Y117669D01*
D02*
G37*
G36*
X74484D02*
Y116583D01*
X74390Y116488D01*
X73350D01*
X73255Y116583D01*
Y117669D01*
X73350Y117764D01*
X74390D01*
X74484Y117669D01*
D02*
G37*
G36*
X29107D02*
Y116583D01*
X29012Y116488D01*
X27972D01*
X27878Y116583D01*
Y117669D01*
X27972Y117764D01*
X29012D01*
X29107Y117669D01*
D02*
G37*
G36*
X27240D02*
Y116583D01*
X27146Y116488D01*
X26106D01*
X26011Y116583D01*
Y117669D01*
X26106Y117764D01*
X27146D01*
X27240Y117669D01*
D02*
G37*
G36*
X76351Y114716D02*
Y113630D01*
X76256Y113535D01*
X75217D01*
X75122Y113630D01*
Y114716D01*
X75217Y114811D01*
X76256D01*
X76351Y114716D01*
D02*
G37*
G36*
X74484D02*
Y113630D01*
X74390Y113535D01*
X73350D01*
X73255Y113630D01*
Y114716D01*
X73350Y114811D01*
X74390D01*
X74484Y114716D01*
D02*
G37*
G36*
X57971Y114370D02*
X58161Y114332D01*
X58340Y114258D01*
X58501Y114150D01*
X58639Y114013D01*
X58746Y113852D01*
X58820Y113673D01*
X58858Y113483D01*
Y113386D01*
Y113289D01*
X58820Y113099D01*
X58746Y112920D01*
X58639Y112758D01*
X58501Y112621D01*
X58340Y112514D01*
X58161Y112439D01*
X57971Y112402D01*
X57777D01*
X57587Y112439D01*
X57408Y112514D01*
X57247Y112621D01*
X57109Y112758D01*
X57002Y112920D01*
X56928Y113099D01*
X56890Y113289D01*
Y113386D01*
X56890Y113483D01*
X56928Y113673D01*
X57002Y113852D01*
X57109Y114013D01*
X57247Y114150D01*
X57408Y114258D01*
X57587Y114332D01*
X57777Y114370D01*
X57874D01*
X57971Y114370D01*
D02*
G37*
G36*
X54034D02*
X54224Y114332D01*
X54403Y114258D01*
X54564Y114150D01*
X54702Y114013D01*
X54809Y113852D01*
X54883Y113673D01*
X54921Y113483D01*
Y113386D01*
Y113289D01*
X54883Y113099D01*
X54809Y112920D01*
X54702Y112758D01*
X54564Y112621D01*
X54403Y112514D01*
X54224Y112439D01*
X54034Y112402D01*
X53840D01*
X53650Y112439D01*
X53471Y112514D01*
X53310Y112621D01*
X53172Y112758D01*
X53065Y112920D01*
X52991Y113099D01*
X52953Y113289D01*
Y113386D01*
X52953Y113483D01*
X52991Y113673D01*
X53065Y113852D01*
X53172Y114013D01*
X53310Y114150D01*
X53471Y114258D01*
X53650Y114332D01*
X53840Y114370D01*
X53937D01*
X54034Y114370D01*
D02*
G37*
G36*
X68748Y112477D02*
Y111437D01*
X68654Y111343D01*
X67567D01*
X67472Y111437D01*
Y112477D01*
X67567Y112571D01*
X68654D01*
X68748Y112477D01*
D02*
G37*
G36*
X66386D02*
Y111437D01*
X66291Y111343D01*
X65205D01*
X65110Y111437D01*
Y112477D01*
X65205Y112571D01*
X66291D01*
X66386Y112477D01*
D02*
G37*
G36*
X64024D02*
Y111437D01*
X63929Y111343D01*
X62843D01*
X62748Y111437D01*
Y112477D01*
X62843Y112571D01*
X63929D01*
X64024Y112477D01*
D02*
G37*
G36*
X61661D02*
Y111437D01*
X61567Y111343D01*
X60480D01*
X60386Y111437D01*
Y112477D01*
X60480Y112571D01*
X61567D01*
X61661Y112477D01*
D02*
G37*
G36*
X76608Y111764D02*
Y110677D01*
X76513Y110583D01*
X75217D01*
X75122Y110677D01*
Y111764D01*
X75217Y111858D01*
X76513D01*
X76608Y111764D01*
D02*
G37*
G36*
X74484D02*
Y110677D01*
X74390Y110583D01*
X73093D01*
X72998Y110677D01*
Y111764D01*
X73093Y111858D01*
X74390D01*
X74484Y111764D01*
D02*
G37*
G36*
X58891Y110780D02*
Y109693D01*
X58797Y109598D01*
X57500D01*
X57406Y109693D01*
Y110780D01*
X57500Y110874D01*
X58797D01*
X58891Y110780D01*
D02*
G37*
G36*
X56768D02*
Y109693D01*
X56673Y109598D01*
X55376D01*
X55282Y109693D01*
Y110780D01*
X55376Y110874D01*
X56673D01*
X56768Y110780D01*
D02*
G37*
G36*
X68748Y110610D02*
Y109570D01*
X68654Y109476D01*
X67567D01*
X67472Y109570D01*
Y110610D01*
X67567Y110705D01*
X68654D01*
X68748Y110610D01*
D02*
G37*
G36*
X66386D02*
Y109570D01*
X66291Y109476D01*
X65205D01*
X65110Y109570D01*
Y110610D01*
X65205Y110705D01*
X66291D01*
X66386Y110610D01*
D02*
G37*
G36*
X64024D02*
Y109570D01*
X63929Y109476D01*
X62843D01*
X62748Y109570D01*
Y110610D01*
X62843Y110705D01*
X63929D01*
X64024Y110610D01*
D02*
G37*
G36*
X61661D02*
Y109570D01*
X61567Y109476D01*
X60480D01*
X60386Y109570D01*
Y110610D01*
X60480Y110705D01*
X61567D01*
X61661Y110610D01*
D02*
G37*
G36*
X34890Y110508D02*
Y109468D01*
X34795Y109374D01*
X33709D01*
X33614Y109468D01*
Y110508D01*
X33709Y110603D01*
X34795D01*
X34890Y110508D01*
D02*
G37*
G36*
Y108642D02*
Y107602D01*
X34795Y107507D01*
X33709D01*
X33614Y107602D01*
Y108642D01*
X33709Y108736D01*
X34795D01*
X34890Y108642D01*
D02*
G37*
G36*
X92480Y102953D02*
Y98425D01*
X92283Y98228D01*
X90630Y98248D01*
Y99980D01*
X88858D01*
Y98209D01*
X87244Y98228D01*
X87047Y98425D01*
Y102953D01*
X87244Y103150D01*
X92283D01*
X92480Y102953D01*
D02*
G37*
G36*
X29987Y101121D02*
X30274Y101002D01*
X30531Y100830D01*
X30751Y100610D01*
X30923Y100352D01*
X31042Y100066D01*
X31102Y99761D01*
Y99606D01*
Y99451D01*
X31042Y99147D01*
X30923Y98860D01*
X30751Y98602D01*
X30531Y98383D01*
X30274Y98211D01*
X29987Y98092D01*
X29683Y98032D01*
X29373D01*
X29068Y98092D01*
X28782Y98211D01*
X28524Y98383D01*
X28304Y98602D01*
X28132Y98860D01*
X28013Y99147D01*
X27953Y99451D01*
Y99606D01*
Y99761D01*
X28013Y100066D01*
X28132Y100352D01*
X28304Y100610D01*
X28524Y100830D01*
X28782Y101002D01*
X29068Y101121D01*
X29373Y101181D01*
X29683D01*
X29987Y101121D01*
D02*
G37*
G36*
X92480Y94488D02*
Y89961D01*
X92283Y89764D01*
X87244D01*
X87047Y89961D01*
Y94488D01*
X87244Y94685D01*
X88858Y94665D01*
Y92933D01*
X90630D01*
Y94685D01*
X92283Y94685D01*
X92480Y94488D01*
D02*
G37*
G36*
X29987Y95609D02*
X30274Y95490D01*
X30531Y95318D01*
X30751Y95098D01*
X30923Y94840D01*
X31042Y94554D01*
X31102Y94250D01*
Y94095D01*
Y93939D01*
X31042Y93635D01*
X30923Y93349D01*
X30751Y93091D01*
X30531Y92871D01*
X30274Y92699D01*
X29987Y92580D01*
X29683Y92520D01*
X29373D01*
X29068Y92580D01*
X28782Y92699D01*
X28524Y92871D01*
X28304Y93091D01*
X28132Y93349D01*
X28013Y93635D01*
X27953Y93939D01*
Y94095D01*
Y94250D01*
X28013Y94554D01*
X28132Y94840D01*
X28304Y95098D01*
X28524Y95318D01*
X28782Y95490D01*
X29068Y95609D01*
X29373Y95669D01*
X29683D01*
X29987Y95609D01*
D02*
G37*
G36*
Y90097D02*
X30274Y89978D01*
X30531Y89806D01*
X30751Y89587D01*
X30923Y89329D01*
X31042Y89042D01*
X31102Y88738D01*
Y88583D01*
Y88428D01*
X31042Y88123D01*
X30923Y87837D01*
X30751Y87579D01*
X30531Y87359D01*
X30274Y87187D01*
X29987Y87068D01*
X29683Y87008D01*
X29373D01*
X29068Y87068D01*
X28782Y87187D01*
X28524Y87359D01*
X28304Y87579D01*
X28132Y87837D01*
X28013Y88123D01*
X27953Y88428D01*
Y88583D01*
Y88738D01*
X28013Y89042D01*
X28132Y89329D01*
X28304Y89587D01*
X28524Y89806D01*
X28782Y89978D01*
X29068Y90097D01*
X29373Y90158D01*
X29683D01*
X29987Y90097D01*
D02*
G37*
G36*
Y84585D02*
X30274Y84466D01*
X30531Y84294D01*
X30751Y84075D01*
X30923Y83817D01*
X31042Y83530D01*
X31102Y83226D01*
Y83071D01*
Y82916D01*
X31042Y82612D01*
X30923Y82325D01*
X30751Y82067D01*
X30531Y81848D01*
X30274Y81675D01*
X29987Y81557D01*
X29683Y81496D01*
X29373D01*
X29068Y81557D01*
X28782Y81675D01*
X28524Y81848D01*
X28304Y82067D01*
X28132Y82325D01*
X28013Y82612D01*
X27953Y82916D01*
Y83071D01*
Y83226D01*
X28013Y83530D01*
X28132Y83817D01*
X28304Y84075D01*
X28524Y84294D01*
X28782Y84466D01*
X29068Y84585D01*
X29373Y84646D01*
X29683D01*
X29987Y84585D01*
D02*
G37*
G36*
X31028Y74553D02*
X28028Y76553D01*
Y78553D01*
X31028D01*
Y74553D01*
D02*
G37*
G36*
X31028Y73053D02*
Y71053D01*
X28028D01*
Y75053D01*
X31028Y73053D01*
D02*
G37*
G36*
X62041Y62748D02*
Y61661D01*
X61947Y61567D01*
X60650D01*
X60555Y61661D01*
Y62748D01*
X60650Y62843D01*
X61947D01*
X62041Y62748D01*
D02*
G37*
G36*
X59917D02*
Y61661D01*
X59823Y61567D01*
X58526D01*
X58431Y61661D01*
Y62748D01*
X58526Y62843D01*
X59823D01*
X59917Y62748D01*
D02*
G37*
G36*
X53000Y55057D02*
Y53760D01*
X52905Y53665D01*
X51819D01*
X51724Y53760D01*
Y55057D01*
X51819Y55151D01*
X52905D01*
X53000Y55057D01*
D02*
G37*
G36*
X68748Y53816D02*
Y52776D01*
X68654Y52681D01*
X67567D01*
X67472Y52776D01*
Y53816D01*
X67567Y53910D01*
X68654D01*
X68748Y53816D01*
D02*
G37*
G36*
X53000Y52933D02*
Y51636D01*
X52905Y51542D01*
X51819D01*
X51724Y51636D01*
Y52933D01*
X51819Y53028D01*
X52905D01*
X53000Y52933D01*
D02*
G37*
G36*
X68748Y51949D02*
Y50909D01*
X68654Y50814D01*
X67567D01*
X67472Y50909D01*
Y51949D01*
X67567Y52043D01*
X68654D01*
X68748Y51949D01*
D02*
G37*
G36*
X41976Y51847D02*
Y50807D01*
X41882Y50713D01*
X40795D01*
X40701Y50807D01*
Y51847D01*
X40795Y51941D01*
X41882D01*
X41976Y51847D01*
D02*
G37*
G36*
X39614D02*
Y50807D01*
X39520Y50713D01*
X38433D01*
X38339Y50807D01*
Y51847D01*
X38433Y51941D01*
X39520D01*
X39614Y51847D01*
D02*
G37*
G36*
X37252D02*
Y50807D01*
X37157Y50713D01*
X36071D01*
X35976Y50807D01*
Y51847D01*
X36071Y51941D01*
X37157D01*
X37252Y51847D01*
D02*
G37*
G36*
X34890D02*
Y50807D01*
X34795Y50713D01*
X33709D01*
X33614Y50807D01*
Y51847D01*
X33709Y51941D01*
X34795D01*
X34890Y51847D01*
D02*
G37*
G36*
X47080Y51724D02*
Y50638D01*
X46986Y50543D01*
X45689D01*
X45594Y50638D01*
Y51724D01*
X45689Y51819D01*
X46986D01*
X47080Y51724D01*
D02*
G37*
G36*
X44957D02*
Y50638D01*
X44862Y50543D01*
X43565D01*
X43471Y50638D01*
Y51724D01*
X43565Y51819D01*
X44862D01*
X44957Y51724D01*
D02*
G37*
G36*
X29364Y50740D02*
Y49654D01*
X29269Y49559D01*
X27972D01*
X27878Y49654D01*
Y50740D01*
X27972Y50835D01*
X29269D01*
X29364Y50740D01*
D02*
G37*
G36*
X27240D02*
Y49654D01*
X27146Y49559D01*
X25849D01*
X25754Y49654D01*
Y50740D01*
X25849Y50835D01*
X27146D01*
X27240Y50740D01*
D02*
G37*
G36*
X56136Y50150D02*
Y49063D01*
X56041Y48968D01*
X54744D01*
X54650Y49063D01*
Y50150D01*
X54744Y50244D01*
X56041D01*
X56136Y50150D01*
D02*
G37*
G36*
X54012D02*
Y49063D01*
X53917Y48968D01*
X52620D01*
X52526Y49063D01*
Y50150D01*
X52620Y50244D01*
X53917D01*
X54012Y50150D01*
D02*
G37*
G36*
X41976Y49980D02*
Y48940D01*
X41882Y48846D01*
X40795D01*
X40701Y48940D01*
Y49980D01*
X40795Y50075D01*
X41882D01*
X41976Y49980D01*
D02*
G37*
G36*
X39614D02*
Y48940D01*
X39520Y48846D01*
X38433D01*
X38339Y48940D01*
Y49980D01*
X38433Y50075D01*
X39520D01*
X39614Y49980D01*
D02*
G37*
G36*
X37252D02*
Y48940D01*
X37157Y48846D01*
X36071D01*
X35976Y48940D01*
Y49980D01*
X36071Y50075D01*
X37157D01*
X37252Y49980D01*
D02*
G37*
G36*
X34890D02*
Y48940D01*
X34795Y48846D01*
X33709D01*
X33614Y48940D01*
Y49980D01*
X33709Y50075D01*
X34795D01*
X34890Y49980D01*
D02*
G37*
G36*
X48522Y49016D02*
X48712Y48978D01*
X48891Y48904D01*
X49053Y48796D01*
X49190Y48659D01*
X49297Y48498D01*
X49372Y48319D01*
X49409Y48128D01*
Y48031D01*
Y47935D01*
X49372Y47744D01*
X49297Y47565D01*
X49190Y47404D01*
X49053Y47267D01*
X48891Y47159D01*
X48712Y47085D01*
X48522Y47047D01*
X48328D01*
X48138Y47085D01*
X47959Y47159D01*
X47798Y47267D01*
X47661Y47404D01*
X47553Y47565D01*
X47479Y47744D01*
X47441Y47935D01*
Y48031D01*
X47441Y48128D01*
X47479Y48319D01*
X47553Y48498D01*
X47661Y48659D01*
X47798Y48796D01*
X47959Y48904D01*
X48138Y48978D01*
X48328Y49016D01*
X48425D01*
X48522Y49016D01*
D02*
G37*
G36*
X44585D02*
X44775Y48978D01*
X44954Y48904D01*
X45116Y48796D01*
X45253Y48659D01*
X45360Y48498D01*
X45435Y48319D01*
X45472Y48128D01*
Y48031D01*
Y47935D01*
X45435Y47744D01*
X45360Y47565D01*
X45253Y47404D01*
X45116Y47267D01*
X44954Y47159D01*
X44775Y47085D01*
X44585Y47047D01*
X44391D01*
X44201Y47085D01*
X44022Y47159D01*
X43861Y47267D01*
X43724Y47404D01*
X43616Y47565D01*
X43542Y47744D01*
X43504Y47935D01*
Y48031D01*
X43504Y48128D01*
X43542Y48319D01*
X43616Y48498D01*
X43724Y48659D01*
X43861Y48796D01*
X44022Y48904D01*
X44201Y48978D01*
X44391Y49016D01*
X44488D01*
X44585Y49016D01*
D02*
G37*
G36*
X29107Y47787D02*
Y46701D01*
X29012Y46606D01*
X27972D01*
X27878Y46701D01*
Y47787D01*
X27972Y47882D01*
X29012D01*
X29107Y47787D01*
D02*
G37*
G36*
X27240D02*
Y46701D01*
X27146Y46606D01*
X26106D01*
X26011Y46701D01*
Y47787D01*
X26106Y47882D01*
X27146D01*
X27240Y47787D01*
D02*
G37*
G36*
X76351Y44835D02*
Y43748D01*
X76256Y43654D01*
X75217D01*
X75122Y43748D01*
Y44835D01*
X75217Y44929D01*
X76256D01*
X76351Y44835D01*
D02*
G37*
G36*
X74484D02*
Y43748D01*
X74390Y43654D01*
X73350D01*
X73255Y43748D01*
Y44835D01*
X73350Y44929D01*
X74390D01*
X74484Y44835D01*
D02*
G37*
G36*
X29107D02*
Y43748D01*
X29012Y43654D01*
X27972D01*
X27878Y43748D01*
Y44835D01*
X27972Y44929D01*
X29012D01*
X29107Y44835D01*
D02*
G37*
G36*
X27240D02*
Y43748D01*
X27146Y43654D01*
X26106D01*
X26011Y43748D01*
Y44835D01*
X26106Y44929D01*
X27146D01*
X27240Y44835D01*
D02*
G37*
G36*
X76351Y41882D02*
Y40795D01*
X76256Y40701D01*
X75217D01*
X75122Y40795D01*
Y41882D01*
X75217Y41976D01*
X76256D01*
X76351Y41882D01*
D02*
G37*
G36*
X74484D02*
Y40795D01*
X74390Y40701D01*
X73350D01*
X73255Y40795D01*
Y41882D01*
X73350Y41976D01*
X74390D01*
X74484Y41882D01*
D02*
G37*
G36*
X29107D02*
Y40795D01*
X29012Y40701D01*
X27972D01*
X27878Y40795D01*
Y41882D01*
X27972Y41976D01*
X29012D01*
X29107Y41882D01*
D02*
G37*
G36*
X27240D02*
Y40795D01*
X27146Y40701D01*
X26106D01*
X26011Y40795D01*
Y41882D01*
X26106Y41976D01*
X27146D01*
X27240Y41882D01*
D02*
G37*
G36*
X76351Y38929D02*
Y37843D01*
X76256Y37748D01*
X75217D01*
X75122Y37843D01*
Y38929D01*
X75217Y39024D01*
X76256D01*
X76351Y38929D01*
D02*
G37*
G36*
X74484D02*
Y37843D01*
X74390Y37748D01*
X73350D01*
X73255Y37843D01*
Y38929D01*
X73350Y39024D01*
X74390D01*
X74484Y38929D01*
D02*
G37*
G36*
X29107D02*
Y37843D01*
X29012Y37748D01*
X27972D01*
X27878Y37843D01*
Y38929D01*
X27972Y39024D01*
X29012D01*
X29107Y38929D01*
D02*
G37*
G36*
X27240D02*
Y37843D01*
X27146Y37748D01*
X26106D01*
X26011Y37843D01*
Y38929D01*
X26106Y39024D01*
X27146D01*
X27240Y38929D01*
D02*
G37*
G36*
X76351Y35976D02*
Y34890D01*
X76256Y34795D01*
X75217D01*
X75122Y34890D01*
Y35976D01*
X75217Y36071D01*
X76256D01*
X76351Y35976D01*
D02*
G37*
G36*
X74484D02*
Y34890D01*
X74390Y34795D01*
X73350D01*
X73255Y34890D01*
Y35976D01*
X73350Y36071D01*
X74390D01*
X74484Y35976D01*
D02*
G37*
G36*
X29107D02*
Y34890D01*
X29012Y34795D01*
X27972D01*
X27878Y34890D01*
Y35976D01*
X27972Y36071D01*
X29012D01*
X29107Y35976D01*
D02*
G37*
G36*
X27240D02*
Y34890D01*
X27146Y34795D01*
X26106D01*
X26011Y34890D01*
Y35976D01*
X26106Y36071D01*
X27146D01*
X27240Y35976D01*
D02*
G37*
G36*
X76351Y33024D02*
Y31937D01*
X76256Y31842D01*
X75217D01*
X75122Y31937D01*
Y33024D01*
X75217Y33118D01*
X76256D01*
X76351Y33024D01*
D02*
G37*
G36*
X74484D02*
Y31937D01*
X74390Y31842D01*
X73350D01*
X73255Y31937D01*
Y33024D01*
X73350Y33118D01*
X74390D01*
X74484Y33024D01*
D02*
G37*
G36*
X29107D02*
Y31937D01*
X29012Y31842D01*
X27972D01*
X27878Y31937D01*
Y33024D01*
X27972Y33118D01*
X29012D01*
X29107Y33024D01*
D02*
G37*
G36*
X27240D02*
Y31937D01*
X27146Y31842D01*
X26106D01*
X26011Y31937D01*
Y33024D01*
X26106Y33118D01*
X27146D01*
X27240Y33024D01*
D02*
G37*
G36*
X76351Y30071D02*
Y28984D01*
X76256Y28890D01*
X75217D01*
X75122Y28984D01*
Y30071D01*
X75217Y30165D01*
X76256D01*
X76351Y30071D01*
D02*
G37*
G36*
X74484D02*
Y28984D01*
X74390Y28890D01*
X73350D01*
X73255Y28984D01*
Y30071D01*
X73350Y30165D01*
X74390D01*
X74484Y30071D01*
D02*
G37*
G36*
X57971Y29724D02*
X58161Y29687D01*
X58340Y29612D01*
X58501Y29505D01*
X58639Y29368D01*
X58746Y29206D01*
X58820Y29027D01*
X58858Y28837D01*
Y28740D01*
Y28643D01*
X58820Y28453D01*
X58746Y28274D01*
X58639Y28113D01*
X58501Y27976D01*
X58340Y27868D01*
X58161Y27794D01*
X57971Y27756D01*
X57777D01*
X57587Y27794D01*
X57408Y27868D01*
X57247Y27976D01*
X57109Y28113D01*
X57002Y28274D01*
X56928Y28453D01*
X56890Y28643D01*
Y28740D01*
X56890Y28837D01*
X56928Y29027D01*
X57002Y29206D01*
X57109Y29368D01*
X57247Y29505D01*
X57408Y29612D01*
X57587Y29687D01*
X57777Y29724D01*
X57874D01*
X57971Y29724D01*
D02*
G37*
G36*
X54034D02*
X54224Y29687D01*
X54403Y29612D01*
X54564Y29505D01*
X54702Y29368D01*
X54809Y29206D01*
X54883Y29027D01*
X54921Y28837D01*
Y28740D01*
Y28643D01*
X54883Y28453D01*
X54809Y28274D01*
X54702Y28113D01*
X54564Y27976D01*
X54403Y27868D01*
X54224Y27794D01*
X54034Y27756D01*
X53840D01*
X53650Y27794D01*
X53471Y27868D01*
X53310Y27976D01*
X53172Y28113D01*
X53065Y28274D01*
X52991Y28453D01*
X52953Y28643D01*
Y28740D01*
X52953Y28837D01*
X52991Y29027D01*
X53065Y29206D01*
X53172Y29368D01*
X53310Y29505D01*
X53471Y29612D01*
X53650Y29687D01*
X53840Y29724D01*
X53937D01*
X54034Y29724D01*
D02*
G37*
G36*
X68748Y27831D02*
Y26791D01*
X68654Y26697D01*
X67567D01*
X67472Y26791D01*
Y27831D01*
X67567Y27926D01*
X68654D01*
X68748Y27831D01*
D02*
G37*
G36*
X66386D02*
Y26791D01*
X66291Y26697D01*
X65205D01*
X65110Y26791D01*
Y27831D01*
X65205Y27926D01*
X66291D01*
X66386Y27831D01*
D02*
G37*
G36*
X64024D02*
Y26791D01*
X63929Y26697D01*
X62843D01*
X62748Y26791D01*
Y27831D01*
X62843Y27926D01*
X63929D01*
X64024Y27831D01*
D02*
G37*
G36*
X61661D02*
Y26791D01*
X61567Y26697D01*
X60480D01*
X60386Y26791D01*
Y27831D01*
X60480Y27926D01*
X61567D01*
X61661Y27831D01*
D02*
G37*
G36*
X76608Y27118D02*
Y26032D01*
X76513Y25937D01*
X75217D01*
X75122Y26032D01*
Y27118D01*
X75217Y27213D01*
X76513D01*
X76608Y27118D01*
D02*
G37*
G36*
X74484D02*
Y26032D01*
X74390Y25937D01*
X73093D01*
X72998Y26032D01*
Y27118D01*
X73093Y27213D01*
X74390D01*
X74484Y27118D01*
D02*
G37*
G36*
X58891Y26134D02*
Y25047D01*
X58797Y24953D01*
X57500D01*
X57406Y25047D01*
Y26134D01*
X57500Y26228D01*
X58797D01*
X58891Y26134D01*
D02*
G37*
G36*
X56768D02*
Y25047D01*
X56673Y24953D01*
X55376D01*
X55282Y25047D01*
Y26134D01*
X55376Y26228D01*
X56673D01*
X56768Y26134D01*
D02*
G37*
G36*
X68748Y25965D02*
Y24925D01*
X68654Y24830D01*
X67567D01*
X67472Y24925D01*
Y25965D01*
X67567Y26059D01*
X68654D01*
X68748Y25965D01*
D02*
G37*
G36*
X66386D02*
Y24925D01*
X66291Y24830D01*
X65205D01*
X65110Y24925D01*
Y25965D01*
X65205Y26059D01*
X66291D01*
X66386Y25965D01*
D02*
G37*
G36*
X64024D02*
Y24925D01*
X63929Y24830D01*
X62843D01*
X62748Y24925D01*
Y25965D01*
X62843Y26059D01*
X63929D01*
X64024Y25965D01*
D02*
G37*
G36*
X61661D02*
Y24925D01*
X61567Y24830D01*
X60480D01*
X60386Y24925D01*
Y25965D01*
X60480Y26059D01*
X61567D01*
X61661Y25965D01*
D02*
G37*
G36*
X34890Y25863D02*
Y24823D01*
X34795Y24728D01*
X33709D01*
X33614Y24823D01*
Y25863D01*
X33709Y25957D01*
X34795D01*
X34890Y25863D01*
D02*
G37*
G36*
Y23996D02*
Y22956D01*
X34795Y22862D01*
X33709D01*
X33614Y22956D01*
Y23996D01*
X33709Y24091D01*
X34795D01*
X34890Y23996D01*
D02*
G37*
G36*
X54772Y23304D02*
Y22264D01*
X54677Y22169D01*
X53591D01*
X53496Y22264D01*
Y23304D01*
X53591Y23398D01*
X54677D01*
X54772Y23304D01*
D02*
G37*
G36*
X52803D02*
Y22264D01*
X52709Y22169D01*
X51622D01*
X51528Y22264D01*
Y23304D01*
X51622Y23398D01*
X52709D01*
X52803Y23304D01*
D02*
G37*
G36*
X50835D02*
Y22264D01*
X50740Y22169D01*
X49654D01*
X49559Y22264D01*
Y23304D01*
X49654Y23398D01*
X50740D01*
X50835Y23304D01*
D02*
G37*
G36*
X48866D02*
Y22264D01*
X48772Y22169D01*
X47685D01*
X47591Y22264D01*
Y23304D01*
X47685Y23398D01*
X48772D01*
X48866Y23304D01*
D02*
G37*
G36*
X54772Y21437D02*
Y20397D01*
X54677Y20303D01*
X53591D01*
X53496Y20397D01*
Y21437D01*
X53591Y21531D01*
X54677D01*
X54772Y21437D01*
D02*
G37*
G36*
X52803D02*
Y20397D01*
X52709Y20303D01*
X51622D01*
X51528Y20397D01*
Y21437D01*
X51622Y21531D01*
X52709D01*
X52803Y21437D01*
D02*
G37*
G36*
X50835D02*
Y20397D01*
X50740Y20303D01*
X49654D01*
X49559Y20397D01*
Y21437D01*
X49654Y21531D01*
X50740D01*
X50835Y21437D01*
D02*
G37*
G36*
X48866D02*
Y20397D01*
X48772Y20303D01*
X47685D01*
X47591Y20397D01*
Y21437D01*
X47685Y21531D01*
X48772D01*
X48866Y21437D01*
D02*
G37*
D18*
X45276Y12549D02*
D03*
X47639D02*
D03*
X50000D02*
D03*
X52363D02*
D03*
X54725D02*
D03*
X57087D02*
D03*
X19587Y31102D02*
D03*
X17028D02*
D03*
X14469D02*
D03*
X11909D02*
D03*
Y42913D02*
D03*
X14469D02*
D03*
X17028D02*
D03*
X19587D02*
D03*
Y118504D02*
D03*
X17028D02*
D03*
X14469D02*
D03*
X11909D02*
D03*
Y106693D02*
D03*
X14469D02*
D03*
X17028D02*
D03*
X19587D02*
D03*
Y127165D02*
D03*
X17028D02*
D03*
X14469D02*
D03*
X11909D02*
D03*
Y138976D02*
D03*
X14469D02*
D03*
X17028D02*
D03*
X19587D02*
D03*
X82776Y130315D02*
D03*
X85335D02*
D03*
X87894D02*
D03*
X90453D02*
D03*
Y118504D02*
D03*
X87894D02*
D03*
X85335D02*
D03*
X82776D02*
D03*
Y54724D02*
D03*
X85335D02*
D03*
X87894D02*
D03*
X90453D02*
D03*
Y42913D02*
D03*
X87894D02*
D03*
X85335D02*
D03*
X82776D02*
D03*
Y22441D02*
D03*
X85335D02*
D03*
X87894D02*
D03*
X90453D02*
D03*
Y34252D02*
D03*
X87894D02*
D03*
X85335D02*
D03*
X82776D02*
D03*
D19*
X60827Y7136D02*
D03*
X41536D02*
D03*
D24*
X15747Y34370D02*
D03*
Y109961D02*
D03*
Y130433D02*
D03*
X86615Y127047D02*
D03*
Y51456D02*
D03*
Y30984D02*
D03*
D25*
X15747Y38662D02*
D03*
Y114253D02*
D03*
Y134725D02*
D03*
X86615Y122755D02*
D03*
Y47164D02*
D03*
Y26692D02*
D03*
D31*
X45669Y76968D02*
D03*
X42520D02*
D03*
Y80118D02*
D03*
X45669D02*
D03*
D33*
X68307Y104331D02*
D03*
X75787D02*
D03*
X12008Y49213D02*
D03*
X19488D02*
D03*
Y25591D02*
D03*
X12008D02*
D03*
X90354Y112205D02*
D03*
X82874D02*
D03*
X90354Y135827D02*
D03*
X82874D02*
D03*
D86*
X62604Y124015D02*
D03*
X39758Y37402D02*
D03*
Y122048D02*
D03*
X62604Y39370D02*
D03*
D95*
X36113Y10827D02*
D03*
X26880D02*
D03*
X67037Y57874D02*
D03*
X76270D02*
D03*
D96*
X71653Y145472D02*
D03*
Y152953D02*
D03*
X30709Y145472D02*
D03*
Y152953D02*
D03*
X23622D02*
D03*
Y145472D02*
D03*
X78740Y152953D02*
D03*
Y145472D02*
D03*
X83465Y61221D02*
D03*
Y68701D02*
D03*
X89764Y61221D02*
D03*
Y68701D02*
D03*
X83465Y92716D02*
D03*
Y100197D02*
D03*
Y84449D02*
D03*
Y76968D02*
D03*
X89764Y84449D02*
D03*
Y76968D02*
D03*
D97*
X18700Y99488D02*
D03*
D98*
X24606Y61102D02*
D03*
D99*
X20708Y57992D02*
D03*
D100*
X8464Y64842D02*
D03*
Y69173D02*
D03*
Y73503D02*
D03*
Y77834D02*
D03*
Y82165D02*
D03*
Y86496D02*
D03*
Y90826D02*
D03*
Y95157D02*
D03*
D101*
X15787Y59409D02*
D03*
D102*
X68313Y121062D02*
D03*
Y123031D02*
D03*
Y125000D02*
D03*
Y126968D02*
D03*
X56884D02*
D03*
Y125000D02*
D03*
Y123031D02*
D03*
Y121062D02*
D03*
X45478Y40355D02*
D03*
Y38386D02*
D03*
Y36417D02*
D03*
Y34449D02*
D03*
X34049D02*
D03*
Y36417D02*
D03*
Y38386D02*
D03*
Y40355D02*
D03*
Y125001D02*
D03*
Y123032D02*
D03*
Y121063D02*
D03*
Y119095D02*
D03*
X45478D02*
D03*
Y121063D02*
D03*
Y123032D02*
D03*
Y125001D02*
D03*
X56884Y36417D02*
D03*
Y38386D02*
D03*
Y40355D02*
D03*
Y42323D02*
D03*
X68313D02*
D03*
Y40355D02*
D03*
Y38386D02*
D03*
Y36417D02*
D03*
D103*
X67526Y129436D02*
D03*
X57683D02*
D03*
Y118595D02*
D03*
X67526D02*
D03*
X34836Y42822D02*
D03*
X44679D02*
D03*
Y31981D02*
D03*
X34836D02*
D03*
Y116627D02*
D03*
X44679D02*
D03*
Y127468D02*
D03*
X34836D02*
D03*
X67526Y33950D02*
D03*
X57683D02*
D03*
Y44791D02*
D03*
X67526D02*
D03*
D104*
X65557Y129724D02*
D03*
X63589D02*
D03*
X61620D02*
D03*
X59652D02*
D03*
Y118307D02*
D03*
X61620D02*
D03*
X63589D02*
D03*
X65557D02*
D03*
X36805Y43110D02*
D03*
X38773D02*
D03*
X40742D02*
D03*
X42710D02*
D03*
Y31693D02*
D03*
X40742D02*
D03*
X38773D02*
D03*
X36805D02*
D03*
Y116339D02*
D03*
X38773D02*
D03*
X40742D02*
D03*
X42710D02*
D03*
Y127756D02*
D03*
X40742D02*
D03*
X38773D02*
D03*
X36805D02*
D03*
X65557Y33662D02*
D03*
X63589D02*
D03*
X61620D02*
D03*
X59652D02*
D03*
Y45079D02*
D03*
X61620D02*
D03*
X63589D02*
D03*
X65557D02*
D03*
D105*
X72047Y64079D02*
D03*
Y76079D02*
D03*
Y85339D02*
D03*
Y97339D02*
D03*
D106*
X54838Y54528D02*
D03*
Y56496D02*
D03*
X61698D02*
D03*
Y54528D02*
D03*
D107*
X56300Y58934D02*
D03*
X58268D02*
D03*
X60237D02*
D03*
Y52090D02*
D03*
X58268D02*
D03*
X56300D02*
D03*
M02*
