G04*
G04 #@! TF.GenerationSoftware,Altium Limited,Altium Designer,24.8.2 (39)*
G04*
G04 Layer_Color=255*
%FSLAX25Y25*%
%MOIN*%
G70*
G04*
G04 #@! TF.SameCoordinates,F5A21F31-771D-4283-B627-84B0D88358AA*
G04*
G04*
G04 #@! TF.FilePolarity,Positive*
G04*
G01*
G75*
%ADD17R,0.03543X0.01772*%
%ADD18R,0.01575X0.02362*%
%ADD19R,0.02756X0.04134*%
%ADD20R,0.04134X0.02756*%
%ADD21R,0.02362X0.01575*%
%ADD22R,0.02362X0.01654*%
%ADD23R,0.03661X0.01417*%
%ADD24R,0.09843X0.01968*%
%ADD25R,0.09843X0.03937*%
%ADD26R,0.04555X0.01929*%
%ADD27R,0.04626X0.01929*%
G04:AMPARAMS|DCode=28|XSize=14.33mil|YSize=19.68mil|CornerRadius=3.58mil|HoleSize=0mil|Usage=FLASHONLY|Rotation=90.000|XOffset=0mil|YOffset=0mil|HoleType=Round|Shape=RoundedRectangle|*
%AMROUNDEDRECTD28*
21,1,0.01433,0.01252,0,0,90.0*
21,1,0.00717,0.01968,0,0,90.0*
1,1,0.00717,0.00626,0.00358*
1,1,0.00717,0.00626,-0.00358*
1,1,0.00717,-0.00626,-0.00358*
1,1,0.00717,-0.00626,0.00358*
%
%ADD28ROUNDEDRECTD28*%
%ADD29R,0.03150X0.00984*%
%ADD30R,0.00984X0.03150*%
%ADD31R,0.01575X0.02126*%
%ADD32R,0.03937X0.03543*%
%ADD33R,0.03937X0.05315*%
%ADD34R,0.02126X0.01575*%
%ADD35R,0.02756X0.03543*%
%ADD77R,0.02618X0.01102*%
%ADD78R,0.01102X0.02618*%
%ADD79R,0.10039X0.10039*%
%ADD80R,0.01276X0.01451*%
%ADD81R,0.01193X0.01276*%
%ADD82R,0.01451X0.01276*%
%ADD83R,0.01276X0.01193*%
%ADD84C,0.01260*%
%ADD86R,0.06693X0.06693*%
%ADD87C,0.06693*%
%ADD88C,0.15748*%
G04:AMPARAMS|DCode=89|XSize=86.61mil|YSize=78.74mil|CornerRadius=19.68mil|HoleSize=0mil|Usage=FLASHONLY|Rotation=0.000|XOffset=0mil|YOffset=0mil|HoleType=Round|Shape=RoundedRectangle|*
%AMROUNDEDRECTD89*
21,1,0.08661,0.03937,0,0,0.0*
21,1,0.04724,0.07874,0,0,0.0*
1,1,0.03937,0.02362,-0.01968*
1,1,0.03937,-0.02362,-0.01968*
1,1,0.03937,-0.02362,0.01968*
1,1,0.03937,0.02362,0.01968*
%
%ADD89ROUNDEDRECTD89*%
%ADD90R,0.08661X0.07874*%
G04:AMPARAMS|DCode=91|XSize=74.8mil|YSize=59.06mil|CornerRadius=14.76mil|HoleSize=0mil|Usage=FLASHONLY|Rotation=0.000|XOffset=0mil|YOffset=0mil|HoleType=Round|Shape=RoundedRectangle|*
%AMROUNDEDRECTD91*
21,1,0.07480,0.02953,0,0,0.0*
21,1,0.04528,0.05906,0,0,0.0*
1,1,0.02953,0.02264,-0.01476*
1,1,0.02953,-0.02264,-0.01476*
1,1,0.02953,-0.02264,0.01476*
1,1,0.02953,0.02264,0.01476*
%
%ADD91ROUNDEDRECTD91*%
D17*
X82520Y91437D02*
D03*
Y93996D02*
D03*
Y96555D02*
D03*
Y99114D02*
D03*
X72599D02*
D03*
Y96555D02*
D03*
Y93996D02*
D03*
Y91437D02*
D03*
X78976Y69980D02*
D03*
Y67421D02*
D03*
Y64862D02*
D03*
Y62303D02*
D03*
X69055D02*
D03*
Y64862D02*
D03*
Y67421D02*
D03*
Y69980D02*
D03*
D18*
X26378Y148868D02*
D03*
X28741D02*
D03*
X31102D02*
D03*
X33465D02*
D03*
X35827D02*
D03*
X38189D02*
D03*
X50393D02*
D03*
X52755D02*
D03*
X55119D02*
D03*
X57481D02*
D03*
X69291D02*
D03*
X71653D02*
D03*
X74016D02*
D03*
X76378D02*
D03*
X82776Y127165D02*
D03*
X85335D02*
D03*
X87894D02*
D03*
X90453D02*
D03*
Y138976D02*
D03*
X87894D02*
D03*
X85335D02*
D03*
X82776D02*
D03*
Y118504D02*
D03*
X85335D02*
D03*
X87894D02*
D03*
X90453D02*
D03*
Y106693D02*
D03*
X87894D02*
D03*
X85335D02*
D03*
X82776D02*
D03*
Y42913D02*
D03*
X85335D02*
D03*
X87894D02*
D03*
X90453D02*
D03*
Y31102D02*
D03*
X87894D02*
D03*
X85335D02*
D03*
X82776D02*
D03*
X19587Y22441D02*
D03*
X17028D02*
D03*
X14469D02*
D03*
X11909D02*
D03*
Y34252D02*
D03*
X14469D02*
D03*
X17028D02*
D03*
X19587D02*
D03*
Y54724D02*
D03*
X17028D02*
D03*
X14469D02*
D03*
X11909D02*
D03*
Y42913D02*
D03*
X14469D02*
D03*
X17028D02*
D03*
X19587D02*
D03*
Y118504D02*
D03*
X17028D02*
D03*
X14469D02*
D03*
X11909D02*
D03*
Y130315D02*
D03*
X14469D02*
D03*
X17028D02*
D03*
X19587D02*
D03*
D19*
X41929Y154281D02*
D03*
X22638D02*
D03*
X46654D02*
D03*
X61221D02*
D03*
X65551D02*
D03*
X80118D02*
D03*
D20*
X6742Y90354D02*
D03*
Y104921D02*
D03*
D21*
X12155Y94094D02*
D03*
Y96456D02*
D03*
Y98819D02*
D03*
Y101181D02*
D03*
D22*
X54528Y104921D02*
D03*
Y102362D02*
D03*
Y99803D02*
D03*
X62008D02*
D03*
Y102362D02*
D03*
Y104921D02*
D03*
D23*
X72303Y137795D02*
D03*
X77303D02*
D03*
Y125984D02*
D03*
X72303D02*
D03*
Y114173D02*
D03*
X77303D02*
D03*
X25059Y23622D02*
D03*
X30059D02*
D03*
Y35433D02*
D03*
X25059D02*
D03*
Y47244D02*
D03*
X30059D02*
D03*
Y108268D02*
D03*
X25059D02*
D03*
Y120079D02*
D03*
X30059D02*
D03*
Y131890D02*
D03*
X25059D02*
D03*
X77303Y53150D02*
D03*
X72303D02*
D03*
Y41339D02*
D03*
X77303D02*
D03*
Y29528D02*
D03*
X72303D02*
D03*
D24*
X86615Y130433D02*
D03*
Y109961D02*
D03*
Y34370D02*
D03*
X15747Y30984D02*
D03*
Y51456D02*
D03*
Y127047D02*
D03*
D25*
X86615Y134725D02*
D03*
Y114253D02*
D03*
Y38662D02*
D03*
X15747Y26692D02*
D03*
Y47164D02*
D03*
Y122755D02*
D03*
D26*
X10419Y84842D02*
D03*
Y81102D02*
D03*
Y77362D02*
D03*
Y63583D02*
D03*
Y67323D02*
D03*
Y71063D02*
D03*
D27*
X19503Y77362D02*
D03*
Y84842D02*
D03*
Y71063D02*
D03*
Y63583D02*
D03*
D28*
X73425Y82185D02*
D03*
X69882Y84744D02*
D03*
Y82185D02*
D03*
X73425Y84744D02*
D03*
D29*
X63327Y10827D02*
D03*
X78405D02*
D03*
X39035D02*
D03*
X23957D02*
D03*
D30*
X64969Y6103D02*
D03*
X66937D02*
D03*
X68906D02*
D03*
X70874D02*
D03*
X72843D02*
D03*
X74811D02*
D03*
X76780D02*
D03*
Y15551D02*
D03*
X74811D02*
D03*
X72843D02*
D03*
X70874D02*
D03*
X68906D02*
D03*
X66937D02*
D03*
X64969D02*
D03*
X25599D02*
D03*
X27567D02*
D03*
X29536D02*
D03*
X31504D02*
D03*
X33473D02*
D03*
X35441D02*
D03*
X37410D02*
D03*
Y6103D02*
D03*
X35441D02*
D03*
X33473D02*
D03*
X31504D02*
D03*
X29536D02*
D03*
X27567D02*
D03*
X25599D02*
D03*
D31*
X29134Y114173D02*
D03*
X25984D02*
D03*
X29134Y137795D02*
D03*
X25984D02*
D03*
X29134Y125984D02*
D03*
X25984D02*
D03*
X73228Y120079D02*
D03*
X76378D02*
D03*
X73228Y131890D02*
D03*
X76378D02*
D03*
X73228Y108268D02*
D03*
X76378D02*
D03*
Y23622D02*
D03*
X73228D02*
D03*
X76378Y35433D02*
D03*
X73228D02*
D03*
X76378Y47244D02*
D03*
X73228D02*
D03*
X25984Y53150D02*
D03*
X29134D02*
D03*
X25984Y41339D02*
D03*
X29134D02*
D03*
X25984Y29528D02*
D03*
X29134D02*
D03*
X52165Y52953D02*
D03*
X49016D02*
D03*
D32*
X56496Y52952D02*
D03*
X63976D02*
D03*
Y58859D02*
D03*
X56496D02*
D03*
D33*
X82874Y49213D02*
D03*
X90354D02*
D03*
X82874Y25591D02*
D03*
X90354D02*
D03*
X12007Y135827D02*
D03*
X19488D02*
D03*
X12008Y112205D02*
D03*
X19488D02*
D03*
D34*
X24016Y71063D02*
D03*
Y67913D02*
D03*
Y84842D02*
D03*
Y81693D02*
D03*
X5906Y71063D02*
D03*
Y67913D02*
D03*
Y84842D02*
D03*
Y81693D02*
D03*
D35*
X82874Y76968D02*
D03*
X77362D02*
D03*
X81496Y58268D02*
D03*
X87008D02*
D03*
X77559D02*
D03*
X72047D02*
D03*
X82874Y84449D02*
D03*
X77362D02*
D03*
D77*
X53120Y128937D02*
D03*
Y126969D02*
D03*
Y125000D02*
D03*
Y123032D02*
D03*
Y121063D02*
D03*
Y119095D02*
D03*
X68140D02*
D03*
Y121063D02*
D03*
Y123032D02*
D03*
Y125000D02*
D03*
Y126969D02*
D03*
Y128937D02*
D03*
X34222Y32481D02*
D03*
Y34449D02*
D03*
Y36418D02*
D03*
Y38386D02*
D03*
Y40355D02*
D03*
Y42323D02*
D03*
X49242D02*
D03*
Y40355D02*
D03*
Y38386D02*
D03*
Y36418D02*
D03*
Y34449D02*
D03*
Y32481D02*
D03*
Y117126D02*
D03*
Y119094D02*
D03*
Y121063D02*
D03*
Y123031D02*
D03*
Y125000D02*
D03*
Y126968D02*
D03*
X34222D02*
D03*
Y125000D02*
D03*
Y123031D02*
D03*
Y121063D02*
D03*
Y119094D02*
D03*
Y117126D02*
D03*
X68140Y44291D02*
D03*
Y42323D02*
D03*
Y40354D02*
D03*
Y38386D02*
D03*
Y36417D02*
D03*
Y34449D02*
D03*
X53120D02*
D03*
Y36417D02*
D03*
Y38386D02*
D03*
Y40354D02*
D03*
Y42323D02*
D03*
Y44291D02*
D03*
D78*
X55709Y116506D02*
D03*
X57677D02*
D03*
X59646D02*
D03*
X61614D02*
D03*
X63583D02*
D03*
X65551D02*
D03*
Y131526D02*
D03*
X63583D02*
D03*
X61614D02*
D03*
X59646D02*
D03*
X57677D02*
D03*
X55709D02*
D03*
X46653Y29892D02*
D03*
X44685D02*
D03*
X42716D02*
D03*
X40748D02*
D03*
X38779D02*
D03*
X36811D02*
D03*
Y44912D02*
D03*
X38779D02*
D03*
X40748D02*
D03*
X42716D02*
D03*
X44685D02*
D03*
X46653D02*
D03*
Y129557D02*
D03*
X44685D02*
D03*
X42716D02*
D03*
X40748D02*
D03*
X38779D02*
D03*
X36811D02*
D03*
Y114537D02*
D03*
X38779D02*
D03*
X40748D02*
D03*
X42716D02*
D03*
X44685D02*
D03*
X46653D02*
D03*
X55709Y46880D02*
D03*
X57677D02*
D03*
X59646D02*
D03*
X61614D02*
D03*
X63583D02*
D03*
X65551D02*
D03*
Y31860D02*
D03*
X63583D02*
D03*
X61614D02*
D03*
X59646D02*
D03*
X57677D02*
D03*
X55709D02*
D03*
D79*
X60630Y124016D02*
D03*
X41732Y37402D02*
D03*
Y122047D02*
D03*
X60630Y39370D02*
D03*
D80*
X42913Y12891D02*
D03*
Y10731D02*
D03*
Y5810D02*
D03*
Y7970D02*
D03*
X65158Y100101D02*
D03*
Y102261D02*
D03*
X24016Y63290D02*
D03*
Y65450D02*
D03*
Y77070D02*
D03*
Y79230D02*
D03*
X59449Y10731D02*
D03*
Y12891D02*
D03*
Y7970D02*
D03*
Y5810D02*
D03*
X65748Y64274D02*
D03*
Y66434D02*
D03*
D81*
X84416Y64567D02*
D03*
X82514D02*
D03*
X66699Y85433D02*
D03*
X64797D02*
D03*
X66699Y83465D02*
D03*
X64797D02*
D03*
X66699Y81496D02*
D03*
X64797D02*
D03*
X84416Y71653D02*
D03*
X82514D02*
D03*
X64994Y104921D02*
D03*
X66896D02*
D03*
X70833Y102362D02*
D03*
X68931D02*
D03*
Y104921D02*
D03*
X70833D02*
D03*
X66699Y95276D02*
D03*
X64797D02*
D03*
X73458Y88189D02*
D03*
X75361D02*
D03*
X84416Y69291D02*
D03*
X82514D02*
D03*
X69128Y88189D02*
D03*
X71030D02*
D03*
X29298Y77165D02*
D03*
X27395D02*
D03*
X29298Y80315D02*
D03*
X27395D02*
D03*
X29298Y70866D02*
D03*
X27395D02*
D03*
D82*
X64668Y90551D02*
D03*
X66828D02*
D03*
X51474Y96850D02*
D03*
X49314D02*
D03*
X73329Y102362D02*
D03*
X75489D02*
D03*
X84545Y62205D02*
D03*
X82385D02*
D03*
X84545Y66929D02*
D03*
X82385D02*
D03*
X64668Y97638D02*
D03*
X66828D02*
D03*
X64668Y92913D02*
D03*
X66828D02*
D03*
X29427Y74016D02*
D03*
X27266D02*
D03*
X49511Y49606D02*
D03*
X51671D02*
D03*
X66828Y88189D02*
D03*
X64668D02*
D03*
D83*
X34252Y110006D02*
D03*
Y108104D02*
D03*
X61024Y111975D02*
D03*
Y110073D02*
D03*
X63386Y111975D02*
D03*
Y110073D02*
D03*
X65748Y111975D02*
D03*
Y110073D02*
D03*
X34252Y25361D02*
D03*
Y23458D02*
D03*
X42520Y60990D02*
D03*
Y59088D02*
D03*
X39370Y60990D02*
D03*
Y59088D02*
D03*
X36220Y60990D02*
D03*
Y59088D02*
D03*
X39370Y96687D02*
D03*
Y98589D02*
D03*
X42520Y96687D02*
D03*
Y98589D02*
D03*
X48819Y60990D02*
D03*
Y59088D02*
D03*
X51968Y60990D02*
D03*
Y59088D02*
D03*
X58661Y25427D02*
D03*
Y27329D02*
D03*
X63386Y25427D02*
D03*
Y27329D02*
D03*
X41339Y135990D02*
D03*
Y134088D02*
D03*
Y51345D02*
D03*
Y49443D02*
D03*
X36614Y51345D02*
D03*
Y49443D02*
D03*
X65748Y25427D02*
D03*
Y27329D02*
D03*
X68110Y53313D02*
D03*
Y51411D02*
D03*
X34252Y135990D02*
D03*
Y134088D02*
D03*
Y51345D02*
D03*
Y49443D02*
D03*
X36614Y23458D02*
D03*
Y25361D02*
D03*
X68110Y137959D02*
D03*
Y136057D02*
D03*
X61024Y25427D02*
D03*
Y27329D02*
D03*
X43701Y135990D02*
D03*
Y134088D02*
D03*
X38976Y135990D02*
D03*
Y134088D02*
D03*
Y51345D02*
D03*
Y49443D02*
D03*
X68110Y25427D02*
D03*
Y27329D02*
D03*
X36614Y135990D02*
D03*
Y134088D02*
D03*
X68110Y110073D02*
D03*
Y111975D02*
D03*
X65748Y137959D02*
D03*
Y136057D02*
D03*
Y69521D02*
D03*
Y71423D02*
D03*
D84*
X61417Y64567D02*
D03*
X58268D02*
D03*
X55118D02*
D03*
X51968D02*
D03*
X48819D02*
D03*
X45669D02*
D03*
X42520D02*
D03*
X39370D02*
D03*
X36220D02*
D03*
X33071D02*
D03*
X61417Y67716D02*
D03*
X58268D02*
D03*
X55118D02*
D03*
X51968D02*
D03*
X48819D02*
D03*
X45669D02*
D03*
X42520D02*
D03*
X39370D02*
D03*
X36220D02*
D03*
X33071D02*
D03*
X61417Y70866D02*
D03*
X58268D02*
D03*
X55118D02*
D03*
X51968D02*
D03*
X48819D02*
D03*
X45669D02*
D03*
X42520D02*
D03*
X39370D02*
D03*
X36220D02*
D03*
X33071D02*
D03*
X61417Y74016D02*
D03*
X58268D02*
D03*
X55118D02*
D03*
X51968D02*
D03*
X48819D02*
D03*
X45669D02*
D03*
X42520D02*
D03*
X39370D02*
D03*
X36220D02*
D03*
X33071D02*
D03*
X61417Y77165D02*
D03*
X58268D02*
D03*
X55118D02*
D03*
X51968D02*
D03*
X48819D02*
D03*
X45669D02*
D03*
X42520D02*
D03*
X39370D02*
D03*
X36220D02*
D03*
X33071D02*
D03*
X61417Y80315D02*
D03*
X58268D02*
D03*
X55118D02*
D03*
X51968D02*
D03*
X48819D02*
D03*
X45669D02*
D03*
X42520D02*
D03*
X39370D02*
D03*
X36220D02*
D03*
X33071D02*
D03*
X61417Y83464D02*
D03*
X58268D02*
D03*
X55118D02*
D03*
X51968D02*
D03*
X48819D02*
D03*
X45669D02*
D03*
X42520D02*
D03*
X39370D02*
D03*
X36220D02*
D03*
X33071D02*
D03*
X61417Y86614D02*
D03*
X58268D02*
D03*
X55118D02*
D03*
X51968D02*
D03*
X48819D02*
D03*
X45669D02*
D03*
X42520D02*
D03*
X39370D02*
D03*
X36220D02*
D03*
X33071D02*
D03*
X61417Y89764D02*
D03*
X58268D02*
D03*
X55118D02*
D03*
X51968D02*
D03*
X48819D02*
D03*
X45669D02*
D03*
X42520D02*
D03*
X39370D02*
D03*
X36220D02*
D03*
X33071D02*
D03*
X61417Y92913D02*
D03*
X58268D02*
D03*
X55118D02*
D03*
X51968D02*
D03*
X48819D02*
D03*
X45669D02*
D03*
X42520D02*
D03*
X39370D02*
D03*
X36220D02*
D03*
X33071D02*
D03*
D86*
X66181Y165354D02*
D03*
D87*
X56181D02*
D03*
X46181D02*
D03*
X36181D02*
D03*
D88*
X11811Y149606D02*
D03*
X90551D02*
D03*
X11811Y11811D02*
D03*
X90551D02*
D03*
D89*
X99213Y98425D02*
D03*
Y74803D02*
D03*
D90*
Y86614D02*
D03*
Y62992D02*
D03*
D91*
X3150Y124016D02*
D03*
Y112205D02*
D03*
Y135827D02*
D03*
Y25591D02*
D03*
Y49213D02*
D03*
Y37402D02*
D03*
X99213Y124016D02*
D03*
Y135827D02*
D03*
Y112205D02*
D03*
Y49213D02*
D03*
Y25591D02*
D03*
Y37402D02*
D03*
M02*
