G04*
G04 #@! TF.GenerationSoftware,Altium Limited,Altium Designer,24.8.2 (39)*
G04*
G04 Layer_Color=8421504*
%FSLAX25Y25*%
%MOIN*%
G70*
G04*
G04 #@! TF.SameCoordinates,C8608415-0D93-4E33-BC52-9C0F9C252278*
G04*
G04*
G04 #@! TF.FilePolarity,Positive*
G04*
G01*
G75*
%ADD12R,0.03543X0.02362*%
%ADD13R,0.03543X0.01181*%
%ADD14R,0.02362X0.01575*%
%ADD15R,0.04134X0.02756*%
G36*
X10649Y7971D02*
X11117Y7968D01*
X11979Y7606D01*
X12639Y6942D01*
X12996Y6077D01*
Y5141D01*
X12639Y4276D01*
X11979Y3613D01*
X11117Y3250D01*
X10649Y3247D01*
X10649Y3247D01*
X5924Y3247D01*
X5456Y3250D01*
X4594Y3613D01*
X3934Y4276D01*
X3577Y5141D01*
Y6077D01*
X3934Y6942D01*
X4594Y7606D01*
X5456Y7968D01*
X5924Y7971D01*
D01*
X10649D01*
X10649D01*
D02*
G37*
G36*
X25610Y7952D02*
X26080D01*
X26948Y7592D01*
X27612Y6928D01*
X27972Y6060D01*
Y5120D01*
X27612Y4251D01*
X26948Y3587D01*
X26080Y3227D01*
X25610D01*
D01*
X22460D01*
X21990D01*
X21122Y3587D01*
X20457Y4251D01*
X20097Y5120D01*
Y6060D01*
X20457Y6928D01*
X21122Y7592D01*
X21990Y7952D01*
X22460D01*
D01*
X25610D01*
D01*
D02*
G37*
G36*
X10649Y51869D02*
X11115Y51864D01*
X11974Y51499D01*
X12630Y50836D01*
X12984Y49973D01*
Y49040D01*
X12630Y48178D01*
X11974Y47514D01*
X11115Y47150D01*
X10649Y47145D01*
Y47145D01*
X5924Y47145D01*
X5458Y47150D01*
X4599Y47514D01*
X3943Y48178D01*
X3589Y49040D01*
Y49973D01*
X3943Y50836D01*
X4599Y51499D01*
X5458Y51864D01*
X5924Y51869D01*
X5924D01*
X10649D01*
D01*
D02*
G37*
G36*
X25610Y51889D02*
X26080D01*
X26948Y51529D01*
X27613Y50865D01*
X27972Y49996D01*
Y49057D01*
X27613Y48188D01*
X26948Y47524D01*
X26080Y47164D01*
X25610D01*
D01*
X22460D01*
X21991D01*
X21123Y47524D01*
X20458Y48188D01*
X20098Y49057D01*
Y49996D01*
X20458Y50865D01*
X21123Y51529D01*
X21991Y51889D01*
X22460D01*
D01*
X25610D01*
D01*
D02*
G37*
D12*
X27756Y14922D02*
D03*
Y18071D02*
D03*
Y37048D02*
D03*
Y40197D02*
D03*
D13*
Y34449D02*
D03*
Y32481D02*
D03*
Y30512D02*
D03*
Y28544D02*
D03*
Y26575D02*
D03*
Y24607D02*
D03*
Y22638D02*
D03*
Y20670D02*
D03*
D14*
X109498Y33465D02*
D03*
Y31102D02*
D03*
Y28741D02*
D03*
Y26378D02*
D03*
Y24015D02*
D03*
Y21654D02*
D03*
D15*
X114911Y17914D02*
D03*
Y37205D02*
D03*
M02*
