G04*
G04 #@! TF.GenerationSoftware,Altium Limited,Altium Designer,24.8.2 (39)*
G04*
G04 Layer_Color=65535*
%FSLAX25Y25*%
%MOIN*%
G70*
G04*
G04 #@! TF.SameCoordinates,C8608415-0D93-4E33-BC52-9C0F9C252278*
G04*
G04*
G04 #@! TF.FilePolarity,Positive*
G04*
G01*
G75*
%ADD10C,0.01000*%
%ADD11C,0.00472*%
G36*
X109006Y19293D02*
X110506Y18293D01*
Y20293D01*
X109006Y19293D01*
D01*
D02*
G37*
G36*
X102868Y34243D02*
X102877D01*
X102887Y34242D01*
X102911Y34241D01*
X102938Y34238D01*
X102969Y34235D01*
X103001Y34229D01*
X103035Y34224D01*
X103071Y34215D01*
X103108Y34206D01*
X103144Y34194D01*
X103180Y34181D01*
X103215Y34165D01*
X103249Y34146D01*
X103279Y34126D01*
X103282Y34125D01*
X103286Y34120D01*
X103295Y34114D01*
X103305Y34104D01*
X103318Y34092D01*
X103332Y34078D01*
X103348Y34060D01*
X103364Y34041D01*
X103382Y34019D01*
X103398Y33995D01*
X103416Y33968D01*
X103432Y33939D01*
X103447Y33908D01*
X103461Y33874D01*
X103473Y33839D01*
X103483Y33801D01*
X103181Y33744D01*
Y33745D01*
X103180Y33748D01*
X103178Y33755D01*
X103175Y33763D01*
X103172Y33771D01*
X103166Y33782D01*
X103161Y33794D01*
X103154Y33807D01*
X103146Y33821D01*
X103138Y33835D01*
X103128Y33850D01*
X103117Y33864D01*
X103104Y33878D01*
X103091Y33892D01*
X103077Y33907D01*
X103060Y33919D01*
X103059Y33920D01*
X103056Y33922D01*
X103052Y33925D01*
X103045Y33928D01*
X103036Y33934D01*
X103025Y33939D01*
X103013Y33945D01*
X103000Y33951D01*
X102985Y33958D01*
X102969Y33963D01*
X102950Y33969D01*
X102931Y33974D01*
X102911Y33977D01*
X102888Y33981D01*
X102865Y33983D01*
X102841Y33984D01*
X102832D01*
X102822Y33983D01*
X102808Y33982D01*
X102791Y33980D01*
X102771Y33977D01*
X102751Y33973D01*
X102727Y33968D01*
X102702Y33961D01*
X102677Y33952D01*
X102649Y33942D01*
X102623Y33931D01*
X102597Y33915D01*
X102572Y33899D01*
X102547Y33879D01*
X102524Y33856D01*
X102523Y33855D01*
X102519Y33851D01*
X102513Y33843D01*
X102506Y33832D01*
X102497Y33819D01*
X102487Y33803D01*
X102476Y33784D01*
X102465Y33763D01*
X102454Y33738D01*
X102443Y33709D01*
X102434Y33679D01*
X102425Y33645D01*
X102417Y33608D01*
X102412Y33569D01*
X102407Y33526D01*
X102406Y33481D01*
Y33480D01*
Y33478D01*
Y33475D01*
Y33470D01*
Y33463D01*
X102407Y33456D01*
Y33448D01*
X102409Y33438D01*
X102410Y33415D01*
X102413Y33390D01*
X102416Y33362D01*
X102422Y33331D01*
X102427Y33298D01*
X102436Y33266D01*
X102445Y33232D01*
X102456Y33199D01*
X102470Y33167D01*
X102486Y33135D01*
X102504Y33105D01*
X102525Y33079D01*
X102526Y33078D01*
X102531Y33074D01*
X102537Y33067D01*
X102547Y33059D01*
X102559Y33049D01*
X102573Y33037D01*
X102591Y33025D01*
X102609Y33013D01*
X102631Y33000D01*
X102654Y32988D01*
X102680Y32977D01*
X102708Y32966D01*
X102738Y32957D01*
X102769Y32951D01*
X102803Y32946D01*
X102838Y32945D01*
X102848D01*
X102854Y32946D01*
X102863D01*
X102874Y32947D01*
X102885Y32948D01*
X102898Y32950D01*
X102912Y32952D01*
X102927Y32954D01*
X102959Y32960D01*
X102994Y32970D01*
X103030Y32982D01*
X103031D01*
X103034Y32984D01*
X103040Y32985D01*
X103046Y32989D01*
X103054Y32992D01*
X103064Y32996D01*
X103075Y33002D01*
X103086Y33007D01*
X103113Y33020D01*
X103140Y33036D01*
X103168Y33053D01*
X103196Y33073D01*
Y33265D01*
X102847D01*
Y33520D01*
X103503D01*
Y32918D01*
X103502Y32917D01*
X103498Y32914D01*
X103493Y32909D01*
X103485Y32903D01*
X103476Y32894D01*
X103463Y32885D01*
X103448Y32874D01*
X103432Y32862D01*
X103413Y32850D01*
X103393Y32837D01*
X103370Y32824D01*
X103345Y32810D01*
X103319Y32796D01*
X103289Y32782D01*
X103258Y32768D01*
X103225Y32754D01*
X103223Y32753D01*
X103217Y32751D01*
X103208Y32748D01*
X103193Y32743D01*
X103177Y32738D01*
X103157Y32733D01*
X103136Y32726D01*
X103112Y32720D01*
X103084Y32713D01*
X103056Y32706D01*
X103025Y32701D01*
X102994Y32696D01*
X102961Y32691D01*
X102927Y32688D01*
X102892Y32686D01*
X102858Y32685D01*
X102841D01*
X102835Y32686D01*
X102818D01*
X102798Y32688D01*
X102774Y32690D01*
X102746Y32693D01*
X102717Y32697D01*
X102685Y32702D01*
X102653Y32709D01*
X102619Y32717D01*
X102584Y32726D01*
X102548Y32738D01*
X102513Y32751D01*
X102478Y32766D01*
X102445Y32784D01*
X102442Y32785D01*
X102437Y32788D01*
X102428Y32795D01*
X102416Y32802D01*
X102401Y32812D01*
X102384Y32825D01*
X102366Y32840D01*
X102345Y32857D01*
X102325Y32875D01*
X102303Y32896D01*
X102281Y32920D01*
X102259Y32945D01*
X102237Y32972D01*
X102218Y33002D01*
X102198Y33033D01*
X102181Y33067D01*
X102180Y33070D01*
X102177Y33076D01*
X102173Y33086D01*
X102166Y33100D01*
X102160Y33117D01*
X102152Y33137D01*
X102145Y33161D01*
X102137Y33187D01*
X102128Y33215D01*
X102121Y33247D01*
X102113Y33280D01*
X102107Y33315D01*
X102101Y33352D01*
X102097Y33390D01*
X102094Y33429D01*
X102092Y33470D01*
Y33471D01*
Y33472D01*
Y33476D01*
Y33480D01*
Y33486D01*
X102094Y33492D01*
Y33509D01*
X102096Y33529D01*
X102098Y33553D01*
X102101Y33581D01*
X102104Y33610D01*
X102110Y33642D01*
X102116Y33676D01*
X102124Y33710D01*
X102134Y33745D01*
X102145Y33781D01*
X102158Y33817D01*
X102173Y33853D01*
X102190Y33888D01*
X102192Y33890D01*
X102195Y33896D01*
X102201Y33906D01*
X102209Y33919D01*
X102219Y33934D01*
X102232Y33951D01*
X102247Y33971D01*
X102263Y33992D01*
X102283Y34014D01*
X102305Y34037D01*
X102328Y34060D01*
X102354Y34084D01*
X102382Y34107D01*
X102413Y34129D01*
X102445Y34150D01*
X102479Y34169D01*
X102481Y34170D01*
X102486Y34172D01*
X102495Y34176D01*
X102506Y34181D01*
X102520Y34187D01*
X102537Y34193D01*
X102557Y34200D01*
X102578Y34207D01*
X102604Y34214D01*
X102632Y34220D01*
X102661Y34227D01*
X102693Y34233D01*
X102727Y34238D01*
X102764Y34241D01*
X102802Y34243D01*
X102841Y34244D01*
X102860D01*
X102868Y34243D01*
D02*
G37*
G36*
X104983Y32711D02*
X104678D01*
X104069Y33698D01*
Y32711D01*
X103786D01*
Y34219D01*
X104082D01*
X104701Y33209D01*
Y34219D01*
X104983D01*
Y32711D01*
D02*
G37*
G36*
X105907Y34218D02*
X105926D01*
X105946Y34217D01*
X105967Y34216D01*
X105990Y34214D01*
X106013Y34212D01*
X106061Y34207D01*
X106084Y34204D01*
X106107Y34200D01*
X106128Y34195D01*
X106147Y34190D01*
X106148D01*
X106153Y34188D01*
X106160Y34186D01*
X106169Y34182D01*
X106181Y34178D01*
X106194Y34172D01*
X106209Y34166D01*
X106226Y34158D01*
X106243Y34149D01*
X106262Y34139D01*
X106280Y34127D01*
X106300Y34115D01*
X106318Y34101D01*
X106338Y34085D01*
X106357Y34069D01*
X106375Y34051D01*
X106376Y34049D01*
X106379Y34046D01*
X106384Y34041D01*
X106390Y34033D01*
X106399Y34023D01*
X106408Y34011D01*
X106418Y33998D01*
X106428Y33983D01*
X106440Y33965D01*
X106451Y33947D01*
X106463Y33927D01*
X106475Y33906D01*
X106487Y33883D01*
X106498Y33859D01*
X106509Y33832D01*
X106519Y33806D01*
X106520Y33805D01*
X106521Y33800D01*
X106523Y33792D01*
X106527Y33780D01*
X106531Y33766D01*
X106535Y33750D01*
X106540Y33730D01*
X106544Y33708D01*
X106548Y33683D01*
X106553Y33656D01*
X106557Y33626D01*
X106561Y33595D01*
X106565Y33562D01*
X106567Y33526D01*
X106569Y33489D01*
Y33450D01*
Y33448D01*
Y33441D01*
Y33431D01*
X106568Y33418D01*
Y33403D01*
X106567Y33383D01*
X106565Y33363D01*
X106564Y33340D01*
X106560Y33316D01*
X106558Y33290D01*
X106549Y33236D01*
X106537Y33182D01*
X106531Y33156D01*
X106522Y33129D01*
X106521Y33127D01*
X106520Y33122D01*
X106517Y33113D01*
X106511Y33102D01*
X106506Y33088D01*
X106499Y33072D01*
X106491Y33054D01*
X106481Y33035D01*
X106470Y33014D01*
X106458Y32992D01*
X106445Y32970D01*
X106431Y32947D01*
X106414Y32926D01*
X106398Y32904D01*
X106380Y32882D01*
X106361Y32862D01*
X106360Y32861D01*
X106358Y32859D01*
X106352Y32855D01*
X106347Y32849D01*
X106338Y32843D01*
X106328Y32836D01*
X106317Y32827D01*
X106304Y32819D01*
X106290Y32809D01*
X106274Y32799D01*
X106256Y32789D01*
X106238Y32779D01*
X106217Y32770D01*
X106195Y32760D01*
X106172Y32751D01*
X106147Y32743D01*
X106146D01*
X106143Y32741D01*
X106136Y32739D01*
X106129Y32738D01*
X106119Y32735D01*
X106106Y32733D01*
X106092Y32729D01*
X106075Y32727D01*
X106057Y32724D01*
X106037Y32721D01*
X106014Y32719D01*
X105990Y32716D01*
X105964Y32714D01*
X105937Y32712D01*
X105907Y32711D01*
X105305D01*
Y34219D01*
X105891D01*
X105907Y34218D01*
D02*
G37*
G36*
X104572Y24795D02*
X104579D01*
X104589Y24793D01*
X104599D01*
X104623Y24790D01*
X104649Y24787D01*
X104680Y24781D01*
X104712Y24775D01*
X104747Y24766D01*
X104784Y24755D01*
X104821Y24742D01*
X104859Y24726D01*
X104896Y24707D01*
X104934Y24686D01*
X104968Y24660D01*
X105002Y24631D01*
X105003Y24630D01*
X105007Y24627D01*
X105012Y24621D01*
X105018Y24614D01*
X105027Y24604D01*
X105037Y24591D01*
X105048Y24577D01*
X105060Y24560D01*
X105072Y24542D01*
X105085Y24521D01*
X105098Y24498D01*
X105111Y24474D01*
X105123Y24447D01*
X105135Y24419D01*
X105147Y24387D01*
X105157Y24354D01*
X104855Y24282D01*
Y24283D01*
X104854Y24288D01*
X104852Y24293D01*
X104850Y24302D01*
X104846Y24312D01*
X104842Y24323D01*
X104836Y24336D01*
X104831Y24349D01*
X104816Y24378D01*
X104806Y24393D01*
X104796Y24409D01*
X104785Y24424D01*
X104772Y24439D01*
X104758Y24453D01*
X104743Y24466D01*
X104742Y24468D01*
X104739Y24470D01*
X104734Y24473D01*
X104727Y24477D01*
X104720Y24483D01*
X104710Y24488D01*
X104698Y24495D01*
X104686Y24501D01*
X104671Y24507D01*
X104656Y24513D01*
X104638Y24519D01*
X104621Y24524D01*
X104601Y24529D01*
X104580Y24532D01*
X104560Y24534D01*
X104537Y24535D01*
X104529D01*
X104520Y24534D01*
X104509Y24533D01*
X104495Y24532D01*
X104479Y24529D01*
X104460Y24525D01*
X104441Y24520D01*
X104419Y24513D01*
X104397Y24506D01*
X104374Y24496D01*
X104351Y24484D01*
X104330Y24470D01*
X104307Y24454D01*
X104286Y24436D01*
X104265Y24414D01*
X104264Y24413D01*
X104261Y24409D01*
X104255Y24401D01*
X104249Y24391D01*
X104241Y24378D01*
X104233Y24362D01*
X104223Y24343D01*
X104214Y24320D01*
X104204Y24295D01*
X104194Y24266D01*
X104186Y24234D01*
X104178Y24199D01*
X104172Y24160D01*
X104166Y24119D01*
X104163Y24073D01*
X104162Y24024D01*
Y24023D01*
Y24021D01*
Y24016D01*
Y24012D01*
Y24004D01*
X104163Y23997D01*
Y23988D01*
X104164Y23977D01*
X104165Y23954D01*
X104167Y23927D01*
X104171Y23898D01*
X104175Y23866D01*
X104180Y23833D01*
X104187Y23799D01*
X104196Y23766D01*
X104205Y23732D01*
X104216Y23700D01*
X104230Y23670D01*
X104246Y23642D01*
X104264Y23617D01*
X104265Y23616D01*
X104269Y23612D01*
X104275Y23607D01*
X104283Y23599D01*
X104293Y23589D01*
X104306Y23579D01*
X104320Y23568D01*
X104336Y23557D01*
X104355Y23545D01*
X104374Y23535D01*
X104396Y23525D01*
X104420Y23515D01*
X104445Y23507D01*
X104472Y23502D01*
X104501Y23497D01*
X104531Y23496D01*
X104543D01*
X104552Y23497D01*
X104562Y23499D01*
X104574Y23501D01*
X104588Y23503D01*
X104603Y23506D01*
X104619Y23509D01*
X104635Y23515D01*
X104652Y23521D01*
X104670Y23529D01*
X104688Y23538D01*
X104706Y23548D01*
X104723Y23560D01*
X104739Y23573D01*
X104741Y23574D01*
X104744Y23576D01*
X104748Y23581D01*
X104754Y23588D01*
X104761Y23596D01*
X104770Y23607D01*
X104779Y23618D01*
X104788Y23633D01*
X104798Y23648D01*
X104809Y23666D01*
X104820Y23686D01*
X104830Y23708D01*
X104840Y23733D01*
X104850Y23758D01*
X104858Y23786D01*
X104866Y23817D01*
X105161Y23723D01*
Y23722D01*
X105160Y23720D01*
X105159Y23717D01*
X105158Y23712D01*
X105156Y23707D01*
X105154Y23699D01*
X105148Y23683D01*
X105141Y23662D01*
X105131Y23638D01*
X105120Y23612D01*
X105107Y23585D01*
X105093Y23555D01*
X105076Y23525D01*
X105058Y23494D01*
X105037Y23464D01*
X105014Y23434D01*
X104990Y23406D01*
X104963Y23380D01*
X104935Y23356D01*
X104932Y23355D01*
X104927Y23350D01*
X104918Y23345D01*
X104906Y23337D01*
X104891Y23328D01*
X104872Y23318D01*
X104851Y23307D01*
X104826Y23296D01*
X104798Y23285D01*
X104768Y23274D01*
X104735Y23264D01*
X104699Y23254D01*
X104662Y23247D01*
X104622Y23241D01*
X104579Y23237D01*
X104534Y23236D01*
X104522D01*
X104514Y23237D01*
X104505D01*
X104495Y23238D01*
X104484Y23239D01*
X104472Y23240D01*
X104459Y23242D01*
X104429Y23247D01*
X104396Y23253D01*
X104360Y23262D01*
X104322Y23272D01*
X104282Y23286D01*
X104241Y23302D01*
X104199Y23322D01*
X104158Y23346D01*
X104117Y23373D01*
X104097Y23389D01*
X104078Y23405D01*
X104059Y23422D01*
X104041Y23441D01*
Y23442D01*
X104039Y23443D01*
X104036Y23446D01*
X104032Y23451D01*
X104028Y23456D01*
X104023Y23463D01*
X104017Y23470D01*
X104010Y23479D01*
X104004Y23489D01*
X103996Y23500D01*
X103988Y23512D01*
X103980Y23525D01*
X103962Y23554D01*
X103945Y23588D01*
X103926Y23626D01*
X103909Y23667D01*
X103893Y23714D01*
X103878Y23765D01*
X103865Y23818D01*
X103857Y23876D01*
X103850Y23937D01*
X103849Y23969D01*
X103848Y24002D01*
Y24003D01*
Y24006D01*
Y24012D01*
Y24018D01*
X103849Y24027D01*
Y24038D01*
X103850Y24050D01*
X103851Y24064D01*
X103852Y24080D01*
X103853Y24096D01*
X103856Y24113D01*
X103858Y24132D01*
X103864Y24172D01*
X103872Y24216D01*
X103883Y24263D01*
X103895Y24311D01*
X103911Y24359D01*
X103930Y24408D01*
X103953Y24456D01*
X103978Y24501D01*
X104008Y24546D01*
X104024Y24567D01*
X104042Y24586D01*
X104043Y24588D01*
X104044Y24589D01*
X104047Y24592D01*
X104051Y24595D01*
X104061Y24606D01*
X104077Y24619D01*
X104096Y24635D01*
X104120Y24653D01*
X104148Y24671D01*
X104178Y24691D01*
X104213Y24711D01*
X104252Y24729D01*
X104294Y24748D01*
X104339Y24763D01*
X104388Y24776D01*
X104440Y24787D01*
X104495Y24793D01*
X104524Y24795D01*
X104553Y24796D01*
X104565D01*
X104572Y24795D01*
D02*
G37*
G36*
X103050D02*
X103058D01*
X103067Y24793D01*
X103077D01*
X103101Y24790D01*
X103127Y24787D01*
X103158Y24781D01*
X103191Y24775D01*
X103226Y24766D01*
X103262Y24755D01*
X103300Y24742D01*
X103338Y24726D01*
X103375Y24707D01*
X103412Y24686D01*
X103447Y24660D01*
X103481Y24631D01*
X103482Y24630D01*
X103485Y24627D01*
X103490Y24621D01*
X103497Y24614D01*
X103506Y24604D01*
X103515Y24591D01*
X103526Y24577D01*
X103538Y24560D01*
X103550Y24542D01*
X103563Y24521D01*
X103576Y24498D01*
X103589Y24474D01*
X103602Y24447D01*
X103613Y24419D01*
X103626Y24387D01*
X103635Y24354D01*
X103333Y24282D01*
Y24283D01*
X103332Y24288D01*
X103330Y24293D01*
X103328Y24302D01*
X103325Y24312D01*
X103320Y24323D01*
X103315Y24336D01*
X103309Y24349D01*
X103294Y24378D01*
X103284Y24393D01*
X103275Y24409D01*
X103264Y24424D01*
X103251Y24439D01*
X103236Y24453D01*
X103221Y24466D01*
X103220Y24468D01*
X103218Y24470D01*
X103212Y24473D01*
X103206Y24477D01*
X103198Y24483D01*
X103188Y24488D01*
X103176Y24495D01*
X103164Y24501D01*
X103149Y24507D01*
X103134Y24513D01*
X103117Y24519D01*
X103099Y24524D01*
X103079Y24529D01*
X103059Y24532D01*
X103038Y24534D01*
X103015Y24535D01*
X103007D01*
X102999Y24534D01*
X102988Y24533D01*
X102974Y24532D01*
X102957Y24529D01*
X102939Y24525D01*
X102919Y24520D01*
X102897Y24513D01*
X102876Y24506D01*
X102853Y24496D01*
X102830Y24484D01*
X102808Y24470D01*
X102785Y24454D01*
X102764Y24436D01*
X102744Y24414D01*
X102743Y24413D01*
X102739Y24409D01*
X102734Y24401D01*
X102727Y24391D01*
X102720Y24378D01*
X102711Y24362D01*
X102701Y24343D01*
X102692Y24320D01*
X102683Y24295D01*
X102673Y24266D01*
X102664Y24234D01*
X102656Y24199D01*
X102650Y24160D01*
X102645Y24119D01*
X102641Y24073D01*
X102640Y24024D01*
Y24023D01*
Y24021D01*
Y24016D01*
Y24012D01*
Y24004D01*
X102641Y23997D01*
Y23988D01*
X102642Y23977D01*
X102643Y23954D01*
X102646Y23927D01*
X102649Y23898D01*
X102653Y23866D01*
X102659Y23833D01*
X102665Y23799D01*
X102674Y23766D01*
X102684Y23732D01*
X102695Y23700D01*
X102709Y23670D01*
X102724Y23642D01*
X102743Y23617D01*
X102744Y23616D01*
X102747Y23612D01*
X102753Y23607D01*
X102761Y23599D01*
X102771Y23589D01*
X102784Y23579D01*
X102798Y23568D01*
X102814Y23557D01*
X102833Y23545D01*
X102853Y23535D01*
X102875Y23525D01*
X102899Y23515D01*
X102924Y23507D01*
X102951Y23502D01*
X102979Y23497D01*
X103010Y23496D01*
X103022D01*
X103030Y23497D01*
X103040Y23499D01*
X103052Y23501D01*
X103066Y23503D01*
X103082Y23506D01*
X103097Y23509D01*
X103113Y23515D01*
X103131Y23521D01*
X103148Y23529D01*
X103167Y23538D01*
X103184Y23548D01*
X103201Y23560D01*
X103218Y23573D01*
X103219Y23574D01*
X103222Y23576D01*
X103226Y23581D01*
X103232Y23588D01*
X103240Y23596D01*
X103248Y23607D01*
X103257Y23618D01*
X103267Y23633D01*
X103277Y23648D01*
X103288Y23666D01*
X103298Y23686D01*
X103308Y23708D01*
X103318Y23733D01*
X103328Y23758D01*
X103337Y23786D01*
X103344Y23817D01*
X103640Y23723D01*
Y23722D01*
X103639Y23720D01*
X103638Y23717D01*
X103636Y23712D01*
X103634Y23707D01*
X103632Y23699D01*
X103627Y23683D01*
X103619Y23662D01*
X103609Y23638D01*
X103598Y23612D01*
X103585Y23585D01*
X103571Y23555D01*
X103555Y23525D01*
X103536Y23494D01*
X103515Y23464D01*
X103492Y23434D01*
X103469Y23406D01*
X103441Y23380D01*
X103413Y23356D01*
X103411Y23355D01*
X103405Y23350D01*
X103397Y23345D01*
X103385Y23337D01*
X103369Y23328D01*
X103351Y23318D01*
X103329Y23307D01*
X103304Y23296D01*
X103277Y23285D01*
X103246Y23274D01*
X103214Y23264D01*
X103177Y23254D01*
X103140Y23247D01*
X103100Y23241D01*
X103058Y23237D01*
X103013Y23236D01*
X103000D01*
X102992Y23237D01*
X102983D01*
X102974Y23238D01*
X102963Y23239D01*
X102951Y23240D01*
X102938Y23242D01*
X102907Y23247D01*
X102875Y23253D01*
X102839Y23262D01*
X102800Y23272D01*
X102760Y23286D01*
X102720Y23302D01*
X102677Y23322D01*
X102637Y23346D01*
X102595Y23373D01*
X102576Y23389D01*
X102556Y23405D01*
X102538Y23422D01*
X102519Y23441D01*
Y23442D01*
X102517Y23443D01*
X102515Y23446D01*
X102510Y23451D01*
X102506Y23456D01*
X102502Y23463D01*
X102495Y23470D01*
X102489Y23479D01*
X102482Y23489D01*
X102474Y23500D01*
X102467Y23512D01*
X102458Y23525D01*
X102441Y23554D01*
X102423Y23588D01*
X102405Y23626D01*
X102387Y23667D01*
X102371Y23714D01*
X102357Y23765D01*
X102344Y23818D01*
X102335Y23876D01*
X102328Y23937D01*
X102327Y23969D01*
X102326Y24002D01*
Y24003D01*
Y24006D01*
Y24012D01*
Y24018D01*
X102327Y24027D01*
Y24038D01*
X102328Y24050D01*
X102330Y24064D01*
X102331Y24080D01*
X102332Y24096D01*
X102334Y24113D01*
X102336Y24132D01*
X102343Y24172D01*
X102350Y24216D01*
X102361Y24263D01*
X102373Y24311D01*
X102389Y24359D01*
X102408Y24408D01*
X102431Y24456D01*
X102456Y24501D01*
X102486Y24546D01*
X102503Y24567D01*
X102520Y24586D01*
X102521Y24588D01*
X102522Y24589D01*
X102526Y24592D01*
X102529Y24595D01*
X102540Y24606D01*
X102555Y24619D01*
X102575Y24635D01*
X102599Y24653D01*
X102626Y24671D01*
X102656Y24691D01*
X102691Y24711D01*
X102731Y24729D01*
X102772Y24748D01*
X102818Y24763D01*
X102867Y24776D01*
X102918Y24787D01*
X102974Y24793D01*
X103002Y24795D01*
X103031Y24796D01*
X103043D01*
X103050Y24795D01*
D02*
G37*
G36*
X105877Y24775D02*
X105893Y24774D01*
X105911Y24773D01*
X105933Y24769D01*
X105957Y24766D01*
X105983Y24761D01*
X106010Y24754D01*
X106040Y24747D01*
X106069Y24737D01*
X106098Y24725D01*
X106127Y24711D01*
X106155Y24695D01*
X106182Y24677D01*
X106207Y24655D01*
X106208Y24654D01*
X106212Y24650D01*
X106219Y24643D01*
X106226Y24633D01*
X106236Y24621D01*
X106247Y24608D01*
X106259Y24591D01*
X106271Y24572D01*
X106283Y24552D01*
X106295Y24530D01*
X106306Y24505D01*
X106316Y24478D01*
X106323Y24450D01*
X106330Y24420D01*
X106334Y24388D01*
X106335Y24355D01*
Y24354D01*
Y24351D01*
Y24345D01*
Y24338D01*
X106334Y24329D01*
X106333Y24318D01*
X106332Y24306D01*
X106331Y24293D01*
X106326Y24264D01*
X106320Y24231D01*
X106310Y24196D01*
X106298Y24161D01*
Y24160D01*
X106296Y24157D01*
X106294Y24152D01*
X106292Y24145D01*
X106287Y24137D01*
X106282Y24127D01*
X106276Y24115D01*
X106270Y24103D01*
X106262Y24089D01*
X106254Y24074D01*
X106234Y24041D01*
X106210Y24006D01*
X106183Y23969D01*
X106182Y23968D01*
X106180Y23966D01*
X106177Y23963D01*
X106173Y23957D01*
X106166Y23950D01*
X106159Y23941D01*
X106150Y23931D01*
X106139Y23920D01*
X106127Y23907D01*
X106113Y23893D01*
X106098Y23877D01*
X106080Y23859D01*
X106062Y23841D01*
X106041Y23821D01*
X106018Y23799D01*
X105993Y23776D01*
X105992Y23775D01*
X105988Y23771D01*
X105980Y23765D01*
X105971Y23756D01*
X105960Y23746D01*
X105947Y23735D01*
X105934Y23722D01*
X105920Y23709D01*
X105891Y23681D01*
X105861Y23653D01*
X105848Y23640D01*
X105837Y23629D01*
X105826Y23618D01*
X105819Y23610D01*
X105817Y23608D01*
X105813Y23603D01*
X105806Y23595D01*
X105798Y23585D01*
X105788Y23573D01*
X105778Y23559D01*
X105768Y23544D01*
X105760Y23530D01*
X106335D01*
Y23262D01*
X105322D01*
Y23264D01*
X105323Y23269D01*
X105324Y23277D01*
X105326Y23288D01*
X105328Y23301D01*
X105331Y23318D01*
X105335Y23335D01*
X105340Y23355D01*
X105345Y23377D01*
X105353Y23399D01*
X105361Y23422D01*
X105369Y23447D01*
X105380Y23472D01*
X105392Y23499D01*
X105405Y23524D01*
X105420Y23550D01*
X105421Y23551D01*
X105424Y23556D01*
X105429Y23564D01*
X105436Y23575D01*
X105446Y23588D01*
X105459Y23604D01*
X105474Y23624D01*
X105492Y23646D01*
X105512Y23671D01*
X105535Y23698D01*
X105562Y23727D01*
X105592Y23760D01*
X105626Y23795D01*
X105662Y23831D01*
X105702Y23870D01*
X105745Y23912D01*
X105747Y23913D01*
X105748Y23914D01*
X105754Y23919D01*
X105764Y23929D01*
X105777Y23941D01*
X105792Y23956D01*
X105810Y23973D01*
X105828Y23991D01*
X105849Y24011D01*
X105889Y24052D01*
X105910Y24072D01*
X105929Y24093D01*
X105947Y24111D01*
X105962Y24129D01*
X105975Y24145D01*
X105985Y24158D01*
X105986Y24159D01*
X105988Y24162D01*
X105991Y24167D01*
X105995Y24173D01*
X106000Y24182D01*
X106004Y24191D01*
X106009Y24202D01*
X106016Y24214D01*
X106027Y24241D01*
X106035Y24270D01*
X106043Y24303D01*
X106044Y24319D01*
X106045Y24336D01*
Y24337D01*
Y24340D01*
Y24344D01*
X106044Y24352D01*
Y24360D01*
X106043Y24368D01*
X106039Y24390D01*
X106032Y24414D01*
X106024Y24439D01*
X106010Y24462D01*
X106002Y24474D01*
X105993Y24484D01*
X105992Y24485D01*
X105991Y24486D01*
X105988Y24488D01*
X105983Y24493D01*
X105978Y24496D01*
X105971Y24500D01*
X105964Y24506D01*
X105956Y24510D01*
X105935Y24520D01*
X105910Y24529D01*
X105882Y24534D01*
X105865Y24535D01*
X105849Y24536D01*
X105840D01*
X105834Y24535D01*
X105826D01*
X105817Y24533D01*
X105797Y24530D01*
X105774Y24523D01*
X105749Y24513D01*
X105738Y24507D01*
X105726Y24500D01*
X105715Y24491D01*
X105704Y24482D01*
X105703Y24481D01*
X105702Y24480D01*
X105699Y24476D01*
X105695Y24471D01*
X105691Y24465D01*
X105687Y24458D01*
X105682Y24449D01*
X105677Y24439D01*
X105671Y24427D01*
X105666Y24414D01*
X105660Y24399D01*
X105656Y24383D01*
X105652Y24364D01*
X105647Y24344D01*
X105645Y24324D01*
X105643Y24301D01*
X105355Y24329D01*
Y24330D01*
Y24332D01*
X105356Y24336D01*
Y24340D01*
X105358Y24345D01*
X105359Y24352D01*
X105362Y24368D01*
X105365Y24388D01*
X105371Y24410D01*
X105377Y24435D01*
X105385Y24461D01*
X105395Y24489D01*
X105405Y24518D01*
X105419Y24546D01*
X105434Y24574D01*
X105450Y24602D01*
X105470Y24627D01*
X105492Y24651D01*
X105516Y24671D01*
X105517Y24672D01*
X105522Y24676D01*
X105530Y24681D01*
X105540Y24688D01*
X105554Y24695D01*
X105569Y24704D01*
X105589Y24714D01*
X105609Y24724D01*
X105632Y24734D01*
X105658Y24743D01*
X105687Y24752D01*
X105716Y24760D01*
X105749Y24766D01*
X105783Y24772D01*
X105819Y24775D01*
X105856Y24776D01*
X105865D01*
X105877Y24775D01*
D02*
G37*
G36*
X105817Y25624D02*
X105535D01*
X105534Y26811D01*
X105235Y25624D01*
X104942D01*
X104645Y26811D01*
Y25624D01*
X104362D01*
Y27132D01*
X104818D01*
X105090Y26102D01*
X105360Y27132D01*
X105817D01*
Y25624D01*
D02*
G37*
G36*
X103447Y27131D02*
X103465D01*
X103485Y27130D01*
X103507Y27129D01*
X103530Y27127D01*
X103552Y27125D01*
X103600Y27120D01*
X103623Y27117D01*
X103646Y27113D01*
X103667Y27108D01*
X103686Y27103D01*
X103688D01*
X103692Y27101D01*
X103700Y27098D01*
X103708Y27095D01*
X103720Y27091D01*
X103733Y27085D01*
X103749Y27079D01*
X103765Y27071D01*
X103782Y27061D01*
X103801Y27052D01*
X103820Y27040D01*
X103839Y27028D01*
X103858Y27013D01*
X103877Y26998D01*
X103896Y26982D01*
X103914Y26963D01*
X103915Y26962D01*
X103919Y26959D01*
X103923Y26954D01*
X103930Y26946D01*
X103938Y26936D01*
X103947Y26924D01*
X103957Y26911D01*
X103968Y26896D01*
X103980Y26878D01*
X103991Y26860D01*
X104003Y26840D01*
X104015Y26818D01*
X104027Y26795D01*
X104037Y26771D01*
X104048Y26745D01*
X104058Y26719D01*
X104059Y26718D01*
X104060Y26713D01*
X104063Y26705D01*
X104066Y26693D01*
X104070Y26679D01*
X104075Y26662D01*
X104079Y26643D01*
X104083Y26621D01*
X104088Y26596D01*
X104092Y26569D01*
X104096Y26539D01*
X104101Y26508D01*
X104104Y26475D01*
X104106Y26439D01*
X104108Y26402D01*
Y26363D01*
Y26360D01*
Y26354D01*
Y26344D01*
X104107Y26331D01*
Y26316D01*
X104106Y26296D01*
X104104Y26276D01*
X104103Y26253D01*
X104100Y26229D01*
X104097Y26202D01*
X104089Y26149D01*
X104077Y26094D01*
X104070Y26068D01*
X104061Y26042D01*
X104060Y26040D01*
X104059Y26035D01*
X104056Y26026D01*
X104051Y26015D01*
X104045Y26001D01*
X104039Y25984D01*
X104030Y25967D01*
X104020Y25947D01*
X104009Y25927D01*
X103997Y25905D01*
X103984Y25883D01*
X103970Y25860D01*
X103954Y25838D01*
X103937Y25817D01*
X103920Y25795D01*
X103900Y25775D01*
X103899Y25774D01*
X103897Y25772D01*
X103891Y25767D01*
X103886Y25762D01*
X103877Y25756D01*
X103867Y25749D01*
X103857Y25740D01*
X103843Y25732D01*
X103829Y25722D01*
X103813Y25712D01*
X103796Y25702D01*
X103777Y25692D01*
X103756Y25683D01*
X103735Y25673D01*
X103712Y25664D01*
X103686Y25655D01*
X103685D01*
X103682Y25654D01*
X103676Y25652D01*
X103668Y25651D01*
X103658Y25648D01*
X103645Y25646D01*
X103631Y25642D01*
X103615Y25640D01*
X103596Y25637D01*
X103576Y25633D01*
X103553Y25631D01*
X103530Y25629D01*
X103503Y25627D01*
X103476Y25625D01*
X103447Y25624D01*
X102844D01*
Y27132D01*
X103430D01*
X103447Y27131D01*
D02*
G37*
G36*
X105070Y29493D02*
X105095D01*
X105122Y29492D01*
X105151Y29491D01*
X105212Y29489D01*
X105243Y29487D01*
X105272Y29485D01*
X105300Y29482D01*
X105325Y29479D01*
X105347Y29476D01*
X105355Y29474D01*
X105364Y29472D01*
X105365D01*
X105369Y29469D01*
X105377Y29467D01*
X105386Y29465D01*
X105397Y29461D01*
X105410Y29455D01*
X105424Y29449D01*
X105440Y29440D01*
X105457Y29431D01*
X105474Y29420D01*
X105492Y29408D01*
X105510Y29395D01*
X105529Y29380D01*
X105547Y29362D01*
X105565Y29344D01*
X105581Y29323D01*
X105582Y29322D01*
X105585Y29318D01*
X105590Y29311D01*
X105595Y29303D01*
X105602Y29292D01*
X105609Y29278D01*
X105617Y29262D01*
X105626Y29244D01*
X105633Y29224D01*
X105641Y29202D01*
X105649Y29178D01*
X105655Y29152D01*
X105662Y29124D01*
X105666Y29094D01*
X105668Y29063D01*
X105669Y29030D01*
Y29029D01*
Y29024D01*
Y29017D01*
X105668Y29007D01*
Y28995D01*
X105667Y28981D01*
X105665Y28966D01*
X105663Y28948D01*
X105660Y28931D01*
X105657Y28911D01*
X105647Y28872D01*
X105635Y28833D01*
X105627Y28814D01*
X105618Y28796D01*
X105617Y28795D01*
X105616Y28791D01*
X105613Y28787D01*
X105609Y28780D01*
X105604Y28773D01*
X105598Y28763D01*
X105583Y28742D01*
X105565Y28718D01*
X105543Y28693D01*
X105518Y28669D01*
X105491Y28648D01*
X105489Y28646D01*
X105487Y28645D01*
X105483Y28642D01*
X105477Y28639D01*
X105470Y28634D01*
X105462Y28629D01*
X105452Y28624D01*
X105441Y28618D01*
X105417Y28606D01*
X105391Y28594D01*
X105363Y28583D01*
X105332Y28576D01*
X105331D01*
X105327Y28574D01*
X105322Y28573D01*
X105312Y28572D01*
X105301Y28571D01*
X105287Y28569D01*
X105271Y28567D01*
X105252Y28566D01*
X105231Y28564D01*
X105208Y28561D01*
X105182Y28559D01*
X105154Y28558D01*
X105123Y28557D01*
X105090Y28556D01*
X105054Y28555D01*
X104819D01*
Y27986D01*
X104515D01*
Y29494D01*
X105047D01*
X105070Y29493D01*
D02*
G37*
G36*
X103595D02*
X103613D01*
X103633Y29492D01*
X103655Y29491D01*
X103678Y29489D01*
X103701Y29487D01*
X103749Y29482D01*
X103771Y29479D01*
X103794Y29475D01*
X103815Y29471D01*
X103835Y29465D01*
X103836D01*
X103840Y29463D01*
X103848Y29461D01*
X103857Y29457D01*
X103869Y29453D01*
X103882Y29448D01*
X103897Y29441D01*
X103913Y29433D01*
X103931Y29424D01*
X103949Y29414D01*
X103968Y29402D01*
X103987Y29390D01*
X104006Y29376D01*
X104025Y29360D01*
X104044Y29344D01*
X104063Y29326D01*
X104064Y29324D01*
X104067Y29321D01*
X104071Y29316D01*
X104078Y29308D01*
X104087Y29298D01*
X104095Y29286D01*
X104105Y29273D01*
X104116Y29258D01*
X104128Y29241D01*
X104139Y29222D01*
X104151Y29202D01*
X104163Y29180D01*
X104175Y29158D01*
X104186Y29134D01*
X104197Y29107D01*
X104206Y29081D01*
X104208Y29080D01*
X104209Y29075D01*
X104211Y29067D01*
X104214Y29055D01*
X104218Y29041D01*
X104223Y29025D01*
X104227Y29005D01*
X104232Y28983D01*
X104236Y28958D01*
X104240Y28931D01*
X104245Y28901D01*
X104249Y28870D01*
X104252Y28837D01*
X104254Y28801D01*
X104257Y28764D01*
Y28725D01*
Y28723D01*
Y28716D01*
Y28706D01*
X104255Y28693D01*
Y28678D01*
X104254Y28658D01*
X104252Y28638D01*
X104251Y28615D01*
X104248Y28591D01*
X104246Y28565D01*
X104237Y28511D01*
X104225Y28457D01*
X104218Y28431D01*
X104210Y28404D01*
X104209Y28402D01*
X104208Y28397D01*
X104204Y28388D01*
X104199Y28377D01*
X104193Y28363D01*
X104187Y28347D01*
X104178Y28329D01*
X104168Y28310D01*
X104157Y28289D01*
X104145Y28267D01*
X104132Y28245D01*
X104118Y28222D01*
X104102Y28201D01*
X104086Y28179D01*
X104068Y28157D01*
X104048Y28137D01*
X104047Y28136D01*
X104045Y28134D01*
X104040Y28130D01*
X104034Y28124D01*
X104025Y28118D01*
X104016Y28111D01*
X104005Y28102D01*
X103992Y28094D01*
X103978Y28084D01*
X103961Y28074D01*
X103944Y28064D01*
X103925Y28055D01*
X103904Y28045D01*
X103883Y28035D01*
X103860Y28026D01*
X103835Y28018D01*
X103834D01*
X103830Y28016D01*
X103824Y28014D01*
X103816Y28013D01*
X103806Y28010D01*
X103793Y28008D01*
X103779Y28004D01*
X103763Y28002D01*
X103744Y27999D01*
X103725Y27996D01*
X103702Y27994D01*
X103678Y27991D01*
X103652Y27989D01*
X103624Y27987D01*
X103595Y27986D01*
X102992D01*
Y29494D01*
X103579D01*
X103595Y29493D01*
D02*
G37*
G36*
X104690Y31881D02*
X104698D01*
X104707Y31880D01*
X104717D01*
X104741Y31877D01*
X104767Y31874D01*
X104798Y31868D01*
X104831Y31861D01*
X104865Y31853D01*
X104902Y31842D01*
X104939Y31829D01*
X104978Y31813D01*
X105015Y31794D01*
X105052Y31772D01*
X105087Y31747D01*
X105120Y31718D01*
X105122Y31717D01*
X105125Y31713D01*
X105130Y31708D01*
X105137Y31700D01*
X105146Y31690D01*
X105155Y31677D01*
X105166Y31663D01*
X105178Y31647D01*
X105190Y31628D01*
X105203Y31608D01*
X105216Y31585D01*
X105229Y31561D01*
X105241Y31534D01*
X105253Y31505D01*
X105265Y31473D01*
X105275Y31441D01*
X104973Y31369D01*
Y31370D01*
X104972Y31374D01*
X104970Y31380D01*
X104968Y31389D01*
X104965Y31398D01*
X104960Y31409D01*
X104955Y31422D01*
X104949Y31435D01*
X104934Y31465D01*
X104924Y31480D01*
X104914Y31495D01*
X104903Y31511D01*
X104890Y31526D01*
X104876Y31540D01*
X104861Y31553D01*
X104860Y31554D01*
X104858Y31556D01*
X104852Y31560D01*
X104846Y31564D01*
X104838Y31569D01*
X104828Y31575D01*
X104816Y31581D01*
X104804Y31588D01*
X104789Y31593D01*
X104774Y31600D01*
X104756Y31605D01*
X104739Y31611D01*
X104719Y31615D01*
X104699Y31618D01*
X104678Y31621D01*
X104655Y31622D01*
X104647D01*
X104639Y31621D01*
X104628Y31620D01*
X104614Y31618D01*
X104597Y31615D01*
X104579Y31612D01*
X104559Y31607D01*
X104537Y31600D01*
X104516Y31592D01*
X104493Y31582D01*
X104470Y31571D01*
X104448Y31556D01*
X104425Y31541D01*
X104404Y31523D01*
X104384Y31501D01*
X104383Y31500D01*
X104379Y31495D01*
X104374Y31488D01*
X104367Y31478D01*
X104360Y31465D01*
X104351Y31448D01*
X104341Y31430D01*
X104332Y31407D01*
X104323Y31382D01*
X104313Y31352D01*
X104304Y31321D01*
X104296Y31286D01*
X104290Y31247D01*
X104284Y31205D01*
X104281Y31160D01*
X104280Y31111D01*
Y31109D01*
Y31107D01*
Y31103D01*
Y31099D01*
Y31091D01*
X104281Y31083D01*
Y31075D01*
X104282Y31064D01*
X104283Y31041D01*
X104286Y31014D01*
X104289Y30984D01*
X104293Y30953D01*
X104299Y30920D01*
X104305Y30886D01*
X104314Y30852D01*
X104324Y30818D01*
X104334Y30787D01*
X104349Y30756D01*
X104364Y30729D01*
X104383Y30704D01*
X104384Y30703D01*
X104387Y30698D01*
X104393Y30693D01*
X104401Y30685D01*
X104411Y30676D01*
X104424Y30666D01*
X104438Y30655D01*
X104454Y30644D01*
X104473Y30632D01*
X104493Y30621D01*
X104514Y30611D01*
X104538Y30602D01*
X104563Y30594D01*
X104591Y30588D01*
X104619Y30584D01*
X104649Y30583D01*
X104662D01*
X104670Y30584D01*
X104680Y30585D01*
X104692Y30587D01*
X104706Y30590D01*
X104721Y30593D01*
X104737Y30596D01*
X104753Y30602D01*
X104771Y30608D01*
X104788Y30616D01*
X104806Y30624D01*
X104824Y30634D01*
X104841Y30646D01*
X104858Y30659D01*
X104859Y30660D01*
X104862Y30663D01*
X104867Y30668D01*
X104872Y30674D01*
X104879Y30682D01*
X104888Y30693D01*
X104897Y30705D01*
X104907Y30719D01*
X104917Y30735D01*
X104928Y30753D01*
X104938Y30773D01*
X104948Y30794D01*
X104958Y30819D01*
X104968Y30845D01*
X104976Y30873D01*
X104984Y30903D01*
X105280Y30810D01*
Y30809D01*
X105279Y30806D01*
X105277Y30803D01*
X105276Y30799D01*
X105274Y30793D01*
X105272Y30786D01*
X105266Y30769D01*
X105259Y30749D01*
X105249Y30725D01*
X105238Y30698D01*
X105225Y30671D01*
X105211Y30642D01*
X105194Y30611D01*
X105176Y30581D01*
X105155Y30550D01*
X105132Y30521D01*
X105108Y30492D01*
X105081Y30466D01*
X105053Y30442D01*
X105051Y30441D01*
X105045Y30437D01*
X105036Y30432D01*
X105025Y30424D01*
X105009Y30415D01*
X104991Y30404D01*
X104969Y30393D01*
X104944Y30382D01*
X104917Y30371D01*
X104886Y30361D01*
X104853Y30351D01*
X104817Y30341D01*
X104780Y30333D01*
X104740Y30328D01*
X104698Y30324D01*
X104653Y30323D01*
X104640D01*
X104632Y30324D01*
X104623D01*
X104614Y30325D01*
X104603Y30326D01*
X104591Y30327D01*
X104578Y30329D01*
X104547Y30333D01*
X104514Y30340D01*
X104478Y30349D01*
X104440Y30358D01*
X104400Y30373D01*
X104360Y30389D01*
X104317Y30409D01*
X104277Y30433D01*
X104235Y30460D01*
X104216Y30475D01*
X104196Y30491D01*
X104178Y30509D01*
X104159Y30527D01*
Y30529D01*
X104157Y30530D01*
X104155Y30533D01*
X104150Y30537D01*
X104146Y30543D01*
X104142Y30549D01*
X104135Y30557D01*
X104129Y30566D01*
X104122Y30575D01*
X104114Y30586D01*
X104107Y30598D01*
X104098Y30611D01*
X104081Y30641D01*
X104063Y30674D01*
X104045Y30713D01*
X104027Y30754D01*
X104011Y30801D01*
X103997Y30851D01*
X103983Y30904D01*
X103975Y30962D01*
X103968Y31023D01*
X103967Y31056D01*
X103966Y31089D01*
Y31090D01*
Y31093D01*
Y31099D01*
Y31105D01*
X103967Y31114D01*
Y31125D01*
X103968Y31137D01*
X103969Y31151D01*
X103971Y31166D01*
X103972Y31183D01*
X103974Y31200D01*
X103976Y31218D01*
X103982Y31259D01*
X103990Y31302D01*
X104001Y31349D01*
X104013Y31397D01*
X104029Y31445D01*
X104048Y31494D01*
X104071Y31542D01*
X104096Y31588D01*
X104126Y31633D01*
X104143Y31653D01*
X104160Y31673D01*
X104161Y31674D01*
X104162Y31675D01*
X104166Y31678D01*
X104169Y31682D01*
X104180Y31693D01*
X104195Y31706D01*
X104215Y31722D01*
X104239Y31740D01*
X104266Y31758D01*
X104296Y31778D01*
X104331Y31797D01*
X104370Y31816D01*
X104412Y31834D01*
X104458Y31850D01*
X104507Y31863D01*
X104558Y31874D01*
X104614Y31880D01*
X104642Y31881D01*
X104671Y31882D01*
X104683D01*
X104690Y31881D01*
D02*
G37*
G36*
X103168D02*
X103176D01*
X103186Y31880D01*
X103196D01*
X103219Y31877D01*
X103246Y31874D01*
X103276Y31868D01*
X103309Y31861D01*
X103344Y31853D01*
X103381Y31842D01*
X103418Y31829D01*
X103456Y31813D01*
X103493Y31794D01*
X103530Y31772D01*
X103565Y31747D01*
X103599Y31718D01*
X103600Y31717D01*
X103603Y31713D01*
X103609Y31708D01*
X103615Y31700D01*
X103624Y31690D01*
X103634Y31677D01*
X103645Y31663D01*
X103656Y31647D01*
X103668Y31628D01*
X103682Y31608D01*
X103695Y31585D01*
X103708Y31561D01*
X103720Y31534D01*
X103732Y31505D01*
X103744Y31473D01*
X103754Y31441D01*
X103452Y31369D01*
Y31370D01*
X103451Y31374D01*
X103448Y31380D01*
X103446Y31389D01*
X103443Y31398D01*
X103439Y31409D01*
X103433Y31422D01*
X103428Y31435D01*
X103412Y31465D01*
X103403Y31480D01*
X103393Y31495D01*
X103382Y31511D01*
X103369Y31526D01*
X103355Y31540D01*
X103339Y31553D01*
X103338Y31554D01*
X103336Y31556D01*
X103331Y31560D01*
X103324Y31564D01*
X103316Y31569D01*
X103307Y31575D01*
X103295Y31581D01*
X103283Y31588D01*
X103267Y31593D01*
X103252Y31600D01*
X103235Y31605D01*
X103217Y31611D01*
X103198Y31615D01*
X103177Y31618D01*
X103156Y31621D01*
X103133Y31622D01*
X103126D01*
X103117Y31621D01*
X103106Y31620D01*
X103092Y31618D01*
X103076Y31615D01*
X103057Y31612D01*
X103037Y31607D01*
X103016Y31600D01*
X102994Y31592D01*
X102971Y31582D01*
X102948Y31571D01*
X102926Y31556D01*
X102903Y31541D01*
X102883Y31523D01*
X102862Y31501D01*
X102861Y31500D01*
X102858Y31495D01*
X102852Y31488D01*
X102846Y31478D01*
X102838Y31465D01*
X102829Y31448D01*
X102819Y31430D01*
X102811Y31407D01*
X102801Y31382D01*
X102791Y31352D01*
X102782Y31321D01*
X102775Y31286D01*
X102768Y31247D01*
X102763Y31205D01*
X102760Y31160D01*
X102758Y31111D01*
Y31109D01*
Y31107D01*
Y31103D01*
Y31099D01*
Y31091D01*
X102760Y31083D01*
Y31075D01*
X102761Y31064D01*
X102762Y31041D01*
X102764Y31014D01*
X102767Y30984D01*
X102771Y30953D01*
X102777Y30920D01*
X102784Y30886D01*
X102792Y30852D01*
X102802Y30818D01*
X102813Y30787D01*
X102827Y30756D01*
X102842Y30729D01*
X102861Y30704D01*
X102862Y30703D01*
X102865Y30698D01*
X102872Y30693D01*
X102879Y30685D01*
X102889Y30676D01*
X102902Y30666D01*
X102916Y30655D01*
X102933Y30644D01*
X102951Y30632D01*
X102971Y30621D01*
X102993Y30611D01*
X103017Y30602D01*
X103042Y30594D01*
X103069Y30588D01*
X103097Y30584D01*
X103128Y30583D01*
X103140D01*
X103149Y30584D01*
X103158Y30585D01*
X103170Y30587D01*
X103185Y30590D01*
X103200Y30593D01*
X103215Y30596D01*
X103231Y30602D01*
X103249Y30608D01*
X103266Y30616D01*
X103285Y30624D01*
X103302Y30634D01*
X103320Y30646D01*
X103336Y30659D01*
X103337Y30660D01*
X103340Y30663D01*
X103345Y30668D01*
X103350Y30674D01*
X103358Y30682D01*
X103367Y30693D01*
X103375Y30705D01*
X103385Y30719D01*
X103395Y30735D01*
X103406Y30753D01*
X103417Y30773D01*
X103427Y30794D01*
X103436Y30819D01*
X103446Y30845D01*
X103455Y30873D01*
X103463Y30903D01*
X103758Y30810D01*
Y30809D01*
X103757Y30806D01*
X103756Y30803D01*
X103755Y30799D01*
X103753Y30793D01*
X103750Y30786D01*
X103745Y30769D01*
X103737Y30749D01*
X103727Y30725D01*
X103717Y30698D01*
X103703Y30671D01*
X103689Y30642D01*
X103673Y30611D01*
X103654Y30581D01*
X103634Y30550D01*
X103611Y30521D01*
X103587Y30492D01*
X103560Y30466D01*
X103531Y30442D01*
X103529Y30441D01*
X103524Y30437D01*
X103515Y30432D01*
X103503Y30424D01*
X103488Y30415D01*
X103469Y30404D01*
X103447Y30393D01*
X103422Y30382D01*
X103395Y30371D01*
X103364Y30361D01*
X103332Y30351D01*
X103296Y30341D01*
X103259Y30333D01*
X103218Y30328D01*
X103176Y30324D01*
X103131Y30323D01*
X103118D01*
X103111Y30324D01*
X103102D01*
X103092Y30325D01*
X103081Y30326D01*
X103069Y30327D01*
X103056Y30329D01*
X103025Y30333D01*
X102993Y30340D01*
X102957Y30349D01*
X102919Y30358D01*
X102878Y30373D01*
X102838Y30389D01*
X102796Y30409D01*
X102755Y30433D01*
X102714Y30460D01*
X102694Y30475D01*
X102674Y30491D01*
X102656Y30509D01*
X102637Y30527D01*
Y30529D01*
X102635Y30530D01*
X102633Y30533D01*
X102629Y30537D01*
X102624Y30543D01*
X102620Y30549D01*
X102613Y30557D01*
X102607Y30566D01*
X102600Y30575D01*
X102593Y30586D01*
X102585Y30598D01*
X102576Y30611D01*
X102559Y30641D01*
X102541Y30674D01*
X102523Y30713D01*
X102506Y30754D01*
X102489Y30801D01*
X102475Y30851D01*
X102462Y30904D01*
X102453Y30962D01*
X102447Y31023D01*
X102446Y31056D01*
X102445Y31089D01*
Y31090D01*
Y31093D01*
Y31099D01*
Y31105D01*
X102446Y31114D01*
Y31125D01*
X102447Y31137D01*
X102448Y31151D01*
X102449Y31166D01*
X102450Y31183D01*
X102452Y31200D01*
X102454Y31218D01*
X102461Y31259D01*
X102469Y31302D01*
X102479Y31349D01*
X102491Y31397D01*
X102508Y31445D01*
X102526Y31494D01*
X102549Y31542D01*
X102574Y31588D01*
X102605Y31633D01*
X102621Y31653D01*
X102638Y31673D01*
X102640Y31674D01*
X102641Y31675D01*
X102644Y31678D01*
X102647Y31682D01*
X102658Y31693D01*
X102673Y31706D01*
X102693Y31722D01*
X102717Y31740D01*
X102744Y31758D01*
X102775Y31778D01*
X102810Y31797D01*
X102849Y31816D01*
X102890Y31834D01*
X102936Y31850D01*
X102985Y31863D01*
X103036Y31874D01*
X103092Y31880D01*
X103120Y31881D01*
X103150Y31882D01*
X103162D01*
X103168Y31881D01*
D02*
G37*
G36*
X106217Y30349D02*
X105928D01*
Y31438D01*
X105926Y31435D01*
X105921Y31431D01*
X105912Y31423D01*
X105900Y31414D01*
X105885Y31402D01*
X105866Y31387D01*
X105845Y31371D01*
X105821Y31355D01*
X105795Y31337D01*
X105767Y31319D01*
X105736Y31300D01*
X105704Y31283D01*
X105669Y31265D01*
X105632Y31248D01*
X105594Y31233D01*
X105554Y31218D01*
Y31481D01*
X105555D01*
X105560Y31483D01*
X105565Y31486D01*
X105574Y31489D01*
X105585Y31493D01*
X105597Y31497D01*
X105611Y31504D01*
X105627Y31512D01*
X105645Y31521D01*
X105663Y31531D01*
X105684Y31542D01*
X105705Y31555D01*
X105728Y31569D01*
X105750Y31585D01*
X105774Y31602D01*
X105799Y31621D01*
X105801Y31622D01*
X105805Y31625D01*
X105813Y31632D01*
X105821Y31639D01*
X105832Y31649D01*
X105844Y31661D01*
X105857Y31674D01*
X105872Y31689D01*
X105887Y31707D01*
X105902Y31725D01*
X105917Y31745D01*
X105932Y31767D01*
X105947Y31789D01*
X105960Y31813D01*
X105972Y31838D01*
X105982Y31863D01*
X106217D01*
Y30349D01*
D02*
G37*
G36*
X105034Y20912D02*
X104706D01*
X104168Y22421D01*
X104497D01*
X104879Y21305D01*
X105248Y22421D01*
X105572D01*
X105034Y20912D01*
D02*
G37*
G36*
X104037Y22131D02*
X103492D01*
X103445Y21874D01*
X103446Y21875D01*
X103449Y21876D01*
X103455Y21878D01*
X103461Y21881D01*
X103471Y21885D01*
X103481Y21889D01*
X103493Y21893D01*
X103506Y21899D01*
X103520Y21903D01*
X103537Y21907D01*
X103569Y21915D01*
X103606Y21921D01*
X103625Y21923D01*
X103652D01*
X103662Y21922D01*
X103675Y21921D01*
X103692Y21918D01*
X103711Y21915D01*
X103733Y21911D01*
X103756Y21905D01*
X103781Y21898D01*
X103807Y21889D01*
X103834Y21877D01*
X103861Y21864D01*
X103890Y21848D01*
X103917Y21829D01*
X103943Y21807D01*
X103969Y21782D01*
X103971Y21781D01*
X103975Y21776D01*
X103981Y21768D01*
X103990Y21757D01*
X104001Y21743D01*
X104012Y21725D01*
X104024Y21706D01*
X104037Y21684D01*
X104049Y21659D01*
X104061Y21632D01*
X104073Y21601D01*
X104083Y21570D01*
X104092Y21535D01*
X104098Y21498D01*
X104102Y21460D01*
X104103Y21418D01*
Y21416D01*
Y21409D01*
X104102Y21400D01*
X104101Y21386D01*
X104100Y21370D01*
X104098Y21352D01*
X104095Y21330D01*
X104090Y21307D01*
X104084Y21282D01*
X104077Y21255D01*
X104069Y21227D01*
X104058Y21199D01*
X104045Y21171D01*
X104030Y21142D01*
X104014Y21114D01*
X103995Y21086D01*
X103992Y21083D01*
X103988Y21077D01*
X103979Y21067D01*
X103967Y21054D01*
X103953Y21040D01*
X103935Y21022D01*
X103913Y21005D01*
X103889Y20987D01*
X103861Y20967D01*
X103831Y20949D01*
X103797Y20932D01*
X103761Y20918D01*
X103722Y20905D01*
X103679Y20895D01*
X103635Y20888D01*
X103611Y20887D01*
X103587Y20886D01*
X103578D01*
X103567Y20887D01*
X103552Y20888D01*
X103534Y20889D01*
X103514Y20892D01*
X103491Y20896D01*
X103466Y20900D01*
X103440Y20906D01*
X103412Y20913D01*
X103384Y20922D01*
X103356Y20933D01*
X103327Y20946D01*
X103299Y20960D01*
X103272Y20978D01*
X103247Y20997D01*
X103246Y20998D01*
X103241Y21003D01*
X103235Y21009D01*
X103226Y21018D01*
X103215Y21029D01*
X103204Y21043D01*
X103191Y21058D01*
X103178Y21077D01*
X103164Y21098D01*
X103151Y21121D01*
X103138Y21145D01*
X103125Y21172D01*
X103114Y21200D01*
X103104Y21232D01*
X103095Y21263D01*
X103090Y21298D01*
X103377Y21329D01*
Y21328D01*
X103379Y21324D01*
Y21319D01*
X103381Y21312D01*
X103382Y21305D01*
X103384Y21295D01*
X103391Y21273D01*
X103400Y21248D01*
X103413Y21222D01*
X103429Y21197D01*
X103439Y21185D01*
X103449Y21174D01*
X103451Y21173D01*
X103453Y21172D01*
X103456Y21169D01*
X103460Y21165D01*
X103466Y21161D01*
X103473Y21157D01*
X103490Y21146D01*
X103510Y21135D01*
X103534Y21126D01*
X103562Y21119D01*
X103576Y21118D01*
X103590Y21117D01*
X103599D01*
X103605Y21118D01*
X103613Y21119D01*
X103622Y21122D01*
X103644Y21126D01*
X103667Y21135D01*
X103679Y21141D01*
X103692Y21148D01*
X103706Y21157D01*
X103719Y21166D01*
X103731Y21177D01*
X103743Y21190D01*
X103744Y21191D01*
X103746Y21194D01*
X103748Y21198D01*
X103753Y21204D01*
X103757Y21212D01*
X103762Y21222D01*
X103769Y21233D01*
X103774Y21246D01*
X103780Y21261D01*
X103786Y21278D01*
X103792Y21296D01*
X103796Y21316D01*
X103800Y21337D01*
X103804Y21361D01*
X103805Y21386D01*
X103806Y21414D01*
Y21415D01*
Y21420D01*
Y21427D01*
X103805Y21437D01*
X103804Y21449D01*
X103803Y21462D01*
X103800Y21476D01*
X103798Y21492D01*
X103791Y21526D01*
X103785Y21543D01*
X103780Y21561D01*
X103772Y21578D01*
X103763Y21594D01*
X103754Y21609D01*
X103743Y21623D01*
X103742Y21624D01*
X103739Y21626D01*
X103736Y21630D01*
X103732Y21634D01*
X103725Y21639D01*
X103718Y21645D01*
X103709Y21651D01*
X103699Y21658D01*
X103688Y21664D01*
X103676Y21671D01*
X103649Y21682D01*
X103633Y21686D01*
X103617Y21689D01*
X103600Y21692D01*
X103581Y21693D01*
X103576D01*
X103569Y21692D01*
X103561Y21691D01*
X103550Y21689D01*
X103537Y21687D01*
X103523Y21684D01*
X103507Y21679D01*
X103490Y21673D01*
X103472Y21666D01*
X103454Y21657D01*
X103434Y21646D01*
X103416Y21634D01*
X103396Y21619D01*
X103376Y21602D01*
X103358Y21583D01*
X103125Y21617D01*
X103273Y22401D01*
X104037D01*
Y22131D01*
D02*
G37*
G36*
X64710Y28363D02*
X64582D01*
Y28369D01*
X64579Y28386D01*
X64573Y28415D01*
X64563Y28451D01*
X64549Y28494D01*
X64533Y28546D01*
X64517Y28605D01*
X64490Y28668D01*
X64464Y28733D01*
X64431Y28802D01*
X64395Y28874D01*
X64353Y28947D01*
X64307Y29015D01*
X64254Y29084D01*
X64198Y29153D01*
X64133Y29215D01*
X64130Y29219D01*
X64117Y29229D01*
X64097Y29245D01*
X64071Y29268D01*
X64038Y29291D01*
X63999Y29317D01*
X63956Y29347D01*
X63903Y29379D01*
X63851Y29409D01*
X63788Y29438D01*
X63726Y29465D01*
X63661Y29491D01*
X63589Y29511D01*
X63516Y29527D01*
X63441Y29537D01*
X63365Y29540D01*
X63336D01*
X63313Y29537D01*
X63287Y29534D01*
X63254Y29530D01*
X63218Y29527D01*
X63182Y29520D01*
X63100Y29498D01*
X63014Y29468D01*
X62975Y29448D01*
X62932Y29425D01*
X62893Y29399D01*
X62857Y29370D01*
X62854Y29366D01*
X62850Y29363D01*
X62841Y29353D01*
X62827Y29340D01*
X62814Y29324D01*
X62798Y29304D01*
X62765Y29258D01*
X62732Y29199D01*
X62703Y29130D01*
X62680Y29058D01*
X62677Y29019D01*
X62673Y28976D01*
Y28969D01*
Y28953D01*
X62677Y28927D01*
X62683Y28891D01*
X62690Y28855D01*
X62700Y28812D01*
X62716Y28769D01*
X62739Y28727D01*
X62742Y28720D01*
X62755Y28701D01*
X62778Y28674D01*
X62808Y28635D01*
X62850Y28592D01*
X62900Y28543D01*
X62959Y28491D01*
X63031Y28438D01*
X63034D01*
X63037Y28435D01*
X63047Y28428D01*
X63060Y28418D01*
X63080Y28405D01*
X63106Y28392D01*
X63136Y28372D01*
X63169Y28353D01*
X63211Y28330D01*
X63261Y28304D01*
X63316Y28271D01*
X63379Y28238D01*
X63447Y28202D01*
X63526Y28163D01*
X63615Y28117D01*
X63710Y28071D01*
X63713D01*
X63720Y28067D01*
X63730Y28061D01*
X63743Y28054D01*
X63759Y28045D01*
X63782Y28035D01*
X63831Y28008D01*
X63890Y27976D01*
X63959Y27940D01*
X64034Y27897D01*
X64117Y27848D01*
X64198Y27799D01*
X64284Y27743D01*
X64369Y27687D01*
X64451Y27628D01*
X64526Y27566D01*
X64599Y27503D01*
X64664Y27444D01*
X64717Y27382D01*
X64720Y27379D01*
X64727Y27369D01*
X64740Y27349D01*
X64756Y27326D01*
X64776Y27293D01*
X64799Y27257D01*
X64822Y27215D01*
X64845Y27169D01*
X64868Y27116D01*
X64891Y27057D01*
X64914Y26998D01*
X64933Y26933D01*
X64950Y26864D01*
X64963Y26792D01*
X64969Y26716D01*
X64973Y26641D01*
Y26634D01*
Y26618D01*
X64969Y26588D01*
X64966Y26552D01*
X64960Y26506D01*
X64950Y26454D01*
X64937Y26391D01*
X64920Y26326D01*
X64897Y26257D01*
X64871Y26185D01*
X64838Y26109D01*
X64796Y26031D01*
X64750Y25952D01*
X64694Y25876D01*
X64628Y25798D01*
X64556Y25725D01*
X64553Y25722D01*
X64536Y25709D01*
X64513Y25690D01*
X64481Y25666D01*
X64441Y25637D01*
X64392Y25604D01*
X64333Y25571D01*
X64271Y25535D01*
X64198Y25499D01*
X64117Y25466D01*
X64031Y25434D01*
X63936Y25404D01*
X63838Y25381D01*
X63733Y25361D01*
X63621Y25348D01*
X63503Y25345D01*
X63451D01*
X63431Y25348D01*
X63382Y25352D01*
X63323Y25355D01*
X63257Y25365D01*
X63192Y25375D01*
X63123Y25388D01*
X63119D01*
X63116Y25391D01*
X63106D01*
X63090Y25394D01*
X63073Y25401D01*
X63054Y25407D01*
X63028Y25414D01*
X63001Y25420D01*
X62936Y25440D01*
X62860Y25466D01*
X62772Y25499D01*
X62677Y25535D01*
X62670Y25539D01*
X62650Y25545D01*
X62624Y25555D01*
X62588Y25568D01*
X62552Y25581D01*
X62509Y25591D01*
X62470Y25598D01*
X62431Y25601D01*
X62418D01*
X62401Y25598D01*
X62378Y25594D01*
X62352Y25585D01*
X62322Y25575D01*
X62290Y25558D01*
X62257Y25535D01*
X62253Y25532D01*
X62244Y25522D01*
X62227Y25509D01*
X62204Y25489D01*
X62181Y25463D01*
X62158Y25430D01*
X62135Y25391D01*
X62112Y25345D01*
X61998D01*
Y26946D01*
X62112D01*
Y26942D01*
X62116Y26939D01*
Y26929D01*
X62119Y26916D01*
X62129Y26880D01*
X62139Y26834D01*
X62155Y26778D01*
X62178Y26713D01*
X62201Y26641D01*
X62230Y26565D01*
X62263Y26483D01*
X62303Y26398D01*
X62345Y26313D01*
X62394Y26227D01*
X62447Y26142D01*
X62506Y26063D01*
X62572Y25985D01*
X62641Y25916D01*
X62644Y25912D01*
X62657Y25899D01*
X62680Y25883D01*
X62709Y25860D01*
X62745Y25834D01*
X62788Y25804D01*
X62837Y25775D01*
X62893Y25742D01*
X62955Y25709D01*
X63021Y25676D01*
X63090Y25647D01*
X63165Y25621D01*
X63244Y25598D01*
X63323Y25581D01*
X63405Y25568D01*
X63490Y25565D01*
X63523D01*
X63549Y25568D01*
X63579Y25571D01*
X63611Y25575D01*
X63651Y25581D01*
X63690Y25588D01*
X63782Y25611D01*
X63828Y25627D01*
X63874Y25647D01*
X63920Y25666D01*
X63966Y25693D01*
X64008Y25722D01*
X64048Y25755D01*
X64051Y25758D01*
X64057Y25765D01*
X64067Y25775D01*
X64080Y25788D01*
X64097Y25807D01*
X64113Y25827D01*
X64133Y25853D01*
X64153Y25883D01*
X64192Y25945D01*
X64225Y26021D01*
X64238Y26063D01*
X64248Y26106D01*
X64254Y26152D01*
X64258Y26198D01*
Y26201D01*
Y26204D01*
Y26224D01*
X64254Y26254D01*
X64248Y26290D01*
X64238Y26332D01*
X64222Y26381D01*
X64202Y26434D01*
X64176Y26487D01*
Y26490D01*
X64172Y26493D01*
X64162Y26509D01*
X64143Y26539D01*
X64117Y26572D01*
X64080Y26614D01*
X64041Y26657D01*
X63992Y26706D01*
X63933Y26752D01*
X63930D01*
X63926Y26759D01*
X63916Y26765D01*
X63900Y26775D01*
X63884Y26788D01*
X63861Y26805D01*
X63831Y26821D01*
X63798Y26841D01*
X63762Y26864D01*
X63720Y26890D01*
X63674Y26916D01*
X63621Y26946D01*
X63562Y26978D01*
X63500Y27011D01*
X63431Y27047D01*
X63356Y27084D01*
X63349Y27087D01*
X63329Y27097D01*
X63300Y27110D01*
X63261Y27129D01*
X63214Y27156D01*
X63159Y27182D01*
X63100Y27215D01*
X63034Y27251D01*
X62896Y27326D01*
X62759Y27405D01*
X62693Y27448D01*
X62631Y27487D01*
X62575Y27526D01*
X62523Y27566D01*
X62519Y27569D01*
X62513Y27575D01*
X62499Y27585D01*
X62480Y27602D01*
X62460Y27618D01*
X62437Y27641D01*
X62408Y27667D01*
X62378Y27697D01*
X62316Y27762D01*
X62253Y27838D01*
X62191Y27923D01*
X62135Y28012D01*
Y28015D01*
X62129Y28021D01*
X62122Y28038D01*
X62116Y28054D01*
X62106Y28077D01*
X62093Y28107D01*
X62080Y28136D01*
X62070Y28172D01*
X62057Y28212D01*
X62044Y28254D01*
X62021Y28346D01*
X62007Y28448D01*
X62001Y28556D01*
Y28563D01*
Y28579D01*
X62004Y28605D01*
X62007Y28642D01*
X62011Y28684D01*
X62021Y28733D01*
X62030Y28792D01*
X62047Y28855D01*
X62067Y28920D01*
X62093Y28989D01*
X62122Y29058D01*
X62158Y29133D01*
X62201Y29206D01*
X62250Y29278D01*
X62306Y29347D01*
X62372Y29416D01*
X62375Y29419D01*
X62388Y29432D01*
X62411Y29448D01*
X62440Y29471D01*
X62476Y29498D01*
X62519Y29530D01*
X62572Y29560D01*
X62631Y29596D01*
X62693Y29629D01*
X62765Y29662D01*
X62841Y29691D01*
X62926Y29717D01*
X63014Y29740D01*
X63106Y29757D01*
X63205Y29770D01*
X63310Y29773D01*
X63362D01*
X63385Y29770D01*
X63438Y29766D01*
X63500Y29760D01*
X63565Y29750D01*
X63638Y29737D01*
X63710Y29721D01*
X63713D01*
X63716Y29717D01*
X63736Y29714D01*
X63769Y29704D01*
X63811Y29691D01*
X63861Y29671D01*
X63923Y29648D01*
X63992Y29619D01*
X64067Y29583D01*
X64071D01*
X64077Y29579D01*
X64087Y29573D01*
X64103Y29566D01*
X64139Y29550D01*
X64185Y29534D01*
X64235Y29514D01*
X64284Y29498D01*
X64330Y29484D01*
X64366Y29481D01*
X64379D01*
X64392Y29484D01*
X64412Y29488D01*
X64431Y29494D01*
X64451Y29501D01*
X64471Y29514D01*
X64490Y29530D01*
X64494Y29534D01*
X64500Y29540D01*
X64507Y29557D01*
X64520Y29579D01*
X64533Y29612D01*
X64549Y29655D01*
X64566Y29708D01*
X64576Y29737D01*
X64582Y29773D01*
X64677D01*
X64710Y28363D01*
D02*
G37*
G36*
X43741D02*
X43613D01*
Y28369D01*
X43610Y28386D01*
X43603Y28415D01*
X43594Y28451D01*
X43580Y28494D01*
X43564Y28546D01*
X43548Y28605D01*
X43521Y28668D01*
X43495Y28733D01*
X43462Y28802D01*
X43426Y28874D01*
X43384Y28947D01*
X43338Y29015D01*
X43285Y29084D01*
X43229Y29153D01*
X43164Y29215D01*
X43161Y29219D01*
X43148Y29229D01*
X43128Y29245D01*
X43102Y29268D01*
X43069Y29291D01*
X43029Y29317D01*
X42987Y29347D01*
X42934Y29379D01*
X42882Y29409D01*
X42819Y29438D01*
X42757Y29465D01*
X42692Y29491D01*
X42619Y29511D01*
X42547Y29527D01*
X42472Y29537D01*
X42396Y29540D01*
X42367D01*
X42344Y29537D01*
X42318Y29534D01*
X42285Y29530D01*
X42249Y29527D01*
X42213Y29520D01*
X42131Y29498D01*
X42045Y29468D01*
X42006Y29448D01*
X41963Y29425D01*
X41924Y29399D01*
X41888Y29370D01*
X41885Y29366D01*
X41881Y29363D01*
X41872Y29353D01*
X41858Y29340D01*
X41845Y29324D01*
X41829Y29304D01*
X41796Y29258D01*
X41763Y29199D01*
X41734Y29130D01*
X41711Y29058D01*
X41708Y29019D01*
X41704Y28976D01*
Y28969D01*
Y28953D01*
X41708Y28927D01*
X41714Y28891D01*
X41721Y28855D01*
X41730Y28812D01*
X41747Y28769D01*
X41770Y28727D01*
X41773Y28720D01*
X41786Y28701D01*
X41809Y28674D01*
X41839Y28635D01*
X41881Y28592D01*
X41931Y28543D01*
X41990Y28491D01*
X42062Y28438D01*
X42065D01*
X42068Y28435D01*
X42078Y28428D01*
X42091Y28418D01*
X42111Y28405D01*
X42137Y28392D01*
X42167Y28372D01*
X42200Y28353D01*
X42242Y28330D01*
X42291Y28304D01*
X42347Y28271D01*
X42410Y28238D01*
X42478Y28202D01*
X42557Y28163D01*
X42646Y28117D01*
X42741Y28071D01*
X42744D01*
X42751Y28067D01*
X42760Y28061D01*
X42774Y28054D01*
X42790Y28045D01*
X42813Y28035D01*
X42862Y28008D01*
X42921Y27976D01*
X42990Y27940D01*
X43066Y27897D01*
X43148Y27848D01*
X43229Y27799D01*
X43315Y27743D01*
X43400Y27687D01*
X43482Y27628D01*
X43558Y27566D01*
X43630Y27503D01*
X43695Y27444D01*
X43748Y27382D01*
X43751Y27379D01*
X43758Y27369D01*
X43771Y27349D01*
X43787Y27326D01*
X43807Y27293D01*
X43830Y27257D01*
X43853Y27215D01*
X43876Y27169D01*
X43899Y27116D01*
X43922Y27057D01*
X43944Y26998D01*
X43964Y26933D01*
X43981Y26864D01*
X43994Y26792D01*
X44000Y26716D01*
X44004Y26641D01*
Y26634D01*
Y26618D01*
X44000Y26588D01*
X43997Y26552D01*
X43990Y26506D01*
X43981Y26454D01*
X43968Y26391D01*
X43951Y26326D01*
X43928Y26257D01*
X43902Y26185D01*
X43869Y26109D01*
X43826Y26031D01*
X43780Y25952D01*
X43725Y25876D01*
X43659Y25798D01*
X43587Y25725D01*
X43584Y25722D01*
X43567Y25709D01*
X43544Y25690D01*
X43512Y25666D01*
X43472Y25637D01*
X43423Y25604D01*
X43364Y25571D01*
X43302Y25535D01*
X43229Y25499D01*
X43148Y25466D01*
X43062Y25434D01*
X42967Y25404D01*
X42869Y25381D01*
X42764Y25361D01*
X42652Y25348D01*
X42534Y25345D01*
X42482D01*
X42462Y25348D01*
X42413Y25352D01*
X42354Y25355D01*
X42288Y25365D01*
X42222Y25375D01*
X42154Y25388D01*
X42150D01*
X42147Y25391D01*
X42137D01*
X42121Y25394D01*
X42105Y25401D01*
X42085Y25407D01*
X42059Y25414D01*
X42032Y25420D01*
X41967Y25440D01*
X41891Y25466D01*
X41803Y25499D01*
X41708Y25535D01*
X41701Y25539D01*
X41681Y25545D01*
X41655Y25555D01*
X41619Y25568D01*
X41583Y25581D01*
X41540Y25591D01*
X41501Y25598D01*
X41462Y25601D01*
X41449D01*
X41432Y25598D01*
X41409Y25594D01*
X41383Y25585D01*
X41353Y25575D01*
X41320Y25558D01*
X41288Y25535D01*
X41284Y25532D01*
X41275Y25522D01*
X41258Y25509D01*
X41235Y25489D01*
X41212Y25463D01*
X41189Y25430D01*
X41166Y25391D01*
X41143Y25345D01*
X41029D01*
Y26946D01*
X41143D01*
Y26942D01*
X41147Y26939D01*
Y26929D01*
X41150Y26916D01*
X41160Y26880D01*
X41170Y26834D01*
X41186Y26778D01*
X41209Y26713D01*
X41232Y26641D01*
X41262Y26565D01*
X41294Y26483D01*
X41334Y26398D01*
X41376Y26313D01*
X41425Y26227D01*
X41478Y26142D01*
X41537Y26063D01*
X41603Y25985D01*
X41671Y25916D01*
X41675Y25912D01*
X41688Y25899D01*
X41711Y25883D01*
X41740Y25860D01*
X41776Y25834D01*
X41819Y25804D01*
X41868Y25775D01*
X41924Y25742D01*
X41986Y25709D01*
X42052Y25676D01*
X42121Y25647D01*
X42196Y25621D01*
X42275Y25598D01*
X42354Y25581D01*
X42436Y25568D01*
X42521Y25565D01*
X42554D01*
X42580Y25568D01*
X42610Y25571D01*
X42642Y25575D01*
X42682Y25581D01*
X42721Y25588D01*
X42813Y25611D01*
X42859Y25627D01*
X42905Y25647D01*
X42951Y25666D01*
X42997Y25693D01*
X43039Y25722D01*
X43079Y25755D01*
X43082Y25758D01*
X43088Y25765D01*
X43098Y25775D01*
X43111Y25788D01*
X43128Y25807D01*
X43144Y25827D01*
X43164Y25853D01*
X43184Y25883D01*
X43223Y25945D01*
X43256Y26021D01*
X43269Y26063D01*
X43279Y26106D01*
X43285Y26152D01*
X43288Y26198D01*
Y26201D01*
Y26204D01*
Y26224D01*
X43285Y26254D01*
X43279Y26290D01*
X43269Y26332D01*
X43252Y26381D01*
X43233Y26434D01*
X43207Y26487D01*
Y26490D01*
X43203Y26493D01*
X43193Y26509D01*
X43174Y26539D01*
X43148Y26572D01*
X43111Y26614D01*
X43072Y26657D01*
X43023Y26706D01*
X42964Y26752D01*
X42961D01*
X42957Y26759D01*
X42947Y26765D01*
X42931Y26775D01*
X42915Y26788D01*
X42892Y26805D01*
X42862Y26821D01*
X42829Y26841D01*
X42793Y26864D01*
X42751Y26890D01*
X42705Y26916D01*
X42652Y26946D01*
X42593Y26978D01*
X42531Y27011D01*
X42462Y27047D01*
X42386Y27084D01*
X42380Y27087D01*
X42360Y27097D01*
X42331Y27110D01*
X42291Y27129D01*
X42246Y27156D01*
X42190Y27182D01*
X42131Y27215D01*
X42065Y27251D01*
X41927Y27326D01*
X41790Y27405D01*
X41724Y27448D01*
X41662Y27487D01*
X41606Y27526D01*
X41553Y27566D01*
X41550Y27569D01*
X41544Y27575D01*
X41530Y27585D01*
X41511Y27602D01*
X41491Y27618D01*
X41468Y27641D01*
X41439Y27667D01*
X41409Y27697D01*
X41347Y27762D01*
X41284Y27838D01*
X41222Y27923D01*
X41166Y28012D01*
Y28015D01*
X41160Y28021D01*
X41153Y28038D01*
X41147Y28054D01*
X41137Y28077D01*
X41124Y28107D01*
X41111Y28136D01*
X41101Y28172D01*
X41088Y28212D01*
X41074Y28254D01*
X41052Y28346D01*
X41039Y28448D01*
X41032Y28556D01*
Y28563D01*
Y28579D01*
X41035Y28605D01*
X41039Y28642D01*
X41042Y28684D01*
X41052Y28733D01*
X41061Y28792D01*
X41078Y28855D01*
X41098Y28920D01*
X41124Y28989D01*
X41153Y29058D01*
X41189Y29133D01*
X41232Y29206D01*
X41281Y29278D01*
X41337Y29347D01*
X41403Y29416D01*
X41406Y29419D01*
X41419Y29432D01*
X41442Y29448D01*
X41471Y29471D01*
X41508Y29498D01*
X41550Y29530D01*
X41603Y29560D01*
X41662Y29596D01*
X41724Y29629D01*
X41796Y29662D01*
X41872Y29691D01*
X41957Y29717D01*
X42045Y29740D01*
X42137Y29757D01*
X42236Y29770D01*
X42341Y29773D01*
X42393D01*
X42416Y29770D01*
X42469Y29766D01*
X42531Y29760D01*
X42596Y29750D01*
X42669Y29737D01*
X42741Y29721D01*
X42744D01*
X42747Y29717D01*
X42767Y29714D01*
X42800Y29704D01*
X42843Y29691D01*
X42892Y29671D01*
X42954Y29648D01*
X43023Y29619D01*
X43098Y29583D01*
X43102D01*
X43108Y29579D01*
X43118Y29573D01*
X43134Y29566D01*
X43170Y29550D01*
X43216Y29534D01*
X43266Y29514D01*
X43315Y29498D01*
X43361Y29484D01*
X43397Y29481D01*
X43410D01*
X43423Y29484D01*
X43443Y29488D01*
X43462Y29494D01*
X43482Y29501D01*
X43502Y29514D01*
X43521Y29530D01*
X43525Y29534D01*
X43531Y29540D01*
X43538Y29557D01*
X43551Y29579D01*
X43564Y29612D01*
X43580Y29655D01*
X43597Y29708D01*
X43607Y29737D01*
X43613Y29773D01*
X43708D01*
X43741Y28363D01*
D02*
G37*
G36*
X61496Y29563D02*
X61466D01*
X61430Y29560D01*
X61391Y29557D01*
X61342Y29550D01*
X61292Y29544D01*
X61243Y29530D01*
X61197Y29517D01*
X61191Y29514D01*
X61178Y29507D01*
X61155Y29498D01*
X61125Y29481D01*
X61089Y29462D01*
X61050Y29432D01*
X61004Y29399D01*
X60958Y29360D01*
X60955Y29357D01*
X60941Y29343D01*
X60928Y29330D01*
X60915Y29314D01*
X60899Y29298D01*
X60876Y29274D01*
X60853Y29245D01*
X60823Y29212D01*
X60791Y29173D01*
X60751Y29130D01*
X60709Y29081D01*
X60663Y29025D01*
X60610Y28960D01*
X60551Y28891D01*
X59754Y27926D01*
X60922Y26195D01*
X60925Y26191D01*
X60935Y26175D01*
X60948Y26155D01*
X60968Y26126D01*
X60994Y26093D01*
X61020Y26054D01*
X61050Y26011D01*
X61083Y25965D01*
X61148Y25876D01*
X61184Y25831D01*
X61217Y25788D01*
X61250Y25752D01*
X61279Y25716D01*
X61309Y25690D01*
X61332Y25666D01*
X61338Y25663D01*
X61355Y25653D01*
X61381Y25637D01*
X61417Y25617D01*
X61460Y25601D01*
X61509Y25581D01*
X61565Y25568D01*
X61627Y25558D01*
Y25444D01*
X59557D01*
Y25558D01*
X59567D01*
X59580Y25561D01*
X59597D01*
X59616Y25565D01*
X59639Y25568D01*
X59692Y25575D01*
X59744Y25585D01*
X59797Y25594D01*
X59843Y25611D01*
X59859Y25621D01*
X59876Y25630D01*
X59879Y25634D01*
X59885Y25640D01*
X59899Y25653D01*
X59912Y25670D01*
X59925Y25690D01*
X59938Y25712D01*
X59944Y25739D01*
X59948Y25768D01*
Y25771D01*
Y25778D01*
Y25788D01*
X59944Y25801D01*
X59941Y25834D01*
X59928Y25870D01*
X59925Y25873D01*
X59918Y25890D01*
X59905Y25912D01*
X59882Y25949D01*
X59856Y25995D01*
X59836Y26024D01*
X59816Y26057D01*
X59794Y26093D01*
X59767Y26132D01*
X59741Y26175D01*
X59708Y26221D01*
X59092Y27126D01*
X58445Y26346D01*
X58442Y26342D01*
X58432Y26329D01*
X58419Y26313D01*
X58399Y26286D01*
X58376Y26257D01*
X58354Y26224D01*
X58301Y26149D01*
X58245Y26067D01*
X58222Y26027D01*
X58199Y25988D01*
X58180Y25949D01*
X58167Y25916D01*
X58157Y25883D01*
X58153Y25857D01*
Y25853D01*
Y25840D01*
X58157Y25824D01*
X58163Y25801D01*
X58173Y25775D01*
X58186Y25745D01*
X58203Y25716D01*
X58229Y25686D01*
X58232Y25683D01*
X58242Y25673D01*
X58262Y25660D01*
X58285Y25644D01*
X58318Y25627D01*
X58354Y25607D01*
X58399Y25591D01*
X58452Y25575D01*
X58455D01*
X58465Y25571D01*
X58485Y25568D01*
X58511D01*
X58547Y25565D01*
X58593Y25561D01*
X58649Y25558D01*
X58718D01*
Y25444D01*
X57091D01*
Y25558D01*
X57094D01*
X57104Y25561D01*
X57117D01*
X57137Y25565D01*
X57160Y25571D01*
X57189Y25578D01*
X57252Y25591D01*
X57320Y25611D01*
X57393Y25637D01*
X57465Y25670D01*
X57530Y25706D01*
X57534Y25709D01*
X57540Y25712D01*
X57553Y25722D01*
X57570Y25735D01*
X57589Y25752D01*
X57616Y25775D01*
X57645Y25804D01*
X57681Y25834D01*
X57721Y25873D01*
X57763Y25916D01*
X57812Y25965D01*
X57865Y26021D01*
X57921Y26083D01*
X57980Y26149D01*
X58045Y26224D01*
X58114Y26306D01*
X58957Y27326D01*
X57875Y28914D01*
X57871Y28917D01*
X57865Y28930D01*
X57849Y28950D01*
X57832Y28976D01*
X57812Y29006D01*
X57789Y29038D01*
X57737Y29114D01*
X57684Y29193D01*
X57658Y29229D01*
X57635Y29261D01*
X57616Y29294D01*
X57596Y29317D01*
X57583Y29337D01*
X57573Y29350D01*
X57570Y29353D01*
X57560Y29366D01*
X57540Y29386D01*
X57521Y29406D01*
X57494Y29429D01*
X57468Y29455D01*
X57435Y29475D01*
X57406Y29494D01*
X57402Y29498D01*
X57393Y29501D01*
X57373Y29511D01*
X57350Y29520D01*
X57317Y29530D01*
X57278Y29544D01*
X57235Y29553D01*
X57183Y29563D01*
Y29678D01*
X59285D01*
Y29563D01*
X59147D01*
X59114Y29560D01*
X59078Y29557D01*
X59036Y29550D01*
X58993Y29537D01*
X58957Y29524D01*
X58924Y29504D01*
X58921Y29501D01*
X58914Y29494D01*
X58901Y29481D01*
X58888Y29465D01*
X58875Y29442D01*
X58862Y29419D01*
X58855Y29389D01*
X58852Y29360D01*
Y29357D01*
Y29350D01*
Y29337D01*
X58855Y29320D01*
X58862Y29281D01*
X58875Y29238D01*
X59092Y28914D01*
X59620Y28126D01*
X60062Y28661D01*
X60066Y28664D01*
X60079Y28681D01*
X60095Y28701D01*
X60115Y28730D01*
X60141Y28766D01*
X60171Y28806D01*
X60200Y28848D01*
X60233Y28894D01*
X60295Y28992D01*
X60325Y29042D01*
X60351Y29087D01*
X60371Y29133D01*
X60390Y29179D01*
X60400Y29219D01*
X60404Y29252D01*
Y29255D01*
Y29265D01*
X60400Y29281D01*
X60397Y29304D01*
X60390Y29327D01*
X60384Y29353D01*
X60371Y29383D01*
X60354Y29409D01*
X60351Y29412D01*
X60344Y29422D01*
X60335Y29435D01*
X60322Y29452D01*
X60302Y29468D01*
X60276Y29488D01*
X60249Y29504D01*
X60217Y29520D01*
X60213Y29524D01*
X60200Y29527D01*
X60177Y29534D01*
X60148Y29544D01*
X60108Y29550D01*
X60062Y29557D01*
X60003Y29560D01*
X59938Y29563D01*
Y29678D01*
X61496D01*
Y29563D01*
D02*
G37*
G36*
X79815Y28448D02*
X79838D01*
X79867Y28441D01*
X79897Y28438D01*
X79933Y28431D01*
X80005Y28412D01*
X80084Y28382D01*
X80126Y28366D01*
X80162Y28343D01*
X80202Y28320D01*
X80238Y28291D01*
X80241Y28287D01*
X80248Y28284D01*
X80254Y28274D01*
X80267Y28261D01*
X80300Y28228D01*
X80339Y28182D01*
X80382Y28126D01*
X80421Y28061D01*
X80458Y27986D01*
X80487Y27900D01*
Y27897D01*
X80490Y27890D01*
X80494Y27880D01*
X80497Y27864D01*
X80500Y27844D01*
X80503Y27818D01*
X80510Y27785D01*
X80513Y27746D01*
X80520Y27703D01*
X80523Y27654D01*
X80526Y27598D01*
X80533Y27536D01*
X80536Y27467D01*
Y27389D01*
X80540Y27307D01*
Y27215D01*
Y26076D01*
Y26073D01*
Y26063D01*
Y26044D01*
Y26024D01*
X80543Y25995D01*
Y25965D01*
X80546Y25896D01*
X80553Y25824D01*
X80566Y25755D01*
X80572Y25725D01*
X80579Y25696D01*
X80589Y25673D01*
X80598Y25653D01*
X80602Y25650D01*
X80612Y25640D01*
X80628Y25627D01*
X80654Y25611D01*
X80687Y25591D01*
X80733Y25575D01*
X80789Y25561D01*
X80854Y25552D01*
Y25444D01*
X79372D01*
Y25552D01*
X79378D01*
X79398Y25558D01*
X79428Y25565D01*
X79464Y25575D01*
X79503Y25594D01*
X79542Y25617D01*
X79582Y25647D01*
X79611Y25686D01*
X79615Y25690D01*
X79621Y25703D01*
X79628Y25729D01*
X79634Y25745D01*
X79637Y25765D01*
X79644Y25788D01*
X79647Y25817D01*
X79651Y25847D01*
X79657Y25883D01*
X79660Y25926D01*
Y25972D01*
X79664Y26021D01*
Y26076D01*
Y27375D01*
Y27379D01*
Y27392D01*
Y27408D01*
Y27434D01*
Y27461D01*
Y27494D01*
X79660Y27569D01*
X79657Y27644D01*
X79651Y27720D01*
X79647Y27753D01*
X79644Y27782D01*
X79641Y27808D01*
X79634Y27828D01*
Y27831D01*
X79628Y27844D01*
X79621Y27861D01*
X79611Y27884D01*
X79598Y27907D01*
X79582Y27930D01*
X79559Y27956D01*
X79536Y27976D01*
X79532Y27979D01*
X79526Y27986D01*
X79510Y27992D01*
X79493Y28002D01*
X79474Y28012D01*
X79447Y28022D01*
X79421Y28025D01*
X79391Y28028D01*
X79378D01*
X79365Y28025D01*
X79346Y28022D01*
X79323Y28015D01*
X79293Y28008D01*
X79264Y27995D01*
X79228Y27979D01*
X79191Y27959D01*
X79152Y27933D01*
X79109Y27904D01*
X79067Y27867D01*
X79024Y27821D01*
X78982Y27772D01*
X78936Y27713D01*
X78893Y27644D01*
Y26076D01*
Y26073D01*
Y26063D01*
Y26047D01*
Y26024D01*
X78896Y25998D01*
Y25968D01*
X78900Y25903D01*
X78906Y25831D01*
X78919Y25762D01*
X78926Y25732D01*
X78932Y25703D01*
X78942Y25680D01*
X78952Y25660D01*
X78955Y25657D01*
X78965Y25647D01*
X78982Y25630D01*
X79004Y25614D01*
X79037Y25594D01*
X79077Y25578D01*
X79126Y25561D01*
X79185Y25552D01*
Y25444D01*
X77702D01*
Y25552D01*
X77709D01*
X77719Y25555D01*
X77732D01*
X77765Y25561D01*
X77804Y25571D01*
X77847Y25588D01*
X77889Y25607D01*
X77929Y25637D01*
X77961Y25670D01*
X77965Y25673D01*
X77971Y25686D01*
X77974Y25696D01*
X77978Y25709D01*
X77984Y25725D01*
X77991Y25745D01*
X77994Y25771D01*
X78001Y25801D01*
X78004Y25834D01*
X78007Y25870D01*
X78011Y25912D01*
X78014Y25962D01*
X78017Y26017D01*
Y26076D01*
Y27730D01*
Y27733D01*
Y27743D01*
Y27759D01*
Y27782D01*
X78014Y27808D01*
Y27838D01*
X78011Y27904D01*
X78001Y27972D01*
X77991Y28041D01*
X77984Y28071D01*
X77974Y28097D01*
X77965Y28123D01*
X77955Y28140D01*
X77952Y28143D01*
X77942Y28153D01*
X77925Y28166D01*
X77899Y28186D01*
X77866Y28202D01*
X77824Y28222D01*
X77768Y28235D01*
X77702Y28248D01*
Y28363D01*
X78893D01*
Y27986D01*
X78896Y27989D01*
X78903Y27995D01*
X78916Y28008D01*
X78932Y28025D01*
X78952Y28045D01*
X78975Y28067D01*
X79031Y28120D01*
X79096Y28179D01*
X79168Y28238D01*
X79244Y28294D01*
X79323Y28340D01*
X79326D01*
X79332Y28343D01*
X79342Y28350D01*
X79359Y28356D01*
X79378Y28366D01*
X79401Y28376D01*
X79428Y28386D01*
X79457Y28396D01*
X79523Y28415D01*
X79598Y28435D01*
X79680Y28448D01*
X79765Y28451D01*
X79792D01*
X79815Y28448D01*
D02*
G37*
G36*
X97307Y28445D02*
X97346Y28438D01*
X97389Y28425D01*
X97435Y28405D01*
X97481Y28379D01*
X97523Y28343D01*
X97527Y28336D01*
X97540Y28323D01*
X97556Y28297D01*
X97576Y28264D01*
X97596Y28222D01*
X97612Y28169D01*
X97625Y28107D01*
X97628Y28038D01*
Y28035D01*
Y28028D01*
Y28018D01*
Y28002D01*
X97622Y27966D01*
X97615Y27920D01*
X97602Y27867D01*
X97586Y27812D01*
X97559Y27759D01*
X97523Y27713D01*
X97520Y27710D01*
X97507Y27697D01*
X97484Y27677D01*
X97454Y27657D01*
X97418Y27635D01*
X97379Y27618D01*
X97333Y27605D01*
X97281Y27598D01*
X97264D01*
X97251Y27602D01*
X97222Y27605D01*
X97182Y27612D01*
X97136Y27625D01*
X97087Y27644D01*
X97038Y27667D01*
X96992Y27703D01*
X96985Y27707D01*
X96972Y27720D01*
X96953Y27736D01*
X96930Y27759D01*
X96907Y27779D01*
X96884Y27799D01*
X96864Y27812D01*
X96851Y27821D01*
X96844Y27825D01*
X96831Y27831D01*
X96808Y27838D01*
X96782Y27841D01*
X96766D01*
X96749Y27838D01*
X96726Y27831D01*
X96700Y27825D01*
X96671Y27812D01*
X96638Y27795D01*
X96608Y27772D01*
X96602Y27766D01*
X96588Y27753D01*
X96566Y27726D01*
X96536Y27694D01*
X96507Y27651D01*
X96474Y27598D01*
X96444Y27536D01*
X96418Y27467D01*
Y27464D01*
X96415Y27454D01*
X96408Y27438D01*
X96402Y27415D01*
X96395Y27385D01*
X96385Y27352D01*
X96375Y27313D01*
X96369Y27270D01*
X96359Y27224D01*
X96349Y27172D01*
X96339Y27116D01*
X96333Y27060D01*
X96320Y26936D01*
X96316Y26801D01*
Y26129D01*
X96320Y25955D01*
Y25952D01*
Y25949D01*
Y25939D01*
Y25926D01*
Y25896D01*
X96323Y25860D01*
Y25821D01*
X96329Y25781D01*
X96333Y25749D01*
X96339Y25722D01*
X96342Y25719D01*
X96346Y25709D01*
X96356Y25693D01*
X96369Y25676D01*
X96385Y25653D01*
X96402Y25634D01*
X96425Y25614D01*
X96451Y25598D01*
X96454D01*
X96464Y25591D01*
X96484Y25585D01*
X96510Y25578D01*
X96543Y25568D01*
X96585Y25561D01*
X96638Y25555D01*
X96700Y25552D01*
Y25444D01*
X95119D01*
Y25552D01*
X95129D01*
X95139Y25555D01*
X95149D01*
X95181Y25561D01*
X95224Y25568D01*
X95267Y25581D01*
X95306Y25601D01*
X95345Y25624D01*
X95375Y25653D01*
X95378Y25657D01*
X95381Y25663D01*
X95385Y25673D01*
X95391Y25686D01*
X95398Y25703D01*
X95404Y25722D01*
X95411Y25749D01*
X95414Y25775D01*
X95421Y25811D01*
X95427Y25850D01*
X95434Y25893D01*
X95437Y25942D01*
X95441Y25998D01*
X95444Y26060D01*
Y26129D01*
Y27743D01*
Y27746D01*
Y27753D01*
Y27766D01*
Y27782D01*
Y27802D01*
Y27825D01*
X95441Y27877D01*
X95437Y27930D01*
X95434Y27982D01*
X95427Y28028D01*
X95421Y28045D01*
X95418Y28061D01*
Y28064D01*
X95411Y28074D01*
X95404Y28090D01*
X95395Y28110D01*
X95365Y28153D01*
X95345Y28172D01*
X95326Y28189D01*
X95323Y28192D01*
X95316Y28195D01*
X95300Y28202D01*
X95276Y28212D01*
X95250Y28222D01*
X95214Y28231D01*
X95172Y28241D01*
X95119Y28248D01*
Y28363D01*
X96316D01*
Y27700D01*
X96320Y27707D01*
X96329Y27720D01*
X96346Y27743D01*
X96365Y27772D01*
X96389Y27808D01*
X96418Y27851D01*
X96451Y27897D01*
X96487Y27946D01*
X96569Y28045D01*
X96654Y28143D01*
X96697Y28189D01*
X96739Y28231D01*
X96782Y28271D01*
X96825Y28300D01*
X96828Y28304D01*
X96834Y28307D01*
X96848Y28313D01*
X96861Y28323D01*
X96880Y28336D01*
X96907Y28350D01*
X96959Y28376D01*
X97025Y28402D01*
X97097Y28428D01*
X97172Y28445D01*
X97208Y28451D01*
X97277D01*
X97307Y28445D01*
D02*
G37*
G36*
X89497D02*
X89536Y28438D01*
X89579Y28425D01*
X89625Y28405D01*
X89671Y28379D01*
X89714Y28343D01*
X89717Y28336D01*
X89730Y28323D01*
X89746Y28297D01*
X89766Y28264D01*
X89786Y28222D01*
X89802Y28169D01*
X89815Y28107D01*
X89819Y28038D01*
Y28035D01*
Y28028D01*
Y28018D01*
Y28002D01*
X89812Y27966D01*
X89806Y27920D01*
X89792Y27867D01*
X89776Y27812D01*
X89750Y27759D01*
X89714Y27713D01*
X89710Y27710D01*
X89697Y27697D01*
X89674Y27677D01*
X89645Y27657D01*
X89609Y27635D01*
X89569Y27618D01*
X89523Y27605D01*
X89471Y27598D01*
X89455D01*
X89441Y27602D01*
X89412Y27605D01*
X89372Y27612D01*
X89327Y27625D01*
X89277Y27644D01*
X89228Y27667D01*
X89182Y27703D01*
X89176Y27707D01*
X89163Y27720D01*
X89143Y27736D01*
X89120Y27759D01*
X89097Y27779D01*
X89074Y27799D01*
X89054Y27812D01*
X89041Y27821D01*
X89035Y27825D01*
X89022Y27831D01*
X88999Y27838D01*
X88972Y27841D01*
X88956D01*
X88940Y27838D01*
X88917Y27831D01*
X88890Y27825D01*
X88861Y27812D01*
X88828Y27795D01*
X88798Y27772D01*
X88792Y27766D01*
X88779Y27753D01*
X88756Y27726D01*
X88726Y27694D01*
X88697Y27651D01*
X88664Y27598D01*
X88635Y27536D01*
X88608Y27467D01*
Y27464D01*
X88605Y27454D01*
X88599Y27438D01*
X88592Y27415D01*
X88585Y27385D01*
X88576Y27352D01*
X88566Y27313D01*
X88559Y27270D01*
X88549Y27224D01*
X88539Y27172D01*
X88530Y27116D01*
X88523Y27060D01*
X88510Y26936D01*
X88507Y26801D01*
Y26129D01*
X88510Y25955D01*
Y25952D01*
Y25949D01*
Y25939D01*
Y25926D01*
Y25896D01*
X88513Y25860D01*
Y25821D01*
X88520Y25781D01*
X88523Y25749D01*
X88530Y25722D01*
X88533Y25719D01*
X88536Y25709D01*
X88546Y25693D01*
X88559Y25676D01*
X88576Y25653D01*
X88592Y25634D01*
X88615Y25614D01*
X88641Y25598D01*
X88644D01*
X88654Y25591D01*
X88674Y25585D01*
X88700Y25578D01*
X88733Y25568D01*
X88776Y25561D01*
X88828Y25555D01*
X88890Y25552D01*
Y25444D01*
X87309D01*
Y25552D01*
X87319D01*
X87329Y25555D01*
X87339D01*
X87372Y25561D01*
X87414Y25568D01*
X87457Y25581D01*
X87496Y25601D01*
X87536Y25624D01*
X87565Y25653D01*
X87568Y25657D01*
X87572Y25663D01*
X87575Y25673D01*
X87582Y25686D01*
X87588Y25703D01*
X87595Y25722D01*
X87601Y25749D01*
X87605Y25775D01*
X87611Y25811D01*
X87618Y25850D01*
X87624Y25893D01*
X87628Y25942D01*
X87631Y25998D01*
X87634Y26060D01*
Y26129D01*
Y27743D01*
Y27746D01*
Y27753D01*
Y27766D01*
Y27782D01*
Y27802D01*
Y27825D01*
X87631Y27877D01*
X87628Y27930D01*
X87624Y27982D01*
X87618Y28028D01*
X87611Y28045D01*
X87608Y28061D01*
Y28064D01*
X87601Y28074D01*
X87595Y28090D01*
X87585Y28110D01*
X87555Y28153D01*
X87536Y28172D01*
X87516Y28189D01*
X87513Y28192D01*
X87506Y28195D01*
X87490Y28202D01*
X87467Y28212D01*
X87441Y28222D01*
X87405Y28231D01*
X87362Y28241D01*
X87309Y28248D01*
Y28363D01*
X88507D01*
Y27700D01*
X88510Y27707D01*
X88520Y27720D01*
X88536Y27743D01*
X88556Y27772D01*
X88579Y27808D01*
X88608Y27851D01*
X88641Y27897D01*
X88677Y27946D01*
X88759Y28045D01*
X88844Y28143D01*
X88887Y28189D01*
X88930Y28231D01*
X88972Y28271D01*
X89015Y28300D01*
X89018Y28304D01*
X89025Y28307D01*
X89038Y28313D01*
X89051Y28323D01*
X89071Y28336D01*
X89097Y28350D01*
X89149Y28376D01*
X89215Y28402D01*
X89287Y28428D01*
X89363Y28445D01*
X89399Y28451D01*
X89468D01*
X89497Y28445D01*
D02*
G37*
G36*
X73140Y28448D02*
X73179Y28445D01*
X73222Y28438D01*
X73271Y28431D01*
X73324Y28422D01*
X73379Y28412D01*
X73438Y28396D01*
X73497Y28376D01*
X73560Y28356D01*
X73619Y28327D01*
X73674Y28297D01*
X73730Y28261D01*
X73783Y28222D01*
X73786Y28218D01*
X73796Y28212D01*
X73809Y28199D01*
X73825Y28182D01*
X73845Y28159D01*
X73868Y28133D01*
X73891Y28104D01*
X73917Y28071D01*
X73966Y27995D01*
X74009Y27910D01*
X74025Y27864D01*
X74042Y27815D01*
X74048Y27766D01*
X74052Y27713D01*
Y27710D01*
Y27707D01*
Y27697D01*
Y27684D01*
X74045Y27651D01*
X74038Y27612D01*
X74025Y27566D01*
X74006Y27516D01*
X73980Y27470D01*
X73943Y27428D01*
X73940Y27425D01*
X73924Y27411D01*
X73901Y27395D01*
X73868Y27375D01*
X73825Y27356D01*
X73776Y27339D01*
X73720Y27326D01*
X73658Y27323D01*
X73642D01*
X73628Y27326D01*
X73592Y27329D01*
X73550Y27339D01*
X73504Y27352D01*
X73451Y27375D01*
X73402Y27405D01*
X73353Y27444D01*
X73347Y27451D01*
X73333Y27467D01*
X73324Y27484D01*
X73314Y27500D01*
X73304Y27520D01*
X73291Y27546D01*
X73278Y27572D01*
X73264Y27605D01*
X73251Y27641D01*
X73242Y27680D01*
X73232Y27723D01*
X73222Y27772D01*
X73212Y27825D01*
X73205Y27880D01*
Y27884D01*
Y27890D01*
X73202Y27900D01*
Y27913D01*
X73196Y27946D01*
X73189Y27989D01*
X73176Y28035D01*
X73163Y28081D01*
X73143Y28123D01*
X73117Y28156D01*
X73114Y28159D01*
X73104Y28169D01*
X73087Y28182D01*
X73068Y28195D01*
X73045Y28209D01*
X73015Y28222D01*
X72982Y28231D01*
X72946Y28235D01*
X72940D01*
X72920Y28231D01*
X72894Y28225D01*
X72858Y28215D01*
X72818Y28195D01*
X72776Y28166D01*
X72753Y28150D01*
X72733Y28126D01*
X72710Y28104D01*
X72690Y28074D01*
X72687Y28071D01*
X72684Y28064D01*
X72677Y28048D01*
X72664Y28028D01*
X72654Y28002D01*
X72641Y27972D01*
X72625Y27936D01*
X72612Y27894D01*
X72595Y27844D01*
X72582Y27789D01*
X72566Y27730D01*
X72556Y27661D01*
X72546Y27589D01*
X72536Y27510D01*
X72533Y27428D01*
X72530Y27336D01*
Y27333D01*
Y27316D01*
Y27297D01*
X72533Y27267D01*
Y27231D01*
X72536Y27185D01*
X72540Y27139D01*
X72546Y27084D01*
X72553Y27024D01*
X72562Y26965D01*
X72585Y26831D01*
X72618Y26690D01*
X72661Y26549D01*
Y26546D01*
X72667Y26532D01*
X72674Y26513D01*
X72684Y26487D01*
X72697Y26457D01*
X72713Y26421D01*
X72733Y26381D01*
X72756Y26339D01*
X72805Y26247D01*
X72868Y26155D01*
X72940Y26067D01*
X72976Y26024D01*
X73018Y25988D01*
X73022D01*
X73025Y25981D01*
X73035Y25975D01*
X73048Y25968D01*
X73064Y25958D01*
X73087Y25945D01*
X73133Y25922D01*
X73196Y25899D01*
X73264Y25876D01*
X73340Y25863D01*
X73425Y25857D01*
X73451D01*
X73481Y25860D01*
X73520Y25867D01*
X73563Y25873D01*
X73612Y25886D01*
X73665Y25903D01*
X73717Y25926D01*
X73724Y25929D01*
X73740Y25939D01*
X73770Y25958D01*
X73809Y25988D01*
X73858Y26024D01*
X73914Y26070D01*
X73973Y26129D01*
X74042Y26198D01*
X74140Y26122D01*
X74137Y26119D01*
X74130Y26106D01*
X74120Y26086D01*
X74104Y26060D01*
X74085Y26027D01*
X74058Y25991D01*
X74032Y25949D01*
X73999Y25906D01*
X73963Y25860D01*
X73924Y25811D01*
X73881Y25765D01*
X73835Y25716D01*
X73737Y25624D01*
X73681Y25585D01*
X73625Y25545D01*
X73622Y25542D01*
X73612Y25539D01*
X73596Y25529D01*
X73573Y25516D01*
X73543Y25502D01*
X73510Y25486D01*
X73471Y25470D01*
X73428Y25453D01*
X73379Y25434D01*
X73330Y25417D01*
X73274Y25401D01*
X73219Y25388D01*
X73159Y25375D01*
X73097Y25365D01*
X73035Y25361D01*
X72969Y25358D01*
X72943D01*
X72913Y25361D01*
X72874Y25365D01*
X72822Y25371D01*
X72766Y25381D01*
X72704Y25394D01*
X72635Y25414D01*
X72559Y25437D01*
X72484Y25466D01*
X72408Y25502D01*
X72330Y25545D01*
X72251Y25594D01*
X72176Y25653D01*
X72103Y25719D01*
X72035Y25798D01*
X72031Y25804D01*
X72018Y25817D01*
X72002Y25844D01*
X71979Y25876D01*
X71952Y25919D01*
X71923Y25968D01*
X71893Y26027D01*
X71861Y26096D01*
X71828Y26168D01*
X71798Y26250D01*
X71769Y26336D01*
X71742Y26428D01*
X71720Y26529D01*
X71703Y26631D01*
X71690Y26739D01*
X71687Y26854D01*
Y26857D01*
Y26860D01*
Y26880D01*
X71690Y26913D01*
X71693Y26956D01*
X71697Y27005D01*
X71703Y27067D01*
X71713Y27136D01*
X71726Y27208D01*
X71742Y27290D01*
X71766Y27372D01*
X71792Y27461D01*
X71821Y27549D01*
X71857Y27638D01*
X71900Y27730D01*
X71949Y27818D01*
X72005Y27904D01*
X72008Y27910D01*
X72021Y27926D01*
X72044Y27953D01*
X72077Y27989D01*
X72113Y28031D01*
X72162Y28077D01*
X72218Y28126D01*
X72280Y28179D01*
X72353Y28228D01*
X72431Y28277D01*
X72520Y28323D01*
X72615Y28366D01*
X72717Y28402D01*
X72825Y28428D01*
X72940Y28445D01*
X73064Y28451D01*
X73107D01*
X73140Y28448D01*
D02*
G37*
G36*
X84177Y28248D02*
X84171D01*
X84154Y28245D01*
X84128Y28238D01*
X84098Y28228D01*
X84062Y28215D01*
X84023Y28195D01*
X83987Y28172D01*
X83951Y28143D01*
X83947Y28140D01*
X83941Y28133D01*
X83934Y28123D01*
X83925Y28110D01*
X83915Y28094D01*
X83902Y28074D01*
X83885Y28048D01*
X83869Y28018D01*
X83849Y27986D01*
X83829Y27943D01*
X83803Y27897D01*
X83777Y27844D01*
X83751Y27785D01*
X83721Y27720D01*
X83688Y27648D01*
X82717Y25358D01*
X82573D01*
X81586Y27618D01*
X81582Y27621D01*
X81579Y27635D01*
X81569Y27657D01*
X81556Y27684D01*
X81543Y27716D01*
X81524Y27753D01*
X81507Y27795D01*
X81484Y27838D01*
X81441Y27926D01*
X81396Y28008D01*
X81373Y28048D01*
X81350Y28084D01*
X81330Y28113D01*
X81310Y28136D01*
X81307Y28140D01*
X81297Y28150D01*
X81281Y28163D01*
X81258Y28182D01*
X81225Y28199D01*
X81189Y28218D01*
X81146Y28235D01*
X81097Y28248D01*
Y28363D01*
X82648D01*
Y28248D01*
X82626D01*
X82599Y28245D01*
X82570Y28241D01*
X82534Y28235D01*
X82501Y28225D01*
X82471Y28212D01*
X82449Y28192D01*
X82445Y28189D01*
X82435Y28179D01*
X82425Y28166D01*
X82412Y28146D01*
X82396Y28123D01*
X82386Y28097D01*
X82376Y28064D01*
X82373Y28031D01*
Y28025D01*
X82376Y28008D01*
Y27995D01*
X82380Y27979D01*
X82386Y27959D01*
X82389Y27933D01*
X82399Y27907D01*
X82406Y27874D01*
X82419Y27838D01*
X82432Y27799D01*
X82449Y27756D01*
X82465Y27707D01*
X82488Y27654D01*
X82511Y27595D01*
X82993Y26503D01*
X83377Y27448D01*
X83380Y27451D01*
X83383Y27464D01*
X83393Y27487D01*
X83403Y27513D01*
X83416Y27546D01*
X83429Y27585D01*
X83442Y27628D01*
X83459Y27671D01*
X83488Y27766D01*
X83514Y27861D01*
X83524Y27907D01*
X83534Y27949D01*
X83537Y27989D01*
X83541Y28022D01*
Y28025D01*
Y28038D01*
X83537Y28054D01*
X83531Y28077D01*
X83524Y28100D01*
X83511Y28130D01*
X83491Y28156D01*
X83469Y28179D01*
X83465Y28182D01*
X83455Y28189D01*
X83439Y28199D01*
X83413Y28212D01*
X83377Y28225D01*
X83337Y28235D01*
X83285Y28245D01*
X83223Y28248D01*
Y28363D01*
X84177D01*
Y28248D01*
D02*
G37*
G36*
X40592Y29563D02*
X40474D01*
X40442Y29560D01*
X40399Y29553D01*
X40353Y29547D01*
X40304Y29534D01*
X40255Y29514D01*
X40205Y29491D01*
X40199Y29488D01*
X40186Y29478D01*
X40166Y29462D01*
X40140Y29438D01*
X40113Y29406D01*
X40084Y29370D01*
X40058Y29327D01*
X40035Y29274D01*
Y29271D01*
X40028Y29255D01*
X40022Y29229D01*
X40015Y29193D01*
X40009Y29143D01*
X40005Y29114D01*
X40002Y29081D01*
X39999Y29045D01*
Y29006D01*
X39995Y28963D01*
Y28917D01*
Y27307D01*
Y27303D01*
Y27297D01*
Y27287D01*
Y27274D01*
Y27257D01*
Y27234D01*
Y27185D01*
X39992Y27123D01*
X39989Y27054D01*
Y26975D01*
X39982Y26893D01*
X39979Y26805D01*
X39972Y26716D01*
X39953Y26539D01*
X39943Y26454D01*
X39930Y26372D01*
X39913Y26296D01*
X39897Y26231D01*
Y26227D01*
X39894Y26217D01*
X39884Y26198D01*
X39877Y26175D01*
X39864Y26145D01*
X39845Y26113D01*
X39825Y26073D01*
X39799Y26031D01*
X39769Y25985D01*
X39736Y25936D01*
X39697Y25886D01*
X39651Y25834D01*
X39602Y25781D01*
X39546Y25725D01*
X39484Y25673D01*
X39415Y25621D01*
X39412Y25617D01*
X39399Y25607D01*
X39375Y25594D01*
X39346Y25578D01*
X39307Y25558D01*
X39261Y25532D01*
X39205Y25509D01*
X39143Y25483D01*
X39070Y25457D01*
X38995Y25434D01*
X38910Y25411D01*
X38815Y25388D01*
X38716Y25371D01*
X38608Y25358D01*
X38496Y25348D01*
X38375Y25345D01*
X38323D01*
X38287Y25348D01*
X38237D01*
X38185Y25352D01*
X38126Y25358D01*
X38063Y25365D01*
X37998Y25371D01*
X37926Y25381D01*
X37785Y25407D01*
X37716Y25424D01*
X37650Y25444D01*
X37585Y25463D01*
X37526Y25489D01*
X37522Y25493D01*
X37509Y25499D01*
X37486Y25509D01*
X37460Y25526D01*
X37424Y25545D01*
X37388Y25568D01*
X37345Y25598D01*
X37299Y25627D01*
X37253Y25663D01*
X37204Y25703D01*
X37155Y25745D01*
X37109Y25791D01*
X37063Y25837D01*
X37020Y25890D01*
X36981Y25945D01*
X36948Y26001D01*
X36945Y26004D01*
X36942Y26014D01*
X36932Y26034D01*
X36922Y26060D01*
X36909Y26090D01*
X36896Y26129D01*
X36879Y26172D01*
X36866Y26224D01*
X36850Y26280D01*
X36834Y26346D01*
X36820Y26414D01*
X36807Y26490D01*
X36797Y26568D01*
X36788Y26654D01*
X36784Y26746D01*
X36781Y26841D01*
Y28917D01*
Y28920D01*
Y28933D01*
Y28950D01*
Y28976D01*
Y29006D01*
X36778Y29038D01*
X36775Y29111D01*
X36771Y29189D01*
X36765Y29261D01*
X36758Y29294D01*
X36751Y29324D01*
X36745Y29350D01*
X36738Y29370D01*
X36735Y29373D01*
X36732Y29386D01*
X36722Y29399D01*
X36706Y29422D01*
X36686Y29442D01*
X36663Y29468D01*
X36633Y29491D01*
X36597Y29511D01*
X36594Y29514D01*
X36578Y29520D01*
X36551Y29527D01*
X36515Y29537D01*
X36492Y29544D01*
X36466Y29547D01*
X36433Y29550D01*
X36400Y29557D01*
X36364Y29560D01*
X36322D01*
X36279Y29563D01*
X36230D01*
Y29678D01*
X38418D01*
Y29563D01*
X38247D01*
X38224Y29560D01*
X38172Y29557D01*
X38116Y29550D01*
X38060Y29540D01*
X38008Y29527D01*
X37985Y29520D01*
X37965Y29511D01*
X37962Y29507D01*
X37949Y29501D01*
X37936Y29488D01*
X37916Y29475D01*
X37893Y29452D01*
X37870Y29429D01*
X37850Y29399D01*
X37834Y29366D01*
Y29363D01*
X37827Y29347D01*
X37824Y29333D01*
Y29320D01*
X37821Y29301D01*
X37817Y29278D01*
X37814Y29248D01*
X37811Y29219D01*
X37808Y29183D01*
X37804Y29140D01*
X37801Y29094D01*
Y29042D01*
X37798Y28983D01*
Y28917D01*
Y26841D01*
Y26834D01*
Y26814D01*
Y26788D01*
Y26749D01*
X37801Y26703D01*
Y26651D01*
X37804Y26595D01*
X37808Y26536D01*
X37817Y26408D01*
X37824Y26346D01*
X37834Y26283D01*
X37844Y26227D01*
X37854Y26175D01*
X37867Y26129D01*
X37883Y26090D01*
Y26086D01*
X37886Y26083D01*
X37893Y26073D01*
X37900Y26060D01*
X37919Y26024D01*
X37952Y25981D01*
X37988Y25936D01*
X38037Y25883D01*
X38096Y25834D01*
X38165Y25785D01*
X38168D01*
X38175Y25778D01*
X38185Y25775D01*
X38201Y25765D01*
X38221Y25755D01*
X38244Y25745D01*
X38270Y25735D01*
X38303Y25725D01*
X38336Y25712D01*
X38375Y25703D01*
X38457Y25683D01*
X38555Y25670D01*
X38664Y25663D01*
X38697D01*
X38719Y25666D01*
X38749D01*
X38785Y25673D01*
X38824Y25676D01*
X38864Y25683D01*
X38956Y25703D01*
X39054Y25729D01*
X39152Y25768D01*
X39202Y25791D01*
X39248Y25817D01*
X39251Y25821D01*
X39257Y25824D01*
X39270Y25834D01*
X39287Y25847D01*
X39307Y25860D01*
X39330Y25880D01*
X39385Y25929D01*
X39444Y25988D01*
X39503Y26060D01*
X39562Y26145D01*
X39612Y26241D01*
Y26244D01*
X39618Y26254D01*
X39621Y26270D01*
X39631Y26293D01*
X39641Y26326D01*
X39651Y26362D01*
X39661Y26408D01*
X39674Y26460D01*
X39684Y26523D01*
X39694Y26592D01*
X39704Y26670D01*
X39713Y26755D01*
X39723Y26851D01*
X39726Y26952D01*
X39733Y27067D01*
Y27188D01*
Y28917D01*
Y28920D01*
Y28930D01*
Y28943D01*
Y28963D01*
X39730Y28986D01*
Y29012D01*
X39726Y29074D01*
X39717Y29140D01*
X39707Y29206D01*
X39690Y29268D01*
X39680Y29298D01*
X39671Y29320D01*
X39667Y29327D01*
X39661Y29340D01*
X39648Y29363D01*
X39631Y29386D01*
X39608Y29416D01*
X39582Y29445D01*
X39556Y29468D01*
X39523Y29491D01*
X39516Y29494D01*
X39497Y29501D01*
X39464Y29514D01*
X39421Y29527D01*
X39366Y29540D01*
X39297Y29553D01*
X39218Y29560D01*
X39126Y29563D01*
Y29678D01*
X40592D01*
Y29563D01*
D02*
G37*
G36*
X67498Y29675D02*
X67570Y29671D01*
X67649Y29668D01*
X67738Y29665D01*
X67826Y29658D01*
X67918Y29652D01*
X68105Y29632D01*
X68194Y29619D01*
X68279Y29606D01*
X68358Y29589D01*
X68430Y29570D01*
X68433D01*
X68446Y29563D01*
X68466Y29557D01*
X68489Y29550D01*
X68518Y29537D01*
X68554Y29520D01*
X68594Y29504D01*
X68636Y29481D01*
X68682Y29455D01*
X68728Y29429D01*
X68777Y29396D01*
X68827Y29360D01*
X68876Y29320D01*
X68925Y29274D01*
X68971Y29229D01*
X69014Y29176D01*
X69017Y29173D01*
X69023Y29163D01*
X69033Y29147D01*
X69050Y29127D01*
X69066Y29097D01*
X69086Y29065D01*
X69105Y29028D01*
X69128Y28986D01*
X69148Y28940D01*
X69168Y28888D01*
X69187Y28832D01*
X69204Y28773D01*
X69220Y28710D01*
X69230Y28645D01*
X69237Y28579D01*
X69240Y28507D01*
Y28500D01*
Y28487D01*
X69237Y28461D01*
X69233Y28428D01*
X69230Y28389D01*
X69223Y28343D01*
X69210Y28291D01*
X69197Y28235D01*
X69181Y28176D01*
X69158Y28113D01*
X69132Y28048D01*
X69099Y27982D01*
X69059Y27917D01*
X69014Y27854D01*
X68961Y27792D01*
X68902Y27733D01*
X68899Y27730D01*
X68892Y27723D01*
X68879Y27713D01*
X68863Y27700D01*
X68840Y27684D01*
X68814Y27667D01*
X68781Y27648D01*
X68745Y27625D01*
X68705Y27602D01*
X68659Y27579D01*
X68610Y27553D01*
X68558Y27530D01*
X68499Y27507D01*
X68436Y27484D01*
X68371Y27464D01*
X68299Y27444D01*
X69315Y26008D01*
X69319Y26004D01*
X69325Y25995D01*
X69335Y25981D01*
X69348Y25965D01*
X69365Y25942D01*
X69384Y25916D01*
X69427Y25860D01*
X69473Y25801D01*
X69519Y25745D01*
X69542Y25722D01*
X69565Y25699D01*
X69584Y25680D01*
X69601Y25663D01*
X69607Y25660D01*
X69624Y25647D01*
X69650Y25630D01*
X69686Y25614D01*
X69729Y25594D01*
X69781Y25578D01*
X69837Y25565D01*
X69899Y25558D01*
Y25444D01*
X68564D01*
X67200Y27372D01*
X66924D01*
Y26188D01*
Y26185D01*
Y26172D01*
Y26155D01*
Y26132D01*
Y26106D01*
X66927Y26073D01*
X66931Y26004D01*
X66934Y25929D01*
X66941Y25857D01*
X66944Y25824D01*
X66951Y25794D01*
X66957Y25771D01*
X66964Y25752D01*
X66967Y25749D01*
X66973Y25739D01*
X66983Y25722D01*
X67000Y25703D01*
X67019Y25680D01*
X67046Y25657D01*
X67075Y25630D01*
X67111Y25611D01*
X67118Y25607D01*
X67134Y25604D01*
X67160Y25594D01*
X67180Y25591D01*
X67203Y25585D01*
X67226Y25581D01*
X67256Y25575D01*
X67288Y25571D01*
X67324Y25568D01*
X67367Y25565D01*
X67410Y25561D01*
X67459Y25558D01*
X67511D01*
Y25444D01*
X65343D01*
Y25558D01*
X65389D01*
X65415Y25561D01*
X65442D01*
X65504Y25565D01*
X65570Y25571D01*
X65635Y25581D01*
X65694Y25594D01*
X65717Y25601D01*
X65740Y25611D01*
X65743Y25614D01*
X65756Y25621D01*
X65776Y25634D01*
X65799Y25650D01*
X65822Y25670D01*
X65848Y25693D01*
X65868Y25722D01*
X65888Y25752D01*
X65891Y25755D01*
X65894Y25771D01*
X65898Y25785D01*
X65901Y25798D01*
X65904Y25817D01*
X65911Y25840D01*
X65914Y25867D01*
X65917Y25896D01*
X65921Y25932D01*
X65924Y25975D01*
X65927Y26017D01*
Y26070D01*
X65930Y26126D01*
Y26188D01*
Y28933D01*
Y28937D01*
Y28950D01*
Y28966D01*
Y28989D01*
Y29015D01*
X65927Y29048D01*
X65924Y29117D01*
X65921Y29189D01*
X65914Y29261D01*
X65907Y29294D01*
X65901Y29324D01*
X65894Y29347D01*
X65888Y29366D01*
X65885Y29370D01*
X65878Y29383D01*
X65868Y29396D01*
X65852Y29419D01*
X65832Y29438D01*
X65806Y29465D01*
X65773Y29488D01*
X65737Y29507D01*
X65730Y29511D01*
X65717Y29517D01*
X65688Y29524D01*
X65671Y29530D01*
X65648Y29537D01*
X65622Y29540D01*
X65596Y29547D01*
X65563Y29550D01*
X65527Y29553D01*
X65488Y29557D01*
X65442Y29560D01*
X65396Y29563D01*
X65343D01*
Y29678D01*
X67433D01*
X67498Y29675D01*
D02*
G37*
G36*
X46539Y29675D02*
X46598D01*
X46667Y29671D01*
X46742Y29668D01*
X46821Y29662D01*
X46906Y29655D01*
X46992Y29645D01*
X47159Y29622D01*
X47241Y29609D01*
X47316Y29589D01*
X47385Y29570D01*
X47448Y29547D01*
X47451D01*
X47461Y29540D01*
X47477Y29534D01*
X47497Y29524D01*
X47523Y29507D01*
X47552Y29491D01*
X47585Y29471D01*
X47621Y29448D01*
X47700Y29393D01*
X47779Y29327D01*
X47858Y29248D01*
X47926Y29156D01*
X47930Y29153D01*
X47933Y29147D01*
X47943Y29130D01*
X47953Y29111D01*
X47969Y29087D01*
X47982Y29061D01*
X47999Y29028D01*
X48015Y28992D01*
X48031Y28953D01*
X48048Y28910D01*
X48077Y28819D01*
X48097Y28717D01*
X48100Y28664D01*
X48104Y28612D01*
Y28609D01*
Y28599D01*
Y28582D01*
X48100Y28559D01*
X48097Y28533D01*
X48090Y28500D01*
X48084Y28468D01*
X48074Y28428D01*
X48064Y28386D01*
X48048Y28343D01*
X48031Y28297D01*
X48008Y28251D01*
X47982Y28205D01*
X47953Y28156D01*
X47917Y28110D01*
X47877Y28064D01*
X47874Y28061D01*
X47867Y28054D01*
X47854Y28041D01*
X47835Y28025D01*
X47808Y28005D01*
X47776Y27982D01*
X47739Y27956D01*
X47697Y27930D01*
X47644Y27900D01*
X47589Y27867D01*
X47523Y27838D01*
X47451Y27805D01*
X47372Y27775D01*
X47287Y27743D01*
X47192Y27713D01*
X47090Y27687D01*
X47097D01*
X47116Y27680D01*
X47149Y27674D01*
X47188Y27661D01*
X47238Y27648D01*
X47297Y27631D01*
X47359Y27612D01*
X47425Y27592D01*
X47566Y27543D01*
X47707Y27484D01*
X47772Y27451D01*
X47835Y27418D01*
X47894Y27382D01*
X47943Y27346D01*
X47946Y27343D01*
X47959Y27333D01*
X47976Y27316D01*
X47999Y27293D01*
X48025Y27267D01*
X48054Y27234D01*
X48087Y27192D01*
X48120Y27149D01*
X48153Y27097D01*
X48186Y27044D01*
X48215Y26982D01*
X48241Y26916D01*
X48264Y26847D01*
X48281Y26772D01*
X48294Y26693D01*
X48297Y26611D01*
Y26605D01*
Y26592D01*
X48294Y26565D01*
X48291Y26532D01*
X48284Y26490D01*
X48277Y26444D01*
X48264Y26391D01*
X48248Y26332D01*
X48228Y26273D01*
X48202Y26208D01*
X48172Y26142D01*
X48133Y26076D01*
X48090Y26011D01*
X48038Y25945D01*
X47979Y25880D01*
X47910Y25821D01*
X47903Y25817D01*
X47887Y25804D01*
X47861Y25785D01*
X47822Y25762D01*
X47776Y25732D01*
X47713Y25703D01*
X47644Y25666D01*
X47562Y25634D01*
X47471Y25598D01*
X47369Y25561D01*
X47257Y25532D01*
X47136Y25502D01*
X47001Y25480D01*
X46860Y25460D01*
X46706Y25447D01*
X46542Y25444D01*
X44391D01*
Y25558D01*
X44436D01*
X44463Y25561D01*
X44489D01*
X44551Y25565D01*
X44617Y25571D01*
X44682Y25581D01*
X44742Y25594D01*
X44765Y25601D01*
X44787Y25611D01*
X44791Y25614D01*
X44804Y25621D01*
X44824Y25634D01*
X44846Y25650D01*
X44870Y25670D01*
X44896Y25693D01*
X44915Y25722D01*
X44935Y25752D01*
X44938Y25755D01*
X44942Y25771D01*
X44945Y25785D01*
X44948Y25798D01*
X44952Y25817D01*
X44958Y25840D01*
X44961Y25867D01*
X44965Y25896D01*
X44968Y25932D01*
X44971Y25975D01*
X44974Y26017D01*
Y26070D01*
X44978Y26126D01*
Y26188D01*
Y28933D01*
Y28937D01*
Y28950D01*
Y28966D01*
Y28989D01*
Y29015D01*
X44974Y29048D01*
X44971Y29117D01*
X44968Y29189D01*
X44961Y29261D01*
X44955Y29294D01*
X44948Y29324D01*
X44942Y29347D01*
X44935Y29366D01*
X44932Y29370D01*
X44925Y29383D01*
X44915Y29396D01*
X44899Y29419D01*
X44879Y29438D01*
X44853Y29465D01*
X44820Y29488D01*
X44784Y29507D01*
X44778Y29511D01*
X44765Y29517D01*
X44735Y29524D01*
X44719Y29530D01*
X44696Y29537D01*
X44669Y29540D01*
X44643Y29547D01*
X44610Y29550D01*
X44574Y29553D01*
X44535Y29557D01*
X44489Y29560D01*
X44443Y29563D01*
X44391D01*
Y29678D01*
X46490D01*
X46539Y29675D01*
D02*
G37*
G36*
X91291Y28363D02*
X91983D01*
Y28058D01*
X91291D01*
Y26254D01*
Y26250D01*
Y26244D01*
Y26231D01*
Y26214D01*
Y26191D01*
Y26168D01*
X91295Y26119D01*
X91298Y26063D01*
X91301Y26008D01*
X91308Y25962D01*
X91311Y25942D01*
X91314Y25926D01*
Y25922D01*
X91318Y25912D01*
X91324Y25899D01*
X91334Y25883D01*
X91360Y25847D01*
X91377Y25827D01*
X91396Y25807D01*
X91400Y25804D01*
X91406Y25801D01*
X91419Y25794D01*
X91432Y25788D01*
X91468Y25771D01*
X91485Y25768D01*
X91505Y25765D01*
X91514D01*
X91524Y25768D01*
X91541Y25771D01*
X91557Y25775D01*
X91580Y25781D01*
X91603Y25791D01*
X91629Y25804D01*
X91659Y25821D01*
X91688Y25840D01*
X91721Y25867D01*
X91754Y25896D01*
X91787Y25929D01*
X91819Y25972D01*
X91856Y26017D01*
X91888Y26073D01*
X91983Y26004D01*
X91980Y25998D01*
X91970Y25978D01*
X91957Y25949D01*
X91934Y25909D01*
X91908Y25867D01*
X91872Y25814D01*
X91833Y25762D01*
X91783Y25706D01*
X91731Y25647D01*
X91668Y25594D01*
X91603Y25542D01*
X91527Y25499D01*
X91445Y25460D01*
X91357Y25430D01*
X91262Y25411D01*
X91213Y25407D01*
X91160Y25404D01*
X91134D01*
X91114Y25407D01*
X91091D01*
X91062Y25414D01*
X91032Y25417D01*
X90996Y25424D01*
X90924Y25444D01*
X90842Y25470D01*
X90763Y25509D01*
X90724Y25532D01*
X90688Y25558D01*
X90684Y25561D01*
X90681Y25565D01*
X90671Y25575D01*
X90658Y25585D01*
X90626Y25617D01*
X90586Y25660D01*
X90544Y25709D01*
X90504Y25768D01*
X90471Y25834D01*
X90445Y25903D01*
Y25909D01*
X90442Y25916D01*
Y25926D01*
X90438Y25942D01*
X90435Y25962D01*
X90432Y25985D01*
Y26014D01*
X90429Y26047D01*
X90425Y26090D01*
X90422Y26136D01*
X90419Y26188D01*
Y26250D01*
X90416Y26316D01*
Y26395D01*
Y26477D01*
Y28058D01*
X90035D01*
Y28166D01*
X90038Y28169D01*
X90052Y28179D01*
X90074Y28192D01*
X90101Y28215D01*
X90134Y28238D01*
X90173Y28271D01*
X90219Y28304D01*
X90268Y28343D01*
X90317Y28382D01*
X90373Y28428D01*
X90484Y28527D01*
X90596Y28635D01*
X90704Y28746D01*
X90707Y28750D01*
X90717Y28760D01*
X90730Y28776D01*
X90750Y28802D01*
X90773Y28828D01*
X90803Y28864D01*
X90832Y28904D01*
X90868Y28947D01*
X90904Y28996D01*
X90944Y29048D01*
X90983Y29107D01*
X91022Y29166D01*
X91108Y29294D01*
X91186Y29432D01*
X91291D01*
Y28363D01*
D02*
G37*
G36*
X51498Y28363D02*
X52190D01*
Y28058D01*
X51498D01*
Y26254D01*
Y26250D01*
Y26244D01*
Y26231D01*
Y26214D01*
Y26191D01*
Y26168D01*
X51502Y26119D01*
X51505Y26063D01*
X51508Y26008D01*
X51515Y25962D01*
X51518Y25942D01*
X51521Y25926D01*
Y25922D01*
X51525Y25912D01*
X51531Y25899D01*
X51541Y25883D01*
X51567Y25847D01*
X51584Y25827D01*
X51603Y25807D01*
X51607Y25804D01*
X51613Y25801D01*
X51626Y25794D01*
X51639Y25788D01*
X51675Y25771D01*
X51692Y25768D01*
X51712Y25765D01*
X51721D01*
X51731Y25768D01*
X51748Y25771D01*
X51764Y25775D01*
X51787Y25781D01*
X51810Y25791D01*
X51836Y25804D01*
X51866Y25821D01*
X51895Y25840D01*
X51928Y25867D01*
X51961Y25896D01*
X51994Y25929D01*
X52026Y25971D01*
X52062Y26017D01*
X52095Y26073D01*
X52190Y26004D01*
X52187Y25998D01*
X52177Y25978D01*
X52164Y25949D01*
X52141Y25909D01*
X52115Y25867D01*
X52079Y25814D01*
X52040Y25762D01*
X51990Y25706D01*
X51938Y25647D01*
X51876Y25594D01*
X51810Y25542D01*
X51735Y25499D01*
X51652Y25460D01*
X51564Y25430D01*
X51469Y25411D01*
X51420Y25407D01*
X51367Y25404D01*
X51341D01*
X51321Y25407D01*
X51298D01*
X51269Y25414D01*
X51239Y25417D01*
X51203Y25424D01*
X51131Y25444D01*
X51049Y25470D01*
X50970Y25509D01*
X50931Y25532D01*
X50895Y25558D01*
X50892Y25561D01*
X50888Y25565D01*
X50878Y25575D01*
X50865Y25585D01*
X50832Y25617D01*
X50793Y25660D01*
X50750Y25709D01*
X50711Y25768D01*
X50678Y25834D01*
X50652Y25903D01*
Y25909D01*
X50649Y25916D01*
Y25926D01*
X50646Y25942D01*
X50642Y25962D01*
X50639Y25985D01*
Y26014D01*
X50636Y26047D01*
X50633Y26090D01*
X50629Y26136D01*
X50626Y26188D01*
Y26250D01*
X50623Y26316D01*
Y26395D01*
Y26477D01*
Y28058D01*
X50242D01*
Y28166D01*
X50245Y28169D01*
X50258Y28179D01*
X50282Y28192D01*
X50308Y28215D01*
X50340Y28238D01*
X50380Y28271D01*
X50426Y28304D01*
X50475Y28343D01*
X50524Y28382D01*
X50580Y28428D01*
X50691Y28527D01*
X50803Y28635D01*
X50911Y28746D01*
X50915Y28750D01*
X50924Y28760D01*
X50937Y28776D01*
X50957Y28802D01*
X50980Y28828D01*
X51010Y28864D01*
X51039Y28904D01*
X51075Y28947D01*
X51111Y28996D01*
X51151Y29048D01*
X51190Y29107D01*
X51229Y29166D01*
X51315Y29294D01*
X51393Y29432D01*
X51498D01*
Y28363D01*
D02*
G37*
G36*
X93653Y28448D02*
X93686Y28445D01*
X93725Y28441D01*
X93768Y28431D01*
X93820Y28422D01*
X93873Y28405D01*
X93932Y28386D01*
X93994Y28363D01*
X94060Y28333D01*
X94125Y28297D01*
X94191Y28254D01*
X94256Y28209D01*
X94319Y28153D01*
X94381Y28087D01*
X94384Y28084D01*
X94394Y28071D01*
X94411Y28048D01*
X94434Y28018D01*
X94456Y27982D01*
X94486Y27933D01*
X94516Y27880D01*
X94548Y27815D01*
X94581Y27743D01*
X94611Y27664D01*
X94640Y27575D01*
X94670Y27477D01*
X94693Y27372D01*
X94712Y27261D01*
X94729Y27139D01*
X94735Y27008D01*
X93131D01*
Y27002D01*
X93135Y26982D01*
Y26952D01*
X93141Y26913D01*
X93148Y26864D01*
X93154Y26808D01*
X93164Y26742D01*
X93181Y26677D01*
X93197Y26605D01*
X93217Y26529D01*
X93243Y26454D01*
X93273Y26375D01*
X93305Y26300D01*
X93345Y26227D01*
X93391Y26155D01*
X93440Y26090D01*
X93443Y26086D01*
X93450Y26080D01*
X93463Y26067D01*
X93479Y26050D01*
X93499Y26031D01*
X93525Y26008D01*
X93555Y25985D01*
X93587Y25962D01*
X93623Y25939D01*
X93663Y25916D01*
X93751Y25873D01*
X93797Y25857D01*
X93850Y25844D01*
X93902Y25837D01*
X93958Y25834D01*
X93978D01*
X93991Y25837D01*
X94027Y25840D01*
X94069Y25847D01*
X94122Y25860D01*
X94181Y25876D01*
X94240Y25903D01*
X94299Y25936D01*
X94302D01*
X94306Y25942D01*
X94325Y25955D01*
X94358Y25985D01*
X94397Y26024D01*
X94420Y26047D01*
X94447Y26073D01*
X94473Y26106D01*
X94502Y26139D01*
X94532Y26178D01*
X94565Y26221D01*
X94594Y26267D01*
X94627Y26316D01*
X94735Y26247D01*
X94732Y26241D01*
X94726Y26227D01*
X94712Y26201D01*
X94693Y26168D01*
X94670Y26129D01*
X94643Y26083D01*
X94614Y26034D01*
X94581Y25978D01*
X94542Y25922D01*
X94502Y25867D01*
X94411Y25752D01*
X94365Y25696D01*
X94312Y25647D01*
X94260Y25601D01*
X94207Y25558D01*
X94204Y25555D01*
X94194Y25548D01*
X94178Y25539D01*
X94158Y25529D01*
X94129Y25512D01*
X94096Y25496D01*
X94060Y25476D01*
X94017Y25460D01*
X93971Y25440D01*
X93919Y25420D01*
X93866Y25404D01*
X93807Y25391D01*
X93745Y25378D01*
X93682Y25368D01*
X93614Y25361D01*
X93545Y25358D01*
X93515D01*
X93482Y25361D01*
X93436Y25365D01*
X93384Y25375D01*
X93322Y25384D01*
X93253Y25401D01*
X93177Y25420D01*
X93099Y25447D01*
X93017Y25480D01*
X92935Y25519D01*
X92853Y25568D01*
X92774Y25627D01*
X92695Y25693D01*
X92623Y25768D01*
X92557Y25857D01*
X92554Y25860D01*
X92548Y25876D01*
X92535Y25899D01*
X92515Y25929D01*
X92495Y25968D01*
X92472Y26014D01*
X92449Y26070D01*
X92426Y26132D01*
X92400Y26201D01*
X92377Y26277D01*
X92354Y26359D01*
X92334Y26447D01*
X92318Y26542D01*
X92305Y26641D01*
X92295Y26746D01*
X92292Y26854D01*
Y26857D01*
Y26864D01*
Y26874D01*
Y26887D01*
Y26903D01*
X92295Y26923D01*
X92298Y26975D01*
X92305Y27038D01*
X92311Y27110D01*
X92325Y27188D01*
X92341Y27274D01*
X92361Y27366D01*
X92387Y27461D01*
X92420Y27556D01*
X92459Y27654D01*
X92502Y27749D01*
X92554Y27844D01*
X92616Y27933D01*
X92685Y28018D01*
X92689Y28025D01*
X92705Y28038D01*
X92725Y28058D01*
X92754Y28087D01*
X92794Y28120D01*
X92839Y28156D01*
X92892Y28195D01*
X92951Y28235D01*
X93013Y28274D01*
X93085Y28313D01*
X93161Y28350D01*
X93243Y28382D01*
X93328Y28412D01*
X93420Y28431D01*
X93512Y28448D01*
X93610Y28451D01*
X93630D01*
X93653Y28448D01*
D02*
G37*
G36*
X85843D02*
X85876Y28445D01*
X85915Y28441D01*
X85958Y28431D01*
X86010Y28422D01*
X86063Y28405D01*
X86122Y28386D01*
X86184Y28363D01*
X86250Y28333D01*
X86316Y28297D01*
X86381Y28254D01*
X86447Y28209D01*
X86509Y28153D01*
X86571Y28087D01*
X86575Y28084D01*
X86585Y28071D01*
X86601Y28048D01*
X86624Y28018D01*
X86647Y27982D01*
X86676Y27933D01*
X86706Y27880D01*
X86739Y27815D01*
X86772Y27743D01*
X86801Y27664D01*
X86831Y27575D01*
X86860Y27477D01*
X86883Y27372D01*
X86903Y27261D01*
X86919Y27139D01*
X86926Y27008D01*
X85322D01*
Y27002D01*
X85325Y26982D01*
Y26952D01*
X85332Y26913D01*
X85338Y26864D01*
X85345Y26808D01*
X85355Y26742D01*
X85371Y26677D01*
X85387Y26605D01*
X85407Y26529D01*
X85433Y26454D01*
X85463Y26375D01*
X85496Y26300D01*
X85535Y26227D01*
X85581Y26155D01*
X85630Y26090D01*
X85633Y26086D01*
X85640Y26080D01*
X85653Y26067D01*
X85669Y26050D01*
X85689Y26031D01*
X85715Y26008D01*
X85745Y25985D01*
X85778Y25962D01*
X85814Y25939D01*
X85853Y25916D01*
X85942Y25873D01*
X85988Y25857D01*
X86040Y25844D01*
X86093Y25837D01*
X86148Y25834D01*
X86168D01*
X86181Y25837D01*
X86217Y25840D01*
X86260Y25847D01*
X86312Y25860D01*
X86371Y25876D01*
X86430Y25903D01*
X86489Y25936D01*
X86493D01*
X86496Y25942D01*
X86516Y25955D01*
X86549Y25985D01*
X86588Y26024D01*
X86611Y26047D01*
X86637Y26073D01*
X86663Y26106D01*
X86693Y26139D01*
X86722Y26178D01*
X86755Y26221D01*
X86785Y26267D01*
X86817Y26316D01*
X86926Y26247D01*
X86922Y26241D01*
X86916Y26227D01*
X86903Y26201D01*
X86883Y26168D01*
X86860Y26129D01*
X86834Y26083D01*
X86804Y26034D01*
X86772Y25978D01*
X86732Y25922D01*
X86693Y25867D01*
X86601Y25752D01*
X86555Y25696D01*
X86502Y25647D01*
X86450Y25601D01*
X86398Y25558D01*
X86394Y25555D01*
X86384Y25548D01*
X86368Y25539D01*
X86348Y25529D01*
X86319Y25512D01*
X86286Y25496D01*
X86250Y25476D01*
X86207Y25460D01*
X86161Y25440D01*
X86109Y25420D01*
X86056Y25404D01*
X85997Y25391D01*
X85935Y25378D01*
X85873Y25368D01*
X85804Y25361D01*
X85735Y25358D01*
X85706D01*
X85673Y25361D01*
X85627Y25365D01*
X85574Y25375D01*
X85512Y25384D01*
X85443Y25401D01*
X85368Y25420D01*
X85289Y25447D01*
X85207Y25480D01*
X85125Y25519D01*
X85043Y25568D01*
X84964Y25627D01*
X84886Y25693D01*
X84813Y25768D01*
X84748Y25857D01*
X84744Y25860D01*
X84738Y25876D01*
X84725Y25899D01*
X84705Y25929D01*
X84685Y25968D01*
X84662Y26014D01*
X84640Y26070D01*
X84617Y26132D01*
X84590Y26201D01*
X84567Y26277D01*
X84544Y26359D01*
X84525Y26447D01*
X84508Y26542D01*
X84495Y26641D01*
X84485Y26746D01*
X84482Y26854D01*
Y26857D01*
Y26864D01*
Y26874D01*
Y26887D01*
Y26903D01*
X84485Y26923D01*
X84489Y26975D01*
X84495Y27038D01*
X84502Y27110D01*
X84515Y27188D01*
X84531Y27274D01*
X84551Y27366D01*
X84577Y27461D01*
X84610Y27556D01*
X84649Y27654D01*
X84692Y27749D01*
X84744Y27844D01*
X84807Y27933D01*
X84876Y28018D01*
X84879Y28025D01*
X84895Y28038D01*
X84915Y28058D01*
X84944Y28087D01*
X84984Y28120D01*
X85030Y28156D01*
X85082Y28195D01*
X85141Y28235D01*
X85204Y28274D01*
X85276Y28313D01*
X85351Y28350D01*
X85433Y28382D01*
X85518Y28412D01*
X85610Y28431D01*
X85702Y28448D01*
X85801Y28451D01*
X85820D01*
X85843Y28448D01*
D02*
G37*
G36*
X75941D02*
X75974Y28445D01*
X76013Y28441D01*
X76059Y28435D01*
X76108Y28428D01*
X76161Y28415D01*
X76216Y28402D01*
X76275Y28389D01*
X76335Y28369D01*
X76397Y28346D01*
X76459Y28320D01*
X76521Y28291D01*
X76584Y28254D01*
X76587Y28251D01*
X76597Y28245D01*
X76617Y28235D01*
X76636Y28218D01*
X76666Y28199D01*
X76695Y28172D01*
X76731Y28143D01*
X76771Y28110D01*
X76810Y28074D01*
X76850Y28031D01*
X76892Y27986D01*
X76932Y27936D01*
X76974Y27880D01*
X77013Y27821D01*
X77050Y27759D01*
X77082Y27694D01*
X77086Y27690D01*
X77089Y27677D01*
X77099Y27657D01*
X77109Y27631D01*
X77122Y27598D01*
X77135Y27556D01*
X77151Y27510D01*
X77168Y27461D01*
X77184Y27402D01*
X77201Y27343D01*
X77214Y27277D01*
X77227Y27208D01*
X77236Y27136D01*
X77246Y27060D01*
X77250Y26982D01*
X77253Y26903D01*
Y26900D01*
Y26897D01*
Y26887D01*
Y26877D01*
X77250Y26844D01*
Y26798D01*
X77243Y26746D01*
X77236Y26683D01*
X77227Y26614D01*
X77214Y26539D01*
X77197Y26460D01*
X77174Y26375D01*
X77151Y26290D01*
X77118Y26201D01*
X77082Y26113D01*
X77040Y26027D01*
X76990Y25945D01*
X76935Y25863D01*
X76932Y25857D01*
X76918Y25840D01*
X76895Y25817D01*
X76866Y25785D01*
X76827Y25745D01*
X76781Y25703D01*
X76725Y25657D01*
X76662Y25611D01*
X76590Y25565D01*
X76512Y25519D01*
X76426Y25476D01*
X76331Y25437D01*
X76230Y25404D01*
X76121Y25381D01*
X76007Y25365D01*
X75885Y25358D01*
X75856D01*
X75823Y25361D01*
X75777Y25365D01*
X75721Y25371D01*
X75659Y25381D01*
X75587Y25398D01*
X75511Y25417D01*
X75432Y25440D01*
X75347Y25470D01*
X75265Y25509D01*
X75180Y25552D01*
X75098Y25604D01*
X75016Y25666D01*
X74941Y25735D01*
X74872Y25817D01*
X74868Y25824D01*
X74855Y25837D01*
X74839Y25863D01*
X74816Y25899D01*
X74790Y25942D01*
X74760Y25995D01*
X74727Y26057D01*
X74695Y26126D01*
X74662Y26201D01*
X74629Y26283D01*
X74599Y26372D01*
X74573Y26463D01*
X74550Y26565D01*
X74534Y26670D01*
X74521Y26778D01*
X74517Y26890D01*
Y26893D01*
Y26897D01*
Y26906D01*
Y26919D01*
X74521Y26952D01*
X74524Y26995D01*
X74527Y27051D01*
X74537Y27113D01*
X74547Y27185D01*
X74563Y27261D01*
X74583Y27346D01*
X74606Y27431D01*
X74635Y27523D01*
X74668Y27615D01*
X74711Y27710D01*
X74760Y27802D01*
X74816Y27894D01*
X74878Y27982D01*
X74882Y27989D01*
X74895Y28002D01*
X74918Y28025D01*
X74944Y28054D01*
X74983Y28090D01*
X75026Y28130D01*
X75078Y28172D01*
X75141Y28218D01*
X75206Y28261D01*
X75282Y28304D01*
X75364Y28343D01*
X75452Y28379D01*
X75547Y28409D01*
X75652Y28431D01*
X75761Y28445D01*
X75875Y28451D01*
X75911D01*
X75941Y28448D01*
D02*
G37*
G36*
X53909Y28448D02*
X53942Y28445D01*
X53981Y28441D01*
X54027Y28435D01*
X54076Y28428D01*
X54129Y28415D01*
X54185Y28402D01*
X54244Y28389D01*
X54303Y28369D01*
X54365Y28346D01*
X54427Y28320D01*
X54490Y28291D01*
X54552Y28254D01*
X54555Y28251D01*
X54565Y28245D01*
X54585Y28235D01*
X54605Y28218D01*
X54634Y28199D01*
X54664Y28172D01*
X54700Y28143D01*
X54739Y28110D01*
X54778Y28074D01*
X54818Y28031D01*
X54860Y27986D01*
X54900Y27936D01*
X54942Y27880D01*
X54982Y27821D01*
X55018Y27759D01*
X55051Y27694D01*
X55054Y27690D01*
X55057Y27677D01*
X55067Y27657D01*
X55077Y27631D01*
X55090Y27598D01*
X55103Y27556D01*
X55120Y27510D01*
X55136Y27461D01*
X55152Y27402D01*
X55169Y27343D01*
X55182Y27277D01*
X55195Y27208D01*
X55205Y27136D01*
X55215Y27060D01*
X55218Y26982D01*
X55221Y26903D01*
Y26900D01*
Y26897D01*
Y26887D01*
Y26877D01*
X55218Y26844D01*
Y26798D01*
X55211Y26746D01*
X55205Y26683D01*
X55195Y26614D01*
X55182Y26539D01*
X55165Y26460D01*
X55142Y26375D01*
X55120Y26290D01*
X55087Y26201D01*
X55051Y26113D01*
X55008Y26027D01*
X54959Y25945D01*
X54903Y25863D01*
X54900Y25857D01*
X54887Y25840D01*
X54864Y25817D01*
X54834Y25785D01*
X54795Y25745D01*
X54749Y25703D01*
X54693Y25657D01*
X54631Y25611D01*
X54559Y25565D01*
X54480Y25519D01*
X54395Y25476D01*
X54299Y25437D01*
X54198Y25404D01*
X54090Y25381D01*
X53975Y25365D01*
X53853Y25358D01*
X53824D01*
X53791Y25361D01*
X53745Y25365D01*
X53689Y25371D01*
X53627Y25381D01*
X53555Y25398D01*
X53479Y25417D01*
X53401Y25440D01*
X53316Y25470D01*
X53233Y25509D01*
X53148Y25552D01*
X53066Y25604D01*
X52984Y25666D01*
X52909Y25735D01*
X52840Y25817D01*
X52837Y25824D01*
X52824Y25837D01*
X52807Y25863D01*
X52784Y25899D01*
X52758Y25942D01*
X52728Y25995D01*
X52696Y26057D01*
X52663Y26126D01*
X52630Y26201D01*
X52597Y26283D01*
X52568Y26372D01*
X52541Y26463D01*
X52518Y26565D01*
X52502Y26670D01*
X52489Y26778D01*
X52486Y26890D01*
Y26893D01*
Y26897D01*
Y26906D01*
Y26919D01*
X52489Y26952D01*
X52492Y26995D01*
X52495Y27051D01*
X52505Y27113D01*
X52515Y27185D01*
X52532Y27261D01*
X52551Y27346D01*
X52574Y27431D01*
X52604Y27523D01*
X52636Y27615D01*
X52679Y27710D01*
X52728Y27802D01*
X52784Y27894D01*
X52846Y27982D01*
X52850Y27989D01*
X52863Y28002D01*
X52886Y28025D01*
X52912Y28054D01*
X52951Y28090D01*
X52994Y28130D01*
X53047Y28172D01*
X53109Y28218D01*
X53175Y28261D01*
X53250Y28304D01*
X53332Y28343D01*
X53421Y28379D01*
X53516Y28409D01*
X53620Y28431D01*
X53729Y28445D01*
X53844Y28451D01*
X53880D01*
X53909Y28448D01*
D02*
G37*
%LPC*%
G36*
X105779Y33964D02*
X105609D01*
Y32966D01*
X105868D01*
X105880Y32967D01*
X105893D01*
X105907Y32968D01*
X105938Y32969D01*
X105968Y32972D01*
X105997Y32976D01*
X106010Y32978D01*
X106021Y32980D01*
X106022D01*
X106024Y32981D01*
X106028Y32982D01*
X106033Y32983D01*
X106039Y32985D01*
X106047Y32989D01*
X106064Y32995D01*
X106084Y33003D01*
X106104Y33014D01*
X106124Y33027D01*
X106144Y33042D01*
X106145Y33043D01*
X106146Y33044D01*
X106148Y33047D01*
X106153Y33051D01*
X106156Y33055D01*
X106161Y33062D01*
X106167Y33068D01*
X106172Y33077D01*
X106179Y33087D01*
X106185Y33098D01*
X106192Y33110D01*
X106198Y33123D01*
X106205Y33137D01*
X106211Y33153D01*
X106218Y33170D01*
X106223Y33188D01*
Y33189D01*
X106225Y33193D01*
X106227Y33199D01*
X106229Y33207D01*
X106231Y33217D01*
X106233Y33230D01*
X106237Y33244D01*
X106240Y33261D01*
X106242Y33280D01*
X106245Y33301D01*
X106247Y33322D01*
X106251Y33347D01*
X106252Y33374D01*
X106254Y33402D01*
X106255Y33432D01*
Y33464D01*
Y33466D01*
Y33472D01*
Y33480D01*
Y33492D01*
X106254Y33508D01*
Y33524D01*
X106253Y33542D01*
X106251Y33563D01*
X106250Y33584D01*
X106247Y33606D01*
X106242Y33650D01*
X106238Y33672D01*
X106234Y33694D01*
X106229Y33714D01*
X106223Y33732D01*
Y33733D01*
X106222Y33737D01*
X106220Y33741D01*
X106218Y33747D01*
X106215Y33755D01*
X106210Y33765D01*
X106202Y33786D01*
X106189Y33810D01*
X106175Y33834D01*
X106157Y33856D01*
X106137Y33878D01*
X106136Y33879D01*
X106135Y33880D01*
X106132Y33884D01*
X106128Y33887D01*
X106122Y33891D01*
X106116Y33896D01*
X106099Y33907D01*
X106079Y33919D01*
X106054Y33931D01*
X106026Y33940D01*
X105996Y33949D01*
X105995D01*
X105992Y33950D01*
X105988D01*
X105983Y33951D01*
X105975Y33952D01*
X105965Y33953D01*
X105954Y33956D01*
X105940Y33957D01*
X105925Y33958D01*
X105906Y33960D01*
X105886Y33961D01*
X105863Y33962D01*
X105838Y33963D01*
X105809D01*
X105779Y33964D01*
D02*
G37*
G36*
X103318Y26877D02*
X103148D01*
Y25879D01*
X103408D01*
X103419Y25880D01*
X103433D01*
X103447Y25881D01*
X103477Y25882D01*
X103508Y25885D01*
X103536Y25888D01*
X103549Y25891D01*
X103560Y25893D01*
X103561D01*
X103563Y25894D01*
X103568Y25895D01*
X103572Y25896D01*
X103579Y25898D01*
X103586Y25902D01*
X103604Y25908D01*
X103623Y25916D01*
X103643Y25927D01*
X103664Y25940D01*
X103683Y25955D01*
X103684Y25956D01*
X103685Y25957D01*
X103688Y25959D01*
X103692Y25964D01*
X103695Y25968D01*
X103701Y25975D01*
X103706Y25981D01*
X103712Y25990D01*
X103718Y26000D01*
X103725Y26011D01*
X103731Y26023D01*
X103738Y26036D01*
X103744Y26050D01*
X103751Y26066D01*
X103757Y26083D01*
X103763Y26101D01*
Y26102D01*
X103764Y26105D01*
X103766Y26112D01*
X103768Y26120D01*
X103770Y26129D01*
X103773Y26142D01*
X103776Y26157D01*
X103779Y26174D01*
X103781Y26193D01*
X103785Y26213D01*
X103787Y26235D01*
X103790Y26260D01*
X103791Y26286D01*
X103793Y26315D01*
X103794Y26345D01*
Y26377D01*
Y26379D01*
Y26384D01*
Y26393D01*
Y26405D01*
X103793Y26421D01*
Y26437D01*
X103792Y26455D01*
X103790Y26476D01*
X103789Y26497D01*
X103787Y26519D01*
X103781Y26563D01*
X103777Y26585D01*
X103774Y26607D01*
X103768Y26627D01*
X103763Y26645D01*
Y26646D01*
X103762Y26649D01*
X103760Y26654D01*
X103757Y26660D01*
X103754Y26668D01*
X103750Y26678D01*
X103741Y26698D01*
X103728Y26722D01*
X103714Y26746D01*
X103696Y26769D01*
X103677Y26791D01*
X103676Y26792D01*
X103674Y26793D01*
X103671Y26796D01*
X103667Y26800D01*
X103661Y26804D01*
X103655Y26809D01*
X103639Y26819D01*
X103618Y26831D01*
X103594Y26843D01*
X103566Y26853D01*
X103535Y26862D01*
X103534D01*
X103532Y26863D01*
X103527D01*
X103522Y26864D01*
X103514Y26865D01*
X103505Y26866D01*
X103494Y26869D01*
X103479Y26869D01*
X103464Y26871D01*
X103446Y26873D01*
X103425Y26874D01*
X103402Y26875D01*
X103377Y26876D01*
X103349D01*
X103318Y26877D01*
D02*
G37*
G36*
X105022Y29239D02*
X104819D01*
Y28810D01*
X105014D01*
X105028Y28811D01*
X105045D01*
X105063Y28812D01*
X105082Y28813D01*
X105122Y28815D01*
X105161Y28820D01*
X105180Y28822D01*
X105197Y28825D01*
X105211Y28828D01*
X105225Y28833D01*
X105226D01*
X105228Y28834D01*
X105230Y28835D01*
X105234Y28837D01*
X105245Y28843D01*
X105259Y28851D01*
X105275Y28861D01*
X105291Y28874D01*
X105306Y28890D01*
X105320Y28907D01*
Y28908D01*
X105322Y28909D01*
X105324Y28912D01*
X105326Y28916D01*
X105331Y28927D01*
X105338Y28941D01*
X105344Y28958D01*
X105350Y28978D01*
X105354Y29001D01*
X105355Y29025D01*
Y29026D01*
Y29028D01*
Y29032D01*
X105354Y29039D01*
Y29045D01*
X105353Y29054D01*
X105349Y29073D01*
X105343Y29094D01*
X105335Y29117D01*
X105323Y29140D01*
X105315Y29151D01*
X105306Y29161D01*
Y29162D01*
X105304Y29163D01*
X105298Y29170D01*
X105288Y29178D01*
X105274Y29190D01*
X105255Y29201D01*
X105234Y29212D01*
X105210Y29222D01*
X105184Y29228D01*
X105182D01*
X105178Y29230D01*
X105173Y29231D01*
X105167D01*
X105158Y29232D01*
X105148Y29233D01*
X105136Y29234D01*
X105122Y29235D01*
X105107Y29236D01*
X105089Y29237D01*
X105069D01*
X105047Y29238D01*
X105022Y29239D01*
D02*
G37*
G36*
X103466D02*
X103296D01*
Y28241D01*
X103556D01*
X103568Y28242D01*
X103581D01*
X103595Y28243D01*
X103626Y28244D01*
X103656Y28247D01*
X103684Y28251D01*
X103697Y28253D01*
X103708Y28255D01*
X103709D01*
X103712Y28256D01*
X103716Y28257D01*
X103720Y28258D01*
X103727Y28261D01*
X103735Y28264D01*
X103752Y28270D01*
X103771Y28278D01*
X103791Y28289D01*
X103812Y28302D01*
X103832Y28317D01*
X103833Y28318D01*
X103834Y28319D01*
X103836Y28322D01*
X103840Y28326D01*
X103843Y28330D01*
X103849Y28337D01*
X103854Y28343D01*
X103860Y28352D01*
X103866Y28362D01*
X103873Y28373D01*
X103879Y28385D01*
X103886Y28398D01*
X103893Y28412D01*
X103899Y28428D01*
X103906Y28445D01*
X103911Y28463D01*
Y28464D01*
X103912Y28468D01*
X103914Y28474D01*
X103917Y28482D01*
X103919Y28492D01*
X103921Y28505D01*
X103924Y28519D01*
X103927Y28536D01*
X103930Y28555D01*
X103933Y28576D01*
X103935Y28597D01*
X103938Y28622D01*
X103939Y28649D01*
X103942Y28677D01*
X103943Y28708D01*
Y28739D01*
Y28741D01*
Y28747D01*
Y28755D01*
Y28767D01*
X103942Y28783D01*
Y28799D01*
X103940Y28817D01*
X103938Y28838D01*
X103937Y28859D01*
X103935Y28881D01*
X103930Y28925D01*
X103925Y28947D01*
X103922Y28969D01*
X103917Y28989D01*
X103911Y29007D01*
Y29008D01*
X103910Y29012D01*
X103908Y29016D01*
X103906Y29022D01*
X103902Y29030D01*
X103898Y29040D01*
X103889Y29061D01*
X103876Y29085D01*
X103862Y29109D01*
X103845Y29131D01*
X103825Y29153D01*
X103824Y29154D01*
X103823Y29155D01*
X103820Y29159D01*
X103815Y29162D01*
X103810Y29166D01*
X103803Y29171D01*
X103787Y29182D01*
X103766Y29194D01*
X103742Y29206D01*
X103714Y29215D01*
X103683Y29224D01*
X103682D01*
X103680Y29225D01*
X103676D01*
X103670Y29226D01*
X103663Y29227D01*
X103653Y29228D01*
X103642Y29231D01*
X103628Y29232D01*
X103612Y29233D01*
X103594Y29235D01*
X103573Y29236D01*
X103550Y29237D01*
X103525Y29238D01*
X103497D01*
X103466Y29239D01*
D02*
G37*
G36*
X67256Y29448D02*
X66924D01*
Y27595D01*
X67173D01*
X67210Y27598D01*
X67249D01*
X67295Y27602D01*
X67344Y27605D01*
X67449Y27615D01*
X67557Y27628D01*
X67659Y27648D01*
X67705Y27661D01*
X67747Y27674D01*
X67751D01*
X67757Y27677D01*
X67767Y27684D01*
X67784Y27690D01*
X67823Y27710D01*
X67872Y27740D01*
X67925Y27779D01*
X67984Y27828D01*
X68039Y27887D01*
X68089Y27959D01*
Y27962D01*
X68095Y27969D01*
X68102Y27982D01*
X68108Y27999D01*
X68118Y28018D01*
X68128Y28045D01*
X68138Y28074D01*
X68151Y28107D01*
X68164Y28143D01*
X68174Y28182D01*
X68184Y28228D01*
X68194Y28277D01*
X68203Y28327D01*
X68207Y28382D01*
X68213Y28500D01*
Y28507D01*
Y28523D01*
Y28546D01*
X68210Y28579D01*
X68207Y28618D01*
X68200Y28668D01*
X68194Y28717D01*
X68184Y28773D01*
X68174Y28828D01*
X68158Y28888D01*
X68141Y28947D01*
X68118Y29006D01*
X68092Y29065D01*
X68062Y29120D01*
X68026Y29169D01*
X67987Y29215D01*
X67984Y29219D01*
X67977Y29225D01*
X67964Y29238D01*
X67944Y29252D01*
X67918Y29268D01*
X67888Y29288D01*
X67852Y29311D01*
X67810Y29334D01*
X67764Y29353D01*
X67708Y29376D01*
X67649Y29396D01*
X67584Y29412D01*
X67511Y29425D01*
X67433Y29438D01*
X67347Y29445D01*
X67256Y29448D01*
D02*
G37*
G36*
X46047Y29445D02*
X45965D01*
X45962Y27772D01*
X46004D01*
X46034Y27775D01*
X46073D01*
X46113Y27779D01*
X46162Y27782D01*
X46211Y27785D01*
X46319Y27795D01*
X46428Y27815D01*
X46480Y27825D01*
X46529Y27838D01*
X46575Y27854D01*
X46618Y27871D01*
X46621D01*
X46628Y27874D01*
X46637Y27880D01*
X46654Y27890D01*
X46690Y27913D01*
X46736Y27943D01*
X46788Y27986D01*
X46841Y28031D01*
X46893Y28090D01*
X46939Y28153D01*
Y28156D01*
X46946Y28163D01*
X46949Y28172D01*
X46959Y28185D01*
X46965Y28202D01*
X46975Y28225D01*
X46985Y28251D01*
X46998Y28277D01*
X47008Y28310D01*
X47018Y28346D01*
X47038Y28425D01*
X47051Y28514D01*
X47054Y28615D01*
Y28618D01*
Y28628D01*
Y28642D01*
Y28661D01*
X47051Y28687D01*
X47047Y28714D01*
X47041Y28779D01*
X47028Y28851D01*
X47008Y28930D01*
X46979Y29006D01*
X46942Y29078D01*
Y29081D01*
X46936Y29084D01*
X46929Y29094D01*
X46923Y29107D01*
X46896Y29140D01*
X46860Y29179D01*
X46815Y29222D01*
X46762Y29268D01*
X46696Y29311D01*
X46624Y29350D01*
X46621D01*
X46614Y29353D01*
X46601Y29360D01*
X46585Y29366D01*
X46562Y29373D01*
X46536Y29379D01*
X46503Y29389D01*
X46467Y29399D01*
X46424Y29406D01*
X46375Y29416D01*
X46319Y29422D01*
X46260Y29432D01*
X46195Y29435D01*
X46126Y29442D01*
X46047Y29445D01*
D02*
G37*
G36*
X46050Y27529D02*
X45962D01*
Y26168D01*
Y26014D01*
Y26011D01*
Y26008D01*
Y25988D01*
X45965Y25958D01*
X45972Y25919D01*
X45981Y25880D01*
X45998Y25837D01*
X46018Y25798D01*
X46044Y25762D01*
X46047Y25758D01*
X46060Y25749D01*
X46080Y25735D01*
X46106Y25719D01*
X46142Y25703D01*
X46185Y25690D01*
X46234Y25680D01*
X46293Y25676D01*
X46316D01*
X46336Y25680D01*
X46355D01*
X46382Y25683D01*
X46441Y25690D01*
X46510Y25703D01*
X46585Y25722D01*
X46664Y25749D01*
X46742Y25785D01*
X46746D01*
X46752Y25791D01*
X46762Y25798D01*
X46775Y25804D01*
X46815Y25831D01*
X46860Y25867D01*
X46910Y25912D01*
X46962Y25968D01*
X47011Y26031D01*
X47057Y26106D01*
Y26109D01*
X47060Y26116D01*
X47067Y26126D01*
X47074Y26142D01*
X47084Y26162D01*
X47093Y26185D01*
X47103Y26214D01*
X47113Y26244D01*
X47133Y26313D01*
X47152Y26391D01*
X47166Y26480D01*
X47169Y26575D01*
Y26578D01*
Y26588D01*
Y26605D01*
X47166Y26624D01*
Y26651D01*
X47162Y26683D01*
X47159Y26716D01*
X47152Y26752D01*
X47139Y26838D01*
X47116Y26926D01*
X47087Y27018D01*
X47044Y27106D01*
Y27110D01*
X47038Y27116D01*
X47031Y27129D01*
X47021Y27146D01*
X47008Y27165D01*
X46992Y27185D01*
X46952Y27238D01*
X46903Y27290D01*
X46841Y27346D01*
X46765Y27395D01*
X46723Y27415D01*
X46680Y27434D01*
X46677D01*
X46670Y27438D01*
X46654Y27444D01*
X46634Y27451D01*
X46611Y27457D01*
X46578Y27464D01*
X46542Y27474D01*
X46500Y27484D01*
X46454Y27490D01*
X46398Y27500D01*
X46342Y27507D01*
X46277Y27516D01*
X46205Y27520D01*
X46129Y27526D01*
X46050Y27529D01*
D02*
G37*
G36*
X93568Y28248D02*
X93561D01*
X93541Y28245D01*
X93512Y28238D01*
X93472Y28228D01*
X93430Y28209D01*
X93387Y28179D01*
X93364Y28163D01*
X93341Y28140D01*
X93322Y28117D01*
X93302Y28087D01*
X93299Y28084D01*
X93295Y28074D01*
X93286Y28058D01*
X93273Y28035D01*
X93259Y28008D01*
X93243Y27972D01*
X93226Y27933D01*
X93210Y27887D01*
X93194Y27835D01*
X93177Y27779D01*
X93161Y27716D01*
X93148Y27648D01*
X93135Y27575D01*
X93125Y27497D01*
X93122Y27415D01*
X93118Y27326D01*
Y27218D01*
X93968D01*
Y27224D01*
Y27241D01*
Y27267D01*
Y27300D01*
Y27339D01*
X93964Y27385D01*
Y27438D01*
X93961Y27494D01*
X93955Y27608D01*
X93945Y27720D01*
X93938Y27772D01*
X93932Y27825D01*
X93922Y27867D01*
X93912Y27907D01*
Y27910D01*
X93909Y27917D01*
X93906Y27923D01*
X93902Y27936D01*
X93889Y27972D01*
X93869Y28012D01*
X93846Y28058D01*
X93817Y28104D01*
X93781Y28150D01*
X93742Y28189D01*
X93738Y28192D01*
X93728Y28199D01*
X93715Y28209D01*
X93696Y28218D01*
X93669Y28228D01*
X93640Y28238D01*
X93607Y28245D01*
X93568Y28248D01*
D02*
G37*
G36*
X85758D02*
X85751D01*
X85732Y28245D01*
X85702Y28238D01*
X85663Y28228D01*
X85620Y28209D01*
X85578Y28179D01*
X85555Y28163D01*
X85532Y28140D01*
X85512Y28117D01*
X85492Y28087D01*
X85489Y28084D01*
X85486Y28074D01*
X85476Y28058D01*
X85463Y28035D01*
X85450Y28008D01*
X85433Y27972D01*
X85417Y27933D01*
X85400Y27887D01*
X85384Y27835D01*
X85368Y27779D01*
X85351Y27716D01*
X85338Y27648D01*
X85325Y27575D01*
X85315Y27497D01*
X85312Y27415D01*
X85309Y27326D01*
Y27218D01*
X86158D01*
Y27224D01*
Y27241D01*
Y27267D01*
Y27300D01*
Y27339D01*
X86155Y27385D01*
Y27438D01*
X86152Y27494D01*
X86145Y27608D01*
X86135Y27720D01*
X86129Y27772D01*
X86122Y27825D01*
X86112Y27867D01*
X86102Y27907D01*
Y27910D01*
X86099Y27917D01*
X86096Y27923D01*
X86093Y27936D01*
X86079Y27972D01*
X86060Y28012D01*
X86037Y28058D01*
X86007Y28104D01*
X85971Y28150D01*
X85932Y28189D01*
X85928Y28192D01*
X85919Y28199D01*
X85906Y28209D01*
X85886Y28218D01*
X85860Y28228D01*
X85830Y28238D01*
X85797Y28245D01*
X85758Y28248D01*
D02*
G37*
G36*
X75889Y28228D02*
X75882D01*
X75862Y28225D01*
X75833Y28222D01*
X75797Y28212D01*
X75754Y28199D01*
X75708Y28176D01*
X75662Y28146D01*
X75616Y28107D01*
X75613Y28100D01*
X75606Y28094D01*
X75596Y28084D01*
X75590Y28067D01*
X75577Y28051D01*
X75567Y28028D01*
X75554Y28002D01*
X75541Y27972D01*
X75528Y27936D01*
X75518Y27900D01*
X75505Y27854D01*
X75492Y27808D01*
X75482Y27753D01*
X75472Y27694D01*
X75465Y27631D01*
Y27628D01*
Y27615D01*
X75462Y27595D01*
X75459Y27566D01*
Y27530D01*
X75455Y27487D01*
X75452Y27434D01*
X75449Y27375D01*
X75446Y27310D01*
X75442Y27238D01*
X75439Y27156D01*
Y27067D01*
X75436Y26972D01*
X75432Y26870D01*
Y26762D01*
Y26647D01*
Y26644D01*
Y26634D01*
Y26614D01*
Y26592D01*
Y26562D01*
X75436Y26526D01*
Y26487D01*
X75439Y26444D01*
Y26398D01*
X75442Y26349D01*
X75452Y26244D01*
X75462Y26136D01*
X75475Y26024D01*
Y26021D01*
X75478Y26014D01*
Y26004D01*
X75482Y25988D01*
X75492Y25949D01*
X75505Y25899D01*
X75524Y25847D01*
X75551Y25791D01*
X75580Y25735D01*
X75620Y25690D01*
X75626Y25686D01*
X75639Y25673D01*
X75662Y25653D01*
X75695Y25634D01*
X75734Y25611D01*
X75777Y25594D01*
X75826Y25581D01*
X75879Y25575D01*
X75902D01*
X75928Y25578D01*
X75961Y25585D01*
X75997Y25594D01*
X76036Y25607D01*
X76075Y25624D01*
X76112Y25650D01*
X76118Y25657D01*
X76131Y25670D01*
X76151Y25696D01*
X76177Y25729D01*
X76203Y25771D01*
X76230Y25821D01*
X76253Y25880D01*
X76272Y25949D01*
Y25952D01*
X76275Y25962D01*
X76279Y25981D01*
X76282Y26008D01*
X76289Y26044D01*
X76292Y26090D01*
X76298Y26145D01*
X76305Y26208D01*
X76312Y26283D01*
X76318Y26372D01*
X76321Y26470D01*
X76328Y26578D01*
X76331Y26700D01*
X76335Y26765D01*
Y26834D01*
X76338Y26906D01*
Y26985D01*
Y27064D01*
Y27146D01*
Y27152D01*
Y27169D01*
Y27195D01*
Y27231D01*
X76335Y27274D01*
Y27323D01*
X76331Y27379D01*
Y27434D01*
X76321Y27556D01*
X76312Y27674D01*
X76305Y27730D01*
X76295Y27782D01*
X76285Y27831D01*
X76275Y27871D01*
Y27874D01*
X76272Y27880D01*
X76269Y27890D01*
X76266Y27904D01*
X76249Y27940D01*
X76233Y27982D01*
X76207Y28031D01*
X76177Y28077D01*
X76141Y28123D01*
X76102Y28163D01*
X76098Y28166D01*
X76089Y28172D01*
X76069Y28182D01*
X76046Y28195D01*
X76013Y28209D01*
X75977Y28218D01*
X75934Y28225D01*
X75889Y28228D01*
D02*
G37*
G36*
X53857Y28228D02*
X53850D01*
X53830Y28225D01*
X53801Y28222D01*
X53765Y28212D01*
X53722Y28199D01*
X53676Y28176D01*
X53630Y28146D01*
X53584Y28107D01*
X53581Y28100D01*
X53575Y28094D01*
X53565Y28084D01*
X53558Y28067D01*
X53545Y28051D01*
X53535Y28028D01*
X53522Y28002D01*
X53509Y27972D01*
X53496Y27936D01*
X53486Y27900D01*
X53473Y27854D01*
X53460Y27808D01*
X53450Y27753D01*
X53440Y27694D01*
X53434Y27631D01*
Y27628D01*
Y27615D01*
X53430Y27595D01*
X53427Y27566D01*
Y27529D01*
X53424Y27487D01*
X53421Y27434D01*
X53417Y27375D01*
X53414Y27310D01*
X53411Y27238D01*
X53407Y27156D01*
Y27067D01*
X53404Y26972D01*
X53401Y26870D01*
Y26762D01*
Y26647D01*
Y26644D01*
Y26634D01*
Y26614D01*
Y26592D01*
Y26562D01*
X53404Y26526D01*
Y26487D01*
X53407Y26444D01*
Y26398D01*
X53411Y26349D01*
X53421Y26244D01*
X53430Y26136D01*
X53443Y26024D01*
Y26021D01*
X53447Y26014D01*
Y26004D01*
X53450Y25988D01*
X53460Y25949D01*
X53473Y25899D01*
X53493Y25847D01*
X53519Y25791D01*
X53548Y25735D01*
X53588Y25690D01*
X53594Y25686D01*
X53607Y25673D01*
X53630Y25653D01*
X53663Y25634D01*
X53702Y25611D01*
X53745Y25594D01*
X53794Y25581D01*
X53847Y25575D01*
X53870D01*
X53896Y25578D01*
X53929Y25585D01*
X53965Y25594D01*
X54004Y25607D01*
X54044Y25624D01*
X54080Y25650D01*
X54086Y25657D01*
X54099Y25670D01*
X54119Y25696D01*
X54145Y25729D01*
X54172Y25771D01*
X54198Y25821D01*
X54221Y25880D01*
X54240Y25949D01*
Y25952D01*
X54244Y25962D01*
X54247Y25981D01*
X54250Y26008D01*
X54257Y26044D01*
X54260Y26090D01*
X54267Y26145D01*
X54273Y26208D01*
X54280Y26283D01*
X54286Y26372D01*
X54290Y26470D01*
X54296Y26578D01*
X54299Y26700D01*
X54303Y26765D01*
Y26834D01*
X54306Y26906D01*
Y26985D01*
Y27064D01*
Y27146D01*
Y27152D01*
Y27169D01*
Y27195D01*
Y27231D01*
X54303Y27274D01*
Y27323D01*
X54299Y27379D01*
Y27434D01*
X54290Y27556D01*
X54280Y27674D01*
X54273Y27730D01*
X54263Y27782D01*
X54254Y27831D01*
X54244Y27871D01*
Y27874D01*
X54240Y27880D01*
X54237Y27890D01*
X54234Y27904D01*
X54217Y27940D01*
X54201Y27982D01*
X54175Y28031D01*
X54145Y28077D01*
X54109Y28123D01*
X54070Y28163D01*
X54067Y28166D01*
X54057Y28172D01*
X54037Y28182D01*
X54014Y28195D01*
X53981Y28209D01*
X53945Y28218D01*
X53903Y28225D01*
X53857Y28228D01*
D02*
G37*
%LPD*%
D10*
X25590Y12616D02*
Y12831D01*
Y9825D02*
Y12616D01*
Y42288D02*
Y45276D01*
X-0D02*
X25590D01*
X-0Y10039D02*
Y45276D01*
Y9843D02*
Y10039D01*
Y9843D02*
X25590D01*
X22233Y15416D02*
X23972D01*
X22233D02*
Y22306D01*
X23972D01*
X22224Y39026D02*
X23966D01*
X22224Y32136D02*
Y39026D01*
Y32136D02*
X23972D01*
D11*
X116929Y20154D02*
Y35181D01*
X108498Y16654D02*
Y19904D01*
Y16654D02*
X111998D01*
X108498Y38531D02*
X111998D01*
X108498Y35531D02*
Y38531D01*
M02*
