G04*
G04 #@! TF.GenerationSoftware,Altium Limited,Altium Designer,24.8.2 (39)*
G04*
G04 Layer_Color=128*
%FSLAX25Y25*%
%MOIN*%
G70*
G04*
G04 #@! TF.SameCoordinates,C8608415-0D93-4E33-BC52-9C0F9C252278*
G04*
G04*
G04 #@! TF.FilePolarity,Positive*
G04*
G01*
G75*
G36*
X114270Y18701D02*
X114460Y18663D01*
X114639Y18589D01*
X114801Y18481D01*
X114938Y18344D01*
X115045Y18183D01*
X115120Y18004D01*
X115157Y17813D01*
Y17717D01*
Y17620D01*
X115120Y17429D01*
X115045Y17250D01*
X114938Y17089D01*
X114801Y16952D01*
X114639Y16844D01*
X114460Y16770D01*
X114270Y16732D01*
X114076D01*
X113886Y16770D01*
X113707Y16844D01*
X113546Y16952D01*
X113409Y17089D01*
X113301Y17250D01*
X113227Y17429D01*
X113189Y17620D01*
Y17717D01*
X113189Y17813D01*
X113227Y18004D01*
X113301Y18183D01*
X113409Y18344D01*
X113546Y18481D01*
X113707Y18589D01*
X113886Y18663D01*
X114076Y18701D01*
X114173D01*
X114270Y18701D01*
D02*
G37*
G36*
Y22638D02*
X114460Y22600D01*
X114639Y22526D01*
X114801Y22418D01*
X114938Y22281D01*
X115045Y22120D01*
X115120Y21941D01*
X115157Y21750D01*
Y21654D01*
Y21557D01*
X115120Y21366D01*
X115045Y21187D01*
X114938Y21026D01*
X114801Y20889D01*
X114639Y20781D01*
X114460Y20707D01*
X114270Y20669D01*
X114076D01*
X113886Y20707D01*
X113707Y20781D01*
X113546Y20889D01*
X113409Y21026D01*
X113301Y21187D01*
X113227Y21366D01*
X113189Y21557D01*
Y21654D01*
X113189Y21750D01*
X113227Y21941D01*
X113301Y22120D01*
X113409Y22281D01*
X113546Y22418D01*
X113707Y22526D01*
X113886Y22600D01*
X114076Y22638D01*
X114173D01*
X114270Y22638D01*
D02*
G37*
G36*
Y26575D02*
X114460Y26537D01*
X114639Y26463D01*
X114801Y26355D01*
X114938Y26218D01*
X115045Y26057D01*
X115120Y25878D01*
X115157Y25688D01*
Y25591D01*
Y25494D01*
X115120Y25304D01*
X115045Y25124D01*
X114938Y24963D01*
X114801Y24826D01*
X114639Y24718D01*
X114460Y24644D01*
X114270Y24606D01*
X114076D01*
X113886Y24644D01*
X113707Y24718D01*
X113546Y24826D01*
X113409Y24963D01*
X113301Y25124D01*
X113227Y25304D01*
X113189Y25494D01*
Y25591D01*
X113189Y25688D01*
X113227Y25878D01*
X113301Y26057D01*
X113409Y26218D01*
X113546Y26355D01*
X113707Y26463D01*
X113886Y26537D01*
X114076Y26575D01*
X114173D01*
X114270Y26575D01*
D02*
G37*
G36*
Y30512D02*
X114460Y30474D01*
X114639Y30400D01*
X114801Y30292D01*
X114938Y30155D01*
X115045Y29994D01*
X115120Y29815D01*
X115157Y29625D01*
Y29528D01*
Y29431D01*
X115120Y29241D01*
X115045Y29061D01*
X114938Y28900D01*
X114801Y28763D01*
X114639Y28655D01*
X114460Y28581D01*
X114270Y28543D01*
X114076D01*
X113886Y28581D01*
X113707Y28655D01*
X113546Y28763D01*
X113409Y28900D01*
X113301Y29061D01*
X113227Y29241D01*
X113189Y29431D01*
Y29528D01*
X113189Y29625D01*
X113227Y29815D01*
X113301Y29994D01*
X113409Y30155D01*
X113546Y30292D01*
X113707Y30400D01*
X113886Y30474D01*
X114076Y30512D01*
X114173D01*
X114270Y30512D01*
D02*
G37*
G36*
Y34449D02*
X114460Y34411D01*
X114639Y34337D01*
X114801Y34229D01*
X114938Y34092D01*
X115045Y33931D01*
X115120Y33752D01*
X115157Y33562D01*
Y33465D01*
Y33368D01*
X115120Y33178D01*
X115045Y32998D01*
X114938Y32837D01*
X114801Y32700D01*
X114639Y32592D01*
X114460Y32518D01*
X114270Y32480D01*
X114076D01*
X113886Y32518D01*
X113707Y32592D01*
X113546Y32700D01*
X113409Y32837D01*
X113301Y32998D01*
X113227Y33178D01*
X113189Y33368D01*
Y33465D01*
X113189Y33562D01*
X113227Y33752D01*
X113301Y33931D01*
X113409Y34092D01*
X113546Y34229D01*
X113707Y34337D01*
X113886Y34411D01*
X114076Y34449D01*
X114173D01*
X114270Y34449D01*
D02*
G37*
G36*
Y38386D02*
X114460Y38348D01*
X114639Y38274D01*
X114801Y38166D01*
X114938Y38029D01*
X115045Y37868D01*
X115120Y37689D01*
X115157Y37499D01*
Y37402D01*
Y37305D01*
X115120Y37115D01*
X115045Y36935D01*
X114938Y36774D01*
X114801Y36637D01*
X114639Y36529D01*
X114460Y36455D01*
X114270Y36417D01*
X114076D01*
X113886Y36455D01*
X113707Y36529D01*
X113546Y36637D01*
X113409Y36774D01*
X113301Y36935D01*
X113227Y37115D01*
X113189Y37305D01*
Y37402D01*
X113189Y37499D01*
X113227Y37689D01*
X113301Y37868D01*
X113409Y38029D01*
X113546Y38166D01*
X113707Y38274D01*
X113886Y38348D01*
X114076Y38386D01*
X114173D01*
X114270Y38386D01*
D02*
G37*
M02*
