G04*
G04 #@! TF.GenerationSoftware,Altium Limited,Altium Designer,24.8.2 (39)*
G04*
G04 Layer_Color=32896*
%FSLAX25Y25*%
%MOIN*%
G70*
G04*
G04 #@! TF.SameCoordinates,C8608415-0D93-4E33-BC52-9C0F9C252278*
G04*
G04*
G04 #@! TF.FilePolarity,Positive*
G04*
G01*
G75*
%ADD26C,0.00787*%
G36*
X91623Y29770D02*
X91721Y29757D01*
X91813Y29740D01*
X91901Y29717D01*
X91987Y29691D01*
X92062Y29662D01*
X92134Y29629D01*
X92197Y29596D01*
X92256Y29560D01*
X92308Y29530D01*
X92351Y29498D01*
X92387Y29471D01*
X92416Y29448D01*
X92439Y29432D01*
X92452Y29419D01*
X92456Y29416D01*
X92521Y29347D01*
X92577Y29278D01*
X92626Y29206D01*
X92669Y29133D01*
X92705Y29058D01*
X92734Y28989D01*
X92761Y28920D01*
X92780Y28855D01*
X92797Y28792D01*
X92807Y28733D01*
X92817Y28684D01*
X92820Y28642D01*
X92823Y28605D01*
X92826Y28579D01*
Y28563D01*
Y28556D01*
X92820Y28448D01*
X92807Y28346D01*
X92784Y28254D01*
X92771Y28212D01*
X92757Y28172D01*
X92748Y28136D01*
X92734Y28107D01*
X92721Y28077D01*
X92712Y28054D01*
X92705Y28038D01*
X92699Y28021D01*
X92692Y28015D01*
Y28012D01*
X92636Y27923D01*
X92574Y27838D01*
X92511Y27762D01*
X92449Y27697D01*
X92420Y27667D01*
X92390Y27641D01*
X92367Y27618D01*
X92348Y27602D01*
X92328Y27585D01*
X92315Y27575D01*
X92308Y27569D01*
X92305Y27566D01*
X92252Y27526D01*
X92197Y27487D01*
X92134Y27448D01*
X92069Y27405D01*
X91931Y27326D01*
X91793Y27251D01*
X91728Y27215D01*
X91668Y27182D01*
X91613Y27156D01*
X91567Y27129D01*
X91527Y27110D01*
X91498Y27097D01*
X91478Y27087D01*
X91472Y27084D01*
X91396Y27047D01*
X91327Y27011D01*
X91265Y26978D01*
X91206Y26946D01*
X91154Y26916D01*
X91108Y26890D01*
X91065Y26864D01*
X91029Y26841D01*
X90996Y26821D01*
X90967Y26805D01*
X90944Y26788D01*
X90927Y26775D01*
X90911Y26765D01*
X90901Y26759D01*
X90898Y26752D01*
X90894D01*
X90835Y26706D01*
X90786Y26657D01*
X90747Y26614D01*
X90711Y26572D01*
X90684Y26539D01*
X90665Y26509D01*
X90655Y26493D01*
X90652Y26490D01*
Y26487D01*
X90626Y26434D01*
X90606Y26381D01*
X90589Y26332D01*
X90580Y26290D01*
X90573Y26254D01*
X90570Y26224D01*
Y26204D01*
Y26201D01*
Y26198D01*
X90573Y26152D01*
X90580Y26106D01*
X90589Y26063D01*
X90602Y26021D01*
X90635Y25945D01*
X90675Y25883D01*
X90694Y25853D01*
X90714Y25827D01*
X90730Y25807D01*
X90747Y25788D01*
X90760Y25775D01*
X90770Y25765D01*
X90776Y25758D01*
X90780Y25755D01*
X90819Y25722D01*
X90862Y25693D01*
X90908Y25666D01*
X90953Y25647D01*
X90999Y25627D01*
X91045Y25611D01*
X91137Y25588D01*
X91176Y25581D01*
X91216Y25575D01*
X91249Y25571D01*
X91278Y25568D01*
X91304Y25565D01*
X91337D01*
X91422Y25568D01*
X91505Y25581D01*
X91583Y25598D01*
X91662Y25621D01*
X91737Y25647D01*
X91806Y25676D01*
X91872Y25709D01*
X91934Y25742D01*
X91990Y25775D01*
X92039Y25804D01*
X92082Y25834D01*
X92118Y25860D01*
X92147Y25883D01*
X92170Y25899D01*
X92184Y25912D01*
X92187Y25916D01*
X92256Y25985D01*
X92321Y26063D01*
X92380Y26142D01*
X92433Y26227D01*
X92482Y26313D01*
X92525Y26398D01*
X92564Y26483D01*
X92597Y26565D01*
X92626Y26641D01*
X92649Y26713D01*
X92672Y26778D01*
X92689Y26834D01*
X92699Y26880D01*
X92708Y26916D01*
X92712Y26929D01*
Y26939D01*
X92715Y26942D01*
Y26946D01*
X92830D01*
Y25345D01*
X92715D01*
X92692Y25391D01*
X92669Y25430D01*
X92646Y25463D01*
X92623Y25489D01*
X92600Y25509D01*
X92584Y25522D01*
X92574Y25532D01*
X92571Y25535D01*
X92538Y25558D01*
X92505Y25575D01*
X92475Y25585D01*
X92449Y25594D01*
X92426Y25598D01*
X92410Y25601D01*
X92397D01*
X92357Y25598D01*
X92318Y25591D01*
X92275Y25581D01*
X92239Y25568D01*
X92203Y25555D01*
X92177Y25545D01*
X92157Y25539D01*
X92151Y25535D01*
X92056Y25499D01*
X91967Y25466D01*
X91892Y25440D01*
X91826Y25420D01*
X91800Y25414D01*
X91773Y25407D01*
X91754Y25401D01*
X91737Y25394D01*
X91721Y25391D01*
X91711D01*
X91708Y25388D01*
X91705D01*
X91636Y25375D01*
X91570Y25365D01*
X91505Y25355D01*
X91445Y25352D01*
X91396Y25348D01*
X91377Y25345D01*
X91324D01*
X91206Y25348D01*
X91094Y25361D01*
X90990Y25381D01*
X90891Y25404D01*
X90796Y25434D01*
X90711Y25466D01*
X90629Y25499D01*
X90557Y25535D01*
X90494Y25571D01*
X90435Y25604D01*
X90386Y25637D01*
X90347Y25666D01*
X90314Y25690D01*
X90291Y25709D01*
X90275Y25722D01*
X90271Y25725D01*
X90199Y25798D01*
X90134Y25876D01*
X90078Y25952D01*
X90032Y26031D01*
X89989Y26109D01*
X89956Y26185D01*
X89930Y26257D01*
X89907Y26326D01*
X89891Y26391D01*
X89878Y26454D01*
X89868Y26506D01*
X89861Y26552D01*
X89858Y26588D01*
X89855Y26618D01*
Y26634D01*
Y26641D01*
X89858Y26716D01*
X89864Y26792D01*
X89878Y26864D01*
X89894Y26933D01*
X89914Y26998D01*
X89937Y27057D01*
X89960Y27116D01*
X89983Y27169D01*
X90006Y27215D01*
X90029Y27257D01*
X90052Y27293D01*
X90071Y27326D01*
X90088Y27349D01*
X90101Y27369D01*
X90107Y27379D01*
X90110Y27382D01*
X90163Y27444D01*
X90229Y27503D01*
X90301Y27566D01*
X90376Y27628D01*
X90458Y27687D01*
X90544Y27743D01*
X90629Y27799D01*
X90711Y27848D01*
X90793Y27897D01*
X90868Y27940D01*
X90937Y27976D01*
X90996Y28008D01*
X91045Y28035D01*
X91068Y28045D01*
X91085Y28054D01*
X91098Y28061D01*
X91108Y28067D01*
X91114Y28071D01*
X91118D01*
X91213Y28117D01*
X91301Y28163D01*
X91380Y28202D01*
X91449Y28238D01*
X91511Y28271D01*
X91567Y28304D01*
X91616Y28330D01*
X91659Y28353D01*
X91691Y28372D01*
X91721Y28392D01*
X91747Y28405D01*
X91767Y28418D01*
X91780Y28428D01*
X91790Y28435D01*
X91793Y28438D01*
X91796D01*
X91869Y28491D01*
X91928Y28543D01*
X91977Y28592D01*
X92019Y28635D01*
X92049Y28674D01*
X92072Y28701D01*
X92085Y28720D01*
X92088Y28727D01*
X92111Y28769D01*
X92128Y28812D01*
X92138Y28855D01*
X92144Y28891D01*
X92151Y28927D01*
X92154Y28953D01*
Y28969D01*
Y28976D01*
X92151Y29019D01*
X92147Y29058D01*
X92124Y29130D01*
X92095Y29199D01*
X92062Y29258D01*
X92029Y29304D01*
X92013Y29324D01*
X92000Y29340D01*
X91987Y29353D01*
X91977Y29363D01*
X91974Y29366D01*
X91970Y29370D01*
X91934Y29399D01*
X91895Y29425D01*
X91852Y29448D01*
X91813Y29468D01*
X91728Y29498D01*
X91646Y29520D01*
X91610Y29527D01*
X91573Y29530D01*
X91541Y29534D01*
X91514Y29537D01*
X91491Y29540D01*
X91462D01*
X91386Y29537D01*
X91311Y29527D01*
X91239Y29511D01*
X91167Y29491D01*
X91101Y29465D01*
X91039Y29438D01*
X90976Y29409D01*
X90924Y29379D01*
X90872Y29347D01*
X90829Y29317D01*
X90790Y29291D01*
X90757Y29268D01*
X90730Y29245D01*
X90711Y29229D01*
X90698Y29219D01*
X90694Y29215D01*
X90629Y29153D01*
X90573Y29084D01*
X90521Y29015D01*
X90475Y28947D01*
X90432Y28874D01*
X90396Y28802D01*
X90363Y28733D01*
X90337Y28668D01*
X90311Y28605D01*
X90294Y28546D01*
X90278Y28494D01*
X90265Y28451D01*
X90255Y28415D01*
X90248Y28386D01*
X90245Y28369D01*
Y28363D01*
X90117D01*
X90150Y29773D01*
X90245D01*
X90252Y29737D01*
X90261Y29708D01*
X90278Y29655D01*
X90294Y29612D01*
X90307Y29579D01*
X90320Y29557D01*
X90327Y29540D01*
X90334Y29534D01*
X90337Y29530D01*
X90356Y29514D01*
X90376Y29501D01*
X90396Y29494D01*
X90416Y29488D01*
X90435Y29484D01*
X90448Y29481D01*
X90461D01*
X90498Y29484D01*
X90544Y29498D01*
X90593Y29514D01*
X90642Y29534D01*
X90688Y29550D01*
X90724Y29566D01*
X90740Y29573D01*
X90750Y29579D01*
X90757Y29583D01*
X90760D01*
X90835Y29619D01*
X90904Y29648D01*
X90967Y29671D01*
X91016Y29691D01*
X91058Y29704D01*
X91091Y29714D01*
X91111Y29717D01*
X91114Y29721D01*
X91118D01*
X91190Y29737D01*
X91262Y29750D01*
X91327Y29760D01*
X91390Y29766D01*
X91442Y29770D01*
X91465Y29773D01*
X91518D01*
X91623Y29770D01*
D02*
G37*
G36*
X70654D02*
X70752Y29757D01*
X70844Y29740D01*
X70932Y29717D01*
X71018Y29691D01*
X71093Y29662D01*
X71165Y29629D01*
X71228Y29596D01*
X71287Y29560D01*
X71339Y29530D01*
X71382Y29498D01*
X71418Y29471D01*
X71447Y29448D01*
X71470Y29432D01*
X71483Y29419D01*
X71487Y29416D01*
X71552Y29347D01*
X71608Y29278D01*
X71657Y29206D01*
X71700Y29133D01*
X71736Y29058D01*
X71766Y28989D01*
X71792Y28920D01*
X71811Y28855D01*
X71828Y28792D01*
X71838Y28733D01*
X71847Y28684D01*
X71851Y28642D01*
X71854Y28605D01*
X71857Y28579D01*
Y28563D01*
Y28556D01*
X71851Y28448D01*
X71838Y28346D01*
X71815Y28254D01*
X71802Y28212D01*
X71789Y28172D01*
X71779Y28136D01*
X71766Y28107D01*
X71752Y28077D01*
X71742Y28054D01*
X71736Y28038D01*
X71729Y28021D01*
X71723Y28015D01*
Y28012D01*
X71667Y27923D01*
X71605Y27838D01*
X71542Y27762D01*
X71480Y27697D01*
X71451Y27667D01*
X71421Y27641D01*
X71398Y27618D01*
X71378Y27602D01*
X71359Y27585D01*
X71346Y27575D01*
X71339Y27569D01*
X71336Y27566D01*
X71283Y27526D01*
X71228Y27487D01*
X71165Y27448D01*
X71100Y27405D01*
X70962Y27326D01*
X70824Y27251D01*
X70758Y27215D01*
X70700Y27182D01*
X70644Y27156D01*
X70598Y27129D01*
X70559Y27110D01*
X70529Y27097D01*
X70509Y27087D01*
X70503Y27084D01*
X70427Y27047D01*
X70358Y27011D01*
X70296Y26978D01*
X70237Y26946D01*
X70184Y26916D01*
X70139Y26890D01*
X70096Y26864D01*
X70060Y26841D01*
X70027Y26821D01*
X69998Y26805D01*
X69975Y26788D01*
X69958Y26775D01*
X69942Y26765D01*
X69932Y26759D01*
X69929Y26752D01*
X69925D01*
X69866Y26706D01*
X69817Y26657D01*
X69778Y26614D01*
X69742Y26572D01*
X69715Y26539D01*
X69696Y26509D01*
X69686Y26493D01*
X69683Y26490D01*
Y26487D01*
X69656Y26434D01*
X69637Y26381D01*
X69620Y26332D01*
X69611Y26290D01*
X69604Y26254D01*
X69601Y26224D01*
Y26204D01*
Y26201D01*
Y26198D01*
X69604Y26152D01*
X69611Y26106D01*
X69620Y26063D01*
X69634Y26021D01*
X69666Y25945D01*
X69706Y25883D01*
X69725Y25853D01*
X69745Y25827D01*
X69761Y25807D01*
X69778Y25788D01*
X69791Y25775D01*
X69801Y25765D01*
X69807Y25758D01*
X69811Y25755D01*
X69850Y25722D01*
X69893Y25693D01*
X69938Y25666D01*
X69985Y25647D01*
X70030Y25627D01*
X70076Y25611D01*
X70168Y25588D01*
X70208Y25581D01*
X70247Y25575D01*
X70280Y25571D01*
X70309Y25568D01*
X70335Y25565D01*
X70368D01*
X70454Y25568D01*
X70535Y25581D01*
X70614Y25598D01*
X70693Y25621D01*
X70768Y25647D01*
X70837Y25676D01*
X70903Y25709D01*
X70965Y25742D01*
X71021Y25775D01*
X71070Y25804D01*
X71113Y25834D01*
X71149Y25860D01*
X71178Y25883D01*
X71201Y25899D01*
X71214Y25912D01*
X71218Y25916D01*
X71287Y25985D01*
X71352Y26063D01*
X71411Y26142D01*
X71464Y26227D01*
X71513Y26313D01*
X71556Y26398D01*
X71595Y26483D01*
X71628Y26565D01*
X71657Y26641D01*
X71680Y26713D01*
X71703Y26778D01*
X71720Y26834D01*
X71729Y26880D01*
X71739Y26916D01*
X71742Y26929D01*
Y26939D01*
X71746Y26942D01*
Y26946D01*
X71861D01*
Y25345D01*
X71746D01*
X71723Y25391D01*
X71700Y25430D01*
X71677Y25463D01*
X71654Y25489D01*
X71631Y25509D01*
X71615Y25522D01*
X71605Y25532D01*
X71601Y25535D01*
X71569Y25558D01*
X71536Y25575D01*
X71506Y25585D01*
X71480Y25594D01*
X71457Y25598D01*
X71441Y25601D01*
X71428D01*
X71388Y25598D01*
X71349Y25591D01*
X71306Y25581D01*
X71270Y25568D01*
X71234Y25555D01*
X71208Y25545D01*
X71188Y25539D01*
X71182Y25535D01*
X71087Y25499D01*
X70998Y25466D01*
X70922Y25440D01*
X70857Y25420D01*
X70831Y25414D01*
X70804Y25407D01*
X70785Y25401D01*
X70768Y25394D01*
X70752Y25391D01*
X70742D01*
X70739Y25388D01*
X70736D01*
X70667Y25375D01*
X70601Y25365D01*
X70535Y25355D01*
X70476Y25352D01*
X70427Y25348D01*
X70408Y25345D01*
X70355D01*
X70237Y25348D01*
X70126Y25361D01*
X70021Y25381D01*
X69922Y25404D01*
X69827Y25434D01*
X69742Y25466D01*
X69660Y25499D01*
X69588Y25535D01*
X69525Y25571D01*
X69466Y25604D01*
X69417Y25637D01*
X69378Y25666D01*
X69345Y25690D01*
X69322Y25709D01*
X69305Y25722D01*
X69302Y25725D01*
X69230Y25798D01*
X69164Y25876D01*
X69109Y25952D01*
X69063Y26031D01*
X69020Y26109D01*
X68987Y26185D01*
X68961Y26257D01*
X68938Y26326D01*
X68922Y26391D01*
X68909Y26454D01*
X68899Y26506D01*
X68892Y26552D01*
X68889Y26588D01*
X68886Y26618D01*
Y26634D01*
Y26641D01*
X68889Y26716D01*
X68896Y26792D01*
X68909Y26864D01*
X68925Y26933D01*
X68945Y26998D01*
X68968Y27057D01*
X68991Y27116D01*
X69014Y27169D01*
X69037Y27215D01*
X69059Y27257D01*
X69082Y27293D01*
X69102Y27326D01*
X69118Y27349D01*
X69132Y27369D01*
X69138Y27379D01*
X69142Y27382D01*
X69194Y27444D01*
X69260Y27503D01*
X69332Y27566D01*
X69407Y27628D01*
X69489Y27687D01*
X69574Y27743D01*
X69660Y27799D01*
X69742Y27848D01*
X69824Y27897D01*
X69899Y27940D01*
X69968Y27976D01*
X70027Y28008D01*
X70076Y28035D01*
X70099Y28045D01*
X70116Y28054D01*
X70129Y28061D01*
X70139Y28067D01*
X70145Y28071D01*
X70148D01*
X70244Y28117D01*
X70332Y28163D01*
X70411Y28202D01*
X70480Y28238D01*
X70542Y28271D01*
X70598Y28304D01*
X70647Y28330D01*
X70690Y28353D01*
X70723Y28372D01*
X70752Y28392D01*
X70778Y28405D01*
X70798Y28418D01*
X70811Y28428D01*
X70821Y28435D01*
X70824Y28438D01*
X70827D01*
X70900Y28491D01*
X70959Y28543D01*
X71008Y28592D01*
X71051Y28635D01*
X71080Y28674D01*
X71103Y28701D01*
X71116Y28720D01*
X71119Y28727D01*
X71142Y28769D01*
X71159Y28812D01*
X71169Y28855D01*
X71175Y28891D01*
X71182Y28927D01*
X71185Y28953D01*
Y28969D01*
Y28976D01*
X71182Y29019D01*
X71178Y29058D01*
X71155Y29130D01*
X71126Y29199D01*
X71093Y29258D01*
X71060Y29304D01*
X71044Y29324D01*
X71031Y29340D01*
X71018Y29353D01*
X71008Y29363D01*
X71004Y29366D01*
X71001Y29370D01*
X70965Y29399D01*
X70926Y29425D01*
X70883Y29448D01*
X70844Y29468D01*
X70758Y29498D01*
X70676Y29520D01*
X70640Y29527D01*
X70604Y29530D01*
X70572Y29534D01*
X70545Y29537D01*
X70522Y29540D01*
X70493D01*
X70417Y29537D01*
X70342Y29527D01*
X70270Y29511D01*
X70198Y29491D01*
X70132Y29465D01*
X70070Y29438D01*
X70007Y29409D01*
X69955Y29379D01*
X69902Y29347D01*
X69860Y29317D01*
X69820Y29291D01*
X69788Y29268D01*
X69761Y29245D01*
X69742Y29229D01*
X69729Y29219D01*
X69725Y29215D01*
X69660Y29153D01*
X69604Y29084D01*
X69551Y29015D01*
X69506Y28947D01*
X69463Y28874D01*
X69427Y28802D01*
X69394Y28733D01*
X69368Y28668D01*
X69342Y28605D01*
X69325Y28546D01*
X69309Y28494D01*
X69296Y28451D01*
X69286Y28415D01*
X69279Y28386D01*
X69276Y28369D01*
Y28363D01*
X69148D01*
X69181Y29773D01*
X69276D01*
X69283Y29737D01*
X69292Y29708D01*
X69309Y29655D01*
X69325Y29612D01*
X69338Y29579D01*
X69351Y29557D01*
X69358Y29540D01*
X69365Y29534D01*
X69368Y29530D01*
X69388Y29514D01*
X69407Y29501D01*
X69427Y29494D01*
X69446Y29488D01*
X69466Y29484D01*
X69479Y29481D01*
X69492D01*
X69529Y29484D01*
X69574Y29498D01*
X69624Y29514D01*
X69673Y29534D01*
X69719Y29550D01*
X69755Y29566D01*
X69771Y29573D01*
X69781Y29579D01*
X69788Y29583D01*
X69791D01*
X69866Y29619D01*
X69935Y29648D01*
X69998Y29671D01*
X70047Y29691D01*
X70089Y29704D01*
X70122Y29714D01*
X70142Y29717D01*
X70145Y29721D01*
X70148D01*
X70221Y29737D01*
X70293Y29750D01*
X70358Y29760D01*
X70421Y29766D01*
X70473Y29770D01*
X70496Y29773D01*
X70549D01*
X70654Y29770D01*
D02*
G37*
G36*
X76676Y29563D02*
X76623Y29553D01*
X76581Y29544D01*
X76541Y29530D01*
X76508Y29520D01*
X76485Y29511D01*
X76466Y29501D01*
X76456Y29498D01*
X76453Y29494D01*
X76423Y29475D01*
X76390Y29455D01*
X76364Y29429D01*
X76338Y29406D01*
X76318Y29386D01*
X76298Y29366D01*
X76289Y29353D01*
X76285Y29350D01*
X76275Y29337D01*
X76262Y29317D01*
X76243Y29294D01*
X76223Y29261D01*
X76200Y29229D01*
X76174Y29193D01*
X76121Y29114D01*
X76069Y29038D01*
X76046Y29006D01*
X76026Y28976D01*
X76010Y28950D01*
X75993Y28930D01*
X75987Y28917D01*
X75984Y28914D01*
X74901Y27326D01*
X75744Y26306D01*
X75813Y26224D01*
X75879Y26149D01*
X75938Y26083D01*
X75993Y26021D01*
X76046Y25965D01*
X76095Y25916D01*
X76138Y25873D01*
X76177Y25834D01*
X76213Y25804D01*
X76243Y25775D01*
X76269Y25752D01*
X76289Y25735D01*
X76305Y25722D01*
X76318Y25712D01*
X76325Y25709D01*
X76328Y25706D01*
X76394Y25670D01*
X76466Y25637D01*
X76538Y25611D01*
X76607Y25591D01*
X76669Y25578D01*
X76699Y25571D01*
X76722Y25565D01*
X76741Y25561D01*
X76754D01*
X76764Y25558D01*
X76767D01*
Y25444D01*
X75141D01*
Y25558D01*
X75209D01*
X75265Y25561D01*
X75311Y25565D01*
X75347Y25568D01*
X75374D01*
X75393Y25571D01*
X75403Y25575D01*
X75406D01*
X75459Y25591D01*
X75505Y25607D01*
X75541Y25627D01*
X75574Y25644D01*
X75596Y25660D01*
X75616Y25673D01*
X75626Y25683D01*
X75629Y25686D01*
X75656Y25716D01*
X75672Y25745D01*
X75685Y25775D01*
X75695Y25801D01*
X75701Y25824D01*
X75705Y25840D01*
Y25853D01*
Y25857D01*
X75701Y25883D01*
X75692Y25916D01*
X75678Y25949D01*
X75659Y25988D01*
X75636Y26027D01*
X75613Y26067D01*
X75557Y26149D01*
X75505Y26224D01*
X75482Y26257D01*
X75459Y26286D01*
X75439Y26313D01*
X75426Y26329D01*
X75416Y26342D01*
X75413Y26346D01*
X74767Y27126D01*
X74150Y26221D01*
X74117Y26175D01*
X74091Y26132D01*
X74065Y26093D01*
X74042Y26057D01*
X74022Y26024D01*
X74002Y25995D01*
X73976Y25949D01*
X73953Y25912D01*
X73940Y25890D01*
X73934Y25873D01*
X73930Y25870D01*
X73917Y25834D01*
X73914Y25801D01*
X73911Y25788D01*
Y25778D01*
Y25771D01*
Y25768D01*
X73914Y25739D01*
X73921Y25712D01*
X73934Y25690D01*
X73947Y25670D01*
X73960Y25653D01*
X73973Y25640D01*
X73980Y25634D01*
X73983Y25630D01*
X73999Y25621D01*
X74016Y25611D01*
X74062Y25594D01*
X74114Y25585D01*
X74166Y25575D01*
X74219Y25568D01*
X74242Y25565D01*
X74262Y25561D01*
X74278D01*
X74291Y25558D01*
X74301D01*
Y25444D01*
X72231D01*
Y25558D01*
X72294Y25568D01*
X72349Y25581D01*
X72399Y25601D01*
X72441Y25617D01*
X72477Y25637D01*
X72504Y25653D01*
X72520Y25663D01*
X72526Y25666D01*
X72549Y25690D01*
X72579Y25716D01*
X72609Y25752D01*
X72641Y25788D01*
X72674Y25831D01*
X72710Y25876D01*
X72776Y25965D01*
X72808Y26011D01*
X72838Y26054D01*
X72864Y26093D01*
X72891Y26126D01*
X72910Y26155D01*
X72923Y26175D01*
X72933Y26191D01*
X72936Y26195D01*
X74104Y27926D01*
X73307Y28891D01*
X73248Y28960D01*
X73196Y29025D01*
X73150Y29081D01*
X73107Y29130D01*
X73068Y29173D01*
X73035Y29212D01*
X73005Y29245D01*
X72982Y29274D01*
X72959Y29298D01*
X72943Y29314D01*
X72930Y29330D01*
X72917Y29343D01*
X72904Y29357D01*
X72900Y29360D01*
X72854Y29399D01*
X72808Y29432D01*
X72769Y29462D01*
X72733Y29481D01*
X72704Y29498D01*
X72681Y29507D01*
X72667Y29514D01*
X72661Y29517D01*
X72615Y29530D01*
X72566Y29544D01*
X72517Y29550D01*
X72467Y29557D01*
X72428Y29560D01*
X72392Y29563D01*
X72363D01*
Y29678D01*
X73921D01*
Y29563D01*
X73855Y29560D01*
X73796Y29557D01*
X73750Y29550D01*
X73711Y29544D01*
X73681Y29534D01*
X73658Y29527D01*
X73645Y29524D01*
X73642Y29520D01*
X73609Y29504D01*
X73583Y29488D01*
X73556Y29468D01*
X73537Y29452D01*
X73524Y29435D01*
X73514Y29422D01*
X73507Y29412D01*
X73504Y29409D01*
X73488Y29383D01*
X73474Y29353D01*
X73468Y29327D01*
X73461Y29304D01*
X73458Y29281D01*
X73455Y29265D01*
Y29255D01*
Y29252D01*
X73458Y29219D01*
X73468Y29179D01*
X73488Y29133D01*
X73507Y29087D01*
X73533Y29042D01*
X73563Y28992D01*
X73625Y28894D01*
X73658Y28848D01*
X73688Y28806D01*
X73717Y28766D01*
X73743Y28730D01*
X73763Y28701D01*
X73779Y28681D01*
X73792Y28664D01*
X73796Y28661D01*
X74239Y28126D01*
X74767Y28914D01*
X74983Y29238D01*
X74996Y29281D01*
X75003Y29320D01*
X75006Y29337D01*
Y29350D01*
Y29357D01*
Y29360D01*
X75003Y29389D01*
X74996Y29419D01*
X74983Y29442D01*
X74970Y29465D01*
X74957Y29481D01*
X74944Y29494D01*
X74937Y29501D01*
X74934Y29504D01*
X74901Y29524D01*
X74865Y29537D01*
X74822Y29550D01*
X74780Y29557D01*
X74744Y29560D01*
X74711Y29563D01*
X74573D01*
Y29678D01*
X76676D01*
Y29563D01*
D02*
G37*
G36*
X52761Y28248D02*
X52712Y28235D01*
X52669Y28218D01*
X52633Y28199D01*
X52601Y28182D01*
X52578Y28163D01*
X52561Y28150D01*
X52551Y28140D01*
X52548Y28136D01*
X52528Y28113D01*
X52509Y28084D01*
X52486Y28048D01*
X52463Y28008D01*
X52417Y27926D01*
X52374Y27838D01*
X52351Y27795D01*
X52335Y27753D01*
X52315Y27716D01*
X52302Y27684D01*
X52289Y27657D01*
X52279Y27635D01*
X52276Y27621D01*
X52272Y27618D01*
X51285Y25358D01*
X51141D01*
X50170Y27648D01*
X50137Y27720D01*
X50108Y27785D01*
X50081Y27844D01*
X50055Y27897D01*
X50029Y27943D01*
X50009Y27985D01*
X49990Y28018D01*
X49973Y28048D01*
X49957Y28074D01*
X49944Y28094D01*
X49934Y28110D01*
X49924Y28123D01*
X49917Y28133D01*
X49911Y28140D01*
X49908Y28143D01*
X49872Y28172D01*
X49835Y28195D01*
X49796Y28215D01*
X49760Y28228D01*
X49731Y28238D01*
X49704Y28245D01*
X49688Y28248D01*
X49681D01*
Y28363D01*
X50636D01*
Y28248D01*
X50573Y28245D01*
X50521Y28235D01*
X50482Y28225D01*
X50445Y28212D01*
X50419Y28199D01*
X50403Y28189D01*
X50393Y28182D01*
X50390Y28179D01*
X50367Y28156D01*
X50347Y28130D01*
X50334Y28100D01*
X50327Y28077D01*
X50321Y28054D01*
X50318Y28038D01*
Y28025D01*
Y28021D01*
X50321Y27989D01*
X50324Y27949D01*
X50334Y27907D01*
X50344Y27861D01*
X50370Y27766D01*
X50400Y27671D01*
X50416Y27628D01*
X50429Y27585D01*
X50442Y27546D01*
X50455Y27513D01*
X50465Y27487D01*
X50475Y27464D01*
X50478Y27451D01*
X50482Y27448D01*
X50865Y26503D01*
X51348Y27595D01*
X51371Y27654D01*
X51393Y27707D01*
X51410Y27756D01*
X51426Y27799D01*
X51439Y27838D01*
X51452Y27874D01*
X51459Y27907D01*
X51469Y27933D01*
X51472Y27959D01*
X51479Y27979D01*
X51482Y27995D01*
Y28008D01*
X51485Y28025D01*
Y28031D01*
X51482Y28064D01*
X51472Y28097D01*
X51462Y28123D01*
X51446Y28146D01*
X51433Y28166D01*
X51423Y28179D01*
X51413Y28189D01*
X51410Y28192D01*
X51387Y28212D01*
X51357Y28225D01*
X51324Y28235D01*
X51288Y28241D01*
X51259Y28245D01*
X51233Y28248D01*
X51210D01*
Y28363D01*
X52761D01*
Y28248D01*
D02*
G37*
G36*
X60918Y28445D02*
X61033Y28428D01*
X61142Y28402D01*
X61243Y28366D01*
X61338Y28323D01*
X61427Y28277D01*
X61506Y28228D01*
X61578Y28179D01*
X61640Y28126D01*
X61696Y28077D01*
X61745Y28031D01*
X61781Y27989D01*
X61814Y27953D01*
X61837Y27926D01*
X61850Y27910D01*
X61853Y27903D01*
X61909Y27818D01*
X61958Y27730D01*
X62001Y27638D01*
X62037Y27549D01*
X62067Y27461D01*
X62093Y27372D01*
X62116Y27290D01*
X62132Y27208D01*
X62145Y27136D01*
X62155Y27067D01*
X62162Y27005D01*
X62165Y26956D01*
X62168Y26913D01*
X62172Y26880D01*
Y26860D01*
Y26857D01*
Y26854D01*
X62168Y26739D01*
X62155Y26631D01*
X62139Y26529D01*
X62116Y26427D01*
X62090Y26336D01*
X62060Y26250D01*
X62030Y26168D01*
X61998Y26096D01*
X61965Y26027D01*
X61935Y25968D01*
X61906Y25919D01*
X61880Y25876D01*
X61857Y25844D01*
X61840Y25817D01*
X61827Y25804D01*
X61824Y25798D01*
X61755Y25719D01*
X61683Y25653D01*
X61607Y25594D01*
X61529Y25545D01*
X61450Y25502D01*
X61374Y25466D01*
X61299Y25437D01*
X61224Y25414D01*
X61155Y25394D01*
X61092Y25381D01*
X61037Y25371D01*
X60984Y25365D01*
X60945Y25361D01*
X60915Y25358D01*
X60889D01*
X60823Y25361D01*
X60761Y25365D01*
X60699Y25375D01*
X60640Y25388D01*
X60584Y25401D01*
X60528Y25417D01*
X60479Y25434D01*
X60430Y25453D01*
X60387Y25470D01*
X60348Y25486D01*
X60315Y25502D01*
X60286Y25516D01*
X60263Y25529D01*
X60246Y25539D01*
X60236Y25542D01*
X60233Y25545D01*
X60177Y25585D01*
X60122Y25624D01*
X60023Y25716D01*
X59977Y25765D01*
X59935Y25811D01*
X59895Y25860D01*
X59859Y25906D01*
X59826Y25949D01*
X59800Y25991D01*
X59774Y26027D01*
X59754Y26060D01*
X59738Y26086D01*
X59728Y26106D01*
X59721Y26119D01*
X59718Y26122D01*
X59816Y26198D01*
X59885Y26129D01*
X59944Y26070D01*
X60000Y26024D01*
X60049Y25988D01*
X60089Y25958D01*
X60118Y25939D01*
X60135Y25929D01*
X60141Y25926D01*
X60194Y25903D01*
X60246Y25886D01*
X60295Y25873D01*
X60338Y25867D01*
X60377Y25860D01*
X60407Y25857D01*
X60433D01*
X60518Y25863D01*
X60594Y25876D01*
X60663Y25899D01*
X60725Y25922D01*
X60771Y25945D01*
X60794Y25958D01*
X60810Y25968D01*
X60823Y25975D01*
X60833Y25981D01*
X60836Y25988D01*
X60840D01*
X60882Y26024D01*
X60918Y26067D01*
X60991Y26155D01*
X61053Y26247D01*
X61102Y26339D01*
X61125Y26381D01*
X61145Y26421D01*
X61161Y26457D01*
X61174Y26487D01*
X61184Y26513D01*
X61191Y26532D01*
X61197Y26546D01*
Y26549D01*
X61240Y26690D01*
X61273Y26831D01*
X61296Y26965D01*
X61306Y27024D01*
X61312Y27083D01*
X61319Y27139D01*
X61322Y27185D01*
X61325Y27231D01*
Y27267D01*
X61329Y27297D01*
Y27316D01*
Y27333D01*
Y27336D01*
X61325Y27428D01*
X61322Y27510D01*
X61312Y27589D01*
X61302Y27661D01*
X61292Y27730D01*
X61276Y27789D01*
X61263Y27844D01*
X61247Y27894D01*
X61233Y27936D01*
X61217Y27972D01*
X61204Y28002D01*
X61194Y28028D01*
X61181Y28048D01*
X61174Y28064D01*
X61171Y28071D01*
X61168Y28074D01*
X61148Y28104D01*
X61125Y28126D01*
X61106Y28150D01*
X61083Y28166D01*
X61040Y28195D01*
X61001Y28215D01*
X60964Y28225D01*
X60938Y28231D01*
X60918Y28235D01*
X60912D01*
X60876Y28231D01*
X60843Y28222D01*
X60814Y28209D01*
X60791Y28195D01*
X60771Y28182D01*
X60755Y28169D01*
X60745Y28159D01*
X60741Y28156D01*
X60715Y28123D01*
X60695Y28081D01*
X60682Y28035D01*
X60669Y27989D01*
X60663Y27946D01*
X60656Y27913D01*
Y27900D01*
X60653Y27890D01*
Y27884D01*
Y27880D01*
X60646Y27825D01*
X60637Y27772D01*
X60627Y27723D01*
X60617Y27680D01*
X60607Y27641D01*
X60594Y27605D01*
X60581Y27572D01*
X60568Y27546D01*
X60554Y27520D01*
X60545Y27500D01*
X60535Y27484D01*
X60525Y27467D01*
X60512Y27451D01*
X60505Y27444D01*
X60456Y27405D01*
X60407Y27375D01*
X60354Y27352D01*
X60308Y27339D01*
X60266Y27329D01*
X60230Y27326D01*
X60217Y27323D01*
X60200D01*
X60138Y27326D01*
X60082Y27339D01*
X60033Y27356D01*
X59990Y27375D01*
X59957Y27395D01*
X59935Y27411D01*
X59918Y27425D01*
X59915Y27428D01*
X59879Y27470D01*
X59852Y27516D01*
X59833Y27566D01*
X59820Y27612D01*
X59813Y27651D01*
X59807Y27684D01*
Y27697D01*
Y27707D01*
Y27710D01*
Y27713D01*
X59810Y27766D01*
X59816Y27815D01*
X59833Y27864D01*
X59849Y27910D01*
X59892Y27995D01*
X59941Y28071D01*
X59967Y28104D01*
X59990Y28133D01*
X60013Y28159D01*
X60033Y28182D01*
X60049Y28199D01*
X60062Y28212D01*
X60072Y28218D01*
X60076Y28222D01*
X60128Y28261D01*
X60184Y28297D01*
X60240Y28327D01*
X60299Y28356D01*
X60361Y28376D01*
X60420Y28395D01*
X60479Y28412D01*
X60535Y28422D01*
X60587Y28431D01*
X60637Y28438D01*
X60679Y28445D01*
X60718Y28448D01*
X60751Y28451D01*
X60794D01*
X60918Y28445D01*
D02*
G37*
G36*
X48156Y28448D02*
X48248Y28431D01*
X48340Y28412D01*
X48425Y28382D01*
X48507Y28350D01*
X48583Y28313D01*
X48655Y28274D01*
X48717Y28235D01*
X48776Y28195D01*
X48828Y28156D01*
X48874Y28120D01*
X48914Y28087D01*
X48943Y28058D01*
X48963Y28038D01*
X48979Y28025D01*
X48983Y28018D01*
X49051Y27933D01*
X49114Y27844D01*
X49166Y27749D01*
X49209Y27654D01*
X49248Y27556D01*
X49281Y27461D01*
X49307Y27365D01*
X49327Y27274D01*
X49343Y27188D01*
X49356Y27110D01*
X49363Y27038D01*
X49370Y26975D01*
X49373Y26923D01*
X49376Y26903D01*
Y26887D01*
Y26873D01*
Y26864D01*
Y26857D01*
Y26854D01*
X49373Y26746D01*
X49363Y26641D01*
X49350Y26542D01*
X49334Y26447D01*
X49314Y26359D01*
X49291Y26277D01*
X49268Y26201D01*
X49242Y26132D01*
X49219Y26070D01*
X49196Y26014D01*
X49173Y25968D01*
X49153Y25929D01*
X49134Y25899D01*
X49120Y25876D01*
X49114Y25860D01*
X49110Y25857D01*
X49045Y25768D01*
X48973Y25693D01*
X48894Y25627D01*
X48815Y25568D01*
X48733Y25519D01*
X48651Y25480D01*
X48569Y25447D01*
X48491Y25420D01*
X48415Y25401D01*
X48346Y25384D01*
X48284Y25375D01*
X48232Y25365D01*
X48186Y25361D01*
X48153Y25358D01*
X48123D01*
X48054Y25361D01*
X47986Y25368D01*
X47923Y25378D01*
X47861Y25391D01*
X47802Y25404D01*
X47749Y25420D01*
X47697Y25440D01*
X47651Y25460D01*
X47608Y25476D01*
X47572Y25496D01*
X47539Y25512D01*
X47510Y25529D01*
X47490Y25539D01*
X47474Y25548D01*
X47464Y25555D01*
X47461Y25558D01*
X47408Y25601D01*
X47356Y25647D01*
X47303Y25696D01*
X47257Y25752D01*
X47166Y25867D01*
X47126Y25922D01*
X47087Y25978D01*
X47054Y26034D01*
X47025Y26083D01*
X46998Y26129D01*
X46975Y26168D01*
X46956Y26201D01*
X46942Y26227D01*
X46936Y26241D01*
X46933Y26247D01*
X47041Y26316D01*
X47074Y26267D01*
X47103Y26221D01*
X47136Y26178D01*
X47166Y26139D01*
X47195Y26106D01*
X47221Y26073D01*
X47247Y26047D01*
X47270Y26024D01*
X47310Y25985D01*
X47343Y25955D01*
X47362Y25942D01*
X47366Y25935D01*
X47369D01*
X47428Y25903D01*
X47487Y25876D01*
X47546Y25860D01*
X47598Y25847D01*
X47641Y25840D01*
X47677Y25837D01*
X47690Y25834D01*
X47710D01*
X47766Y25837D01*
X47818Y25844D01*
X47871Y25857D01*
X47917Y25873D01*
X48005Y25916D01*
X48044Y25939D01*
X48081Y25962D01*
X48113Y25985D01*
X48143Y26008D01*
X48169Y26031D01*
X48189Y26050D01*
X48205Y26067D01*
X48218Y26080D01*
X48225Y26086D01*
X48228Y26090D01*
X48277Y26155D01*
X48323Y26227D01*
X48363Y26300D01*
X48395Y26375D01*
X48425Y26454D01*
X48451Y26529D01*
X48471Y26605D01*
X48487Y26677D01*
X48504Y26742D01*
X48514Y26808D01*
X48520Y26864D01*
X48527Y26913D01*
X48533Y26952D01*
Y26982D01*
X48537Y27001D01*
Y27008D01*
X46933D01*
X46939Y27139D01*
X46956Y27261D01*
X46975Y27372D01*
X46998Y27477D01*
X47028Y27575D01*
X47057Y27664D01*
X47087Y27743D01*
X47120Y27815D01*
X47152Y27880D01*
X47182Y27933D01*
X47211Y27982D01*
X47234Y28018D01*
X47257Y28048D01*
X47274Y28071D01*
X47284Y28084D01*
X47287Y28087D01*
X47349Y28153D01*
X47412Y28209D01*
X47477Y28254D01*
X47543Y28297D01*
X47608Y28333D01*
X47674Y28363D01*
X47736Y28386D01*
X47795Y28405D01*
X47848Y28422D01*
X47900Y28431D01*
X47943Y28441D01*
X47982Y28445D01*
X48015Y28448D01*
X48038Y28451D01*
X48058D01*
X48156Y28448D01*
D02*
G37*
G36*
X40346D02*
X40438Y28431D01*
X40530Y28412D01*
X40615Y28382D01*
X40697Y28350D01*
X40773Y28313D01*
X40845Y28274D01*
X40907Y28235D01*
X40966Y28195D01*
X41019Y28156D01*
X41065Y28120D01*
X41104Y28087D01*
X41134Y28058D01*
X41153Y28038D01*
X41170Y28025D01*
X41173Y28018D01*
X41242Y27933D01*
X41304Y27844D01*
X41357Y27749D01*
X41399Y27654D01*
X41439Y27556D01*
X41471Y27461D01*
X41498Y27365D01*
X41517Y27274D01*
X41534Y27188D01*
X41547Y27110D01*
X41553Y27038D01*
X41560Y26975D01*
X41563Y26923D01*
X41567Y26903D01*
Y26887D01*
Y26873D01*
Y26864D01*
Y26857D01*
Y26854D01*
X41563Y26746D01*
X41553Y26641D01*
X41540Y26542D01*
X41524Y26447D01*
X41504Y26359D01*
X41481Y26277D01*
X41458Y26201D01*
X41432Y26132D01*
X41409Y26070D01*
X41386Y26014D01*
X41363Y25968D01*
X41344Y25929D01*
X41324Y25899D01*
X41311Y25876D01*
X41304Y25860D01*
X41301Y25857D01*
X41235Y25768D01*
X41163Y25693D01*
X41084Y25627D01*
X41006Y25568D01*
X40924Y25519D01*
X40842Y25480D01*
X40760Y25447D01*
X40681Y25420D01*
X40606Y25401D01*
X40537Y25384D01*
X40474Y25375D01*
X40422Y25365D01*
X40376Y25361D01*
X40343Y25358D01*
X40314D01*
X40245Y25361D01*
X40176Y25368D01*
X40113Y25378D01*
X40051Y25391D01*
X39992Y25404D01*
X39940Y25420D01*
X39887Y25440D01*
X39841Y25460D01*
X39799Y25476D01*
X39762Y25496D01*
X39730Y25512D01*
X39700Y25529D01*
X39680Y25539D01*
X39664Y25548D01*
X39654Y25555D01*
X39651Y25558D01*
X39599Y25601D01*
X39546Y25647D01*
X39494Y25696D01*
X39448Y25752D01*
X39356Y25867D01*
X39316Y25922D01*
X39277Y25978D01*
X39244Y26034D01*
X39215Y26083D01*
X39189Y26129D01*
X39166Y26168D01*
X39146Y26201D01*
X39133Y26227D01*
X39126Y26241D01*
X39123Y26247D01*
X39231Y26316D01*
X39264Y26267D01*
X39294Y26221D01*
X39326Y26178D01*
X39356Y26139D01*
X39385Y26106D01*
X39412Y26073D01*
X39438Y26047D01*
X39461Y26024D01*
X39500Y25985D01*
X39533Y25955D01*
X39553Y25942D01*
X39556Y25935D01*
X39559D01*
X39618Y25903D01*
X39677Y25876D01*
X39736Y25860D01*
X39789Y25847D01*
X39831Y25840D01*
X39867Y25837D01*
X39881Y25834D01*
X39900D01*
X39956Y25837D01*
X40009Y25844D01*
X40061Y25857D01*
X40107Y25873D01*
X40196Y25916D01*
X40235Y25939D01*
X40271Y25962D01*
X40304Y25985D01*
X40333Y26008D01*
X40360Y26031D01*
X40379Y26050D01*
X40396Y26067D01*
X40409Y26080D01*
X40415Y26086D01*
X40418Y26090D01*
X40468Y26155D01*
X40514Y26227D01*
X40553Y26300D01*
X40586Y26375D01*
X40615Y26454D01*
X40642Y26529D01*
X40661Y26605D01*
X40678Y26677D01*
X40694Y26742D01*
X40704Y26808D01*
X40710Y26864D01*
X40717Y26913D01*
X40724Y26952D01*
Y26982D01*
X40727Y27001D01*
Y27008D01*
X39123D01*
X39129Y27139D01*
X39146Y27261D01*
X39166Y27372D01*
X39189Y27477D01*
X39218Y27575D01*
X39248Y27664D01*
X39277Y27743D01*
X39310Y27815D01*
X39343Y27880D01*
X39372Y27933D01*
X39402Y27982D01*
X39425Y28018D01*
X39448Y28048D01*
X39464Y28071D01*
X39474Y28084D01*
X39477Y28087D01*
X39540Y28153D01*
X39602Y28209D01*
X39667Y28254D01*
X39733Y28297D01*
X39799Y28333D01*
X39864Y28363D01*
X39926Y28386D01*
X39986Y28405D01*
X40038Y28422D01*
X40091Y28431D01*
X40133Y28441D01*
X40172Y28445D01*
X40205Y28448D01*
X40228Y28451D01*
X40248D01*
X40346Y28448D01*
D02*
G37*
G36*
X82544Y29294D02*
X82629Y29166D01*
X82668Y29107D01*
X82708Y29048D01*
X82747Y28996D01*
X82783Y28947D01*
X82819Y28904D01*
X82849Y28864D01*
X82878Y28828D01*
X82901Y28802D01*
X82921Y28776D01*
X82934Y28760D01*
X82944Y28750D01*
X82947Y28746D01*
X83055Y28635D01*
X83167Y28527D01*
X83278Y28428D01*
X83334Y28382D01*
X83383Y28343D01*
X83432Y28304D01*
X83478Y28271D01*
X83518Y28238D01*
X83551Y28215D01*
X83577Y28192D01*
X83600Y28179D01*
X83613Y28169D01*
X83616Y28166D01*
Y28058D01*
X83236D01*
Y26477D01*
Y26395D01*
Y26316D01*
X83232Y26250D01*
Y26188D01*
X83229Y26136D01*
X83226Y26090D01*
X83223Y26047D01*
X83219Y26014D01*
Y25985D01*
X83216Y25962D01*
X83213Y25942D01*
X83209Y25926D01*
Y25916D01*
X83206Y25909D01*
Y25903D01*
X83180Y25834D01*
X83147Y25768D01*
X83108Y25709D01*
X83065Y25660D01*
X83026Y25617D01*
X82993Y25585D01*
X82980Y25575D01*
X82970Y25565D01*
X82967Y25561D01*
X82963Y25558D01*
X82927Y25532D01*
X82888Y25509D01*
X82809Y25470D01*
X82727Y25444D01*
X82655Y25424D01*
X82619Y25417D01*
X82590Y25414D01*
X82560Y25407D01*
X82537D01*
X82517Y25404D01*
X82491D01*
X82439Y25407D01*
X82389Y25411D01*
X82294Y25430D01*
X82206Y25460D01*
X82124Y25499D01*
X82048Y25542D01*
X81983Y25594D01*
X81920Y25647D01*
X81868Y25706D01*
X81819Y25762D01*
X81779Y25814D01*
X81743Y25867D01*
X81717Y25909D01*
X81694Y25949D01*
X81681Y25978D01*
X81671Y25998D01*
X81668Y26004D01*
X81763Y26073D01*
X81796Y26017D01*
X81832Y25971D01*
X81865Y25929D01*
X81897Y25896D01*
X81930Y25867D01*
X81963Y25840D01*
X81993Y25821D01*
X82022Y25804D01*
X82048Y25791D01*
X82071Y25781D01*
X82094Y25775D01*
X82111Y25771D01*
X82127Y25768D01*
X82137Y25765D01*
X82147D01*
X82166Y25768D01*
X82183Y25771D01*
X82219Y25788D01*
X82232Y25794D01*
X82245Y25801D01*
X82252Y25804D01*
X82255Y25807D01*
X82275Y25827D01*
X82291Y25847D01*
X82317Y25883D01*
X82327Y25899D01*
X82334Y25912D01*
X82337Y25922D01*
Y25926D01*
X82340Y25942D01*
X82344Y25962D01*
X82350Y26008D01*
X82353Y26063D01*
X82357Y26119D01*
X82360Y26168D01*
Y26191D01*
Y26214D01*
Y26231D01*
Y26244D01*
Y26250D01*
Y26254D01*
Y28058D01*
X81668D01*
Y28363D01*
X82360D01*
Y29432D01*
X82465D01*
X82544Y29294D01*
D02*
G37*
G36*
X42751Y29294D02*
X42836Y29166D01*
X42875Y29107D01*
X42915Y29048D01*
X42954Y28996D01*
X42990Y28947D01*
X43026Y28904D01*
X43056Y28864D01*
X43085Y28828D01*
X43108Y28802D01*
X43128Y28776D01*
X43141Y28760D01*
X43151Y28750D01*
X43154Y28746D01*
X43262Y28635D01*
X43374Y28527D01*
X43485Y28428D01*
X43541Y28382D01*
X43590Y28343D01*
X43639Y28304D01*
X43685Y28271D01*
X43725Y28238D01*
X43758Y28215D01*
X43784Y28192D01*
X43807Y28179D01*
X43820Y28169D01*
X43823Y28166D01*
Y28058D01*
X43443D01*
Y26477D01*
Y26395D01*
Y26316D01*
X43439Y26250D01*
Y26188D01*
X43436Y26136D01*
X43433Y26090D01*
X43430Y26047D01*
X43426Y26014D01*
Y25985D01*
X43423Y25962D01*
X43420Y25942D01*
X43416Y25926D01*
Y25916D01*
X43413Y25909D01*
Y25903D01*
X43387Y25834D01*
X43354Y25768D01*
X43315Y25709D01*
X43272Y25660D01*
X43233Y25617D01*
X43200Y25585D01*
X43187Y25575D01*
X43177Y25565D01*
X43174Y25561D01*
X43170Y25558D01*
X43134Y25532D01*
X43095Y25509D01*
X43016Y25470D01*
X42934Y25444D01*
X42862Y25424D01*
X42826Y25417D01*
X42796Y25414D01*
X42767Y25407D01*
X42744D01*
X42724Y25404D01*
X42698D01*
X42646Y25407D01*
X42596Y25411D01*
X42501Y25430D01*
X42413Y25460D01*
X42331Y25499D01*
X42255Y25542D01*
X42190Y25594D01*
X42127Y25647D01*
X42075Y25706D01*
X42026Y25762D01*
X41986Y25814D01*
X41950Y25867D01*
X41924Y25909D01*
X41901Y25949D01*
X41888Y25978D01*
X41878Y25998D01*
X41875Y26004D01*
X41970Y26073D01*
X42003Y26017D01*
X42039Y25971D01*
X42072Y25929D01*
X42105Y25896D01*
X42137Y25867D01*
X42170Y25840D01*
X42200Y25821D01*
X42229Y25804D01*
X42255Y25791D01*
X42278Y25781D01*
X42301Y25775D01*
X42318Y25771D01*
X42334Y25768D01*
X42344Y25765D01*
X42354D01*
X42373Y25768D01*
X42390Y25771D01*
X42426Y25788D01*
X42439Y25794D01*
X42452Y25801D01*
X42459Y25804D01*
X42462Y25807D01*
X42482Y25827D01*
X42498Y25847D01*
X42524Y25883D01*
X42534Y25899D01*
X42541Y25912D01*
X42544Y25922D01*
Y25926D01*
X42547Y25942D01*
X42551Y25962D01*
X42557Y26008D01*
X42560Y26063D01*
X42564Y26119D01*
X42567Y26168D01*
Y26191D01*
Y26214D01*
Y26231D01*
Y26244D01*
Y26250D01*
Y26254D01*
Y28058D01*
X41875D01*
Y28363D01*
X42567D01*
Y29432D01*
X42672D01*
X42751Y29294D01*
D02*
G37*
G36*
X97628Y29563D02*
X97579D01*
X97536Y29560D01*
X97494D01*
X97458Y29557D01*
X97425Y29550D01*
X97392Y29547D01*
X97366Y29544D01*
X97343Y29537D01*
X97307Y29527D01*
X97281Y29520D01*
X97264Y29514D01*
X97261Y29511D01*
X97225Y29491D01*
X97195Y29468D01*
X97172Y29442D01*
X97153Y29422D01*
X97136Y29399D01*
X97126Y29386D01*
X97123Y29373D01*
X97120Y29370D01*
X97113Y29350D01*
X97107Y29324D01*
X97100Y29294D01*
X97094Y29261D01*
X97087Y29189D01*
X97084Y29111D01*
X97080Y29038D01*
X97077Y29006D01*
Y28976D01*
Y28950D01*
Y28933D01*
Y28920D01*
Y28917D01*
Y26841D01*
X97074Y26746D01*
X97071Y26654D01*
X97061Y26568D01*
X97051Y26490D01*
X97038Y26414D01*
X97025Y26346D01*
X97008Y26280D01*
X96992Y26224D01*
X96979Y26172D01*
X96962Y26129D01*
X96949Y26090D01*
X96936Y26060D01*
X96926Y26034D01*
X96917Y26014D01*
X96913Y26004D01*
X96910Y26001D01*
X96877Y25945D01*
X96838Y25890D01*
X96795Y25837D01*
X96749Y25791D01*
X96703Y25745D01*
X96654Y25703D01*
X96605Y25663D01*
X96559Y25627D01*
X96513Y25598D01*
X96470Y25568D01*
X96434Y25545D01*
X96398Y25526D01*
X96372Y25509D01*
X96349Y25499D01*
X96336Y25493D01*
X96333Y25489D01*
X96274Y25463D01*
X96208Y25444D01*
X96142Y25424D01*
X96074Y25407D01*
X95933Y25381D01*
X95860Y25371D01*
X95795Y25365D01*
X95732Y25358D01*
X95673Y25352D01*
X95621Y25348D01*
X95572D01*
X95536Y25345D01*
X95483D01*
X95362Y25348D01*
X95250Y25358D01*
X95142Y25371D01*
X95044Y25388D01*
X94949Y25411D01*
X94863Y25434D01*
X94788Y25457D01*
X94716Y25483D01*
X94653Y25509D01*
X94598Y25532D01*
X94552Y25558D01*
X94512Y25578D01*
X94483Y25594D01*
X94460Y25607D01*
X94447Y25617D01*
X94443Y25621D01*
X94375Y25673D01*
X94312Y25725D01*
X94256Y25781D01*
X94207Y25834D01*
X94161Y25886D01*
X94122Y25936D01*
X94089Y25985D01*
X94060Y26031D01*
X94033Y26073D01*
X94014Y26113D01*
X93994Y26145D01*
X93981Y26175D01*
X93974Y26198D01*
X93964Y26217D01*
X93961Y26227D01*
Y26231D01*
X93945Y26296D01*
X93928Y26372D01*
X93915Y26454D01*
X93906Y26539D01*
X93886Y26716D01*
X93879Y26805D01*
X93876Y26893D01*
X93869Y26975D01*
Y27054D01*
X93866Y27123D01*
X93863Y27185D01*
Y27234D01*
Y27257D01*
Y27274D01*
Y27287D01*
Y27297D01*
Y27303D01*
Y27307D01*
Y28917D01*
Y28963D01*
X93860Y29006D01*
Y29045D01*
X93856Y29081D01*
X93853Y29114D01*
X93850Y29143D01*
X93843Y29193D01*
X93837Y29229D01*
X93830Y29255D01*
X93823Y29271D01*
Y29274D01*
X93800Y29327D01*
X93774Y29370D01*
X93745Y29406D01*
X93718Y29438D01*
X93692Y29462D01*
X93673Y29478D01*
X93660Y29488D01*
X93653Y29491D01*
X93604Y29514D01*
X93555Y29534D01*
X93505Y29547D01*
X93459Y29553D01*
X93417Y29560D01*
X93384Y29563D01*
X93266D01*
Y29678D01*
X94732D01*
Y29563D01*
X94640Y29560D01*
X94561Y29553D01*
X94493Y29540D01*
X94437Y29527D01*
X94394Y29514D01*
X94361Y29501D01*
X94342Y29494D01*
X94335Y29491D01*
X94302Y29468D01*
X94276Y29445D01*
X94250Y29416D01*
X94227Y29386D01*
X94210Y29363D01*
X94197Y29340D01*
X94191Y29327D01*
X94188Y29320D01*
X94178Y29298D01*
X94168Y29268D01*
X94152Y29206D01*
X94142Y29140D01*
X94132Y29074D01*
X94129Y29012D01*
Y28986D01*
X94125Y28963D01*
Y28943D01*
Y28930D01*
Y28920D01*
Y28917D01*
Y27188D01*
Y27067D01*
X94132Y26952D01*
X94135Y26851D01*
X94145Y26755D01*
X94155Y26670D01*
X94165Y26592D01*
X94174Y26523D01*
X94184Y26460D01*
X94197Y26408D01*
X94207Y26362D01*
X94217Y26326D01*
X94227Y26293D01*
X94237Y26270D01*
X94240Y26254D01*
X94247Y26244D01*
Y26241D01*
X94296Y26145D01*
X94355Y26060D01*
X94414Y25988D01*
X94473Y25929D01*
X94529Y25880D01*
X94552Y25860D01*
X94571Y25847D01*
X94588Y25834D01*
X94601Y25824D01*
X94607Y25821D01*
X94611Y25817D01*
X94657Y25791D01*
X94706Y25768D01*
X94804Y25729D01*
X94903Y25703D01*
X94994Y25683D01*
X95034Y25676D01*
X95073Y25673D01*
X95109Y25666D01*
X95139D01*
X95162Y25663D01*
X95195D01*
X95303Y25670D01*
X95401Y25683D01*
X95483Y25703D01*
X95522Y25712D01*
X95555Y25725D01*
X95588Y25735D01*
X95614Y25745D01*
X95637Y25755D01*
X95657Y25765D01*
X95673Y25775D01*
X95683Y25778D01*
X95690Y25785D01*
X95693D01*
X95762Y25834D01*
X95821Y25883D01*
X95870Y25936D01*
X95906Y25981D01*
X95939Y26024D01*
X95959Y26060D01*
X95965Y26073D01*
X95972Y26083D01*
X95975Y26086D01*
Y26090D01*
X95992Y26129D01*
X96005Y26175D01*
X96014Y26227D01*
X96024Y26283D01*
X96034Y26346D01*
X96041Y26408D01*
X96051Y26536D01*
X96054Y26595D01*
X96057Y26651D01*
Y26703D01*
X96061Y26749D01*
Y26788D01*
Y26814D01*
Y26834D01*
Y26841D01*
Y28917D01*
Y28983D01*
X96057Y29042D01*
Y29094D01*
X96054Y29140D01*
X96051Y29183D01*
X96047Y29219D01*
X96044Y29248D01*
X96041Y29278D01*
X96038Y29301D01*
X96034Y29320D01*
Y29333D01*
X96031Y29347D01*
X96024Y29363D01*
Y29366D01*
X96008Y29399D01*
X95988Y29429D01*
X95965Y29452D01*
X95942Y29475D01*
X95923Y29488D01*
X95910Y29501D01*
X95897Y29507D01*
X95893Y29511D01*
X95873Y29520D01*
X95850Y29527D01*
X95798Y29540D01*
X95742Y29550D01*
X95687Y29557D01*
X95634Y29560D01*
X95611Y29563D01*
X95441D01*
Y29678D01*
X97628D01*
Y29563D01*
D02*
G37*
G36*
X89468D02*
X89415D01*
X89369Y29560D01*
X89323Y29557D01*
X89284Y29553D01*
X89248Y29550D01*
X89215Y29547D01*
X89189Y29540D01*
X89163Y29537D01*
X89140Y29530D01*
X89123Y29524D01*
X89094Y29517D01*
X89081Y29511D01*
X89074Y29507D01*
X89038Y29488D01*
X89005Y29465D01*
X88979Y29438D01*
X88959Y29419D01*
X88943Y29396D01*
X88933Y29383D01*
X88926Y29370D01*
X88923Y29366D01*
X88917Y29347D01*
X88910Y29324D01*
X88903Y29294D01*
X88897Y29261D01*
X88890Y29189D01*
X88887Y29117D01*
X88884Y29048D01*
X88880Y29015D01*
Y28989D01*
Y28966D01*
Y28950D01*
Y28937D01*
Y28933D01*
Y26188D01*
Y26126D01*
X88884Y26070D01*
Y26017D01*
X88887Y25975D01*
X88890Y25932D01*
X88894Y25896D01*
X88897Y25867D01*
X88900Y25840D01*
X88907Y25817D01*
X88910Y25798D01*
X88913Y25785D01*
X88917Y25771D01*
X88920Y25755D01*
X88923Y25752D01*
X88943Y25722D01*
X88963Y25693D01*
X88989Y25670D01*
X89012Y25650D01*
X89035Y25634D01*
X89054Y25621D01*
X89068Y25614D01*
X89071Y25611D01*
X89094Y25601D01*
X89117Y25594D01*
X89176Y25581D01*
X89241Y25571D01*
X89307Y25565D01*
X89369Y25561D01*
X89395D01*
X89422Y25558D01*
X89468D01*
Y25444D01*
X87316D01*
X87152Y25447D01*
X86998Y25460D01*
X86857Y25480D01*
X86722Y25502D01*
X86601Y25532D01*
X86489Y25561D01*
X86388Y25598D01*
X86296Y25634D01*
X86214Y25666D01*
X86145Y25703D01*
X86083Y25732D01*
X86037Y25762D01*
X85997Y25785D01*
X85971Y25804D01*
X85955Y25817D01*
X85948Y25821D01*
X85879Y25880D01*
X85820Y25945D01*
X85768Y26011D01*
X85725Y26076D01*
X85686Y26142D01*
X85656Y26208D01*
X85630Y26273D01*
X85610Y26332D01*
X85594Y26391D01*
X85581Y26444D01*
X85574Y26490D01*
X85568Y26532D01*
X85564Y26565D01*
X85561Y26592D01*
Y26605D01*
Y26611D01*
X85564Y26693D01*
X85578Y26772D01*
X85594Y26847D01*
X85617Y26916D01*
X85643Y26982D01*
X85673Y27044D01*
X85706Y27097D01*
X85738Y27149D01*
X85771Y27192D01*
X85804Y27234D01*
X85833Y27267D01*
X85860Y27293D01*
X85883Y27316D01*
X85899Y27333D01*
X85912Y27343D01*
X85915Y27346D01*
X85965Y27382D01*
X86024Y27418D01*
X86086Y27451D01*
X86152Y27484D01*
X86293Y27543D01*
X86434Y27592D01*
X86499Y27612D01*
X86562Y27631D01*
X86621Y27648D01*
X86670Y27661D01*
X86709Y27674D01*
X86742Y27680D01*
X86762Y27687D01*
X86768D01*
X86667Y27713D01*
X86571Y27743D01*
X86486Y27775D01*
X86407Y27805D01*
X86335Y27838D01*
X86270Y27867D01*
X86214Y27900D01*
X86161Y27930D01*
X86119Y27956D01*
X86083Y27982D01*
X86050Y28005D01*
X86024Y28025D01*
X86004Y28041D01*
X85991Y28054D01*
X85984Y28061D01*
X85981Y28064D01*
X85942Y28110D01*
X85906Y28156D01*
X85876Y28205D01*
X85850Y28251D01*
X85827Y28297D01*
X85811Y28343D01*
X85794Y28386D01*
X85784Y28428D01*
X85774Y28468D01*
X85768Y28500D01*
X85761Y28533D01*
X85758Y28559D01*
X85755Y28582D01*
Y28599D01*
Y28609D01*
Y28612D01*
X85758Y28664D01*
X85761Y28717D01*
X85781Y28819D01*
X85811Y28910D01*
X85827Y28953D01*
X85843Y28992D01*
X85860Y29028D01*
X85876Y29061D01*
X85889Y29087D01*
X85906Y29111D01*
X85915Y29130D01*
X85925Y29147D01*
X85928Y29153D01*
X85932Y29156D01*
X86001Y29248D01*
X86079Y29327D01*
X86158Y29393D01*
X86237Y29448D01*
X86273Y29471D01*
X86306Y29491D01*
X86335Y29507D01*
X86361Y29524D01*
X86381Y29534D01*
X86398Y29540D01*
X86407Y29547D01*
X86411D01*
X86473Y29570D01*
X86542Y29589D01*
X86617Y29609D01*
X86699Y29622D01*
X86867Y29645D01*
X86952Y29655D01*
X87037Y29662D01*
X87116Y29668D01*
X87191Y29671D01*
X87260Y29675D01*
X87319D01*
X87368Y29678D01*
X89468D01*
Y29563D01*
D02*
G37*
G36*
X68515Y29563D02*
X68463D01*
X68417Y29560D01*
X68371Y29557D01*
X68331Y29553D01*
X68295Y29550D01*
X68262Y29547D01*
X68236Y29540D01*
X68210Y29537D01*
X68187Y29530D01*
X68171Y29524D01*
X68141Y29517D01*
X68128Y29511D01*
X68121Y29507D01*
X68085Y29488D01*
X68053Y29465D01*
X68026Y29438D01*
X68007Y29419D01*
X67990Y29396D01*
X67980Y29383D01*
X67974Y29370D01*
X67971Y29366D01*
X67964Y29347D01*
X67957Y29324D01*
X67951Y29294D01*
X67944Y29261D01*
X67938Y29189D01*
X67935Y29117D01*
X67931Y29048D01*
X67928Y29015D01*
Y28989D01*
Y28966D01*
Y28950D01*
Y28937D01*
Y28933D01*
Y26188D01*
Y26126D01*
X67931Y26070D01*
Y26017D01*
X67935Y25975D01*
X67938Y25932D01*
X67941Y25896D01*
X67944Y25867D01*
X67948Y25840D01*
X67954Y25817D01*
X67957Y25798D01*
X67961Y25785D01*
X67964Y25771D01*
X67967Y25755D01*
X67971Y25752D01*
X67990Y25722D01*
X68010Y25693D01*
X68036Y25670D01*
X68059Y25650D01*
X68082Y25634D01*
X68102Y25621D01*
X68115Y25614D01*
X68118Y25611D01*
X68141Y25601D01*
X68164Y25594D01*
X68223Y25581D01*
X68289Y25571D01*
X68354Y25565D01*
X68417Y25561D01*
X68443D01*
X68469Y25558D01*
X68515D01*
Y25444D01*
X66347D01*
Y25558D01*
X66399D01*
X66449Y25561D01*
X66491Y25565D01*
X66534Y25568D01*
X66570Y25571D01*
X66603Y25575D01*
X66632Y25581D01*
X66655Y25585D01*
X66678Y25591D01*
X66698Y25594D01*
X66724Y25604D01*
X66741Y25607D01*
X66747Y25611D01*
X66783Y25630D01*
X66813Y25657D01*
X66839Y25680D01*
X66859Y25703D01*
X66875Y25722D01*
X66885Y25739D01*
X66891Y25749D01*
X66895Y25752D01*
X66901Y25771D01*
X66908Y25794D01*
X66914Y25824D01*
X66918Y25857D01*
X66924Y25929D01*
X66927Y26004D01*
X66931Y26073D01*
X66934Y26106D01*
Y26132D01*
Y26155D01*
Y26172D01*
Y26185D01*
Y26188D01*
Y27372D01*
X66659D01*
X65294Y25444D01*
X63959D01*
Y25558D01*
X64021Y25565D01*
X64077Y25578D01*
X64130Y25594D01*
X64172Y25614D01*
X64208Y25630D01*
X64235Y25647D01*
X64251Y25660D01*
X64258Y25663D01*
X64274Y25680D01*
X64294Y25699D01*
X64317Y25722D01*
X64340Y25745D01*
X64385Y25801D01*
X64431Y25860D01*
X64474Y25916D01*
X64494Y25942D01*
X64510Y25965D01*
X64523Y25981D01*
X64533Y25995D01*
X64540Y26004D01*
X64543Y26008D01*
X65560Y27444D01*
X65488Y27464D01*
X65422Y27484D01*
X65360Y27507D01*
X65301Y27529D01*
X65248Y27553D01*
X65199Y27579D01*
X65153Y27602D01*
X65114Y27625D01*
X65078Y27648D01*
X65045Y27667D01*
X65018Y27684D01*
X64996Y27700D01*
X64979Y27713D01*
X64966Y27723D01*
X64960Y27730D01*
X64956Y27733D01*
X64897Y27792D01*
X64845Y27854D01*
X64799Y27917D01*
X64759Y27982D01*
X64727Y28048D01*
X64700Y28113D01*
X64677Y28176D01*
X64661Y28235D01*
X64648Y28291D01*
X64635Y28343D01*
X64628Y28389D01*
X64625Y28428D01*
X64622Y28461D01*
X64618Y28487D01*
Y28500D01*
Y28507D01*
X64622Y28579D01*
X64628Y28645D01*
X64638Y28710D01*
X64654Y28773D01*
X64671Y28832D01*
X64691Y28888D01*
X64710Y28940D01*
X64730Y28986D01*
X64753Y29028D01*
X64772Y29065D01*
X64792Y29097D01*
X64809Y29127D01*
X64825Y29147D01*
X64835Y29163D01*
X64841Y29173D01*
X64845Y29176D01*
X64887Y29229D01*
X64933Y29274D01*
X64982Y29320D01*
X65032Y29360D01*
X65081Y29396D01*
X65130Y29429D01*
X65176Y29455D01*
X65222Y29481D01*
X65264Y29504D01*
X65304Y29520D01*
X65340Y29537D01*
X65369Y29550D01*
X65392Y29557D01*
X65412Y29563D01*
X65425Y29570D01*
X65429D01*
X65501Y29589D01*
X65579Y29606D01*
X65665Y29619D01*
X65753Y29632D01*
X65940Y29652D01*
X66032Y29658D01*
X66121Y29665D01*
X66209Y29668D01*
X66288Y29671D01*
X66360Y29675D01*
X66426Y29678D01*
X68515D01*
Y29563D01*
D02*
G37*
G36*
X54178Y28448D02*
X54260Y28435D01*
X54336Y28415D01*
X54401Y28395D01*
X54431Y28386D01*
X54457Y28376D01*
X54480Y28366D01*
X54500Y28356D01*
X54516Y28350D01*
X54526Y28343D01*
X54532Y28340D01*
X54536D01*
X54614Y28294D01*
X54690Y28238D01*
X54762Y28179D01*
X54828Y28120D01*
X54883Y28067D01*
X54906Y28045D01*
X54926Y28025D01*
X54942Y28008D01*
X54956Y27995D01*
X54962Y27989D01*
X54965Y27985D01*
Y28363D01*
X56156D01*
Y28248D01*
X56090Y28235D01*
X56035Y28222D01*
X55992Y28202D01*
X55959Y28185D01*
X55933Y28166D01*
X55917Y28153D01*
X55907Y28143D01*
X55903Y28140D01*
X55894Y28123D01*
X55884Y28097D01*
X55874Y28071D01*
X55867Y28041D01*
X55857Y27972D01*
X55848Y27903D01*
X55844Y27838D01*
Y27808D01*
X55841Y27782D01*
Y27759D01*
Y27743D01*
Y27733D01*
Y27730D01*
Y26076D01*
Y26017D01*
X55844Y25962D01*
X55848Y25912D01*
X55851Y25870D01*
X55854Y25834D01*
X55857Y25801D01*
X55864Y25771D01*
X55867Y25745D01*
X55874Y25725D01*
X55880Y25709D01*
X55884Y25696D01*
X55887Y25686D01*
X55894Y25673D01*
X55897Y25670D01*
X55930Y25637D01*
X55969Y25607D01*
X56012Y25588D01*
X56054Y25571D01*
X56094Y25561D01*
X56126Y25555D01*
X56140D01*
X56149Y25552D01*
X56156D01*
Y25444D01*
X54673D01*
Y25552D01*
X54732Y25561D01*
X54782Y25578D01*
X54821Y25594D01*
X54854Y25614D01*
X54877Y25630D01*
X54893Y25647D01*
X54903Y25657D01*
X54906Y25660D01*
X54916Y25680D01*
X54926Y25703D01*
X54932Y25732D01*
X54939Y25762D01*
X54952Y25831D01*
X54959Y25903D01*
X54962Y25968D01*
Y25998D01*
X54965Y26024D01*
Y26047D01*
Y26063D01*
Y26073D01*
Y26076D01*
Y27644D01*
X54923Y27713D01*
X54877Y27772D01*
X54834Y27821D01*
X54791Y27867D01*
X54749Y27903D01*
X54706Y27933D01*
X54667Y27959D01*
X54631Y27979D01*
X54595Y27995D01*
X54565Y28008D01*
X54536Y28015D01*
X54513Y28021D01*
X54493Y28025D01*
X54480Y28028D01*
X54467D01*
X54437Y28025D01*
X54411Y28021D01*
X54385Y28012D01*
X54365Y28002D01*
X54349Y27992D01*
X54332Y27985D01*
X54326Y27979D01*
X54322Y27976D01*
X54299Y27956D01*
X54277Y27930D01*
X54260Y27907D01*
X54247Y27884D01*
X54237Y27861D01*
X54231Y27844D01*
X54224Y27831D01*
Y27828D01*
X54217Y27808D01*
X54214Y27782D01*
X54211Y27753D01*
X54208Y27720D01*
X54201Y27644D01*
X54198Y27569D01*
X54194Y27494D01*
Y27461D01*
Y27434D01*
Y27408D01*
Y27392D01*
Y27379D01*
Y27375D01*
Y26076D01*
Y26021D01*
X54198Y25971D01*
Y25926D01*
X54201Y25883D01*
X54208Y25847D01*
X54211Y25817D01*
X54214Y25788D01*
X54221Y25765D01*
X54224Y25745D01*
X54231Y25729D01*
X54237Y25703D01*
X54244Y25689D01*
X54247Y25686D01*
X54277Y25647D01*
X54316Y25617D01*
X54355Y25594D01*
X54395Y25575D01*
X54431Y25565D01*
X54460Y25558D01*
X54480Y25552D01*
X54487D01*
Y25444D01*
X53004D01*
Y25552D01*
X53070Y25561D01*
X53125Y25575D01*
X53171Y25591D01*
X53204Y25611D01*
X53230Y25627D01*
X53247Y25640D01*
X53256Y25650D01*
X53260Y25653D01*
X53270Y25673D01*
X53279Y25696D01*
X53286Y25725D01*
X53293Y25755D01*
X53306Y25824D01*
X53312Y25896D01*
X53316Y25965D01*
Y25995D01*
X53319Y26024D01*
Y26044D01*
Y26063D01*
Y26073D01*
Y26076D01*
Y27215D01*
Y27307D01*
X53322Y27389D01*
Y27467D01*
X53325Y27536D01*
X53332Y27598D01*
X53335Y27654D01*
X53338Y27703D01*
X53345Y27746D01*
X53348Y27785D01*
X53355Y27818D01*
X53358Y27844D01*
X53361Y27864D01*
X53365Y27880D01*
X53368Y27890D01*
X53371Y27897D01*
Y27900D01*
X53401Y27985D01*
X53437Y28061D01*
X53476Y28126D01*
X53519Y28182D01*
X53558Y28228D01*
X53591Y28261D01*
X53604Y28274D01*
X53611Y28284D01*
X53617Y28287D01*
X53620Y28291D01*
X53657Y28320D01*
X53696Y28343D01*
X53732Y28366D01*
X53775Y28382D01*
X53853Y28412D01*
X53926Y28431D01*
X53962Y28438D01*
X53991Y28441D01*
X54021Y28448D01*
X54044D01*
X54067Y28451D01*
X54093D01*
X54178Y28448D01*
D02*
G37*
G36*
X44496Y28445D02*
X44571Y28428D01*
X44643Y28402D01*
X44709Y28376D01*
X44761Y28350D01*
X44787Y28336D01*
X44807Y28323D01*
X44820Y28313D01*
X44833Y28307D01*
X44840Y28304D01*
X44843Y28300D01*
X44886Y28271D01*
X44929Y28231D01*
X44971Y28189D01*
X45014Y28143D01*
X45099Y28045D01*
X45181Y27946D01*
X45217Y27897D01*
X45250Y27851D01*
X45279Y27808D01*
X45302Y27772D01*
X45322Y27743D01*
X45338Y27720D01*
X45348Y27707D01*
X45352Y27700D01*
Y28363D01*
X46549D01*
Y28248D01*
X46496Y28241D01*
X46454Y28231D01*
X46418Y28222D01*
X46391Y28212D01*
X46369Y28202D01*
X46352Y28195D01*
X46345Y28192D01*
X46342Y28189D01*
X46323Y28172D01*
X46303Y28153D01*
X46273Y28110D01*
X46264Y28090D01*
X46257Y28074D01*
X46250Y28064D01*
Y28061D01*
X46247Y28045D01*
X46240Y28028D01*
X46234Y27982D01*
X46231Y27930D01*
X46227Y27877D01*
X46224Y27825D01*
Y27802D01*
Y27782D01*
Y27766D01*
Y27753D01*
Y27746D01*
Y27743D01*
Y26129D01*
Y26060D01*
X46227Y25998D01*
X46231Y25942D01*
X46234Y25893D01*
X46240Y25850D01*
X46247Y25811D01*
X46254Y25775D01*
X46257Y25749D01*
X46264Y25722D01*
X46270Y25703D01*
X46277Y25686D01*
X46283Y25673D01*
X46286Y25663D01*
X46290Y25657D01*
X46293Y25653D01*
X46323Y25624D01*
X46362Y25601D01*
X46401Y25581D01*
X46444Y25568D01*
X46486Y25561D01*
X46519Y25555D01*
X46529D01*
X46539Y25552D01*
X46549D01*
Y25444D01*
X44968D01*
Y25552D01*
X45030Y25555D01*
X45083Y25561D01*
X45125Y25568D01*
X45158Y25578D01*
X45184Y25585D01*
X45204Y25591D01*
X45214Y25598D01*
X45217D01*
X45243Y25614D01*
X45266Y25634D01*
X45283Y25653D01*
X45299Y25676D01*
X45312Y25693D01*
X45322Y25709D01*
X45325Y25719D01*
X45329Y25722D01*
X45335Y25749D01*
X45338Y25781D01*
X45345Y25821D01*
Y25860D01*
X45348Y25896D01*
Y25926D01*
Y25939D01*
Y25949D01*
Y25952D01*
Y25955D01*
X45352Y26129D01*
Y26801D01*
X45348Y26936D01*
X45335Y27060D01*
X45329Y27116D01*
X45319Y27172D01*
X45309Y27224D01*
X45299Y27270D01*
X45293Y27313D01*
X45283Y27352D01*
X45273Y27385D01*
X45266Y27415D01*
X45260Y27438D01*
X45253Y27454D01*
X45250Y27464D01*
Y27467D01*
X45224Y27536D01*
X45194Y27598D01*
X45161Y27651D01*
X45132Y27694D01*
X45102Y27726D01*
X45079Y27753D01*
X45066Y27766D01*
X45060Y27772D01*
X45030Y27795D01*
X44997Y27812D01*
X44968Y27825D01*
X44942Y27831D01*
X44919Y27838D01*
X44902Y27841D01*
X44886D01*
X44860Y27838D01*
X44837Y27831D01*
X44824Y27825D01*
X44817Y27821D01*
X44804Y27812D01*
X44784Y27799D01*
X44761Y27779D01*
X44738Y27759D01*
X44715Y27736D01*
X44696Y27720D01*
X44682Y27707D01*
X44676Y27703D01*
X44630Y27667D01*
X44581Y27644D01*
X44532Y27625D01*
X44486Y27612D01*
X44446Y27605D01*
X44417Y27602D01*
X44404Y27598D01*
X44387D01*
X44335Y27605D01*
X44289Y27618D01*
X44250Y27635D01*
X44214Y27657D01*
X44184Y27677D01*
X44161Y27697D01*
X44148Y27710D01*
X44145Y27713D01*
X44109Y27759D01*
X44082Y27812D01*
X44066Y27867D01*
X44053Y27920D01*
X44046Y27966D01*
X44040Y28002D01*
Y28018D01*
Y28028D01*
Y28035D01*
Y28038D01*
X44043Y28107D01*
X44056Y28169D01*
X44072Y28222D01*
X44092Y28264D01*
X44112Y28297D01*
X44128Y28323D01*
X44141Y28336D01*
X44145Y28343D01*
X44187Y28379D01*
X44233Y28405D01*
X44279Y28425D01*
X44322Y28438D01*
X44361Y28445D01*
X44391Y28451D01*
X44460D01*
X44496Y28445D01*
D02*
G37*
G36*
X36686D02*
X36761Y28428D01*
X36834Y28402D01*
X36899Y28376D01*
X36952Y28350D01*
X36978Y28336D01*
X36998Y28323D01*
X37011Y28313D01*
X37024Y28307D01*
X37030Y28304D01*
X37034Y28300D01*
X37076Y28271D01*
X37119Y28231D01*
X37161Y28189D01*
X37204Y28143D01*
X37289Y28045D01*
X37371Y27946D01*
X37407Y27897D01*
X37440Y27851D01*
X37470Y27808D01*
X37493Y27772D01*
X37512Y27743D01*
X37529Y27720D01*
X37539Y27707D01*
X37542Y27700D01*
Y28363D01*
X38739D01*
Y28248D01*
X38687Y28241D01*
X38644Y28231D01*
X38608Y28222D01*
X38582Y28212D01*
X38559Y28202D01*
X38542Y28195D01*
X38536Y28192D01*
X38533Y28189D01*
X38513Y28172D01*
X38493Y28153D01*
X38464Y28110D01*
X38454Y28090D01*
X38447Y28074D01*
X38441Y28064D01*
Y28061D01*
X38437Y28045D01*
X38431Y28028D01*
X38424Y27982D01*
X38421Y27930D01*
X38418Y27877D01*
X38414Y27825D01*
Y27802D01*
Y27782D01*
Y27766D01*
Y27753D01*
Y27746D01*
Y27743D01*
Y26129D01*
Y26060D01*
X38418Y25998D01*
X38421Y25942D01*
X38424Y25893D01*
X38431Y25850D01*
X38437Y25811D01*
X38444Y25775D01*
X38447Y25749D01*
X38454Y25722D01*
X38460Y25703D01*
X38467Y25686D01*
X38473Y25673D01*
X38477Y25663D01*
X38480Y25657D01*
X38483Y25653D01*
X38513Y25624D01*
X38552Y25601D01*
X38592Y25581D01*
X38634Y25568D01*
X38677Y25561D01*
X38710Y25555D01*
X38719D01*
X38729Y25552D01*
X38739D01*
Y25444D01*
X37158D01*
Y25552D01*
X37220Y25555D01*
X37273Y25561D01*
X37316Y25568D01*
X37348Y25578D01*
X37375Y25585D01*
X37394Y25591D01*
X37404Y25598D01*
X37407D01*
X37434Y25614D01*
X37457Y25634D01*
X37473Y25653D01*
X37490Y25676D01*
X37503Y25693D01*
X37512Y25709D01*
X37516Y25719D01*
X37519Y25722D01*
X37526Y25749D01*
X37529Y25781D01*
X37535Y25821D01*
Y25860D01*
X37539Y25896D01*
Y25926D01*
Y25939D01*
Y25949D01*
Y25952D01*
Y25955D01*
X37542Y26129D01*
Y26801D01*
X37539Y26936D01*
X37526Y27060D01*
X37519Y27116D01*
X37509Y27172D01*
X37499Y27224D01*
X37490Y27270D01*
X37483Y27313D01*
X37473Y27352D01*
X37463Y27385D01*
X37457Y27415D01*
X37450Y27438D01*
X37444Y27454D01*
X37440Y27464D01*
Y27467D01*
X37414Y27536D01*
X37385Y27598D01*
X37352Y27651D01*
X37322Y27694D01*
X37293Y27726D01*
X37270Y27753D01*
X37257Y27766D01*
X37250Y27772D01*
X37220Y27795D01*
X37188Y27812D01*
X37158Y27825D01*
X37132Y27831D01*
X37109Y27838D01*
X37093Y27841D01*
X37076D01*
X37050Y27838D01*
X37027Y27831D01*
X37014Y27825D01*
X37007Y27821D01*
X36994Y27812D01*
X36974Y27799D01*
X36952Y27779D01*
X36929Y27759D01*
X36906Y27736D01*
X36886Y27720D01*
X36873Y27707D01*
X36866Y27703D01*
X36820Y27667D01*
X36771Y27644D01*
X36722Y27625D01*
X36676Y27612D01*
X36637Y27605D01*
X36607Y27602D01*
X36594Y27598D01*
X36578D01*
X36525Y27605D01*
X36479Y27618D01*
X36440Y27635D01*
X36404Y27657D01*
X36374Y27677D01*
X36351Y27697D01*
X36338Y27710D01*
X36335Y27713D01*
X36299Y27759D01*
X36273Y27812D01*
X36256Y27867D01*
X36243Y27920D01*
X36237Y27966D01*
X36230Y28002D01*
Y28018D01*
Y28028D01*
Y28035D01*
Y28038D01*
X36233Y28107D01*
X36246Y28169D01*
X36263Y28222D01*
X36283Y28264D01*
X36302Y28297D01*
X36318Y28323D01*
X36332Y28336D01*
X36335Y28343D01*
X36378Y28379D01*
X36424Y28405D01*
X36469Y28425D01*
X36512Y28438D01*
X36551Y28445D01*
X36581Y28451D01*
X36650D01*
X36686Y28445D01*
D02*
G37*
G36*
X80129Y28445D02*
X80238Y28431D01*
X80343Y28409D01*
X80438Y28379D01*
X80526Y28343D01*
X80608Y28304D01*
X80684Y28261D01*
X80749Y28218D01*
X80812Y28172D01*
X80864Y28130D01*
X80907Y28090D01*
X80946Y28054D01*
X80972Y28025D01*
X80995Y28002D01*
X81008Y27989D01*
X81012Y27982D01*
X81074Y27894D01*
X81130Y27802D01*
X81179Y27710D01*
X81222Y27615D01*
X81255Y27523D01*
X81284Y27431D01*
X81307Y27346D01*
X81327Y27261D01*
X81343Y27185D01*
X81353Y27113D01*
X81363Y27051D01*
X81366Y26995D01*
X81369Y26952D01*
X81373Y26919D01*
Y26906D01*
Y26897D01*
Y26893D01*
Y26890D01*
X81369Y26778D01*
X81356Y26670D01*
X81340Y26565D01*
X81317Y26463D01*
X81291Y26372D01*
X81261Y26283D01*
X81228Y26201D01*
X81195Y26126D01*
X81163Y26057D01*
X81130Y25995D01*
X81100Y25942D01*
X81074Y25899D01*
X81051Y25863D01*
X81035Y25837D01*
X81022Y25824D01*
X81018Y25817D01*
X80949Y25735D01*
X80874Y25666D01*
X80792Y25604D01*
X80710Y25552D01*
X80625Y25509D01*
X80543Y25470D01*
X80458Y25440D01*
X80379Y25417D01*
X80303Y25398D01*
X80231Y25381D01*
X80169Y25371D01*
X80113Y25365D01*
X80067Y25361D01*
X80034Y25358D01*
X80005D01*
X79883Y25365D01*
X79769Y25381D01*
X79660Y25404D01*
X79559Y25437D01*
X79464Y25476D01*
X79378Y25519D01*
X79300Y25565D01*
X79228Y25611D01*
X79165Y25657D01*
X79109Y25703D01*
X79063Y25745D01*
X79024Y25785D01*
X78995Y25817D01*
X78972Y25840D01*
X78958Y25857D01*
X78955Y25863D01*
X78900Y25945D01*
X78850Y26027D01*
X78808Y26113D01*
X78772Y26201D01*
X78739Y26290D01*
X78716Y26375D01*
X78693Y26460D01*
X78676Y26539D01*
X78663Y26614D01*
X78654Y26683D01*
X78647Y26746D01*
X78640Y26798D01*
Y26844D01*
X78637Y26877D01*
Y26887D01*
Y26897D01*
Y26900D01*
Y26903D01*
X78640Y26982D01*
X78644Y27060D01*
X78654Y27136D01*
X78663Y27208D01*
X78676Y27277D01*
X78690Y27343D01*
X78706Y27402D01*
X78722Y27461D01*
X78739Y27510D01*
X78755Y27556D01*
X78768Y27598D01*
X78781Y27631D01*
X78791Y27657D01*
X78801Y27677D01*
X78804Y27690D01*
X78808Y27694D01*
X78840Y27759D01*
X78877Y27821D01*
X78916Y27880D01*
X78958Y27936D01*
X78998Y27986D01*
X79040Y28031D01*
X79080Y28074D01*
X79119Y28110D01*
X79159Y28143D01*
X79195Y28172D01*
X79224Y28199D01*
X79254Y28218D01*
X79273Y28235D01*
X79293Y28245D01*
X79303Y28251D01*
X79306Y28254D01*
X79369Y28291D01*
X79431Y28320D01*
X79493Y28346D01*
X79555Y28369D01*
X79615Y28389D01*
X79674Y28402D01*
X79729Y28415D01*
X79782Y28428D01*
X79831Y28435D01*
X79877Y28441D01*
X79916Y28445D01*
X79949Y28448D01*
X79979Y28451D01*
X80015D01*
X80129Y28445D01*
D02*
G37*
G36*
X58098Y28445D02*
X58206Y28431D01*
X58311Y28409D01*
X58406Y28379D01*
X58495Y28343D01*
X58577Y28304D01*
X58652Y28261D01*
X58718Y28218D01*
X58780Y28172D01*
X58832Y28130D01*
X58875Y28090D01*
X58914Y28054D01*
X58941Y28025D01*
X58964Y28002D01*
X58977Y27989D01*
X58980Y27982D01*
X59042Y27894D01*
X59098Y27802D01*
X59147Y27710D01*
X59190Y27615D01*
X59223Y27523D01*
X59252Y27431D01*
X59275Y27346D01*
X59295Y27261D01*
X59311Y27185D01*
X59321Y27113D01*
X59331Y27051D01*
X59334Y26995D01*
X59338Y26952D01*
X59341Y26919D01*
Y26906D01*
Y26897D01*
Y26893D01*
Y26890D01*
X59338Y26778D01*
X59325Y26670D01*
X59308Y26565D01*
X59285Y26463D01*
X59259Y26372D01*
X59229Y26283D01*
X59197Y26201D01*
X59164Y26126D01*
X59131Y26057D01*
X59098Y25995D01*
X59069Y25942D01*
X59042Y25899D01*
X59019Y25863D01*
X59003Y25837D01*
X58990Y25824D01*
X58987Y25817D01*
X58918Y25735D01*
X58842Y25666D01*
X58760Y25604D01*
X58678Y25552D01*
X58593Y25509D01*
X58511Y25470D01*
X58426Y25440D01*
X58347Y25417D01*
X58272Y25398D01*
X58199Y25381D01*
X58137Y25371D01*
X58081Y25365D01*
X58035Y25361D01*
X58003Y25358D01*
X57973D01*
X57852Y25365D01*
X57737Y25381D01*
X57629Y25404D01*
X57527Y25437D01*
X57432Y25476D01*
X57347Y25519D01*
X57268Y25565D01*
X57196Y25611D01*
X57133Y25657D01*
X57078Y25703D01*
X57032Y25745D01*
X56992Y25785D01*
X56963Y25817D01*
X56940Y25840D01*
X56927Y25857D01*
X56924Y25863D01*
X56868Y25945D01*
X56818Y26027D01*
X56776Y26113D01*
X56740Y26201D01*
X56707Y26290D01*
X56684Y26375D01*
X56661Y26460D01*
X56645Y26539D01*
X56632Y26614D01*
X56622Y26683D01*
X56615Y26746D01*
X56609Y26798D01*
Y26844D01*
X56605Y26877D01*
Y26887D01*
Y26897D01*
Y26900D01*
Y26903D01*
X56609Y26982D01*
X56612Y27060D01*
X56622Y27136D01*
X56632Y27208D01*
X56645Y27277D01*
X56658Y27343D01*
X56674Y27402D01*
X56691Y27461D01*
X56707Y27510D01*
X56723Y27556D01*
X56736Y27598D01*
X56750Y27631D01*
X56760Y27657D01*
X56769Y27677D01*
X56773Y27690D01*
X56776Y27694D01*
X56809Y27759D01*
X56845Y27821D01*
X56884Y27880D01*
X56927Y27936D01*
X56966Y27985D01*
X57009Y28031D01*
X57048Y28074D01*
X57087Y28110D01*
X57127Y28143D01*
X57163Y28172D01*
X57192Y28199D01*
X57222Y28218D01*
X57242Y28235D01*
X57261Y28245D01*
X57271Y28251D01*
X57275Y28254D01*
X57337Y28291D01*
X57399Y28320D01*
X57461Y28346D01*
X57524Y28369D01*
X57583Y28389D01*
X57642Y28402D01*
X57698Y28415D01*
X57750Y28428D01*
X57799Y28435D01*
X57845Y28441D01*
X57885Y28445D01*
X57917Y28448D01*
X57947Y28451D01*
X57983D01*
X58098Y28445D01*
D02*
G37*
G36*
X110781Y36648D02*
X110498D01*
Y37635D01*
X109889Y36648D01*
X109584D01*
Y38156D01*
X109866D01*
Y37146D01*
X110485Y38156D01*
X110781D01*
Y36648D01*
D02*
G37*
G36*
X111765Y38180D02*
X111803Y38178D01*
X111840Y38175D01*
X111874Y38170D01*
X111906Y38164D01*
X111935Y38157D01*
X111963Y38151D01*
X111988Y38144D01*
X112010Y38137D01*
X112030Y38130D01*
X112047Y38124D01*
X112061Y38118D01*
X112072Y38113D01*
X112081Y38109D01*
X112085Y38107D01*
X112088Y38106D01*
X112122Y38087D01*
X112154Y38066D01*
X112185Y38044D01*
X112213Y38021D01*
X112239Y37997D01*
X112262Y37974D01*
X112284Y37951D01*
X112303Y37929D01*
X112320Y37908D01*
X112335Y37888D01*
X112348Y37871D01*
X112358Y37856D01*
X112365Y37843D01*
X112372Y37833D01*
X112375Y37827D01*
X112376Y37825D01*
X112394Y37790D01*
X112409Y37754D01*
X112422Y37718D01*
X112433Y37682D01*
X112443Y37647D01*
X112451Y37613D01*
X112457Y37579D01*
X112462Y37547D01*
X112466Y37518D01*
X112469Y37490D01*
X112471Y37466D01*
X112473Y37446D01*
Y37429D01*
X112475Y37423D01*
Y37417D01*
Y37413D01*
Y37409D01*
Y37408D01*
Y37407D01*
X112473Y37366D01*
X112470Y37327D01*
X112466Y37289D01*
X112460Y37252D01*
X112454Y37217D01*
X112446Y37184D01*
X112439Y37152D01*
X112430Y37124D01*
X112422Y37098D01*
X112415Y37074D01*
X112407Y37054D01*
X112400Y37037D01*
X112394Y37023D01*
X112390Y37013D01*
X112387Y37007D01*
X112386Y37004D01*
X112369Y36970D01*
X112349Y36939D01*
X112330Y36909D01*
X112308Y36882D01*
X112286Y36857D01*
X112264Y36833D01*
X112242Y36812D01*
X112222Y36794D01*
X112201Y36777D01*
X112182Y36762D01*
X112166Y36749D01*
X112151Y36739D01*
X112139Y36732D01*
X112130Y36725D01*
X112125Y36722D01*
X112122Y36721D01*
X112089Y36703D01*
X112054Y36688D01*
X112019Y36675D01*
X111983Y36663D01*
X111948Y36654D01*
X111914Y36646D01*
X111882Y36639D01*
X111850Y36634D01*
X111820Y36630D01*
X111793Y36627D01*
X111769Y36625D01*
X111749Y36623D01*
X111732D01*
X111726Y36622D01*
X111709D01*
X111674Y36623D01*
X111640Y36625D01*
X111606Y36628D01*
X111573Y36633D01*
X111541Y36638D01*
X111511Y36643D01*
X111483Y36650D01*
X111455Y36657D01*
X111431Y36663D01*
X111410Y36670D01*
X111390Y36675D01*
X111374Y36680D01*
X111360Y36685D01*
X111350Y36688D01*
X111344Y36690D01*
X111342Y36691D01*
X111309Y36704D01*
X111278Y36719D01*
X111248Y36733D01*
X111222Y36747D01*
X111197Y36761D01*
X111174Y36774D01*
X111153Y36787D01*
X111135Y36799D01*
X111119Y36811D01*
X111104Y36822D01*
X111091Y36831D01*
X111082Y36840D01*
X111074Y36846D01*
X111068Y36851D01*
X111065Y36854D01*
X111064Y36855D01*
Y37457D01*
X111720D01*
Y37202D01*
X111372D01*
Y37010D01*
X111399Y36990D01*
X111427Y36973D01*
X111454Y36957D01*
X111480Y36944D01*
X111492Y36939D01*
X111503Y36933D01*
X111513Y36929D01*
X111521Y36926D01*
X111527Y36922D01*
X111533Y36921D01*
X111536Y36919D01*
X111537D01*
X111573Y36907D01*
X111608Y36898D01*
X111640Y36891D01*
X111655Y36889D01*
X111669Y36887D01*
X111682Y36885D01*
X111693Y36884D01*
X111704Y36883D01*
X111713D01*
X111719Y36882D01*
X111729D01*
X111764Y36883D01*
X111798Y36888D01*
X111829Y36894D01*
X111859Y36903D01*
X111887Y36914D01*
X111913Y36925D01*
X111936Y36937D01*
X111958Y36950D01*
X111976Y36962D01*
X111994Y36974D01*
X112008Y36986D01*
X112020Y36996D01*
X112030Y37004D01*
X112036Y37011D01*
X112041Y37015D01*
X112042Y37016D01*
X112063Y37042D01*
X112081Y37072D01*
X112097Y37104D01*
X112110Y37136D01*
X112122Y37169D01*
X112131Y37203D01*
X112140Y37235D01*
X112145Y37268D01*
X112151Y37299D01*
X112154Y37327D01*
X112157Y37352D01*
X112158Y37375D01*
X112160Y37385D01*
Y37393D01*
X112161Y37400D01*
Y37407D01*
Y37412D01*
Y37415D01*
Y37417D01*
Y37418D01*
X112160Y37463D01*
X112155Y37506D01*
X112150Y37545D01*
X112142Y37582D01*
X112133Y37616D01*
X112124Y37646D01*
X112113Y37675D01*
X112102Y37700D01*
X112091Y37721D01*
X112080Y37740D01*
X112070Y37756D01*
X112061Y37769D01*
X112054Y37780D01*
X112048Y37788D01*
X112044Y37792D01*
X112043Y37793D01*
X112020Y37816D01*
X111995Y37836D01*
X111970Y37852D01*
X111944Y37868D01*
X111917Y37880D01*
X111890Y37889D01*
X111865Y37898D01*
X111840Y37905D01*
X111816Y37910D01*
X111795Y37914D01*
X111776Y37917D01*
X111758Y37919D01*
X111745Y37920D01*
X111734Y37921D01*
X111726D01*
X111702Y37920D01*
X111679Y37918D01*
X111656Y37914D01*
X111636Y37911D01*
X111617Y37906D01*
X111598Y37900D01*
X111582Y37895D01*
X111567Y37888D01*
X111554Y37882D01*
X111541Y37876D01*
X111531Y37871D01*
X111522Y37865D01*
X111515Y37862D01*
X111511Y37859D01*
X111508Y37857D01*
X111507Y37856D01*
X111490Y37844D01*
X111476Y37829D01*
X111463Y37815D01*
X111450Y37801D01*
X111439Y37787D01*
X111429Y37772D01*
X111421Y37758D01*
X111413Y37744D01*
X111406Y37731D01*
X111401Y37719D01*
X111395Y37708D01*
X111392Y37700D01*
X111389Y37692D01*
X111387Y37685D01*
X111386Y37682D01*
Y37681D01*
X111084Y37738D01*
X111093Y37776D01*
X111106Y37811D01*
X111120Y37845D01*
X111135Y37876D01*
X111151Y37905D01*
X111169Y37932D01*
X111185Y37956D01*
X111203Y37978D01*
X111219Y37997D01*
X111235Y38015D01*
X111249Y38029D01*
X111262Y38041D01*
X111272Y38051D01*
X111281Y38057D01*
X111285Y38062D01*
X111287Y38063D01*
X111318Y38083D01*
X111352Y38102D01*
X111387Y38118D01*
X111423Y38131D01*
X111459Y38143D01*
X111496Y38152D01*
X111532Y38161D01*
X111565Y38166D01*
X111598Y38172D01*
X111629Y38175D01*
X111656Y38178D01*
X111680Y38179D01*
X111690Y38180D01*
X111698D01*
X111707Y38181D01*
X111726D01*
X111765Y38180D01*
D02*
G37*
G36*
X109262Y36648D02*
X108660D01*
X108630Y36649D01*
X108603Y36651D01*
X108577Y36653D01*
X108553Y36656D01*
X108530Y36658D01*
X108510Y36661D01*
X108492Y36664D01*
X108475Y36666D01*
X108461Y36670D01*
X108448Y36672D01*
X108438Y36675D01*
X108431Y36676D01*
X108424Y36678D01*
X108421Y36680D01*
X108420D01*
X108395Y36688D01*
X108372Y36697D01*
X108350Y36707D01*
X108329Y36716D01*
X108311Y36726D01*
X108293Y36736D01*
X108277Y36746D01*
X108263Y36756D01*
X108250Y36764D01*
X108239Y36773D01*
X108229Y36780D01*
X108220Y36786D01*
X108215Y36792D01*
X108209Y36796D01*
X108207Y36798D01*
X108206Y36799D01*
X108186Y36819D01*
X108169Y36841D01*
X108153Y36863D01*
X108136Y36884D01*
X108122Y36907D01*
X108109Y36929D01*
X108097Y36951D01*
X108086Y36972D01*
X108076Y36991D01*
X108068Y37009D01*
X108061Y37025D01*
X108056Y37039D01*
X108050Y37050D01*
X108047Y37059D01*
X108046Y37064D01*
X108045Y37066D01*
X108036Y37093D01*
X108029Y37119D01*
X108018Y37173D01*
X108009Y37227D01*
X108007Y37253D01*
X108003Y37277D01*
X108002Y37300D01*
X108000Y37320D01*
X107999Y37340D01*
Y37355D01*
X107998Y37368D01*
Y37378D01*
Y37385D01*
Y37387D01*
Y37426D01*
X108000Y37463D01*
X108002Y37499D01*
X108005Y37532D01*
X108010Y37563D01*
X108014Y37593D01*
X108019Y37620D01*
X108023Y37645D01*
X108027Y37667D01*
X108032Y37687D01*
X108036Y37703D01*
X108040Y37717D01*
X108044Y37729D01*
X108046Y37737D01*
X108047Y37742D01*
X108048Y37743D01*
X108058Y37769D01*
X108069Y37796D01*
X108080Y37820D01*
X108092Y37843D01*
X108104Y37864D01*
X108116Y37884D01*
X108126Y37902D01*
X108139Y37920D01*
X108149Y37935D01*
X108159Y37948D01*
X108168Y37960D01*
X108177Y37970D01*
X108183Y37978D01*
X108188Y37983D01*
X108191Y37986D01*
X108192Y37988D01*
X108210Y38006D01*
X108229Y38022D01*
X108249Y38038D01*
X108267Y38052D01*
X108287Y38064D01*
X108305Y38076D01*
X108324Y38086D01*
X108341Y38095D01*
X108358Y38103D01*
X108373Y38109D01*
X108386Y38115D01*
X108398Y38119D01*
X108407Y38123D01*
X108414Y38125D01*
X108419Y38127D01*
X108420D01*
X108439Y38132D01*
X108460Y38137D01*
X108483Y38141D01*
X108506Y38144D01*
X108554Y38149D01*
X108577Y38151D01*
X108600Y38153D01*
X108621Y38154D01*
X108641Y38155D01*
X108660D01*
X108676Y38156D01*
X109262D01*
Y36648D01*
D02*
G37*
G36*
X111575Y28773D02*
X110972D01*
X110942Y28774D01*
X110915Y28776D01*
X110889Y28779D01*
X110865Y28781D01*
X110842Y28783D01*
X110823Y28786D01*
X110804Y28790D01*
X110788Y28792D01*
X110774Y28795D01*
X110760Y28797D01*
X110751Y28800D01*
X110743Y28802D01*
X110737Y28804D01*
X110733Y28805D01*
X110732D01*
X110707Y28814D01*
X110684Y28822D01*
X110662Y28832D01*
X110642Y28842D01*
X110623Y28852D01*
X110606Y28862D01*
X110589Y28871D01*
X110575Y28881D01*
X110562Y28890D01*
X110551Y28899D01*
X110541Y28905D01*
X110533Y28912D01*
X110527Y28917D01*
X110522Y28921D01*
X110520Y28924D01*
X110519Y28925D01*
X110499Y28944D01*
X110482Y28966D01*
X110465Y28988D01*
X110449Y29010D01*
X110435Y29033D01*
X110422Y29054D01*
X110409Y29076D01*
X110399Y29097D01*
X110389Y29117D01*
X110380Y29134D01*
X110374Y29150D01*
X110368Y29165D01*
X110363Y29175D01*
X110359Y29184D01*
X110358Y29190D01*
X110357Y29192D01*
X110348Y29218D01*
X110342Y29244D01*
X110330Y29299D01*
X110321Y29352D01*
X110319Y29378D01*
X110316Y29402D01*
X110315Y29425D01*
X110312Y29446D01*
X110311Y29465D01*
Y29481D01*
X110310Y29494D01*
Y29504D01*
Y29510D01*
Y29512D01*
Y29552D01*
X110312Y29589D01*
X110315Y29625D01*
X110318Y29657D01*
X110322Y29689D01*
X110327Y29718D01*
X110331Y29746D01*
X110335Y29771D01*
X110340Y29792D01*
X110344Y29812D01*
X110348Y29828D01*
X110353Y29843D01*
X110356Y29855D01*
X110358Y29862D01*
X110359Y29868D01*
X110361Y29869D01*
X110370Y29895D01*
X110381Y29921D01*
X110392Y29945D01*
X110404Y29968D01*
X110416Y29990D01*
X110428Y30009D01*
X110439Y30028D01*
X110451Y30045D01*
X110462Y30061D01*
X110472Y30074D01*
X110480Y30086D01*
X110489Y30095D01*
X110496Y30103D01*
X110500Y30108D01*
X110503Y30112D01*
X110504Y30113D01*
X110523Y30131D01*
X110541Y30148D01*
X110561Y30163D01*
X110580Y30177D01*
X110599Y30189D01*
X110618Y30201D01*
X110636Y30211D01*
X110654Y30221D01*
X110670Y30228D01*
X110685Y30235D01*
X110698Y30240D01*
X110710Y30245D01*
X110719Y30248D01*
X110727Y30250D01*
X110731Y30252D01*
X110732D01*
X110752Y30258D01*
X110773Y30262D01*
X110795Y30267D01*
X110818Y30270D01*
X110866Y30274D01*
X110889Y30276D01*
X110912Y30279D01*
X110934Y30280D01*
X110953Y30281D01*
X110972D01*
X110988Y30282D01*
X111575D01*
Y28773D01*
D02*
G37*
G36*
X110052D02*
X109748D01*
Y29342D01*
X109512D01*
X109476Y29343D01*
X109444Y29344D01*
X109413Y29346D01*
X109385Y29347D01*
X109359Y29349D01*
X109336Y29351D01*
X109315Y29353D01*
X109296Y29354D01*
X109280Y29356D01*
X109266Y29359D01*
X109255Y29360D01*
X109245Y29361D01*
X109240Y29362D01*
X109236Y29363D01*
X109234D01*
X109204Y29371D01*
X109176Y29381D01*
X109150Y29394D01*
X109125Y29406D01*
X109115Y29411D01*
X109105Y29416D01*
X109097Y29422D01*
X109090Y29426D01*
X109084Y29430D01*
X109080Y29433D01*
X109078Y29434D01*
X109076Y29435D01*
X109049Y29457D01*
X109024Y29481D01*
X109002Y29506D01*
X108984Y29530D01*
X108969Y29550D01*
X108963Y29560D01*
X108958Y29568D01*
X108954Y29574D01*
X108951Y29579D01*
X108950Y29582D01*
X108949Y29583D01*
X108940Y29602D01*
X108932Y29620D01*
X108920Y29659D01*
X108910Y29699D01*
X108906Y29718D01*
X108904Y29736D01*
X108902Y29753D01*
X108900Y29768D01*
X108899Y29783D01*
Y29795D01*
X108898Y29804D01*
Y29811D01*
Y29816D01*
Y29818D01*
X108899Y29850D01*
X108901Y29882D01*
X108905Y29911D01*
X108912Y29940D01*
X108918Y29966D01*
X108926Y29990D01*
X108934Y30011D01*
X108941Y30031D01*
X108950Y30050D01*
X108958Y30065D01*
X108965Y30079D01*
X108972Y30090D01*
X108977Y30099D01*
X108982Y30105D01*
X108985Y30110D01*
X108986Y30111D01*
X109002Y30131D01*
X109020Y30150D01*
X109038Y30167D01*
X109057Y30183D01*
X109075Y30196D01*
X109093Y30208D01*
X109110Y30219D01*
X109127Y30227D01*
X109143Y30236D01*
X109157Y30243D01*
X109170Y30248D01*
X109181Y30252D01*
X109190Y30255D01*
X109197Y30257D01*
X109202Y30259D01*
X109203D01*
X109212Y30261D01*
X109220Y30263D01*
X109242Y30267D01*
X109267Y30270D01*
X109294Y30272D01*
X109324Y30274D01*
X109354Y30276D01*
X109415Y30279D01*
X109445Y30280D01*
X109472Y30281D01*
X109497D01*
X109520Y30282D01*
X110052D01*
Y28773D01*
D02*
G37*
G36*
X110205Y24836D02*
X109922D01*
Y26023D01*
X109625Y24836D01*
X109332D01*
X109033Y26023D01*
X109032Y24836D01*
X108749D01*
Y26345D01*
X109207D01*
X109476Y25315D01*
X109749Y26345D01*
X110205D01*
Y24836D01*
D02*
G37*
G36*
X111723D02*
X111120D01*
X111091Y24837D01*
X111064Y24839D01*
X111037Y24842D01*
X111013Y24844D01*
X110991Y24846D01*
X110971Y24849D01*
X110952Y24853D01*
X110936Y24855D01*
X110922Y24858D01*
X110909Y24860D01*
X110899Y24863D01*
X110891Y24865D01*
X110885Y24867D01*
X110881Y24868D01*
X110880D01*
X110855Y24877D01*
X110832Y24885D01*
X110811Y24895D01*
X110790Y24905D01*
X110771Y24915D01*
X110754Y24925D01*
X110738Y24934D01*
X110723Y24944D01*
X110710Y24953D01*
X110699Y24962D01*
X110690Y24968D01*
X110681Y24975D01*
X110676Y24980D01*
X110670Y24984D01*
X110668Y24987D01*
X110667Y24988D01*
X110647Y25007D01*
X110630Y25029D01*
X110613Y25051D01*
X110597Y25073D01*
X110583Y25096D01*
X110570Y25117D01*
X110558Y25139D01*
X110547Y25160D01*
X110537Y25180D01*
X110528Y25197D01*
X110522Y25213D01*
X110516Y25228D01*
X110511Y25238D01*
X110508Y25247D01*
X110506Y25253D01*
X110505Y25255D01*
X110497Y25281D01*
X110490Y25307D01*
X110478Y25362D01*
X110469Y25415D01*
X110467Y25441D01*
X110464Y25465D01*
X110463Y25488D01*
X110461Y25509D01*
X110460Y25528D01*
Y25544D01*
X110459Y25557D01*
Y25567D01*
Y25573D01*
Y25575D01*
Y25615D01*
X110461Y25652D01*
X110463Y25688D01*
X110466Y25720D01*
X110471Y25752D01*
X110475Y25781D01*
X110479Y25809D01*
X110484Y25834D01*
X110488Y25855D01*
X110492Y25875D01*
X110497Y25891D01*
X110501Y25906D01*
X110504Y25918D01*
X110506Y25925D01*
X110508Y25931D01*
X110509Y25932D01*
X110519Y25958D01*
X110529Y25984D01*
X110540Y26008D01*
X110552Y26031D01*
X110564Y26053D01*
X110576Y26072D01*
X110587Y26091D01*
X110599Y26108D01*
X110610Y26124D01*
X110620Y26137D01*
X110629Y26149D01*
X110637Y26158D01*
X110644Y26166D01*
X110648Y26171D01*
X110652Y26175D01*
X110653Y26176D01*
X110671Y26194D01*
X110690Y26211D01*
X110709Y26226D01*
X110728Y26240D01*
X110747Y26252D01*
X110766Y26264D01*
X110784Y26274D01*
X110802Y26284D01*
X110818Y26291D01*
X110834Y26298D01*
X110847Y26303D01*
X110859Y26308D01*
X110867Y26311D01*
X110875Y26313D01*
X110879Y26315D01*
X110880D01*
X110900Y26321D01*
X110921Y26325D01*
X110944Y26330D01*
X110967Y26333D01*
X111014Y26337D01*
X111037Y26339D01*
X111060Y26342D01*
X111082Y26343D01*
X111102Y26344D01*
X111120D01*
X111137Y26345D01*
X111723D01*
Y24836D01*
D02*
G37*
G36*
X108748Y22413D02*
X108784Y22410D01*
X108818Y22404D01*
X108851Y22398D01*
X108880Y22390D01*
X108909Y22381D01*
X108935Y22371D01*
X108958Y22362D01*
X108978Y22352D01*
X108998Y22342D01*
X109013Y22333D01*
X109027Y22325D01*
X109037Y22319D01*
X109045Y22314D01*
X109050Y22310D01*
X109051Y22309D01*
X109075Y22288D01*
X109097Y22264D01*
X109117Y22239D01*
X109133Y22212D01*
X109148Y22184D01*
X109161Y22155D01*
X109172Y22127D01*
X109182Y22099D01*
X109190Y22073D01*
X109196Y22048D01*
X109202Y22026D01*
X109205Y22006D01*
X109208Y21990D01*
X109209Y21983D01*
X109211Y21978D01*
Y21973D01*
X109212Y21970D01*
Y21968D01*
Y21967D01*
X108924Y21939D01*
X108922Y21961D01*
X108920Y21982D01*
X108915Y22002D01*
X108911Y22020D01*
X108906Y22037D01*
X108901Y22052D01*
X108896Y22065D01*
X108890Y22077D01*
X108885Y22087D01*
X108880Y22096D01*
X108876Y22103D01*
X108871Y22109D01*
X108868Y22114D01*
X108865Y22117D01*
X108864Y22118D01*
X108863Y22119D01*
X108852Y22129D01*
X108841Y22138D01*
X108829Y22145D01*
X108818Y22151D01*
X108793Y22161D01*
X108770Y22167D01*
X108749Y22171D01*
X108741Y22173D01*
X108733D01*
X108727Y22174D01*
X108718D01*
X108702Y22173D01*
X108685Y22172D01*
X108657Y22166D01*
X108632Y22158D01*
X108611Y22148D01*
X108603Y22143D01*
X108596Y22138D01*
X108589Y22134D01*
X108584Y22130D01*
X108579Y22126D01*
X108576Y22124D01*
X108575Y22123D01*
X108574Y22122D01*
X108565Y22112D01*
X108556Y22100D01*
X108544Y22077D01*
X108535Y22052D01*
X108528Y22028D01*
X108524Y22006D01*
X108523Y21997D01*
Y21990D01*
X108522Y21982D01*
Y21978D01*
Y21975D01*
Y21973D01*
X108523Y21957D01*
X108524Y21941D01*
X108531Y21908D01*
X108540Y21879D01*
X108551Y21851D01*
X108558Y21839D01*
X108563Y21828D01*
X108567Y21820D01*
X108572Y21811D01*
X108576Y21804D01*
X108579Y21800D01*
X108581Y21797D01*
X108582Y21796D01*
X108591Y21783D01*
X108605Y21766D01*
X108620Y21749D01*
X108638Y21730D01*
X108657Y21710D01*
X108677Y21690D01*
X108718Y21649D01*
X108739Y21629D01*
X108757Y21610D01*
X108774Y21594D01*
X108790Y21579D01*
X108803Y21567D01*
X108813Y21557D01*
X108819Y21552D01*
X108820Y21551D01*
X108821Y21550D01*
X108865Y21508D01*
X108905Y21469D01*
X108941Y21433D01*
X108975Y21398D01*
X109004Y21365D01*
X109032Y21336D01*
X109055Y21309D01*
X109075Y21283D01*
X109093Y21262D01*
X109108Y21242D01*
X109121Y21226D01*
X109131Y21213D01*
X109137Y21202D01*
X109143Y21194D01*
X109146Y21189D01*
X109147Y21188D01*
X109161Y21161D01*
X109175Y21136D01*
X109187Y21110D01*
X109197Y21085D01*
X109206Y21060D01*
X109214Y21037D01*
X109221Y21014D01*
X109227Y20992D01*
X109232Y20973D01*
X109236Y20955D01*
X109239Y20939D01*
X109241Y20926D01*
X109243Y20915D01*
X109244Y20906D01*
X109245Y20902D01*
Y20900D01*
X108232D01*
Y21168D01*
X108807D01*
X108799Y21182D01*
X108789Y21196D01*
X108779Y21211D01*
X108769Y21223D01*
X108761Y21232D01*
X108754Y21241D01*
X108749Y21245D01*
X108748Y21248D01*
X108741Y21256D01*
X108730Y21267D01*
X108719Y21278D01*
X108706Y21291D01*
X108676Y21318D01*
X108647Y21347D01*
X108633Y21360D01*
X108620Y21373D01*
X108607Y21384D01*
X108596Y21394D01*
X108587Y21402D01*
X108579Y21409D01*
X108575Y21413D01*
X108574Y21414D01*
X108549Y21437D01*
X108526Y21459D01*
X108505Y21479D01*
X108487Y21497D01*
X108469Y21515D01*
X108454Y21531D01*
X108440Y21545D01*
X108428Y21558D01*
X108417Y21569D01*
X108408Y21579D01*
X108401Y21588D01*
X108394Y21595D01*
X108390Y21601D01*
X108387Y21604D01*
X108385Y21606D01*
X108384Y21607D01*
X108357Y21644D01*
X108333Y21679D01*
X108314Y21712D01*
X108305Y21727D01*
X108297Y21741D01*
X108291Y21753D01*
X108285Y21765D01*
X108280Y21775D01*
X108275Y21783D01*
X108273Y21790D01*
X108271Y21795D01*
X108269Y21798D01*
Y21799D01*
X108257Y21834D01*
X108247Y21869D01*
X108240Y21902D01*
X108236Y21931D01*
X108235Y21944D01*
X108234Y21956D01*
X108233Y21967D01*
X108232Y21976D01*
Y21983D01*
Y21989D01*
Y21992D01*
Y21993D01*
X108233Y22026D01*
X108237Y22057D01*
X108244Y22088D01*
X108251Y22116D01*
X108261Y22142D01*
X108272Y22167D01*
X108284Y22189D01*
X108296Y22210D01*
X108308Y22229D01*
X108320Y22246D01*
X108331Y22259D01*
X108341Y22271D01*
X108348Y22281D01*
X108355Y22287D01*
X108359Y22292D01*
X108360Y22293D01*
X108385Y22315D01*
X108412Y22333D01*
X108440Y22348D01*
X108469Y22363D01*
X108498Y22375D01*
X108527Y22384D01*
X108556Y22392D01*
X108584Y22399D01*
X108610Y22404D01*
X108634Y22407D01*
X108656Y22411D01*
X108674Y22412D01*
X108689Y22413D01*
X108702Y22414D01*
X108711D01*
X108748Y22413D01*
D02*
G37*
G36*
X111565Y22432D02*
X111593Y22431D01*
X111649Y22425D01*
X111700Y22414D01*
X111749Y22401D01*
X111795Y22386D01*
X111836Y22367D01*
X111876Y22348D01*
X111910Y22329D01*
X111941Y22309D01*
X111968Y22291D01*
X111992Y22273D01*
X112012Y22257D01*
X112027Y22244D01*
X112038Y22233D01*
X112041Y22230D01*
X112045Y22226D01*
X112046Y22225D01*
X112047Y22224D01*
X112064Y22205D01*
X112081Y22184D01*
X112111Y22139D01*
X112136Y22093D01*
X112159Y22045D01*
X112178Y21996D01*
X112194Y21948D01*
X112206Y21900D01*
X112217Y21854D01*
X112224Y21810D01*
X112231Y21770D01*
X112233Y21751D01*
X112235Y21734D01*
X112236Y21717D01*
X112238Y21702D01*
X112239Y21688D01*
X112240Y21676D01*
Y21665D01*
X112241Y21656D01*
Y21650D01*
Y21644D01*
Y21641D01*
Y21640D01*
X112240Y21607D01*
X112239Y21575D01*
X112232Y21513D01*
X112223Y21456D01*
X112210Y21402D01*
X112196Y21352D01*
X112180Y21305D01*
X112162Y21264D01*
X112144Y21226D01*
X112126Y21192D01*
X112109Y21162D01*
X112100Y21149D01*
X112092Y21137D01*
X112085Y21126D01*
X112078Y21117D01*
X112072Y21108D01*
X112065Y21100D01*
X112061Y21094D01*
X112057Y21088D01*
X112052Y21084D01*
X112050Y21081D01*
X112048Y21080D01*
Y21079D01*
X112029Y21060D01*
X112011Y21043D01*
X111991Y21026D01*
X111971Y21011D01*
X111930Y20984D01*
X111890Y20960D01*
X111847Y20940D01*
X111807Y20924D01*
X111767Y20910D01*
X111728Y20900D01*
X111693Y20891D01*
X111660Y20885D01*
X111629Y20880D01*
X111616Y20878D01*
X111604Y20877D01*
X111593Y20876D01*
X111583Y20875D01*
X111575D01*
X111567Y20874D01*
X111554D01*
X111509Y20875D01*
X111467Y20879D01*
X111426Y20885D01*
X111389Y20892D01*
X111354Y20902D01*
X111321Y20912D01*
X111290Y20923D01*
X111263Y20934D01*
X111238Y20944D01*
X111216Y20955D01*
X111198Y20966D01*
X111182Y20975D01*
X111170Y20983D01*
X111162Y20988D01*
X111156Y20992D01*
X111154Y20994D01*
X111126Y21017D01*
X111098Y21044D01*
X111074Y21072D01*
X111051Y21102D01*
X111031Y21132D01*
X111012Y21162D01*
X110996Y21193D01*
X110982Y21223D01*
X110969Y21250D01*
X110958Y21276D01*
X110948Y21300D01*
X110940Y21321D01*
X110935Y21337D01*
X110933Y21344D01*
X110931Y21350D01*
X110930Y21354D01*
X110928Y21358D01*
X110927Y21360D01*
Y21361D01*
X111223Y21455D01*
X111230Y21424D01*
X111239Y21396D01*
X111249Y21371D01*
X111259Y21346D01*
X111268Y21324D01*
X111279Y21304D01*
X111290Y21286D01*
X111300Y21270D01*
X111310Y21256D01*
X111319Y21244D01*
X111327Y21233D01*
X111335Y21226D01*
X111340Y21219D01*
X111345Y21214D01*
X111348Y21212D01*
X111349Y21211D01*
X111365Y21197D01*
X111383Y21185D01*
X111400Y21176D01*
X111419Y21167D01*
X111436Y21159D01*
X111454Y21153D01*
X111470Y21147D01*
X111485Y21144D01*
X111501Y21141D01*
X111515Y21138D01*
X111527Y21136D01*
X111537Y21135D01*
X111545Y21134D01*
X111557D01*
X111588Y21135D01*
X111616Y21140D01*
X111643Y21145D01*
X111669Y21153D01*
X111693Y21162D01*
X111714Y21172D01*
X111734Y21183D01*
X111752Y21195D01*
X111769Y21206D01*
X111783Y21217D01*
X111796Y21227D01*
X111806Y21237D01*
X111813Y21244D01*
X111820Y21250D01*
X111823Y21254D01*
X111824Y21255D01*
X111843Y21280D01*
X111858Y21307D01*
X111872Y21338D01*
X111883Y21370D01*
X111893Y21403D01*
X111902Y21437D01*
X111908Y21471D01*
X111914Y21504D01*
X111918Y21535D01*
X111921Y21565D01*
X111924Y21592D01*
X111925Y21615D01*
X111926Y21626D01*
Y21634D01*
X111927Y21642D01*
Y21650D01*
Y21654D01*
Y21658D01*
Y21661D01*
Y21662D01*
X111926Y21711D01*
X111923Y21757D01*
X111917Y21798D01*
X111910Y21837D01*
X111903Y21872D01*
X111894Y21904D01*
X111884Y21933D01*
X111874Y21958D01*
X111866Y21981D01*
X111856Y22000D01*
X111847Y22016D01*
X111840Y22029D01*
X111833Y22039D01*
X111828Y22047D01*
X111824Y22051D01*
X111823Y22052D01*
X111802Y22074D01*
X111782Y22092D01*
X111759Y22107D01*
X111737Y22122D01*
X111714Y22134D01*
X111691Y22143D01*
X111670Y22151D01*
X111648Y22158D01*
X111628Y22163D01*
X111610Y22166D01*
X111593Y22170D01*
X111579Y22171D01*
X111568Y22172D01*
X111559Y22173D01*
X111552D01*
X111529Y22172D01*
X111508Y22170D01*
X111487Y22166D01*
X111468Y22162D01*
X111451Y22157D01*
X111433Y22151D01*
X111418Y22145D01*
X111402Y22139D01*
X111390Y22133D01*
X111379Y22126D01*
X111369Y22121D01*
X111361Y22115D01*
X111355Y22111D01*
X111349Y22107D01*
X111347Y22105D01*
X111346Y22104D01*
X111331Y22091D01*
X111316Y22077D01*
X111303Y22062D01*
X111292Y22047D01*
X111283Y22031D01*
X111273Y22016D01*
X111258Y21986D01*
X111252Y21973D01*
X111247Y21960D01*
X111242Y21949D01*
X111239Y21940D01*
X111237Y21931D01*
X111235Y21926D01*
X111234Y21921D01*
Y21920D01*
X110932Y21992D01*
X110942Y22025D01*
X110953Y22056D01*
X110965Y22085D01*
X110977Y22112D01*
X110991Y22136D01*
X111004Y22159D01*
X111017Y22179D01*
X111029Y22198D01*
X111041Y22214D01*
X111051Y22229D01*
X111061Y22242D01*
X111070Y22251D01*
X111077Y22259D01*
X111082Y22264D01*
X111085Y22268D01*
X111086Y22269D01*
X111120Y22298D01*
X111155Y22323D01*
X111192Y22345D01*
X111229Y22364D01*
X111267Y22380D01*
X111304Y22393D01*
X111342Y22404D01*
X111376Y22413D01*
X111409Y22419D01*
X111440Y22425D01*
X111466Y22428D01*
X111490Y22431D01*
X111500D01*
X111509Y22432D01*
X111517D01*
X111523Y22433D01*
X111536D01*
X111565Y22432D01*
D02*
G37*
G36*
X110043D02*
X110072Y22431D01*
X110127Y22425D01*
X110178Y22414D01*
X110228Y22401D01*
X110273Y22386D01*
X110315Y22367D01*
X110354Y22348D01*
X110389Y22329D01*
X110419Y22309D01*
X110447Y22291D01*
X110471Y22273D01*
X110490Y22257D01*
X110505Y22244D01*
X110516Y22233D01*
X110520Y22230D01*
X110523Y22226D01*
X110524Y22225D01*
X110525Y22224D01*
X110543Y22205D01*
X110559Y22184D01*
X110589Y22139D01*
X110615Y22093D01*
X110637Y22045D01*
X110656Y21996D01*
X110672Y21948D01*
X110684Y21900D01*
X110695Y21854D01*
X110703Y21810D01*
X110709Y21770D01*
X110712Y21751D01*
X110714Y21734D01*
X110715Y21717D01*
X110716Y21702D01*
X110717Y21688D01*
X110718Y21676D01*
Y21665D01*
X110719Y21656D01*
Y21650D01*
Y21644D01*
Y21641D01*
Y21640D01*
X110718Y21607D01*
X110717Y21575D01*
X110710Y21513D01*
X110702Y21456D01*
X110689Y21402D01*
X110674Y21352D01*
X110658Y21305D01*
X110641Y21264D01*
X110622Y21226D01*
X110605Y21192D01*
X110587Y21162D01*
X110579Y21149D01*
X110571Y21137D01*
X110563Y21126D01*
X110557Y21117D01*
X110550Y21108D01*
X110544Y21100D01*
X110539Y21094D01*
X110535Y21088D01*
X110530Y21084D01*
X110528Y21081D01*
X110526Y21080D01*
Y21079D01*
X110508Y21060D01*
X110489Y21043D01*
X110469Y21026D01*
X110450Y21011D01*
X110408Y20984D01*
X110368Y20960D01*
X110326Y20940D01*
X110285Y20924D01*
X110245Y20910D01*
X110207Y20900D01*
X110171Y20891D01*
X110138Y20885D01*
X110108Y20880D01*
X110094Y20878D01*
X110082Y20877D01*
X110072Y20876D01*
X110062Y20875D01*
X110053D01*
X110046Y20874D01*
X110032D01*
X109988Y20875D01*
X109945Y20879D01*
X109905Y20885D01*
X109868Y20892D01*
X109832Y20902D01*
X109799Y20912D01*
X109769Y20923D01*
X109741Y20934D01*
X109716Y20944D01*
X109695Y20955D01*
X109676Y20966D01*
X109661Y20975D01*
X109649Y20983D01*
X109640Y20988D01*
X109634Y20992D01*
X109632Y20994D01*
X109604Y21017D01*
X109577Y21044D01*
X109553Y21072D01*
X109530Y21102D01*
X109509Y21132D01*
X109491Y21162D01*
X109474Y21193D01*
X109460Y21223D01*
X109447Y21250D01*
X109436Y21276D01*
X109426Y21300D01*
X109419Y21321D01*
X109413Y21337D01*
X109411Y21344D01*
X109409Y21350D01*
X109408Y21354D01*
X109407Y21358D01*
X109406Y21360D01*
Y21361D01*
X109701Y21455D01*
X109709Y21424D01*
X109717Y21396D01*
X109727Y21371D01*
X109737Y21346D01*
X109747Y21324D01*
X109758Y21304D01*
X109769Y21286D01*
X109778Y21270D01*
X109788Y21256D01*
X109797Y21244D01*
X109806Y21233D01*
X109813Y21226D01*
X109819Y21219D01*
X109823Y21214D01*
X109826Y21212D01*
X109827Y21211D01*
X109844Y21197D01*
X109861Y21185D01*
X109879Y21176D01*
X109897Y21167D01*
X109915Y21159D01*
X109932Y21153D01*
X109949Y21147D01*
X109964Y21144D01*
X109979Y21141D01*
X109993Y21138D01*
X110005Y21136D01*
X110015Y21135D01*
X110024Y21134D01*
X110036D01*
X110066Y21135D01*
X110094Y21140D01*
X110122Y21145D01*
X110147Y21153D01*
X110171Y21162D01*
X110193Y21172D01*
X110212Y21183D01*
X110231Y21195D01*
X110247Y21206D01*
X110261Y21217D01*
X110274Y21227D01*
X110284Y21237D01*
X110292Y21244D01*
X110298Y21250D01*
X110302Y21254D01*
X110303Y21255D01*
X110321Y21280D01*
X110336Y21307D01*
X110351Y21338D01*
X110362Y21370D01*
X110371Y21403D01*
X110380Y21437D01*
X110387Y21471D01*
X110392Y21504D01*
X110397Y21535D01*
X110400Y21565D01*
X110402Y21592D01*
X110403Y21615D01*
X110404Y21626D01*
Y21634D01*
X110405Y21642D01*
Y21650D01*
Y21654D01*
Y21658D01*
Y21661D01*
Y21662D01*
X110404Y21711D01*
X110401Y21757D01*
X110395Y21798D01*
X110389Y21837D01*
X110381Y21872D01*
X110372Y21904D01*
X110363Y21933D01*
X110353Y21958D01*
X110344Y21981D01*
X110334Y22000D01*
X110326Y22016D01*
X110318Y22029D01*
X110311Y22039D01*
X110306Y22047D01*
X110303Y22051D01*
X110302Y22052D01*
X110281Y22074D01*
X110260Y22092D01*
X110237Y22107D01*
X110215Y22122D01*
X110193Y22134D01*
X110170Y22143D01*
X110148Y22151D01*
X110126Y22158D01*
X110107Y22163D01*
X110088Y22166D01*
X110072Y22170D01*
X110057Y22171D01*
X110047Y22172D01*
X110038Y22173D01*
X110030D01*
X110007Y22172D01*
X109987Y22170D01*
X109966Y22166D01*
X109946Y22162D01*
X109929Y22157D01*
X109911Y22151D01*
X109896Y22145D01*
X109881Y22139D01*
X109869Y22133D01*
X109857Y22126D01*
X109847Y22121D01*
X109839Y22115D01*
X109833Y22111D01*
X109827Y22107D01*
X109825Y22105D01*
X109824Y22104D01*
X109809Y22091D01*
X109795Y22077D01*
X109782Y22062D01*
X109771Y22047D01*
X109761Y22031D01*
X109751Y22016D01*
X109736Y21986D01*
X109731Y21973D01*
X109725Y21960D01*
X109721Y21949D01*
X109717Y21940D01*
X109715Y21931D01*
X109713Y21926D01*
X109712Y21921D01*
Y21920D01*
X109410Y21992D01*
X109420Y22025D01*
X109432Y22056D01*
X109444Y22085D01*
X109456Y22112D01*
X109469Y22136D01*
X109482Y22159D01*
X109495Y22179D01*
X109507Y22198D01*
X109519Y22214D01*
X109530Y22229D01*
X109540Y22242D01*
X109548Y22251D01*
X109555Y22259D01*
X109560Y22264D01*
X109564Y22268D01*
X109565Y22269D01*
X109599Y22298D01*
X109633Y22323D01*
X109670Y22345D01*
X109708Y22364D01*
X109746Y22380D01*
X109783Y22393D01*
X109820Y22404D01*
X109855Y22413D01*
X109887Y22419D01*
X109918Y22425D01*
X109944Y22428D01*
X109968Y22431D01*
X109978D01*
X109988Y22432D01*
X109995D01*
X110002Y22433D01*
X110014D01*
X110043Y22432D01*
D02*
G37*
G36*
X111442Y17680D02*
X111209Y17646D01*
X111190Y17665D01*
X111171Y17682D01*
X111151Y17697D01*
X111133Y17709D01*
X111113Y17720D01*
X111095Y17729D01*
X111077Y17736D01*
X111060Y17742D01*
X111045Y17747D01*
X111030Y17750D01*
X111017Y17752D01*
X111006Y17754D01*
X110998Y17755D01*
X110991Y17756D01*
X110986D01*
X110967Y17755D01*
X110950Y17752D01*
X110934Y17749D01*
X110918Y17745D01*
X110891Y17734D01*
X110879Y17727D01*
X110868Y17721D01*
X110858Y17714D01*
X110849Y17708D01*
X110842Y17702D01*
X110835Y17697D01*
X110831Y17693D01*
X110828Y17689D01*
X110825Y17687D01*
X110824Y17686D01*
X110813Y17672D01*
X110804Y17657D01*
X110795Y17641D01*
X110787Y17624D01*
X110782Y17606D01*
X110776Y17589D01*
X110769Y17555D01*
X110766Y17539D01*
X110764Y17525D01*
X110763Y17512D01*
X110762Y17500D01*
X110761Y17490D01*
Y17483D01*
Y17478D01*
Y17477D01*
X110762Y17449D01*
X110763Y17424D01*
X110766Y17400D01*
X110771Y17379D01*
X110775Y17359D01*
X110781Y17341D01*
X110787Y17324D01*
X110793Y17309D01*
X110798Y17296D01*
X110805Y17285D01*
X110810Y17275D01*
X110814Y17267D01*
X110819Y17261D01*
X110821Y17257D01*
X110823Y17254D01*
X110824Y17253D01*
X110836Y17240D01*
X110848Y17229D01*
X110861Y17220D01*
X110874Y17211D01*
X110888Y17204D01*
X110899Y17198D01*
X110924Y17189D01*
X110945Y17185D01*
X110954Y17182D01*
X110962Y17181D01*
X110968Y17180D01*
X110977D01*
X110991Y17181D01*
X111005Y17182D01*
X111032Y17189D01*
X111056Y17198D01*
X111077Y17209D01*
X111093Y17220D01*
X111101Y17224D01*
X111107Y17228D01*
X111111Y17232D01*
X111114Y17235D01*
X111116Y17236D01*
X111117Y17237D01*
X111128Y17248D01*
X111138Y17260D01*
X111153Y17285D01*
X111167Y17311D01*
X111176Y17336D01*
X111183Y17358D01*
X111185Y17368D01*
X111186Y17375D01*
X111188Y17382D01*
Y17387D01*
X111189Y17391D01*
Y17392D01*
X111477Y17361D01*
X111472Y17326D01*
X111463Y17295D01*
X111453Y17263D01*
X111442Y17235D01*
X111429Y17208D01*
X111416Y17184D01*
X111403Y17161D01*
X111389Y17140D01*
X111376Y17121D01*
X111363Y17106D01*
X111352Y17092D01*
X111341Y17081D01*
X111332Y17072D01*
X111326Y17066D01*
X111321Y17061D01*
X111320Y17060D01*
X111295Y17041D01*
X111268Y17023D01*
X111240Y17009D01*
X111211Y16996D01*
X111183Y16985D01*
X111154Y16976D01*
X111127Y16969D01*
X111101Y16963D01*
X111076Y16959D01*
X111053Y16955D01*
X111032Y16952D01*
X111015Y16951D01*
X111000Y16950D01*
X110989Y16949D01*
X110980D01*
X110956Y16950D01*
X110932Y16951D01*
X110888Y16958D01*
X110845Y16968D01*
X110806Y16981D01*
X110770Y16995D01*
X110736Y17012D01*
X110705Y17030D01*
X110678Y17050D01*
X110654Y17068D01*
X110632Y17085D01*
X110614Y17103D01*
X110600Y17117D01*
X110588Y17130D01*
X110579Y17140D01*
X110575Y17146D01*
X110573Y17149D01*
X110553Y17177D01*
X110537Y17205D01*
X110522Y17234D01*
X110509Y17262D01*
X110498Y17290D01*
X110490Y17318D01*
X110483Y17345D01*
X110477Y17370D01*
X110472Y17393D01*
X110469Y17415D01*
X110467Y17433D01*
X110466Y17449D01*
X110465Y17463D01*
X110464Y17472D01*
Y17479D01*
Y17481D01*
X110465Y17523D01*
X110469Y17561D01*
X110476Y17598D01*
X110484Y17633D01*
X110494Y17664D01*
X110506Y17695D01*
X110518Y17722D01*
X110530Y17747D01*
X110543Y17769D01*
X110555Y17788D01*
X110566Y17806D01*
X110577Y17820D01*
X110586Y17831D01*
X110592Y17839D01*
X110597Y17844D01*
X110598Y17845D01*
X110624Y17870D01*
X110650Y17892D01*
X110677Y17911D01*
X110705Y17927D01*
X110733Y17940D01*
X110760Y17952D01*
X110786Y17961D01*
X110811Y17968D01*
X110834Y17974D01*
X110856Y17978D01*
X110874Y17981D01*
X110892Y17984D01*
X110905Y17985D01*
X110915Y17986D01*
X110942D01*
X110960Y17984D01*
X110998Y17978D01*
X111030Y17970D01*
X111047Y17966D01*
X111061Y17962D01*
X111074Y17956D01*
X111086Y17952D01*
X111096Y17948D01*
X111106Y17944D01*
X111112Y17941D01*
X111117Y17939D01*
X111121Y17938D01*
X111122Y17937D01*
X111075Y18194D01*
X110530D01*
Y18464D01*
X111294D01*
X111442Y17680D01*
D02*
G37*
G36*
X109861Y16975D02*
X109533D01*
X108995Y18484D01*
X109319D01*
X109687Y17368D01*
X110070Y18484D01*
X110399D01*
X109861Y16975D01*
D02*
G37*
G36*
X108595Y34200D02*
X108607Y34175D01*
X108620Y34151D01*
X108634Y34129D01*
X108650Y34107D01*
X108665Y34087D01*
X108680Y34069D01*
X108694Y34051D01*
X108710Y34036D01*
X108723Y34023D01*
X108735Y34011D01*
X108746Y34001D01*
X108754Y33994D01*
X108762Y33987D01*
X108766Y33984D01*
X108767Y33983D01*
X108792Y33964D01*
X108817Y33947D01*
X108839Y33932D01*
X108862Y33917D01*
X108883Y33904D01*
X108904Y33893D01*
X108922Y33884D01*
X108940Y33874D01*
X108956Y33866D01*
X108970Y33860D01*
X108982Y33855D01*
X108993Y33851D01*
X109002Y33848D01*
X109007Y33845D01*
X109012Y33843D01*
X109013D01*
Y33581D01*
X108974Y33595D01*
X108935Y33610D01*
X108898Y33628D01*
X108863Y33645D01*
X108831Y33662D01*
X108800Y33681D01*
X108772Y33700D01*
X108746Y33717D01*
X108722Y33733D01*
X108701Y33750D01*
X108682Y33764D01*
X108667Y33776D01*
X108655Y33786D01*
X108647Y33793D01*
X108641Y33798D01*
X108639Y33800D01*
Y32711D01*
X108350D01*
Y34225D01*
X108585D01*
X108595Y34200D01*
D02*
G37*
G36*
X111447Y34243D02*
X111475Y34242D01*
X111531Y34236D01*
X111582Y34225D01*
X111631Y34212D01*
X111677Y34196D01*
X111718Y34178D01*
X111757Y34159D01*
X111792Y34140D01*
X111823Y34120D01*
X111850Y34102D01*
X111874Y34084D01*
X111894Y34068D01*
X111909Y34055D01*
X111920Y34044D01*
X111923Y34041D01*
X111926Y34037D01*
X111927Y34036D01*
X111928Y34035D01*
X111946Y34016D01*
X111962Y33995D01*
X111993Y33950D01*
X112018Y33904D01*
X112041Y33856D01*
X112059Y33807D01*
X112076Y33759D01*
X112088Y33711D01*
X112099Y33665D01*
X112106Y33621D01*
X112113Y33581D01*
X112115Y33562D01*
X112117Y33545D01*
X112118Y33528D01*
X112119Y33513D01*
X112120Y33499D01*
X112121Y33487D01*
Y33476D01*
X112122Y33467D01*
Y33461D01*
Y33455D01*
Y33452D01*
Y33451D01*
X112121Y33418D01*
X112120Y33386D01*
X112114Y33325D01*
X112105Y33267D01*
X112092Y33213D01*
X112078Y33163D01*
X112061Y33116D01*
X112044Y33075D01*
X112025Y33037D01*
X112008Y33003D01*
X111991Y32974D01*
X111982Y32960D01*
X111974Y32948D01*
X111967Y32938D01*
X111960Y32928D01*
X111953Y32919D01*
X111947Y32911D01*
X111943Y32905D01*
X111938Y32899D01*
X111934Y32895D01*
X111932Y32892D01*
X111930Y32891D01*
Y32890D01*
X111911Y32871D01*
X111892Y32854D01*
X111873Y32837D01*
X111853Y32822D01*
X111812Y32795D01*
X111772Y32771D01*
X111729Y32751D01*
X111689Y32735D01*
X111648Y32721D01*
X111610Y32711D01*
X111574Y32702D01*
X111541Y32696D01*
X111511Y32691D01*
X111498Y32689D01*
X111486Y32688D01*
X111475Y32687D01*
X111465Y32686D01*
X111457D01*
X111449Y32685D01*
X111436D01*
X111391Y32686D01*
X111349Y32690D01*
X111308Y32696D01*
X111271Y32703D01*
X111235Y32713D01*
X111203Y32723D01*
X111172Y32734D01*
X111145Y32745D01*
X111120Y32756D01*
X111098Y32766D01*
X111079Y32777D01*
X111064Y32786D01*
X111052Y32794D01*
X111043Y32799D01*
X111038Y32803D01*
X111036Y32805D01*
X111007Y32829D01*
X110980Y32855D01*
X110956Y32883D01*
X110933Y32912D01*
X110913Y32943D01*
X110894Y32974D01*
X110878Y33004D01*
X110863Y33033D01*
X110850Y33061D01*
X110839Y33087D01*
X110830Y33111D01*
X110822Y33132D01*
X110817Y33148D01*
X110814Y33156D01*
X110812Y33161D01*
X110811Y33165D01*
X110810Y33169D01*
X110809Y33171D01*
Y33172D01*
X111104Y33266D01*
X111112Y33235D01*
X111121Y33207D01*
X111131Y33182D01*
X111140Y33157D01*
X111150Y33135D01*
X111161Y33115D01*
X111172Y33097D01*
X111182Y33081D01*
X111192Y33067D01*
X111200Y33055D01*
X111209Y33044D01*
X111217Y33037D01*
X111222Y33030D01*
X111226Y33025D01*
X111230Y33023D01*
X111231Y33022D01*
X111247Y33008D01*
X111265Y32996D01*
X111282Y32987D01*
X111301Y32978D01*
X111318Y32970D01*
X111336Y32964D01*
X111352Y32958D01*
X111367Y32955D01*
X111382Y32952D01*
X111397Y32950D01*
X111408Y32947D01*
X111418Y32946D01*
X111427Y32945D01*
X111439D01*
X111470Y32946D01*
X111498Y32951D01*
X111525Y32956D01*
X111550Y32964D01*
X111574Y32974D01*
X111596Y32983D01*
X111616Y32994D01*
X111634Y33006D01*
X111651Y33017D01*
X111665Y33028D01*
X111678Y33038D01*
X111688Y33048D01*
X111695Y33055D01*
X111702Y33061D01*
X111705Y33065D01*
X111706Y33066D01*
X111725Y33091D01*
X111740Y33119D01*
X111754Y33149D01*
X111765Y33181D01*
X111775Y33214D01*
X111784Y33248D01*
X111790Y33282D01*
X111795Y33315D01*
X111800Y33346D01*
X111803Y33376D01*
X111805Y33403D01*
X111806Y33426D01*
X111807Y33437D01*
Y33446D01*
X111809Y33453D01*
Y33461D01*
Y33465D01*
Y33470D01*
Y33472D01*
Y33473D01*
X111807Y33522D01*
X111804Y33568D01*
X111799Y33609D01*
X111792Y33648D01*
X111785Y33683D01*
X111776Y33715D01*
X111766Y33744D01*
X111756Y33769D01*
X111748Y33792D01*
X111738Y33811D01*
X111729Y33827D01*
X111721Y33840D01*
X111715Y33850D01*
X111709Y33858D01*
X111706Y33862D01*
X111705Y33863D01*
X111684Y33885D01*
X111664Y33903D01*
X111641Y33919D01*
X111619Y33933D01*
X111596Y33945D01*
X111573Y33955D01*
X111551Y33962D01*
X111530Y33969D01*
X111510Y33974D01*
X111491Y33977D01*
X111475Y33981D01*
X111461Y33982D01*
X111450Y33983D01*
X111441Y33984D01*
X111434D01*
X111411Y33983D01*
X111390Y33981D01*
X111369Y33977D01*
X111350Y33973D01*
X111332Y33968D01*
X111315Y33962D01*
X111300Y33956D01*
X111284Y33950D01*
X111272Y33944D01*
X111260Y33937D01*
X111250Y33932D01*
X111243Y33926D01*
X111236Y33922D01*
X111231Y33919D01*
X111229Y33916D01*
X111228Y33915D01*
X111212Y33902D01*
X111198Y33888D01*
X111185Y33873D01*
X111174Y33858D01*
X111164Y33842D01*
X111154Y33827D01*
X111139Y33798D01*
X111134Y33784D01*
X111128Y33771D01*
X111124Y33760D01*
X111121Y33751D01*
X111119Y33742D01*
X111116Y33737D01*
X111115Y33732D01*
Y33731D01*
X110813Y33803D01*
X110823Y33836D01*
X110835Y33867D01*
X110847Y33896D01*
X110859Y33923D01*
X110872Y33947D01*
X110885Y33970D01*
X110898Y33990D01*
X110910Y34009D01*
X110922Y34025D01*
X110933Y34040D01*
X110943Y34053D01*
X110952Y34062D01*
X110958Y34070D01*
X110964Y34075D01*
X110967Y34079D01*
X110968Y34080D01*
X111002Y34109D01*
X111037Y34134D01*
X111074Y34156D01*
X111111Y34175D01*
X111149Y34191D01*
X111186Y34204D01*
X111223Y34215D01*
X111258Y34224D01*
X111291Y34230D01*
X111321Y34236D01*
X111347Y34239D01*
X111372Y34242D01*
X111381D01*
X111391Y34243D01*
X111399D01*
X111405Y34244D01*
X111417D01*
X111447Y34243D01*
D02*
G37*
G36*
X109925D02*
X109953Y34242D01*
X110009Y34236D01*
X110060Y34225D01*
X110109Y34212D01*
X110155Y34196D01*
X110196Y34178D01*
X110236Y34159D01*
X110271Y34140D01*
X110301Y34120D01*
X110328Y34102D01*
X110352Y34084D01*
X110372Y34068D01*
X110387Y34055D01*
X110398Y34044D01*
X110401Y34041D01*
X110405Y34037D01*
X110406Y34036D01*
X110407Y34035D01*
X110424Y34016D01*
X110441Y33995D01*
X110471Y33950D01*
X110496Y33904D01*
X110519Y33856D01*
X110538Y33807D01*
X110554Y33759D01*
X110566Y33711D01*
X110577Y33665D01*
X110584Y33621D01*
X110591Y33581D01*
X110593Y33562D01*
X110595Y33545D01*
X110597Y33528D01*
X110598Y33513D01*
X110599Y33499D01*
X110600Y33487D01*
Y33476D01*
X110601Y33467D01*
Y33461D01*
Y33455D01*
Y33452D01*
Y33451D01*
X110600Y33418D01*
X110599Y33386D01*
X110592Y33325D01*
X110583Y33267D01*
X110570Y33213D01*
X110556Y33163D01*
X110540Y33116D01*
X110522Y33075D01*
X110504Y33037D01*
X110486Y33003D01*
X110469Y32974D01*
X110460Y32960D01*
X110453Y32948D01*
X110445Y32938D01*
X110438Y32928D01*
X110432Y32919D01*
X110425Y32911D01*
X110421Y32905D01*
X110417Y32899D01*
X110412Y32895D01*
X110410Y32892D01*
X110408Y32891D01*
Y32890D01*
X110389Y32871D01*
X110371Y32854D01*
X110351Y32837D01*
X110332Y32822D01*
X110290Y32795D01*
X110250Y32771D01*
X110207Y32751D01*
X110167Y32735D01*
X110127Y32721D01*
X110089Y32711D01*
X110053Y32702D01*
X110020Y32696D01*
X109989Y32691D01*
X109976Y32689D01*
X109964Y32688D01*
X109953Y32687D01*
X109944Y32686D01*
X109935D01*
X109927Y32685D01*
X109914D01*
X109869Y32686D01*
X109827Y32690D01*
X109787Y32696D01*
X109749Y32703D01*
X109714Y32713D01*
X109681Y32723D01*
X109650Y32734D01*
X109623Y32745D01*
X109598Y32756D01*
X109576Y32766D01*
X109558Y32777D01*
X109542Y32786D01*
X109530Y32794D01*
X109522Y32799D01*
X109516Y32803D01*
X109514Y32805D01*
X109486Y32829D01*
X109458Y32855D01*
X109434Y32883D01*
X109412Y32912D01*
X109391Y32943D01*
X109372Y32974D01*
X109356Y33004D01*
X109342Y33033D01*
X109329Y33061D01*
X109318Y33087D01*
X109308Y33111D01*
X109300Y33132D01*
X109295Y33148D01*
X109293Y33156D01*
X109291Y33161D01*
X109290Y33165D01*
X109289Y33169D01*
X109287Y33171D01*
Y33172D01*
X109583Y33266D01*
X109590Y33235D01*
X109599Y33207D01*
X109609Y33182D01*
X109619Y33157D01*
X109628Y33135D01*
X109639Y33115D01*
X109650Y33097D01*
X109660Y33081D01*
X109670Y33067D01*
X109679Y33055D01*
X109687Y33044D01*
X109695Y33037D01*
X109701Y33030D01*
X109705Y33025D01*
X109708Y33023D01*
X109709Y33022D01*
X109725Y33008D01*
X109743Y32996D01*
X109760Y32987D01*
X109779Y32978D01*
X109796Y32970D01*
X109814Y32964D01*
X109830Y32958D01*
X109845Y32955D01*
X109861Y32952D01*
X109875Y32950D01*
X109887Y32947D01*
X109897Y32946D01*
X109905Y32945D01*
X109917D01*
X109948Y32946D01*
X109976Y32951D01*
X110003Y32956D01*
X110029Y32964D01*
X110053Y32974D01*
X110074Y32983D01*
X110094Y32994D01*
X110113Y33006D01*
X110129Y33017D01*
X110143Y33028D01*
X110156Y33038D01*
X110166Y33048D01*
X110173Y33055D01*
X110180Y33061D01*
X110183Y33065D01*
X110184Y33066D01*
X110203Y33091D01*
X110218Y33119D01*
X110232Y33149D01*
X110243Y33181D01*
X110253Y33214D01*
X110262Y33248D01*
X110268Y33282D01*
X110274Y33315D01*
X110278Y33346D01*
X110281Y33376D01*
X110284Y33403D01*
X110285Y33426D01*
X110286Y33437D01*
Y33446D01*
X110287Y33453D01*
Y33461D01*
Y33465D01*
Y33470D01*
Y33472D01*
Y33473D01*
X110286Y33522D01*
X110283Y33568D01*
X110277Y33609D01*
X110271Y33648D01*
X110263Y33683D01*
X110254Y33715D01*
X110244Y33744D01*
X110235Y33769D01*
X110226Y33792D01*
X110216Y33811D01*
X110207Y33827D01*
X110200Y33840D01*
X110193Y33850D01*
X110188Y33858D01*
X110184Y33862D01*
X110183Y33863D01*
X110163Y33885D01*
X110142Y33903D01*
X110119Y33919D01*
X110097Y33933D01*
X110074Y33945D01*
X110052Y33955D01*
X110030Y33962D01*
X110008Y33969D01*
X109988Y33974D01*
X109970Y33977D01*
X109953Y33981D01*
X109939Y33982D01*
X109928Y33983D01*
X109920Y33984D01*
X109912D01*
X109889Y33983D01*
X109868Y33981D01*
X109848Y33977D01*
X109828Y33973D01*
X109811Y33968D01*
X109793Y33962D01*
X109778Y33956D01*
X109763Y33950D01*
X109751Y33944D01*
X109739Y33937D01*
X109729Y33932D01*
X109721Y33926D01*
X109715Y33922D01*
X109709Y33919D01*
X109707Y33916D01*
X109706Y33915D01*
X109691Y33902D01*
X109677Y33888D01*
X109663Y33873D01*
X109652Y33858D01*
X109643Y33842D01*
X109633Y33827D01*
X109618Y33798D01*
X109612Y33784D01*
X109607Y33771D01*
X109602Y33760D01*
X109599Y33751D01*
X109597Y33742D01*
X109595Y33737D01*
X109594Y33732D01*
Y33731D01*
X109292Y33803D01*
X109301Y33836D01*
X109313Y33867D01*
X109326Y33896D01*
X109337Y33923D01*
X109351Y33947D01*
X109364Y33970D01*
X109377Y33990D01*
X109389Y34009D01*
X109401Y34025D01*
X109412Y34040D01*
X109421Y34053D01*
X109430Y34062D01*
X109437Y34070D01*
X109442Y34075D01*
X109445Y34079D01*
X109447Y34080D01*
X109480Y34109D01*
X109515Y34134D01*
X109552Y34156D01*
X109589Y34175D01*
X109627Y34191D01*
X109664Y34204D01*
X109702Y34215D01*
X109736Y34224D01*
X109769Y34230D01*
X109800Y34236D01*
X109826Y34239D01*
X109850Y34242D01*
X109860D01*
X109869Y34243D01*
X109877D01*
X109884Y34244D01*
X109896D01*
X109925Y34243D01*
D02*
G37*
%LPC*%
G36*
X48107Y28248D02*
X48100D01*
X48061Y28245D01*
X48028Y28238D01*
X47999Y28228D01*
X47972Y28218D01*
X47953Y28209D01*
X47940Y28199D01*
X47930Y28192D01*
X47926Y28189D01*
X47887Y28150D01*
X47851Y28104D01*
X47822Y28058D01*
X47798Y28012D01*
X47779Y27972D01*
X47766Y27936D01*
X47763Y27923D01*
X47759Y27917D01*
X47756Y27910D01*
Y27907D01*
X47746Y27867D01*
X47736Y27825D01*
X47730Y27772D01*
X47723Y27720D01*
X47713Y27608D01*
X47707Y27494D01*
X47703Y27438D01*
Y27385D01*
X47700Y27339D01*
Y27300D01*
Y27267D01*
Y27241D01*
Y27224D01*
Y27218D01*
X48550D01*
Y27326D01*
X48546Y27415D01*
X48543Y27497D01*
X48533Y27575D01*
X48520Y27648D01*
X48507Y27716D01*
X48491Y27779D01*
X48474Y27835D01*
X48458Y27887D01*
X48441Y27933D01*
X48425Y27972D01*
X48409Y28008D01*
X48395Y28035D01*
X48382Y28058D01*
X48373Y28074D01*
X48369Y28084D01*
X48366Y28087D01*
X48346Y28117D01*
X48327Y28140D01*
X48304Y28163D01*
X48281Y28179D01*
X48238Y28209D01*
X48195Y28228D01*
X48156Y28238D01*
X48127Y28245D01*
X48107Y28248D01*
D02*
G37*
G36*
X40297D02*
X40291D01*
X40251Y28245D01*
X40218Y28238D01*
X40189Y28228D01*
X40163Y28218D01*
X40143Y28209D01*
X40130Y28199D01*
X40120Y28192D01*
X40117Y28189D01*
X40077Y28150D01*
X40041Y28104D01*
X40012Y28058D01*
X39989Y28012D01*
X39969Y27972D01*
X39956Y27936D01*
X39953Y27923D01*
X39950Y27917D01*
X39946Y27910D01*
Y27907D01*
X39936Y27867D01*
X39926Y27825D01*
X39920Y27772D01*
X39913Y27720D01*
X39904Y27608D01*
X39897Y27494D01*
X39894Y27438D01*
Y27385D01*
X39890Y27339D01*
Y27300D01*
Y27267D01*
Y27241D01*
Y27224D01*
Y27218D01*
X40740D01*
Y27326D01*
X40737Y27415D01*
X40733Y27497D01*
X40724Y27575D01*
X40710Y27648D01*
X40697Y27716D01*
X40681Y27779D01*
X40664Y27835D01*
X40648Y27887D01*
X40632Y27933D01*
X40615Y27972D01*
X40599Y28008D01*
X40586Y28035D01*
X40573Y28058D01*
X40563Y28074D01*
X40560Y28084D01*
X40556Y28087D01*
X40537Y28117D01*
X40517Y28140D01*
X40494Y28163D01*
X40471Y28179D01*
X40428Y28209D01*
X40386Y28228D01*
X40346Y28238D01*
X40317Y28245D01*
X40297Y28248D01*
D02*
G37*
G36*
X87893Y29445D02*
X87811D01*
X87732Y29442D01*
X87664Y29435D01*
X87598Y29432D01*
X87539Y29422D01*
X87483Y29416D01*
X87434Y29406D01*
X87391Y29399D01*
X87355Y29389D01*
X87322Y29379D01*
X87296Y29373D01*
X87273Y29366D01*
X87257Y29360D01*
X87244Y29353D01*
X87237Y29350D01*
X87234D01*
X87162Y29311D01*
X87096Y29268D01*
X87044Y29222D01*
X86998Y29179D01*
X86962Y29140D01*
X86936Y29107D01*
X86929Y29094D01*
X86922Y29084D01*
X86916Y29081D01*
Y29078D01*
X86880Y29006D01*
X86850Y28930D01*
X86831Y28851D01*
X86817Y28779D01*
X86811Y28714D01*
X86808Y28687D01*
X86804Y28661D01*
Y28642D01*
Y28628D01*
Y28618D01*
Y28615D01*
X86808Y28514D01*
X86821Y28425D01*
X86840Y28346D01*
X86850Y28310D01*
X86860Y28277D01*
X86873Y28251D01*
X86883Y28225D01*
X86893Y28202D01*
X86899Y28185D01*
X86909Y28172D01*
X86913Y28163D01*
X86919Y28156D01*
Y28153D01*
X86965Y28090D01*
X87018Y28031D01*
X87070Y27986D01*
X87122Y27943D01*
X87168Y27913D01*
X87204Y27890D01*
X87221Y27880D01*
X87231Y27874D01*
X87237Y27871D01*
X87240D01*
X87283Y27854D01*
X87329Y27838D01*
X87378Y27825D01*
X87431Y27815D01*
X87539Y27795D01*
X87647Y27785D01*
X87696Y27782D01*
X87746Y27779D01*
X87785Y27775D01*
X87824D01*
X87854Y27772D01*
X87897D01*
X87893Y29445D01*
D02*
G37*
G36*
X87897Y27529D02*
X87808D01*
X87729Y27526D01*
X87654Y27520D01*
X87582Y27516D01*
X87516Y27507D01*
X87460Y27500D01*
X87405Y27490D01*
X87359Y27484D01*
X87316Y27474D01*
X87280Y27464D01*
X87247Y27457D01*
X87224Y27451D01*
X87204Y27444D01*
X87188Y27438D01*
X87182Y27434D01*
X87178D01*
X87136Y27415D01*
X87093Y27395D01*
X87018Y27346D01*
X86955Y27290D01*
X86906Y27238D01*
X86867Y27185D01*
X86850Y27165D01*
X86837Y27146D01*
X86827Y27129D01*
X86821Y27116D01*
X86814Y27110D01*
Y27106D01*
X86772Y27018D01*
X86742Y26926D01*
X86719Y26838D01*
X86706Y26752D01*
X86699Y26716D01*
X86696Y26683D01*
X86693Y26651D01*
Y26624D01*
X86690Y26605D01*
Y26588D01*
Y26578D01*
Y26575D01*
X86693Y26480D01*
X86706Y26391D01*
X86726Y26313D01*
X86745Y26244D01*
X86755Y26214D01*
X86765Y26185D01*
X86775Y26162D01*
X86785Y26142D01*
X86791Y26126D01*
X86798Y26116D01*
X86801Y26109D01*
Y26106D01*
X86847Y26031D01*
X86896Y25968D01*
X86949Y25912D01*
X86998Y25867D01*
X87044Y25831D01*
X87083Y25804D01*
X87096Y25798D01*
X87106Y25791D01*
X87113Y25785D01*
X87116D01*
X87195Y25749D01*
X87273Y25722D01*
X87349Y25703D01*
X87418Y25690D01*
X87477Y25683D01*
X87503Y25680D01*
X87523D01*
X87542Y25676D01*
X87565D01*
X87624Y25680D01*
X87673Y25690D01*
X87716Y25703D01*
X87752Y25719D01*
X87778Y25735D01*
X87798Y25749D01*
X87811Y25758D01*
X87814Y25762D01*
X87841Y25798D01*
X87861Y25837D01*
X87877Y25880D01*
X87887Y25919D01*
X87893Y25958D01*
X87897Y25988D01*
Y26008D01*
Y26011D01*
Y26014D01*
Y26168D01*
Y27529D01*
D02*
G37*
G36*
X66934Y29448D02*
X66603D01*
X66511Y29445D01*
X66426Y29438D01*
X66347Y29425D01*
X66275Y29412D01*
X66209Y29396D01*
X66150Y29376D01*
X66094Y29353D01*
X66049Y29333D01*
X66006Y29311D01*
X65970Y29288D01*
X65940Y29268D01*
X65914Y29252D01*
X65894Y29238D01*
X65881Y29225D01*
X65875Y29219D01*
X65871Y29215D01*
X65832Y29169D01*
X65796Y29120D01*
X65766Y29065D01*
X65740Y29006D01*
X65717Y28947D01*
X65701Y28888D01*
X65684Y28828D01*
X65675Y28773D01*
X65665Y28717D01*
X65658Y28668D01*
X65652Y28618D01*
X65648Y28579D01*
X65645Y28546D01*
Y28523D01*
Y28507D01*
Y28500D01*
X65652Y28382D01*
X65655Y28327D01*
X65665Y28277D01*
X65675Y28228D01*
X65684Y28182D01*
X65694Y28143D01*
X65707Y28107D01*
X65720Y28074D01*
X65730Y28045D01*
X65740Y28018D01*
X65750Y27999D01*
X65756Y27982D01*
X65763Y27969D01*
X65770Y27962D01*
Y27959D01*
X65819Y27887D01*
X65875Y27828D01*
X65934Y27779D01*
X65986Y27739D01*
X66035Y27710D01*
X66075Y27690D01*
X66091Y27684D01*
X66101Y27677D01*
X66107Y27674D01*
X66111D01*
X66153Y27661D01*
X66199Y27648D01*
X66301Y27628D01*
X66409Y27615D01*
X66514Y27605D01*
X66563Y27602D01*
X66609Y27598D01*
X66649D01*
X66685Y27595D01*
X66934D01*
Y29448D01*
D02*
G37*
G36*
X80008Y28228D02*
X80002D01*
X79956Y28225D01*
X79913Y28218D01*
X79877Y28209D01*
X79844Y28195D01*
X79821Y28182D01*
X79801Y28172D01*
X79792Y28166D01*
X79788Y28163D01*
X79749Y28123D01*
X79713Y28077D01*
X79683Y28031D01*
X79657Y27982D01*
X79641Y27940D01*
X79624Y27904D01*
X79621Y27890D01*
X79618Y27880D01*
X79615Y27874D01*
Y27871D01*
X79605Y27831D01*
X79595Y27782D01*
X79585Y27730D01*
X79578Y27674D01*
X79569Y27556D01*
X79559Y27434D01*
Y27379D01*
X79555Y27323D01*
Y27274D01*
X79552Y27231D01*
Y27195D01*
Y27169D01*
Y27152D01*
Y27146D01*
Y27064D01*
Y26985D01*
Y26906D01*
X79555Y26834D01*
Y26765D01*
X79559Y26700D01*
X79562Y26578D01*
X79569Y26470D01*
X79572Y26372D01*
X79578Y26283D01*
X79585Y26208D01*
X79592Y26145D01*
X79598Y26090D01*
X79601Y26044D01*
X79608Y26008D01*
X79611Y25981D01*
X79615Y25962D01*
X79618Y25952D01*
Y25949D01*
X79637Y25880D01*
X79660Y25821D01*
X79687Y25771D01*
X79713Y25729D01*
X79739Y25696D01*
X79759Y25670D01*
X79772Y25657D01*
X79778Y25650D01*
X79815Y25624D01*
X79854Y25607D01*
X79893Y25594D01*
X79929Y25585D01*
X79962Y25578D01*
X79988Y25575D01*
X80011D01*
X80064Y25581D01*
X80113Y25594D01*
X80156Y25611D01*
X80195Y25634D01*
X80228Y25653D01*
X80251Y25673D01*
X80264Y25686D01*
X80270Y25690D01*
X80310Y25735D01*
X80339Y25791D01*
X80366Y25847D01*
X80385Y25899D01*
X80398Y25949D01*
X80408Y25988D01*
X80412Y26004D01*
Y26014D01*
X80415Y26021D01*
Y26024D01*
X80428Y26136D01*
X80438Y26244D01*
X80448Y26349D01*
X80451Y26398D01*
Y26444D01*
X80454Y26487D01*
Y26526D01*
X80458Y26562D01*
Y26592D01*
Y26614D01*
Y26634D01*
Y26644D01*
Y26647D01*
Y26762D01*
Y26870D01*
X80454Y26972D01*
X80451Y27067D01*
Y27156D01*
X80448Y27238D01*
X80444Y27310D01*
X80441Y27375D01*
X80438Y27434D01*
X80435Y27487D01*
X80431Y27529D01*
Y27566D01*
X80428Y27595D01*
X80425Y27615D01*
Y27628D01*
Y27631D01*
X80418Y27694D01*
X80408Y27753D01*
X80398Y27808D01*
X80385Y27854D01*
X80372Y27900D01*
X80362Y27936D01*
X80349Y27972D01*
X80336Y28002D01*
X80323Y28028D01*
X80313Y28051D01*
X80300Y28067D01*
X80294Y28084D01*
X80284Y28094D01*
X80277Y28100D01*
X80274Y28107D01*
X80228Y28146D01*
X80182Y28176D01*
X80136Y28199D01*
X80093Y28212D01*
X80057Y28222D01*
X80028Y28225D01*
X80008Y28228D01*
D02*
G37*
G36*
X57976Y28228D02*
X57970D01*
X57924Y28225D01*
X57881Y28218D01*
X57845Y28209D01*
X57812Y28195D01*
X57789Y28182D01*
X57770Y28172D01*
X57760Y28166D01*
X57757Y28163D01*
X57717Y28123D01*
X57681Y28077D01*
X57652Y28031D01*
X57625Y27982D01*
X57609Y27940D01*
X57593Y27903D01*
X57589Y27890D01*
X57586Y27880D01*
X57583Y27874D01*
Y27871D01*
X57573Y27831D01*
X57563Y27782D01*
X57553Y27730D01*
X57547Y27674D01*
X57537Y27556D01*
X57527Y27434D01*
Y27379D01*
X57524Y27323D01*
Y27274D01*
X57521Y27231D01*
Y27195D01*
Y27169D01*
Y27152D01*
Y27146D01*
Y27064D01*
Y26985D01*
Y26906D01*
X57524Y26834D01*
Y26765D01*
X57527Y26700D01*
X57530Y26578D01*
X57537Y26470D01*
X57540Y26372D01*
X57547Y26283D01*
X57553Y26208D01*
X57560Y26145D01*
X57566Y26090D01*
X57570Y26044D01*
X57576Y26008D01*
X57579Y25981D01*
X57583Y25962D01*
X57586Y25952D01*
Y25949D01*
X57606Y25880D01*
X57629Y25821D01*
X57655Y25771D01*
X57681Y25729D01*
X57707Y25696D01*
X57727Y25670D01*
X57740Y25657D01*
X57747Y25650D01*
X57783Y25624D01*
X57822Y25607D01*
X57862Y25594D01*
X57898Y25585D01*
X57930Y25578D01*
X57957Y25575D01*
X57980D01*
X58032Y25581D01*
X58081Y25594D01*
X58124Y25611D01*
X58163Y25634D01*
X58196Y25653D01*
X58219Y25673D01*
X58232Y25686D01*
X58239Y25689D01*
X58278Y25735D01*
X58308Y25791D01*
X58334Y25847D01*
X58354Y25899D01*
X58367Y25949D01*
X58376Y25988D01*
X58380Y26004D01*
Y26014D01*
X58383Y26021D01*
Y26024D01*
X58396Y26136D01*
X58406Y26244D01*
X58416Y26349D01*
X58419Y26398D01*
Y26444D01*
X58422Y26487D01*
Y26526D01*
X58426Y26562D01*
Y26591D01*
Y26614D01*
Y26634D01*
Y26644D01*
Y26647D01*
Y26762D01*
Y26870D01*
X58422Y26972D01*
X58419Y27067D01*
Y27156D01*
X58416Y27238D01*
X58413Y27310D01*
X58409Y27375D01*
X58406Y27434D01*
X58403Y27487D01*
X58399Y27529D01*
Y27566D01*
X58396Y27595D01*
X58393Y27615D01*
Y27628D01*
Y27631D01*
X58386Y27694D01*
X58376Y27753D01*
X58367Y27808D01*
X58354Y27854D01*
X58340Y27900D01*
X58331Y27936D01*
X58318Y27972D01*
X58304Y28002D01*
X58291Y28028D01*
X58281Y28051D01*
X58268Y28067D01*
X58262Y28084D01*
X58252Y28094D01*
X58245Y28100D01*
X58242Y28107D01*
X58196Y28146D01*
X58150Y28176D01*
X58104Y28199D01*
X58062Y28212D01*
X58026Y28222D01*
X57996Y28225D01*
X57976Y28228D01*
D02*
G37*
G36*
X108958Y37901D02*
X108788D01*
X108758Y37900D01*
X108729D01*
X108704Y37899D01*
X108681Y37898D01*
X108661Y37897D01*
X108642Y37895D01*
X108627Y37894D01*
X108613Y37893D01*
X108602Y37890D01*
X108592Y37889D01*
X108584Y37888D01*
X108579Y37887D01*
X108574D01*
X108572Y37886D01*
X108571D01*
X108541Y37877D01*
X108512Y37868D01*
X108488Y37856D01*
X108468Y37844D01*
X108451Y37833D01*
X108445Y37828D01*
X108439Y37824D01*
X108435Y37821D01*
X108432Y37817D01*
X108431Y37816D01*
X108430Y37815D01*
X108410Y37793D01*
X108393Y37771D01*
X108378Y37747D01*
X108365Y37723D01*
X108356Y37702D01*
X108352Y37692D01*
X108349Y37684D01*
X108347Y37678D01*
X108344Y37674D01*
X108343Y37670D01*
Y37669D01*
X108338Y37651D01*
X108333Y37631D01*
X108329Y37609D01*
X108325Y37587D01*
X108319Y37543D01*
X108317Y37521D01*
X108316Y37500D01*
X108314Y37479D01*
X108313Y37461D01*
Y37445D01*
X108312Y37429D01*
Y37417D01*
Y37409D01*
Y37403D01*
Y37401D01*
Y37369D01*
X108313Y37339D01*
X108315Y37311D01*
X108316Y37284D01*
X108319Y37259D01*
X108322Y37238D01*
X108325Y37217D01*
X108327Y37198D01*
X108330Y37181D01*
X108334Y37167D01*
X108336Y37154D01*
X108338Y37144D01*
X108340Y37136D01*
X108342Y37130D01*
X108343Y37126D01*
Y37125D01*
X108349Y37107D01*
X108355Y37090D01*
X108362Y37074D01*
X108369Y37060D01*
X108375Y37047D01*
X108382Y37035D01*
X108388Y37024D01*
X108395Y37014D01*
X108400Y37005D01*
X108406Y36999D01*
X108411Y36992D01*
X108414Y36988D01*
X108419Y36984D01*
X108421Y36981D01*
X108422Y36980D01*
X108423Y36979D01*
X108443Y36964D01*
X108463Y36951D01*
X108483Y36940D01*
X108503Y36932D01*
X108520Y36926D01*
X108528Y36922D01*
X108534Y36920D01*
X108538Y36919D01*
X108543Y36918D01*
X108545Y36917D01*
X108546D01*
X108557Y36915D01*
X108570Y36913D01*
X108598Y36909D01*
X108629Y36906D01*
X108660Y36905D01*
X108674Y36904D01*
X108687D01*
X108699Y36903D01*
X108958D01*
Y37901D01*
D02*
G37*
G36*
X111271Y30027D02*
X111101D01*
X111070Y30026D01*
X111042D01*
X111017Y30025D01*
X110994Y30024D01*
X110973Y30022D01*
X110954Y30020D01*
X110939Y30019D01*
X110925Y30018D01*
X110914Y30016D01*
X110904Y30015D01*
X110897Y30014D01*
X110891Y30013D01*
X110887D01*
X110885Y30011D01*
X110884D01*
X110853Y30003D01*
X110825Y29993D01*
X110801Y29981D01*
X110780Y29969D01*
X110764Y29958D01*
X110757Y29954D01*
X110752Y29949D01*
X110747Y29946D01*
X110744Y29943D01*
X110743Y29942D01*
X110742Y29941D01*
X110722Y29919D01*
X110705Y29896D01*
X110691Y29872D01*
X110678Y29848D01*
X110669Y29827D01*
X110665Y29818D01*
X110661Y29810D01*
X110659Y29803D01*
X110657Y29799D01*
X110656Y29796D01*
Y29795D01*
X110650Y29776D01*
X110645Y29757D01*
X110642Y29735D01*
X110637Y29713D01*
X110632Y29668D01*
X110630Y29646D01*
X110629Y29626D01*
X110626Y29605D01*
X110625Y29586D01*
Y29570D01*
X110624Y29555D01*
Y29543D01*
Y29534D01*
Y29529D01*
Y29526D01*
Y29495D01*
X110625Y29464D01*
X110627Y29436D01*
X110629Y29410D01*
X110632Y29385D01*
X110634Y29363D01*
X110637Y29342D01*
X110640Y29324D01*
X110643Y29306D01*
X110646Y29292D01*
X110648Y29279D01*
X110650Y29269D01*
X110653Y29262D01*
X110655Y29255D01*
X110656Y29252D01*
Y29251D01*
X110661Y29232D01*
X110668Y29216D01*
X110674Y29199D01*
X110681Y29185D01*
X110687Y29172D01*
X110694Y29160D01*
X110701Y29149D01*
X110707Y29140D01*
X110713Y29131D01*
X110718Y29124D01*
X110723Y29118D01*
X110727Y29113D01*
X110731Y29109D01*
X110733Y29107D01*
X110734Y29106D01*
X110735Y29105D01*
X110755Y29089D01*
X110776Y29076D01*
X110795Y29065D01*
X110815Y29058D01*
X110832Y29051D01*
X110840Y29048D01*
X110847Y29046D01*
X110851Y29045D01*
X110855Y29044D01*
X110857Y29043D01*
X110859D01*
X110870Y29040D01*
X110883Y29038D01*
X110911Y29035D01*
X110942Y29032D01*
X110972Y29030D01*
X110986Y29029D01*
X110999D01*
X111011Y29028D01*
X111271D01*
Y30027D01*
D02*
G37*
G36*
X109748D02*
X109545D01*
X109520Y30026D01*
X109498Y30025D01*
X109478D01*
X109460Y30024D01*
X109445Y30022D01*
X109431Y30021D01*
X109419Y30020D01*
X109409Y30019D01*
X109400Y30018D01*
X109394D01*
X109389Y30017D01*
X109385Y30016D01*
X109383D01*
X109357Y30009D01*
X109333Y30000D01*
X109312Y29989D01*
X109293Y29978D01*
X109279Y29966D01*
X109269Y29957D01*
X109263Y29950D01*
X109261Y29949D01*
Y29948D01*
X109252Y29939D01*
X109244Y29928D01*
X109232Y29905D01*
X109224Y29882D01*
X109218Y29860D01*
X109214Y29842D01*
X109213Y29833D01*
Y29826D01*
X109212Y29820D01*
Y29815D01*
Y29813D01*
Y29812D01*
X109213Y29788D01*
X109217Y29765D01*
X109222Y29746D01*
X109229Y29728D01*
X109236Y29714D01*
X109241Y29703D01*
X109243Y29700D01*
X109245Y29697D01*
X109247Y29695D01*
Y29694D01*
X109261Y29677D01*
X109276Y29662D01*
X109292Y29649D01*
X109308Y29639D01*
X109322Y29630D01*
X109333Y29625D01*
X109337Y29622D01*
X109339Y29621D01*
X109341Y29620D01*
X109342D01*
X109355Y29616D01*
X109370Y29613D01*
X109387Y29609D01*
X109406Y29607D01*
X109445Y29603D01*
X109485Y29601D01*
X109504Y29599D01*
X109522Y29598D01*
X109539D01*
X109553Y29597D01*
X109748D01*
Y30027D01*
D02*
G37*
G36*
X111419Y26090D02*
X111249D01*
X111218Y26089D01*
X111190D01*
X111165Y26088D01*
X111142Y26087D01*
X111121Y26085D01*
X111103Y26083D01*
X111088Y26082D01*
X111073Y26081D01*
X111062Y26079D01*
X111053Y26078D01*
X111045Y26077D01*
X111040Y26076D01*
X111035D01*
X111033Y26074D01*
X111032D01*
X111001Y26066D01*
X110973Y26056D01*
X110949Y26044D01*
X110928Y26032D01*
X110912Y26021D01*
X110906Y26017D01*
X110900Y26012D01*
X110896Y26009D01*
X110892Y26006D01*
X110891Y26005D01*
X110890Y26004D01*
X110871Y25982D01*
X110853Y25959D01*
X110839Y25935D01*
X110826Y25911D01*
X110817Y25890D01*
X110813Y25881D01*
X110810Y25873D01*
X110807Y25866D01*
X110805Y25862D01*
X110804Y25859D01*
Y25858D01*
X110799Y25839D01*
X110793Y25820D01*
X110790Y25798D01*
X110786Y25776D01*
X110780Y25731D01*
X110778Y25709D01*
X110777Y25689D01*
X110775Y25668D01*
X110774Y25649D01*
Y25633D01*
X110773Y25618D01*
Y25606D01*
Y25597D01*
Y25592D01*
Y25589D01*
Y25558D01*
X110774Y25527D01*
X110776Y25499D01*
X110777Y25473D01*
X110780Y25448D01*
X110782Y25426D01*
X110786Y25405D01*
X110788Y25387D01*
X110791Y25369D01*
X110794Y25355D01*
X110796Y25342D01*
X110799Y25332D01*
X110801Y25325D01*
X110803Y25318D01*
X110804Y25315D01*
Y25314D01*
X110810Y25295D01*
X110816Y25279D01*
X110823Y25262D01*
X110829Y25248D01*
X110836Y25235D01*
X110842Y25223D01*
X110849Y25212D01*
X110855Y25203D01*
X110861Y25194D01*
X110866Y25187D01*
X110872Y25181D01*
X110875Y25176D01*
X110879Y25172D01*
X110881Y25170D01*
X110883Y25169D01*
X110884Y25168D01*
X110903Y25152D01*
X110924Y25139D01*
X110944Y25128D01*
X110963Y25121D01*
X110981Y25114D01*
X110988Y25111D01*
X110995Y25109D01*
X110999Y25108D01*
X111004Y25107D01*
X111006Y25106D01*
X111007D01*
X111018Y25103D01*
X111031Y25101D01*
X111059Y25098D01*
X111090Y25095D01*
X111120Y25093D01*
X111134Y25092D01*
X111147D01*
X111159Y25091D01*
X111419D01*
Y26090D01*
D02*
G37*
%LPD*%
D26*
X106102Y15748D02*
X115945D01*
X106102Y39370D02*
X115945D01*
Y15748D02*
Y39370D01*
X106102Y15748D02*
Y39370D01*
M02*
