G04*
G04 #@! TF.GenerationSoftware,Altium Limited,Altium Designer,24.8.2 (39)*
G04*
G04 Layer_Color=16711935*
%FSLAX25Y25*%
%MOIN*%
G70*
G04*
G04 #@! TF.SameCoordinates,C8608415-0D93-4E33-BC52-9C0F9C252278*
G04*
G04*
G04 #@! TF.FilePolarity,Negative*
G04*
G01*
G75*
%ADD20O,0.10249X0.05524*%
%ADD21O,0.08674X0.05524*%
G36*
X114270Y18899D02*
X114309Y18895D01*
X114309Y18895D01*
X114499Y18857D01*
X114536Y18846D01*
X114536Y18846D01*
X114715Y18771D01*
X114715Y18771D01*
X114727Y18765D01*
X114749Y18753D01*
X114749Y18753D01*
X114910Y18645D01*
X114910Y18645D01*
X114941Y18621D01*
X115078Y18484D01*
X115102Y18454D01*
X115210Y18293D01*
X115210Y18293D01*
X115219Y18275D01*
X115228Y18258D01*
X115228Y18258D01*
X115302Y18079D01*
X115308Y18059D01*
X115314Y18042D01*
X115351Y17852D01*
X115355Y17813D01*
Y17717D01*
Y17620D01*
Y17620D01*
D01*
X115351Y17581D01*
X115314Y17391D01*
X115302Y17354D01*
X115302Y17354D01*
X115228Y17175D01*
X115228Y17175D01*
X115222Y17163D01*
X115210Y17140D01*
X115210Y17140D01*
X115102Y16979D01*
X115102Y16979D01*
X115078Y16949D01*
X114941Y16812D01*
X114910Y16788D01*
X114749Y16680D01*
X114749Y16680D01*
X114732Y16671D01*
X114715Y16662D01*
X114715Y16661D01*
X114536Y16587D01*
X114516Y16581D01*
X114499Y16576D01*
X114309Y16538D01*
X114270Y16534D01*
X114076D01*
D01*
X114076D01*
X114038Y16538D01*
X113847Y16576D01*
X113810Y16587D01*
X113810Y16587D01*
X113631Y16662D01*
X113631Y16662D01*
X113619Y16668D01*
X113597Y16680D01*
X113597Y16680D01*
X113436Y16788D01*
X113436Y16788D01*
X113406Y16812D01*
X113269Y16949D01*
X113244Y16979D01*
X113137Y17140D01*
X113136Y17140D01*
X113127Y17157D01*
X113118Y17175D01*
X113118Y17175D01*
X113044Y17354D01*
X113038Y17374D01*
X113033Y17391D01*
X112995Y17581D01*
X112991Y17620D01*
Y17717D01*
Y17717D01*
Y17717D01*
X112991Y17813D01*
X112995Y17852D01*
X112995Y17852D01*
X113033Y18042D01*
X113044Y18079D01*
X113044Y18079D01*
X113118Y18258D01*
X113118Y18258D01*
X113125Y18270D01*
X113136Y18293D01*
X113137Y18293D01*
X113244Y18454D01*
X113244Y18454D01*
X113269Y18484D01*
X113406Y18621D01*
X113436Y18645D01*
X113597Y18753D01*
X113597Y18753D01*
X113614Y18762D01*
X113631Y18771D01*
X113631Y18771D01*
X113810Y18846D01*
X113830Y18852D01*
X113847Y18857D01*
X114038Y18895D01*
X114076Y18899D01*
X114173D01*
X114173D01*
X114173D01*
X114270Y18899D01*
D02*
G37*
G36*
Y22836D02*
X114309Y22832D01*
X114309Y22832D01*
X114499Y22794D01*
X114536Y22783D01*
X114536Y22783D01*
X114715Y22708D01*
X114715Y22708D01*
X114727Y22702D01*
X114749Y22690D01*
X114749Y22690D01*
X114910Y22582D01*
X114910Y22582D01*
X114941Y22558D01*
X115078Y22421D01*
X115102Y22391D01*
X115210Y22230D01*
X115210Y22230D01*
X115219Y22212D01*
X115228Y22195D01*
X115228Y22195D01*
X115302Y22016D01*
X115308Y21996D01*
X115314Y21979D01*
X115351Y21789D01*
X115355Y21750D01*
Y21654D01*
Y21557D01*
Y21557D01*
D01*
X115351Y21518D01*
X115314Y21328D01*
X115302Y21291D01*
X115302Y21291D01*
X115228Y21112D01*
X115228Y21112D01*
X115222Y21100D01*
X115210Y21077D01*
X115210Y21077D01*
X115102Y20916D01*
X115102Y20916D01*
X115078Y20886D01*
X114941Y20749D01*
X114910Y20725D01*
X114749Y20617D01*
X114749Y20617D01*
X114732Y20608D01*
X114715Y20599D01*
X114715Y20598D01*
X114536Y20524D01*
X114516Y20518D01*
X114499Y20513D01*
X114309Y20475D01*
X114270Y20471D01*
X114076D01*
D01*
X114076D01*
X114038Y20475D01*
X113847Y20513D01*
X113810Y20524D01*
X113810Y20524D01*
X113631Y20599D01*
X113631Y20599D01*
X113619Y20605D01*
X113597Y20617D01*
X113597Y20617D01*
X113436Y20725D01*
X113436Y20725D01*
X113406Y20749D01*
X113269Y20886D01*
X113244Y20916D01*
X113137Y21077D01*
X113136Y21077D01*
X113127Y21094D01*
X113118Y21112D01*
X113118Y21112D01*
X113044Y21291D01*
X113038Y21311D01*
X113033Y21328D01*
X112995Y21518D01*
X112991Y21557D01*
Y21654D01*
Y21654D01*
Y21654D01*
X112991Y21750D01*
X112995Y21789D01*
X112995Y21789D01*
X113033Y21979D01*
X113044Y22016D01*
X113044Y22016D01*
X113118Y22195D01*
X113118Y22195D01*
X113125Y22207D01*
X113136Y22230D01*
X113137Y22230D01*
X113244Y22391D01*
X113244Y22391D01*
X113269Y22421D01*
X113406Y22558D01*
X113436Y22582D01*
X113597Y22690D01*
X113597Y22690D01*
X113614Y22699D01*
X113631Y22708D01*
X113631Y22708D01*
X113810Y22783D01*
X113830Y22789D01*
X113847Y22794D01*
X114038Y22832D01*
X114076Y22836D01*
X114173D01*
X114173D01*
X114173D01*
X114270Y22836D01*
D02*
G37*
G36*
Y26773D02*
X114309Y26769D01*
X114309Y26769D01*
X114499Y26731D01*
X114536Y26720D01*
X114536Y26720D01*
X114715Y26645D01*
X114715Y26645D01*
X114727Y26639D01*
X114749Y26627D01*
X114749Y26627D01*
X114910Y26520D01*
X114910Y26520D01*
X114941Y26495D01*
X115078Y26358D01*
X115102Y26328D01*
X115210Y26167D01*
X115210Y26167D01*
X115219Y26149D01*
X115228Y26133D01*
X115228Y26132D01*
X115302Y25953D01*
X115308Y25934D01*
X115314Y25916D01*
X115351Y25726D01*
X115355Y25688D01*
Y25591D01*
Y25494D01*
D01*
Y25494D01*
X115351Y25455D01*
X115314Y25265D01*
X115302Y25228D01*
X115302Y25228D01*
X115228Y25049D01*
X115228Y25049D01*
X115222Y25037D01*
X115210Y25014D01*
X115210Y25014D01*
X115102Y24853D01*
X115102Y24853D01*
X115078Y24823D01*
X114941Y24686D01*
X114910Y24662D01*
X114749Y24554D01*
X114749Y24554D01*
X114732Y24545D01*
X114715Y24536D01*
X114715Y24535D01*
X114536Y24461D01*
X114516Y24455D01*
X114499Y24450D01*
X114309Y24412D01*
X114270Y24408D01*
X114076D01*
D01*
X114076D01*
X114038Y24412D01*
X113847Y24450D01*
X113810Y24461D01*
X113810Y24461D01*
X113631Y24536D01*
X113631Y24536D01*
X113619Y24542D01*
X113597Y24554D01*
X113597Y24554D01*
X113436Y24662D01*
X113436Y24662D01*
X113406Y24686D01*
X113269Y24823D01*
X113244Y24853D01*
X113137Y25014D01*
X113136Y25014D01*
X113127Y25032D01*
X113118Y25049D01*
X113118Y25049D01*
X113044Y25228D01*
X113038Y25248D01*
X113033Y25265D01*
X112995Y25455D01*
X112991Y25494D01*
Y25591D01*
Y25591D01*
Y25591D01*
X112991Y25688D01*
X112995Y25726D01*
X112995Y25726D01*
X113033Y25916D01*
X113044Y25953D01*
X113044Y25953D01*
X113118Y26132D01*
X113118Y26133D01*
X113125Y26144D01*
X113136Y26167D01*
X113137Y26167D01*
X113244Y26328D01*
X113244Y26328D01*
X113269Y26358D01*
X113406Y26495D01*
X113436Y26520D01*
X113597Y26627D01*
X113597Y26627D01*
X113614Y26636D01*
X113631Y26645D01*
X113631Y26646D01*
X113810Y26720D01*
X113830Y26726D01*
X113847Y26731D01*
X114038Y26769D01*
X114076Y26773D01*
X114173D01*
X114173D01*
X114173D01*
X114270Y26773D01*
D02*
G37*
G36*
Y30710D02*
X114309Y30706D01*
X114309Y30706D01*
X114499Y30668D01*
X114536Y30657D01*
X114536Y30657D01*
X114715Y30582D01*
X114715Y30582D01*
X114727Y30576D01*
X114749Y30564D01*
X114749Y30564D01*
X114910Y30457D01*
X114910Y30457D01*
X114941Y30432D01*
X115078Y30295D01*
X115102Y30265D01*
X115210Y30104D01*
X115210Y30104D01*
X115219Y30087D01*
X115228Y30070D01*
X115228Y30069D01*
X115302Y29890D01*
X115308Y29871D01*
X115314Y29853D01*
X115351Y29663D01*
X115355Y29625D01*
Y29528D01*
Y29431D01*
Y29431D01*
D01*
X115351Y29392D01*
X115314Y29202D01*
X115302Y29165D01*
X115302Y29165D01*
X115228Y28986D01*
X115228Y28986D01*
X115222Y28974D01*
X115210Y28951D01*
X115210Y28951D01*
X115102Y28790D01*
X115102Y28790D01*
X115078Y28760D01*
X114941Y28623D01*
X114910Y28599D01*
X114749Y28491D01*
X114749Y28491D01*
X114732Y28482D01*
X114715Y28473D01*
X114715Y28473D01*
X114536Y28398D01*
X114516Y28392D01*
X114499Y28387D01*
X114309Y28349D01*
X114270Y28346D01*
X114076D01*
D01*
X114076D01*
X114038Y28349D01*
X113847Y28387D01*
X113810Y28398D01*
X113810Y28398D01*
X113631Y28473D01*
X113631Y28473D01*
X113619Y28479D01*
X113597Y28491D01*
X113597Y28491D01*
X113436Y28599D01*
X113436Y28599D01*
X113406Y28623D01*
X113269Y28760D01*
X113244Y28790D01*
X113137Y28951D01*
X113136Y28951D01*
X113127Y28969D01*
X113118Y28986D01*
X113118Y28986D01*
X113044Y29165D01*
X113038Y29185D01*
X113033Y29202D01*
X112995Y29392D01*
X112991Y29431D01*
Y29528D01*
Y29528D01*
Y29528D01*
X112991Y29625D01*
X112995Y29663D01*
X112995Y29663D01*
X113033Y29853D01*
X113044Y29890D01*
X113044Y29890D01*
X113118Y30069D01*
X113118Y30070D01*
X113125Y30081D01*
X113136Y30104D01*
X113137Y30104D01*
X113244Y30265D01*
X113244Y30265D01*
X113269Y30295D01*
X113406Y30432D01*
X113436Y30457D01*
X113597Y30564D01*
X113597Y30564D01*
X113614Y30573D01*
X113631Y30582D01*
X113631Y30583D01*
X113810Y30657D01*
X113830Y30663D01*
X113847Y30668D01*
X114038Y30706D01*
X114076Y30710D01*
X114173D01*
X114173D01*
X114173D01*
X114270Y30710D01*
D02*
G37*
G36*
Y34647D02*
X114309Y34643D01*
X114309Y34643D01*
X114499Y34605D01*
X114536Y34594D01*
X114536Y34594D01*
X114715Y34519D01*
X114715Y34519D01*
X114727Y34513D01*
X114749Y34501D01*
X114749Y34501D01*
X114910Y34394D01*
X114910Y34394D01*
X114941Y34369D01*
X115078Y34232D01*
X115102Y34202D01*
X115210Y34041D01*
X115210Y34041D01*
X115219Y34024D01*
X115228Y34007D01*
X115228Y34006D01*
X115302Y33827D01*
X115308Y33808D01*
X115314Y33790D01*
X115351Y33600D01*
X115355Y33562D01*
Y33465D01*
Y33368D01*
Y33368D01*
D01*
X115351Y33329D01*
X115314Y33139D01*
X115302Y33102D01*
X115302Y33102D01*
X115228Y32923D01*
X115228Y32923D01*
X115222Y32911D01*
X115210Y32888D01*
X115210Y32888D01*
X115102Y32727D01*
X115102Y32727D01*
X115078Y32697D01*
X114941Y32560D01*
X114910Y32536D01*
X114749Y32428D01*
X114749Y32428D01*
X114732Y32419D01*
X114715Y32410D01*
X114715Y32410D01*
X114536Y32335D01*
X114516Y32329D01*
X114499Y32324D01*
X114309Y32286D01*
X114270Y32283D01*
X114076D01*
D01*
X114076D01*
X114038Y32286D01*
X113847Y32324D01*
X113810Y32335D01*
X113810Y32335D01*
X113631Y32410D01*
X113631Y32410D01*
X113619Y32416D01*
X113597Y32428D01*
X113597Y32428D01*
X113436Y32536D01*
X113436Y32536D01*
X113406Y32560D01*
X113269Y32697D01*
X113244Y32727D01*
X113137Y32888D01*
X113136Y32888D01*
X113127Y32906D01*
X113118Y32923D01*
X113118Y32923D01*
X113044Y33102D01*
X113038Y33122D01*
X113033Y33139D01*
X112995Y33329D01*
X112991Y33368D01*
Y33465D01*
Y33465D01*
Y33465D01*
X112991Y33562D01*
X112995Y33600D01*
X112995Y33600D01*
X113033Y33790D01*
X113044Y33827D01*
X113044Y33827D01*
X113118Y34006D01*
X113118Y34007D01*
X113125Y34018D01*
X113136Y34041D01*
X113137Y34041D01*
X113244Y34202D01*
X113244Y34202D01*
X113269Y34232D01*
X113406Y34369D01*
X113436Y34394D01*
X113597Y34501D01*
X113597Y34501D01*
X113614Y34510D01*
X113631Y34519D01*
X113631Y34520D01*
X113810Y34594D01*
X113830Y34600D01*
X113847Y34605D01*
X114038Y34643D01*
X114076Y34647D01*
X114173D01*
X114173D01*
X114173D01*
X114270Y34647D01*
D02*
G37*
G36*
Y38584D02*
X114309Y38580D01*
X114309Y38580D01*
X114499Y38542D01*
X114536Y38531D01*
X114536Y38531D01*
X114715Y38456D01*
X114715Y38456D01*
X114727Y38450D01*
X114749Y38438D01*
X114749Y38438D01*
X114910Y38331D01*
X114910Y38331D01*
X114941Y38306D01*
X115078Y38169D01*
X115102Y38139D01*
X115210Y37978D01*
X115210Y37978D01*
X115219Y37961D01*
X115228Y37944D01*
X115228Y37943D01*
X115302Y37764D01*
X115308Y37745D01*
X115314Y37727D01*
X115351Y37537D01*
X115355Y37499D01*
Y37402D01*
Y37305D01*
D01*
Y37305D01*
X115351Y37266D01*
X115314Y37076D01*
X115302Y37039D01*
X115302Y37039D01*
X115228Y36860D01*
X115228Y36860D01*
X115222Y36848D01*
X115210Y36825D01*
X115210Y36825D01*
X115102Y36664D01*
X115102Y36664D01*
X115078Y36634D01*
X114941Y36497D01*
X114910Y36473D01*
X114749Y36365D01*
X114749Y36365D01*
X114732Y36356D01*
X114715Y36347D01*
X114715Y36347D01*
X114536Y36272D01*
X114516Y36266D01*
X114499Y36261D01*
X114309Y36223D01*
X114270Y36219D01*
X114076D01*
D01*
X114076D01*
X114038Y36223D01*
X113847Y36261D01*
X113810Y36272D01*
X113810Y36272D01*
X113631Y36347D01*
X113631Y36347D01*
X113619Y36353D01*
X113597Y36365D01*
X113597Y36365D01*
X113436Y36473D01*
X113436Y36473D01*
X113406Y36497D01*
X113269Y36634D01*
X113244Y36664D01*
X113137Y36825D01*
X113136Y36825D01*
X113127Y36843D01*
X113118Y36860D01*
X113118Y36860D01*
X113044Y37039D01*
X113038Y37059D01*
X113033Y37076D01*
X112995Y37266D01*
X112991Y37305D01*
Y37402D01*
Y37402D01*
Y37402D01*
X112991Y37499D01*
X112995Y37537D01*
X112995Y37537D01*
X113033Y37727D01*
X113044Y37764D01*
X113044Y37764D01*
X113118Y37943D01*
X113118Y37944D01*
X113125Y37955D01*
X113136Y37978D01*
X113137Y37978D01*
X113244Y38139D01*
X113244Y38139D01*
X113269Y38169D01*
X113406Y38306D01*
X113436Y38331D01*
X113597Y38438D01*
X113597Y38438D01*
X113614Y38447D01*
X113631Y38456D01*
X113631Y38457D01*
X113810Y38531D01*
X113830Y38537D01*
X113847Y38542D01*
X114038Y38580D01*
X114076Y38584D01*
X114173D01*
X114173D01*
X114173D01*
X114270Y38584D01*
D02*
G37*
D20*
X8287Y49528D02*
D03*
Y5591D02*
D03*
D21*
X24035D02*
D03*
Y49528D02*
D03*
M02*
