G04*
G04 #@! TF.GenerationSoftware,Altium Limited,Altium Designer,24.8.2 (39)*
G04*
G04 Layer_Color=255*
%FSLAX25Y25*%
%MOIN*%
G70*
G04*
G04 #@! TF.SameCoordinates,C8608415-0D93-4E33-BC52-9C0F9C252278*
G04*
G04*
G04 #@! TF.FilePolarity,Positive*
G04*
G01*
G75*
%ADD23O,0.09449X0.04724*%
%ADD24O,0.07874X0.04724*%
G36*
G01X115157Y17717D02*
G02X114173Y16732I-984J0D01*
G02X113189Y17717I0J984D01*
G02X114173Y18701I984J0D01*
G02X115157Y17717I0J-984D01*
D02*
G37*
G36*
G01Y37402D02*
G02X114173Y36417I-984J0D01*
G02X113189Y37402I0J984D01*
G02X114173Y38386I984J0D01*
G02X115157Y37402I0J-984D01*
D02*
G37*
G36*
G01Y25591D02*
G02X114173Y24606I-984J0D01*
G02X113189Y25591I0J984D01*
G02X114173Y26575I984J0D01*
G02X115157Y25591I0J-984D01*
D02*
G37*
G36*
G01Y33465D02*
G02X114173Y32480I-984J0D01*
G02X113189Y33465I0J984D01*
G02X114173Y34449I984J0D01*
G02X115157Y33465I0J-984D01*
D02*
G37*
G36*
G01Y21654D02*
G02X114173Y20669I-984J0D01*
G02X113189Y21654I0J984D01*
G02X114173Y22638I984J0D01*
G02X115157Y21654I0J-984D01*
D02*
G37*
G36*
G01Y29528D02*
G02X114173Y28543I-984J0D01*
G02X113189Y29528I0J984D01*
G02X114173Y30512I984J0D01*
G02X115157Y29528I0J-984D01*
D02*
G37*
D23*
X8287Y49528D02*
D03*
Y5591D02*
D03*
D24*
X24035D02*
D03*
Y49528D02*
D03*
M02*
