G04*
G04 #@! TF.GenerationSoftware,Altium Limited,Altium Designer,24.8.2 (39)*
G04*
G04 Layer_Color=32768*
%FSLAX25Y25*%
%MOIN*%
G70*
G04*
G04 #@! TF.SameCoordinates,C8608415-0D93-4E33-BC52-9C0F9C252278*
G04*
G04*
G04 #@! TF.FilePolarity,Positive*
G04*
G01*
G75*
%ADD30C,0.00200*%
G36*
X25610Y48937D02*
X25609D01*
Y45079D01*
X22460D01*
Y50118D01*
X25610D01*
Y48937D01*
D02*
G37*
G36*
X10649D02*
Y45079D01*
X5925Y45079D01*
Y48937D01*
Y50118D01*
X10649D01*
Y48937D01*
D02*
G37*
G36*
X28405Y39410D02*
X25256D01*
Y40984D01*
X28405D01*
Y39410D01*
D02*
G37*
G36*
X115895Y36969D02*
X113927D01*
Y37441D01*
X115895D01*
Y36969D01*
D02*
G37*
G36*
X28405Y36260D02*
X25256D01*
Y37835D01*
X28405D01*
Y36260D01*
D02*
G37*
G36*
Y34055D02*
X25256D01*
Y34843D01*
X28405D01*
Y34055D01*
D02*
G37*
G36*
X109939Y33228D02*
X108758D01*
Y33700D01*
X109939D01*
Y33228D01*
D02*
G37*
G36*
X28405Y32087D02*
X25256D01*
Y32874D01*
X28405D01*
Y32087D01*
D02*
G37*
G36*
X109939Y30866D02*
X108758D01*
Y31339D01*
X109939D01*
Y30866D01*
D02*
G37*
G36*
X28405Y30118D02*
X25256D01*
Y30906D01*
X28405D01*
Y30118D01*
D02*
G37*
G36*
X109939Y28504D02*
X108758D01*
Y28977D01*
X109939D01*
Y28504D01*
D02*
G37*
G36*
X28405Y28150D02*
X25256D01*
Y28937D01*
X28405D01*
Y28150D01*
D02*
G37*
G36*
X28405Y26181D02*
X25256D01*
Y26969D01*
X28405D01*
Y26181D01*
D02*
G37*
G36*
X109939Y26142D02*
X108758D01*
Y26615D01*
X109939D01*
Y26142D01*
D02*
G37*
G36*
X28405Y24213D02*
X25256D01*
Y25000D01*
X28405D01*
Y24213D01*
D02*
G37*
G36*
X109939Y23779D02*
X108758D01*
Y24252D01*
X109939D01*
Y23779D01*
D02*
G37*
G36*
X28405Y22244D02*
X25256D01*
Y23031D01*
X28405D01*
Y22244D01*
D02*
G37*
G36*
X109939Y21417D02*
X108758D01*
Y21890D01*
X109939D01*
Y21417D01*
D02*
G37*
G36*
X28405Y20276D02*
X25256D01*
Y21063D01*
X28405D01*
Y20276D01*
D02*
G37*
G36*
X115895Y17677D02*
X113927D01*
Y18149D01*
X115895D01*
Y17677D01*
D02*
G37*
G36*
X28405Y17284D02*
X25256D01*
Y18858D01*
X28405D01*
Y17284D01*
D02*
G37*
G36*
X108758Y17165D02*
Y17165D01*
X108853Y17161D01*
X108984Y17024D01*
X108984Y16835D01*
X108853Y16698D01*
X108758Y16693D01*
X108663Y16698D01*
X108532Y16835D01*
X108532Y17024D01*
X108663Y17161D01*
X108758Y17165D01*
D01*
X108758D01*
X108758D01*
D02*
G37*
G36*
X28405Y14134D02*
X25256D01*
Y15709D01*
X28405D01*
Y14134D01*
D02*
G37*
G36*
X25610Y6181D02*
X25610D01*
Y5000D01*
X22460D01*
Y5000D01*
X22460D01*
X22460Y10039D01*
X25610D01*
Y6181D01*
D02*
G37*
G36*
X10649Y5000D02*
Y5000D01*
X5925D01*
Y5000D01*
Y10039D01*
X10649D01*
Y5000D01*
D02*
G37*
D30*
X20Y45158D02*
X25610D01*
Y9961D02*
Y45158D01*
X20Y9961D02*
X25610D01*
X20D02*
Y45158D01*
X116632Y16929D02*
Y38189D01*
X108758D02*
X116632D01*
X108758Y16929D02*
Y38189D01*
Y16929D02*
X116632D01*
M02*
